<?xml version="1.0" encoding="utf-8"?>
<!-- Generator: Adobe Illustrator 24.1.2, SVG Export Plug-In . SVG Version: 6.00 Build 0)  -->
<svg version="1.1" id="Слой_1" xmlns="http://www.w3.org/2000/svg" xmlns:xlink="http://www.w3.org/1999/xlink" x="0px" y="0px"
	 viewBox="0 0 1500 1200" style="enable-background:new 0 0 1500 1200;" xml:space="preserve">
<style type="text/css">
	.st0{fill-rule:evenodd;clip-rule:evenodd;fill:#E40521;}
	.st1{fill-rule:evenodd;clip-rule:evenodd;}
</style>
<path class="st0" d="M438.3,470.1c0-171.9,139.3-311.2,311.2-311.2c171.9,0,311.2,139.3,311.2,311.2
	c0,171.9-139.3,311.2-311.2,311.2C577.7,781.2,438.3,641.9,438.3,470.1 M863.5,719.1c-34.7,15.9-73.3,24.8-113.9,24.8
	c-108.3,0-202-62.9-246.4-154.2c13.2-48.3,40.3-90.9,76.7-123.3c0,1.4,0.1,2.7,0.1,4.1c0,138.5,112.3,250.8,250.8,250.8
	C841.8,721.2,852.7,720.6,863.5,719.1z M749.5,657.3c139.5,0,252.6-113.1,252.6-252.6c0-18.1-1.9-35.9-5.5-52.9
	c17.2,35.8,26.8,75.9,26.8,118.2c0,110.4-65.3,205.5-159.4,248.8C751.7,692,668.3,591,668.3,470.5c0-73.7,31.2-140.6,81.2-187.2
	c-139.5,0-252.6,113.1-252.6,252.6c0,17.8,1.8,35.2,5.3,52c-17-35.7-26.5-75.6-26.5-117.7c0-151.2,122.6-273.9,273.9-273.9
	c108.4,0,202,63,246.4,154.3c-13.2,48.5-40.3,91.2-76.7,123.6c0-1.4-0.1-2.7-0.1-4.1c0-138.5-112.3-250.8-250.8-250.8
	c-11.5,0-22.7,0.7-33.8,2.2c112.5,26.7,196.1,127.8,196.1,248.5C830.7,543.8,799.5,610.7,749.5,657.3z"/>
<path class="st1" d="M1360.9,954.3h45.2h34.4c0,28.7,0,57.3,0,86c-36.7,0-73.5,0-110.2,0c-21.6,0-39.2-17.6-39.2-39.2v-58.3
	c0-21.6,17.6-39.2,39.2-39.2c36.7,0,73.5,0,110.2,0V935h-0.8c-32.4,0-64.8,0-97.1,0c-9.4,0-17.1,7.7-17.1,17.1v39.6
	c0,9.4,7.7,17.1,17.1,17.1h46.4l17.1,0v-25.3h-45.2V954.3z M1110.6,903.6h30.9h1.8l81,89v-89h32.7v136.7h-32.7l-81-87.3v87.3h-32.7
	V903.6z M92.9,954.3H58.6c0,28.7,0,57.3,0,86c36.7,0,73.5,0,110.2,0c21.6,0,39.2-17.6,39.2-39.2v-58.3c0-21.6-17.6-39.2-39.2-39.2
	c-36.7,0-73.5,0-110.2,0V935h0.8c32.4,0,64.8,0,97.1,0c9.4,0,17.1,7.7,17.1,17.1v39.6c0,9.4-7.7,17.1-17.1,17.1H110l-17.1,0v-25.3
	V954.3z M983,954.3h92.8v29.2H983v27.5h92.8v29.2H983h-33.5v-29.2v-27.5v-29.2v-19.6v-22v-7.2h126.2v29.2H983V954.3z M820.1,905.5
	h3.5h53.2H915v29.2h-6.9h-84.5h-34.8C789.9,918.5,803.6,905.5,820.1,905.5z M788.8,954.3h33.5H915v29.2h-92.8v56.8h-33.5v-56.8
	V954.3z M670.9,954.3h45.2h34.4c0,28.7,0,57.3,0,86c-36.7,0-73.5,0-110.2,0c-21.6,0-39.2-17.6-39.2-39.2v-58.3
	c0-21.6,17.6-39.2,39.2-39.2c36.7,0,73.5,0,110.2,0V935h-0.8c-32.4,0-64.8,0-97.1,0c-9.4,0-17.1,7.7-17.1,17.1v39.6
	c0,9.4,7.7,17.1,17.1,17.1H699l17.1,0v-25.3h-45.2V954.3z M418,903.6h30.9h1.8l81,89v-89h32.7v136.7h-32.7l-81-87.3v87.3H418V903.6z
	 M274,903.6h71c21.6,0,39.2,17.6,39.2,39.2v58.3c0,21.6-17.6,39.2-39.2,39.2h-71c-21.6,0-39.2-17.6-39.2-39.2v-58.3
	C234.8,921.2,252.5,903.6,274,903.6z M286.3,935h46.4c9.4,0,17.1,7.7,17.1,17.1v39.6c0,9.4-7.7,17.1-17.1,17.1h-46.4
	c-9.4,0-17.1-7.7-17.1-17.1v-39.6C269.2,942.7,276.9,935,286.3,935z"/>
</svg>
