<svg width="24" height="24" viewBox="0 0 24 24" fill="none" xmlns="http://www.w3.org/2000/svg">
<g filter="url(#filter0_i_175_25780)">
<path d="M24 12C24 18.6274 18.6274 24 12 24C5.37258 24 0 18.6274 0 12C0 5.37258 5.37258 0 12 0C18.6274 0 24 5.37258 24 12Z" fill="#383838"/>
<path d="M17.7143 7.42857H6.28571C5.9827 7.42887 5.69219 7.54938 5.47793 7.76364C5.26366 7.9779 5.14316 8.26842 5.14286 8.57143V9.14286H18.8571V8.57143C18.8568 8.26842 18.7363 7.9779 18.5221 7.76364C18.3078 7.54938 18.0173 7.42887 17.7143 7.42857ZM5.14286 15.4286C5.14316 15.7316 5.26366 16.0221 5.47793 16.2364C5.69219 16.4506 5.9827 16.5711 6.28571 16.5714H17.7143C18.0173 16.5711 18.3078 16.4506 18.5221 16.2364C18.7363 16.0221 18.8568 15.7316 18.8571 15.4286V10.8571H5.14286V15.4286ZM14.8571 14.2857H16.5714C16.723 14.2857 16.8683 14.3459 16.9755 14.4531C17.0827 14.5602 17.1429 14.7056 17.1429 14.8571C17.1429 15.0087 17.0827 15.154 16.9755 15.2612C16.8683 15.3684 16.723 15.4286 16.5714 15.4286H14.8571C14.7056 15.4286 14.5602 15.3684 14.4531 15.2612C14.3459 15.154 14.2857 15.0087 14.2857 14.8571C14.2857 14.7056 14.3459 14.5602 14.4531 14.4531C14.5602 14.3459 14.7056 14.2857 14.8571 14.2857Z" fill="white"/>
</g>
<defs>
<filter id="filter0_i_175_25780" x="-1" y="0" width="25" height="25" filterUnits="userSpaceOnUse" color-interpolation-filters="sRGB">
<feFlood flood-opacity="0" result="BackgroundImageFix"/>
<feBlend mode="normal" in="SourceGraphic" in2="BackgroundImageFix" result="shape"/>
<feColorMatrix in="SourceAlpha" type="matrix" values="0 0 0 0 0 0 0 0 0 0 0 0 0 0 0 0 0 0 127 0" result="hardAlpha"/>
<feOffset dx="-1" dy="1"/>
<feGaussianBlur stdDeviation="0.5"/>
<feComposite in2="hardAlpha" operator="arithmetic" k2="-1" k3="1"/>
<feColorMatrix type="matrix" values="0 0 0 0 1 0 0 0 0 1 0 0 0 0 1 0 0 0 0.25 0"/>
<feBlend mode="normal" in2="shape" result="effect1_innerShadow_175_25780"/>
</filter>
</defs>
</svg>
