<svg width="24" height="24" viewBox="0 0 24 24" fill="none" xmlns="http://www.w3.org/2000/svg">
<g id="Vector" filter="url(#filter0_i_175_25777)">
<path d="M24 12C24 18.6274 18.6274 24 12 24C5.37258 24 0 18.6274 0 12C0 5.37258 5.37258 0 12 0C18.6274 0 24 5.37258 24 12Z" fill="#383838"/>
<path d="M7.04856 8.15723L7.0486 13.6228L6.42469 13.0061C6.13406 12.7189 5.67832 12.697 5.38714 12.956C5.31213 13.0218 5.25172 13.1022 5.20972 13.1922C5.16771 13.2822 5.14502 13.3798 5.14308 13.4789C5.14062 13.5777 5.15846 13.676 5.19551 13.7678C5.23256 13.8596 5.28806 13.9431 5.35865 14.0131L7.40344 16.0342C7.50488 16.1343 7.64234 16.1905 7.78565 16.1905C7.92896 16.1905 8.06642 16.1343 8.16787 16.0342L10.2127 14.0131C10.2832 13.943 10.3387 13.8596 10.3758 13.7677C10.4128 13.6759 10.4307 13.5776 10.4284 13.4787C10.4261 13.3797 10.4032 13.2822 10.3612 13.1923C10.3191 13.1024 10.2588 13.022 10.184 12.9561C9.89284 12.6969 9.43724 12.7189 9.14662 13.0061L8.5227 13.6228L8.5228 8.15709C8.52248 7.96397 8.44472 7.77886 8.30657 7.6423C8.16842 7.50575 7.98113 7.42889 7.78575 7.42857C7.59033 7.42885 7.40299 7.50571 7.2648 7.6423C7.12661 7.77889 7.04885 7.96406 7.04856 8.15723Z" fill="white"/>
<path d="M16.9514 15.4618L16.9514 9.99622L17.5753 10.6129C17.8659 10.9002 18.3217 10.922 18.6129 10.6631C18.6879 10.5973 18.7483 10.5169 18.7903 10.4269C18.8323 10.3369 18.855 10.2393 18.8569 10.1402C18.8594 10.0414 18.8415 9.94306 18.8045 9.85124C18.7674 9.75941 18.7119 9.67596 18.6414 9.60593L16.5966 7.58482C16.4951 7.48476 16.3577 7.42857 16.2143 7.42857C16.071 7.42857 15.9336 7.48476 15.8321 7.58482L13.7873 9.60593C13.7168 9.67602 13.6613 9.7595 13.6242 9.85134C13.5872 9.94318 13.5693 10.0415 13.5716 10.1403C13.5739 10.2393 13.5968 10.3368 13.6388 10.4267C13.6809 10.5166 13.7412 10.597 13.816 10.6629C14.1072 10.9221 14.5628 10.9002 14.8534 10.6129L15.4773 9.99622L15.4772 15.462C15.4775 15.6551 15.5553 15.8402 15.6934 15.9767C15.8316 16.1133 16.0189 16.1902 16.2142 16.1905C16.4097 16.1902 16.597 16.1133 16.7352 15.9767C16.8734 15.8402 16.9512 15.655 16.9514 15.4618Z" fill="white"/>
<path d="M7.04762 8.16667C7.04762 7.75903 7.37811 7.42857 7.78575 7.42857H12.6429C13.0505 7.42857 13.381 7.75903 13.381 8.16667C13.381 8.57431 13.0505 8.90476 12.6429 8.90476H7.78571C7.37808 8.90476 7.04762 8.57431 7.04762 8.16667Z" fill="white"/>
<path d="M16.9524 15.4524C16.9524 15.86 16.6219 16.1905 16.2142 16.1905H11.3571C10.9495 16.1905 10.619 15.86 10.619 15.4524C10.619 15.0447 10.9495 14.7143 11.3571 14.7143H16.2143C16.6219 14.7143 16.9524 15.0447 16.9524 15.4524Z" fill="white"/>
</g>
<defs>
<filter id="filter0_i_175_25777" x="-1" y="0" width="25" height="25" filterUnits="userSpaceOnUse" color-interpolation-filters="sRGB">
<feFlood flood-opacity="0" result="BackgroundImageFix"/>
<feBlend mode="normal" in="SourceGraphic" in2="BackgroundImageFix" result="shape"/>
<feColorMatrix in="SourceAlpha" type="matrix" values="0 0 0 0 0 0 0 0 0 0 0 0 0 0 0 0 0 0 127 0" result="hardAlpha"/>
<feOffset dx="-1" dy="1"/>
<feGaussianBlur stdDeviation="0.5"/>
<feComposite in2="hardAlpha" operator="arithmetic" k2="-1" k3="1"/>
<feColorMatrix type="matrix" values="0 0 0 0 1 0 0 0 0 1 0 0 0 0 1 0 0 0 0.25 0"/>
<feBlend mode="normal" in2="shape" result="effect1_innerShadow_175_25777"/>
</filter>
</defs>
</svg>
