<svg width="24" height="24" viewBox="0 0 24 24" fill="none" xmlns="http://www.w3.org/2000/svg">
<g filter="url(#filter0_i_175_25783)">
<path d="M24 12C24 18.6274 18.6274 24 12 24C5.37258 24 0 18.6274 0 12C0 5.37258 5.37258 0 12 0C18.6274 0 24 5.37258 24 12Z" fill="#383838"/>
<path d="M12 10.1849C13.1139 10.1849 14.0168 11.0878 14.0168 12.2017V17.647C14.0168 17.8698 13.8362 18.0504 13.6134 18.0504H10.3866C10.1638 18.0504 9.9832 17.8698 9.9832 17.647V12.2017C9.9832 11.0878 10.8861 10.1849 12 10.1849ZM18.8571 15.4286V17.6471C18.8571 17.8698 18.6766 18.0504 18.4538 18.0504H15.6302C15.4075 18.0504 15.2269 17.8698 15.2269 17.6471V15.4286C15.2269 14.4261 16.0395 13.6134 17.042 13.6134C18.0445 13.6134 18.8571 14.4261 18.8571 15.4286ZM6.95799 11.5966C7.96047 11.5966 8.77312 12.4093 8.77312 13.4118V17.6471C8.77312 17.8698 8.59254 18.0504 8.36976 18.0504H5.54622C5.32345 18.0504 5.14286 17.8698 5.14286 17.6471V13.4118C5.14286 12.4093 5.95551 11.5966 6.95799 11.5966ZM12 9.57983C10.9975 9.57983 10.1849 8.76718 10.1849 7.7647C10.1849 6.76221 10.9975 5.94959 12 5.94959C13.0025 5.94959 13.8151 6.76224 13.8151 7.76472C13.8151 8.76721 13.0025 9.57983 12 9.57983ZM17.042 13.0084C16.1509 13.0084 15.4286 12.286 15.4286 11.395C15.4286 10.5039 16.1509 9.78153 17.042 9.78153C17.9331 9.78153 18.6554 10.5039 18.6554 11.395C18.6554 12.286 17.9331 13.0084 17.042 13.0084ZM6.95799 10.9916C5.95551 10.9916 5.14286 10.1789 5.14286 9.17647C5.14286 8.17398 5.95551 7.36133 6.95799 7.36133C7.96047 7.36133 8.77312 8.17398 8.77312 9.17647C8.77312 10.1789 7.96045 10.9916 6.95799 10.9916Z" fill="white"/>
</g>
<defs>
<filter id="filter0_i_175_25783" x="-1" y="0" width="25" height="25" filterUnits="userSpaceOnUse" color-interpolation-filters="sRGB">
<feFlood flood-opacity="0" result="BackgroundImageFix"/>
<feBlend mode="normal" in="SourceGraphic" in2="BackgroundImageFix" result="shape"/>
<feColorMatrix in="SourceAlpha" type="matrix" values="0 0 0 0 0 0 0 0 0 0 0 0 0 0 0 0 0 0 127 0" result="hardAlpha"/>
<feOffset dx="-1" dy="1"/>
<feGaussianBlur stdDeviation="0.5"/>
<feComposite in2="hardAlpha" operator="arithmetic" k2="-1" k3="1"/>
<feColorMatrix type="matrix" values="0 0 0 0 1 0 0 0 0 1 0 0 0 0 1 0 0 0 0.25 0"/>
<feBlend mode="normal" in2="shape" result="effect1_innerShadow_175_25783"/>
</filter>
</defs>
</svg>
