<svg width="1660" height="137" viewBox="0 0 1660 137" fill="none" xmlns="http://www.w3.org/2000/svg">
<path d="M195.96 108.32C205.79 98.2602 210.63 85.6302 210.63 65.1402V0.910156H161.42V61.0802C161.42 78.4902 157.52 90.4302 148.88 98.9102C137.57 110.09 118.74 114.72 90.9 114.72H0V132.35H98.73C145.55 132.35 178.54 126.03 195.95 108.31" fill="#231F20"/>
<path d="M1289.86 104.39L1314.05 132.36H1369.2L1254.69 0.92041H1206.3L1091.79 132.36H1120.26L1144.49 104.39H1289.86ZM1216.99 20.0804L1275.19 87.2904H1159.02L1217 20.0804H1216.99Z" fill="#231F20"/>
<path d="M510.34 132.36L395.8 0.92041H347.34L232.96 132.36H261.43L285.44 104.49H431.15L455.25 132.36H510.34ZM300.25 87.4304L358.19 20.0905L416.36 87.4304H300.25Z" fill="#231F20"/>
<path d="M1628.79 76.0502C1641.26 69.3602 1647.04 56.6302 1647.04 43.4402C1647.04 25.8702 1639.22 14.6502 1624.98 8.47015C1612.13 2.84015 1596.35 0.930176 1565.02 0.930176H1412.87V132.37H1461.83V86.8102H1526.25L1599.94 132.37H1659.74L1582.66 85.8002C1600.85 85.3902 1616.47 82.5002 1628.79 76.0602M1461.84 17.4302H1558.59C1576.97 17.4302 1585.11 19.0302 1590.77 23.3102C1596.14 27.3602 1597.94 33.3302 1597.94 42.8902V45.4002C1597.94 53.8202 1596.05 60.7702 1589.61 65.1702C1583.42 69.3802 1574.87 70.2902 1559.19 70.2902H1461.84V17.4302Z" fill="#231F20"/>
<path d="M827.12 0.92041V66.4704C827.12 83.3804 828.88 96.7904 837.46 107.82C851.51 126.2 877.12 136.63 948.07 136.63H948.95C1020.22 136.63 1045.83 126.2 1059.68 107.82C1068.29 96.7904 1070.21 83.3704 1070.21 66.3104V0.92041H1021.13V64.5504C1021.13 81.0804 1018.9 91.5804 1012.55 100.43C1002.02 115.36 985.21 120.76 950.68 120.76H946.47C913.6 120.76 895.31 115.35 884.54 100.43C878.26 91.5704 876.15 81.5804 876.15 64.5504V0.92041H827.12Z" fill="#231F20"/>
<path d="M645.31 18.3202H767.83V0.910156H629.95C596.55 0.910156 576.59 4.7102 558.74 14.6402C541.96 23.9702 528.76 41.3202 528.76 66.3002C528.76 92.8502 540.83 112.34 567.38 122.83C583.19 129.21 604.24 132.35 630.79 132.35H772.98V71.9602H724.02V114.79H645.75C620.3 114.79 605.56 111.08 594.69 102.79C584.26 94.9602 578.85 82.8702 578.85 66.5302C578.85 50.1902 584.07 39.1902 593.62 31.2402C604.68 22.4402 618.98 18.3202 645.31 18.3202Z" fill="#231F20"/>
</svg>
