<svg width="110" height="16" viewBox="0 0 110 16" fill="none" xmlns="http://www.w3.org/2000/svg">
<path d="M55.7532 0.536318C52.8048 3.84357 49.9454 7.15085 46.997 10.4581C46.997 12.1564 46.997 13.8547 46.997 15.4637C47.8904 15.4637 48.6945 15.4637 49.5878 15.4637V11.0838C50.2135 10.3687 50.8388 9.65362 51.4645 9.02792C51.5539 9.11731 54.5916 13.4972 56.0213 15.4637H59.1484C57.1829 12.6927 55.2168 9.83239 53.2513 7.06147C54.9491 5.09497 58.7909 0.715085 58.8803 0.536318H55.7532Z" fill="black"/>
<path d="M2.59109 0.536318H0V15.4637H9.73894V13.0503H2.59109V0.536318Z" fill="black"/>
<path d="M12.0619 0.536308C12.1513 0.715081 18.9417 11.0838 18.9417 11.0838V15.4637H21.6222C21.6222 15.2849 21.6222 10.905 21.6222 10.3687C21.6222 10.3687 15.0104 0.536308 15.0104 0.446925C14.0276 0.536308 13.0448 0.536308 12.0619 0.536308Z" fill="black"/>
<path d="M38.3302 9.92178C35.0243 6.61454 31.7185 3.30726 28.4126 0V15.4637H31.0037V6.07822C34.3096 9.38546 37.6155 12.6927 40.9213 16V0.536313H38.2409V9.92178" fill="black"/>
<path d="M85.6844 13.0503C85.4168 13.1396 85.238 13.1396 84.9698 13.1396C84.7911 13.1396 84.3446 13.1396 83.8083 13.0503C82.9149 12.8715 82.0215 12.4245 81.3958 11.7988C80.8599 11.2626 80.3236 10.5475 80.0555 9.83239C79.6984 8.84915 79.5196 7.50835 80.0555 6.1676C80.5918 4.73742 81.6639 3.57541 83.0937 3.12849C83.6295 2.94971 84.1658 2.86033 84.7017 2.86033C85.8632 2.86033 86.9354 3.30725 87.8288 4.02234C88.3651 3.39664 88.9903 2.68156 89.5267 2.05586C86.9354 -0.178773 83.3613 -0.268159 80.6812 1.51955C78.4474 2.94971 77.1965 5.36313 77.1965 8.04467C77.1965 11.5307 79.5196 14.6592 82.8255 15.5531C85.6844 16.2681 88.7226 15.2849 90.5094 12.8715C89.8837 12.3352 89.1691 11.7988 88.5439 11.2626C87.8288 12.1564 86.846 12.7821 85.6844 13.0503Z" fill="black"/>
<path d="M70.5847 13.229C71.2104 12.6033 71.8357 11.9777 72.372 11.352H70.2276C69.9595 11.6201 69.7807 11.7989 69.5126 12.0671C68.8873 11.352 68.2616 10.6369 67.6364 9.92178C67.7258 9.83239 67.9045 9.74301 67.9939 9.56424C68.4404 9.20669 68.7979 8.84915 69.1555 8.31283C69.3338 7.8659 69.6019 7.15085 69.3338 6.34638C69.1555 5.5419 68.5298 4.9162 67.8152 4.55866C66.2961 3.84358 64.5093 4.73742 64.1517 6.34638C64.0623 6.79331 64.0623 7.32963 64.1517 7.8659C64.3305 8.04467 64.4199 8.31283 64.5093 8.4916C64.7774 8.93853 65.1345 9.29608 65.492 9.74301C65.0451 10.1006 64.5093 10.4581 64.2411 10.905C64.1517 11.0838 63.973 11.2626 63.7942 11.6201C63.6159 11.9777 63.6159 12.4245 63.6159 12.8715C63.7053 13.7653 64.1517 14.4804 64.7774 15.0168C65.3133 15.3743 65.8496 15.6425 66.4748 15.7318C66.8324 15.7318 67.1001 15.7318 67.2788 15.7318C67.4576 15.7318 67.547 15.6425 67.7258 15.6425C67.9939 15.5531 68.351 15.3743 68.6192 15.1955C68.8873 15.0168 69.1555 14.6592 69.5126 14.391C69.8701 14.7486 70.2276 15.1955 70.4953 15.5531H72.5503C71.925 14.7486 71.2104 13.9441 70.5847 13.229ZM65.5814 6.52515C65.6708 6.34638 65.7602 6.1676 65.9385 5.98883C66.2067 5.81006 66.4748 5.72067 66.8324 5.72067C67.547 5.81006 67.9939 6.34638 67.9939 6.97208C67.9939 7.5084 67.6364 7.77651 67.4576 7.95528C67.3682 8.04467 67.2788 8.13406 67.1895 8.22344C67.1001 8.31283 66.8324 8.4916 66.5642 8.75976C66.2067 8.40221 65.9385 8.04467 65.7602 7.77651C65.6708 7.41901 65.492 6.97208 65.5814 6.52515ZM68.2616 13.229C68.0828 13.4078 67.8151 13.5866 67.6364 13.7653C67.547 13.8547 67.3682 13.9441 67.3682 13.9441C67.2788 13.9441 67.2788 14.0335 67.1895 14.0335C67.1001 14.0335 66.9218 14.1229 66.8324 14.1229C66.6536 14.1229 66.3854 14.1229 66.1173 13.9441C65.5814 13.676 65.2239 13.229 65.2239 12.6927C65.2239 12.4245 65.2239 12.2458 65.3133 12.0671C65.3133 11.9777 65.4027 11.8883 65.492 11.7989C65.6708 11.4413 66.0279 11.1732 66.5642 10.8156C67.1894 11.5307 67.9045 12.3352 68.5298 13.0503C68.351 13.1396 68.351 13.229 68.2616 13.229Z" fill="black"/>
<path d="M97.1212 8.93853C96.2278 8.93853 95.4233 8.93853 94.5299 8.93853C94.7087 10.7263 95.5127 12.3352 96.7637 13.5866C97.4788 14.3017 98.1934 14.6592 98.4615 14.838C98.8186 15.0168 99.1762 15.1955 99.5337 15.2849C100.159 15.4637 100.963 15.6425 101.946 15.6425C103.018 15.6425 104.358 15.3743 105.699 14.391C107.128 13.4078 108.2 11.8883 108.736 10.1899C109.362 7.95533 109.094 5.09497 107.307 2.94973C105.967 1.25141 103.912 0.178781 101.767 0.178781C99.8908 0.178781 98.104 0.893863 96.7637 2.23464C97.3894 2.77096 98.104 3.30727 98.7292 3.93297C99.9802 2.86034 101.41 2.68157 102.482 2.86034C103.375 3.03911 104.269 3.48604 104.895 4.11174C105.877 5.09497 106.413 6.43576 106.413 7.86594C106.413 9.38546 105.788 10.905 104.537 11.9777C103.912 12.514 103.197 12.7821 102.482 12.9609C101.678 13.1396 100.784 13.0503 99.9802 12.6928C98.5509 12.1564 97.3894 10.7263 97.1212 8.93853Z" fill="black"/>
</svg>
