<svg viewBox="0 0 396.15 193.8" xmlns="http://www.w3.org/2000/svg"><path d="m116.74 193.12h.67c5.39 0 10.77.03 16.16-.01 2.59-.02 5.18-.1 7.75-.33 3.55-.32 6.99-1.15 10.16-2.88 2.98-1.63 5.23-3.93 6.45-7.15 1.15-3.03 1.28-6.15.78-9.32-.47-3-1.75-5.6-3.96-7.71-1.98-1.89-4.36-3.09-6.93-3.92-3.68-1.19-7.48-1.63-11.32-1.66-6.4-.06-12.8-.02-19.2-.01-.19 0-.37.02-.56.03v32.98zm225.1 0c.02-.98.11-1.86-.52-2.75-1.54-2.17-2.96-4.42-4.42-6.64-5.06-7.67-10.13-15.34-15.17-23.02-.3-.46-.62-.62-1.15-.61-2.06.03-4.12.02-6.18 0-.36 0-.57.12-.77.42-2.45 3.74-4.91 7.47-7.37 11.2-4.07 6.16-8.11 12.33-12.22 18.46-.64.95-.7 1.87-.6 2.94 1.29 0 2.57-.02 3.84.01.45.01.69-.15.93-.52 1.54-2.44 3.12-4.86 4.65-7.32.28-.44.58-.56 1.07-.56 9.13.01 18.27.01 27.4 0 .51 0 .79.15 1.06.58 1.59 2.52 3.2 5.03 4.82 7.53.08.12.26.27.39.27 1.4.02 2.8.01 4.25.01zm-237.54 0c.05-1.01.12-1.92-.53-2.81-1.12-1.53-2.11-3.16-3.15-4.74-5.51-8.35-11.03-16.7-16.53-25.06-.18-.28-.37-.41-.72-.41-2.19.02-4.37.02-6.56 0-.34 0-.51.15-.68.4-1.89 2.88-3.78 5.75-5.67 8.63-4.7 7.12-9.39 14.26-14.13 21.35-.59.88-.4 1.73-.47 2.64 1.38 0 2.68-.02 3.98 0 .39 0 .6-.13.81-.45 1.58-2.49 3.18-4.96 4.75-7.45.24-.39.51-.49.94-.49 9.12.01 18.24.02 27.36 0 .65 0 .98.23 1.3.75 1.54 2.46 3.12 4.91 4.7 7.35.08.13.26.28.39.28 1.4.02 2.8.01 4.23.01zm-61.64-9.52c-.26.17-.46.31-.67.44-2.23 1.5-4.58 2.78-7.1 3.72-4.32 1.61-8.79 2.13-13.37 1.84-3.25-.2-6.4-.76-9.37-2.15-2.49-1.16-4.55-2.8-5.91-5.24-1.12-2-1.49-4.15-1.36-6.41.17-2.94 1.3-5.47 3.45-7.49 2.06-1.94 4.57-3.08 7.29-3.79 4.25-1.1 8.55-1.21 12.88-.68 3.55.43 6.94 1.45 10.09 3.15 1.41.76 2.77 1.64 4.17 2.48.28-.35.57-.79.94-1.14.76-.71 1.04-1.55.92-2.57-.04-.33-.1-.54-.39-.73-2.82-1.87-5.86-3.23-9.11-4.14-4.77-1.34-9.63-1.66-14.55-1.33-3.27.22-6.46.85-9.52 2.08-2.87 1.15-5.44 2.76-7.47 5.13-2.6 3.04-3.74 6.57-3.57 10.56.12 2.78.9 5.34 2.45 7.65 2.02 3.02 4.86 5.02 8.16 6.42 4.34 1.84 8.91 2.39 13.57 2.39 1.52 0 3.05-.11 4.56-.26 5.44-.54 10.49-2.2 15.1-5.18.59-.38.86-.78.75-1.45-.06-.36.04-.81-.14-1.08-.53-.77-1.17-1.46-1.81-2.23zm351.55-14.09c.32-.39.62-.83.99-1.2.72-.7 1.05-1.5.91-2.52-.04-.33-.11-.53-.39-.72-3.44-2.29-7.19-3.81-11.22-4.68-4.32-.93-8.68-1.12-13.07-.75-3.85.33-7.56 1.2-11.01 2.99-2.43 1.26-4.53 2.91-6.14 5.14-1.7 2.34-2.61 4.96-2.78 7.86-.17 2.86.33 5.58 1.69 8.12 1.93 3.6 4.98 5.95 8.65 7.56 4.4 1.94 9.07 2.5 13.82 2.5 1.49 0 2.98-.12 4.46-.26 5.57-.51 10.73-2.23 15.42-5.32.43-.28.66-.58.58-1.1-.06-.41.08-.93-.12-1.24-.54-.8-1.22-1.51-1.86-2.28-.2.13-.38.24-.56.36-2.46 1.67-5.06 3.06-7.88 4.04-3.69 1.29-7.5 1.78-11.4 1.66-2.26-.07-4.49-.29-6.69-.82-3.08-.76-5.9-1.99-8.18-4.29-3.8-3.85-4.19-10.66-.83-14.91 1.9-2.4 4.43-3.84 7.28-4.76 4.28-1.37 8.67-1.55 13.11-1.14 4.16.39 8.1 1.57 11.75 3.62 1.17.66 2.28 1.41 3.47 2.14zm-194.32 19.51v-28.86h-4.76v32.94c.13 0 .23.02.33.02 11.71 0 23.42 0 35.14-.01.2 0 .47-.15.59-.32.55-.78 1.07-1.59 1.59-2.39.28-.43.55-.88.87-1.39h-33.76zm45.74 4.11h.57 34.71c.41 0 .64-.12.85-.46.7-1.11 1.44-2.2 2.16-3.29.06-.09.1-.2.2-.39h-33.8v-28.85h-4.7v32.98zm-67.96-.01v-32.96h-4.66v32.96z" fill="#fff"/><path d="m116.74 193.12v-32.98c.19 0 .37-.03.56-.03 6.4 0 12.8-.04 19.2.01 3.84.03 7.65.47 11.32 1.66 2.57.83 4.96 2.03 6.93 3.92 2.2 2.11 3.49 4.71 3.96 7.71.5 3.17.36 6.29-.78 9.32-1.22 3.22-3.47 5.52-6.45 7.15-3.17 1.73-6.61 2.56-10.16 2.88-2.57.23-5.17.31-7.75.33-5.39.05-10.77.01-16.16.01h-.67zm4.8-28.9v24.8h.65c3.77 0 7.53.02 11.3 0 1.98-.02 3.97-.07 5.95-.22 2.86-.22 5.66-.74 8.29-1.93 2.74-1.24 4.78-3.14 5.77-6.05.56-1.66.68-3.37.59-5.09-.14-2.75-1-5.21-3.05-7.15-1.59-1.51-3.53-2.41-5.61-3.03-3.17-.94-6.44-1.25-9.72-1.3-4.53-.06-9.06-.01-13.59-.01h-.57z"/><path d="m341.84 193.12c-1.44 0-2.84 0-4.25-.01-.13 0-.31-.14-.39-.27-1.62-2.5-3.23-5.01-4.82-7.53-.27-.43-.56-.58-1.06-.58-9.13.02-18.27.02-27.4 0-.49 0-.79.12-1.07.56-1.53 2.45-3.11 4.87-4.65 7.32-.23.37-.47.53-.93.52-1.27-.04-2.55-.01-3.84-.01-.1-1.07-.04-1.99.6-2.94 4.11-6.13 8.16-12.3 12.22-18.46 2.46-3.73 4.92-7.46 7.37-11.2.2-.3.4-.42.77-.42 2.06.02 4.12.03 6.18 0 .54 0 .85.15 1.15.61 5.05 7.68 10.11 15.35 15.17 23.02 1.47 2.22 2.88 4.48 4.42 6.64.63.89.54 1.77.52 2.75zm-12.48-12.49c-.12-.19-.19-.31-.26-.43-3.21-5.02-6.43-10.03-9.6-15.08-.5-.79-1.02-1.18-1.93-1.02-.21.04-.43.02-.64 0-.35-.04-.57.08-.77.4-3.24 5.09-6.49 10.17-9.74 15.25-.17.27-.34.55-.53.88h23.48z"/><path d="m104.3 193.12c-1.43 0-2.83 0-4.23-.01-.13 0-.31-.15-.39-.28-1.58-2.44-3.16-4.89-4.7-7.35-.32-.51-.65-.75-1.3-.75-9.12.03-18.24.02-27.36 0-.43 0-.7.1-.94.49-1.57 2.49-3.17 4.96-4.75 7.45-.2.32-.42.46-.81.45-1.3-.03-2.59 0-3.98 0 .07-.91-.12-1.76.47-2.64 4.74-7.1 9.43-14.23 14.13-21.35 1.9-2.87 3.79-5.75 5.67-8.63.17-.25.33-.4.68-.4 2.19.02 4.37.02 6.56 0 .35 0 .54.13.72.41 5.51 8.36 11.02 16.71 16.53 25.06 1.05 1.58 2.03 3.21 3.15 4.74.66.89.59 1.8.53 2.81zm-12.45-12.5c-3.23-5.06-6.41-10.03-9.59-15.01-.32-.5-.57-1.18-1.04-1.43s-1.18-.04-1.78-.08c-.38-.02-.6.1-.81.43-3.11 4.89-6.24 9.78-9.36 14.66-.29.46-.58.92-.89 1.43h23.49z"/><path d="m42.66 183.59c.64.77 1.28 1.46 1.81 2.23.18.26.08.72.14 1.08.11.68-.16 1.08-.75 1.45-4.61 2.97-9.66 4.64-15.1 5.18-1.52.15-3.04.26-4.56.26-4.66 0-9.23-.55-13.57-2.39-3.3-1.4-6.14-3.4-8.16-6.42-1.55-2.31-2.33-4.87-2.45-7.65-.17-3.99.97-7.52 3.57-10.56 2.03-2.37 4.6-3.98 7.47-5.13 3.05-1.23 6.24-1.85 9.52-2.08 4.92-.33 9.78-.01 14.55 1.33 3.25.91 6.29 2.27 9.11 4.14.29.19.36.4.39.73.12 1.03-.16 1.86-.92 2.57-.37.35-.66.79-.94 1.14-1.41-.84-2.76-1.71-4.17-2.48-3.15-1.71-6.54-2.72-10.09-3.15-4.33-.53-8.63-.42-12.88.68-2.72.71-5.22 1.84-7.29 3.79-2.15 2.02-3.28 4.55-3.45 7.49-.13 2.26.24 4.42 1.36 6.41 1.36 2.43 3.43 4.08 5.91 5.24 2.97 1.38 6.12 1.95 9.37 2.15 4.59.29 9.05-.23 13.37-1.84 2.52-.94 4.87-2.22 7.1-3.72.2-.14.41-.27.67-.44z"/><path d="m394.21 169.5c-1.18-.73-2.3-1.49-3.47-2.14-3.65-2.05-7.59-3.23-11.75-3.62-4.43-.41-8.83-.23-13.11 1.14-2.85.91-5.38 2.36-7.28 4.76-3.36 4.24-2.97 11.06.83 14.91 2.28 2.3 5.1 3.54 8.18 4.29 2.19.54 4.43.76 6.69.82 3.9.12 7.71-.37 11.4-1.66 2.81-.98 5.42-2.37 7.88-4.04.17-.12.35-.23.56-.36.64.77 1.32 1.48 1.86 2.28.2.3.06.82.12 1.24.08.53-.15.82-.58 1.1-4.69 3.09-9.85 4.81-15.42 5.32-1.48.14-2.97.26-4.46.26-4.75 0-9.41-.56-13.82-2.5-3.67-1.61-6.72-3.96-8.65-7.56-1.36-2.53-1.86-5.25-1.69-8.12.17-2.89 1.08-5.52 2.78-7.86 1.61-2.23 3.72-3.88 6.14-5.14 3.45-1.79 7.16-2.66 11.01-2.99 4.39-.37 8.75-.18 13.07.75 4.03.87 7.78 2.39 11.22 4.68.29.19.35.4.39.72.14 1.02-.2 1.81-.91 2.52-.38.37-.68.81-.99 1.2z"/><path d="m199.89 189.01h33.76c-.32.51-.59.95-.87 1.39-.52.8-1.04 1.61-1.59 2.39-.12.17-.39.32-.59.32-11.71.01-23.42.01-35.14.01-.1 0-.21-.01-.33-.02v-32.94h4.76v28.86z"/><path d="m245.63 193.12v-32.98h4.7v28.85h33.8c-.1.19-.14.3-.2.39-.72 1.1-1.46 2.18-2.16 3.29-.22.34-.45.46-.85.46-11.57-.01-23.14 0-34.71 0-.18 0-.35 0-.57 0z"/><path d="m177.67 193.1h-4.66v-32.96h4.66z"/><g fill="#fff"><path d="m121.54 164.21h.57c4.53 0 9.06-.04 13.59.01 3.28.04 6.55.35 9.72 1.3 2.08.62 4.01 1.52 5.61 3.03 2.05 1.94 2.91 4.4 3.05 7.15.09 1.73-.03 3.44-.59 5.09-.99 2.91-3.03 4.81-5.77 6.05-2.64 1.19-5.44 1.72-8.29 1.93-1.98.15-3.96.2-5.95.22-3.77.03-7.53 0-11.3 0-.21 0-.41 0-.65 0v-24.8z"/><path d="m329.36 180.62h-23.48c.2-.33.36-.6.53-.88 3.25-5.08 6.5-10.16 9.74-15.25.2-.32.42-.43.77-.4.21.02.43.04.64 0 .92-.16 1.44.22 1.93 1.02 3.16 5.05 6.39 10.06 9.6 15.08.07.12.15.24.26.43z"/><path d="m91.85 180.61h-23.49c.32-.51.6-.97.89-1.43 3.12-4.89 6.25-9.77 9.36-14.66.21-.33.43-.45.81-.43.6.04 1.31-.17 1.78.08s.72.93 1.04 1.43c3.18 4.97 6.36 9.95 9.59 15.01z"/></g><path d="m112.48 52.05h-26.14l-2.02-11.96h112.19v11.96h-3.03v-9.18h-81.97zm-28.63-14.74h112.61v-8.8h-114.04zm70.43 29.48h42.18v-6.27h-42.14zm-73-41.02h26.69l-5.05-8.8h90.55v8.76h3.03v-11.79h-123.47zm161.11-11.83h-42.56v17.64h42.56zm-149.99 68c.67 1.05 1.98 2.27 6.23 3.41 2.06.51 4.34 1.01 7.54 1.73h45.17v-6.23h-59.53c.17.42.38.76.59 1.09zm-2.57-9.52h61.5v-17.6h-64.53zm64.45 24.68c15.74 3.12 31.15 5.98 42.22 7.71v-29.52h-42.22zm91.01-45.06h64.66l2.95-17.64h-67.61zm0-32.51v6.27l69.54-.04 4.38-6.23zm105.04-19.53-20.5 28.93c-2.23 12.3-8.13 43.96-8.8 47.04-1.94 8.84-2.86 14.23-20.25 18.4-23.15 5.47-76.11 16.17-102.67 20.34-26.56-4.17-79.52-14.82-102.63-20.34-17.39-4.13-18.31-9.52-20.25-18.4-.67-3.03-6.53-34.74-8.8-47.04l-20.47-28.93zm-16.17 5.43h-272.03l16.17 23.08c4.04 24 6.53 39.41 7.58 44.8 1.81 9.35 2.1 13.39 11.79 16 19.2 4.55 74.93 16 100.53 19.88 25.59-3.83 81.29-15.29 100.53-19.83 9.68-2.61 9.98-6.65 11.79-16 1.01-5.39 3.54-20.8 7.58-44.8l16.08-23.12zm-134.33 61.35h3.03v-8.89h80.49c-.08.84-.84 6.82-1.26 8.93h25.43l2.02-11.96h-109.71zm0 11.5h105.54l1.73-8.72h-107.26v8.72zm42.56-38.19h-42.56v6.32h42.56zm-42.56 40.8h104.7c-.17.38-.34.76-.55 1.09-.72 1.05-1.98 2.36-6.23 3.41-18.94 4.72-71.06 15.08-97.88 19.45l-.04-23.96zm3.03 20.38c4.84-.88 16.63-2.95 20.84-3.75 42.81-8.17 50.18-9.43 53.76-13.64h-74.6z"/></svg>