<svg width="419" height="168" viewBox="0 0 419 168" fill="none" xmlns="http://www.w3.org/2000/svg">
<g opacity="0.5" clip-path="url(#clip0_1135_73436)">
<path d="M8.08789 144.022C25.1775 147.535 42.2671 151.048 59.3566 154.408C74.1574 153.491 88.8057 152.728 103.606 151.811L289.608 153.339C291.439 150.895 293.27 148.299 294.949 145.855C300.594 145.855 308.987 145.855 317.379 146.313C320.278 146.466 323.024 146.619 326.381 147.077C329.891 147.535 333.248 148.146 336.299 148.757C351.711 145.702 367.122 142.648 382.533 139.746C380.702 134.248 372.615 112.713 350.49 102.48C345.912 100.342 336.452 96.2186 325.313 97.7459C307.156 100.342 291.744 117.142 285.336 139.746C233.152 140.357 180.967 140.968 128.783 141.579C128.478 139.135 125.426 114.24 103.149 101.87C99.6392 99.8841 81.7867 90.5677 62.7135 98.6623C46.2343 105.382 35.4007 122.335 34.7904 141.579C25.7878 142.342 16.9379 143.259 8.08789 144.022Z" fill="#6C747B" stroke="#416388" stroke-width="0.6711" stroke-linejoin="round"/>
<path d="M414.117 129.207H409.998C410.913 110.88 410.761 89.345 408.167 65.3668C406.03 45.8177 402.674 28.1013 398.859 12.6759C397.18 5.80315 391.077 1.0686 384.058 1.0686H216.977C204.007 1.0686 191.19 3.20679 178.983 7.48315C170.896 10.385 163.572 13.4395 157.011 16.4941C157.011 16.6468 157.011 16.4941 157.011 16.6468L166.929 17.8686C154.417 25.6577 141.6 33.7522 128.63 42.4577C120.848 47.6504 113.219 52.8431 105.895 58.0359C100.402 59.7159 92.4671 62.3122 86.974 63.9922H77.8189C67.1379 66.1304 55.9992 68.7268 44.5552 71.4759C37.9941 73.1559 31.5855 75.2941 25.3295 77.1268C17.2424 79.7231 11.139 83.3886 7.17178 90.2613V90.414C5.49334 93.3159 4.12007 95.9122 3.05197 98.5086C2.44163 103.09 1.98387 107.978 1.6787 113.17C1.37353 118.363 1.22094 123.25 1.06836 127.985V142.952L30.2122 148.145C35.2475 148.298 40.4354 148.298 45.4708 148.45C43.6397 131.65 49.5906 115.92 61.6448 107.52C70.6474 101.258 80.4129 101.258 82.2439 101.41C97.3499 101.716 106.963 111.643 109.099 114.087C121.916 128.443 118.407 147.076 118.102 149.367C178.525 149.825 239.102 150.436 299.526 150.894C299.068 148.145 296.627 133.941 305.782 120.96C307.155 118.974 317.531 104.77 335.231 104.618C347.895 104.465 356.593 111.643 359.644 114.392C373.988 127.527 372.004 146.923 371.699 149.061L411.371 145.396L414.117 144.021C416.406 142.8 417.932 140.356 417.932 137.76V133.178C417.932 130.887 416.254 129.207 414.117 129.207Z" fill="#EAF5F9" stroke="#416388" stroke-width="1.388" stroke-linejoin="round"/>
<path d="M237.881 13.8979H218.045C189.511 13.8979 162.198 22.6034 139.158 38.9452C135.038 41.847 130.918 44.9016 126.798 47.9561C125.73 60.938 125.273 75.1416 125.425 90.2616C125.578 109.505 126.951 127.222 128.782 143.105C185.544 143.105 242.153 143.105 298.915 143.105" stroke="#416388" stroke-width="0.7004" stroke-linejoin="round"/>
<path d="M385.889 14.3561L237.881 13.8979L231.777 66.5889" stroke="#416388" stroke-width="0.7004" stroke-linejoin="round"/>
<path d="M96.1289 77.7379C184.781 72.087 273.281 66.2834 361.933 60.6325L372.919 46.887L369.867 24.5888C369.41 21.0761 366.358 18.4797 362.849 18.4797H218.045C190.732 18.4797 164.029 26.8797 141.752 42.7634C135.801 47.0397 129.85 51.3161 123.747 55.8979C113.981 63.2288 104.826 70.407 96.1289 77.7379Z" stroke="#416388" stroke-width="0.7004" stroke-linejoin="round"/>
<path d="M157.773 71.0179L211.789 67.5052L225.369 56.3561L230.709 20.9233H217.892C198.666 20.9233 179.898 25.1997 162.809 33.1415L157.773 71.0179Z" fill="#95A2A6"/>
<path d="M133.36 72.5451L154.264 71.1705L160.062 34.6687C154.264 37.5705 148.618 40.9305 143.278 44.7487C139.921 47.1923 136.412 49.636 133.055 52.2323L133.36 72.5451Z" fill="#95A2A6"/>
<path d="M157.773 71.0179L211.789 67.5052L225.369 56.3561L230.709 20.9233H217.892C198.666 20.9233 179.898 25.1997 162.809 33.1415L157.773 71.0179Z" stroke="#416388" stroke-width="0.7004" stroke-linejoin="round"/>
<path d="M133.36 72.5451L154.264 71.1705L160.062 34.6687C154.264 37.5705 148.618 40.9305 143.278 44.7487C139.921 47.1923 136.412 49.636 133.055 52.2323L133.36 72.5451Z" stroke="#416388" stroke-width="0.7004" stroke-linejoin="round"/>
<path d="M157.773 71.0179L211.789 67.5052L225.369 56.3561L230.709 20.9233H217.892C198.666 20.9233 179.898 25.1997 162.809 33.1415L157.773 71.0179Z" stroke="#416388" stroke-width="0.7844" stroke-linejoin="round"/>
<path d="M133.36 72.5451L154.264 71.1705L160.062 34.6687C154.264 37.5705 148.618 40.9305 143.278 44.7487C139.921 47.1923 136.412 49.636 133.055 52.2323L133.36 72.5451Z" stroke="#416388" stroke-width="0.7844" stroke-linejoin="round"/>
<path d="M231.777 66.2839C231.319 77.433 230.861 88.8876 230.556 100.189C230.098 114.698 229.793 129.055 229.641 143.106" stroke="#416388" stroke-width="0.7004" stroke-linejoin="round"/>
<path d="M401.453 132.72L401.606 128.902C402.674 107.826 402.064 86.5965 399.775 65.5201C397.944 47.9565 394.892 30.3928 390.772 13.2874C389.552 8.09465 384.974 4.4292 379.633 4.4292H215.909C203.55 4.4292 191.495 6.56738 179.746 10.691C176.542 11.7601 173.338 13.1347 170.133 14.3565C169.065 14.8147 168.15 15.2728 167.082 15.8837C166.319 16.3419 165.556 16.6474 164.793 17.1056" stroke="#416388" stroke-width="0.7004" stroke-linejoin="round"/>
<path d="M156.859 16.6475C145.262 23.3675 133.055 30.8511 120.543 39.4038C108.337 47.6511 97.1978 55.8984 86.9746 63.8402C90.7892 63.5347 94.6039 63.382 98.5711 63.0765C108.337 56.2038 118.255 49.3311 128.63 42.4584C141.6 33.7529 154.417 25.6584 166.929 17.8693C163.573 17.4111 160.216 16.9529 156.859 16.6475Z" fill="#95A2A6" stroke="#416388" stroke-width="0.7844" stroke-linejoin="round"/>
<path d="M50.353 76.3635C50.2004 76.3635 50.0478 76.3635 50.0478 76.3635C44.4021 77.2799 37.6884 78.6544 30.3642 81.4035C23.6505 83.8472 17.8522 86.749 13.1221 89.4981C12.2066 90.109 12.6643 91.4835 13.5798 91.4835C18.0048 91.3308 22.735 91.0253 27.4651 90.5672C43.4866 89.0399 57.6771 85.8326 69.7313 82.0144C70.7994 81.709 70.6468 80.3344 69.5787 80.029C63.3227 78.8072 56.9141 77.5853 50.353 76.3635Z" fill="white" stroke="#416388" stroke-width="0.7004" stroke-linejoin="round"/>
<path d="M69.8848 80.6401L96.1295 77.7383" stroke="#416388" stroke-width="0.7004" stroke-linejoin="round"/>
<path d="M50.0488 76.3635C57.3729 75.2944 65.0022 74.2253 72.6315 73.3089C74.6151 73.0035 76.5987 72.8508 78.4298 72.5453C83.6177 71.9344 88.5004 69.9489 92.6202 66.7417C94.2987 65.3671 96.1297 64.1453 97.8081 62.7708" stroke="#416388" stroke-width="0.7004" stroke-linejoin="round"/>
<path d="M5.95117 108.59L34.1795 104.313L40.4355 109.964L59.2035 109.353" stroke="#416388" stroke-width="0.7004" stroke-linejoin="round"/>
<path d="M34.1797 104.313C35.7055 101.564 37.6892 98.3563 40.2831 94.9963C42.5719 92.0945 44.8607 89.8036 46.9969 87.8181" fill="white"/>
<path d="M34.1797 104.313C35.7055 101.564 37.6892 98.3563 40.2831 94.9963C42.5719 92.0945 44.8607 89.8036 46.9969 87.8181" stroke="#416388" stroke-width="0.7004" stroke-linejoin="round"/>
<path d="M1.06836 127.68C1.06836 122.946 1.37353 118.059 1.6787 112.866C1.98387 107.826 2.44163 102.939 3.05197 98.2041C3.35714 98.3568 3.96749 98.6623 4.42524 99.1205C6.71403 101.106 5.9511 104.466 5.79851 110.728C5.49334 119.433 6.40885 121.877 4.12007 124.931C3.05197 126.306 1.83129 127.07 1.06836 127.68Z" fill="#95A2A6" stroke="#416388" stroke-width="0.7844" stroke-linejoin="round"/>
<path d="M21.9727 78.196C24.5666 79.2651 27.1606 80.487 29.7545 81.556L21.9727 78.196Z" fill="#95A2A6"/>
<path d="M21.9727 78.196C24.5666 79.2651 27.1606 80.487 29.7545 81.556" stroke="#416388" stroke-width="0.7004" stroke-linejoin="round"/>
<path d="M222.47 83.6943C222.47 82.6252 217.129 81.8616 210.721 81.8616C204.312 81.8616 198.972 82.9307 199.124 83.9998C199.124 85.0689 204.465 85.8325 210.873 85.8325C217.282 85.8325 222.47 84.9161 222.47 83.6943Z" stroke="#416388" stroke-width="0.7004" stroke-linejoin="round"/>
<path d="M408.319 66.2833C408.319 65.9778 408.319 65.6724 408.167 65.3669C406.183 46.5815 402.979 29.7815 399.317 14.8142L397.638 15.2724C396.418 15.5778 395.655 16.7997 395.96 18.0215L404.352 59.2578C404.81 61.8542 406.183 64.2978 408.319 66.1306V66.2833Z" fill="#95A2A6" stroke="#416388" stroke-width="0.7844" stroke-linejoin="round"/>
<path d="M371.699 139.898C372.157 144.633 371.852 148.145 371.699 148.909L411.371 145.244L414.118 143.869C416.407 142.647 417.933 140.204 417.933 137.607V133.025C417.933 130.887 416.254 129.207 414.118 129.207H409.998L406.031 129.513L402.979 119.28C402.522 117.753 400.996 116.684 399.317 116.836L398.402 116.989C396.113 117.142 393.977 118.364 392.603 120.349L378.871 139.287L371.699 139.898Z" fill="#C7D8DC" stroke="#416388" stroke-width="0.7844" stroke-linejoin="round"/>
<path d="M355.678 111.186L377.497 110.117C380.244 109.964 382.838 108.589 384.516 106.299L390.467 98.204C391.84 96.2186 392.603 93.9276 392.451 91.484C391.688 76.8222 390.467 61.3967 388.484 45.2076C387.416 35.8913 386.042 27.0331 384.669 18.3276C384.364 16.0367 385.584 13.8985 387.568 12.9822L390.162 11.9131" stroke="#416388" stroke-width="0.7844" stroke-linejoin="round"/>
<path d="M387.721 39.0979L397.181 45.8179C398.097 51.927 398.859 58.1888 399.47 64.4506C400.69 76.0579 401.606 87.3597 402.064 98.0506C398.859 94.9961 395.503 91.7888 392.298 88.7343C391.841 79.1124 391.078 69.1852 390.009 58.7997C389.399 52.0797 388.484 45.5124 387.721 39.0979Z" fill="#95A2A6" stroke="#416388" stroke-width="0.7004" stroke-linejoin="round"/>
<path d="M10.3754 85.8323C10.528 85.985 10.6806 86.2905 10.8332 86.4432C10.9858 86.7486 10.9858 87.0541 11.1383 87.5123C11.1383 87.9705 11.1383 88.4286 11.1383 88.7341C11.1383 89.0395 11.1383 89.6505 10.8332 90.2614C10.528 90.8723 9.91765 91.3305 9.15472 91.7886C8.69697 92.0941 8.3918 92.2468 7.3237 92.705C6.86594 92.8577 6.10301 93.3159 5.1875 93.7741C5.79784 92.3995 6.71336 90.8723 7.78145 89.1923C8.54438 88.1232 9.4599 86.9014 10.3754 85.8323Z" fill="#95A2A6" stroke="#416388" stroke-width="0.7844" stroke-linejoin="round"/>
<path d="M28.9916 126.306C28.9916 128.138 28.9916 130.429 28.9916 132.262C28.9916 135.011 27.3131 137.302 25.3295 137.302H10.9865C8.54509 137.302 7.62957 132.873 9.76577 131.04C11.4442 129.666 13.4278 128.138 15.4114 126.917C19.2261 124.626 22.7355 123.251 25.6347 122.487C27.4657 122.029 28.9916 123.862 28.9916 126.306Z" fill="#95A2A6" stroke="#416388" stroke-width="0.5781" stroke-linejoin="round"/>
<path d="M26.3974 130.429C26.3974 127.374 25.4819 124.778 24.2612 124.778C23.0405 124.778 22.125 127.221 22.125 130.429C22.125 133.483 23.0405 136.08 24.2612 136.08C25.3293 136.08 26.3974 133.636 26.3974 130.429Z" fill="white" stroke="#416388" stroke-width="0.7004" stroke-linejoin="round"/>
<path d="M158.232 50.5525H152.739C150.908 50.5525 149.077 52.0798 148.619 54.2179L146.025 66.2834C145.262 70.1016 146.788 73.6143 149.687 73.6143H158.232C161.131 73.6143 163.267 70.1016 162.962 66.2834L162.047 54.2179C161.742 52.0798 160.063 50.5525 158.232 50.5525Z" fill="#95A2A6" stroke="#416388" stroke-width="0.8233" stroke-linejoin="round"/>
<path d="M130.613 67.6578C130.613 69.9487 130.613 72.2396 130.613 74.5305C137.174 74.0724 143.583 73.7669 150.144 73.3087C149.686 71.1705 149.381 68.8796 148.924 66.7415C142.82 67.0469 136.717 67.3524 130.613 67.6578Z" fill="#C7D8DC" stroke="#416388" stroke-width="0.7004" stroke-miterlimit="10"/>
<path d="M263.21 82.6257C263.21 81.5566 257.87 80.793 251.461 80.793C245.052 80.9457 239.712 81.8621 239.865 82.9311C239.865 84.0002 245.205 84.7639 251.614 84.7639C258.022 84.7639 263.21 83.6948 263.21 82.6257Z" stroke="#416388" stroke-width="0.7004" stroke-linejoin="round"/>
<path d="M81.7857 166.778C97.6286 166.778 110.472 153.923 110.472 138.065C110.472 122.208 97.6286 109.353 81.7857 109.353C65.9428 109.353 53.0996 122.208 53.0996 138.065C53.0996 153.923 65.9428 166.778 81.7857 166.778Z" fill="#95A2A6" stroke="#416388" stroke-width="1.2393" stroke-linejoin="round"/>
<path d="M81.7848 160.058C93.9198 160.058 103.757 150.212 103.757 138.065C103.757 125.919 93.9198 116.073 81.7848 116.073C69.6498 116.073 59.8125 125.919 59.8125 138.065C59.8125 150.212 69.6498 160.058 81.7848 160.058Z" fill="white" stroke="#416388" stroke-width="0.7004" stroke-linejoin="round"/>
<path d="M79.6513 138.676C79.3461 137.454 80.109 136.232 81.3297 135.927C82.5504 135.622 83.7711 136.385 84.0763 137.454C84.3814 138.676 83.6185 139.898 82.3978 140.203C81.1771 140.662 79.9564 139.898 79.6513 138.676Z" stroke="#416388" stroke-width="0.7004" stroke-linecap="round" stroke-linejoin="round"/>
<path d="M76.904 119.127C76.1411 119.28 75.3781 119.585 74.6152 119.891C74.31 120.043 74.0049 120.196 73.8523 120.349C73.5471 120.501 73.2419 120.807 73.0893 121.112L72.3264 122.945C72.0212 123.709 72.1738 124.472 72.7842 124.931L78.2773 129.054C79.0402 129.665 80.2609 129.36 80.7186 128.443L83.4652 122.181C83.7703 121.571 83.6178 120.654 83.0074 120.196L81.4816 118.974C81.1764 118.821 80.8712 118.669 80.4135 118.669C80.1083 118.669 79.8031 118.669 79.4979 118.669C78.4298 118.669 77.6669 118.821 76.904 119.127Z" fill="#C7D8DC" stroke="#416388" stroke-width="0.7004" stroke-linejoin="round"/>
<path d="M62.4082 136.843C62.4082 137.607 62.4082 138.371 62.4082 139.287C62.4082 139.593 62.5608 139.898 62.5608 140.203C62.5608 140.509 62.866 140.967 63.0185 141.12L64.5444 142.494C65.1547 142.953 65.9177 143.105 66.528 142.647L72.0211 138.676C72.9366 138.065 72.9366 136.843 72.1737 136.08L67.1384 131.498C66.528 131.04 65.7651 130.887 65.1547 131.345L63.6289 132.414C63.3237 132.567 63.1711 132.873 63.0185 133.331C62.866 133.636 62.866 133.942 62.7134 134.247C62.4082 135.316 62.4082 136.08 62.4082 136.843Z" fill="#C7D8DC" stroke="#416388" stroke-width="0.7004" stroke-linejoin="round"/>
<path d="M74.3091 156.087C74.9194 156.392 75.6824 156.698 76.5979 156.851C76.903 156.851 77.2082 157.003 77.5134 157.003C77.8186 157.003 78.2763 157.003 78.5815 156.851L80.2599 155.934C80.8703 155.629 81.1754 154.865 81.0228 154.102L79.1918 147.534C78.8867 146.465 77.8186 146.007 76.903 146.618L70.9522 149.978C70.3419 150.283 70.0367 151.047 70.1893 151.811L70.7996 153.643C70.9522 153.949 71.1048 154.254 71.41 154.56C71.7151 154.712 71.8677 154.865 72.1729 155.018C72.9358 155.476 73.6987 155.781 74.3091 156.087Z" fill="#C7D8DC" stroke="#416388" stroke-width="0.7004" stroke-linejoin="round"/>
<path d="M97.046 150.13C97.5037 149.519 97.9615 148.908 98.4192 148.145C98.5718 147.839 98.7244 147.534 98.877 147.381C99.0296 147.076 99.0296 146.618 99.0296 146.312L98.5718 144.479C98.4192 143.716 97.8089 143.258 97.046 143.258H90.1796C89.1115 143.258 88.3486 144.174 88.6537 145.243L90.1796 151.81C90.3322 152.574 90.9425 153.032 91.7055 153.032H93.6891C93.9942 153.032 94.452 152.879 94.7572 152.727C95.0623 152.574 95.2149 152.421 95.5201 152.116C95.9779 151.352 96.5882 150.588 97.046 150.13Z" fill="#C7D8DC" stroke="#416388" stroke-width="0.7004" stroke-linejoin="round"/>
<path d="M98.2664 127.527C97.9612 126.916 97.3509 126.305 96.7406 125.542C96.588 125.236 96.2828 125.084 96.1302 124.931C95.825 124.625 95.5199 124.473 95.2147 124.473L93.2311 124.32C92.4682 124.167 91.7052 124.625 91.5526 125.389L89.4164 131.804C89.1113 132.72 89.7216 133.789 90.7897 133.942L97.5035 134.705C98.2664 134.858 99.0293 134.4 99.1819 133.636L99.7923 131.804C99.9449 131.498 99.9449 131.04 99.7923 130.735C99.6397 130.429 99.6397 130.124 99.4871 129.818C99.1819 128.749 98.7242 128.138 98.2664 127.527Z" fill="#C7D8DC" stroke="#416388" stroke-width="0.7004" stroke-linejoin="round"/>
<path d="M363.72 144.899C367.36 129.466 357.813 114.001 342.394 110.357C326.976 106.713 311.526 116.27 307.885 131.702C304.244 147.135 313.792 162.6 329.21 166.244C344.629 169.888 360.079 160.331 363.72 144.899Z" fill="#95A2A6" stroke="#416388" stroke-width="1.2393" stroke-linejoin="round"/>
<path d="M357.185 143.355C359.974 131.534 352.661 119.689 340.851 116.898C329.041 114.107 317.207 121.427 314.418 133.247C311.63 145.068 318.943 156.913 330.753 159.705C342.562 162.496 354.397 155.176 357.185 143.355Z" fill="white" stroke="#416388" stroke-width="0.7004" stroke-linejoin="round"/>
<path d="M333.554 138.83C333.248 137.608 334.011 136.386 335.232 136.081C336.453 135.775 337.673 136.539 337.979 137.608C338.284 138.83 337.521 140.051 336.3 140.357C335.232 140.815 334.011 140.051 333.554 138.83Z" stroke="#416388" stroke-width="0.7004" stroke-linecap="round" stroke-linejoin="round"/>
<path d="M330.959 119.28C330.196 119.433 329.433 119.739 328.67 120.044C328.365 120.197 328.06 120.35 327.907 120.502C327.602 120.655 327.297 120.96 327.144 121.266L326.381 123.099C326.076 123.862 326.229 124.626 326.839 125.084L332.332 129.208C333.095 129.819 334.316 129.513 334.773 128.597L337.52 122.335C337.825 121.724 337.672 120.808 337.062 120.35L335.536 119.128C335.231 118.975 334.926 118.822 334.468 118.822C334.163 118.822 333.858 118.822 333.553 118.822C332.485 118.822 331.569 119.128 330.959 119.28Z" fill="#C7D8DC" stroke="#416388" stroke-width="0.7004" stroke-linejoin="round"/>
<path d="M316.311 136.997C316.311 137.761 316.311 138.524 316.311 139.441C316.311 139.746 316.463 140.052 316.463 140.357C316.463 140.662 316.768 141.121 316.921 141.273L318.447 142.648C319.057 143.106 319.82 143.259 320.43 142.801L325.923 138.83C326.839 138.219 326.839 136.997 326.076 136.233L321.041 131.652C320.43 131.193 319.667 131.041 319.057 131.499L317.531 132.568C317.226 132.721 317.073 133.026 316.921 133.484C316.768 133.79 316.768 134.095 316.616 134.401C316.463 135.47 316.463 136.233 316.311 136.997Z" fill="#C7D8DC" stroke="#416388" stroke-width="0.7004" stroke-linejoin="round"/>
<path d="M328.366 156.241C328.976 156.546 329.739 156.851 330.655 157.004C330.96 157.004 331.265 157.157 331.57 157.157C331.875 157.157 332.333 157.157 332.638 157.004L334.317 156.088C334.927 155.782 335.232 155.019 335.079 154.255L333.248 147.688C332.943 146.619 331.875 146.161 330.96 146.771L325.009 150.131C324.399 150.437 324.093 151.201 324.246 151.964L324.856 153.797C325.009 154.102 325.161 154.408 325.467 154.713C325.772 154.866 325.924 155.019 326.23 155.171C326.84 155.63 327.603 155.935 328.366 156.241Z" fill="#C7D8DC" stroke="#416388" stroke-width="0.7004" stroke-linejoin="round"/>
<path d="M351.101 150.284C351.558 149.673 352.016 149.062 352.474 148.298C352.626 147.993 352.779 147.687 352.932 147.535C353.084 147.229 353.084 146.771 353.084 146.466L352.626 144.633C352.474 143.869 351.864 143.411 351.101 143.411H344.234C343.166 143.411 342.403 144.327 342.708 145.397L344.234 151.964C344.387 152.727 344.997 153.186 345.76 153.186H347.744C348.049 153.186 348.507 153.033 348.812 152.88C349.117 152.727 349.27 152.575 349.575 152.269C350.033 151.506 350.643 150.742 351.101 150.284Z" fill="#C7D8DC" stroke="#416388" stroke-width="0.7004" stroke-linejoin="round"/>
<path d="M352.321 127.681C352.016 127.07 351.406 126.459 350.795 125.695C350.643 125.39 350.337 125.237 350.185 125.085C349.88 124.779 349.575 124.626 349.269 124.626L347.286 124.474C346.523 124.321 345.76 124.779 345.607 125.543L343.471 131.957C343.166 132.874 343.776 133.943 344.844 134.095L351.558 134.859C352.321 135.012 353.084 134.554 353.237 133.79L353.847 131.957C354 131.652 354 131.194 353.847 130.888C353.694 130.583 353.694 130.277 353.542 129.972C353.084 128.903 352.779 128.292 352.321 127.681Z" fill="#C7D8DC" stroke="#416388" stroke-width="0.7004" stroke-linejoin="round"/>
<path d="M1.52636 111.032L0.916016 122.181L5.49358 120.349L5.79875 111.796L1.52636 111.032Z" fill="#C7D8DC" stroke="#416388" stroke-width="0.7844" stroke-linejoin="round"/>
</g>
<defs>
<clipPath id="clip0_1135_73436">
<rect width="419" height="168" fill="white"/>
</clipPath>
</defs>
</svg>
