<svg width="206" height="168" viewBox="0 0 206 168" fill="none" xmlns="http://www.w3.org/2000/svg">
<g opacity="0.5" clip-path="url(#clip0_1135_73544)">
<path d="M171.793 133.851H32.9902V148.791H171.793V133.851Z" fill="#6C747B" stroke="#416388" stroke-width="0.9201" stroke-linejoin="round"/>
<path d="M56.0982 140.406H48.8008C46.2163 140.406 44.0879 142.541 44.0879 145.132V145.894C44.0879 148.486 46.2163 150.62 48.8008 150.62H56.0982C58.6827 150.62 60.8111 148.486 60.8111 145.894V145.132C60.8111 142.541 58.6827 140.406 56.0982 140.406Z" fill="#95A2A6" stroke="#416388" stroke-width="0.7949" stroke-linejoin="round"/>
<path d="M47.2812 153.059H52.9063L55.1868 146.657C54.7307 145.742 53.6665 145.132 52.4503 145.132C51.234 145.132 50.0178 145.589 49.5617 146.504C48.8015 148.791 48.0414 150.925 47.2812 153.059Z" fill="#95A2A6" stroke="#416388" stroke-width="0.7949" stroke-linejoin="round"/>
<path d="M53.0584 153.06C53.0584 152.297 51.8421 151.84 50.1698 151.84C48.6495 151.84 47.2812 152.45 47.2812 153.06C47.2812 153.822 48.4975 154.279 50.1698 154.279C51.8421 154.432 53.0584 153.822 53.0584 153.06Z" fill="#44494E" stroke="#416388" stroke-width="0.5387" stroke-linejoin="round"/>
<path d="M18.5469 116.167V117.081V162.511C18.5469 165.103 20.6753 167.237 23.2598 167.237H34.51C37.0945 167.237 39.2229 165.103 39.2229 162.511V138.424L18.5469 116.167Z" fill="#95A2A6" stroke="#416388" stroke-width="1.0663" stroke-linejoin="round"/>
<path d="M187.452 116.167V117.081V162.511C187.452 165.103 185.323 167.237 182.739 167.237H171.641C169.056 167.237 166.928 165.103 166.928 162.511V136.9L187.452 116.167Z" fill="#95A2A6" stroke="#416388" stroke-width="1.0663" stroke-linejoin="round"/>
<path d="M103.076 144.98H176.81C179.395 144.98 184.716 143.151 185.172 140.711C187.148 131.107 188.973 101.532 188.973 97.4156C188.973 91.7749 188.061 87.3539 187.3 84.4573C186.844 80.1887 185.932 75.1579 184.412 69.9746C183.348 66.1633 182.283 62.6569 181.067 59.4555C179.547 47.5644 177.114 34.3012 172.858 20.1234C171.945 17.3793 171.185 14.6352 170.273 11.8911C168.601 6.70776 163.888 3.20141 158.415 2.74406C152.79 2.28671 147.165 1.98181 141.387 1.67691C128.009 1.06711 115.238 0.762207 102.924 0.762207C90.6096 0.762207 77.8391 0.914657 64.4606 1.67691C58.8355 2.13426 53.2104 2.43916 47.5853 2.89651C42.1122 3.35386 37.3993 6.86021 35.727 12.0435C34.8148 14.6352 33.9026 17.3793 33.1425 20.2758C28.8856 34.4537 26.3011 47.7168 24.9329 59.6079C23.7166 62.8094 22.5004 66.3158 21.5882 70.127C20.22 75.4628 19.3078 80.3412 18.6997 84.6098C17.9395 87.5063 17.1794 91.9274 17.0273 97.568C17.0273 101.684 18.8517 131.259 20.8281 140.864C21.2842 143.303 26.6052 145.132 29.1897 145.132H102.924H103.076V144.98Z" fill="#EAF5F9" stroke="#416388" stroke-width="1.2365" stroke-linejoin="round"/>
<path d="M29.9503 41.7715L35.2713 45.8876C33.4469 63.8768 32.5348 81.1036 32.2307 97.7207C29.9503 95.2815 26.7576 91.9276 24.7812 89.6408C27.3658 66.6209 27.6698 58.2361 29.1901 47.717C29.3421 45.7352 29.6462 43.9058 29.9503 41.7715Z" fill="#95A2A6" stroke="#416388" stroke-width="0.7004" stroke-linejoin="round"/>
<path d="M53.514 2.43896C51.3856 2.89632 49.1052 3.35367 46.9767 3.81102C43.176 4.57327 40.4395 7.62227 39.8314 11.4335C38.6151 18.7511 37.7029 26.3736 36.7908 33.9961C36.3347 37.9598 35.8786 41.7711 35.5745 45.7348C33.7502 63.7239 32.838 80.9508 32.5339 97.5678C32.3819 105.343 32.3819 112.965 32.5339 120.283" stroke="#416388" stroke-width="0.7844" stroke-linejoin="round"/>
<path d="M17.7871 110.373L22.6521 107.782C22.9561 105.038 23.4122 100.922 24.0203 96.0432C24.3244 93.7564 24.4764 91.6221 24.7805 89.6403C27.365 66.6203 27.669 58.2355 29.1893 47.7165C29.4934 45.8871 29.6454 44.0577 30.1015 41.9234C31.6218 32.9288 33.9022 21.4951 38.1591 7.927" stroke="#416388" stroke-width="0.7844" stroke-linejoin="round"/>
<path d="M39.5269 98.6354H96.842C97.2981 95.8913 95.4737 93.4521 92.7372 93.4521H43.6317C40.8951 93.6046 39.0708 95.8913 39.5269 98.6354Z" stroke="#416388" stroke-width="0.7004" stroke-linejoin="round"/>
<path d="M96.6904 98.6357L94.8661 109.002C94.41 111.289 92.1296 113.271 89.6971 113.271H46.5207C44.0882 113.271 41.8078 111.442 41.3517 109.002L39.5273 98.6357H96.6904Z" stroke="#416388" stroke-width="0.7004" stroke-linejoin="round"/>
<path d="M5.625 70.8887C8.2095 70.2789 10.946 69.6691 13.5305 69.0593C16.2671 69.8216 18.8516 70.5838 21.5881 71.3461C20.98 73.023 20.3719 74.7 19.7637 76.5294C15.0508 74.7 10.3379 72.7181 5.625 70.8887Z" fill="#C7D8DC" stroke="#416388" stroke-width="0.7004" stroke-miterlimit="10"/>
<path d="M14.5944 52.1375H8.05717C5.77673 52.1375 3.64831 53.662 3.34425 55.4914L0.911782 66.4678C0.303664 69.2119 1.97599 71.956 4.71252 72.5658L13.0741 74.3952C16.5708 75.1574 19.7634 72.8707 19.7634 69.5168V56.1012C19.6114 53.8144 17.331 52.1375 14.5944 52.1375Z" fill="#95A2A6" stroke="#416388" stroke-width="0.8233" stroke-linejoin="round"/>
<path d="M17.7879 64.7906V55.9485C17.7879 54.7289 16.2676 53.8142 14.5953 53.8142H8.05799C6.68972 53.8142 5.32146 54.7289 5.0174 55.7961L3.04102 64.7906H17.7879Z" fill="#C7D8DC" stroke="#416388" stroke-width="0.8739" stroke-linejoin="round"/>
<path d="M2.43201 66.9248C2.27998 67.6871 2.43201 68.6018 2.8881 69.364C3.34419 70.1263 4.10434 70.5836 4.86448 70.7361L13.2261 72.5654C13.5302 72.5654 13.8342 72.7179 14.2903 72.7179C15.2025 72.7179 16.1147 72.413 16.7228 71.8032C17.3309 71.1934 17.635 70.4311 17.635 69.5164V66.9248H2.43201Z" fill="#C7D8DC" stroke="#416388" stroke-width="0.8739" stroke-linejoin="round"/>
<path d="M36.1825 37.0457C35.5744 37.0457 34.9662 37.0457 34.3581 37.0457C34.2061 38.8751 33.902 40.552 33.75 42.3814C34.3581 42.3814 34.9662 42.3814 35.5744 42.3814" stroke="#416388" stroke-width="0.8739" stroke-linejoin="round"/>
<path d="M32.0786 98.6348H30.4062V103.361H32.0786" stroke="#416388" stroke-width="0.8739" stroke-linejoin="round"/>
<path d="M176.05 41.7715L170.729 45.8876C172.553 63.8768 173.465 81.1036 173.769 97.7207C176.05 95.2815 179.242 91.9276 181.219 89.6408C178.634 66.6209 178.33 58.2361 176.81 47.717C176.658 45.7352 176.354 43.9058 176.05 41.7715Z" fill="#95A2A6" stroke="#416388" stroke-width="0.7004" stroke-linejoin="round"/>
<path d="M152.637 2.43896C154.765 2.89632 157.046 3.35367 159.174 3.81102C162.975 4.57327 165.711 7.62227 166.319 11.4335C167.536 18.7511 168.448 26.3736 169.36 33.9961C169.816 37.9598 170.272 41.7711 170.576 45.7348C172.401 63.7239 173.313 80.9508 173.617 97.5678C173.769 105.343 173.769 112.965 173.617 120.283" stroke="#416388" stroke-width="0.7844" stroke-linejoin="round"/>
<path d="M188.364 110.373L183.499 107.782C183.195 105.038 182.739 100.922 182.131 96.0432C181.827 93.7564 181.675 91.6221 181.371 89.6403C178.786 66.6203 178.482 58.2355 176.962 47.7165C176.658 45.8871 176.506 44.0577 176.05 41.9234C174.529 32.9288 172.249 21.4951 167.992 7.927" stroke="#416388" stroke-width="0.7844" stroke-linejoin="round"/>
<path d="M161.303 30.0329C160.847 26.8315 160.543 23.7825 159.935 20.7335C159.479 17.8369 157.046 15.7026 154.158 15.5502C154.158 15.5502 115.694 14.3306 102.924 14.3306C90.1534 14.3306 51.69 15.5502 51.69 15.5502C48.8014 15.5502 46.3689 17.8369 45.9128 20.7335C45.4568 23.7825 45.0007 26.8315 44.5446 30.0329C43.7844 36.1309 43.1763 42.0765 42.7202 47.7171C42.5682 49.2416 43.1763 50.6137 44.3925 51.6808L50.7778 56.8641L57.7711 62.5048C59.2914 63.7244 60.9638 64.3342 62.9401 64.3342H102.924H142.908C144.732 64.3342 146.556 63.7244 148.077 62.5048L155.07 56.8641L161.455 51.6808C162.671 50.7661 163.28 49.2416 163.128 47.7171C162.672 42.0765 162.063 36.1309 161.303 30.0329Z" stroke="#416388" stroke-width="0.7844" stroke-linejoin="round"/>
<path d="M200.526 70.8887C197.941 70.2789 195.205 69.6691 192.62 69.0593C189.884 69.8216 187.299 70.5838 184.562 71.3461C185.171 73.023 185.779 74.7 186.387 76.5294C190.948 74.7 195.661 72.7181 200.526 70.8887Z" fill="#C7D8DC" stroke="#416388" stroke-width="0.7004" stroke-miterlimit="10"/>
<path d="M191.403 52.1375H197.941C200.221 52.1375 202.35 53.662 202.654 55.4914L205.086 66.4678C205.694 69.2119 204.022 71.956 201.285 72.5658L192.924 74.3952C189.427 75.1574 186.234 72.8707 186.234 69.5168V56.1012C186.386 53.8144 188.819 52.1375 191.403 52.1375Z" fill="#95A2A6" stroke="#416388" stroke-width="0.8233" stroke-linejoin="round"/>
<path d="M188.211 64.7906V55.9485C188.211 54.7289 189.731 53.8142 191.404 53.8142H197.941C199.309 53.8142 200.677 54.7289 200.981 55.7961L202.958 64.7906H188.211Z" fill="#C7D8DC" stroke="#416388" stroke-width="0.8739" stroke-linejoin="round"/>
<path d="M203.566 66.9248C203.718 67.6871 203.566 68.6018 203.11 69.364C202.654 70.1263 201.894 70.5836 201.134 70.7361L192.772 72.5654C192.468 72.5654 192.164 72.7179 191.708 72.7179C190.796 72.7179 189.884 72.413 189.275 71.8032C188.667 71.1934 188.363 70.4311 188.363 69.5164V66.9248H203.566Z" fill="#C7D8DC" stroke="#416388" stroke-width="0.8739" stroke-linejoin="round"/>
<path d="M169.816 37.0457C170.425 37.0457 171.033 37.0457 171.641 37.0457C171.793 38.8751 172.097 40.552 172.249 42.3814C171.641 42.3814 171.033 42.3814 170.425 42.3814" stroke="#416388" stroke-width="0.8739" stroke-linejoin="round"/>
<path d="M174.074 98.6348H175.595V103.361H174.074" stroke="#416388" stroke-width="0.8739" stroke-linejoin="round"/>
<path d="M137.131 76.2254C137.131 75.1582 131.81 74.396 125.425 74.396C119.039 74.5484 113.718 75.4631 113.87 76.5303C113.87 77.5974 119.191 78.3597 125.577 78.3597C131.962 78.3597 137.131 77.2925 137.131 76.2254Z" stroke="#416388" stroke-width="0.7004" stroke-linejoin="round"/>
<path d="M103.076 4.57349V128.82" stroke="#416388" stroke-width="0.7004" stroke-linejoin="round"/>
<path d="M117.366 1.06665H88.6328V4.72545H117.366V1.06665Z" fill="#95A2A6" stroke="#416388" stroke-width="0.7004" stroke-linejoin="round"/>
<path d="M181.979 118.911C181.675 117.082 180.154 115.862 178.33 115.862H176.202C174.833 115.862 173.769 116.929 173.769 118.301V124.704C173.769 126.991 171.945 128.82 169.664 128.82C148.228 128.82 125.272 128.82 103.836 128.82C102.771 128.82 57.7707 128.82 36.3345 128.82C34.0541 128.82 32.2297 126.991 32.2297 124.704V118.301C32.2297 116.929 31.1655 115.862 29.7972 115.862H27.6688C25.8445 115.862 24.3242 117.082 24.0201 118.911C22.8039 125.466 21.7397 132.174 20.5234 138.73C20.6755 139.492 20.8275 140.102 20.8275 140.711C21.2836 143.151 26.7566 144.98 29.1891 144.98H103.684H176.658C179.242 144.98 184.563 143.151 185.019 140.711C185.171 140.102 185.323 139.492 185.323 138.73C184.411 132.174 183.195 125.619 181.979 118.911Z" fill="#C7D8DC" stroke="#416388" stroke-width="0.7844" stroke-linejoin="round"/>
</g>
<defs>
<clipPath id="clip0_1135_73544">
<rect width="206" height="168" fill="white"/>
</clipPath>
</defs>
</svg>
