<svg width="205" height="168" viewBox="0 0 205 168" fill="none" xmlns="http://www.w3.org/2000/svg">
<g opacity="0.5" clip-path="url(#clip0_1135_73503)">
<path d="M169.03 136.747H35.9707V149.248H169.03V136.747Z" fill="#6C747B" stroke="#416388" stroke-width="0.7004" stroke-linejoin="round"/>
<path d="M142.356 138.577H62.7949V150.926H142.356V138.577Z" fill="#6C747B" stroke="#416388" stroke-width="0.7004" stroke-linejoin="round"/>
<path d="M17.832 100.465V117.082V162.512C17.832 165.104 19.9659 167.238 22.5569 167.238H33.8358C36.4268 167.238 38.5607 165.104 38.5607 162.512V138.425L17.832 100.465Z" fill="#95A2A6" stroke="#416388" stroke-width="1.0663" stroke-linejoin="round"/>
<path d="M187.166 100.465V117.082V162.512C187.166 165.104 185.032 167.238 182.441 167.238H171.315C168.724 167.238 166.59 165.104 166.59 162.512V136.9L187.166 100.465Z" fill="#95A2A6" stroke="#416388" stroke-width="1.0663" stroke-linejoin="round"/>
<path d="M102.729 144.98H176.651C179.242 144.98 181.376 143.151 181.833 140.711C183.814 131.107 186.863 115.557 188.082 106.41C188.387 104.581 188.844 101.379 188.692 97.4156C188.692 91.7749 187.777 87.3539 187.015 84.4573C186.558 80.1887 185.643 75.1579 184.119 69.9746C183.052 66.1633 181.985 62.6569 180.766 59.4555C179.242 47.5644 176.803 34.3012 172.535 20.1234C171.621 17.3793 170.859 14.6352 169.944 11.8911C168.268 6.70776 163.543 3.20141 158.056 2.74406C152.416 2.28671 146.777 1.98181 140.985 1.67691C127.573 1.06711 114.77 0.762207 102.424 0.762207C90.0782 0.762207 77.2752 0.914657 63.8626 1.67691C58.0708 1.98181 52.4313 2.28671 46.7919 2.74406C41.305 3.20141 36.58 6.70776 34.9035 11.8911C33.989 14.4827 33.0745 17.2268 32.3124 20.1234C28.0447 34.3012 25.4536 47.5644 24.0819 59.4555C22.8626 62.6569 21.6432 66.1633 20.7287 69.9746C19.357 75.3103 18.4425 80.1887 17.8328 84.4573C17.0707 87.3539 16.3087 91.7749 16.1562 97.4156C16.1562 101.532 16.4611 104.581 16.7659 106.41C18.1377 115.557 21.186 130.955 23.015 140.711C23.4722 143.151 25.7585 144.98 28.1971 144.98H102.119H102.729Z" fill="#EAF5F9" stroke="#416388" stroke-width="1.2365" stroke-linejoin="round"/>
<path d="M27.8924 78.3593C32.1601 79.1216 39.476 80.7985 41.0002 81.1034C41.1526 81.1034 41.4575 81.2559 41.6099 81.4083L58.9853 90.8602C60.5095 91.6225 60.6619 93.6043 59.1378 94.0617L56.0894 95.1288H55.937C53.8032 95.5862 41.6099 98.7876 32.3125 91.6225C32.0076 91.3176 31.5504 91.0127 31.2456 90.7078C28.1972 88.1161 25.1489 84 26.0634 80.7985C26.0634 80.4936 26.0634 78.0544 27.8924 78.3593Z" fill="white" stroke="#416388" stroke-width="0.6982" stroke-linejoin="round"/>
<path d="M41.6094 81.4085C49.6874 81.256 57.7655 80.9511 65.996 80.9511C78.3417 80.7987 90.535 80.6462 102.576 80.6462" fill="white"/>
<path d="M41.6094 81.4085C49.6874 81.256 57.7655 80.9511 65.996 80.9511C78.3417 80.7987 90.535 80.6462 102.576 80.6462" stroke="#416388" stroke-width="0.6982" stroke-linejoin="round"/>
<path d="M25.7576 82.1707L28.6535 105.648C27.8914 106.563 26.8245 107.782 25.1479 108.849C22.252 110.679 19.3561 110.984 17.9844 111.136" stroke="#416388" stroke-width="0.6982" stroke-linejoin="round"/>
<path d="M28.6543 105.648C31.7026 106.41 34.9034 107.02 38.1041 107.63C43.7435 108.697 49.2305 109.459 54.4127 110.069" fill="white"/>
<path d="M28.6543 105.648C31.7026 106.41 34.9034 107.02 38.1041 107.63C43.7435 108.697 49.2305 109.459 54.4127 110.069" stroke="#416388" stroke-width="0.6982" stroke-linejoin="round"/>
<path d="M44.5059 17.5315C44.9631 14.9398 45.1155 11.7384 45.1155 8.23203C45.1155 5.64037 44.8107 5.33547 44.5059 3.20117" stroke="#416388" stroke-width="0.6982" stroke-linejoin="round"/>
<path d="M26.9781 125.924C27.283 127.906 27.5878 130.04 27.8926 132.022C28.3499 134.766 30.3313 137.053 32.3127 137.053H47.5543C50.1454 137.053 50.4503 132.479 48.0116 130.65C46.0302 129.125 43.7439 127.753 41.4577 126.381C37.19 123.942 33.2272 122.57 30.0265 121.808C28.0451 121.351 26.5209 123.332 26.9781 125.924Z" fill="#95A2A6" stroke="#416388" stroke-width="0.5781" stroke-linejoin="round"/>
<path d="M30.0254 130.345C30.0254 127.601 32.1592 125.467 34.9027 125.467C37.6462 125.467 39.78 127.601 39.78 130.345C39.78 133.089 37.6462 135.224 34.9027 135.224C32.1592 135.071 30.0254 132.937 30.0254 130.345Z" fill="white" stroke="#416388" stroke-width="0.7004" stroke-linejoin="round"/>
<path d="M14.6315 49.2417H8.07762C5.79138 49.2417 3.65755 50.7662 3.35271 52.5956L0.914052 63.572C0.304387 66.3161 1.98097 69.0602 4.72446 69.67L13.1074 71.4994C16.6129 72.2617 19.8137 69.9749 19.8137 66.621V53.2054C19.6613 50.9187 17.375 49.2417 14.6315 49.2417Z" fill="#95A2A6" stroke="#416388" stroke-width="0.8233" stroke-linejoin="round"/>
<path d="M5.63867 67.993C8.22975 67.3832 10.9732 66.7734 13.5643 66.1636C16.3078 66.9258 18.8989 67.6881 21.6424 68.4503C21.0327 70.1273 20.4231 71.8042 19.8134 73.6336C15.0885 71.6518 10.3636 69.8224 5.63867 67.993Z" fill="#C7D8DC" stroke="#416388" stroke-width="0.7004" stroke-miterlimit="10"/>
<path d="M57.0039 80.6466C54.7177 78.3598 52.4314 75.4633 49.9928 72.2618C47.8589 69.2128 46.03 66.4687 44.6582 63.7246" stroke="#416388" stroke-width="0.7004" stroke-miterlimit="10"/>
<path d="M41.0002 81.1035C38.7139 80.1888 34.1414 78.0545 30.1786 73.3285C25.6061 67.6879 24.5392 61.8948 24.2344 59.4556" stroke="#416388" stroke-width="0.7004" stroke-miterlimit="10"/>
<path d="M26.8255 78.3597L19.9668 73.6338" stroke="#416388" stroke-width="0.7004" stroke-miterlimit="10"/>
<path d="M102.575 63.7246H167.2C171.468 63.7246 174.668 59.9134 174.059 55.7972C173.297 50.309 172.382 44.6684 171.468 38.8753C170.553 33.5395 169.639 28.3562 168.572 23.1729C167.962 19.9714 165.219 17.5322 161.865 17.5322C161.865 17.5322 117.36 16.4651 102.575 16.4651C87.7911 16.4651 43.2855 17.5322 43.2855 17.5322C39.9324 17.5322 37.1889 19.9714 36.5792 23.1729C35.6647 28.3562 34.5978 33.5395 33.6833 38.8753C32.7688 44.6684 31.8543 50.1566 31.0922 55.7972C30.4825 59.9134 33.6833 63.7246 37.9509 63.7246H102.575Z" fill="#95A2A6" stroke="#416388" stroke-width="0.5571" stroke-linejoin="round"/>
<path d="M177.26 78.3593C172.993 79.1216 165.677 80.7985 164.153 81.1034C164 81.1034 163.695 81.2559 163.543 81.4083L146.167 90.8602C144.643 91.6225 144.491 93.6043 146.015 94.0617L149.063 95.1288H149.216C151.35 95.5862 163.543 98.7876 172.84 91.6225C173.145 91.3176 173.602 91.0127 173.907 90.7078C176.956 88.1161 180.004 84 179.089 80.7985C178.937 80.4936 178.937 78.0544 177.26 78.3593Z" fill="white" stroke="#416388" stroke-width="0.6982" stroke-linejoin="round"/>
<path d="M163.543 81.4085C155.465 81.256 147.387 80.9511 139.156 80.9511C126.81 80.7987 114.617 80.6462 102.576 80.6462" fill="white"/>
<path d="M163.543 81.4085C155.465 81.256 147.387 80.9511 139.156 80.9511C126.81 80.7987 114.617 80.6462 102.576 80.6462" stroke="#416388" stroke-width="0.6982" stroke-linejoin="round"/>
<path d="M179.242 82.1707L176.346 105.648C177.108 106.563 178.175 107.782 179.851 108.849C182.747 110.679 185.643 110.984 187.015 111.136" stroke="#416388" stroke-width="0.6982" stroke-linejoin="round"/>
<path d="M176.344 105.648C173.296 106.41 170.095 107.02 166.894 107.63C161.255 108.697 155.768 109.459 150.586 110.069" fill="white"/>
<path d="M176.344 105.648C173.296 106.41 170.095 107.02 166.894 107.63C161.255 108.697 155.768 109.459 150.586 110.069" stroke="#416388" stroke-width="0.6982" stroke-linejoin="round"/>
<path d="M139.156 89.0307C139.004 88.8783 138.851 88.5733 138.699 88.4209C126.658 88.4209 114.617 88.4209 102.576 88.4209C90.5354 88.4209 78.4945 88.4209 66.4536 88.4209C66.3011 88.5733 66.1487 88.7258 65.9963 89.0307C65.5391 89.6405 65.5391 90.2503 65.5391 90.2503C65.5391 90.2503 65.5391 90.8601 65.8439 91.4699C65.9963 91.6223 65.9963 91.9272 66.1487 92.0797C69.3495 92.8419 72.7026 93.6042 76.2082 94.214C85.9629 95.8909 94.803 96.3483 102.576 96.1958C110.349 96.3483 119.19 95.8909 128.944 94.214C132.45 93.6042 135.803 92.8419 139.004 92.0797C139.156 91.9272 139.309 91.6223 139.309 91.4699C139.613 90.8601 139.613 90.2503 139.613 90.2503C139.613 90.2503 139.461 89.6405 139.156 89.0307Z" fill="#95A2A6" stroke="#416388" stroke-width="0.5781" stroke-linejoin="round"/>
<path d="M160.494 17.5315C160.037 14.9398 159.885 11.7384 159.885 8.23203C159.885 5.64037 160.19 5.33547 160.494 3.20117" stroke="#416388" stroke-width="0.6982" stroke-linejoin="round"/>
<path d="M102.424 129.887C94.346 129.887 86.1155 129.735 77.7326 129.43C71.636 129.125 65.5393 128.82 59.4427 128.363C57.6137 128.21 55.9371 127.295 54.8702 125.771C54.5653 125.314 54.1081 124.704 53.8033 124.094C53.346 123.484 53.0412 122.722 52.5839 121.96C51.9743 120.74 51.517 119.521 51.0598 118.453C50.2977 116.319 50.6025 114.032 52.1267 112.508C53.6509 110.831 55.4798 109.154 57.3088 107.325C58.833 105.8 60.5096 104.428 62.0338 103.208C63.8627 101.684 66.149 100.922 68.5877 101.074C79.8665 101.379 91.2977 101.531 102.577 101.531C113.855 101.531 125.287 101.379 136.565 101.074C139.004 101.074 141.29 101.684 143.119 103.208C144.643 104.428 146.168 105.8 147.844 107.325C149.673 109.154 151.502 110.831 153.026 112.508C154.55 114.032 154.855 116.472 154.093 118.453C153.636 119.521 153.179 120.74 152.569 121.96C152.112 122.722 151.807 123.484 151.35 124.094C151.045 124.704 150.588 125.161 150.283 125.771C149.216 127.295 147.539 128.21 145.71 128.363C139.766 128.82 133.669 129.125 127.42 129.43C119.037 129.735 110.807 129.887 102.729 129.887" fill="#95A2A6"/>
<path d="M102.424 129.887C94.346 129.887 86.1155 129.735 77.7326 129.43C71.636 129.125 65.5393 128.82 59.4427 128.363C57.6137 128.21 55.9371 127.295 54.8702 125.771C54.5653 125.314 54.1081 124.704 53.8033 124.094C53.346 123.484 53.0412 122.722 52.5839 121.96C51.9743 120.74 51.517 119.521 51.0598 118.453C50.2977 116.319 50.6025 114.032 52.1267 112.508C53.6509 110.831 55.4798 109.154 57.3088 107.325C58.833 105.8 60.5096 104.428 62.0338 103.208C63.8627 101.684 66.149 100.922 68.5877 101.074C79.8665 101.379 91.2977 101.531 102.577 101.531C113.855 101.531 125.287 101.379 136.565 101.074C139.004 101.074 141.29 101.684 143.119 103.208C144.643 104.428 146.168 105.8 147.844 107.325C149.673 109.154 151.502 110.831 153.026 112.508C154.55 114.032 154.855 116.472 154.093 118.453C153.636 119.521 153.179 120.74 152.569 121.96C152.112 122.722 151.807 123.484 151.35 124.094C151.045 124.704 150.588 125.161 150.283 125.771C149.216 127.295 147.539 128.21 145.71 128.363C139.766 128.82 133.669 129.125 127.42 129.43C119.037 129.735 110.807 129.887 102.729 129.887" stroke="#416388" stroke-width="0.5781" stroke-linejoin="round"/>
<path d="M152.874 112.508C152.264 111.898 151.35 110.678 150.74 110.069C150.74 110.069 114.465 110.678 102.424 110.678C90.3833 110.678 54.1082 110.069 54.1082 110.069C53.4985 110.678 52.584 111.898 51.9743 112.508C50.4502 114.185 50.1453 116.472 50.9074 118.606C51.3647 119.673 51.8219 120.893 52.4316 121.96C52.8888 122.722 53.1937 123.332 53.6509 124.094H102.272H150.893C151.35 123.484 151.655 122.722 152.112 121.96C152.722 120.74 153.331 119.673 153.636 118.606C154.703 116.472 154.398 114.185 152.874 112.508Z" fill="#C7D8DC" stroke="#416388" stroke-width="0.7844" stroke-linejoin="round"/>
<path d="M178.174 125.924C177.87 127.906 177.565 130.04 177.26 132.022C176.803 134.766 174.821 137.053 172.84 137.053H157.598C155.007 137.053 154.702 132.479 157.141 130.65C159.122 129.125 161.409 127.753 163.695 126.381C167.963 123.942 171.925 122.57 175.126 121.808C177.108 121.351 178.479 123.332 178.174 125.924Z" fill="#95A2A6" stroke="#416388" stroke-width="0.5781" stroke-linejoin="round"/>
<path d="M175.126 130.345C175.126 127.601 172.992 125.467 170.248 125.467C167.505 125.467 165.371 127.601 165.371 130.345C165.371 133.089 167.505 135.224 170.248 135.224C172.839 135.071 175.126 132.937 175.126 130.345Z" fill="white" stroke="#416388" stroke-width="0.7004" stroke-linejoin="round"/>
<path d="M190.52 49.2417H197.074C199.36 49.2417 201.494 50.7662 201.799 52.5956L204.238 63.572C204.847 66.3161 203.171 69.0602 200.427 69.67L192.044 71.4994C188.539 72.2617 185.338 69.9749 185.338 66.621V53.2054C185.49 50.9187 187.777 49.2417 190.52 49.2417Z" fill="#95A2A6" stroke="#416388" stroke-width="0.8233" stroke-linejoin="round"/>
<path d="M199.513 67.993C196.922 67.3832 194.331 66.7734 191.588 66.1636C188.997 66.9258 186.253 67.6881 183.662 68.4503C184.272 70.1273 184.881 71.8042 185.339 73.6336C190.064 71.6518 194.788 69.8224 199.513 67.993Z" fill="#C7D8DC" stroke="#416388" stroke-width="0.7004" stroke-miterlimit="10"/>
<path d="M148.148 80.6466C150.435 78.3598 152.721 75.4633 155.16 72.2618C157.293 69.2128 159.122 66.4687 160.494 63.7246" stroke="#416388" stroke-width="0.7004" stroke-miterlimit="10"/>
<path d="M164.152 81.1035C166.439 80.1888 171.011 78.0545 174.974 73.3285C179.546 67.6879 180.613 61.8948 180.918 59.4556" stroke="#416388" stroke-width="0.7004" stroke-miterlimit="10"/>
<path d="M178.174 78.3597L185.185 73.6338" stroke="#416388" stroke-width="0.7004" stroke-miterlimit="10"/>
</g>
<defs>
<clipPath id="clip0_1135_73503">
<rect width="205" height="168" fill="white"/>
</clipPath>
</defs>
</svg>
