<svg width="401" height="99" viewBox="0 0 401 99" fill="none" xmlns="http://www.w3.org/2000/svg">
<path d="M179.315 56.0045C179.315 45.1455 184.318 32.8252 214.064 32.8252H249.776V42.4562H215.403C202.362 42.4562 197.603 47.2159 197.491 55.8827C197.491 64.6613 202.362 69.4209 215.403 69.4209H233.437V61.2513H211.872V51.6203H249.776V79.194H214.064C184.318 79.194 179.315 66.8736 179.315 56.0147V56.0045Z" fill="#D70010"/>
<path d="M294.886 45.2662L284.768 60.0324H301.828L308.17 69.43H278.303L271.595 79.1828H253.439L285.498 32.7023H304.385L336.444 79.1828H317.558L294.886 45.2662Z" fill="#D70010"/>
<path d="M333.034 55.8816C333.034 44.9009 338.027 32.7023 367.651 32.7023H400.197V42.4551H368.99C355.95 42.4551 351.19 47.093 351.19 55.8816C351.068 64.6703 355.95 69.4198 368.99 69.4198H400.197V79.0508H367.651C338.027 79.0508 333.034 66.8522 333.034 55.8715V55.8816Z" fill="#D70010"/>
<path d="M78.851 99.0008C62.4115 98.7264 46.5414 95.9618 31.5354 89.03C22.6294 84.9137 14.6181 79.5472 8.35544 71.8734C4.04478 66.5882 1.10661 60.6627 0.252613 53.8122C-0.764052 45.671 1.33028 38.292 5.77311 31.5127C10.7446 23.9406 17.5969 18.4217 25.3643 13.9801C35.8461 7.99353 47.1921 4.49716 59.0566 2.56603C66.0004 1.42768 73.0052 0.929646 80.0405 1.00079C96.2055 1.18374 111.842 3.95848 126.583 10.8394C135.398 14.9558 143.348 20.3121 149.56 27.9045C155.213 34.816 158.466 42.6726 157.948 51.7795C157.5 59.5243 154.328 66.1715 149.448 72.0665C142.962 79.8927 134.676 85.2796 125.506 89.4163C115.095 94.112 104.156 96.8562 92.82 98.0047C88.184 98.4723 83.5175 98.6654 78.8612 98.9805L78.851 99.0008ZM155.436 40.5789C155.447 40.5077 155.457 40.4366 155.467 40.3654C155.091 40.2536 154.725 40.1317 154.349 40.0199C150.119 38.7494 145.88 37.4891 141.65 36.2084C139.963 35.7002 138.346 34.9786 137.279 33.5048C131.901 26.0649 124.753 20.8813 116.498 17.1004C105.213 11.9269 93.2775 9.72139 80.9454 9.37582C68.8064 9.04041 56.9826 10.7276 45.6569 15.2404C36.8322 18.7571 28.8717 23.5849 22.6803 30.9334C18.0239 36.4625 15.1366 42.7438 15.2383 50.1228C15.3298 56.7394 17.7494 62.5328 21.7246 67.7266C27.1129 74.7701 34.1889 79.6793 42.2511 83.1045C59.8394 90.5749 78.0682 92.1504 96.7545 88.4202C103.038 87.1599 108.995 84.9137 114.333 81.2648C117.972 78.7747 121.083 75.7865 122.69 71.5482C124.743 66.1207 122.923 60.9473 117.871 58.1217C116.193 57.1765 114.353 56.4447 112.503 55.8958C106.291 54.0663 99.8655 53.7818 93.4503 53.7614C80.1727 53.7208 66.895 53.8224 53.6072 53.9037C49.5406 53.924 46.6126 52.2775 44.8842 48.5169C43.7964 46.1589 42.5256 43.8923 41.3564 41.5851C41.2141 41.3107 41.1327 41.0159 40.9701 40.5789H155.436Z" fill="#D70010"/>
</svg>
