<svg width="51" height="66" viewBox="0 0 51 66" fill="none" xmlns="http://www.w3.org/2000/svg">
<path d="M0 59.3624C0.148605 59.9423 0.650421 60.5351 1.33891 60.6836H3.41974L3.52589 60.7255V65.9791H4.82526V60.7255L4.94331 60.6836H7.02597C7.72214 60.5041 8.21316 59.9423 8.3592 59.3624V59.3496H0V59.3624Z" fill="#E82127"/>
<path d="M12.8604 65.994H17.8037C18.4914 65.8572 19.0026 65.2509 19.1459 64.664H11.5182C11.6605 65.2511 12.1792 65.8572 12.8604 65.994Z" fill="#E82127"/>
<path d="M12.8604 63.2991H17.8037C18.4914 63.1634 19.0026 62.557 19.1459 61.9694H11.5182C11.6605 62.5572 12.1792 63.1634 12.8604 63.2991Z" fill="#E82127"/>
<path d="M12.8604 60.6766H17.8037C18.4914 60.5395 19.0026 59.9336 19.1459 59.3463H11.5182C11.6605 59.9336 12.1792 60.5395 12.8604 60.6766Z" fill="#E82127"/>
<path d="M24.1344 60.664H28.7012C29.3897 60.4638 29.9678 59.939 30.1088 59.3573H22.8542V63.2786H28.7918V64.6547L24.1344 64.6583C23.4045 64.862 22.7856 65.3523 22.4768 66L22.8542 65.993H30.0676V61.9749H24.1344V60.664Z" fill="#E82127"/>
<path d="M39.6758 65.9947C40.3242 65.7197 40.6731 65.2439 40.8067 64.6873H35.0387L35.0424 59.3555L33.7494 59.3591V65.9947H39.6758Z" fill="#E82127"/>
<path d="M44.7134 60.6819H49.6583C50.3452 60.5453 50.856 59.9389 51 59.3522H43.3719C43.5145 59.939 44.0328 60.5453 44.7134 60.6819Z" fill="#E82127"/>
<path d="M43.5707 61.9798V65.9921H44.8567V63.3207H49.5372V65.9921H50.8223V61.9868L43.5707 61.9798Z" fill="#E82127"/>
<path d="M25.5026 46.2358L31.9951 9.70175C38.1836 9.70175 40.1356 10.3807 40.4174 13.1521C40.4174 13.1521 44.5688 11.6033 46.6626 8.45788C38.4919 4.66969 30.2823 4.49884 30.2823 4.49884L25.4918 10.3368L25.5026 10.336L20.7121 4.49793C20.7121 4.49793 12.5022 4.66895 4.3326 8.45714C6.4246 11.6026 10.5777 13.1514 10.5777 13.1514C10.8611 10.3798 12.8108 9.70083 18.9577 9.69644L25.5026 46.2358Z" fill="#E82127"/>
<path d="M25.5 2.81258C32.1049 2.76204 39.6649 3.83488 47.404 7.20979C48.4384 5.34701 48.7043 4.52375 48.7043 4.52375C40.2443 1.17484 32.3215 0.0287484 25.4991 0C18.677 0.0287484 10.7546 1.17502 2.29569 4.52375C2.29569 4.52375 2.67306 5.53781 3.59506 7.20979C11.3328 3.83488 18.894 2.76204 25.4991 2.81258H25.5Z" fill="#E82127"/>
</svg>
