<svg width="391" height="145" viewBox="0 0 391 145" fill="none" xmlns="http://www.w3.org/2000/svg">
<g opacity="0.5" clip-path="url(#clip0_1135_72544)">
<path d="M9.50195 114.833L55.6397 126.857L102.879 123.954L315.388 121.329C337.975 117.736 360.424 114.142 383.011 110.549C372.268 81.9429 344.173 64.9448 317.041 68.8143C295.694 71.8546 277.514 87.4707 269.526 108.891C222.424 109.858 175.46 110.964 128.358 111.931C125.879 84.5686 101.502 65.2212 76.7115 68.1233C54.6756 70.749 36.6337 90.6492 36.2205 114.833C27.2684 114.833 18.454 114.833 9.50195 114.833Z" fill="#6C767A" stroke="#416388" stroke-width="0.744" stroke-linejoin="round"/>
<path d="M390.035 90.511C389.76 87.7471 389.346 84.9832 389.071 82.2192C388.933 80.6991 388.107 79.3171 387.005 78.3498L384.388 76.2768C383.975 69.7816 383.975 63.2864 383.149 56.9294C382.598 52.3689 381.496 47.8085 380.67 43.3862C380.394 42.0043 379.568 40.6223 378.604 39.6549C378.742 39.7931 378.742 39.7931 378.604 39.6549C378.191 39.2403 377.64 38.8258 377.089 38.5494L369.652 34.8181L356.017 17.2672L357.532 12.2922L359.185 8.83727C324.616 5.24418 295.005 3.30944 271.867 2.06568C271.867 2.06568 234.544 0.130934 198.047 2.48026C192.4 2.89485 187.993 3.44763 186.34 3.58583C177.526 4.82959 170.227 6.48794 164.993 8.00809C165.682 9.39005 166.37 10.772 167.059 12.0158C156.041 16.438 143.921 22.1041 131.251 29.0139C121.61 34.4035 112.796 39.7931 104.945 45.1828C99.9872 45.321 95.0291 45.321 89.9333 45.4591C85.2506 45.5973 80.568 45.5973 75.8854 45.7355C64.1788 47.3939 51.2327 49.8814 37.3225 53.4745C26.7177 56.2384 16.9393 59.4169 8.12488 62.7336C9.08895 69.367 9.3644 74.8949 9.50213 78.9025C9.50213 81.1137 9.63985 83.3248 8.26261 85.2595C6.33446 88.2999 2.6159 89.129 1.10093 89.4054C0.412307 100.185 2.47818 108.891 4.13087 114.281C17.077 116.354 29.8854 118.427 42.8315 120.638C39.5261 106.265 44.6219 91.3402 55.6399 82.4956C65.0051 75.0331 77.6758 72.6837 88.4183 76.1386C104.67 81.2519 116.101 99.0791 114.448 119.394C168.849 118.703 223.251 118.012 277.652 117.321C274.622 95.7624 290.185 76.2768 310.017 74.3421C330.676 72.2691 350.508 89.82 350.37 112.622C361.113 111.931 371.855 111.379 382.46 110.688C383.837 108.615 385.49 105.989 386.867 102.949C388.52 99.2173 389.484 95.7624 390.035 92.8603C390.173 92.1693 390.173 91.3401 390.035 90.511Z" fill="#EAF5F9" stroke="#416388" stroke-width="1.3165" stroke-linejoin="round"/>
<path d="M8.12457 85.3977C9.50181 83.3248 9.50181 81.1137 9.36409 79.0407C9.22636 75.033 8.95092 69.6434 7.98684 62.8718C5.64553 67.5705 3.16648 73.9275 1.78924 81.9428C1.37606 84.5685 1.10062 87.0561 0.962891 89.5436C2.61559 89.129 6.19642 88.2998 8.12457 85.3977Z" fill="#99A5A9" stroke="#416388" stroke-width="0.744" stroke-linejoin="round"/>
<path d="M130.975 29.1522C143.645 22.1042 155.765 16.5764 166.783 12.1541C166.094 10.7721 165.406 9.39019 164.717 8.14642C152.597 12.5687 139.238 18.2347 125.19 25.2827C111.969 31.9161 100.124 38.9641 89.7949 45.5975C94.753 45.4593 99.7111 45.4593 104.807 45.3211C112.657 39.9314 121.334 34.5418 130.975 29.1522Z" fill="#99A5A9" stroke="#416388" stroke-width="0.744" stroke-linejoin="round"/>
<path d="M369.514 34.8182L376.951 38.5495C377.502 38.8259 378.053 39.2405 378.466 39.6551C374.747 33.989 370.34 27.4938 365.244 21.4132C362.627 18.0965 359.873 15.1944 357.394 12.2923L355.879 17.2673L369.514 34.8182Z" fill="#99A5A9" stroke="#416388" stroke-width="0.744" stroke-linejoin="round"/>
<path d="M105.908 51.4015L311.256 36.4764C315.8 36.2 319.932 34.2652 323.238 30.9485L332.741 21.413C334.531 19.6165 333.567 16.438 330.95 16.0234C304.094 11.7393 281.232 9.80457 263.465 8.8372C197.77 5.3823 174.495 14.5032 168.16 17.1289C162.513 19.4783 151.082 24.7297 138.687 31.5013C124.914 38.9639 113.621 46.0119 105.908 51.4015Z" stroke="#416388" stroke-width="0.744" stroke-linejoin="round"/>
<path d="M212.784 11.4629C197.084 12.4303 180.832 14.7796 169.263 19.6164C163.341 22.104 152.185 27.2172 140.066 33.8506C131.802 38.2729 123.676 43.1097 115.826 48.0848L207.138 41.4514C208.653 32.8832 211.407 18.7873 212.784 11.4629Z" fill="#99A5A9" stroke="#416388" stroke-width="0.744" stroke-linejoin="round"/>
<path d="M331.089 18.9255C331.089 18.7873 330.951 18.6491 330.676 18.5109C315.664 16.1616 300.376 14.2268 285.227 12.8449L296.658 34.6798L311.119 33.5742C314.975 33.2978 318.694 31.6395 321.31 28.8756L330.813 19.3401C331.089 19.3401 331.089 19.2019 331.089 18.9255Z" fill="#99A5A9" stroke="#416388" stroke-width="0.744" stroke-linejoin="round"/>
<path d="M277.651 12.4303C272.831 12.0157 268.148 11.7393 263.328 11.4629C253.687 10.9101 244.459 10.7719 235.92 10.7719C232.615 10.7719 229.034 10.7719 225.453 10.9101L224.627 40.0694L287.567 35.509L277.651 12.4303Z" fill="#99A5A9" stroke="#416388" stroke-width="0.744" stroke-linejoin="round"/>
<path d="M131.388 45.0444L136.07 48.2229C134.142 49.743 132.214 51.4014 130.286 52.9215C130.148 52.9215 128.771 53.1979 127.669 52.2306C126.843 51.4014 126.705 50.2958 126.705 50.1576L131.388 45.0444Z" fill="#D2DBDD" stroke="#416388" stroke-width="0.744" stroke-miterlimit="10"/>
<path d="M143.37 38.1347C142.13 37.9965 140.616 37.9966 139.376 37.9966C135.933 38.1347 132.077 38.1347 130.699 40.3459C129.598 42.0042 130.424 44.2154 131.388 45.4591C133.454 48.0848 137.861 48.914 141.029 47.6703C141.58 44.63 142.406 41.3132 143.37 38.1347Z" fill="#99A5A9" stroke="#416388" stroke-width="0.744" stroke-linejoin="round"/>
<path d="M218.843 8.42252L215.813 43.386C215.125 45.8736 214.298 49.4667 213.472 53.8889C213.472 53.8889 212.095 61.4897 211.544 70.4724C210.58 88.5761 213.472 116.768 213.61 118.012" stroke="#416388" stroke-width="0.744" stroke-linejoin="round"/>
<path d="M122.848 50.1577C122.297 51.8161 121.471 54.3036 120.783 57.2057C119.405 63.0099 118.166 71.0253 118.854 85.5358C119.268 94.104 120.507 105.574 123.675 119.256" stroke="#416388" stroke-width="0.744" stroke-linejoin="round"/>
<path d="M42.9688 58.0348C48.8909 56.9292 54.9508 55.8237 61.2861 54.8563C77.5376 52.507 92.825 51.4014 106.735 51.2632" stroke="#416388" stroke-width="0.744" stroke-linejoin="round"/>
<path d="M43.2443 58.173C43.1066 58.173 43.1066 58.173 42.9689 58.173C38.424 58.864 33.0527 59.9696 27.1306 62.1807C21.6216 64.1154 17.0767 66.4648 13.2204 68.6759C12.5317 69.0905 12.8072 70.196 13.6335 70.196C17.2144 70.0578 20.9329 69.9197 24.7892 69.5051C37.5976 68.2613 49.0288 65.7738 58.8072 62.8717C59.6335 62.5953 59.4958 61.4897 58.6695 61.3515C53.7114 60.2459 48.4779 59.2786 43.2443 58.173Z" fill="white" stroke="#416388" stroke-width="0.744" stroke-linejoin="round"/>
<path d="M350.784 48.4994L379.017 57.2058C379.568 54.9946 379.981 52.2307 379.981 48.914C379.981 46.4265 379.844 44.0772 379.568 42.0042L343.209 40.7605L350.784 48.4994Z" fill="#99A5A9" stroke="#416388" stroke-width="0.744" stroke-linejoin="round"/>
<path d="M338.389 6.76447C341.143 9.80477 343.76 13.1215 346.377 16.5764C361.664 36.3384 371.718 56.3767 378.466 74.4804C380.395 75.0332 382.323 75.7242 384.389 76.2769" stroke="#416388" stroke-width="0.744" stroke-linejoin="round"/>
<path d="M12.5315 95.7624L25.0645 92.7221C27.1303 92.1693 29.1962 93.413 29.7471 95.486L30.7112 98.6645C31.3998 101.152 29.7471 103.778 27.2681 103.916L14.1842 105.021C12.3938 105.16 10.6034 104.054 10.0525 102.258C9.91476 101.843 9.77704 101.428 9.63931 101.014C8.95069 98.8027 10.3279 96.3151 12.5315 95.7624Z" fill="#99A5A9" stroke="#416388" stroke-width="0.744" stroke-linejoin="round"/>
<path d="M27.6823 98.25C27.6823 96.0389 26.856 94.2423 26.0296 94.2423C25.0656 94.2423 24.377 96.0389 24.377 98.25C24.377 100.461 25.2033 102.258 26.0296 102.258C26.9937 102.258 27.6823 100.461 27.6823 98.25Z" fill="white" stroke="#416388" stroke-width="0.744" stroke-linejoin="round"/>
<path d="M283.436 10.2194L285.226 12.9833" stroke="#416388" stroke-width="0.744" stroke-linejoin="round"/>
<path d="M3.16602 111.102L38.5612 109.582C39.5253 89.129 55.5013 72.6837 75.0582 71.1636C95.8546 69.5052 114.861 85.1214 117.615 106.542C170.501 103.64 223.25 100.737 276.136 97.8354C281.094 83.7394 293.076 73.2365 307.262 70.8872C324.064 67.9851 341.28 76.8296 349.681 92.7221C363.04 91.4784 376.4 90.3728 389.897 89.129" stroke="#416388" stroke-width="0.744" stroke-linejoin="round"/>
<path d="M59.4961 61.9043C127.67 61.9043 176.7 59.2786 209.616 56.9292C220.221 56.1001 243.909 54.3035 277.927 52.2306C308.778 50.434 333.981 49.1903 350.784 48.4993" stroke="#416388" stroke-width="0.744" stroke-linejoin="round"/>
<path d="M195.052 62.0444C200.224 61.9585 204.404 61.1464 204.389 60.2306C204.374 59.3148 200.169 58.6421 194.997 58.7281C189.825 58.814 185.645 59.6261 185.66 60.5419C185.675 61.4577 189.88 62.1304 195.052 62.0444Z" stroke="#416388" stroke-width="0.744" stroke-linejoin="round"/>
<path d="M301.34 53.8891C301.34 53.06 297.07 52.369 291.975 52.5072C286.741 52.6454 282.609 53.3363 282.609 54.3037C282.609 55.1329 286.879 55.8239 291.975 55.6857C297.208 55.5475 301.34 54.8565 301.34 53.8891Z" stroke="#416388" stroke-width="0.744" stroke-linejoin="round"/>
<path d="M17.2148 66.4649L8.125 62.8718" stroke="#416388" stroke-width="0.744" stroke-linejoin="round"/>
<path d="M77.2622 143.44C93.844 143.44 107.286 130.261 107.286 114.004C107.286 97.7474 93.844 84.5686 77.2622 84.5686C60.6805 84.5686 47.2383 97.7474 47.2383 114.004C47.2383 130.261 60.6805 143.44 77.2622 143.44Z" fill="#99A5A9" stroke="#416388" stroke-width="1.3165" stroke-linejoin="round"/>
<path d="M77.2627 136.392C89.8891 136.392 100.125 126.369 100.125 114.004C100.125 101.64 89.8891 91.6165 77.2627 91.6165C64.6362 91.6165 54.4004 101.64 54.4004 114.004C54.4004 126.369 64.6362 136.392 77.2627 136.392Z" fill="white" stroke="#416388" stroke-width="0.744" stroke-miterlimit="10"/>
<path d="M79.6026 113.866C79.6026 115.11 78.5008 116.215 77.2612 116.215C75.884 116.215 74.9199 115.11 74.9199 113.866C74.9199 112.622 76.0217 111.517 77.2612 111.517C78.5008 111.517 79.6026 112.484 79.6026 113.866Z" stroke="#416388" stroke-width="0.744" stroke-miterlimit="10"/>
<path d="M77.263 134.181C77.9516 134.181 78.9157 134.181 79.8798 134.043C80.1552 134.043 80.5684 133.905 80.8438 133.905C81.257 133.766 81.5325 133.628 81.8079 133.352L83.0474 131.694C83.5983 131.141 83.4606 130.173 83.0474 129.621L78.6402 124.093C77.9516 123.264 76.7121 123.264 76.0235 124.093L71.6163 129.621C71.0654 130.173 71.0654 131.141 71.6163 131.694L72.8558 133.352C73.1313 133.628 73.4067 133.905 73.8199 133.905C74.0953 134.043 74.3708 134.043 74.784 134.043C75.6103 134.181 76.4367 134.319 77.263 134.181Z" fill="#D2DBDD" stroke="#416388" stroke-width="0.744" stroke-miterlimit="10"/>
<path d="M96.4051 120.223C96.6806 119.532 96.8183 118.703 97.0937 117.736C97.0937 117.459 97.2315 117.045 97.2315 116.768C97.2315 116.354 97.2315 115.939 96.956 115.663L95.8542 114.004C95.441 113.313 94.6147 113.037 93.9261 113.313L87.3153 115.801C86.3512 116.216 85.938 117.459 86.4889 118.289L90.3452 124.231C90.7584 124.922 91.5847 125.198 92.2734 124.922L94.2015 124.231C94.6147 124.093 94.8901 123.816 95.0279 123.54C95.1656 123.264 95.3033 122.987 95.441 122.711C95.8542 121.743 96.2674 120.914 96.4051 120.223Z" fill="#D2DBDD" stroke="#416388" stroke-width="0.744" stroke-miterlimit="10"/>
<path d="M89.3814 97.8355C88.8305 97.4209 88.1419 96.8681 87.1778 96.4535C86.9024 96.3153 86.6269 96.1771 86.3515 96.039C85.9383 95.9008 85.6629 95.9008 85.2497 95.9008L83.3216 96.4535C82.6329 96.5917 82.082 97.2827 82.082 98.1119L82.2198 105.16C82.2198 106.265 83.3216 106.956 84.2856 106.68L91.0341 104.883C91.7228 104.745 92.2737 104.054 92.2737 103.225V101.152C92.2737 100.738 92.1359 100.461 91.8605 100.047C91.7227 99.7702 91.4473 99.632 91.1719 99.3557C90.621 98.8029 90.0701 98.2501 89.3814 97.8355Z" fill="#D2DBDD" stroke="#416388" stroke-width="0.744" stroke-miterlimit="10"/>
<path d="M65.1432 97.8355C64.5923 98.2501 63.9037 98.8029 63.2151 99.4939C62.9396 99.7702 62.8019 99.9084 62.5265 100.185C62.251 100.461 62.1133 100.876 62.1133 101.29V103.363C62.1133 104.193 62.6642 104.883 63.3528 105.022L70.1013 106.818C71.2031 107.095 72.1672 106.265 72.1672 105.298L72.3049 98.2501C72.3049 97.4209 71.754 96.7299 71.0654 96.5917L69.1372 96.039C68.7241 95.9008 68.3109 96.039 68.0354 96.1772C67.76 96.3154 67.4845 96.4536 67.2091 96.5917C66.3827 96.8681 65.6941 97.4209 65.1432 97.8355Z" fill="#D2DBDD" stroke="#416388" stroke-width="0.744" stroke-miterlimit="10"/>
<path d="M57.9816 120.223C58.257 120.914 58.5325 121.743 58.9457 122.573C59.0834 122.849 59.2211 123.125 59.3588 123.402C59.4966 123.678 59.9097 123.955 60.1852 124.093L62.1133 124.784C62.802 125.06 63.6283 124.784 64.0415 124.093L67.8978 118.15C68.4487 117.183 68.0355 116.077 67.0714 115.663L60.5984 113.313C59.9097 113.037 59.0834 113.313 58.6702 114.004L57.5684 115.663C57.293 115.939 57.293 116.354 57.293 116.768C57.293 117.045 57.293 117.459 57.4307 117.736C57.4307 118.703 57.7061 119.532 57.9816 120.223Z" fill="#D2DBDD" stroke="#416388" stroke-width="0.744" stroke-miterlimit="10"/>
<path d="M313.598 143.44C330.18 143.44 343.622 130.261 343.622 114.004C343.622 97.7474 330.18 84.5686 313.598 84.5686C297.016 84.5686 283.574 97.7474 283.574 114.004C283.574 130.261 297.016 143.44 313.598 143.44Z" fill="#99A5A9" stroke="#416388" stroke-width="1.3165" stroke-linejoin="round"/>
<path d="M313.599 136.392C326.225 136.392 336.461 126.369 336.461 114.004C336.461 101.64 326.225 91.6165 313.599 91.6165C300.972 91.6165 290.736 101.64 290.736 114.004C290.736 126.369 300.972 136.392 313.599 136.392Z" fill="white" stroke="#416388" stroke-width="0.744" stroke-miterlimit="10"/>
<path d="M315.938 113.866C315.938 115.11 314.837 116.215 313.597 116.215C312.358 116.215 311.256 115.11 311.256 113.866C311.256 112.622 312.358 111.517 313.597 111.517C314.837 111.517 315.938 112.484 315.938 113.866Z" stroke="#416388" stroke-width="0.744" stroke-miterlimit="10"/>
<path d="M313.599 134.181C314.288 134.181 315.252 134.181 316.216 134.043C316.491 134.043 316.904 133.905 317.18 133.905C317.593 133.766 317.868 133.628 318.144 133.352L319.383 131.694C319.934 131.141 319.797 130.173 319.383 129.621L314.976 124.093C314.288 123.264 313.048 123.264 312.359 124.093L307.952 129.621C307.401 130.173 307.401 131.141 307.952 131.694L309.192 133.352C309.467 133.628 309.743 133.905 310.156 133.905C310.431 134.043 310.707 134.043 311.12 134.043C311.946 134.181 312.91 134.319 313.599 134.181Z" fill="#D2DBDD" stroke="#416388" stroke-width="0.744" stroke-miterlimit="10"/>
<path d="M332.741 120.223C333.017 119.532 333.154 118.703 333.43 117.736C333.43 117.459 333.567 117.045 333.567 116.768C333.567 116.354 333.567 115.939 333.292 115.663L332.19 114.004C331.777 113.313 330.951 113.037 330.262 113.313L323.651 115.801C322.687 116.216 322.274 117.459 322.825 118.289L326.681 124.231C327.094 124.922 327.921 125.198 328.609 124.922L330.537 124.231C330.951 124.093 331.226 123.816 331.364 123.54C331.502 123.264 331.639 122.987 331.777 122.711C332.328 121.743 332.603 120.914 332.741 120.223Z" fill="#D2DBDD" stroke="#416388" stroke-width="0.744" stroke-miterlimit="10"/>
<path d="M325.856 97.8355C325.305 97.4209 324.617 96.8681 323.652 96.4535C323.377 96.3153 323.102 96.1771 322.826 96.039C322.413 95.9008 322.137 95.9008 321.724 95.9008L319.796 96.4535C319.108 96.5917 318.557 97.2827 318.557 98.1119L318.694 105.16C318.694 106.265 319.796 106.956 320.76 106.68L327.509 104.883C328.197 104.745 328.748 104.054 328.748 103.225V101.152C328.748 100.738 328.611 100.461 328.335 100.047C328.197 99.7702 327.922 99.632 327.646 99.3557C327.096 98.8029 326.407 98.2501 325.856 97.8355Z" fill="#D2DBDD" stroke="#416388" stroke-width="0.744" stroke-miterlimit="10"/>
<path d="M301.479 97.8355C300.928 98.2501 300.24 98.8029 299.551 99.4939C299.276 99.7702 299.138 99.9084 298.862 100.185C298.587 100.461 298.449 100.876 298.449 101.29V103.363C298.449 104.193 299 104.883 299.689 105.022L306.437 106.818C307.539 107.095 308.503 106.265 308.503 105.298L308.641 98.2501C308.641 97.4209 308.09 96.7299 307.401 96.5917L305.473 96.039C305.06 95.9008 304.647 96.039 304.371 96.1772C304.096 96.3154 303.82 96.4536 303.545 96.5917C302.719 96.8681 302.03 97.4209 301.479 97.8355Z" fill="#D2DBDD" stroke="#416388" stroke-width="0.744" stroke-miterlimit="10"/>
<path d="M294.317 120.223C294.454 120.914 294.867 121.743 295.281 122.572C295.418 122.849 295.556 123.125 295.694 123.402C295.832 123.678 296.245 123.954 296.52 124.093L298.448 124.783C299.137 125.06 299.963 124.783 300.376 124.093L304.233 118.15C304.784 117.183 304.37 116.077 303.406 115.663L296.796 113.175C296.107 112.899 295.281 113.175 294.867 113.866L293.766 115.524C293.49 115.801 293.49 116.215 293.49 116.63C293.49 116.906 293.49 117.321 293.628 117.597C293.903 118.703 294.041 119.532 294.317 120.223Z" fill="#D2DBDD" stroke="#416388" stroke-width="0.744" stroke-miterlimit="10"/>
<path d="M296.656 34.8181L298.309 37.3057C299.411 38.8258 300.926 41.3133 302.028 44.4919C302.854 46.9794 303.405 49.8815 303.267 57.4823C303.129 61.3517 302.854 66.3268 302.165 72.2692" stroke="#416388" stroke-width="0.744" stroke-linejoin="round"/>
<path d="M36.2207 68.1232L51.3704 80.2844" stroke="#416388" stroke-width="0.744" stroke-linejoin="round"/>
</g>
<defs>
<clipPath id="clip0_1135_72544">
<rect width="391" height="144" fill="white" transform="translate(0 0.407227)"/>
</clipPath>
</defs>
</svg>
