<svg width="187" height="145" viewBox="0 0 187 145" fill="none" xmlns="http://www.w3.org/2000/svg">
<g opacity="0.5" clip-path="url(#clip0_1135_72626)">
<path d="M156.865 104.997H32.8652V120.706H156.865V104.997Z" fill="#6C767A" stroke="#416388" stroke-width="0.744" stroke-linejoin="round"/>
<path d="M12.1523 75.7834V77.0236V137.38C12.1523 140.825 14.776 143.581 17.8138 143.581H31.6223C34.7982 143.581 37.2837 140.825 37.2837 137.38V112.025L12.1523 75.7834Z" fill="#99A5A9" stroke="#416388" stroke-width="1.3165" stroke-linejoin="round"/>
<path d="M175.231 75.7834V77.0236V137.38C175.231 140.825 172.607 143.58 169.57 143.58H155.761C152.585 143.58 150.1 140.825 150.1 137.38V112.025L175.231 75.7834Z" fill="#99A5A9" stroke="#416388" stroke-width="1.3165" stroke-linejoin="round"/>
<path d="M10.9102 48.3611C11.0482 48.7745 15.4669 57.5937 15.4669 57.5937L19.4714 51.8061L16.5716 46.7076L10.9102 48.3611Z" fill="white" stroke="#416388" stroke-width="0.744" stroke-miterlimit="10"/>
<path d="M18.3666 42.8492C18.3666 39.8177 14.5003 37.3373 9.80539 37.3373C5.11051 37.3373 1.24414 39.8177 1.24414 42.8492C1.24414 45.8808 5.11051 48.3612 9.80539 48.3612C14.5003 48.3612 18.3666 45.8808 18.3666 42.8492Z" fill="#99A5A9" stroke="#416388" stroke-width="0.744" stroke-linejoin="round"/>
<path d="M9.8058 46.4322C6.07751 46.4322 3.17773 44.503 3.17773 42.8494C3.17773 41.1958 5.93943 39.2666 9.8058 39.2666C13.5341 39.2666 16.4339 41.1958 16.4339 42.8494C16.4339 44.503 13.5341 46.4322 9.8058 46.4322Z" fill="#D2DBDD" stroke="#416388" stroke-width="0.744" stroke-miterlimit="10"/>
<path d="M176.473 48.3611C176.335 48.7745 171.917 57.5937 171.917 57.5937L167.912 51.8061L170.812 46.7076L176.473 48.3611Z" fill="white" stroke="#416388" stroke-width="0.744" stroke-miterlimit="10"/>
<path d="M169.018 42.8492C169.018 39.8177 172.884 37.3373 177.579 37.3373C182.274 37.3373 186.14 39.8177 186.14 42.8492C186.14 45.8808 182.274 48.3612 177.579 48.3612C172.746 48.3612 169.018 45.8808 169.018 42.8492Z" fill="#99A5A9" stroke="#416388" stroke-width="0.744" stroke-linejoin="round"/>
<path d="M177.577 46.4322C181.306 46.4322 184.205 44.503 184.205 42.8494C184.205 41.1958 181.444 39.2666 177.577 39.2666C173.849 39.2666 170.949 41.1958 170.949 42.8494C170.949 44.503 173.711 46.4322 177.577 46.4322Z" fill="#D2DBDD" stroke="#416388" stroke-width="0.744" stroke-miterlimit="10"/>
<path d="M174.402 57.8695C173.988 55.3891 173.573 53.1843 173.159 50.9795C172.054 48.7748 170.535 45.881 168.188 43.125C166.669 41.1958 163.217 38.0264 163.079 37.8886C159.351 33.3413 157.003 29.2073 155.622 26.1757C152.032 18.5968 152.308 15.014 152.446 13.9116C152.723 11.8446 153.965 8.95083 154.103 9.08863C154.241 8.95083 154.241 8.81304 154.38 8.53744C153.275 7.71064 152.17 6.74605 151.065 5.91926C148.718 3.99007 145.68 2.88768 142.642 2.74988C138.914 2.61208 135.186 2.33648 131.319 2.19868C118.478 1.64749 105.912 1.37189 93.6223 1.37189C81.3328 1.50969 68.767 1.78528 55.9252 2.19868C52.1969 2.33648 48.3305 2.47428 44.6022 2.74988C41.5644 2.88768 38.5265 3.99007 36.1791 5.91926C35.2125 6.88385 34.1078 7.71064 33.0031 8.67524C33.1412 8.81304 34.5221 11.9824 34.9363 13.9116C35.0744 15.014 35.4886 18.5968 31.7604 26.1757C30.3795 29.2073 28.0321 33.3413 24.3038 37.8886C24.1657 38.0264 20.7136 41.1958 19.1947 43.125C16.8472 46.0188 15.3283 48.7748 14.2236 50.9795C13.8094 53.0465 13.3951 55.3891 12.9809 57.8695C12.5666 60.4877 12.2904 62.8303 12.1523 65.1728C12.1523 73.5786 12.7047 82.9489 14.0855 93.1461C14.6379 97.6934 15.4664 102.103 16.2949 106.237C16.9853 109.682 20.0232 112.3 23.6134 112.3H93.7604H163.907C167.498 112.3 170.535 109.82 171.226 106.237C172.054 102.103 172.745 97.6934 173.435 93.1461C174.816 82.9489 175.23 73.5786 175.368 65.1728C175.092 62.8303 174.816 60.4877 174.402 57.8695Z" fill="#EAF5F9" stroke="#416388" stroke-width="1.3165" stroke-linejoin="round"/>
<path d="M13.9473 51.8062C14.2234 53.1842 14.6377 55.389 15.0519 58.0071C15.7424 62.6923 15.6043 63.7947 16.0185 66.8263C16.847 72.8894 17.5375 77.4368 20.8515 80.055C22.5085 81.433 24.3036 81.7086 27.8938 82.2598C31.8983 82.9488 35.2123 82.6732 37.5597 82.3976C38.3882 84.7402 39.2168 87.2205 40.0453 89.5631" stroke="#416388" stroke-width="0.744" stroke-linejoin="round"/>
<path d="M39.7695 112.438L41.7027 110.509C48.1927 104.032 57.0301 100.312 66.2818 100.312H93.7606" stroke="#416388" stroke-width="0.744" stroke-linejoin="round"/>
<path d="M41.5642 97.1423L35.0743 101.69C34.1077 102.379 33.003 102.654 31.8983 102.654H19.4707C20.9896 101.139 23.6132 99.0715 27.4796 97.6935C33.6934 95.2132 39.3549 96.4533 41.5642 97.1423Z" fill="#99A5A9" stroke="#416388" stroke-width="0.744" stroke-linejoin="round"/>
<path d="M23.0614 40.3689L48.7452 44.9163L41.2886 58.0072C32.3131 58.834 24.7185 54.7 22.7853 48.6369C21.6806 45.4675 22.371 42.4359 23.0614 40.3689Z" fill="#99A5A9" stroke="#416388" stroke-width="0.744" stroke-linejoin="round"/>
<path d="M164.184 40.369L138.5 44.9163L145.957 58.0072C154.932 58.834 162.527 54.7001 164.46 48.6369C165.703 45.4675 165.012 42.4359 164.184 40.369Z" fill="#99A5A9" stroke="#416388" stroke-width="0.744" stroke-linejoin="round"/>
<path d="M151.895 57.7318C151.895 61.1768 151.757 65.7242 151.481 69.5826C151.066 74.2677 150.514 78.5395 149.824 82.5357C131.044 82.5357 112.403 82.5357 93.6233 82.5357C74.8438 82.5357 56.2023 82.5357 37.4228 82.5357C36.7324 78.5395 36.1801 74.2677 35.7658 69.5826C35.4896 65.7242 35.3516 61.1768 35.3516 57.7318" stroke="#416388" stroke-width="0.744" stroke-linejoin="round"/>
<path d="M173.021 95.4885L154.379 91.2167C149.822 90.2521 145.266 89.7009 140.571 89.7009H93.6219H46.6731C41.9783 89.7009 37.4215 90.2521 32.8647 91.2167L14.3613 95.4885" stroke="#416388" stroke-width="0.744" stroke-linejoin="round"/>
<path d="M93.6219 10.7422H108.121V8.95084H93.6219H79.123V10.7422H93.6219Z" stroke="#416388" stroke-width="0.744" stroke-linejoin="round"/>
<path d="M144.714 12.6714C144.438 11.9824 144.023 10.7422 142.919 9.63983C141.814 8.26184 140.019 7.57285 138.224 7.57285H93.6226H49.0212C47.2261 7.57285 45.5691 8.26184 44.3264 9.63983C43.3598 10.7422 42.8074 11.9824 42.5312 12.6714" stroke="#416388" stroke-width="0.744" stroke-linejoin="round"/>
<path d="M138.639 44.7786H93.6236H48.7461" stroke="#416388" stroke-width="0.744" stroke-linejoin="round"/>
<path d="M173.297 51.8062C173.021 53.1842 172.607 55.389 172.193 58.0071C171.502 62.6923 171.64 63.7947 171.226 66.8263C170.397 72.8894 169.707 77.4368 166.393 80.055C164.736 81.433 162.941 81.7086 159.351 82.2598C155.346 82.9488 152.032 82.6732 149.685 82.3976C148.856 84.7402 148.028 87.2205 147.199 89.5631" stroke="#416388" stroke-width="0.744" stroke-linejoin="round"/>
<path d="M147.614 112.438L145.681 110.509C139.191 104.032 130.354 100.312 121.102 100.312H93.623" stroke="#416388" stroke-width="0.744" stroke-linejoin="round"/>
<path d="M145.818 97.1423L152.308 101.69C153.275 102.379 154.38 102.654 155.484 102.654H167.912C166.393 101.139 163.769 99.0715 159.903 97.6935C153.551 95.2132 148.028 96.4533 145.818 97.1423Z" fill="#99A5A9" stroke="#416388" stroke-width="0.744" stroke-linejoin="round"/>
<path d="M155.622 26.1754C157.002 29.207 159.35 33.341 163.078 37.8884C163.216 38.0262 163.492 38.164 163.631 38.4396C162.25 33.0654 160.593 27.4156 158.521 21.4903C157.141 17.2185 155.622 13.0845 154.103 9.22617C153.55 10.3286 152.86 11.9821 152.446 14.0491C152.308 15.0137 151.893 18.5965 155.622 26.1754Z" fill="#99A5A9" stroke="#416388" stroke-width="0.744" stroke-linejoin="round"/>
<path d="M93.6222 42.2981H123.034C129.8 42.2981 136.428 40.2311 142.09 36.5105C142.09 36.5105 142.228 36.5105 142.228 36.3727C145.818 33.8923 147.889 29.7584 147.475 25.3488C147.337 23.9708 147.199 22.5928 146.923 21.077C146.37 17.7698 145.404 14.8761 144.575 12.5335H93.6222H42.6689C41.8404 14.8761 40.8738 17.7698 40.3215 21.077C40.0453 22.5928 39.9072 23.9708 39.7692 25.3488C39.3549 29.7584 41.4262 33.8923 45.0164 36.3727C45.0164 36.3727 45.1545 36.3727 45.1545 36.5105C50.8159 40.2311 57.444 42.2981 64.2101 42.2981H93.6222Z" fill="#99A5A9" stroke="#416388" stroke-width="0.744" stroke-linejoin="round"/>
<path d="M31.7609 26.1756C35.3511 18.5966 35.0749 15.0139 34.9368 13.9115C34.6606 11.8445 33.9702 10.3287 33.2798 9.0885C31.7609 12.9469 30.2419 17.0808 28.8611 21.3526C26.9279 27.278 25.1328 32.9277 23.752 38.3019C23.89 38.1641 24.1662 38.0263 24.3043 37.7507C28.0326 33.3411 30.2419 29.2072 31.7609 26.1756Z" fill="#99A5A9" stroke="#416388" stroke-width="0.744" stroke-linejoin="round"/>
<path d="M93.6223 53.4598H126.072L121.792 62.279C119.997 65.8618 116.959 68.0665 113.645 68.0665H93.6223H73.7382C70.4241 68.0665 67.3863 65.8618 65.5912 62.279L61.3105 53.4598H93.6223Z" stroke="#416388" stroke-width="0.744" stroke-linejoin="round"/>
<path d="M49.0209 7.43518C48.8828 6.74618 48.6066 5.64379 47.9162 4.4036C47.3639 3.57681 46.6734 2.88781 46.1211 2.61221" fill="#D2DBDD"/>
<path d="M49.0209 7.43518C48.8828 6.74618 48.6066 5.64379 47.9162 4.4036C47.3639 3.57681 46.6734 2.88781 46.1211 2.61221" stroke="#416388" stroke-width="0.744" stroke-linejoin="round"/>
<path d="M139.191 7.43518C139.329 6.74618 139.606 5.64379 140.296 4.4036C140.848 3.57681 141.539 2.88781 142.091 2.61221" fill="#D2DBDD"/>
<path d="M139.191 7.43518C139.329 6.74618 139.606 5.64379 140.296 4.4036C140.848 3.57681 141.539 2.88781 142.091 2.61221" stroke="#416388" stroke-width="0.744" stroke-linejoin="round"/>
<path d="M65.0391 105.961H56.4779C53.44 105.961 50.8164 108.442 50.8164 111.611V112.576C50.8164 115.607 53.3019 118.226 56.4779 118.226H65.0391C68.077 118.226 70.7006 115.745 70.7006 112.576V111.611C70.5625 108.442 68.077 105.961 65.0391 105.961Z" fill="#99A5A9" stroke="#416388" stroke-width="0.744" stroke-linejoin="round"/>
<path d="M64.0734 112.025C64.0734 110.233 62.5544 108.717 60.7593 108.717C58.9642 108.717 57.4453 110.233 57.4453 112.025C57.4453 113.816 58.9642 115.332 60.7593 115.332C62.5544 115.194 64.0734 113.816 64.0734 112.025Z" fill="#576164" stroke="#416388" stroke-width="0.744" stroke-linejoin="round"/>
<path d="M130.906 105.961H122.345C119.307 105.961 116.684 108.442 116.684 111.611V112.576C116.684 115.607 119.169 118.226 122.345 118.226H130.906C133.944 118.226 136.568 115.745 136.568 112.576V111.611C136.43 108.442 133.944 105.961 130.906 105.961Z" fill="#99A5A9" stroke="#416388" stroke-width="0.744" stroke-linejoin="round"/>
<path d="M129.941 112.025C129.941 110.233 128.422 108.717 126.627 108.717C124.831 108.717 123.312 110.233 123.312 112.025C123.312 113.816 124.831 115.332 126.627 115.332C128.422 115.194 129.941 113.816 129.941 112.025Z" fill="#576164" stroke="#416388" stroke-width="0.744" stroke-linejoin="round"/>
</g>
<defs>
<clipPath id="clip0_1135_72626">
<rect width="186" height="144" fill="white" transform="translate(0.691406 0.407227)"/>
</clipPath>
</defs>
</svg>
