<svg width="188" height="143" viewBox="0 0 188 143" fill="none" xmlns="http://www.w3.org/2000/svg">
<g opacity="0.5" clip-path="url(#clip0_1135_72594)">
<path d="M158.152 108.526H30.6895V120.508H158.152V108.526Z" fill="#6C767A" stroke="#416388" stroke-width="0.744" stroke-linejoin="round"/>
<path d="M132.576 111.693H56.2637V123.538H132.576V111.693Z" fill="#6C767A" stroke="#416388" stroke-width="0.744" stroke-linejoin="round"/>
<path d="M13.2266 73.9554V75.195V135.383C13.2266 138.826 15.8391 141.581 18.8641 141.581H32.6141C35.7766 141.581 38.2516 138.826 38.2516 135.383V113.897L13.2266 73.9554Z" fill="#99A5A9" stroke="#416388" stroke-width="1.3165" stroke-linejoin="round"/>
<path d="M175.615 73.9554V75.195V135.383C175.615 138.826 173.002 141.581 169.977 141.581H156.227C153.065 141.581 150.59 138.826 150.59 135.383V113.897L175.615 73.9554Z" fill="#99A5A9" stroke="#416388" stroke-width="1.3165" stroke-linejoin="round"/>
<path d="M94.4887 116.239C109.339 116.101 124.326 116.101 139.176 115.963C139.864 115.963 140.689 116.101 141.376 116.376L143.439 117.065C144.539 117.478 145.639 117.616 146.739 117.616H167.364C169.426 117.616 171.214 116.101 171.489 114.035C172.039 110.454 172.589 106.873 173.001 103.292C174.789 89.1056 175.751 75.6081 176.026 62.9369L172.039 52.6071C169.564 47.6488 167.089 42.5528 164.614 37.5945C162.826 31.3966 161.176 26.1629 159.939 21.6178C159.939 21.6178 159.251 19.4141 156.914 13.0785C156.501 12.1144 155.814 10.3239 154.439 8.25792C153.889 7.43153 153.201 6.46742 152.376 5.50331C150.589 3.85055 148.251 2.88643 145.776 2.7487C138.764 2.33551 131.751 2.06005 124.601 1.92232C114.289 1.50913 104.251 1.3714 94.4887 1.3714C84.7262 1.3714 74.5512 1.64686 64.3762 1.92232C57.2262 2.19778 50.0762 2.47324 43.2012 2.7487C40.7262 2.88643 38.3887 3.85055 36.6012 5.50331C35.6387 6.32969 34.9512 7.43153 34.5387 8.25792C33.1637 10.3239 32.4762 12.1144 32.0637 13.0785C29.7262 19.2763 29.0387 21.6178 29.0387 21.6178C27.6637 26.1629 26.1512 31.3966 24.3637 37.5945C21.8887 42.5528 19.4137 47.6488 16.9387 52.6071L12.9512 62.9369C13.2262 75.6081 14.1887 89.1056 15.9762 103.292C16.3887 107.011 16.9387 110.592 17.4887 114.035C17.7637 116.101 19.5512 117.616 21.6137 117.616H42.2387C43.3387 117.616 44.4387 117.478 45.5387 117.065L47.6012 116.376C48.2887 116.101 48.9762 115.963 49.8012 115.963C64.6512 116.101 79.5012 116.239 94.4887 116.239Z" fill="#EAF5F9" stroke="#416388" stroke-width="1.3165" stroke-linejoin="round"/>
<path d="M94.6275 41.7263C107.14 41.864 119.927 42.1395 132.99 42.6904C139.727 42.9659 146.465 43.2413 153.065 43.6545C156.365 43.7923 158.84 40.7622 158.015 37.7321C156.915 33.4625 155.54 28.7797 153.752 23.9591C152.377 20.1026 150.865 16.3839 149.352 13.0784C148.527 11.2879 147.015 10.0483 145.227 10.0483C139.315 9.77286 133.402 9.63513 127.352 9.4974C116.215 9.22194 105.352 8.67102 94.6275 8.67102C83.9025 8.67102 73.04 9.22194 61.9025 9.4974C55.8525 9.63513 49.94 9.77286 44.0275 10.0483C42.24 10.1861 40.7275 11.2879 39.9025 13.0784C38.39 16.3839 36.8775 19.9649 35.5025 23.9591C33.715 28.7797 32.34 33.4625 31.24 37.7321C30.415 40.8999 32.89 43.93 36.19 43.6545C42.79 43.2413 49.5275 42.9659 56.265 42.6904C69.3275 42.1395 82.115 41.864 94.6275 41.7263Z" fill="#99A5A9" stroke="#416388" stroke-width="0.744" stroke-linejoin="round"/>
<path d="M94.3516 109.765C109.064 109.765 123.914 109.352 138.627 108.388C140.139 108.25 141.239 105.909 140.414 104.256C139.727 102.879 139.177 101.501 138.489 100.124C138.077 99.2976 137.389 98.8844 136.702 98.8844C122.539 99.7108 108.514 100.124 94.3516 100.124C80.1891 100.124 66.1641 99.7108 52.0016 98.8844C51.3141 98.8844 50.6266 99.2976 50.2141 100.124C49.5266 101.501 48.9766 102.879 48.2891 104.256C47.4641 106.046 48.4266 108.388 50.0766 108.388C64.9266 109.352 79.6391 109.765 94.3516 109.765Z" fill="#99A5A9" stroke="#416388" stroke-width="0.744" stroke-linejoin="round"/>
<path d="M94.3516 109.765C109.064 109.765 123.914 109.352 138.627 108.388C140.139 108.25 141.239 105.909 140.414 104.256C139.727 102.879 139.177 101.501 138.489 100.124C138.077 99.2976 137.389 98.8844 136.702 98.8844C122.539 99.7108 108.514 100.124 94.3516 100.124C80.1891 100.124 66.1641 99.7108 52.0016 98.8844C51.3141 98.8844 50.6266 99.2976 50.2141 100.124C49.5266 101.501 48.9766 102.879 48.2891 104.256C47.4641 106.046 48.4266 108.388 50.0766 108.388C64.9266 109.352 79.6391 109.765 94.3516 109.765Z" stroke="#416388" stroke-width="0.744" stroke-linejoin="round"/>
<path d="M94.4891 89.5187C105.627 89.5187 118.964 88.9677 133.264 85.9377C135.189 85.5245 137.114 85.1113 138.902 84.6981C141.239 84.1472 142.339 81.8058 140.827 80.153C139.727 78.9134 138.352 77.5361 136.702 76.1588C136.702 76.1588 136.564 76.1588 136.564 76.0211C131.614 72.0269 124.877 69.6855 117.864 69.5478C117.314 69.5478 116.764 69.5478 116.352 69.5478C108.789 69.41 101.502 69.5478 94.4891 69.5478C87.4766 69.5478 80.1891 69.41 72.6266 69.5478C72.0766 69.5478 71.5266 69.5478 71.1141 69.5478C64.1016 69.6855 57.3641 72.0269 52.4142 76.0211C52.4142 76.0211 52.2766 76.0211 52.2766 76.1588C50.6266 77.5361 49.2516 78.9134 48.1516 80.153C46.6391 81.8058 47.7391 84.1472 50.0766 84.6981C51.8641 85.1113 53.7891 85.5245 55.7141 85.9377C70.1516 88.9677 83.3516 89.5187 94.4891 89.5187Z" fill="#99A5A9" stroke="#416388" stroke-width="0.744" stroke-linejoin="round"/>
<path d="M31.2388 37.5944C30.6888 38.9717 30.1388 41.1754 30.6888 43.5168C31.6513 48.1997 36.3263 50.6788 39.4888 52.4693C43.6138 54.8107 50.0763 59.3558 56.9513 64.4518" stroke="#416388" stroke-width="0.744" stroke-linejoin="round"/>
<path d="M22.026 57.1522C26.151 57.4277 32.6135 57.9786 33.9885 58.1163C34.126 58.1163 34.401 58.1163 34.5385 58.254L48.976 65.1406C50.076 65.6915 50.351 67.6197 49.251 68.3083L46.9135 69.8234C46.9135 69.8234 46.776 69.8234 46.776 69.9611C45.401 70.512 36.4635 74.5062 27.251 67.8952C23.951 65.5537 21.751 62.6614 20.376 60.1823C19.6885 58.6672 20.651 57.0145 22.026 57.1522Z" fill="white" stroke="#416388" stroke-width="0.744" stroke-linejoin="round"/>
<path d="M166.814 57.1522C162.689 57.4277 156.226 57.9786 154.851 58.1163C154.714 58.1163 154.439 58.1163 154.301 58.254L139.864 65.1406C138.764 65.6915 138.489 67.6197 139.589 68.3083L141.926 69.8234C141.926 69.8234 142.064 69.8234 142.064 69.9611C143.439 70.512 152.376 74.5062 161.589 67.8952C164.889 65.5537 167.089 62.6614 168.464 60.1823C169.151 58.6672 168.326 57.0145 166.814 57.1522Z" fill="white" stroke="#416388" stroke-width="0.744" stroke-linejoin="round"/>
<path d="M157.602 37.5944C158.152 38.9717 158.702 41.1754 158.152 43.5168C157.189 48.1997 152.514 50.6788 149.352 52.4693C145.227 54.8107 138.627 59.3558 131.752 64.5896" stroke="#416388" stroke-width="0.744" stroke-linejoin="round"/>
<path d="M45.6759 98.6089V98.7466C45.2634 99.7107 44.4384 100.399 43.4759 100.537L27.8009 102.879C23.9509 103.429 20.9259 100.124 22.4384 96.6806L24.3634 92.1355C25.3259 89.9319 27.8009 88.83 30.1384 89.5187L44.0259 93.5128C45.6759 94.0638 46.5009 96.5429 45.6759 98.6089Z" fill="#99A5A9" stroke="#416388" stroke-width="0.744" stroke-linejoin="round"/>
<path d="M33.9879 95.9922C33.9879 93.513 32.3379 91.4471 30.0004 91.1716C27.5254 91.0339 25.4629 93.0998 25.4629 95.9922C25.4629 98.8845 27.5254 100.95 30.0004 100.813C32.3379 100.537 33.9879 98.4713 33.9879 95.9922Z" fill="white" stroke="#416388" stroke-width="0.744" stroke-linejoin="round"/>
<path d="M143.301 98.6089V98.7466C143.714 99.7107 144.539 100.399 145.501 100.537L161.176 102.879C165.026 103.429 168.051 100.124 166.539 96.6806L164.614 92.1355C163.651 89.9319 161.176 88.83 158.839 89.5187L144.951 93.5128C143.301 94.0638 142.339 96.5429 143.301 98.6089Z" fill="#99A5A9" stroke="#416388" stroke-width="0.744" stroke-linejoin="round"/>
<path d="M154.852 95.9922C154.852 93.513 156.502 91.4471 158.839 91.1716C161.314 91.0339 163.377 93.0998 163.377 95.9922C163.377 98.8845 161.314 100.95 158.839 100.813C156.639 100.537 154.852 98.4713 154.852 95.9922Z" fill="white" stroke="#416388" stroke-width="0.744" stroke-linejoin="round"/>
<path d="M18.5891 43.1036C18.5891 40.0736 14.7391 37.5944 10.0641 37.5944C5.38906 37.5944 1.53906 40.0736 1.53906 43.1036C1.53906 46.1337 5.38906 48.6128 10.0641 48.6128C14.7391 48.6128 18.5891 46.1337 18.5891 43.1036Z" fill="#99A5A9" stroke="#416388" stroke-width="0.744" stroke-linejoin="round"/>
<path d="M18.4516 49.0259C17.9016 48.0618 17.4891 46.96 16.9391 45.9959C16.3891 45.8581 14.7391 45.4449 12.9516 46.1336C11.5766 46.6845 10.7516 47.5109 10.4766 48.0618C11.3016 49.8523 12.2641 51.6428 13.2266 53.4333C13.7766 54.6729 14.4641 55.9124 15.0141 57.0143L16.6641 52.6069C17.3516 51.3673 17.9016 50.2655 18.4516 49.0259Z" fill="white" stroke="#416388" stroke-width="0.744" stroke-miterlimit="10"/>
<path d="M170.389 43.1036C170.389 40.0736 174.239 37.5944 178.914 37.5944C183.589 37.5944 187.439 40.0736 187.439 43.1036C187.439 46.1337 183.589 48.6128 178.914 48.6128C174.101 48.6128 170.389 46.1337 170.389 43.1036Z" fill="#99A5A9" stroke="#416388" stroke-width="0.744" stroke-linejoin="round"/>
<path d="M170.389 49.0259C170.939 48.0618 171.351 46.96 171.901 45.9958C172.451 45.8581 174.101 45.4449 175.889 46.1336C177.264 46.6845 178.089 47.5109 178.364 48.0618C177.539 49.8523 176.576 51.6428 175.614 53.4333C175.064 54.6729 174.376 55.9124 173.826 57.0143L172.176 52.6069C171.626 51.3673 171.076 50.2655 170.389 49.0259Z" fill="white" stroke="#416388" stroke-width="0.744" stroke-miterlimit="10"/>
<path d="M25.6016 66.3802L13.2266 73.9554" stroke="#416388" stroke-width="0.744" stroke-linejoin="round"/>
<path d="M20.2383 58.1163L16.1133 54.3976" stroke="#416388" stroke-width="0.744" stroke-linejoin="round"/>
<path d="M163.102 66.3802L175.477 73.9554" stroke="#416388" stroke-width="0.744" stroke-linejoin="round"/>
<path d="M168.465 58.1162L172.727 54.122" stroke="#416388" stroke-width="0.744" stroke-linejoin="round"/>
<path d="M174.238 93.9263C173.276 96.9563 172.176 100.4 170.663 103.981C169.838 105.909 169.013 107.562 168.188 109.214C167.088 111.556 164.751 112.933 162.276 112.933L94.4883 113.897L26.7008 113.071C24.2258 113.071 21.8883 111.556 20.7883 109.352C19.9633 107.699 19.1383 105.909 18.3133 104.118C16.8008 100.537 15.7008 97.0941 14.7383 94.064" stroke="#416388" stroke-width="0.744" stroke-linejoin="round"/>
<path d="M139.038 66.7932C135.876 65.9668 131.751 65.0027 126.938 64.314C124.051 63.9008 120.613 63.6254 107.138 63.4876C103.563 63.4876 99.3008 63.4876 94.4883 63.4876C89.6758 63.4876 85.2758 63.4876 81.7008 63.4876C68.3633 63.6254 64.9258 63.9008 61.9008 64.314C57.0883 65.0027 52.9633 65.9668 49.8008 66.7932" stroke="#416388" stroke-width="0.744" stroke-linejoin="round"/>
</g>
<defs>
<clipPath id="clip0_1135_72594">
<rect width="187" height="142" fill="white" transform="translate(0.988281 0.407227)"/>
</clipPath>
</defs>
</svg>
