<svg width="126" height="14" viewBox="0 0 126 14" fill="none" xmlns="http://www.w3.org/2000/svg">
<path d="M25.5684 0.157104L43.1451 13.7756H47.6123L30.0356 0.157104H25.5684Z" fill="#C58C67"/>
<path d="M43.1451 0.157104L25.5684 13.7756H30.0356L47.6123 0.157104H43.1451Z" fill="#C58C67"/>
<path fill-rule="evenodd" clip-rule="evenodd" d="M4.8712 2.5577H20.45V0.0223999H2.9631C1.3244 0.0223999 0 1.3462 0 2.984V10.9487C0 12.5865 1.3244 13.9102 2.9631 13.9102H20.45V11.375H4.8712C4.0406 11.375 3.3896 10.7019 3.3896 9.8942V8.1218H19.1929V5.5865H3.3896V4.016C3.3896 3.2083 4.0631 2.5577 4.8712 2.5577ZM57.6013 2.5577H73.1801V0.0223999H55.6932C54.0545 0.0223999 52.7301 1.3462 52.7301 2.984V10.9487C52.7301 12.5865 54.0545 13.9102 55.6932 13.9102H73.1801V11.375H57.6013C56.7932 11.375 56.1197 10.7019 56.1197 9.8942V8.1218H71.9231V5.5865H56.1197V4.016C56.1197 3.2308 56.7932 2.5577 57.6013 2.5577ZM83.9776 2.5801H99.556V0.0449009H82.0695C80.4308 0.0449009 79.1064 1.3686 79.1064 3.0064V10.9712C79.1064 12.609 80.4308 13.9327 82.0695 13.9327H99.556V11.3974H83.9776C83.147 11.3974 82.496 10.7244 82.496 9.9167V8.1442H98.299V5.609H82.496V4.0385C82.496 3.2532 83.147 2.5801 83.9776 2.5801ZM123.014 0H105.37V14H123.014C124.676 14 126 12.6538 126 11.016V2.984C126 1.3462 124.653 0 123.014 0ZM122.565 9.9615C122.565 10.7917 121.892 11.4647 121.061 11.4647H108.805V2.5577H121.084C121.914 2.5577 122.588 3.2308 122.588 4.0609V9.9615H122.565Z" fill="#C58C67"/>
</svg>
