<svg viewBox="0 0 267.02 168.34" xmlns="http://www.w3.org/2000/svg"><g fill="#0589c3"><path d="m175.09 41.67c0 10.6-.01 21.2 0 31.8.02 10.84-4.39 19.69-12.61 26.46-6.81 5.61-14.05 10.71-21.1 16.03-2.42 1.83-4.87 3.64-7.27 5.49-.54.42-.93.43-1.47.03-9.22-6.96-18.54-13.79-27.66-20.88-6.87-5.34-11.25-12.4-12.84-21.02-.38-2.03-.42-4.14-.43-6.21-.03-21.56-.02-43.12-.02-64.68 0-.48.06-.97-.02-1.44-.16-.9.21-1.3 1.06-1.5 4.51-1.07 9.01-2.16 13.5-3.26.87-.21 1.16.1 1.15.96-.03 2.52 0 5.04 0 7.56 0 19.6.08 39.2-.04 58.8-.05 8.63 3.77 14.95 10.78 19.5 9.43 6.13 22.6 5.76 31.67-.78 4.85-3.5 8.2-8.04 9.27-14.04.26-1.45.36-2.94.37-4.41.02-22 .02-44 .02-66 0-1.77.02-1.84 1.69-1.44 4.23 1 8.45 2.09 12.68 3.09 1.01.24 1.29.74 1.29 1.75-.03 11.4-.02 22.8-.02 34.2z"/><path d="m125.56 35.34c0-11.24 0-22.48 0-33.72 0-1.59 0-1.6 1.58-1.61 4.28 0 8.56.02 12.84-.02.92 0 1.26.25 1.26 1.22-.02 22.6 0 45.2-.03 67.81 0 4.16-4.51 7.55-8.89 6.77-1.01-.18-2.03-.49-2.95-.95-2.5-1.25-3.83-3.27-3.82-6.14.03-7.8 0-15.6 0-23.4 0-3.32 0-6.64 0-9.96z"/><path d="m177.33 157.09c-4.12 0-8.24 0-12.36 0-1.51 0-1.63.14-1.64 1.65-.03 3.61 1.73 5.41 5.32 5.41h20.88c1.61 0 1.63 0 1.61 1.57-.03 2.97.38 2.56-2.52 2.56-7.44.02-14.88 0-22.32 0-5 0-8.06-3.06-8.07-8.08 0-3.36-.01-6.72 0-10.08.02-4.82 2.98-7.94 7.82-7.98 8-.08 16-.01 24-.04.85 0 1.09.32 1.1 1.13.06 3.2.09 3.2-3.1 3.2-6.72 0-13.44 0-20.16 0-3.17 0-5.38 2.88-4.51 5.9.07.25.36.56.61.63.65.17 1.33.31 1.99.31 7.8.02 15.6.01 23.4.01q1.76 0 1.76 1.81s0 .08 0 .12q0 1.85-1.82 1.86c-4 0-8 0-12 0z"/><path d="m13.54 168.3c-4.04 0-8.08-.03-12.12.02-1.04.01-1.41-.29-1.37-1.36.1-3.26-.43-2.79 2.8-2.8 6.92-.02 13.84 0 20.76-.01.56 0 1.13 0 1.67-.1 1.77-.34 3.1-1.9 3.04-3.51-.06-1.64-1.43-3.12-3.19-3.39-.47-.07-.96-.06-1.44-.06-5.4 0-10.8.01-16.2-.01-3.73-.02-6.7-2.46-7.36-5.99-.66-3.51 1.23-7.01 4.64-8.31 1.09-.42 2.33-.61 3.51-.62 7.88-.05 15.76 0 23.64-.05 1.15 0 1.43.41 1.41 1.47-.03 2.72 0 2.72-2.68 2.72-6.84 0-13.68 0-20.52 0-.6 0-1.2.02-1.79.1-1.99.27-3.26 1.65-3.18 3.41.09 1.81 1.56 3.11 3.58 3.11h16.08c2.07 0 4.06.31 5.74 1.71 2.54 2.11 3.47 5.46 2.38 8.7-.95 2.82-4 4.92-7.28 4.95-4.04.03-8.08 0-12.12 0z"/><path d="m133.26 168.3c-2.64 0-5.28 0-7.92 0-6.74 0-11.72-5-11.73-11.76 0-4.36.03-8.72-.02-13.08-.01-1.07.34-1.43 1.38-1.34.83.07 1.68.07 2.52 0 .97-.07 1.23.34 1.22 1.26-.04 3.84-.04 7.68 0 11.52.04 4.22 2.64 7.51 6.65 8.44.54.12 1.11.15 1.66.15 3.92.01 7.84 0 11.76 0 5.58 0 9.04-3.41 9.1-9.02.04-3.68.03-7.36 0-11.04-.01-.98.28-1.41 1.3-1.31 1.22.11 2.83-.28 3.54.36.62.56.27 2.24.27 3.43.02 3.6.01 7.2 0 10.8 0 6.49-5.07 11.56-11.57 11.58-2.72 0-5.44 0-8.16 0z"/><path d="m70.65 142.13c-2.93 2.64-5.6 5.04-8.27 7.44-1.4 1.26-2.8 2.5-4.18 3.78-1.15 1.07-1.15 1.69.03 2.77 3.81 3.48 7.64 6.93 11.46 10.39.56.51 1.11 1.03 1.88 1.75-2.22 0-4.18.02-6.14-.03-.3 0-.62-.34-.88-.57-3.63-3.19-7.28-6.37-10.87-9.61-1.14-1.03-2.36-1.55-3.9-1.45-1.35.08-2.72 0-4.08.03-1.32.04-1.68.44-1.69 1.77 0 2.8-.07 5.6.03 8.4.04 1.26-.39 1.64-1.58 1.51-.75-.08-1.52-.08-2.28 0-1.14.12-1.52-.28-1.51-1.46.05-7.32.02-14.63.02-21.95 0-2.77 0-2.79 2.8-2.77 2.91.02 2.48-.39 2.51 2.57.02 2.08 0 4.16 0 6.24 0 1.31.3 1.63 1.62 1.65 1.84.03 3.69.12 5.51-.04.89-.08 1.9-.46 2.57-1.03 3.31-2.83 6.5-5.79 9.79-8.66.46-.4 1.18-.66 1.79-.7 1.67-.09 3.34-.03 5.35-.03z"/><path d="m74.92 142.64c.66-.07 1.04-.13 1.42-.14.96-.02 1.99.21 2.87-.06 1.55-.47 2.32.36 3.2 1.33 2.77 3.05 5.58 6.06 8.4 9.07 1.37 1.47 2.32 1.47 3.73 0 3.04-3.18 6.08-6.36 9.06-9.6.78-.85 1.58-1.21 2.72-1.14 1.37.08 2.75.02 4.5.02-.49.67-.7 1.04-.99 1.33-4.23 4.42-8.45 8.86-12.71 13.24-.99 1.02-1.48 2.11-1.45 3.53.06 2.32 0 4.64.03 6.96.01.83-.29 1.15-1.12 1.12-1.28-.05-2.56-.05-3.84 0-.83.03-1.14-.27-1.12-1.11.04-2.36-.02-4.72.03-7.08.02-1.11-.31-2.01-1.07-2.82-4.24-4.53-8.45-9.07-12.67-13.61-.26-.28-.51-.56-.96-1.05z"/><path d="m252.64 168.3c-4.24 0-8.47 0-12.71 0-3.54 0-5.63-2.02-5.64-5.53-.02-6.43.01-12.87-.03-19.3 0-1.07.35-1.44 1.39-1.35.83.07 1.68.06 2.52 0 .94-.07 1.25.28 1.24 1.23-.04 4.32-.02 8.63-.02 12.95v4.08c0 2.44 1.31 3.77 3.78 3.78 4.8.02 9.59 0 14.39 0 2.72 0 5.44.03 8.15-.02 1-.02 1.31.33 1.3 1.32-.02 2.84.02 2.84-2.86 2.84-3.84 0-7.67 0-11.51 0z"/><path d="m201.11 142.13c0 6.11-.11 12.06.05 18.01.07 2.46 1.39 4.04 4.23 4.03 7.36-.03 14.71-.01 22.07 0 1.6 0 1.61 0 1.6 1.58-.03 2.96.39 2.55-2.52 2.55-8.16.02-16.31-.04-24.47.03-3.03.03-5.84-1.89-5.76-5.71.13-6.32.07-12.64.01-18.95-.01-1.22.35-1.66 1.57-1.55 1.07.09 2.15.02 3.22.02z"/><path d="m135.68 142.15c0 4.14 0 8.12-.01 12.1 0 .42-.05.9-.26 1.24-.47.8-1.92 1.11-3.19.74-.95-.27-1.52-.95-1.53-1.92-.04-3.8-.03-7.59 0-11.39 0-.26.35-.73.55-.73 1.5-.06 3-.03 4.44-.03z"/></g></svg>