<svg width="85" height="40" viewBox="0 0 85 40" fill="none" xmlns="http://www.w3.org/2000/svg">
<path d="M63.3457 32.1454H65.7457C66.6911 32.1454 67.4184 31.9272 68.0002 31.4181C68.5821 30.9091 68.873 30.2545 68.873 29.4545C68.873 28.7272 68.5821 28.1454 68.073 27.709C67.5639 27.2727 66.7639 27.0545 65.8184 27.0545H63.3457V32.1454ZM72.6548 39.7818H70.2548L67.6366 35.8545C67.1275 35.0545 66.6184 34.5454 66.2548 34.2545C65.8184 33.9636 65.3093 33.8182 64.7275 33.8182H63.273V39.7818H61.2366V25.5272H65.9639C67.4911 25.5272 68.6548 25.8909 69.5275 26.5454C70.4002 27.2 70.8366 28.1454 70.8366 29.3818C70.8366 31.3454 69.673 32.6545 67.3457 33.2363V33.3091C67.7821 33.4545 68.1457 33.7454 68.4366 34.0363C68.7275 34.3273 69.1639 34.8363 69.673 35.6363L72.6548 39.7818ZM46.4729 32.6545C46.4729 34.4 46.982 35.7818 47.9274 36.8C48.8729 37.8182 50.1093 38.3273 51.7093 38.3273C53.382 38.3273 54.6911 37.8182 55.6366 36.8C56.582 35.7818 57.0911 34.4 57.0911 32.5818C57.0911 30.7636 56.6547 29.3091 55.7093 28.2909C54.7638 27.2727 53.5275 26.7636 51.9275 26.7636C50.3275 26.7636 49.0184 27.2727 48.0729 28.3636C46.982 29.6 46.4729 30.9818 46.4729 32.6545ZM44.3638 32.8C44.3638 30.4727 45.0183 28.6545 46.4002 27.3454C47.782 25.9636 49.6002 25.309 51.9275 25.309C54.1093 25.309 55.8547 25.9636 57.1638 27.2727C58.4729 28.5818 59.1275 30.3272 59.1275 32.4363C59.1275 34.7636 58.4729 36.5818 57.0911 37.9636C55.7093 39.3455 53.9638 40 51.6365 40C49.4547 40 47.6365 39.3455 46.3274 38.0364C45.0183 36.6545 44.3638 34.9091 44.3638 32.8ZM44.0729 27.1272H39.5638V39.7091H37.5274V27.1272H33.0183V25.5272H44.0002V27.1272H44.0729ZM19.8546 32.6545C19.8546 34.4 20.3637 35.7818 21.3092 36.8C22.2546 37.8182 23.491 38.3273 25.091 38.3273C26.7637 38.3273 28.0728 37.8182 29.0183 36.8C29.9637 35.7818 30.4728 34.4 30.4728 32.5818C30.4728 30.7636 30.0365 29.3091 29.091 28.2909C28.1456 27.2727 26.9092 26.7636 25.3092 26.7636C23.7092 26.7636 22.4001 27.2727 21.4546 28.3636C20.3637 29.6 19.8546 30.9818 19.8546 32.6545ZM17.7455 32.8C17.7455 30.4727 18.4001 28.6545 19.7819 27.3454C21.1637 25.9636 22.9819 25.309 25.3092 25.309C27.491 25.309 29.2365 25.9636 30.5456 27.2727C31.8547 28.5818 32.5092 30.3272 32.5092 32.4363C32.5092 34.7636 31.8547 36.5818 30.4728 37.9636C29.091 39.3455 27.3456 40 25.0183 40C22.8364 40 21.0183 39.3455 19.7092 38.0364C18.4728 36.6545 17.7455 34.9091 17.7455 32.8ZM14.1091 39.7818V30.3272C14.1091 29.5272 14.1819 28.5818 14.2546 27.4909H14.1819C14.0364 28.1454 13.8182 28.6545 13.7455 28.9454L8.58185 39.7818H7.49094L2.40001 29.0909C2.25455 28.8727 2.1091 28.3636 1.96364 27.5636H1.81819C1.89092 28.2181 1.89092 29.1636 1.89092 30.4727V39.8545H0V25.5272H2.69092L7.27275 35.2727C7.63639 36 7.85457 36.5818 8.00003 37.0182H8.07276C8.43639 36.1454 8.65458 35.5636 8.80003 35.2L13.4546 25.4545H16.0728V39.7091H14.1091V39.7818ZM74.1821 37.0182C74.6184 37.3818 75.273 37.6727 76.073 37.9636C76.873 38.1818 77.6003 38.3273 78.2548 38.3273C80.3639 38.3273 81.4548 37.6 81.4548 36.2182C81.4548 35.8545 81.3094 35.4909 81.0912 35.2C80.873 34.9091 80.5821 34.6182 80.1457 34.4C79.7821 34.1818 78.9821 33.8182 77.8912 33.3091C76.3639 32.5818 75.3457 32 74.9094 31.3454C74.4003 30.7636 74.1821 30.0363 74.1821 29.3091C74.1821 28.1454 74.6912 27.2727 75.7094 26.5454C76.7275 25.8909 78.0366 25.5272 79.5639 25.5272C81.0912 25.5272 82.1821 25.6727 82.9094 26.0363V28C81.9639 27.4181 80.873 27.1272 79.4185 27.1272C78.473 27.1272 77.7457 27.2727 77.1639 27.6363C76.5821 28 76.2912 28.5091 76.2912 29.0909C76.2912 29.6727 76.5094 30.1091 76.873 30.4727C77.3094 30.8363 78.1821 31.2727 79.4912 31.9272C80.9457 32.5818 82.0367 33.2363 82.6185 33.8909C83.2003 34.5454 83.4912 35.2727 83.4912 36.0727C83.4912 37.3091 82.9821 38.2545 82.0367 38.9091C81.0912 39.5636 79.7094 39.8545 78.0366 39.8545C77.4548 39.8545 76.7275 39.7818 75.9275 39.6364C75.1275 39.4909 74.5457 39.2727 74.1821 39.0545V37.0182Z" fill="black"/>
<path fill-rule="evenodd" clip-rule="evenodd" d="M23.2725 0.436081C21.0907 0.436081 18.9089 0.436081 16.727 0.436081C16.2179 0.436081 16.1452 0.436081 16.1452 1.0179V14.3998C16.1452 15.2725 15.3452 16.3634 14.1088 16.3634L9.96338 16.4361C8.79974 16.4361 7.78156 15.5634 7.78156 14.2543V12.9452C7.78156 12.6543 7.70883 12.5088 7.41792 12.5088H0.436081C0.145171 12.5088 0.0724435 12.6543 0.0724435 12.9452V14.6179C0.0724435 17.6725 2.90882 21.018 6.76338 21.018H16.7998C20.8725 21.018 23.7816 18.0361 23.7816 14.2543V1.09063C23.8543 0.581536 23.7089 0.436081 23.2725 0.436081Z" fill="#CC000E"/>
<path fill-rule="evenodd" clip-rule="evenodd" d="M70.0364 0C76.3639 0 81.7457 2.98183 83.7821 7.1273C84.1458 7.9273 83.6367 7.9273 83.2003 7.9273H75.7821C75.3457 7.9273 75.1275 7.78185 74.9094 7.41821C73.8184 6.03639 72.0728 5.16366 70.1091 5.16366C66.7637 5.16366 64.0727 7.70912 64.0727 10.7637C64.0727 13.8182 66.7637 16.3637 70.1091 16.3637C72.0728 16.3637 73.8184 15.491 74.9094 14.1819C75.2003 13.8182 75.4185 13.6728 75.8548 13.6728C81.8185 13.6728 82.1094 13.6728 83.3457 13.6728C83.8548 13.6728 84.2185 13.8182 83.9276 14.4001C81.8912 18.6182 76.5094 21.6001 70.1091 21.6001C62.0364 21.6001 55.4909 16.7273 55.4909 10.7637C55.4182 4.87274 61.9636 0 70.0364 0Z" fill="#CC000E"/>
<path fill-rule="evenodd" clip-rule="evenodd" d="M39.9271 7.49079L31.927 20.8727C31.7816 21.1636 31.7088 21.1636 31.4907 21.1636H24.2906C23.9997 21.1636 23.8543 21.0181 24.0724 20.5817L35.7089 1.52713C36.2179 0.727134 36.5089 0.581678 37.3089 0.581678H43.418C44.3634 0.581678 44.5089 0.654406 45.018 1.52713L56.4362 20.4363C56.8726 21.1636 56.8726 21.1636 55.8544 21.1636H49.7453C48.9453 21.1636 48.7998 21.0181 48.5089 20.509L46.8362 17.7454H36.5089C35.8543 17.7454 35.6361 17.8181 35.927 17.309L38.0361 13.7454C38.327 13.1635 38.3998 13.2363 39.127 13.2363H44.1452L40.7271 7.49079C40.5089 6.90897 40.1452 6.9817 39.9271 7.49079Z" fill="#CC000E"/>
</svg>
