<svg width="109" height="59" viewBox="0 0 109 59" fill="none" xmlns="http://www.w3.org/2000/svg">
<path d="M47.2695 0.0274114C47.2192 0.0776999 43.347 0.144751 38.6534 0.161514L30.1211 0.195039L30.2385 3.48055C30.3726 7.23541 30.5067 10.6718 30.5905 12.1301C30.624 12.6833 30.6575 13.27 30.6575 13.4209C30.6743 13.8064 30.976 13.8232 38.1505 14.2255C51.2087 14.9463 57.763 14.9631 69.2287 14.3093C71.5755 14.1752 74.3413 14.0076 75.3471 13.9573C77.6771 13.8232 78.0962 13.7897 78.18 13.7058C78.2471 13.622 78.6326 4.41926 78.6829 1.93837L78.6997 0.312379L77.3586 0.228565C75.1124 0.127988 47.3533 -0.0731652 47.2695 0.0274114Z" fill="black"/>
<path d="M18.3549 0.430427C14.7174 0.514241 7.20761 0.849497 5.61515 0.983597C3.23483 1.21828 2.26259 1.55354 1.30711 2.50902C0.133715 3.68241 -0.0506755 4.47026 0.0331388 8.1916C0.0666638 9.9014 0.150478 11.2592 0.251055 11.3598C0.351631 11.4436 1.10596 11.5609 1.92733 11.628C2.76547 11.6783 4.22383 11.7956 5.19608 11.8794C7.22437 12.0638 7.69373 12.0973 13.3261 12.5499C15.6393 12.7175 18.2711 12.9187 19.193 12.969C20.115 13.0193 21.7745 13.1366 22.8808 13.2204C23.9872 13.321 25.5294 13.4216 26.3172 13.4886C27.1051 13.5389 28.027 13.606 28.379 13.6395L28.9993 13.6898V12.9187C28.9993 12.4829 28.8819 9.78406 28.7478 6.93439C28.6137 4.06795 28.4964 1.41943 28.4964 1.01713V0.296325L24.2721 0.346613C21.9421 0.380139 19.2768 0.413664 18.3549 0.430427Z" fill="black"/>
<path d="M80.141 6.11361C80.0237 9.33207 79.9064 12.2991 79.8728 12.7014C79.8393 13.1205 79.8393 13.4892 79.8728 13.5563C79.9064 13.6066 80.6272 13.6066 81.4988 13.5395C82.3537 13.4725 83.8456 13.3719 84.8179 13.3216C85.7901 13.2546 86.9635 13.1707 87.4161 13.1372C87.8854 13.1037 88.8577 13.0366 89.5952 12.9864C91.59 12.8523 101.514 12.0644 105.352 11.7459L108.705 11.4609L108.805 10.4552C109.007 8.42688 108.856 4.80612 108.537 3.93445C108.152 2.86163 107.213 1.93968 106.073 1.52061C104.464 0.917148 98.8483 0.581892 86.8126 0.380739L80.359 0.263399L80.141 6.11361Z" fill="black"/>
<path d="M0.418121 13.7575C0.870716 16.691 1.59152 18.7025 2.6811 20.1441C4.69263 22.7926 8.31339 24.5695 15.1526 26.2122C19.6954 27.3018 30.1386 29.3469 30.2391 29.1625C30.2727 29.1122 30.1721 27.4695 30.0045 25.5417C29.8368 23.5972 29.5686 20.5129 29.4178 18.669C29.2669 16.8251 29.1328 15.3164 29.116 15.2997C29.0993 15.2829 26.6687 15.1153 23.7184 14.9141C20.7682 14.713 17.9855 14.5118 17.5162 14.4783C17.0636 14.4448 16.1081 14.361 15.4208 14.3107C14.7336 14.2604 13.7446 14.1933 13.2417 14.143C12.7388 14.0927 11.8336 14.0257 11.2301 13.9754C6.20128 13.6066 1.32331 13.2043 0.870716 13.1205L0.300781 13.0367L0.418121 13.7575Z" fill="black"/>
<path d="M104.851 13.3877C103.007 13.5553 100.828 13.7397 99.99 13.8068C99.1684 13.8571 98.1794 13.9409 97.8106 13.9744C97.4418 14.0079 96.5031 14.075 95.7153 14.142C94.9274 14.1923 93.9216 14.2761 93.4523 14.3097C92.413 14.4102 91.709 14.4605 85.1547 14.9131C82.2547 15.1143 79.8409 15.2987 79.8241 15.3322C79.7571 15.3825 78.6172 28.0048 78.6172 28.7424V29.2621L81.601 28.7256C83.2437 28.4239 86.4622 27.7869 88.7587 27.3008C98.4141 25.2893 102.219 23.9147 104.868 21.5344C106.812 19.7743 107.634 18.1651 108.271 14.8461C108.556 13.3374 108.556 13.0189 108.304 13.0692C108.254 13.086 106.695 13.2368 104.851 13.3877Z" fill="black"/>
<path d="M30.8936 16.941C31.0277 19.0531 31.8323 28.4235 31.9329 29.0773L32.0167 29.5801L34.3299 29.9657C38.0178 30.5691 44.0859 31.4408 47.4384 31.8431C51.4615 32.3292 57.077 32.3628 60.7649 31.9437C66.3301 31.2899 76.5722 29.731 76.8068 29.4963C76.8571 29.446 76.9577 28.9767 77.008 28.4738C77.1086 27.4848 77.1086 27.4513 77.6115 21.3496C77.7958 19.1369 77.997 16.8907 78.0473 16.3375L78.1479 15.3653L76.3375 15.4826C75.3317 15.5497 74.1751 15.6167 73.756 15.6503C73.3369 15.6838 72.0294 15.7508 70.8225 15.8179C69.6324 15.8849 68.3584 15.952 68.0064 15.9855C63.4469 16.4046 46.6338 16.4046 40.8171 15.9855C40.3645 15.952 39.1073 15.8849 38.0513 15.8179C36.9952 15.7676 35.671 15.6838 35.1178 15.6503C34.5646 15.6167 33.3577 15.5329 32.4525 15.4826L30.793 15.3653L30.8936 16.941Z" fill="black"/>
<path d="M1.27397 43.1074C-1.19209e-07 43.8282 0 43.8785 0 50.6003C0 57.3222 -1.19209e-07 57.3725 1.27397 58.0933L1.92772 58.4789H20.6183V49.2593L13.8796 49.2928L7.12418 49.3431V51.8576L12.4548 51.9078L17.7686 51.9414V55.7968H2.84967V50.6003C2.84967 47.7339 2.89996 45.4039 2.98378 45.4039C3.05083 45.4039 7.02361 45.3871 11.8178 45.3536L20.5344 45.3201L20.635 42.7218H1.92772L1.27397 43.1074Z" fill="black"/>
<path d="M25.3125 49.6457C25.3125 57.4571 25.2958 57.3733 26.6033 58.0941C27.2738 58.4797 27.2738 58.4797 36.3089 58.4797L45.3441 58.4964V55.8814L36.7615 55.8311L28.1622 55.7976V51.9422L36.5101 51.9087L44.8412 51.8584V49.344L36.4933 49.2937L28.1455 49.2601L28.246 45.3879L45.3441 45.3209L45.4446 42.7227H25.3125V49.6457Z" fill="black"/>
<path d="M49.6519 49.7957C49.7022 56.5847 49.7189 56.9032 50.0374 57.339C50.2218 57.5904 50.6409 57.9424 50.9761 58.1268C51.5796 58.4789 51.7975 58.4789 60.665 58.4789H69.7337V55.7968H52.468V51.9414L60.8159 51.9078L69.147 51.8576L69.2476 49.2593H52.4513L52.5518 45.3871L69.6499 45.3201L69.7505 42.7218H49.6016L49.6519 49.7957Z" fill="black"/>
<path d="M74.0899 49.6952C74.0899 56.5008 74.1066 56.702 74.4419 57.2552C74.643 57.5569 75.0789 57.9592 75.4477 58.1436C76.0511 58.4621 76.4534 58.4789 83.9799 58.4789H91.8584V55.7968H76.9395V42.7218H74.0899V49.6952Z" fill="black"/>
<path d="M96.2168 52.3614V55.3954C96.2168 57.055 96.2503 58.463 96.2838 58.4966C96.3173 58.5301 96.9711 58.5468 97.7086 58.5133L99.0664 58.4463V52.529L108.873 42.7228H105.185L97.7254 50.1822L90.266 42.7228H86.5782L96.2168 52.3614Z" fill="black"/>
</svg>
