<svg width="240" height="181" fill="none" xmlns="http://www.w3.org/2000/svg"><rect width="240" height="180.13" rx="24" fill="#fff"/><g clip-path="url(#clip0)"><path d="M183.953 104.653v-1.571h-.41l-.474 1.079-.471-1.079h-.412v1.571h.291v-1.185l.443 1.023h.301l.444-1.026v1.188h.288zm-2.6 0v-1.303h.526v-.266h-1.34v.266h.526v1.303h.288z" fill="#0099DF"/><path d="M137.368 111.414h-35.459V47.689h35.459v63.725z" fill="#6C6BBD"/><path d="M104.18 79.546c0-12.927 6.053-24.442 15.478-31.862a40.348 40.348 0 00-25.045-8.665c-22.38 0-40.522 18.144-40.522 40.527 0 22.384 18.142 40.528 40.522 40.528a40.344 40.344 0 0025.045-8.665c-9.425-7.42-15.478-18.936-15.478-31.863z" fill="#EB001B"/><path d="M185.19 79.546c0 22.384-18.142 40.528-40.523 40.528a40.359 40.359 0 01-25.047-8.665c9.428-7.42 15.48-18.936 15.48-31.863s-6.052-24.442-15.48-31.862a40.363 40.363 0 0125.047-8.665c22.381 0 40.523 18.144 40.523 40.527z" fill="#0099DF"/><path d="M149.323 129.41c.472 0 1.149.09 1.667.293l-.721 2.206a3.789 3.789 0 00-1.464-.271c-1.53 0-2.296.99-2.296 2.768v6.034h-2.342v-10.76h2.319v1.307c.608-.946 1.487-1.577 2.837-1.577zm-8.652 2.409h-3.827v4.862c0 1.08.382 1.801 1.554 1.801.608 0 1.373-.204 2.069-.608l.675 2.002c-.742.518-1.912.835-2.924.835-2.77 0-3.736-1.487-3.736-3.986v-4.906h-2.185v-2.139h2.185v-3.264h2.362v3.264h3.827v2.139zm-29.964 2.296c.25-1.554 1.193-2.613 2.86-2.613 1.507 0 2.476.946 2.724 2.613h-5.584zm8.016.945c-.023-3.355-2.095-5.65-5.112-5.65-3.151 0-5.357 2.295-5.357 5.65 0 3.419 2.296 5.648 5.517 5.648 1.62 0 3.104-.404 4.411-1.507l-1.149-1.734c-.9.721-2.049 1.126-3.128 1.126-1.508 0-2.881-.698-3.219-2.634h7.991c.023-.293.046-.584.046-.899zm10.286-2.633c-.652-.407-1.979-.925-3.352-.925-1.284 0-2.049.474-2.049 1.262 0 .719.809.923 1.822 1.057l1.103.157c2.342.34 3.759 1.33 3.759 3.221 0 2.048-1.801 3.512-4.906 3.512-1.757 0-3.378-.451-4.661-1.397l1.103-1.824c.788.608 1.961 1.126 3.581 1.126 1.598 0 2.453-.472 2.453-1.306 0-.606-.608-.946-1.891-1.124l-1.103-.157c-2.409-.34-3.715-1.42-3.715-3.174 0-2.139 1.757-3.445 4.48-3.445 1.711 0 3.265.384 4.388 1.126l-1.012 1.891zm28.871-.794a3.53 3.53 0 00-1.342.253 3.21 3.21 0 00-1.072.711 3.28 3.28 0 00-.711 1.095 3.694 3.694 0 00-.258 1.404c0 .513.085.979.258 1.405.172.425.409.791.711 1.095a3.21 3.21 0 001.072.711c.414.17.86.252 1.342.252.482 0 .93-.082 1.342-.252.415-.17.776-.407 1.078-.711.306-.304.543-.67.718-1.095.173-.426.258-.892.258-1.405 0-.51-.085-.979-.258-1.404a3.281 3.281 0 00-.718-1.095 3.225 3.225 0 00-1.078-.711 3.523 3.523 0 00-1.342-.253zm0-2.223c.835 0 1.608.144 2.319.435a5.634 5.634 0 011.845 1.196c.52.507.925 1.108 1.219 1.798.293.693.44 1.446.44 2.257 0 .812-.147 1.564-.44 2.257a5.5 5.5 0 01-1.219 1.802 5.68 5.68 0 01-1.845 1.195 6.1 6.1 0 01-2.319.433 6.1 6.1 0 01-2.319-.433 5.612 5.612 0 01-1.837-1.195 5.564 5.564 0 01-1.214-1.802 5.735 5.735 0 01-.44-2.257c0-.811.147-1.564.44-2.257a5.547 5.547 0 011.214-1.798 5.567 5.567 0 011.837-1.196 6.063 6.063 0 012.319-.435zm-60.85 5.65c0-1.891 1.24-3.445 3.265-3.445 1.935 0 3.241 1.487 3.241 3.445 0 1.958-1.306 3.443-3.241 3.443-2.025 0-3.265-1.552-3.265-3.443zm8.712 0v-5.38h-2.34v1.307c-.744-.969-1.868-1.577-3.398-1.577-3.018 0-5.38 2.362-5.38 5.65 0 3.285 2.362 5.651 5.38 5.651 1.53 0 2.654-.608 3.398-1.577v1.306h2.34v-5.38zm-13.19 5.38v-6.753c0-2.543-1.62-4.254-4.23-4.277-1.374-.024-2.794.404-3.783 1.914-.742-1.193-1.915-1.914-3.559-1.914-1.146 0-2.272.337-3.15 1.597v-1.327h-2.34v10.76h2.362v-5.965c0-1.868 1.036-2.86 2.634-2.86 1.553 0 2.342 1.013 2.342 2.837v5.988h2.362v-5.965c0-1.868 1.083-2.86 2.634-2.86 1.6 0 2.365 1.013 2.365 2.837v5.988h2.363zm73.674-.806v.265h.245c.054 0 .1-.013.131-.033a.113.113 0 00.052-.101.11.11 0 00-.052-.098.221.221 0 00-.131-.033h-.245zm.247-.186a.46.46 0 01.294.085c.07.057.103.134.103.232 0 .083-.026.15-.082.204a.417.417 0 01-.235.098l.325.373h-.253l-.301-.371h-.098v.371h-.211v-.992h.458zm-.064 1.333a.779.779 0 00.322-.065.816.816 0 00.44-.443.838.838 0 00-.44-1.09.778.778 0 00-.322-.064.809.809 0 00-.327.064.77.77 0 00-.268.175.818.818 0 00-.176.266.811.811 0 00-.064.324.82.82 0 00.24.59.821.821 0 00.268.178.81.81 0 00.327.065zm0-1.902c.152 0 .291.028.422.085a1.054 1.054 0 01.58.569c.057.129.085.268.085.415 0 .147-.028.286-.085.415a1.077 1.077 0 01-.58.57 1.101 1.101 0 01-1.2-.232 1.061 1.061 0 01-.317-.753 1.048 1.048 0 01.317-.755 1.04 1.04 0 01.347-.229c.134-.057.276-.085.431-.085" fill="#231F20"/></g><defs><clipPath id="clip0"><path fill="#fff" transform="translate(54 39)" d="M0 0h131.139v102H0z"/></clipPath></defs></svg>