<svg width="240" height="181" fill="none" xmlns="http://www.w3.org/2000/svg"><rect width="240" height="180.13" rx="24" fill="#fff"/><g clip-path="url(#clip0)"><path d="M78.02 140.774v-6.77c0-2.595-1.586-4.287-4.305-4.287-1.36 0-2.833.451-3.852 1.918-.793-1.241-1.926-1.918-3.626-1.918-1.133 0-2.266.338-3.172 1.579v-1.354h-2.38v10.832h2.38v-5.98c0-1.918 1.02-2.821 2.606-2.821 1.586 0 2.379 1.016 2.379 2.821v5.98h2.38v-5.98c0-1.918 1.132-2.821 2.605-2.821 1.587 0 2.38 1.016 2.38 2.821v5.98h2.606zm35.238-10.832h-3.852v-3.272h-2.379v3.272h-2.153v2.144h2.153v4.965c0 2.482 1.019 3.949 3.739 3.949 1.019 0 2.153-.339 2.946-.79l-.68-2.031c-.68.451-1.473.564-2.04.564-1.133 0-1.586-.677-1.586-1.805v-4.852h3.852v-2.144zm20.169-.225c-1.36 0-2.266.677-2.833 1.579v-1.354h-2.379v10.832h2.379v-6.093c0-1.805.793-2.82 2.266-2.82.453 0 1.02.112 1.473.225l.68-2.256c-.453-.113-1.133-.113-1.586-.113zm-30.479 1.128c-1.133-.79-2.72-1.128-4.42-1.128-2.719 0-4.531 1.354-4.531 3.497 0 1.806 1.36 2.821 3.739 3.16l1.133.113c1.246.225 1.926.564 1.926 1.128 0 .79-.907 1.354-2.493 1.354a6.273 6.273 0 01-3.626-1.128l-1.133 1.805c1.247.903 2.946 1.354 4.646 1.354 3.172 0 4.985-1.467 4.985-3.498 0-1.918-1.473-2.934-3.739-3.272l-1.133-.113c-1.02-.113-1.813-.338-1.813-1.015 0-.79.793-1.241 2.04-1.241 1.36 0 2.719.564 3.399.902l1.02-1.918zm63.224-1.128c-1.36 0-2.266.677-2.833 1.579v-1.354h-2.379v10.832h2.379v-6.093c0-1.805.793-2.82 2.266-2.82.453 0 1.02.112 1.473.225l.68-2.256c-.453-.113-1.133-.113-1.586-.113zm-30.366 5.641c0 3.272 2.266 5.642 5.779 5.642 1.586 0 2.719-.339 3.852-1.241l-1.133-1.918c-.906.677-1.813 1.015-2.833 1.015-1.926 0-3.286-1.354-3.286-3.498 0-2.031 1.36-3.385 3.286-3.497 1.02 0 1.927.338 2.833 1.015l1.133-1.918c-1.133-.903-2.266-1.241-3.852-1.241-3.513 0-5.779 2.369-5.779 5.641zm21.981 0v-5.416h-2.379v1.354c-.793-1.015-1.926-1.579-3.399-1.579-3.06 0-5.439 2.369-5.439 5.641s2.379 5.642 5.439 5.642c1.586 0 2.719-.564 3.399-1.58v1.354h2.379v-5.416zm-8.724 0c0-1.918 1.246-3.497 3.286-3.497 1.926 0 3.285 1.466 3.285 3.497 0 1.918-1.359 3.498-3.285 3.498-2.04-.113-3.286-1.58-3.286-3.498zm-28.44-5.641c-3.172 0-5.438 2.256-5.438 5.641 0 3.385 2.266 5.642 5.552 5.642 1.586 0 3.172-.451 4.418-1.467l-1.133-1.692c-.906.677-2.039 1.128-3.172 1.128-1.473 0-2.946-.677-3.286-2.595h8.045v-.903c.113-3.498-1.927-5.754-4.986-5.754zm0 2.031c1.473 0 2.493.902 2.72 2.595h-5.666c.227-1.467 1.247-2.595 2.946-2.595zm59.032 3.61v-9.703h-2.379v5.641c-.793-1.015-1.927-1.579-3.4-1.579-3.059 0-5.438 2.369-5.438 5.641s2.379 5.642 5.438 5.642c1.587 0 2.72-.564 3.4-1.58v1.354h2.379v-5.416zm-8.724 0c0-1.918 1.246-3.497 3.285-3.497 1.927 0 3.286 1.466 3.286 3.497 0 1.918-1.359 3.498-3.286 3.498-2.039-.113-3.285-1.58-3.285-3.498zm-79.54 0v-5.416h-2.38v1.354c-.793-1.015-1.926-1.579-3.399-1.579-3.06 0-5.438 2.369-5.438 5.641S82.553 141 85.612 141c1.586 0 2.72-.564 3.4-1.58v1.354h2.379v-5.416zm-8.838 0c0-1.918 1.246-3.497 3.286-3.497 1.926 0 3.286 1.466 3.286 3.497 0 1.918-1.36 3.498-3.286 3.498-2.04-.113-3.286-1.58-3.286-3.498z" fill="#000"/><path d="M137.846 47.688h-35.691v63.863h35.691V47.688z" fill="#FF5F00"/><path d="M104.421 79.62c0-12.976 6.118-24.485 15.522-31.932C113.032 42.272 104.307 39 94.79 39 72.242 39 54 57.166 54 79.62c0 22.453 18.242 40.619 40.79 40.619 9.517 0 18.242-3.272 25.153-8.688-9.404-7.334-15.522-18.956-15.522-31.931z" fill="#EB001B"/><path d="M186 79.62c0 22.453-18.242 40.619-40.79 40.619-9.517 0-18.242-3.272-25.153-8.688 9.517-7.447 15.522-18.956 15.522-31.931 0-12.976-6.118-24.485-15.522-31.932C126.968 42.272 135.693 39 145.21 39 167.758 39 186 57.279 186 79.62z" fill="#F79E1B"/></g><defs><clipPath id="clip0"><path fill="#fff" transform="translate(54 39)" d="M0 0h132v102H0z"/></clipPath></defs></svg>