<svg width="240" height="181" fill="none" xmlns="http://www.w3.org/2000/svg"><rect width="240" height="180.13" rx="24" fill="#fff"/><path fill-rule="evenodd" clip-rule="evenodd" d="M187.357 65h-33.214c1.786 11.071 12.5 21.429 24.286 21.429h26.428c.357-1.072.357-2.5.357-3.572 0-10-7.857-17.857-17.857-17.857z" fill="url(#paint0_linear)"/><path fill-rule="evenodd" clip-rule="evenodd" d="M157 88.214V115h16.071v-14.286h14.286c7.857 0 14.643-5.357 16.786-12.5H157zM99.857 65v50h14.286s3.571 0 5.357-3.571l12.5-25h1.786V115h16.071V65h-14.286s-3.571.357-5.357 3.571l-12.5 25h-1.785V65H99.857zM32 115V65h16.071s4.643 0 7.143 7.143c6.429 18.928 7.143 21.428 7.143 21.428s1.429-4.642 7.143-21.428C72 65 76.643 65 76.643 65h16.071v50H76.643V88.214h-1.786L65.93 115h-7.143l-8.929-26.786h-1.786V115H32z" fill="#4DB45F"/><defs><linearGradient id="paint0_linear" x1="154.051" y1="75.714" x2="205.214" y2="75.714" gradientUnits="userSpaceOnUse"><stop stop-color="#00B4E6"/><stop offset="1" stop-color="#088CCB"/></linearGradient></defs></svg>