<svg width="240" height="181" fill="none" xmlns="http://www.w3.org/2000/svg"><rect width="240" height="180.13" rx="24" fill="#fff"/><g clip-path="url(#clip0)"><path d="M103.767 120.106H88.294l9.678-60.018h15.471l-9.676 60.018zm56.088-58.551C156.803 60.341 151.963 59 145.978 59c-15.28 0-26.039 8.172-26.105 19.856-.127 8.62 7.703 13.408 13.56 16.282 5.986 2.938 8.021 4.855 8.021 7.472-.061 4.021-4.837 5.875-9.292 5.875-6.177 0-9.487-.956-14.517-3.193l-2.037-.959-2.166 13.473c3.629 1.658 10.315 3.13 17.256 3.194 16.235 0 26.804-8.046 26.929-20.497.062-6.832-4.073-12.067-12.987-16.345-5.412-2.746-8.726-4.598-8.726-7.407.064-2.555 2.803-5.171 8.912-5.171 5.03-.128 8.726 1.084 11.526 2.298l1.399.637 2.104-12.96zm20.564 37.288c1.274-3.448 6.177-16.792 6.177-16.792-.064.128 1.272-3.512 2.036-5.746l1.081 5.171s2.93 14.367 3.567 17.367h-12.861zm19.099-38.755H187.55c-3.691 0-6.495 1.084-8.087 4.98l-22.982 55.037h16.235l3.247-9.003h19.865c.444 2.107 1.846 9.003 1.846 9.003H212l-12.482-60.017zm-124.147 0l-15.152 40.926-1.656-8.3C55.76 83.136 46.976 72.73 37.17 67.557l13.88 52.485h16.36l24.32-59.954H75.37z" fill="#00579F"/><path d="M46.148 60.088H21.255L21 61.3c19.419 4.98 32.279 16.986 37.563 31.415L53.15 65.133c-.89-3.833-3.629-4.919-7.003-5.045z" fill="#FAA61A"/></g><defs><clipPath id="clip0"><path fill="#fff" transform="translate(21 59)" d="M0 0h191v62H0z"/></clipPath></defs></svg>