<svg width="102" height="12" viewBox="0 0 102 12" fill="none" xmlns="http://www.w3.org/2000/svg">
<g clip-path="url(#clip0_1241_83597)">
<path d="M84.0222 0.0739274C84.6729 0.0739274 85.1658 0.0739274 85.6586 0.0739274C90.1013 0.0739274 94.5452 0.0668276 98.9879 0.0781872C100.774 0.0824471 102.131 1.75089 101.989 3.72462C101.866 5.45128 100.663 6.78887 99.2044 6.81443C98.7714 6.82153 98.3371 6.81443 97.9041 6.81443C97.8694 6.87265 97.8335 6.93087 97.7989 6.99051C99.1446 8.58369 100.49 10.1769 101.94 11.8922C100.614 12.0228 99.4556 12.1336 98.5046 10.9777C97.4747 9.72533 96.4352 8.48429 95.3634 7.28443C95.1325 7.026 94.7473 6.83573 94.4304 6.83147C91.8011 6.79739 89.1707 6.82437 86.5402 6.80449C86.039 6.80023 85.8249 6.93939 85.8524 7.59824C85.899 8.75408 85.8739 9.9156 85.8644 11.0729C85.8584 11.8879 85.7459 11.9745 84.8392 11.9689C84.1179 11.9632 84.009 11.8553 84.0079 11.0643C84.0043 9.24397 84.0043 7.42217 84.015 5.60179C84.0198 4.7768 84.1239 4.66463 84.8189 4.66321C89.4003 4.66321 93.9818 4.66321 98.5632 4.66321C98.7821 4.66321 99.0046 4.67031 99.2187 4.62771C99.7259 4.52831 100.108 4.01287 100.106 3.46193C100.106 2.89537 99.6817 2.36147 99.1541 2.28905C98.9568 2.26207 98.7558 2.27627 98.5572 2.27627C94.8107 2.27627 91.0642 2.22089 87.3201 2.30041C85.8488 2.33165 84.9899 1.35472 84.0222 0.0739274Z" fill="#181818"/>
<path d="M20.7432 11.8879C19.364 12.0782 18.2073 12.02 17.2276 10.8187C15.3579 8.52547 13.432 6.29757 11.5301 4.04269C10.3734 2.67102 10.3518 2.67954 9.18313 4.07109C7.25605 6.36573 5.32658 8.65753 3.38395 10.9323C2.4557 12.02 1.82172 12.0938 0.00109863 11.8567C0.455655 11.3001 0.851597 10.7988 1.26189 10.3132C3.95574 7.12398 6.65436 3.93903 9.3494 0.749824C10.1221 -0.164624 10.5827 -0.177404 11.365 0.745564C14.4033 4.3281 17.4393 7.91489 20.4753 11.5003C20.5434 11.5812 20.5985 11.6763 20.7432 11.8879Z" fill="#181818"/>
<path d="M41.4602 0.167644C40.3561 1.45838 39.3489 2.62842 38.3477 3.80698C36.228 6.30751 34.1131 8.81372 31.9935 11.3143C31.2363 12.206 30.7841 12.2074 30.0257 11.3143C26.9694 7.71752 23.9179 4.11653 20.8652 0.516952C20.797 0.436015 20.7432 0.339458 20.6786 0.244321C21.6475 -0.308039 23.2062 0.112266 24.077 1.14173C26.1225 3.56274 28.1668 5.9866 30.2111 8.41046C30.8894 9.21557 31.1107 9.22835 31.7829 8.43601C33.7639 6.10588 35.7627 3.79704 37.7089 1.42572C38.8633 0.0171293 39.5571 -0.0396687 41.4602 0.167644Z" fill="#181818"/>
<path d="M61.9906 11.8893C60.5372 12.1108 59.3697 11.9476 58.3601 10.6966C56.4043 8.2713 54.3636 5.94258 52.354 3.57836C51.6985 2.80733 51.4927 2.82721 50.836 3.60818C48.7522 6.086 46.6661 8.55813 44.5751 11.026C43.8227 11.9135 42.6947 12.2031 41.2521 11.8638C41.386 11.6778 41.4829 11.5216 41.5978 11.3867C44.6206 7.81834 47.6469 4.25426 50.6698 0.685926C51.3755 -0.146165 51.8444 -0.147585 52.5454 0.680246C55.5682 4.25 58.5934 7.8155 61.6174 11.3838C61.7238 11.5088 61.8147 11.6479 61.9906 11.8893Z" fill="#181818"/>
<path d="M79.7841 2.27485C79.2518 2.27485 78.7194 2.27485 78.1871 2.27485C73.4059 2.27485 68.6247 2.27485 63.8423 2.27485C62.0576 2.27485 61.4894 1.9369 60.3087 0.144925C60.4642 0.116526 60.5839 0.0753473 60.7023 0.0753473C66.1211 0.0753473 71.5387 0.0938067 76.9574 0.0668276C78.3056 0.0597279 79.0484 1.08067 79.8451 2.0647L79.7841 2.27485Z" fill="#181818"/>
<path d="M71.0339 8.2216C71.0339 9.14315 71.0351 10.0647 71.0339 10.9862C71.0315 11.8212 70.9154 11.9532 70.1917 11.9547C70.0326 11.9547 69.8736 11.9547 69.7145 11.9547C69.3424 11.9547 69.163 11.7118 69.1618 11.2915C69.1546 9.2823 69.1487 7.27308 69.1546 5.26385C69.1558 4.79242 69.3604 4.51411 69.7886 4.52689C69.9872 4.53257 70.187 4.52689 70.3855 4.52263C70.8365 4.51553 71.0363 4.79526 71.0363 5.31354C71.0351 6.28337 71.0339 7.25178 71.0339 8.2216Z" fill="#181818"/>
</g>
<defs>
<clipPath id="clip0_1241_83597">
<rect width="102" height="12" fill="white"/>
</clipPath>
</defs>
</svg>
