<svg xmlns="http://www.w3.org/2000/svg" version="1.0" width="1133.858" height="393.307"><path d="M55.388 312.486V136.78h1043.037v175.706H55.388z" fill="#0450a1"/><path d="M904.6 278.07H55.421v10.999h845.136l4.041-10.999" fill="#ffe800"/><path d="M369.584 177.637l-27.748 42.12s1.766-22.037 2.202-27.346c.328-4.042-.165-14.774-10.003-14.774h-44.032l-28.88 78.437h34.432l20.916-56.735-4.41 56.735h30.595l37.535-55.744-20.48 55.744h34.654l28.874-78.437h-53.655m187.559 76.983c-1.681.282-14.842 2.812-28.66 3.192-24.656.679-46.149-9.187-46.341-26.99-.34-30.849 30.855-47.751 53.854-52.46 10.313-2.106 30.176-4.427 49.953.452l-11.49 27.555c-3.295-7.5-11.78-7.641-15.256-7.715-8.405-.175-15.345 2.044-20.468 4.387-11.626 5.326-21.753 22.404-5.31 28.987 9.125 3.651 20.74.736 32.86-1.183l-9.142 23.774m353.337 1.455h-38.004l28.852-78.437h38.015l-28.862 78.437m-456.223 0h-38.01l28.897-78.437h37.97l-28.857 78.437m204.989-78.437l-10.467 28.251h-19.11l10.393-28.251h-36.238l-28.79 78.443h36.103l9.855-26.582h19.138l-9.843 26.582h36.176l28.924-78.443h-36.141m174.042 52.382l19.251-52.382H815.6l-28.897 78.443h74.215l9.594-26.061h-37.223m199.73-52.382l-19.812 53.83c.272-5.422 1.353-26.83 2.015-39.164.272-5.072-.826-8.95-3.266-11.525-2.943-3.107-6.85-3.141-6.889-3.141h-44.14L932.07 256.08h32.05l20.456-55.552-2.417 55.552h53.77l28.862-78.443h-31.772m-301.42 57.267l3.249-8.712h41.265l7.092-19.308h-41.27l3.164-8.705h43.32l7.624-20.542h-79.218L687.95 256.08h80.112l7.767-21.176h-44.231" fill="#fff"/><path d="M264.332 213.349c2.18-3.283-.283-10.144-5.066-15.816-4.471-5.298-10.341-6.747-10.726-9.362 5.683-11.74-.453-21.906-9.328-25.738.345-5.57-1.852-11.129-6.47-15.26 2.117-4.484 4.443-17.718-5.276-26 3.854-16.38-12.685-25.596-21.629-26.428-4.325-3.057-10.58-5.089-18.164-5.898 5.524-8.287 4.11-19.591-2.615-25.654.38-9.045-5.774-17.541-15.023-20.745-3.057-7.557-19.897-6.34-21.861.65-9.713 3.493-15.56 14.412-14.553 24.024-5.966 6.35-5.7 17.372-.198 24.39-5.162-.118-12.38 1.269-17.514 3.335-.005 0-.005-.006-.005-.006a1.88 1.88 0 00-.232-.062 23.733 23.733 0 00-13.438-2.236c-1.229-.776-4.212-2.106-6.17-2.604a20.564 20.564 0 00-6.872-6.385c-1.098-4.557-5.032-8.242-8.57-10.002.35-3.413-.985-7.67-2.117-9.64-2.055-3.583-1.551-8.915-.946-9.673 2.338-2.927.312-5.604-.74-6.635-5.356-5.247-10.642-2.479-12.188-.045-5.1-9.08-10.941-11.496-14.417-10.302-4.528-3.56-11.78-1.364-11.672 2.989-2.972 2.083-5.015 3.068-.362 11.553-.928 17.706 1.03 22.981 12.69 32.502-3.622 3.47-5.564 11.35-2.048 17.038-.929 8.497 3.588 16.642 9.271 20.961 1.608 12.215 13.444 19.438 21.21 21.051 5.213 7.585 12.86 11.367 20.225 12.102.425 3.397 1.726 6.697 3.86 9.833-1.918 6.973-1.732 13.455.55 19.302-5.452 5.938-7.382 14.61-4.79 23.774-6.379 7.574-8.558 19.54-4.07 29.514-.033.05-2.037 2.932-2.665 5.417-4.523 2.207-8.683 7.12-10.987 13.041-1.874 4.88-1.144 11.344-.045 16.478-6.929 5.836-11.01 20.598 1.51 32.559-2.716 8.468-8.558 15.917-15.503 24.776-4.925 6.283-5.791 9.668-.085 17.106 4.443 5.802 12.39 10.257 18.917 10.517 12.884.51 21.725-2.298 23.129-11.463.832-5.434-2.711-16.522-3.017-19.211-.3-2.689.719-6.929 3.306-13.682 11.547-2.666 17.688-11.241 18.385-19.619 8.802-4.89 14.864-14.853 12.102-25.925 1.568-2.015 2.078-3.198 3.011-6.164 0 4.88 3.295 8.129 4.846 10.976-5.09 12.368 1.624 23.632 9.102 28.466-12.906 18.295 1.035 27.165 4.754 31.014 4.382 4.534 5.01 12.232 12.295 14.842 6.283 2.253 26.565.102 30.499-8.468 1.013-2.197 1.935-4.648.843-6.283.164-6.136-3.798-10.62-10.71-14.565-7.76-4.438-7.602-3.204-11.326-14.955 12.062-5.83 14.202-19.613 13.596-25.042 8.44-10.477 7.925-19.432 3.29-25.681 1.493-4.32 1.273-8.31.186-11.78 6.928-6.617 10.307-16.132 7.477-26.236 4.217-6.22 5.746-13.206 4.014-20.825 3.662 5.53 9.322 7.783 15.792 7.58.04.147.566 1.958.889 2.779-1.885 3.515-1.03 7.732 3.906 11.366.44 1.625 1.33 2.915 2.61 3.804-.069 1.681 4.125 8.587 9.186 4.89.13-.096 5.592-3.577 5.932-3.798 4.268 3.872 15.063.787 14.015-6.441" fill="#292526"/><path d="M215.171 178.656c13.432-1.155 25.642-16.025 13.778-27.391-1.676 2.36-5.485 5.332-7.862 6.254-.866 5.723-4.291 10.67-6.77 13.404.475 2.038.849 7.387.854 7.733" fill="#fff"/><path d="M236.964 167.555c-3.272 8.644-12.045 13.399-21.996 14.633-1.483 7.115 7.658 17.683 21.447 11.502 9.781-4.393 13.562-20.327.55-26.135m-3.94 37.365c-1.212 1.313-.86 4.155.826 5.23.051-.192.826-3.209 1.624-4.386-.888-1.115-1.992-1.342-2.45-.844m8.762 6.38c-.889-1.585-.396-3.397-2.92-4.302-2.599-.934-2.786 7.415-.76 7.115.861-1.03 2.05-1.936 3.68-2.813m3.493 1.171c-3.488 1.059-6.29 3.725-4.925 5.96.628 1.037 1.041.997 3.22-.339 1.376-.849 3.487-2.553 3.906-2.858-.713-1.54-2.202-2.763-2.202-2.763m3.431-16.183c-1.206-.68-3.244-2.428-4.28-3.99-2.677 2.971-8.734 5.75-11.043 6.373.084.283.871 3 1.245 3.538 1.064.328 2.287 1.194 3.034 2.19 1.466-.435 5.134.153 6.028 4.053 1.597 1.087 4.721 2.259 5.706 3.538 4.274 5.564 7.494 4.58 8.445 3.838 3.759-2.926-1.37-5.474-4.245-9.006-1.268-1.562-5.672-7.738-5.496-9.011.085-.589 1.07-.204 1.738.928.396.674 6.271 7.415 9.198 9.895-2.57-8.836-10.33-12.346-10.33-12.346m-83.696-12.351c50.355-.498 56.276-30.47 49.79-42.006-15.43 16.098-66.958 25.092-92.357 5.083-4.935 5.083-10.987 6.871-16.54 7.517 1.732 15.102 28.444 29.706 59.107 29.406" fill="#fff"/><path d="M130.96 121.123c.906 9.622-3.305 18.968-5.292 22.257 4.534 3.594 14.259 10.438 36.108 10.788 32.786.527 67.654-15.475 48.086-42.125-8.774 10.721-50.197 20.327-78.902 9.08m-43.466-3.691c7.68-7.393 8.337-16.817 4.562-23.366-.826-1.432-1.811-2.797-3.306-4.03-1.98 14.071-21.407 24.662-33.923 15.515 4.347 19.523 24.317 19.908 32.667 11.881" fill="#fff"/><path d="M103.462 130.695c11.508-12.878-.136-33.018-5.615-34.094 3.996 19.67-15.76 35.073-33.16 27.516 4.184 11.938 24.805 22.212 38.775 6.578" fill="#fff"/><path d="M87.324 143.006c10.29 10.772 37.155 10.02 38.87-14.955 1.144-16.744-6.243-26.18-18.351-29.378 14.18 26.112-2.292 44.078-20.519 44.333m21.498 26.429c-4.743 28.676 33.38 37.965 56.192 37.16 38.304-1.352 46.795-20.066 45.034-31.036-24.419 18.986-76.53 16.886-101.226-6.124" fill="#fff"/><path d="M128.419 229.82c20.247 4.648 36.929-5.196 36.663-18.837-9.99.141-42.086-.391-57.324-21.912-10.641 14.728 1.676 35.593 20.661 40.75" fill="#fff"/><path d="M156.314 230.545c-18.584 9.566-43.909 2.655-53.718-17.083-13.483 21.906 9.458 41.333 26.089 40.484 20.695-1.059 26.734-14.197 27.629-23.4" fill="#fff"/><path d="M99.273 242.274c-6.605 11.626 1.455 24.232 9.98 27.572 17.994 7.041 30.107-4.93 29.287-13.563-14.62 3.544-29.418-1.052-39.267-14.01m-14.615 35.311c-8.236 7.256-2.44 25.483 10.262 29.898 18.125 6.3 25.835-5.807 27.193-12.549-4.834 1.155-25.902 5.462-37.455-17.35" fill="#fff"/><path d="M108.143 273.055c-9.475-4.896-15.181-12.158-15.934-22.506-13.625 13.665-2.292 35.486 10.376 39.884 25.466 8.842 34.483-12.623 32.372-19.285-10.059 7.11-22.16 4.307-26.814 1.907m91.292 63.125l.708.505c-1.902 4.262-17.27 7.76-23.508 4.862-7.37-3.43-6.215-7.596-10.908-12.034-10.443-9.872-9-13.987-7.511-19.506.673-2.502 2.015-4.127 4.126-6.946 6.952 2.82 10.28 2.253 16.546.629.079.515.453 2.111.588 2.705-4.738.493-8.637 1.478-8.637 1.478l1.205 3.594s3.996-1.03 8.429-1.364c0 0 .967 2.683 1.33 3.442-4.178.294-8.027 1.545-8.027 1.545l1.167 3.425s5.473-1.733 9.792-1.342c4.183 4.047 21.544 8.4 13.127 17.055-3.346 3.447-11.582 4.653-17.593 4.455l-.38.905c1.24 1.687 13.218 2.265 19.546-3.407m-8.4-54.816c-3.99 3.17-10.274 5.802-17.95 5.558-8.677-.277-14.966-3.809-20.354-9.854-3.198 15.77 6.934 23.428 17.972 23.972 20.287.99 20.7-17.423 20.332-19.676" fill="#fff"/><path d="M172.797 283.188c21.43.107 28.172-17.938 24.012-25.767-12.238 15.029-40.767 12.017-46.082-6.6-7.778 12.945 4.653 32.282 22.07 32.367" fill="#fff"/><path d="M175.661 263.387c10.687.085 22.518-7.619 19.699-20.57-12.091 7.885-27.635 7.121-37.92-.696-.894 1.777-2.485 4.183-3.617 5.604 1.353 9.68 11.712 15.583 21.838 15.662" fill="#fff"/><path d="M162.41 226.407a26.7 26.7 0 01-1.257 1.059c.046 3.38-.979 8.264-2.026 11.394 14.802 12.736 45.986 5.044 43.937-20.79-10.688 10.46-27.935 12.962-40.654 8.337" fill="#fff"/><path d="M169.661 210.847c.119 4.726-1.755 9.328-4.358 12.98 19.313 5.586 43.132-4.32 41.598-27.024-5.841 5.887-17.87 12.974-37.24 14.044M73.586 103.62c14.14-6.396 13.144-21.487 4.625-24.962-1.863 1.76-1.63 6.532-1.535 7.55.227 2.4-3.401 3.691-3.933 3.018-1.257-1.585 1.766-3.193.498-6.776-1.212-3.436 2.502-5.168 2.502-10.285 0-2.971-2.53-7.981-2.881-8.92-1.155-3.074-1.082-9.052.588-11.973-1.257-1.16-3.255-2.858-5.145.046-2.53 3.9-1.625 8.762.17 12.532-.244.119-2.548.045-3.855 4.183-.023.074-1.047 1.376-1.047 1.376l-.85.028c-.61-2.978.408-4.828 1.19-6.583-.233-.685-1.127-3.646-1.32-8.287-2.394-6.063-6.94-12.085-10.064-12.436 2.672 3.866 7.523 13.075 8.038 14.32 1.058 2.588-1.234 3.04-1.234 3.04-3.566-7.607-7.602-14.253-10.665-17.31-2.065-2.065-4.358-2.733-5.117-1.414.929.305 2.067 1.41 2.944 2.485 3.266 4.024 9.94 17.734 9.94 17.734s-.521.685-1.16.583c-1.076-.17-2.452-2.157-4.076-5.881-1.75-3.408-5.02-8.259-6.799-10.285-1.471-1.682-2.745-1.116-3.668-.385.951 1.692 1.97 3.656 2.434 5.219 2.435-.651 5.548 1.998 5.905 4.37.356 2.377 1.182 8.87 2.683 11.1-.555.3-1.97 1.341-1.97 1.341-1.642-2.02-2.814-9.385-3.068-12.034-.062-.657-.86-2.01-2.446-2.434-.792-.21-.94.294-.962.855-.68 14.802.215 18.543 13.359 28.806.86.673 2.338 2.553 3.306 4.523.967 1.964 2.632 4.33 5.785 3.928l1.25 1.29c-2.847 2.287-7.047.878-8.043-.413-.792-1.03-2.96-4.228-2.96-4.228-9.16 9.696 3.085 22.834 17.58 16.28m15.16 204.586c-5.598 12.051-10.602 16.913-16.925 25.795-3.764 5.286-2.378 7.845.198 11.253 5.134 6.243 14.4 9.362 21.25 7.398l-.052-.906c-8.207.804-15.436-2.264-19.183-7.84l.623-.594c9.6 7.557 22.234 5.462 27.085 2.983 1.325-.68 2.265-2.513 2.078-4.172-.459-3.968-2.695-10.658-3.136-14.434-.357-3.085.758-8.45 3.062-14.785-3.883.096-12.668-.957-15-4.698m123.03-200.924c6.86 4.619 8.1 13.998 8.31 17.887 6.73-13.217-3.369-21.102-8.712-22.75.917 1.767.838 4.41.402 4.863m10.409 43.467c12.838-7.67 4.456-23.457 2.384-24.77-.516 1.635-2.18 5.79-6.872 11.32 2.779 3.346 4.353 8.09 4.488 13.45m-92.254-34.778c9.306 4.205 19.62 5.813 29.797 5.836 27.3.067 46.24-7.823 47.706-15.98 1.223-6.81-11.28-10.981-24.883-11.751-1.981 2.15-4.698 2.858-5.355 2.91-.996.073-1.636-.68-.537-1.252 2.049-1.064 4.064-2.83 1.856-6.622 1.45-.232 6.436-2.044 6.843-10.63.329-6.822-3.31-11.039-6.356-13.003 0 0-1.189-1.285.306-1.477.758-8.253-4.828-15.25-15.227-17.383l.073-.872c.402-.034.629-.464.555-.872-.362-2.038-7.879-2.887-10.862-.124-.634.588 1.477 1.205 2.06 1.228.759.023 1.297 1.047.22 1.024-5.954-.101-17.02 5.146-16.59 19.512.368-.011 3.459-.923 4.698-.572.838.232.555 1.257-.14 1.308-9.822.758-13.898 17.978-.312 24.09 0 0 .696.386-.182.94-1.618 1.03-2.847 3.097-.407 4.49.877.503 1.562 1.143 1.155 1.952-.408.81-1.784.764-3.12.096-6.746-3.373-14.654-1.585-20.785.397 4.54 3.894 7.863 10.217 9.487 16.755" fill="#fff"/><path d="M60.952 71.6c-.283.294-2.315-1.06-3.51-1.908-1.93-.895-3.979-.55-4.053-1.155-.045-.374 1.698-.832 3.323-.832 1.138.073 2.264.945 3.425.849.374.798 1.223 2.626.815 3.045m35.163 256.125c-3.515-1.053-7.999-1.596-10.88-1.681l.102-3.6c3.13.085 8.004.685 11.848 1.828l-1.07 3.453m2.049-7.2c-4.874-1.455-5.813-1.608-11.168-1.834l.152-3.6c5.672.238 6.912.441 12.086 1.987l-1.07 3.447m74.854-241.77c-.3.074-.85.34-1.194.702-9.482-1.704-12.454.866-17.53.73.067-.64-.154-1.523-.992-1.432-.3.028-.696.719-.843.94-1.33 1.975-1.845 3.068-1.33 3.526.549.487 1.228-.294 1.924-1.098.844-.096 2.768-.04 4.608 1.2 1.585 1.064 4.834 5.162 8.236 3.713 2.36-1.098 4.62-5.156 6.357-5.162.837-.006 1.879.13 2.054.028.396-.22-.39-3.356-1.29-3.147zm-7.33 6.39c-2.882 1.484-4.637-2.275-7.45-3.514 2.598-.668 7.817-1.183 11.82-.453-.946.741-3.561 3.554-4.37 3.968m4.092-30.255c-3.351.373-5.671 4.732-5.287 9.911.232 3.198 1.472 6.04 3.306 7.602 1.036.889 2.207 1.308 3.385 1.206 3.357-.289 5.689-4.665 5.31-9.957-.239-3.255-1.478-6.113-3.329-7.647-1.041-.866-2.213-1.251-3.385-1.116" fill="#292526"/><path d="M173.567 69.573c0 .045.005.079.023.085.016.005.028 0 .045-.017.82-1.478 1.262-3.6 1.103-5.865-.197-2.677-1.21-5.083-2.649-6.277-.684-.566-1.392-.815-2.11-.73-2.322.26-4.026 3.877-3.731 7.896.028.368.074.73.13 1.081.017.057.04.085.068.085.034 0 .068-.056.08-.136.248-2.74 1.68-4.879 3.492-4.98 2.06-.125 3.832 2.473 3.956 5.801.034 1.11-.113 2.151-.407 3.057" fill="#fff"/><path d="M154.82 55.23c-3.55.327-6.182 4.714-5.995 9.996.113 3.18 1.268 6.068 3.09 7.715 1.087.985 2.35 1.46 3.634 1.38 3.555-.237 6.199-4.646 6.018-10.035-.113-3.244-1.274-6.147-3.114-7.766-1.086-.963-2.349-1.41-3.634-1.29" fill="#292526"/><path d="M158.98 68.888c0 .028.011.056.023.056.022.006.04-.017.062-.056.51-1.308.78-2.887.724-4.54-.09-2.66-1.036-5.1-2.468-6.368-.51-.441-1.324-.957-2.349-.86-2.519.232-4.517 3.905-4.37 8.02.068 1.88.595 3.414 1.206 4.552.05.062.102.102.13.085.023-.012.034-.04.034-.085a8.71 8.71 0 01-.38-2.23c-.152-3.272 1.399-5.978 3.46-6.057 2.06-.074 3.849 2.541 3.996 5.847a9.75 9.75 0 01-.068 1.636" fill="#fff"/></svg>