<svg width="52" height="52" viewBox="0 0 52 52" fill="none" xmlns="http://www.w3.org/2000/svg">
<path d="M51.4309 25.9996C51.4309 40.0559 40.0559 51.4309 25.9996 51.4309C11.9434 51.4309 0.568359 40.0559 0.568359 25.9996C0.568359 11.9434 11.9434 0.568359 25.9996 0.568359C40.0559 0.568359 51.4309 11.9434 51.4309 25.9996ZM25.9996 2.11211C12.7559 2.11211 2.11211 12.7559 2.11211 25.9996C2.11211 39.2434 12.8371 49.8871 25.9996 49.8871C39.2434 49.8871 49.8871 39.1621 49.8871 25.9996C49.8871 12.7559 39.2434 2.11211 25.9996 2.11211Z" fill="url(#paint0_linear_1488_80396)"/>
<path d="M25.9998 2.11328C12.7561 2.11328 2.1123 12.757 2.1123 26.0008C2.1123 39.2445 12.8373 49.8883 25.9998 49.8883C39.2436 49.8883 49.8873 39.1633 49.8873 26.0008C49.8873 12.757 39.2436 2.11328 25.9998 2.11328ZM25.9998 48.3445C13.6498 48.3445 3.65605 38.3508 3.65605 26.0008C3.65605 13.6508 13.6498 3.65703 25.9998 3.65703C38.3498 3.65703 48.3436 13.6508 48.3436 26.0008C48.3436 38.3508 38.3498 48.3445 25.9998 48.3445Z" fill="url(#paint1_linear_1488_80396)"/>
<path opacity="0.4" d="M26 51.4312C40.0562 51.4312 51.4312 40.0562 51.4312 26C51.4312 11.9438 40.0562 0.56875 26 0.56875C11.9438 0.56875 0.56875 11.9438 0.56875 26C0.56875 40.0562 11.9438 51.4312 26 51.4312ZM26 0C40.3 0 52 11.7 52 26C52 40.3 40.3 52 26 52C11.7 52 0 40.3 0 26C0 11.7 11.7 0 26 0Z" fill="url(#paint2_linear_1488_80396)"/>
<path d="M1.78711 26.0809C1.78711 12.7559 12.5934 1.78711 25.9996 1.78711C39.4059 1.78711 50.2121 12.6746 50.2121 26.0809C50.2121 39.4059 39.4059 50.2121 25.9996 50.2121C12.5934 50.2121 1.78711 39.4059 1.78711 26.0809ZM9.34336 9.34336C5.03711 13.6496 2.35586 19.5809 2.35586 26.0809C2.35586 32.5809 5.03711 38.5121 9.26211 42.7371C13.5684 46.9621 19.4996 49.6434 25.9996 49.6434C32.4996 49.6434 38.4309 47.0434 42.6559 42.7371C46.9621 38.5121 49.5621 32.5809 49.5621 26.0809C49.5621 19.5809 46.8809 13.6496 42.6559 9.34336C38.4309 5.03711 32.4996 2.35586 25.9996 2.35586C19.4996 2.35586 13.5684 5.03711 9.34336 9.34336Z" fill="white"/>
<path opacity="0.4" d="M26.0002 48.4242C19.9877 48.4242 14.3814 46.068 10.1564 41.843C5.93145 37.618 3.5752 32.0117 3.5752 25.9992C3.5752 19.9867 5.93145 14.3805 10.1564 10.1555C14.3814 5.93047 19.9877 3.57422 26.0002 3.57422C32.0127 3.57422 37.6189 5.93047 41.8439 10.1555C46.0689 14.3805 48.4252 19.9867 48.4252 25.9992C48.4252 32.0117 46.0689 37.618 41.8439 41.843C37.6189 46.068 32.0127 48.4242 26.0002 48.4242ZM26.0002 47.7742C31.7689 47.7742 37.2939 45.4992 41.3564 41.4367C45.5002 37.293 47.6939 31.8492 47.6939 26.0805C47.6939 20.3117 45.4189 14.7867 41.3564 10.7242C37.2127 6.58047 31.7689 4.38672 26.0002 4.38672C20.2314 4.38672 14.7064 6.66172 10.6439 10.7242C6.5002 14.7055 4.2252 20.2305 4.2252 25.9992C4.2252 31.768 6.5002 37.293 10.5627 41.3555C14.7064 45.4992 20.2314 47.7742 26.0002 47.7742Z" fill="url(#paint3_linear_1488_80396)"/>
<path d="M45.7441 36.5633C45.3379 36.2383 29.6566 23.807 29.6566 23.807L26.0004 2.92578C25.7566 3.00703 25.4316 3.25078 25.2691 3.57578L22.6691 23.8883L6.50039 36.3195C6.50039 36.3195 6.17539 36.7258 6.01289 36.9695C5.93164 37.132 5.93164 37.3758 5.93164 37.6195L25.9191 29.4133L45.9066 37.6195C46.0691 37.2133 45.9066 36.807 45.7441 36.5633Z" fill="white"/>
<path d="M26.1625 26.6501L26 30.3876L44.3625 37.7813C45.0125 38.1063 45.5 37.9438 45.9875 37.6188L26.4062 26.5688C26.325 26.4876 26.1625 26.5688 26.1625 26.6501Z" fill="#565F64"/>
<path d="M26.1621 26.6501C26.1621 26.6501 27.2184 28.5188 28.4371 29.8188C30.1434 31.6876 32.4184 32.9876 32.4184 32.9876L44.3621 37.7813C45.0121 38.1063 45.4996 37.9438 45.9871 37.6188L26.4059 26.5688C26.3246 26.4876 26.1621 26.5688 26.1621 26.6501Z" fill="url(#paint4_linear_1488_80396)"/>
<path d="M45.9064 36.8867C45.9064 36.8055 45.8252 36.7242 45.7439 36.5617L29.0064 24.293L26.7314 25.7555C26.7314 25.7555 26.8939 25.8367 26.9752 25.7555C27.2189 25.6742 27.7064 25.593 28.1939 25.7555C28.6002 25.918 45.9064 36.968 45.9064 36.968C45.9064 36.968 45.9064 36.968 45.9064 36.8867Z" fill="#A4AAAE" fill-opacity="0.6"/>
<path d="M45.3371 36.1566L29.7371 23.8066L29.0059 24.2941L45.7434 36.6441C45.6621 36.4816 45.4996 36.3191 45.3371 36.1566Z" fill="#333E46"/>
<path d="M26.4064 25.4309C26.3252 25.5121 26.3252 25.5121 26.3252 25.5121C26.3252 25.5121 26.3252 25.6746 26.4877 25.5934C26.5689 25.5121 28.9252 24.2934 29.7377 23.8059L26.8939 4.30586C26.8127 3.57461 26.4877 3.24961 25.9189 3.00586L26.2439 25.5934L26.4064 25.4309Z" fill="#565F64"/>
<path d="M25.0248 4.30586V5.36211L23.2373 23.3184C23.2373 23.5621 23.3186 23.8059 23.5623 23.9684L24.6186 24.7809L25.3498 4.95586L25.4311 3.41211C25.1873 3.57461 25.1061 3.89961 25.0248 4.30586Z" fill="#A4AAAE" fill-opacity="0.6"/>
<path d="M24.0502 25.1055L23.0752 24.293L6.58145 36.2367C6.58145 36.2367 6.09395 36.5617 6.0127 36.8867L6.58145 36.5617L23.8877 25.6742C24.2127 25.5117 24.2939 25.3492 24.0502 25.1055Z" fill="#A4AAAE" fill-opacity="0.6"/>
<path d="M25.7566 26.6501C25.7566 26.5688 25.6754 26.4876 25.5941 26.5688L5.93164 37.7001C6.41914 38.0251 6.90664 38.1063 7.55664 37.8626L25.9191 30.4688L25.7566 26.6501Z" fill="#565F64"/>
<path d="M26.3252 25.5117L26.4064 25.4305C26.3252 25.5117 26.3252 25.5117 26.3252 25.5117C26.3252 25.5117 26.3252 25.593 26.4064 25.593H26.4877C26.5689 25.5117 28.9252 24.293 29.7377 23.8055L29.4127 21.4492L26.8939 4.30547C26.8939 3.98047 26.8127 3.73672 26.6502 3.57422C26.6502 3.57422 27.8689 19.9867 27.8689 21.7742C27.8689 24.1305 26.3252 25.5117 26.3252 25.5117Z" fill="url(#paint5_linear_1488_80396)"/>
<path d="M25.7566 26.6501C25.7566 26.5688 25.6754 26.4876 25.5941 26.5688L5.93164 37.7001C6.41914 38.0251 6.90664 38.1063 7.55664 37.8626L25.9191 30.4688L25.7566 26.6501Z" fill="url(#paint6_linear_1488_80396)" fill-opacity="0.8"/>
<path opacity="0.8" d="M7.55586 37.7812L25.9184 30.3875L25.7559 26.8125C25.4309 27.7875 24.8621 28.8438 23.3184 29.6562C22.1809 30.3063 11.2934 35.6688 7.39336 37.5375C7.14961 37.7 6.82461 37.7812 6.66211 37.8625C6.98711 38.025 7.23086 37.9438 7.55586 37.7812Z" fill="url(#paint7_linear_1488_80396)"/>
<path d="M26.4064 25.4309C26.3252 25.5121 26.3252 25.5121 26.3252 25.5121C26.3252 25.5121 26.3252 25.6746 26.4877 25.5934C26.5689 25.5121 28.9252 24.2934 29.7377 23.8059L26.8939 4.30586C26.8127 3.57461 26.4877 3.24961 25.9189 3.00586L26.2439 25.5934L26.4064 25.4309Z" fill="url(#paint8_linear_1488_80396)"/>
<path d="M26.4064 25.4309C26.3252 25.5121 26.3252 25.5121 26.3252 25.5121C26.3252 25.5121 26.3252 25.6746 26.4877 25.5934C26.5689 25.5121 28.9252 24.2934 29.7377 23.8059L26.8939 4.30586C26.8127 3.57461 26.4877 3.24961 25.9189 3.00586L26.2439 25.5934L26.4064 25.4309Z" fill="url(#paint9_linear_1488_80396)"/>
<path d="M4.14336 36.075C3.57461 34.775 0.32461 28.4375 3.89961 16.25H2.51836C1.78711 18.6875 1.21836 20.15 0.893359 22.3437C0.893359 22.3437 0.730859 23.1562 0.649609 24.05C0.568359 24.9437 0.568359 25.4312 0.568359 26C0.568359 30.875 1.78711 33.7187 1.78711 33.7187C3.08711 37.7812 5.36211 41.4375 8.44961 44.2C11.1309 46.5562 15.2746 48.3437 18.6871 48.9937C18.1184 48.9125 8.36836 44.7687 4.14336 36.075Z" fill="url(#paint10_linear_1488_80396)"/>
<path d="M26.325 26.4868H25.5938C25.675 26.4868 25.7563 26.4868 25.7563 26.568L25.9187 30.3055H26L26.1625 26.568C26.1625 26.4868 26.2438 26.4055 26.325 26.4868Z" fill="url(#paint11_linear_1488_80396)"/>
<path d="M34.125 1.86914C42.6562 5.11914 50.7 14.0566 50.7 25.3504C50.7 39.0004 39.8125 50.1316 26 50.1316V51.4316C39.8125 51.4316 51.4312 40.0566 51.4312 26.0004C51.4312 14.7879 44.2812 5.36289 34.125 1.86914Z" fill="url(#paint12_linear_1488_80396)"/>
<path d="M47.775 16.4133C42.0875 3.33203 29.25 2.60078 28.5187 2.51953C28.5187 2.51953 28.5187 2.51953 28.4375 2.51953C38.2687 4.30703 44.525 10.7258 46.7187 17.4695V17.5508C47.6937 20.1508 48.1812 22.9133 48.2625 25.9195C48.3437 28.7633 47.6937 31.932 46.475 34.857C46.3937 35.2633 46.3125 35.7508 46.2312 35.7508H47.5312C51.4312 28.4383 49.725 21.0445 47.775 16.4133Z" fill="url(#paint13_linear_1488_80396)"/>
<path d="M1.78711 26.0809C1.78711 12.7559 12.5934 1.78711 25.9996 1.78711C39.4059 1.78711 50.2121 12.6746 50.2121 26.0809C50.2121 39.4059 39.4059 50.2121 25.9996 50.2121C12.5934 50.2121 1.78711 39.4059 1.78711 26.0809ZM9.34336 9.34336C5.03711 13.6496 2.35586 19.5809 2.35586 26.0809C2.35586 32.5809 5.03711 38.5121 9.26211 42.7371C13.5684 46.9621 19.4996 49.6434 25.9996 49.6434C32.4996 49.6434 38.4309 47.0434 42.6559 42.7371C46.9621 38.5121 49.5621 32.5809 49.5621 26.0809C49.5621 19.5809 46.8809 13.6496 42.6559 9.34336C38.4309 5.03711 32.4996 2.35586 25.9996 2.35586C19.4996 2.35586 13.5684 5.03711 9.34336 9.34336Z" fill="#FBFBFB"/>
<path d="M6.41895 36.3992L22.9939 24.4555C23.8877 24.943 25.3502 25.593 25.5127 25.593C25.6752 25.6742 25.6752 25.5117 25.6752 25.5117L23.6439 23.8055C23.4002 23.643 23.3189 23.3992 23.3189 23.1555L25.2689 3.57422C25.1877 3.65547 25.1877 3.81797 25.1064 3.89922C25.0252 4.06172 25.0252 4.14297 25.0252 4.30547L22.1814 23.8867L6.58145 36.1555C6.5002 36.2367 6.41895 36.318 6.41895 36.3992Z" fill="#333F47"/>
<defs>
<linearGradient id="paint0_linear_1488_80396" x1="6.49961" y1="9.66836" x2="45.4996" y2="42.3309" gradientUnits="userSpaceOnUse">
<stop stop-color="white"/>
<stop offset="0.1" stop-color="#CDD0D0"/>
<stop offset="0.2" stop-color="#A5ACAF"/>
<stop offset="0.3" stop-color="#98A0A4"/>
<stop offset="0.4" stop-color="#828A8F"/>
<stop offset="0.5" stop-color="#667075"/>
<stop offset="0.6" stop-color="#535C63"/>
<stop offset="0.7" stop-color="#475158"/>
<stop offset="0.8" stop-color="#434D54"/>
<stop offset="1" stop-color="#475157"/>
</linearGradient>
<linearGradient id="paint1_linear_1488_80396" x1="7.71855" y1="10.6445" x2="44.2811" y2="41.357" gradientUnits="userSpaceOnUse">
<stop stop-color="#0B1F2A"/>
<stop offset="0.2" stop-color="#333F47"/>
<stop offset="0.5" stop-color="#81898D"/>
<stop offset="0.7" stop-color="#B3B8B8"/>
<stop offset="0.8" stop-color="#DEE0DD"/>
<stop offset="1" stop-color="#FBFBFB"/>
</linearGradient>
<linearGradient id="paint2_linear_1488_80396" x1="34.9152" y1="50.462" x2="17.1215" y2="1.54952" gradientUnits="userSpaceOnUse">
<stop stop-color="#E1E3E1"/>
<stop offset="0.1" stop-color="#C1C5C4"/>
<stop offset="0.3" stop-color="#9BA1A2"/>
<stop offset="0.5" stop-color="#7D8487"/>
<stop offset="0.7" stop-color="#687074" stop-opacity="0"/>
<stop offset="0.8" stop-color="#5B6469" stop-opacity="0"/>
<stop offset="1" stop-color="#576065" stop-opacity="0"/>
</linearGradient>
<linearGradient id="paint3_linear_1488_80396" x1="14.7877" y1="6.58047" x2="37.2127" y2="45.418" gradientUnits="userSpaceOnUse">
<stop stop-color="#E1E3E1"/>
<stop offset="0.1" stop-color="#C1C5C4"/>
<stop offset="0.3" stop-color="#9BA1A2"/>
<stop offset="0.5" stop-color="#7D8487"/>
<stop offset="0.7" stop-color="#687074" stop-opacity="0"/>
<stop offset="0.8" stop-color="#5B6469" stop-opacity="0"/>
<stop offset="1" stop-color="#576065" stop-opacity="0"/>
</linearGradient>
<linearGradient id="paint4_linear_1488_80396" x1="36.1559" y1="32.0126" x2="34.7746" y2="34.2876" gradientUnits="userSpaceOnUse">
<stop stop-color="#27343C"/>
<stop offset="1" stop-color="#00111E" stop-opacity="0"/>
</linearGradient>
<linearGradient id="paint5_linear_1488_80396" x1="32.1752" y1="23.643" x2="29.9002" y2="19.9867" gradientUnits="userSpaceOnUse">
<stop offset="0.1" stop-color="#02131F"/>
<stop offset="0.9" stop-color="#02131F" stop-opacity="0"/>
</linearGradient>
<linearGradient id="paint6_linear_1488_80396" x1="26.0004" y1="29.5751" x2="22.5879" y2="30.5501" gradientUnits="userSpaceOnUse">
<stop offset="0.2" stop-color="#02131F"/>
<stop offset="0.9" stop-color="#02131F" stop-opacity="0"/>
</linearGradient>
<linearGradient id="paint7_linear_1488_80396" x1="16.8996" y1="34.0437" x2="16.4121" y2="32.825" gradientUnits="userSpaceOnUse">
<stop stop-color="#02131F"/>
<stop offset="0.1" stop-color="#02131F"/>
<stop offset="1" stop-color="#02131F" stop-opacity="0"/>
</linearGradient>
<linearGradient id="paint8_linear_1488_80396" x1="28.9252" y1="13.9746" x2="26.1627" y2="14.2996" gradientUnits="userSpaceOnUse">
<stop offset="0.3" stop-color="#02131F"/>
<stop offset="0.8" stop-color="#02131F" stop-opacity="0"/>
</linearGradient>
<linearGradient id="paint9_linear_1488_80396" x1="29.0064" y1="13.8934" x2="27.1377" y2="14.1371" gradientUnits="userSpaceOnUse">
<stop offset="0.4" stop-color="#27343C"/>
<stop offset="1" stop-color="#3B474E" stop-opacity="0"/>
</linearGradient>
<linearGradient id="paint10_linear_1488_80396" x1="-0.325391" y1="26.7312" x2="22.3434" y2="39.8125" gradientUnits="userSpaceOnUse">
<stop stop-color="#25323B" stop-opacity="0"/>
<stop offset="0.1" stop-color="#27343C"/>
</linearGradient>
<linearGradient id="paint11_linear_1488_80396" x1="26" y1="30.3868" x2="26" y2="26.4868" gradientUnits="userSpaceOnUse">
<stop offset="0.3" stop-color="#A5ABAF"/>
<stop offset="1" stop-color="#A5ABAF" stop-opacity="0"/>
</linearGradient>
<linearGradient id="paint12_linear_1488_80396" x1="38.7562" y1="1.86914" x2="38.7562" y2="51.4316" gradientUnits="userSpaceOnUse">
<stop stop-color="#6B7378"/>
<stop offset="0.2" stop-color="#333F47"/>
<stop offset="0.5" stop-color="#27343C"/>
<stop offset="0.8" stop-color="#333F47"/>
<stop offset="1" stop-color="#434D54"/>
</linearGradient>
<linearGradient id="paint13_linear_1488_80396" x1="46.5562" y1="6.58203" x2="35.5875" y2="22.6695" gradientUnits="userSpaceOnUse">
<stop offset="0.7" stop-color="#49545B"/>
<stop offset="0.8" stop-color="white" stop-opacity="0"/>
</linearGradient>
</defs>
</svg>
