<svg width="214" height="74" viewBox="0 0 214 74" fill="none" xmlns="http://www.w3.org/2000/svg">
<path d="M164.206 27.83C164.175 27.7872 164.134 27.7524 164.087 27.7283C164.04 27.7043 163.987 27.6917 163.934 27.6917C163.881 27.6917 163.828 27.7043 163.781 27.7283C163.734 27.7524 163.693 27.7872 163.662 27.83L148.503 48.583C148.494 48.5945 148.49 48.6087 148.488 48.623C148.487 48.6377 148.49 48.6523 148.497 48.6652C148.503 48.6781 148.513 48.6892 148.526 48.6968C148.538 48.7044 148.552 48.7084 148.567 48.7084H153.136C153.398 48.7084 153.657 48.6465 153.891 48.5274C154.125 48.4082 154.327 48.2352 154.481 48.0231L163.769 35.2172C163.79 35.1886 163.817 35.1653 163.849 35.1492C163.881 35.1331 163.915 35.1247 163.951 35.1247C163.986 35.1247 164.021 35.1331 164.052 35.1492C164.084 35.1653 164.112 35.1886 164.132 35.2172L173.421 48.0231C173.575 48.2352 173.777 48.4082 174.011 48.5274C174.245 48.6465 174.504 48.7084 174.766 48.7084H179.301C179.316 48.7084 179.33 48.7044 179.343 48.6968C179.355 48.6892 179.365 48.6781 179.372 48.6652C179.378 48.6523 179.381 48.6377 179.38 48.623C179.379 48.6087 179.373 48.5945 179.365 48.583L164.206 27.83ZM213.777 27.8793H209.525C209.471 27.8793 209.42 27.9005 209.382 27.9383C209.344 27.976 209.323 28.0273 209.323 28.0807V35.8602C209.323 35.8919 209.317 35.9234 209.305 35.9527C209.292 35.982 209.274 36.0087 209.252 36.0311C209.229 36.0536 209.203 36.0714 209.174 36.0835C209.144 36.0957 209.113 36.102 209.081 36.102H189.77C189.738 36.102 189.707 36.0957 189.678 36.0835C189.648 36.0714 189.622 36.0536 189.599 36.0311C189.577 36.0087 189.559 35.982 189.547 35.9527C189.534 35.9234 189.528 35.8919 189.528 35.8602V28.0807C189.528 28.0543 189.523 28.0281 189.513 28.0036C189.503 27.9792 189.488 27.957 189.469 27.9383C189.45 27.9196 189.428 27.9047 189.403 27.8946C189.379 27.8845 189.353 27.8793 189.326 27.8793H185.075C185.048 27.8793 185.022 27.8845 184.997 27.8946C184.973 27.9047 184.951 27.9196 184.932 27.9383C184.913 27.957 184.899 27.9792 184.888 28.0036C184.878 28.0281 184.873 28.0543 184.873 28.0807V48.5069C184.873 48.5336 184.878 48.5598 184.888 48.5843C184.899 48.6087 184.913 48.631 184.932 48.6497C184.951 48.6683 184.973 48.683 184.997 48.6932C185.022 48.7035 185.048 48.7084 185.075 48.7084H189.326C189.353 48.7084 189.379 48.7035 189.403 48.6932C189.428 48.683 189.45 48.6683 189.469 48.6497C189.488 48.631 189.503 48.6087 189.513 48.5843C189.523 48.5598 189.528 48.5336 189.528 48.5069V40.727C189.528 40.663 189.553 40.6015 189.599 40.5561C189.644 40.5108 189.706 40.4853 189.77 40.4853H209.081C209.145 40.4853 209.207 40.5108 209.252 40.5561C209.297 40.6015 209.323 40.663 209.323 40.727V48.5069C209.323 48.5603 209.344 48.6119 209.382 48.6497C209.42 48.6875 209.471 48.7084 209.525 48.7084H213.777C213.803 48.7084 213.829 48.7035 213.854 48.6932C213.878 48.683 213.901 48.6683 213.919 48.6497C213.938 48.631 213.953 48.6087 213.963 48.5843C213.973 48.5598 213.979 48.5336 213.979 48.5069V28.0807C213.979 28.0543 213.973 28.0281 213.963 28.0036C213.953 27.9792 213.938 27.957 213.919 27.9383C213.901 27.9196 213.878 27.9047 213.854 27.8946C213.829 27.8845 213.803 27.8793 213.777 27.8793ZM152.029 27.8793H147.296C146.557 27.8793 145.846 28.1661 145.315 28.6793L137.444 36.3588C137.402 36.4005 137.344 36.4239 137.285 36.4238C137.224 36.4238 137.168 36.4004 137.125 36.3586L129.272 28.6813C128.74 28.1669 128.029 27.8793 127.289 27.8793H122.541C122.523 27.8793 122.507 27.8844 122.493 27.894C122.478 27.9035 122.467 27.9171 122.461 27.9329C122.455 27.9488 122.453 27.9662 122.456 27.9829C122.46 27.9996 122.468 28.0149 122.481 28.0268L134.721 40.2492C134.872 40.4004 134.957 40.6054 134.957 40.8192V48.5069C134.957 48.5603 134.978 48.6119 135.016 48.6497C135.054 48.6875 135.105 48.7084 135.159 48.7084H139.41C139.437 48.7084 139.463 48.7035 139.488 48.6932C139.512 48.683 139.534 48.6683 139.553 48.6497C139.572 48.631 139.587 48.6087 139.597 48.5843C139.607 48.5598 139.612 48.5336 139.612 48.5069V40.8192C139.612 40.6054 139.697 40.4004 139.849 40.2492L152.088 28.0268C152.101 28.0149 152.109 27.9996 152.113 27.9829C152.116 27.9662 152.115 27.9488 152.108 27.9329C152.102 27.9171 152.091 27.9035 152.077 27.894C152.062 27.8844 152.046 27.8793 152.029 27.8793ZM114.952 27.8513H95.9839C94.6458 27.8513 93.3621 28.3822 92.4158 29.3273C91.4696 30.2724 90.938 31.5542 90.938 32.8908V43.6411C90.938 44.9777 91.4696 46.2593 92.4158 47.2043C93.3621 48.1498 94.6458 48.6804 95.9839 48.6804H114.952C116.29 48.6804 117.574 48.1498 118.52 47.2043C119.466 46.2593 119.998 44.9777 119.998 43.6411V32.8908C119.998 32.229 119.867 31.5737 119.613 30.9622C119.36 30.3509 118.988 29.7953 118.52 29.3273C118.051 28.8594 117.495 28.4882 116.883 28.2349C116.271 27.9816 115.614 27.8513 114.952 27.8513ZM115.623 41.9915C115.623 42.5991 115.381 43.1817 114.951 43.6112C114.521 44.0408 113.938 44.2822 113.33 44.2822H97.6064C96.9978 44.2822 96.4144 44.0408 95.9843 43.6112C95.5542 43.1817 95.3128 42.5991 95.3128 41.9915V34.5403C95.3128 33.9328 95.5542 33.3502 95.9843 32.9206C96.4144 32.491 96.9978 32.2497 97.6064 32.2497H113.33C113.938 32.2497 114.521 32.491 114.951 32.9206C115.381 33.3502 115.623 33.9328 115.623 34.5403V41.9915ZM88.4012 27.8513H83.8688C83.6061 27.8513 83.3473 27.9134 83.1136 28.0326C82.8798 28.1518 82.6776 28.3246 82.5236 28.5369L73.3714 41.1539C73.3509 41.1827 73.3233 41.2061 73.2917 41.2223C73.26 41.2385 73.2249 41.2469 73.1892 41.2469C73.1536 41.2469 73.1184 41.2385 73.0868 41.2223C73.0552 41.2061 73.0276 41.1827 73.0067 41.1539L63.8554 28.537C63.7013 28.3247 63.4991 28.1518 63.2654 28.0326C63.0316 27.9134 62.7729 27.8513 62.5102 27.8513H57.9439C57.9292 27.8513 57.9145 27.8554 57.902 27.863C57.8895 27.8707 57.8793 27.8818 57.8726 27.8948C57.8659 27.908 57.8633 27.9227 57.8642 27.9373C57.8655 27.952 57.8708 27.966 57.8793 27.9779L72.9003 48.5425C72.9314 48.5852 72.9724 48.6199 73.0196 48.6439C73.0672 48.6679 73.1193 48.6804 73.1723 48.6804C73.2258 48.6804 73.2779 48.6679 73.3251 48.6439C73.3727 48.6199 73.4137 48.5852 73.4448 48.5425L88.4658 27.9779C88.4747 27.966 88.4796 27.952 88.4809 27.9373C88.4823 27.9227 88.4792 27.908 88.4725 27.8949C88.4658 27.8818 88.4556 27.8707 88.4431 27.863C88.4306 27.8554 88.4159 27.8513 88.4012 27.8513Z" fill="#181C25"/>
<path d="M51.6249 9.75444V0.161131C51.6249 0.128525 51.6151 0.0966861 51.5964 0.0698215C51.5782 0.0429564 51.5519 0.022331 51.5212 0.0106658C51.4909 -0.000999384 51.4575 -0.00315389 51.4259 0.00448807C51.3943 0.01213 51.3653 0.0292067 51.3435 0.053465L33.5257 19.8678C32.2492 21.2874 31.5186 23.1133 31.4639 25.0205L30.3692 63.2131C30.3681 63.2491 30.3791 63.2842 30.4004 63.3131C30.4216 63.342 30.4519 63.363 30.4865 63.3727C30.5211 63.3825 30.5579 63.3803 30.5911 63.367C30.6244 63.3536 30.6522 63.3291 30.6702 63.298L32.8934 59.4495C33.1548 58.9972 33.3255 58.4982 33.3962 57.981L36.5735 34.7161C37.0357 31.3321 38.5625 28.1823 40.9336 25.7212L48.2439 18.1338C50.4133 15.8823 51.6249 12.8791 51.6249 9.75444Z" fill="#181C25"/>
<path d="M0 9.75444V0.161131C1.97995e-08 0.128525 0.00990336 0.0966861 0.0284032 0.0698215C0.0469032 0.0429564 0.0731287 0.022331 0.103615 0.0106658C0.1341 -0.000999386 0.167412 -0.00315389 0.199149 0.00448807C0.230886 0.01213 0.259558 0.0292066 0.281372 0.053465L18.0992 19.8678C19.3757 21.2874 20.1064 23.1133 20.1611 25.0205L21.2558 63.2131C21.2568 63.2491 21.2458 63.2842 21.2246 63.3131C21.2034 63.342 21.173 63.363 21.1385 63.3727C21.1039 63.3825 21.0671 63.3803 21.0338 63.367C21.0005 63.3536 20.9727 63.3291 20.9548 63.298L18.7315 59.4495C18.4702 58.9972 18.2994 58.4982 18.2287 57.981L15.0515 34.7161C14.5893 31.3321 13.0625 28.1823 10.6914 25.7212L3.38107 18.1338C1.21179 15.8823 1.05842e-07 12.8791 0 9.75444Z" fill="#181C25"/>
<path d="M28.1022 21.5662L26.0235 19.7682C25.9648 19.7175 25.8898 19.6896 25.8122 19.6896C25.7346 19.6896 25.6597 19.7175 25.601 19.7682L23.5227 21.5662C23.342 21.7226 23.1983 21.9171 23.1021 22.1357C23.0058 22.3543 22.9595 22.5915 22.9664 22.8302L24.3595 71.454C24.3634 71.5874 24.4004 71.7182 24.4673 71.8338L25.6723 73.9182C25.6865 73.9426 25.7069 73.9631 25.7313 73.9773C25.7559 73.9915 25.7837 73.9987 25.812 73.9987C25.8403 73.9987 25.8682 73.9915 25.8927 73.9773C25.9172 73.9631 25.9376 73.9426 25.9518 73.9182L27.1576 71.8329C27.2245 71.7173 27.2616 71.5866 27.2654 71.4531L28.6587 22.8303C28.6655 22.5916 28.6191 22.3543 28.5229 22.1357C28.4266 21.9171 28.283 21.7226 28.1022 21.5662Z" fill="#181C25"/>
</svg>
