<svg width="403" height="137" viewBox="0 0 403 137" fill="none" xmlns="http://www.w3.org/2000/svg">
<g opacity="0.5" clip-path="url(#clip0_1135_73300)">
<path d="M239.798 113.168C238.368 113.168 237.197 111.996 237.197 110.564V107.829C237.197 106.396 238.368 105.224 239.798 105.224C241.229 105.224 242.399 106.396 242.399 107.829V110.564C242.399 111.996 241.229 113.168 239.798 113.168Z" fill="#C7D8DC" stroke="#416388" stroke-width="0.7596" stroke-linejoin="round"/>
<path d="M132.903 113.429C131.213 113.429 129.912 111.996 129.912 110.434V107.438C129.912 105.745 131.343 104.443 132.903 104.443C134.594 104.443 135.894 105.876 135.894 107.438V110.434C136.024 111.996 134.594 113.429 132.903 113.429Z" fill="#C7D8DC" stroke="#416388" stroke-width="0.7596" stroke-linejoin="round"/>
<path d="M258.394 110.434L115.738 110.824C114.438 110.824 113.527 111.866 113.527 113.038C113.527 114.34 114.568 115.252 115.738 115.252L258.394 114.861C259.695 114.861 260.605 113.82 260.605 112.647C260.605 111.475 259.564 110.434 258.394 110.434Z" fill="#C7D8DC" stroke="#416388" stroke-width="0.7596" stroke-linejoin="round"/>
<path d="M20.6777 102.62C21.8481 102.359 68.143 111.215 68.143 111.215L118.599 108.48H286.483L380.764 100.536C383.625 100.276 386.226 98.4524 387.526 95.8479L390.387 89.5969L349.684 88.6853C344.742 69.672 327.317 56.6492 307.81 57.1701C288.434 57.8213 271.789 71.7557 268.018 90.8992C215.741 92.0713 163.464 93.3735 111.187 94.5456C105.075 74.23 86.479 60.2956 66.3225 60.556C43.5651 60.6863 23.5387 78.6578 20.6777 102.62Z" fill="#6C747B" stroke="#416388" stroke-width="0.7596" stroke-linejoin="round"/>
<path d="M387.916 34.7711L242.009 36.3338C242.269 30.734 242.269 24.3528 241.749 17.4507C241.489 13.8043 241.099 10.2882 240.578 7.03249C240.058 3.51633 237.067 1.04199 233.556 1.04199C225.494 1.04199 218.731 1.04199 213.27 1.17222C196.884 1.43268 184.14 1.04199 167.495 3.25587C161.513 4.03724 156.441 5.73021 153.19 6.25112C154.1 6.90226 154.1 6.90226 155.011 7.42317C141.747 11.0696 115.218 29.041 103.774 35.292C101.303 36.5943 97.6623 37.7663 95.5816 36.985C95.0614 36.8547 94.5413 36.5943 94.0211 36.3338C93.5009 36.0734 93.1108 35.8129 92.7207 35.4222L91.8104 34.7711C76.0753 36.3338 59.0398 38.6779 41.094 42.1941C31.861 44.0173 23.0182 46.1009 14.5655 48.1846C12.8749 48.445 10.4041 50.7891 8.32345 54.1751C6.63291 56.9099 6.11274 59.3842 5.33249 64.3329C4.81232 67.0677 4.29215 70.7141 4.16211 75.272C6.11274 75.272 7.93333 75.272 9.88396 75.272C12.7449 75.272 21.8478 78.0068 24.9688 80.4812C25.619 81.0021 26.3993 82.5648 26.0092 83.4764C25.489 84.6485 24.3186 84.9089 23.0182 84.9089H17.9466C12.3548 84.9089 7.80328 89.8576 7.67324 95.4574L7.5432 98.7131C7.93333 99.1038 8.32345 99.3642 8.71358 99.7549C11.0543 101.708 13.265 103.141 15.2157 104.313H33.5516L33.6816 103.141C33.2915 82.3044 50.327 64.984 71.0037 65.1142C91.0301 65.3747 107.676 82.5648 107.285 103.271C163.333 102.62 219.382 101.969 275.43 101.187C274.519 79.83 291.945 62.5097 311.841 63.0306C330.047 63.5515 345.782 78.9184 346.433 98.5829C351.244 97.6713 356.186 96.7597 360.997 95.8481L394.418 95.1969V41.1523C394.418 37.6361 391.557 34.6409 387.916 34.7711Z" fill="#EAF5F9" stroke="#416388" stroke-width="1.344" stroke-linejoin="round"/>
<path d="M122.109 39.1987L219.12 37.5057C220.681 37.5057 222.241 37.1151 223.672 36.5941L229.394 34.3803C232.124 33.3384 233.945 30.6036 233.945 27.6084C233.945 24.7434 233.815 21.6179 233.425 18.3622C233.165 16.2786 232.905 14.1949 232.515 12.2415C232.125 9.63691 229.784 7.81372 227.313 7.81372H187C169.834 7.81372 153.059 12.8926 138.884 22.269L138.754 22.3993C133.163 26.1759 128.091 29.9525 123.539 33.5989C123.149 34.1198 122.629 35.0314 122.369 36.2035C121.979 37.5057 121.979 38.5476 122.109 39.1987Z" stroke="#416388" stroke-width="0.7596" stroke-linejoin="round"/>
<path d="M197.663 7.94434L195.973 37.8968C195.973 44.9291 196.103 51.9615 196.233 59.124C196.493 71.8864 197.013 84.258 197.663 96.239" stroke="#416388" stroke-width="0.7596" stroke-linejoin="round"/>
<path d="M242.008 36.2037C242.138 43.4965 242.008 51.0497 241.748 58.8634C241.488 71.6257 241.097 83.0858 239.277 96.2389H120.028C118.078 86.8624 116.387 75.6628 115.997 62.7702C115.737 53.2636 116.127 44.5383 117.037 36.9851C117.297 34.9014 118.338 32.948 119.898 31.6457C125.23 27.3482 132.382 22.3995 139.145 18.102C151.499 10.2883 166.193 5.46985 180.758 4.68848C186.22 4.42802 196.623 4.03734 202.085 3.90711C209.107 3.64665 221.981 3.64665 230.954 4.03734C234.335 4.16756 237.456 5.60007 239.667 8.07441L240.707 9.24646" stroke="#416388" stroke-width="0.7596" stroke-linejoin="round"/>
<path d="M191.293 10.4185H187.131C170.486 10.4185 154.231 15.2369 140.316 24.4831L140.186 24.6133C135.245 27.869 130.433 31.3852 125.751 35.1618L125.361 36.4641L187.781 35.4223L191.293 10.4185Z" fill="#95A2A6" stroke="#416388" stroke-width="0.7596" stroke-linejoin="round"/>
<path d="M230.956 18.6228C230.696 16.6694 230.436 14.716 230.176 12.7626C229.916 11.4603 228.745 10.4185 227.445 10.4185H203.777V35.1618L219.252 34.9013C220.553 34.9013 221.723 34.6409 222.894 34.12L228.615 31.9061C230.436 31.255 231.606 29.4318 231.476 27.6086C231.346 24.7436 231.216 21.6181 230.956 18.6228Z" fill="#95A2A6" stroke="#416388" stroke-width="0.7596" stroke-linejoin="round"/>
<path d="M103.775 35.2921C115.088 29.1714 141.747 11.0697 154.881 7.42327C153.971 6.77213 153.971 6.77213 153.061 6.25122C146.558 8.98601 139.796 12.1115 132.904 15.3672C118.729 22.1391 105.855 29.3016 94.0215 36.3339C94.5417 36.5944 95.0618 36.8548 95.582 36.9851C97.6627 37.7664 101.304 36.5944 103.775 35.2921Z" fill="#95A2A6" stroke="#416388" stroke-width="0.7596" stroke-linejoin="round"/>
<path d="M186.611 48.0544H172.696C171.916 48.0544 171.266 48.7056 171.266 49.487C171.266 50.2683 171.916 50.9195 172.696 50.9195H186.611C187.391 50.9195 188.041 50.2683 188.041 49.487C188.041 48.7056 187.521 48.0544 186.611 48.0544Z" stroke="#416388" stroke-width="0.7596" stroke-linejoin="round"/>
<path d="M13.915 89.8574L23.018 86.9924C24.4484 86.4715 26.009 87.6435 26.3991 89.597L27.0493 92.5922C27.5695 94.9363 26.3991 97.4107 24.5785 97.6711L15.0854 98.7129C13.785 98.8432 12.4846 97.8013 12.0945 96.1084C11.9644 95.7177 11.8344 95.327 11.8344 94.9363C11.1842 92.7224 12.2245 90.3783 13.915 89.8574Z" fill="#95A2A6" stroke="#416388" stroke-width="0.7596" stroke-linejoin="round"/>
<path d="M26.5295 92.8529C26.5295 90.7692 25.7493 88.946 24.839 88.946C23.9287 88.946 23.1484 90.639 23.1484 92.8529C23.1484 95.0668 23.9287 96.7597 24.839 96.7597C25.7493 96.7597 26.5295 94.9365 26.5295 92.8529Z" fill="white" stroke="#416388" stroke-width="0.7596" stroke-linejoin="round"/>
<path d="M39.5322 57.5609C35.7609 55.9982 32.1198 54.5657 28.3485 53.0029C28.2185 53.0029 28.2185 53.0029 28.0885 53.0029C24.5773 53.5238 20.2859 54.6959 15.4744 56.9098C12.7435 58.2121 10.2727 59.6446 8.062 61.0771C7.80192 62.6398 7.80192 64.2025 7.67188 65.8955C9.23238 65.8955 10.7929 65.7653 12.4834 65.6351C22.3666 64.8537 31.4696 62.5096 39.2721 59.3841C39.9223 59.1236 40.1824 57.8214 39.5322 57.5609Z" fill="white" stroke="#416388" stroke-width="0.7596" stroke-linejoin="round"/>
<path d="M28.0898 52.8728C37.7129 49.3566 50.327 45.7103 65.2818 44.1475C70.6136 43.6266 75.6852 43.3661 80.3667 42.8452C88.0392 41.9336 93.5009 41.022 98.7026 36.985C98.7026 36.985 98.7026 36.985 98.8327 36.8547" stroke="#416388" stroke-width="0.7596" stroke-linejoin="round"/>
<path d="M28.0898 63.0305L29.6503 64.5933C32.6413 67.7187 36.8027 69.5419 41.2241 69.5419H53.318" stroke="#416388" stroke-width="0.7596" stroke-linejoin="round"/>
<path d="M39.2734 59.3844C42.1344 57.3007 55.6587 47.6638 74.6448 50.0079C94.4112 52.4823 105.465 66.1562 107.415 68.7608" stroke="#416388" stroke-width="0.7596" stroke-linejoin="round"/>
<path d="M239.277 96.2385H256.833C261.905 64.2024 288.563 42.8449 314.702 44.6681C333.298 45.9704 350.073 58.863 358.916 77.2252C370.75 77.2252 382.584 77.2252 394.417 77.2252" stroke="#416388" stroke-width="0.7596" stroke-linejoin="round"/>
<path d="M394.417 73.8394C391.816 69.8023 388.825 64.463 386.354 57.8214C384.534 52.8727 383.493 48.4449 382.713 44.5381H394.417V73.8394Z" fill="#95A2A6" stroke="#416388" stroke-width="0.7596" stroke-linejoin="round"/>
<path d="M70.2228 136.219C87.0287 136.219 100.653 122.925 100.653 106.526C100.653 90.128 87.0287 76.8345 70.2228 76.8345C53.4169 76.8345 39.793 90.128 39.793 106.526C39.793 122.925 53.4169 136.219 70.2228 136.219Z" fill="#95A2A6" stroke="#416388" stroke-width="1.344" stroke-linejoin="round"/>
<path d="M70.2222 127.363C81.9289 127.363 91.4191 118.034 91.4191 106.527C91.4191 95.019 81.9289 85.6902 70.2222 85.6902C58.5155 85.6902 49.0254 95.019 49.0254 106.527C49.0254 118.034 58.5155 127.363 70.2222 127.363Z" fill="white" stroke="#416388" stroke-width="0.7596" stroke-miterlimit="10"/>
<path d="M72.4332 106.266C72.4332 107.438 71.3928 108.48 70.2224 108.48C69.0521 108.48 68.0117 107.568 68.0117 106.266C68.0117 105.094 69.0521 104.052 70.2224 104.052C71.5229 104.052 72.4332 105.094 72.4332 106.266Z" stroke="#416388" stroke-width="0.7596" stroke-miterlimit="10"/>
<path d="M70.2228 125.28C70.873 125.28 71.6532 125.28 72.5635 125.149C72.8236 125.149 73.2138 125.019 73.4738 125.019C73.864 124.889 74.124 124.759 74.3841 124.498L75.5545 123.066C75.9446 122.545 75.9446 121.633 75.5545 121.112L71.5232 115.773C70.873 114.992 69.7026 114.992 69.0524 115.773L65.0211 120.982C64.631 121.503 64.631 122.415 65.0211 122.936L66.1915 124.368C66.4516 124.629 66.7117 124.889 67.1018 124.889C67.2318 125.019 67.6219 125.019 67.882 125.019C68.7923 125.28 69.5726 125.28 70.2228 125.28Z" fill="#C7D8DC" stroke="#416388" stroke-width="0.7596" stroke-miterlimit="10"/>
<path d="M88.1683 112.257C88.4284 111.606 88.5584 110.824 88.6884 109.913C88.6884 109.652 88.8185 109.262 88.8185 109.001C88.8185 108.611 88.8185 108.35 88.5584 107.959L87.5181 106.397C87.1279 105.746 86.3477 105.485 85.6975 105.746L79.5855 108.09C78.6752 108.48 78.2851 109.522 78.8052 110.434L82.4464 115.903C82.8366 116.554 83.6168 116.815 84.267 116.554L86.0876 115.903C86.4777 115.773 86.7378 115.513 86.8679 115.252C86.9979 114.992 87.1279 114.731 87.258 114.471C87.6481 113.689 87.9082 112.908 88.1683 112.257Z" fill="#C7D8DC" stroke="#416388" stroke-width="0.7596" stroke-miterlimit="10"/>
<path d="M81.6665 91.4204C81.1463 91.0297 80.4961 90.5088 79.7159 90.1181C79.4558 89.9878 79.1957 89.8576 78.9356 89.7274C78.5455 89.5972 78.2854 89.5972 77.8953 89.5972L76.0747 90.1181C75.4245 90.2483 74.9043 90.8994 74.9043 91.6808L75.0343 98.1922C75.0343 99.2341 76.0747 99.8852 76.985 99.6247L83.357 97.9318C84.0072 97.8015 84.5274 97.1504 84.5274 96.369V94.5458C84.5274 94.1551 84.3974 93.8947 84.1373 93.6342C84.0072 93.3738 83.7471 93.2436 83.4871 92.9831C82.8369 92.332 82.1866 91.811 81.6665 91.4204Z" fill="#C7D8DC" stroke="#416388" stroke-width="0.7596" stroke-miterlimit="10"/>
<path d="M59.0387 91.4203C58.5185 91.811 57.8683 92.3319 57.2181 92.9831C56.958 93.2435 56.8279 93.3738 56.5679 93.6342C56.3078 93.8947 56.1777 94.2854 56.1777 94.5458V96.369C56.1777 97.1504 56.6979 97.6713 57.3481 97.9318L63.7202 99.6247C64.6305 99.8852 65.6708 99.1038 65.6708 98.1922L65.8008 91.6808C65.8008 90.8994 65.2807 90.2483 64.6305 90.1181L62.8099 89.5972C62.4197 89.4669 62.1597 89.5972 61.7695 89.7274C61.5095 89.8576 61.2494 89.9878 60.9893 90.1181C60.209 90.5087 59.5588 91.0297 59.0387 91.4203Z" fill="#C7D8DC" stroke="#416388" stroke-width="0.7596" stroke-miterlimit="10"/>
<path d="M52.2772 112.257C52.4072 112.908 52.7973 113.689 53.1875 114.471C53.3175 114.731 53.4475 114.992 53.5776 115.252C53.7076 115.513 54.0977 115.773 54.3578 115.903L56.1784 116.554C56.8286 116.815 57.6089 116.554 57.999 115.903L61.6402 110.434C62.1604 109.652 61.7702 108.48 60.8599 108.09L54.748 105.746C54.0977 105.485 53.3175 105.746 52.9274 106.397L51.887 107.959C51.627 108.22 51.627 108.611 51.627 109.001C51.627 109.262 51.627 109.522 51.757 109.913C51.887 110.824 52.1471 111.606 52.2772 112.257Z" fill="#C7D8DC" stroke="#416388" stroke-width="0.7596" stroke-miterlimit="10"/>
<path d="M311.192 136.219C327.997 136.219 341.621 122.925 341.621 106.526C341.621 90.128 327.997 76.8345 311.192 76.8345C294.386 76.8345 280.762 90.128 280.762 106.526C280.762 122.925 294.386 136.219 311.192 136.219Z" fill="#95A2A6" stroke="#416388" stroke-width="1.344" stroke-linejoin="round"/>
<path d="M311.191 127.363C322.898 127.363 332.388 118.034 332.388 106.527C332.388 95.019 322.898 85.6902 311.191 85.6902C299.484 85.6902 289.994 95.019 289.994 106.527C289.994 118.034 299.484 127.363 311.191 127.363Z" fill="white" stroke="#416388" stroke-width="0.7596" stroke-miterlimit="10"/>
<path d="M313.402 106.266C313.402 107.438 312.362 108.48 311.191 108.48C310.021 108.48 308.98 107.568 308.98 106.266C308.98 105.094 310.021 104.052 311.191 104.052C312.492 104.052 313.402 105.094 313.402 106.266Z" stroke="#416388" stroke-width="0.7596" stroke-miterlimit="10"/>
<path d="M311.192 125.279C311.842 125.279 312.622 125.279 313.532 125.149C313.792 125.149 314.182 125.019 314.443 125.019C314.833 124.889 315.093 124.759 315.353 124.498L316.523 123.066C316.913 122.545 316.913 121.633 316.523 121.112L312.492 116.033C311.842 115.252 310.671 115.252 310.021 116.033L305.99 121.112C305.6 121.633 305.6 122.545 305.99 123.066L307.16 124.498C307.42 124.759 307.68 125.019 308.071 125.019C308.331 125.149 308.591 125.149 308.981 125.149C309.761 125.279 310.541 125.279 311.192 125.279Z" fill="#C7D8DC" stroke="#416388" stroke-width="0.7596" stroke-miterlimit="10"/>
<path d="M329.137 112.257C329.397 111.606 329.527 110.824 329.657 109.913C329.657 109.652 329.787 109.262 329.787 109.001C329.787 108.611 329.787 108.35 329.527 107.959L328.487 106.397C328.097 105.746 327.316 105.485 326.666 105.746L320.554 108.09C319.644 108.48 319.254 109.522 319.774 110.434L323.415 115.903C323.805 116.554 324.586 116.815 325.236 116.554L327.056 115.903C327.446 115.773 327.707 115.513 327.837 115.252C327.967 114.992 328.097 114.731 328.227 114.471C328.617 113.689 328.877 112.908 329.137 112.257Z" fill="#C7D8DC" stroke="#416388" stroke-width="0.7596" stroke-miterlimit="10"/>
<path d="M322.504 91.4204C321.984 91.0297 321.334 90.5088 320.554 90.1181C320.294 89.9878 320.034 89.8576 319.773 89.7274C319.383 89.5972 319.123 89.5972 318.733 89.5972L316.913 90.1181C316.262 90.2483 315.742 90.8994 315.742 91.6808L315.872 98.1922C315.872 99.2341 316.913 99.8852 317.823 99.6247L324.195 97.9318C324.845 97.8015 325.365 97.1504 325.365 96.369V94.5458C325.365 94.1551 325.235 93.8947 324.975 93.6342C324.845 93.3738 324.585 93.2436 324.325 92.9831C323.805 92.332 323.155 91.811 322.504 91.4204Z" fill="#C7D8DC" stroke="#416388" stroke-width="0.7596" stroke-miterlimit="10"/>
<path d="M300.007 91.4203C299.487 91.811 298.837 92.3319 298.187 92.9831C297.927 93.2435 297.797 93.3738 297.537 93.6342C297.277 93.8947 297.146 94.2854 297.146 94.5458V96.369C297.146 97.1504 297.667 97.6713 298.317 97.9318L304.689 99.6247C305.599 99.8852 306.64 99.1038 306.64 98.1922L306.77 91.6808C306.77 90.8994 306.249 90.2483 305.599 90.1181L303.779 89.5972C303.388 89.4669 303.128 89.5972 302.738 89.7274C302.478 89.8576 302.218 89.9878 301.958 90.1181C301.178 90.5087 300.528 91.0297 300.007 91.4203Z" fill="#C7D8DC" stroke="#416388" stroke-width="0.7596" stroke-miterlimit="10"/>
<path d="M293.246 112.257C293.376 112.908 293.766 113.689 294.156 114.471C294.286 114.731 294.416 114.992 294.546 115.252C294.676 115.513 295.067 115.773 295.327 115.903L297.147 116.554C297.797 116.815 298.578 116.554 298.968 115.903L302.609 110.434C303.129 109.652 302.739 108.48 301.829 108.09L295.717 105.746C295.066 105.485 294.286 105.746 293.896 106.397L292.856 107.959C292.596 108.22 292.596 108.611 292.596 109.001C292.596 109.262 292.596 109.522 292.726 109.913C292.856 110.824 293.116 111.606 293.246 112.257Z" fill="#C7D8DC" stroke="#416388" stroke-width="0.7596" stroke-miterlimit="10"/>
<path d="M399.359 96.4993L391.426 98.0621C389.085 98.583 387.135 97.0203 387.135 94.8064V84.909C387.135 82.6952 389.085 81.0022 391.426 81.0022H399.359C401.179 81.0022 402.61 82.4347 402.61 84.2579L402.74 92.4623C402.61 94.4157 401.179 96.2389 399.359 96.4993Z" fill="#95A2A6" stroke="#416388" stroke-width="0.7596" stroke-linejoin="round"/>
<path d="M17.6859 85.0392H22.7575C24.0579 85.0392 25.3584 84.7788 25.7485 83.6067C26.1386 82.6951 25.3584 81.1324 24.7082 80.6115C21.5871 78.1371 12.4842 75.4023 9.62329 75.4023H3.90144C1.95081 76.1837 0.650391 78.0069 0.650391 80.0906V89.5972C0.650391 90.639 0.910475 91.5506 1.56068 92.332C2.8611 94.2854 4.68169 96.6295 7.15249 98.8434L7.28253 95.5877C7.54261 89.9879 12.0941 85.0392 17.6859 85.0392Z" fill="#EAEFF4" stroke="#416388" stroke-width="1.344" stroke-linejoin="round"/>
<path d="M16.6464 107.439C16.2563 110.043 18.2069 111.997 20.5477 111.997H32.7716L33.4219 104.313H15.0859C15.6061 105.485 15.9962 106.267 16.6464 107.439Z" fill="#C7D8DC" stroke="#416388" stroke-width="0.7596" stroke-linejoin="round"/>
<path d="M8.32227 54.175L28.9989 52.6123" stroke="#416388" stroke-width="0.7596" stroke-linejoin="round"/>
<path d="M133.814 34.6411L138.365 38.2875C136.545 40.1107 134.594 41.8037 132.774 43.6269C132.644 43.6269 131.343 43.8873 130.303 42.8455C129.393 41.9339 129.393 40.6316 129.393 40.5014L133.814 34.6411Z" fill="#C7D8DC" stroke="#416388" stroke-width="0.7596" stroke-linejoin="round"/>
<path d="M145.257 26.9575C143.957 26.697 142.526 26.8272 141.356 26.8272C137.975 26.9575 134.334 26.9575 133.033 29.562C131.993 31.5155 132.773 33.8596 133.684 35.4223C135.634 38.2873 139.926 39.1989 143.047 38.0269C143.697 34.2502 144.477 30.6039 145.257 26.9575Z" fill="#95A2A6" stroke="#416388" stroke-width="0.7596" stroke-linejoin="round"/>
</g>
<defs>
<clipPath id="clip0_1135_73300">
<rect width="403" height="137" fill="white"/>
</clipPath>
</defs>
</svg>
