<svg width="162" height="137" viewBox="0 0 162 137" fill="none" xmlns="http://www.w3.org/2000/svg">
<g opacity="0.5" clip-path="url(#clip0_1135_73400)">
<path d="M129.598 107.698H32.3984V116.424H129.598V107.698Z" fill="#6C747B" stroke="#416388" stroke-width="0.7596" stroke-linejoin="round"/>
<path d="M11.6172 70.7136V71.8857V130.098C11.6172 133.353 14.0698 136.088 17.0387 136.088H30.2052C33.1742 136.088 35.6268 133.484 35.6268 130.098V105.745L11.6172 70.7136Z" fill="#95A2A6" stroke="#416388" stroke-width="1.344" stroke-linejoin="round"/>
<path d="M150.383 70.7136V71.8857V130.098C150.383 133.353 147.93 136.088 144.961 136.088H131.795C128.826 136.088 126.373 133.484 126.373 130.098V105.745L150.383 70.7136Z" fill="#95A2A6" stroke="#416388" stroke-width="1.344" stroke-linejoin="round"/>
<path d="M140.443 104.312L140.056 105.354C138.636 109.391 134.763 111.996 130.633 111.996H80.9353H31.2381C26.9783 111.996 23.2349 109.391 21.815 105.354L21.4277 104.312H140.443Z" fill="#C7D8DC" stroke="#416388" stroke-width="0.7596" stroke-linejoin="round"/>
<path d="M80.9341 104.833H136.827C140.571 104.833 143.927 102.75 145.476 99.3639C146.509 97.2802 147.412 94.9361 148.316 92.4618C149.607 88.9456 150.51 85.5597 151.026 82.5644V56.3886C150.123 53.2631 149.09 50.1376 148.187 47.0121C147.283 45.1889 146.121 43.1053 144.572 40.8914C143.152 38.8078 141.603 37.1148 140.313 35.8125C138.505 30.0825 136.311 23.8315 133.213 17.0597C131.535 13.2831 129.728 9.76689 128.05 6.51119C126.242 2.99503 122.628 0.911377 118.756 0.911377H80.9341H43.2416C39.3691 0.911377 35.7548 3.12526 33.9476 6.51119C32.1404 9.76689 30.4623 13.2831 28.7842 17.0597C25.8153 23.7013 23.4918 30.0825 21.6846 35.8125C20.3938 37.1148 18.8448 38.8078 17.4249 40.8914C15.8759 43.1053 14.7141 45.1889 13.8105 47.0121C12.907 50.1376 11.8743 53.2631 10.9707 56.3886V82.5644C11.6161 85.5597 12.3906 88.8154 13.6815 92.4618C14.585 94.9361 15.4886 97.2802 16.5213 99.3639C18.0703 102.75 21.5556 104.833 25.1699 104.833H80.9341Z" fill="#EAF5F9" stroke="#416388" stroke-width="1.344" stroke-linejoin="round"/>
<path d="M20.1363 33.2081C20.1363 29.6919 15.7475 26.8269 10.326 26.8269C4.90447 26.8269 0.515625 29.6919 0.515625 33.2081C0.515625 36.7242 4.90447 39.5893 10.326 39.5893C15.7475 39.5893 20.1363 36.8545 20.1363 33.2081Z" fill="#95A2A6" stroke="#416388" stroke-width="0.7596" stroke-linejoin="round"/>
<path d="M80.9341 74.7506C90.3572 74.7506 101.588 74.2297 113.721 71.3647C115.399 70.974 116.948 70.5833 118.497 70.1926C120.563 69.6717 121.337 67.3276 120.176 65.7649C119.272 64.5928 117.981 63.1603 116.69 61.858C116.69 61.858 116.69 61.858 116.561 61.7278C112.431 57.8209 106.751 55.6071 100.813 55.4768C100.426 55.4768 99.9094 55.4768 99.5222 55.4768C93.068 55.3466 87.0011 55.4768 80.9341 55.4768C74.9963 55.4768 68.8003 55.3466 62.3461 55.4768C61.9588 55.4768 61.4425 55.4768 61.0552 55.4768C55.1174 55.6071 49.4377 57.8209 45.307 61.7278C45.307 61.7278 45.307 61.7278 45.1779 61.858C43.758 63.1603 42.5963 64.4626 41.6927 65.7649C40.4019 67.3276 41.3054 69.5415 43.3708 70.1926C44.9198 70.5833 46.4688 70.974 48.1469 71.3647C60.2807 74.2297 71.511 74.7506 80.9341 74.7506Z" fill="#95A2A6" stroke="#416388" stroke-width="0.7596" stroke-linejoin="round"/>
<path d="M14.457 45.7099C15.2315 44.2774 16.1351 42.5845 17.426 40.8915C17.8132 40.2404 18.3295 39.7195 18.7168 39.1985C18.4586 38.6776 18.2005 38.1567 17.9423 37.6358C17.426 37.5056 15.8769 37.1149 14.0698 37.766C12.7789 38.2869 11.8754 39.1985 11.6172 39.5892C12.5208 41.4124 13.4244 43.2356 14.3279 45.0588C14.3279 45.3193 14.457 45.4495 14.457 45.7099Z" fill="white" stroke="#416388" stroke-width="0.7596" stroke-linejoin="round"/>
<path d="M30.8496 52.3516C29.4297 52.0911 25.9444 51.0493 22.7173 48.054C19.6193 45.0588 18.4576 41.6728 18.0703 40.1101" fill="#C7D8DC"/>
<path d="M30.8496 52.3516C29.4297 52.0911 25.9444 51.0493 22.7173 48.054C19.6193 45.0588 18.4576 41.6728 18.0703 40.1101" stroke="#416388" stroke-width="0.7596" stroke-linejoin="round"/>
<path d="M18.7159 53.7837C18.3287 53.3931 17.9414 53.0024 17.6832 52.6117C16.2633 50.9187 16.0051 49.8769 14.8434 48.8351C14.3271 48.4444 13.9398 48.1839 13.6816 48.0537" fill="#C7D8DC"/>
<path d="M18.7159 53.7837C18.3287 53.3931 17.9414 53.0024 17.6832 52.6117C16.2633 50.9187 16.0051 49.8769 14.8434 48.8351C14.3271 48.4444 13.9398 48.1839 13.6816 48.0537" stroke="#416388" stroke-width="0.7596" stroke-linejoin="round"/>
<path d="M23.1046 62.6396L21.2974 64.9838C19.2321 67.8488 16.005 69.5417 12.5197 69.5417H10.9707" stroke="#416388" stroke-width="0.7596" stroke-linejoin="round"/>
<path d="M141.861 33.2081C141.861 29.6919 146.25 26.8269 151.672 26.8269C157.093 26.8269 161.482 29.6919 161.482 33.2081C161.482 36.7242 157.093 39.5893 151.672 39.5893C146.25 39.5893 141.861 36.8545 141.861 33.2081Z" fill="#95A2A6" stroke="#416388" stroke-width="0.7596" stroke-linejoin="round"/>
<path d="M80.9355 74.7506C71.5123 74.7506 60.2821 74.2297 48.1482 71.3647C46.4701 70.974 44.9211 70.5833 43.3721 70.1926C41.3068 69.6717 40.5323 67.3276 41.694 65.7649C42.5976 64.5928 43.8884 63.1603 45.1793 61.858C45.1793 61.858 45.1793 61.858 45.3084 61.7278C49.439 57.8209 55.1187 55.6071 61.0566 55.4768C61.4438 55.4768 61.9602 55.4768 62.3474 55.4768C68.8016 55.3466 74.8685 55.4768 80.9355 55.4768C86.8733 55.4768 93.0693 55.3466 99.5235 55.4768C99.9108 55.4768 100.427 55.4768 100.814 55.4768C106.752 55.6071 112.432 57.8209 116.563 61.7278C116.563 61.7278 116.563 61.7278 116.692 61.858C118.112 63.1603 119.273 64.4626 120.177 65.7649C121.468 67.3276 120.564 69.5415 118.499 70.1926C116.95 70.5833 115.401 70.974 113.723 71.3647C101.589 74.2297 90.4876 74.7506 80.9355 74.7506Z" fill="#95A2A6" stroke="#416388" stroke-width="0.7596" stroke-linejoin="round"/>
<path d="M19.3618 53.5236C22.9762 53.1329 28.914 52.4818 30.2048 52.3516C30.3339 52.3516 30.5921 52.3516 30.7212 52.3516L45.5658 55.6073C46.8566 55.8677 47.1148 57.4305 45.9531 58.2118L43.5005 59.9048C43.5005 59.9048 43.3714 59.9048 43.3714 60.035C41.6933 61.0768 32.012 66.6767 24.0088 63.2907C23.7507 63.1605 23.3634 63.0303 22.9762 62.7698C20.3945 61.4675 17.5546 58.863 17.9419 55.998C18.071 55.477 17.9419 53.6538 19.3618 53.5236Z" fill="white" stroke="#416388" stroke-width="0.7596" stroke-linejoin="round"/>
<path d="M142.636 53.5236C139.022 53.1329 133.084 52.4818 131.793 52.3516C131.664 52.3516 131.406 52.3516 131.277 52.3516L116.432 55.6073C115.141 55.8677 114.883 57.4305 116.045 58.2118L118.497 59.9048C118.497 59.9048 118.626 59.9048 118.626 60.035C120.304 61.0768 129.986 66.6767 137.989 63.2907C138.247 63.1605 138.634 63.0303 139.022 62.7698C141.603 61.4675 144.443 58.863 144.056 55.998C143.798 55.477 144.056 53.6538 142.636 53.5236Z" fill="white" stroke="#416388" stroke-width="0.7596" stroke-linejoin="round"/>
<path d="M35.1098 94.4152C34.8517 95.3268 34.3353 95.8477 33.6899 95.9779L24.1377 97.8011C21.8142 98.1918 20.0071 95.7174 20.7816 92.9827L21.9433 89.4665C22.4596 87.7735 24.0086 86.9922 25.4286 87.5131L33.9481 90.6385C35.1098 91.0292 35.6262 92.8524 35.1098 94.4152Z" fill="#95A2A6" stroke="#416388" stroke-width="0.7596" stroke-linejoin="round"/>
<path d="M29.9464 92.4619C29.9464 90.5085 28.6555 88.9457 26.9774 88.6853C25.1703 88.555 23.4922 90.248 23.4922 92.4619C23.4922 94.6758 25.1703 96.3687 26.9774 96.2385C28.6555 95.978 29.9464 94.4153 29.9464 92.4619Z" fill="white" stroke="#416388" stroke-width="0.7596" stroke-linejoin="round"/>
<path d="M126.888 94.4152C127.146 95.3268 127.662 95.8477 128.308 95.9779L137.86 97.8011C140.183 98.1918 141.99 95.7174 141.216 92.9827L140.054 89.4665C139.538 87.7735 137.989 86.9922 136.569 87.5131L128.049 90.6385C126.888 91.0292 126.371 92.8524 126.888 94.4152Z" fill="#95A2A6" stroke="#416388" stroke-width="0.7596" stroke-linejoin="round"/>
<path d="M132.051 92.4619C132.051 90.5085 133.342 88.9457 135.02 88.6853C136.827 88.555 138.505 90.248 138.505 92.4619C138.505 94.6758 136.827 96.3687 135.02 96.2385C133.342 95.978 132.051 94.4153 132.051 92.4619Z" fill="white" stroke="#416388" stroke-width="0.7596" stroke-linejoin="round"/>
<path d="M142.379 81.9135L141.863 81.653C137.99 79.8298 133.602 78.9182 129.213 78.9182H81.4518H80.5482H32.7873C28.3984 78.9182 24.0096 79.8298 20.1371 81.653L19.6207 81.9135C19.1044 82.3041 18.459 82.6948 18.459 83.0855C18.5881 83.7367 20.2662 83.8669 21.8152 84.1273C21.8152 84.1273 27.4948 84.7785 32.6582 86.3412C34.9817 86.9924 36.0144 87.383 36.918 88.1644C38.9833 89.8574 39.8869 92.7224 40.6614 94.9363C41.3068 97.0199 41.3068 97.5408 41.9522 98.3222C43.2431 99.8849 45.4375 100.145 47.1156 100.145H80.5482H114.755C116.433 100.145 118.499 99.8849 119.919 98.3222C120.693 97.5408 120.564 96.8897 121.21 94.9363C121.984 92.7224 122.888 89.8574 124.953 88.1644C125.857 87.383 127.018 86.9924 129.213 86.3412C134.376 84.7785 140.056 84.1273 140.056 84.1273C141.605 83.9971 143.283 83.7367 143.412 83.0855C143.541 82.6948 142.896 82.1739 142.379 81.9135Z" fill="#C7D8DC" stroke="#416388" stroke-width="0.7596" stroke-linejoin="round"/>
<path d="M80.9341 35.8123C94.8751 35.8123 109.332 36.203 124.306 36.9844C128.437 37.2448 132.697 37.5053 136.698 37.896L126.372 12.7619C125.21 9.89692 122.499 8.07373 119.53 8.07373H80.9341H42.4671C39.4982 8.07373 36.7875 9.89692 35.6257 12.7619L25.1699 37.896C29.3006 37.6355 33.4313 37.2448 37.562 36.9844C52.5357 36.0728 66.993 35.8123 80.9341 35.8123Z" fill="#95A2A6" stroke="#416388" stroke-width="0.7596" stroke-linejoin="round"/>
<path d="M140.314 35.8125C139.926 37.3752 139.023 39.9798 137.087 42.1937C133.472 46.6214 128.18 47.7935 124.178 48.4446C108.43 51.1794 84.1622 50.7887 80.9351 50.7887C77.708 50.7887 53.4403 51.0492 37.6921 48.4446C33.6905 47.7935 28.3981 46.4912 24.7837 42.1937C22.8475 39.8496 21.9439 37.3752 21.5566 35.8125" stroke="#416388" stroke-width="0.7596" stroke-linejoin="round"/>
<path d="M147.412 45.7099C146.638 44.2774 145.734 42.5845 144.443 40.8915C144.056 40.2404 143.54 39.7195 143.152 39.1985C143.411 38.6776 143.669 38.1567 143.927 37.6358C144.443 37.5056 145.992 37.1149 147.799 37.766C149.09 38.2869 149.994 39.1985 150.252 39.5892C149.348 41.4124 148.445 43.2356 147.541 45.0588C147.67 45.3193 147.541 45.4495 147.412 45.7099Z" fill="white" stroke="#416388" stroke-width="0.7596" stroke-linejoin="round"/>
<path d="M131.148 52.3516C132.568 52.0911 136.054 51.0493 139.281 48.054C142.379 45.0588 143.54 41.6728 143.928 40.1101" fill="#C7D8DC"/>
<path d="M131.148 52.3516C132.568 52.0911 136.054 51.0493 139.281 48.054C142.379 45.0588 143.54 41.6728 143.928 40.1101" stroke="#416388" stroke-width="0.7596" stroke-linejoin="round"/>
<path d="M143.281 53.7837C143.668 53.3931 144.056 53.0024 144.314 52.6117C145.734 50.9187 145.992 49.8769 147.154 48.8351C147.67 48.4444 148.057 48.1839 148.315 48.0537" fill="#C7D8DC"/>
<path d="M143.281 53.7837C143.668 53.3931 144.056 53.0024 144.314 52.6117C145.734 50.9187 145.992 49.8769 147.154 48.8351C147.67 48.4444 148.057 48.1839 148.315 48.0537" stroke="#416388" stroke-width="0.7596" stroke-linejoin="round"/>
<path d="M138.893 62.6396L140.7 64.9838C142.765 67.8488 145.992 69.5417 149.477 69.5417H151.026" stroke="#416388" stroke-width="0.7596" stroke-linejoin="round"/>
<path d="M80.9355 95.327H111.012C112.432 95.327 113.594 94.4154 114.11 92.9829L115.272 88.9459L81.0646 88.5552L46.8574 88.9459L48.0192 92.9829C48.4064 94.2852 49.6973 95.327 51.1172 95.327H80.9355Z" fill="#95A2A6" stroke="#416388" stroke-width="0.7596" stroke-linejoin="round"/>
</g>
<defs>
<clipPath id="clip0_1135_73400">
<rect width="162" height="137" fill="white"/>
</clipPath>
</defs>
</svg>
