<svg width="161" height="137" viewBox="0 0 161 137" fill="none" xmlns="http://www.w3.org/2000/svg">
<g opacity="0.5" clip-path="url(#clip0_1135_73355)">
<path d="M80.5647 95.0374H29.4844V112.162H35.045H66.4691C68.0209 112.162 69.4434 112.816 70.478 113.862C70.9952 114.385 71.5125 114.777 72.1591 115.3C75.392 117.522 78.8836 117.784 80.4354 117.784C81.9872 117.784 85.3494 117.522 88.7117 115.3C89.3583 114.908 90.0049 114.385 90.3928 113.862C91.5567 112.816 92.9792 112.162 94.4016 112.162H125.826H131.386V95.0374H80.5647Z" fill="#6C747B" stroke="#416388" stroke-width="0.7596" stroke-linejoin="round"/>
<path d="M35.0449 106.149H125.955" stroke="#416388" stroke-width="0.7596" stroke-linejoin="round"/>
<path d="M146.002 75.5588C147.812 73.9901 150.528 75.2973 150.528 77.6504V130.071C150.528 133.339 148.071 136.085 145.096 136.085H131.906C128.932 136.085 126.475 133.47 126.475 130.071V92.5531L146.002 75.5588Z" fill="#95A2A6" stroke="#416388" stroke-width="1.344" stroke-linejoin="round"/>
<path d="M13.9677 75.4282C12.8039 74.1209 10.6055 74.9053 10.6055 76.7355V130.071C10.6055 133.339 13.0625 136.085 16.0368 136.085H29.2272C32.2015 136.085 34.6585 133.47 34.6585 130.071V98.4358L13.9677 75.4282Z" fill="#95A2A6" stroke="#416388" stroke-width="1.344" stroke-linejoin="round"/>
<path d="M12.9316 81.7031V103.534C12.9316 105.626 14.4834 107.456 16.2939 107.456H33.6224C35.4328 107.456 36.9847 105.757 36.9847 103.534V99.6125L12.9316 81.7031Z" fill="#C7D8DC" stroke="#416388" stroke-width="0.7596" stroke-linejoin="round"/>
<path d="M147.94 81.7031V103.534C147.94 105.626 146.388 107.456 144.577 107.456H127.249C125.439 107.456 123.887 105.757 123.887 103.534V99.6125L147.94 81.7031Z" fill="#C7D8DC" stroke="#416388" stroke-width="0.7596" stroke-linejoin="round"/>
<path d="M16.0363 47.5842C16.5535 46.0155 17.3295 44.0546 18.364 42.0937C18.6226 41.7016 18.7519 41.3094 19.0106 40.9172L16.6829 36.6033L11.3809 38.3027C12.0274 39.7407 12.8033 41.3094 13.5793 42.8781C14.3552 44.5775 15.1311 46.1462 16.0363 47.5842Z" fill="white" stroke="#416388" stroke-width="0.7596" stroke-linejoin="round"/>
<path d="M19.269 32.9428C19.269 29.2824 15.0015 26.4065 9.82883 26.4065C4.65614 26.4065 0.388672 29.2824 0.388672 32.9428C0.388672 36.6031 4.65614 39.479 9.82883 39.479C15.0015 39.479 19.269 36.6031 19.269 32.9428Z" fill="#95A2A6" stroke="#416388" stroke-width="0.7596" stroke-linejoin="round"/>
<path d="M9.82966 37.2568C5.6915 37.2568 2.58789 35.0345 2.58789 33.0736C2.58789 31.1127 5.6915 28.8904 9.82966 28.8904C13.9678 28.8904 17.0714 31.1127 17.0714 33.0736C17.0714 35.0345 13.9678 37.2568 9.82966 37.2568Z" fill="#C7D8DC" stroke="#416388" stroke-width="0.7596" stroke-linejoin="round"/>
<path d="M144.965 47.5841C144.447 46.0154 143.671 44.0545 142.637 42.0936C142.378 41.7014 142.249 41.3093 141.99 40.9171L144.318 36.7339L149.62 38.4333C148.973 39.8713 148.197 41.44 147.422 43.0087C146.646 44.5774 145.87 46.1461 144.965 47.5841Z" fill="white" stroke="#416388" stroke-width="0.7596" stroke-linejoin="round"/>
<path d="M151.173 39.479C156.386 39.479 160.613 36.5526 160.613 32.9428C160.613 29.3329 156.386 26.4065 151.173 26.4065C145.959 26.4065 141.732 29.3329 141.732 32.9428C141.732 36.5526 145.959 39.479 151.173 39.479Z" fill="#95A2A6" stroke="#416388" stroke-width="0.7596" stroke-linejoin="round"/>
<path d="M151.173 37.2568C155.312 37.2568 158.415 35.0345 158.415 33.0736C158.415 31.1127 155.312 28.8904 151.173 28.8904C147.035 28.8904 143.932 31.1127 143.932 33.0736C143.932 35.0345 147.035 37.2568 151.173 37.2568Z" fill="#C7D8DC" stroke="#416388" stroke-width="0.7596" stroke-linejoin="round"/>
<path d="M80.5661 94.1221H141.733C143.932 94.1221 145.742 92.5534 146.13 90.4618L150.785 70.7223V53.728C149.751 52.4208 148.716 51.1135 147.682 49.937C147.294 47.584 146.518 44.3158 144.837 40.7863C143.414 38.041 142.638 36.7338 141.216 35.1651C139.276 29.4132 136.043 22.0926 132.552 15.2948C130.741 11.7653 128.931 8.49714 127.12 5.49046C125.698 3.13741 123.112 1.5687 120.396 1.5687C117.939 1.5687 115.611 1.43798 113.154 1.43798C102.162 1.17653 91.2995 1.0458 80.6954 1.17653C70.0914 1.17653 59.2288 1.17653 48.2368 1.43798C45.7798 1.43798 43.4521 1.5687 40.995 1.5687C38.15 1.69943 35.693 3.13741 34.2705 5.49046C32.4601 8.49714 30.6496 11.7653 28.8392 15.2948C25.3476 22.0926 22.1147 29.4132 20.1749 35.1651C18.8818 36.7338 17.9766 38.041 16.5541 40.7863C14.8729 44.3158 13.9677 47.584 13.7091 49.937C12.6745 51.2443 11.64 52.5515 10.6055 53.728V70.5916L15.2609 90.3311C15.6488 92.4227 17.5886 93.9914 19.6577 93.9914H80.5661V94.1221Z" fill="#EAF5F9" stroke="#416388" stroke-width="1.344" stroke-linejoin="round"/>
<path d="M28.1912 45.2307H17.1992C17.9751 50.0675 19.5269 55.8195 22.1133 62.225C24.053 66.8004 26.1221 70.8528 28.1912 73.9902C28.1912 64.4473 28.1912 54.9044 28.1912 45.2307Z" fill="#95A2A6" stroke="#416388" stroke-width="0.7596" stroke-linejoin="round"/>
<path d="M28.1914 45.2309V35.165" stroke="#416388" stroke-width="0.7596" stroke-linejoin="round"/>
<path d="M13.4492 49.8062C13.8372 50.852 14.3544 52.4207 14.8717 54.3815C15.5183 56.8653 15.6476 58.434 16.1649 63.2708C16.6822 66.9311 16.5528 66.4082 16.9408 68.892C17.1994 71.3758 17.5874 74.6439 17.846 78.5657H35.5625" stroke="#416388" stroke-width="0.7596" stroke-linejoin="round"/>
<path d="M40.8653 5.88264L40.2188 1.43799" stroke="#416388" stroke-width="0.7596" stroke-linejoin="round"/>
<path d="M132.809 45.2307H143.801C143.025 50.0675 141.473 55.8195 138.887 62.225C136.947 66.8004 134.878 70.8528 132.809 73.9902C132.809 64.4473 132.809 54.9044 132.809 45.2307Z" fill="#95A2A6" stroke="#416388" stroke-width="0.7596" stroke-linejoin="round"/>
<path d="M80.566 32.6811C98.0239 32.6811 115.482 32.6811 132.94 32.6811C131.258 28.1057 129.577 23.3996 127.638 18.5628C126.344 15.1639 124.922 11.8958 123.629 8.75841C122.853 7.05899 121.301 6.01318 119.491 6.01318H80.6954H41.9002C40.0897 6.01318 38.4086 7.05899 37.762 8.75841C36.4688 11.8958 35.0464 15.2947 33.7532 18.5628C31.8134 23.3996 30.1323 28.1057 28.4512 32.6811C45.6504 32.6811 63.1082 32.6811 80.566 32.6811Z" fill="#95A2A6" stroke="#416388" stroke-width="0.7596" stroke-linejoin="round"/>
<path d="M141.086 35.165H80.5658H19.916" stroke="#416388" stroke-width="0.7596" stroke-linejoin="round"/>
<path d="M132.809 45.2309V35.165" stroke="#416388" stroke-width="0.7596" stroke-linejoin="round"/>
<path d="M132.809 74.1213C132.809 76.6051 130.869 78.566 128.412 78.566H80.5649H32.5882C30.1312 78.566 28.1914 76.6051 28.1914 74.1213" stroke="#416388" stroke-width="0.7596" stroke-linejoin="round"/>
<path d="M147.551 49.8062C147.163 50.852 146.646 52.4207 146.129 54.3815C145.482 56.8653 145.353 58.434 144.835 63.2708C144.318 66.9311 144.448 66.4082 144.06 68.892C143.801 71.3758 143.413 74.6439 143.154 78.5657H125.309" stroke="#416388" stroke-width="0.7596" stroke-linejoin="round"/>
<path d="M80.5663 97.3903H138.888C142.639 97.3903 145.742 94.2529 145.613 90.3311L145.354 84.0563C145.354 82.6183 144.19 81.5725 142.768 81.5725H109.921L106.559 93.7299H80.5663H54.3149L50.9526 81.5725H18.2353C16.8129 81.5725 15.7783 82.6183 15.649 84.0563L15.5197 90.4618C15.3904 94.2528 18.3647 97.521 22.2442 97.521L80.5663 97.3903Z" fill="#95A2A6" stroke="#416388" stroke-width="0.7596" stroke-linejoin="round"/>
<path d="M132.809 61.3101H80.5649H28.1914" stroke="#416388" stroke-width="0.7596" stroke-linejoin="round"/>
<path d="M120.266 5.88252L120.783 1.43787" stroke="#416388" stroke-width="0.7596" stroke-linejoin="round"/>
<path d="M86.5148 43.5315H74.4883V48.2376H86.5148V43.5315Z" stroke="#416388" stroke-width="0.7596" stroke-linejoin="round"/>
<path d="M110.179 101.966C110.179 103.796 96.6004 105.234 79.9184 105.234C63.2365 105.234 49.6582 103.796 49.6582 101.966C49.6582 100.135 63.2365 98.6975 79.9184 98.6975C96.7297 98.6975 110.179 100.266 110.179 101.966Z" fill="#95A2A6" stroke="#416388" stroke-width="0.7596" stroke-linejoin="round"/>
<path d="M101.126 102.75C101.126 103.665 91.686 104.319 80.0475 104.319C68.4089 104.319 58.9688 103.665 58.9688 102.75C58.9688 101.835 68.4089 101.181 80.0475 101.181C91.686 101.181 101.126 101.966 101.126 102.75Z" fill="#C7D8DC" stroke="#416388" stroke-width="0.7596" stroke-linejoin="round"/>
<path d="M49.7871 101.966V97.3901" stroke="#416388" stroke-width="0.7596" stroke-linejoin="round"/>
<path d="M110.18 101.966V97.3901" stroke="#416388" stroke-width="0.7596" stroke-linejoin="round"/>
<path d="M89.3592 3.39868H70.9961V5.62101H89.3592V3.39868Z" fill="#C7D8DC" stroke="#416388" stroke-width="0.7596" stroke-linejoin="round"/>
<path d="M118.844 100.266H110.697C107.722 100.266 105.395 102.75 105.395 105.626V106.541C105.395 109.548 107.852 111.901 110.697 111.901H118.844C121.818 111.901 124.146 109.417 124.146 106.541V105.626C124.275 102.75 121.818 100.266 118.844 100.266Z" fill="#95A2A6" stroke="#416388" stroke-width="0.7596" stroke-linejoin="round"/>
<path d="M118.067 106.149C118.067 104.449 116.645 103.011 114.834 103.011C113.024 103.011 111.602 104.449 111.602 106.149C111.602 107.848 113.024 109.286 114.834 109.286C116.645 109.286 118.067 107.979 118.067 106.149Z" fill="#555D5F" stroke="#416388" stroke-width="0.7596" stroke-linejoin="round"/>
</g>
<defs>
<clipPath id="clip0_1135_73355">
<rect width="161" height="137" fill="white"/>
</clipPath>
</defs>
</svg>
