<svg width="354" height="112" viewBox="0 0 354 112" fill="none" xmlns="http://www.w3.org/2000/svg">
<g opacity="0.5" clip-path="url(#clip0_1135_73065)">
<path d="M13.9004 93.1L44.2004 99L297.9 98.7L312.3 89.2C312 69.7 296 54 277.2 53.9C257.6 53.8 240.7 70.7 241.6 91.4C195.1 91.5 148.5 91.5 102 91.7C103 70.8 87.0004 53.3 68.0004 52.2C47.5004 50.9 28.5004 68.9 29.2004 91.5C24.1004 92 19.0004 92.5 13.9004 93.1Z" fill="#6C767A" stroke="#416388" stroke-width="0.6782" stroke-linejoin="round"/>
<path d="M352.5 70.4L351.1 68.3L351.2 59.2C351.2 58.2 350.9 57.1 350.4 56.4L344.9 48.2L320.9 45.6L314.5 40.5L345.299 35.2C346.099 33.8 346.7 32.4 347.5 31.1C341.6 29.9 335.6 28.8 329.7 27.6C328.5 27.7 326.1 28 326.1 28C316.9 25.6 307.4 23 297.7 20.2C286.9 17.1 276.4 13.9 266.2 10.7L267.1 7.50001C247.7 3.30001 222.799 -0.0999947 193.899 0.800005C176.299 1.30001 160.599 3.40001 146.999 6.10001C147.599 7.00001 148.299 7.8 148.899 8.7C140.199 11.5 130.2 15.2 119.6 20.4C112.8 23.9 106.5 27.3 101 30.8C98.2995 32.5 95.2995 33.5 92.0995 33.9C90.1995 34.2 88.1995 34.4 86.4995 34.3L84.2995 33.3L81.8995 32.1C68.8995 32.5 51.5995 33.5 31.9995 40.4C19.9995 44.5 10.0995 49.5 2.0995 54.3C1.5995 56.4 1.1995 58.7 0.899501 61.4C0.499501 64.4 2.2995 83.9 2.5995 86C2.6995 86.6 2.6995 87.3 2.8995 87.8C3.2995 90.1 5.0995 91.9 7.3995 92.3C9.5995 92.6 11.5995 92.8 13.7995 93.2C21.0995 94.1 35.0995 95.1 35.0995 95.1C32.6995 79.8 39.6995 65.3 51.8995 59C52.6995 58.6 65.2995 52.5 78.1995 58.4C90.9995 64.3 98.6995 79.5 96.1995 96C194.399 96.3 248.6 96.4 248.6 96.4C248.6 96.4 245.1 70.5 263.9 60.9C277.1 54 293.9 59.1 301.1 68.2C308.2 77.1 309.299 94 309.299 94.1C311.599 94 324.5 93.6 334.1 92.3C335.9 92 338.7 91.7 341.9 90.1C345 88.6 347.2 86.6 348.2 85.6C350.3 83.5 351.7 81.5 352.4 79.8C352.8 79 353 78.3 353 77.4V72.8C353.2 72 353 71.1 352.5 70.4Z" fill="#EAF5F9" stroke="#416388" stroke-width="1.2" stroke-linejoin="round"/>
<path d="M102.1 36.6L270 30.9C273.2 30.8 276.2 29.6 278.6 27.4L281.6 24.8C282.9 23.6 282.5 21.5 280.8 21C271.4 17.8 258.5 14.1 242.8 11.2C221.6 7.4 190.9 1.8 155 11.5C142.5 14.8 123.1 21.6 102.1 36.6Z" stroke="#416388" stroke-width="0.6782" stroke-linejoin="round"/>
<path d="M7.20015 72.4C8.10015 71.2 8.40015 69.7 8.20015 68.2C7.70015 65.2 6.70015 61.5 4.60015 57.8C3.70015 56.2 2.80015 55 2.10015 54C1.60015 58.4 1.30015 63.6 1.50015 69.4C1.60015 72 1.80015 74.4 2.10015 76.8C3.00015 76.3 4.30015 75.5 5.70015 74.1C6.20015 73.6 6.70015 73 7.20015 72.4Z" fill="#99A5A9" stroke="#416388" stroke-width="0.6782" stroke-linejoin="round"/>
<path d="M9.99928 78.1L20.6993 75.5C22.4993 75.1 24.1993 76.1 24.6993 77.8L25.4993 80.5C26.0993 82.6 24.6993 84.7 22.4993 85L11.2993 86C9.79928 86.1 8.29928 85.2 7.79928 83.7C7.79928 83.4 7.69928 83.1 7.49928 82.7C6.89928 80.7 8.09928 78.6 9.99928 78.1Z" fill="#99A5A9" stroke="#416388" stroke-width="0.6782" stroke-linejoin="round"/>
<path d="M22.8996 80.3C22.8996 78.4 22.2996 76.8 21.4996 76.8C20.6996 76.8 20.0996 78.3 20.0996 80.3C20.0996 82.3 20.6996 83.8 21.4996 83.8C22.1996 83.6 22.8996 82.1 22.8996 80.3Z" fill="white" stroke="#416388" stroke-width="0.6782" stroke-linejoin="round"/>
<path d="M92.2 33.9C95.3 33.5 98.4 32.5 101.1 30.8C106.6 27.3 112.9 23.9 119.8 20.4C130.3 15.3 140.3 11.4 149.1 8.70001C148.5 7.80001 147.8 7.00001 147.2 6.10001C137.8 9.30001 127.9 13 117.5 17.4C105.4 22.5 94.4 27.9 84.5 33.2L86.7 34.2C88.3 34.4 90.3 34.1 92.2 33.9Z" fill="#99A5A9" stroke="#416388" stroke-width="0.6782" stroke-linejoin="round"/>
<path d="M189.599 8.5C177.799 9 166.599 10.7 155.399 13.6C139.499 17.8 124.099 24.6 109.699 34L182.199 31.6C184.299 25.3 187.699 14.5 189.599 8.5Z" fill="#99A5A9" stroke="#416388" stroke-width="0.6782" stroke-linejoin="round"/>
<path d="M242.8 13.5C242.7 13.5 242.4 13.5 242.3 13.4C230.9 11.3 216.9 8.80001 200.7 8.40001L198.9 31L253.1 29.2L242.8 13.5Z" fill="#99A5A9" stroke="#416388" stroke-width="0.6782" stroke-linejoin="round"/>
<path d="M249.9 14.9L260.5 29L269.9 28.7C272.5 28.6 275 27.5 277 25.9L280 23.2C270.2 19.8 260 17.1 249.9 14.9Z" fill="#99A5A9" stroke="#416388" stroke-width="0.6782" stroke-linejoin="round"/>
<path d="M297.8 20.4C307.4 23.2 316.9 25.8 326.2 28.2C326.2 28.2 328.6 27.9 329.8 27.8C319.4 23.8 308.5 20 296.8 16.3C286.7 13.1 276.8 10.1 267.3 7.70001L266.4 10.9C276.4 14.1 287 17.3 297.8 20.4Z" fill="#99A5A9" stroke="#416388" stroke-width="0.6782" stroke-linejoin="round"/>
<path d="M31.6992 45.2C42.5992 41.9 51.8992 40.2 58.4992 39.2C67.3992 37.9 74.7992 37.5 84.0992 37.1C91.4992 36.7 97.6992 36.6 102.099 36.6" stroke="#416388" stroke-width="0.6782" stroke-linejoin="round"/>
<path d="M28.0996 53.6C33.1996 57.7 38.1996 61.7 43.3996 65.8" stroke="#416388" stroke-width="0.6782" stroke-linejoin="round"/>
<path d="M179.1 42.3C179.1 41.5 175.5 41 171.1 41.1C166.7 41.2 163.1 41.9 163.1 42.6C163.1 43.4 166.7 43.9 171.1 43.8C175.7 43.7 179.1 43.1 179.1 42.3Z" stroke="#416388" stroke-width="0.6782" stroke-linejoin="round"/>
<path d="M261.6 41.1C261.6 40.3 258 39.8 253.6 39.9C249.2 40 245.6 40.7 245.6 41.4C245.6 42.2 249.2 42.7 253.6 42.6C258 42.5 261.6 41.7 261.6 41.1Z" stroke="#416388" stroke-width="0.6782" stroke-linejoin="round"/>
<path d="M195.2 6.20001L189.7 33.7C188.7 37.3 187.8 41.1 186.9 45.2C183.6 61.9 183.8 77 185.1 89.3" stroke="#416388" stroke-width="0.6782" stroke-linejoin="round"/>
<path d="M107.899 36.6C106.499 40.7 105.099 45.3 104.199 50.6C101.399 66.5 103.699 80.2 105.999 89.3C149.899 89.3 193.799 89.3 237.599 89.3C246.699 76.3 253.999 66 260.999 56.7C263.999 52.6 268.599 46.6 267.199 39.6C266.399 35.8 263.999 32.9 262.199 31.1C257.399 24.8 252.599 18.5 247.799 12.1" stroke="#416388" stroke-width="0.6782" stroke-linejoin="round"/>
<path d="M32 45.2C31.9 45.2 31.9 45.2 31.7 45.2C28 46.1 23.4 47.4 18.5 49.6C14 51.7 10.2 53.8 7.09996 55.9C6.49996 56.3 6.79996 57.2 7.59996 57.2C10.7 56.9 13.8 56.4 17.1 55.9C27.9 54.1 37.5 51.3 45.6 48.2C46.2 47.9 46.1 46.9 45.5 46.9C41 46.2 36.5 45.7 32 45.2Z" fill="#99A5A9"/>
<path d="M321 45.8L345 48.4C345.4 46.5 345.8 44 345.8 41.3C345.8 39.1 345.7 37.2 345.4 35.5L314.6 40.8L321 45.8Z" fill="#99A5A9"/>
<path d="M32 45.2C31.9 45.2 31.9 45.2 31.7 45.2C28 46.1 23.4 47.4 18.5 49.6C14 51.7 10.2 53.8 7.09996 55.9C6.49996 56.3 6.79996 57.2 7.59996 57.2C10.7 56.9 13.8 56.4 17.1 55.9C27.9 54.1 37.5 51.3 45.6 48.2C46.2 47.9 46.1 46.9 45.5 46.9C41 46.2 36.5 45.7 32 45.2Z" fill="white" stroke="#416388" stroke-width="0.6782" stroke-linejoin="round"/>
<path d="M321 45.8L345 48.4C345.4 46.5 345.8 44 345.8 41.3C345.8 39.1 345.7 37.2 345.4 35.5L314.6 40.8L321 45.8Z" fill="#99A5A9" stroke="#416388" stroke-width="0.6782" stroke-linejoin="round"/>
<path d="M32 45.2C31.9 45.2 31.9 45.2 31.7 45.2C28 46.1 23.4 47.4 18.5 49.6C14 51.7 10.2 53.8 7.09996 55.9C6.49996 56.3 6.79996 57.2 7.59996 57.2C10.7 56.9 13.8 56.4 17.1 55.9C27.9 54.1 37.5 51.3 45.6 48.2C46.2 47.9 46.1 46.9 45.5 46.9C41 46.2 36.5 45.7 32 45.2Z" stroke="#2B3032" stroke-width="0.6782" stroke-linejoin="round"/>
<path d="M321 45.8L345 48.4C345.4 46.5 345.8 44 345.8 41.3C345.8 39.1 345.7 37.2 345.4 35.5L314.6 40.8L321 45.8Z" stroke="#2B3032" stroke-width="0.6782" stroke-linejoin="round"/>
<path d="M278.399 111.2C292.499 111.2 303.999 100.1 303.999 86.3C303.999 72.6 292.599 61.4 278.399 61.4C264.299 61.4 252.799 72.5 252.799 86.3C252.799 100.1 264.299 111.2 278.399 111.2Z" fill="#99A5A9" stroke="#416388" stroke-width="1.2" stroke-linejoin="round"/>
<path d="M278.4 105.2C289.1 105.2 297.8 96.8 297.8 86.3C297.8 75.8 289.1 67.4 278.4 67.4C267.7 67.4 259 75.8 259 86.3C259 96.8 267.7 105.2 278.4 105.2Z" fill="white" stroke="#416388" stroke-width="0.6782" stroke-linejoin="round"/>
<path d="M280.399 86.2C280.399 87.2 279.499 88.1 278.299 88.1C277.099 88.1 276.199 87.2 276.199 86.2C276.199 85.2 277.099 84.3 278.299 84.3C279.399 84.2 280.399 85.1 280.399 86.2Z" stroke="#416388" stroke-width="0.6782" stroke-linecap="round" stroke-linejoin="round"/>
<path d="M278.399 103.4C278.999 103.4 279.799 103.4 280.599 103.3C280.899 103.3 281.099 103.2 281.399 103.2C281.699 103.1 281.999 102.9 282.199 102.7L283.199 101.4C283.599 100.9 283.599 100.1 283.199 99.6L279.499 95C278.999 94.2 277.799 94.2 277.299 95L273.599 99.6C273.199 100.1 273.199 100.9 273.599 101.4L274.599 102.7C274.899 103 275.099 103.1 275.399 103.2C275.699 103.2 275.899 103.3 276.199 103.3C276.999 103.4 277.699 103.4 278.399 103.4Z" fill="#D2DBDD" stroke="#416388" stroke-width="0.6782" stroke-linejoin="round"/>
<path d="M294.599 91.6C294.899 91 294.999 90.3 295.099 89.5C295.099 89.2 295.199 89 295.199 88.7C295.199 88.3 295.199 88.1 294.899 87.8L293.999 86.4C293.599 85.9 292.999 85.6 292.299 85.9L286.799 88C285.899 88.4 285.599 89.4 286.199 90.1L289.499 95.1C289.899 95.6 290.499 95.9 291.199 95.6L292.699 95C292.999 94.9 293.199 94.6 293.499 94.4C293.599 94.1 293.799 93.9 293.899 93.6C294.199 92.9 294.399 92.1 294.599 91.6Z" fill="#D2DBDD" stroke="#416388" stroke-width="0.6782" stroke-linejoin="round"/>
<path d="M288.6 72.6C288.1 72.2 287.6 71.8 286.8 71.4C286.5 71.3 286.3 71.1 286 71C285.7 70.9 285.4 70.9 285.1 70.9L283.4 71.3C282.8 71.4 282.4 72.1 282.4 72.7L282.5 78.6C282.5 79.5 283.4 80.1 284.3 79.9L290.1 78.4C290.7 78.3 291.1 77.6 291.1 77V75.3C291.1 74.9 291 74.7 290.7 74.4C290.6 74.1 290.3 74 290.2 73.8C289.8 73.5 289.2 73 288.6 72.6Z" fill="#D2DBDD" stroke="#416388" stroke-width="0.6782" stroke-linejoin="round"/>
<path d="M268.1 72.7C267.6 73.1 267.1 73.5 266.4 74.1C266.1 74.4 266 74.5 265.9 74.7C265.6 75 265.5 75.2 265.5 75.6V77.3C265.5 77.9 265.9 78.6 266.5 78.7L272.3 80.2C273.2 80.5 274.1 79.8 274.1 78.9L274.2 73C274.2 72.4 273.8 71.7 273.2 71.6L271.5 71.2C271.2 71.1 270.9 71.2 270.6 71.3C270.3 71.4 270.1 71.6 269.8 71.7C269.1 71.8 268.6 72.4 268.1 72.7Z" fill="#D2DBDD" stroke="#416388" stroke-width="0.6782" stroke-linejoin="round"/>
<path d="M262.1 91.6C262.2 92.2 262.5 92.9 262.9 93.7C263 94 263.2 94.2 263.3 94.5C263.4 94.8 263.7 95 264.1 95.1L265.8 95.7C266.4 96 267.1 95.7 267.5 95.2L270.8 90.2C271.3 89.4 270.9 88.4 270.2 88.1L264.7 86C264.1 85.7 263.4 86 263 86.5L262.1 87.9C262 88.2 261.8 88.5 261.8 88.8C261.8 89.1 261.8 89.3 261.9 89.6C261.6 90.3 261.8 91 262.1 91.6Z" fill="#D2DBDD" stroke="#416388" stroke-width="0.6782" stroke-linejoin="round"/>
<path d="M66.0996 111.2C80.1996 111.2 91.6996 100.1 91.6996 86.3C91.6996 72.6 80.2996 61.4 66.0996 61.4C51.8996 61.4 40.5996 72.6 40.5996 86.3C40.5996 100.1 51.9996 111.2 66.0996 111.2Z" fill="#99A5A9" stroke="#416388" stroke-width="1.2" stroke-linejoin="round"/>
<path d="M66.0992 105.2C76.7992 105.2 85.4992 96.8 85.4992 86.3C85.4992 75.8 76.7992 67.4 66.0992 67.4C55.3992 67.4 46.6992 75.8 46.6992 86.3C46.6992 96.8 55.3992 105.2 66.0992 105.2Z" fill="white" stroke="#416388" stroke-width="0.6782" stroke-linejoin="round"/>
<path d="M68.2 86.2C68.2 87.2 67.3 88.1 66.1 88.1C64.9 88.1 64 87.2 64 86.2C64 85.2 64.9 84.3 66.1 84.3C67.3 84.2 68.2 85.1 68.2 86.2Z" stroke="#416388" stroke-width="0.6782" stroke-linecap="round" stroke-linejoin="round"/>
<path d="M66.1 103.4C66.7 103.4 67.5 103.4 68.3 103.3C68.6 103.3 68.8 103.2 69.1 103.2C69.4 103.1 69.7 102.9 69.9 102.7L70.9 101.4C71.3 100.9 71.3 100.1 70.9 99.6L67.2 95C66.7 94.2 65.5 94.2 65 95L61.3 99.6C60.9 100.1 60.9 100.9 61.3 101.4L62.3 102.7C62.6 103 62.8 103.1 63.1 103.2C63.4 103.2 63.6 103.3 63.9 103.3C64.8 103.4 65.5 103.4 66.1 103.4Z" fill="#D2DBDD" stroke="#416388" stroke-width="0.6782" stroke-linejoin="round"/>
<path d="M82.3993 91.6C82.6993 91 82.7993 90.3 82.8993 89.5C82.8993 89.2 82.9993 89 82.9993 88.7C82.9993 88.3 82.9993 88.1 82.6993 87.8L81.7993 86.4C81.3993 85.9 80.7993 85.6 80.0993 85.9L74.6993 88C73.7993 88.4 73.4993 89.4 74.0993 90.1L77.3993 95.1C77.7993 95.6 78.3993 95.9 79.0993 95.6L80.5993 95C80.8993 94.9 81.0993 94.6 81.3993 94.4C81.4993 94.1 81.6993 93.9 81.7993 93.6C81.9993 92.9 82.2993 92.1 82.3993 91.6Z" fill="#D2DBDD" stroke="#416388" stroke-width="0.6782" stroke-linejoin="round"/>
<path d="M76.4988 72.6C75.9988 72.2 75.4988 71.8 74.6988 71.4C74.3988 71.3 74.1988 71.1 73.8988 71C73.5988 70.9 73.2988 70.9 72.9988 70.9L71.2988 71.3C70.6988 71.4 70.2988 72.1 70.2988 72.7L70.3988 78.6C70.3988 79.5 71.2988 80.1 72.1988 79.9L77.9988 78.4C78.5988 78.3 78.9988 77.6 78.9988 77V75.3C78.9988 74.9 78.8988 74.7 78.5988 74.4C78.4988 74.1 78.1988 74 78.0988 73.8C77.5988 73.5 76.9988 73 76.4988 72.6Z" fill="#D2DBDD" stroke="#416388" stroke-width="0.6782" stroke-linejoin="round"/>
<path d="M55.8988 72.7C55.3988 73.1 54.8988 73.5 54.1988 74.1C53.8988 74.4 53.7988 74.5 53.6988 74.7C53.3988 75 53.2988 75.2 53.2988 75.6V77.3C53.2988 77.9 53.6988 78.6 54.2988 78.7L60.0988 80.2C60.9988 80.5 61.8988 79.8 61.8988 78.9L61.9988 73C61.9988 72.4 61.5988 71.7 60.9988 71.6L59.2988 71.2C58.9988 71.1 58.6988 71.2 58.3988 71.3C58.0988 71.4 57.8988 71.6 57.5988 71.7C56.9988 71.8 56.3988 72.4 55.8988 72.7Z" fill="#D2DBDD" stroke="#416388" stroke-width="0.6782" stroke-linejoin="round"/>
<path d="M49.8004 91.6C49.9004 92.2 50.2004 92.9 50.6004 93.7C50.7004 94 50.9004 94.2 51.0004 94.5C51.1004 94.8 51.4004 95 51.8004 95.1L53.5004 95.7C54.1004 96 54.8004 95.7 55.2004 95.2L58.5004 90.2C59.0004 89.4 58.6004 88.4 57.9004 88.1L52.4004 86C51.8004 85.7 51.1004 86 50.7004 86.5L49.7004 88C49.6004 88.3 49.4004 88.6 49.4004 88.9C49.4004 89.2 49.4004 89.4 49.5004 89.7C49.4004 90.3 49.6004 91 49.8004 91.6Z" fill="#D2DBDD" stroke="#416388" stroke-width="0.6782" stroke-linejoin="round"/>
<path d="M295.199 62.9L304.799 60.8C309.399 59.8 313.499 57 316.099 53.1L320.899 45.9C323.699 48.6 328.599 52.6 335.399 55.5C341.699 58.2 347.299 59.1 351.199 59.5" stroke="#416388" stroke-width="0.6782" stroke-linejoin="round"/>
<path d="M46 47.3C92.5 43.7 141.5 41.1 192.8 40.1C234.9 39.2 275.6 39.5 314.5 40.6" stroke="#416388" stroke-width="0.6782" stroke-linejoin="round"/>
<path d="M308 84.7C314.5 84.6 320.1 84.2 324.7 83.9C334.3 83.3 337 82.7 339.7 81.2C341.8 80 341.9 79.4 346 76.5C349 74.3 351.5 72.8 353.3 71.8" stroke="#416388" stroke-width="0.6782" stroke-linejoin="round"/>
<path d="M10.6988 53.6C10.3988 52.7 8.29883 50.6 8.29883 50.6" stroke="#416388" stroke-width="0.6782" stroke-linejoin="round"/>
<path d="M120.6 33.9L124.6 36.6C122.9 37.9 121.3 39.3 119.6 40.6C119.5 40.6 118.3 40.9 117.4 40C116.6 39.4 116.6 38.3 116.6 38.2L120.6 33.9Z" fill="#D2DBDD" stroke="#416388" stroke-width="0.6782" stroke-linejoin="round"/>
<path d="M130.7 28.1C129.7 28 128.4 28 127.2 28C124.2 28.1 121 28.1 119.9 30.1C119 31.5 119.6 33.4 120.5 34.5C122.3 36.7 126 37.3 128.7 36.4C129.3 33.5 129.9 30.8 130.7 28.1Z" fill="#99A5A9" stroke="#416388" stroke-width="0.6782" stroke-linejoin="round"/>
</g>
<defs>
<clipPath id="clip0_1135_73065">
<rect width="354" height="112" fill="white"/>
</clipPath>
</defs>
</svg>
