<svg width="159" height="112" viewBox="0 0 159 112" fill="none" xmlns="http://www.w3.org/2000/svg">
<g opacity="0.5" clip-path="url(#clip0_1135_73146)">
<path d="M135.301 89.4H23.3008V96.5H135.201V89.4H135.301Z" fill="#6C767A" stroke="#416388" stroke-width="0.6782" stroke-linejoin="round"/>
<path d="M12.8012 43.5C13.3012 42.1 14.0012 40.4 14.9012 38.7C15.2012 38.3 15.3012 37.9 15.5012 37.7L13.4012 34L8.70117 35.5C9.30117 36.8 10.0012 38.2 10.6012 39.5C11.3012 40.9 12.1012 42.2 12.8012 43.5Z" fill="white" stroke="#416388" stroke-width="0.6782" stroke-miterlimit="10"/>
<path d="M15.0004 30.7C15.0004 28.1 11.8004 25.9 7.70039 25.9C3.60039 25.9 0.400391 28 0.400391 30.7C0.400391 33.4 3.60039 35.5 7.70039 35.5C11.7004 35.4 15.0004 33.3 15.0004 30.7Z" fill="#99A5A9" stroke="#416388" stroke-width="0.6782" stroke-linejoin="round"/>
<path d="M7.69961 33.7C10.7996 33.7 13.2996 32.4 13.2996 30.7C13.2996 29.1 10.7996 27.7 7.69961 27.7C4.59961 27.7 2.09961 29 2.09961 30.7C2.09961 32.3 4.59961 33.7 7.69961 33.7Z" fill="#D2DBDD" stroke="#416388" stroke-width="0.6782" stroke-miterlimit="10"/>
<path d="M146.2 43.5C145.7 42.1 145 40.4 144.1 38.7C143.8 38.3 143.7 37.9 143.5 37.7L145.6 34L150.3 35.5C149.7 36.8 149 38.2 148.4 39.5C147.6 40.9 146.9 42.2 146.2 43.5Z" fill="white" stroke="#416388" stroke-width="0.6782" stroke-miterlimit="10"/>
<path d="M144 30.7C144 28.1 147.2 25.9 151.3 25.9C155.3 25.9 158.6 28 158.6 30.7C158.6 33.4 155.4 35.5 151.3 35.5C147.3 35.4 144 33.3 144 30.7Z" fill="#99A5A9" stroke="#416388" stroke-width="0.6782" stroke-linejoin="round"/>
<path d="M151.301 33.7C154.401 33.7 156.901 32.4 156.901 30.7C156.901 29.1 154.401 27.7 151.301 27.7C148.201 27.7 145.701 29 145.701 30.7C145.701 32.3 148.201 33.7 151.301 33.7Z" fill="#D2DBDD" stroke="#416388" stroke-width="0.6782" stroke-miterlimit="10"/>
<path d="M9.70117 62.6V63.5V106.9C9.70117 109.4 11.6012 111.3 14.1012 111.3H24.7012C27.1012 111.3 29.1012 109.4 29.1012 106.9V91.4L9.70117 62.6Z" fill="#99A5A9" stroke="#416388" stroke-width="1.2" stroke-linejoin="round"/>
<path d="M149.3 62.6V63.5V106.9C149.3 109.4 147.4 111.3 144.9 111.3H134.3C131.9 111.3 129.9 109.4 129.9 106.9V91.4L149.3 62.6Z" fill="#99A5A9" stroke="#416388" stroke-width="1.2" stroke-linejoin="round"/>
<path d="M79.5004 92.8H141.3C143.2 92.8 145 91.4 145.4 89.4L149.4 70.4V49C148.4 47.3 147.5 45.8 146.5 44.1C146 42.6 145.3 40.6 144.3 38.7C142.9 36.1 141.4 34.1 140.1 32.6C138.6 28.1 136.5 23.1 133.8 17.6C131.6 13.3 129.3 9.50001 127.1 6.20001C125.6 4.00001 123.1 2.60001 120.6 2.30001C118.5 2.20001 116.5 2.00001 114.4 1.90001C102.2 1.00001 90.7004 0.600006 79.5004 0.600006C68.3004 0.800006 56.8004 1.00001 44.9004 1.90001C42.8004 2.00001 40.8004 2.20001 38.7004 2.30001C36.0004 2.60001 33.6004 4.00001 32.2004 6.20001C30.0004 9.60001 27.7004 13.3 25.5004 17.6C22.8004 23 20.8004 28.1 19.2004 32.6C18.0004 33.9 16.4004 36 15.0004 38.6C14.0004 40.5 13.2004 42.5 12.8004 44C11.8004 45.7 10.9004 47.2 9.90039 48.9V70.3L13.9004 89.3C14.3004 91.2 16.0004 92.7 18.0004 92.7H79.5004V92.8Z" fill="#EAF5F9" stroke="#416388" stroke-width="1.2" stroke-linejoin="round"/>
<path d="M17.7996 44.1C17.6996 45.8 17.6996 49.1 18.2996 51.8V52C19.4996 56.6 23.6996 59.9 28.3996 59.9H79.3996" stroke="#416388" stroke-width="0.6782" stroke-linejoin="round"/>
<path d="M79.5004 28C90.0004 28 100.4 28 110.9 28C116.2 28 121.4 27.5 126.5 26.5C126.6 26.5 126.6 26.5 126.8 26.5C126.7 23.1 126.3 19.5 125.8 15.8C125.5 13.7 125.2 11.8 124.8 10C118.1 9.50001 111.2 9.10001 104.2 9.00001C95.7004 8.70001 87.5004 8.60001 79.6004 8.70001C71.6004 8.70001 63.4004 8.70001 55.0004 9.00001C47.9004 9.10001 41.0004 9.50001 34.4004 9.90001C34.0004 11.7 33.6004 13.6 33.4004 15.7C32.8004 19.6 32.5004 23.1 32.4004 26.4C32.5004 26.4 32.5004 26.4 32.7004 26.4C37.8004 27.4 43.1004 27.9 48.3004 27.9C58.6004 28 69.0004 28 79.5004 28Z" fill="#99A5A9" stroke="#416388" stroke-width="0.6782" stroke-linejoin="round"/>
<path d="M141.2 44.1C141.3 45.8 141.3 49.1 140.7 51.8V52C139.5 56.6 135.3 59.9 130.6 59.9H79.5996" stroke="#416388" stroke-width="0.6782" stroke-linejoin="round"/>
<path d="M17.5996 38.1C17.5996 40.2 17.6996 42.2 17.6996 44.2C27.9996 45 38.1996 45.7 48.4996 46.5L52.6996 40.6C48.6996 38.5 41.1996 35.4 31.3996 35.6C25.7996 35.6 20.9996 36.9 17.5996 38.1Z" fill="#99A5A9" stroke="#416388" stroke-width="0.6782" stroke-linejoin="round"/>
<path d="M141.301 38.1C141.301 40.2 141.201 42.2 141.201 44.2C130.901 45 120.701 45.7 110.401 46.5L106.201 40.6C110.201 38.5 117.701 35.4 127.501 35.6C133.201 35.6 138.001 36.9 141.301 38.1Z" fill="#99A5A9" stroke="#416388" stroke-width="0.6782" stroke-linejoin="round"/>
<path d="M45.3 80.6L39.8 84.5C39 85 38.1 85.4 37.1 85.4H26.5C27.8 84.1 30 82.3 33.2 81.1C38.7 79.1 43.5 80.1 45.3 80.6Z" fill="#99A5A9" stroke="#416388" stroke-width="0.6782" stroke-linejoin="round"/>
<path d="M113.701 80.6L119.201 84.5C120.001 85 120.901 85.4 121.901 85.4H132.401C131.101 84.1 128.901 82.3 125.701 81.1C120.301 79.1 115.501 80.1 113.701 80.6Z" fill="#99A5A9" stroke="#416388" stroke-width="0.6782" stroke-linejoin="round"/>
<path d="M145.9 86.8H139.7L137.3 84.5C132.2 79.6 125.4 76.9 118.3 76.9H79.5H40.6C33.5 76.9 26.8 79.6 21.6 84.5L19.2 86.8H13" stroke="#416388" stroke-width="0.6782" stroke-linejoin="round"/>
<path d="M106.201 40.5H79.5008H52.8008" stroke="#416388" stroke-width="0.6782" stroke-linejoin="round"/>
<path d="M110.4 46.5L107.5 49.2C105.6 51 103 52 100.3 52H79.4996H58.6996C55.9996 52 53.3996 51 51.4996 49.2L48.5996 46.5" stroke="#416388" stroke-width="0.6782" stroke-linejoin="round"/>
<path d="M34.2012 9.8C34.6012 8.5 35.1012 7.1 35.9012 5.5C36.5012 4.3 37.2012 3.3 37.7012 2.5" fill="white"/>
<path d="M34.2012 9.8C34.6012 8.5 35.1012 7.1 35.9012 5.5C36.5012 4.3 37.2012 3.3 37.7012 2.5" stroke="#416388" stroke-width="0.6782" stroke-linejoin="round"/>
<path d="M124.801 9.8C124.401 8.5 123.901 7.1 123.101 5.5C122.501 4.3 121.801 3.3 121.301 2.5" fill="white"/>
<path d="M124.801 9.8C124.401 8.5 123.901 7.1 123.101 5.5C122.501 4.3 121.801 3.3 121.301 2.5" stroke="#416388" stroke-width="0.6782" stroke-linejoin="round"/>
<path d="M17.8008 44.1C15.1008 49.5 12.5008 54.8 9.80078 60.2" stroke="#416388" stroke-width="0.6782" stroke-linejoin="round"/>
<path d="M141.201 44.1C143.901 49.5 146.601 54.9 149.301 60.4" stroke="#416388" stroke-width="0.6782" stroke-linejoin="round"/>
<path d="M89.5004 8.60001H69.4004V11H89.5004V8.60001Z" fill="#D2DBDD" stroke="#416388" stroke-width="0.6782" stroke-linejoin="round"/>
<path d="M110.9 88.5H105.6C103.7 88.5 102.1 90 102.1 92V92.6C102.1 94.5 103.6 96.1 105.6 96.1H110.9C112.8 96.1 114.4 94.6 114.4 92.6V92C114.4 90.1 112.8 88.5 110.9 88.5Z" fill="#99A5A9" stroke="#416388" stroke-width="0.6782" stroke-linejoin="round"/>
<path d="M110.401 92.3C110.401 91.1 109.501 90.2 108.301 90.2C107.101 90.2 106.201 91.1 106.201 92.3C106.201 93.5 107.101 94.4 108.301 94.4C109.501 94.4 110.401 93.4 110.401 92.3Z" fill="#576164" stroke="#416388" stroke-width="0.6782" stroke-linejoin="round"/>
<path d="M52.8 88.5H47.5C45.6 88.5 44 90 44 92V92.6C44 94.5 45.5 96.1 47.5 96.1H52.8C54.7 96.1 56.3 94.6 56.3 92.6V92C56.3 90.1 54.8 88.5 52.8 88.5Z" fill="#99A5A9" stroke="#416388" stroke-width="0.6782" stroke-linejoin="round"/>
<path d="M52.2996 92.3C52.2996 91.1 51.3996 90.2 50.1996 90.2C48.9996 90.2 48.0996 91.1 48.0996 92.3C48.0996 93.5 48.9996 94.4 50.1996 94.4C51.3996 94.3 52.2996 93.4 52.2996 92.3Z" fill="#576164" stroke="#416388" stroke-width="0.6782" stroke-linejoin="round"/>
</g>
<defs>
<clipPath id="clip0_1135_73146">
<rect width="159" height="112" fill="white"/>
</clipPath>
</defs>
</svg>
