<svg width="155" height="112" viewBox="0 0 155 112" fill="none" xmlns="http://www.w3.org/2000/svg">
<g opacity="0.5" clip-path="url(#clip0_1135_73113)">
<path d="M131.799 86.1H23.1992V96.2H131.899V86.1H131.799Z" fill="#6C767A" stroke="#416388" stroke-width="0.6782" stroke-linejoin="round"/>
<path d="M110.1 87.6H45V97.7H110.1V87.6Z" fill="#6C767A" stroke="#416388" stroke-width="0.6782" stroke-linejoin="round"/>
<path d="M8.5 62.9V63.8V107C8.5 109.4 10.4 111.4 12.9 111.4H23.6C26 111.4 28 109.5 28 107V91.6L8.5 62.9Z" fill="#99A5A9" stroke="#416388" stroke-width="1.2" stroke-linejoin="round"/>
<path d="M146.5 62.9V63.8V107C146.5 109.4 144.6 111.4 142.1 111.4H131.4C129 111.4 127 109.5 127 107V91.6L146.5 62.9Z" fill="#99A5A9" stroke="#416388" stroke-width="1.2" stroke-linejoin="round"/>
<path d="M77.5992 91.4H140.199C141.999 91.4 143.499 90.1 143.799 88.4C144.699 83.5 145.199 79.5 145.599 76.6C146.099 71.7 145.999 69.2 146.599 62.9C146.999 58.1 147.599 54.2 147.899 51.7C147.399 50.3 146.599 48.6 145.699 47.1C145.099 45.9 144.399 44.9 143.799 44C143.399 42.7 142.899 40.9 141.599 39C140.599 37.5 139.499 36.3 138.599 35.5C137.099 30 134.599 23.2 130.499 15.8C128.699 12.6 126.799 9.8 124.999 7.2C122.899 4.4 119.899 2.7 116.499 2.3C114.299 2 111.999 1.9 109.799 1.8C98.5992 1 87.7992 0.800003 77.5992 0.800003C67.4992 0.900003 56.5992 1 45.2992 1.8C42.9992 1.9 40.7992 2.2 38.5992 2.3C35.2992 2.6 31.9992 4.4 30.0992 7.2C28.2992 9.8 26.3992 12.6 24.5992 15.8C20.4992 23.1 17.9992 29.9 16.4992 35.5C15.5992 36.3 14.5992 37.4 13.4992 39C12.1992 40.9 11.6992 42.7 11.2992 44C10.6992 44.9 9.99922 45.9 9.39922 47.1C8.49922 48.8 7.69922 50.3 7.19922 51.7C7.59922 54.3 8.09922 58.1 8.49922 62.9C9.09922 69.2 8.99922 71.9 9.49922 76.6C9.79922 79.7 10.2992 83.7 11.2992 88.5C11.6992 90.3 13.1992 91.5 14.8992 91.5H77.5992V91.4Z" fill="#EAF5F9" stroke="#416388" stroke-width="1.2" stroke-linejoin="round"/>
<path d="M32.899 82.6L32.799 82.7C32.299 83.7 31.299 84.2 30.099 84.4L16.299 84.9C13.999 85 12.299 82.7 13.099 80.5L14.099 77.4C14.599 75.9 16.299 75 17.799 75.2L30.699 77.6C32.899 78.1 34.099 80.5 32.899 82.6Z" fill="#99A5A9" stroke="#416388" stroke-width="0.6782" stroke-linejoin="round"/>
<path d="M77.5996 71.5C86.5996 71.6 97.2996 71 108.9 68.4C110.4 68 112 67.6 113.5 67.2C115.4 66.7 116.2 64.6 115 63.2C114.1 62 112.9 60.9 111.7 59.7C111.7 59.7 111.7 59.7 111.6 59.6C107.6 56.1 102.2 54.1 96.4996 53.9C96.0996 53.9 95.6996 53.9 95.1996 53.9C89.1996 53.8 83.1996 53.9 77.5996 53.9C71.8996 53.9 65.9996 53.8 59.9996 53.9C59.5996 53.9 59.0996 53.9 58.6996 53.9C52.9996 54 47.5996 56.1 43.6996 59.6C43.6996 59.6 43.6996 59.6 43.5996 59.7C42.2996 60.9 41.1996 62 40.2996 63.2C39.0996 64.6 39.8996 66.7 41.7996 67.2C43.2996 67.6 44.7996 68 46.3996 68.4C57.8996 71.2 68.5996 71.8 77.5996 71.5Z" fill="#99A5A9" stroke="#416388" stroke-width="0.6782" stroke-linejoin="round"/>
<path d="M77.6 85.2C88.4 85.2 99.1 84.9 109.9 84.4C111.1 84.4 111.8 83.1 111.2 82.1C110.7 81.3 110.3 80.6 109.8 79.8C109.5 79.4 109 79.2 108.5 79.2C98.2 79.7 87.9 79.8 77.6 79.8C67.3 79.8 57 79.5 46.7 79.2C46.2 79.2 45.7 79.5 45.4 79.8C44.9 80.6 44.5 81.3 44 82.1C43.4 83 44.1 84.4 45.3 84.4C56 84.9 66.8 85.2 77.6 85.2Z" fill="#99A5A9" stroke="#416388" stroke-width="0.6782" stroke-linejoin="round"/>
<path d="M77.6 85.2C88.4 85.2 99.1 84.9 109.9 84.4C111.1 84.4 111.8 83.1 111.2 82.1C110.7 81.3 110.3 80.6 109.8 79.8C109.5 79.4 109 79.2 108.5 79.2C98.2 79.7 87.9 79.8 77.6 79.8C67.3 79.8 57 79.5 46.7 79.2C46.2 79.2 45.7 79.5 45.4 79.8C44.9 80.6 44.5 81.3 44 82.1C43.4 83 44.1 84.4 45.3 84.4C56 84.9 66.8 85.2 77.6 85.2Z" stroke="#416388" stroke-width="0.6782" stroke-linejoin="round"/>
<path d="M122.1 82.6L122.2 82.7C122.7 83.7 123.7 84.2 124.9 84.4L138.7 84.9C141 85 142.7 82.7 141.9 80.5L140.9 77.4C140.4 75.9 138.7 75 137.2 75.2L124.3 77.6C122.1 78.1 120.9 80.5 122.1 82.6Z" fill="#99A5A9" stroke="#416388" stroke-width="0.6782" stroke-linejoin="round"/>
<path d="M13.8004 49.7L7.90039 56.8" stroke="#416388" stroke-width="0.6782" stroke-linejoin="round"/>
<path d="M12.9004 45.9L11.4004 44" stroke="#416388" stroke-width="0.6782" stroke-linejoin="round"/>
<path d="M16.5 35.5C16.6 37 17 39.1 18.4 41.3C19.8 43.5 21.5 44.8 22.8 45.7C23.8 46.5 24.7 47 25.4 47.2" stroke="#416388" stroke-width="0.6782" stroke-linejoin="round"/>
<path d="M17.9004 30.1C18.4004 30.7 19.3004 31.8 20.6004 33.1C25.6004 38.1 29.9004 39.3 34.4004 42.3C36.7004 43.8 40.1004 46.5 43.3004 51" stroke="#416388" stroke-width="0.6782" stroke-linejoin="round"/>
<path d="M20.5 33C21 29.8 21.7 26.2 23.1 22.2C25 16.3 27.5 11.4 29.8 7.8" stroke="#416388" stroke-width="0.6782" stroke-linejoin="round"/>
<path d="M77.5992 29.7C88.0992 29.8 98.7992 30 109.799 30.3C117.299 30.6 124.699 30.8 131.899 31.2C130.699 26.8 129.199 22.1 126.999 16.8C125.799 14 124.599 11.4 123.299 9.1C122.699 7.8 121.199 7 119.799 6.9C114.899 6.8 109.899 6.6 104.899 6.5C95.5992 6.4 86.3992 6 77.5992 6C68.7992 6 59.3992 6.4 50.1992 6.7C45.0992 6.7 40.1992 6.8 35.2992 7.1C33.7992 7.1 32.4992 8 31.7992 9.3C30.4992 11.6 29.3992 14.2 28.0992 17C25.8992 22.1 24.3992 27 23.1992 31.4C30.4992 31 37.8992 30.8 45.2992 30.5C56.1992 30.1 66.9992 29.8 77.5992 29.7Z" fill="#99A5A9" stroke="#416388" stroke-width="0.6782" stroke-linejoin="round"/>
<path d="M13.9995 45.5C17.4995 46 23.3995 46.9 24.6995 47.2C24.7995 47.2 25.0995 47.3 25.1995 47.3L39.2995 54.4C40.5995 55 40.4995 56.6 38.9995 57.1L36.2995 57.9H36.1995C34.6995 58.2 24.7995 59.7 17.2995 53.7C14.8995 51.6 13.2995 49.3 12.3995 47.5C11.9995 46.4 12.8995 45.2 13.9995 45.5Z" fill="white" stroke="#416388" stroke-width="0.6782" stroke-linejoin="round"/>
<path d="M141 45.5C137.5 46 131.6 46.9 130.3 47.2C130.2 47.2 129.9 47.3 129.8 47.3L115.7 54.4C114.4 55 114.5 56.6 116 57.1L118.8 58H118.9C120.4 58.3 130.3 59.8 137.8 53.8C140.2 51.7 141.8 49.4 142.7 47.6C143.2 46.4 142.3 45.2 141 45.5Z" fill="white" stroke="#416388" stroke-width="0.6782" stroke-linejoin="round"/>
<path d="M119.8 52.3C115 51.7 110.2 51.1 105 50.8C95.2 50 86.1 49.8 77.5 49.8H77.8C69.2 49.7 60 50.1 50.3 50.8C45.2 51.2 40.3 51.7 35.5 52.3" stroke="#416388" stroke-width="0.6782" stroke-linejoin="round"/>
<path d="M18.6996 83C20.3996 83 21.7996 81.7 21.7996 80C21.7996 78.3 20.3996 77 18.6996 77C16.9996 77 15.5996 78.3 15.5996 80C15.5996 81.7 16.8996 83 18.6996 83Z" fill="white" stroke="#416388" stroke-width="0.6782" stroke-linejoin="round"/>
<path d="M133.301 80C133.301 78.3 134.701 77 136.401 77C138.101 77 139.501 78.4 139.501 80C139.501 81.7 138.101 83 136.401 83C134.701 83.1 133.301 81.7 133.301 80Z" fill="white" stroke="#416388" stroke-width="0.6782" stroke-linejoin="round"/>
<path d="M141.199 49.7L147.199 56.8" stroke="#416388" stroke-width="0.6782" stroke-linejoin="round"/>
<path d="M142.1 45.9L143.6 44" stroke="#416388" stroke-width="0.6782" stroke-linejoin="round"/>
<path d="M138.5 35.5C138.4 37 138 39.1 136.6 41.3C135.2 43.5 133.5 44.8 132.2 45.7C131.2 46.5 130.3 47 129.6 47.2" stroke="#416388" stroke-width="0.6782" stroke-linejoin="round"/>
<path d="M137.3 30.1C136.8 30.7 135.9 31.8 134.6 33.1C129.6 38.1 125.3 39.3 120.8 42.3C118.5 43.8 115.1 46.5 111.9 51" stroke="#416388" stroke-width="0.6782" stroke-linejoin="round"/>
<path d="M134.499 33C133.999 29.8 133.299 26.2 131.899 22.2C129.999 16.3 127.499 11.4 125.199 7.8" stroke="#416388" stroke-width="0.6782" stroke-linejoin="round"/>
<path d="M15.1 29.5C15.1 26.9 11.9 24.7 7.8 24.7C3.7 24.7 0.5 26.9 0.5 29.5C0.5 32.1 3.7 34.3 7.8 34.3C11.8 34.3 15.1 32.2 15.1 29.5Z" fill="#99A5A9" stroke="#416388" stroke-width="0.6782" stroke-linejoin="round"/>
<path d="M8.59961 34.3C9.19961 35.6 9.89961 37 10.4996 38.3C10.9996 39.3 11.4996 40.2 11.9996 41.1C12.9996 39.6 14.0996 38 15.1996 36.5C14.5996 35.2 13.9996 34.1 13.3996 32.8C12.9996 32.7 11.8996 32.4 10.3996 32.9C9.49961 33.3 8.89961 33.9 8.59961 34.3Z" fill="white" stroke="#416388" stroke-width="0.6782" stroke-miterlimit="10"/>
<path d="M147.3 34.3C151.3 34.3 154.6 32.2 154.6 29.5C154.6 26.9 151.3 24.7 147.3 24.7C143.3 24.7 140 26.8 140 29.5C140 32.2 143.2 34.3 147.3 34.3Z" fill="#99A5A9" stroke="#416388" stroke-width="0.6782" stroke-linejoin="round"/>
<path d="M146.4 34.3C145.8 35.6 145.1 37 144.5 38.3C144 39.2 143.6 40.1 143.1 41.1C142.1 39.6 141 38 139.9 36.5C140.5 35.2 141.1 34.1 141.7 32.8C142.1 32.7 143.2 32.4 144.7 32.9C145.5 33.3 146.1 33.9 146.4 34.3Z" fill="white" stroke="#416388" stroke-width="0.6782" stroke-miterlimit="10"/>
</g>
<defs>
<clipPath id="clip0_1135_73113">
<rect width="155" height="112" fill="white"/>
</clipPath>
</defs>
</svg>
