<svg width="354" height="113" viewBox="0 0 354 113" fill="none" xmlns="http://www.w3.org/2000/svg">
<g opacity="0.5" clip-path="url(#clip0_1135_73180)">
<path d="M13.9004 93.9948L44.2004 99.8948L297.9 99.5948L312.3 90.0948C312 70.4948 296 54.8948 277.2 54.7948C257.6 54.5948 240.8 71.5948 241.6 92.1948C195.1 92.2948 148.5 92.2948 102 92.4948C103 71.5948 87.0004 54.0948 68.0004 52.9948C47.5004 51.6948 28.5004 69.5948 29.3004 92.1948C24.1004 92.8948 19.0004 93.3948 13.9004 93.9948Z" fill="#6C767A" stroke="#416388" stroke-width="0.6782" stroke-linejoin="round"/>
<path d="M352.5 71.2948L351.1 69.1948L351.2 60.0948C351.2 59.0948 350.9 57.9948 350.4 57.2948L344.9 49.0948L320.9 46.4948L314.5 41.3948L345.299 36.0948C346.099 34.6948 346.7 33.2948 347.5 31.9948C341.6 30.7948 335.6 29.6948 329.7 28.4948C328.5 28.5948 326.1 28.8948 326.1 28.8948C316.9 26.4948 307.4 23.8948 297.7 21.0948C286.9 17.9948 276.4 14.7948 266.2 11.5948L267.1 8.39477C247.7 4.19477 222.799 0.794765 193.899 1.69477C176.299 2.19477 160.6 4.29477 146.999 6.99477C147.6 7.89477 148.299 8.69477 148.899 9.59477C140.199 12.3948 130.2 16.0948 119.6 21.2948C112.799 24.7948 106.5 28.1948 101 31.6948C98.2995 33.3948 95.2995 34.3948 92.0995 34.7948C90.1995 35.0948 88.1995 35.2948 86.4995 35.1948L84.2995 34.1948L81.8995 32.9948C68.8995 33.3948 51.5995 34.3948 31.9995 41.2948C19.9995 45.3948 10.0995 50.3948 2.0995 55.0948C1.5995 57.1948 1.1995 59.4948 0.899501 62.1948C0.499501 65.2948 2.2995 84.7948 2.5995 86.7948C2.6995 87.3948 2.6995 88.0948 2.8995 88.5948C3.2995 90.8948 5.0995 92.6948 7.3995 93.0948C9.5995 93.3948 11.5995 93.5948 13.7995 93.9948C21.0995 94.8948 35.0995 95.8948 35.0995 95.8948C32.7995 80.5948 39.6995 66.0948 51.8995 59.7948C52.6995 59.3948 65.2995 53.2948 78.1995 59.1948C90.9995 65.0948 98.6995 80.3948 96.1995 96.7948C194.4 97.0948 248.6 97.1948 248.6 97.1948C248.6 97.1948 245.1 71.2948 263.9 61.6948C277.1 54.7948 293.9 59.8948 301.1 68.9948C308.2 77.8948 309.299 94.7948 309.299 94.8948C311.599 94.7948 324.5 94.3948 334.1 93.0948C335.9 92.7948 338.699 92.4948 341.9 90.8948C345 89.3948 347.2 87.3948 348.2 86.3948C350.3 84.2948 351.699 82.2948 352.4 80.5948C352.799 79.7948 353 79.0948 353 78.1948V73.5948C353.2 72.7948 353 71.9948 352.5 71.2948Z" fill="#EAF5F9" stroke="#416388" stroke-width="1.2" stroke-linejoin="round"/>
<path d="M102.1 37.3948L270 31.7948C273.2 31.6948 276.2 30.4948 278.6 28.2948L281.6 25.6948C282.9 24.4948 282.5 22.3948 280.8 21.8948C271.4 18.6948 258.5 14.9948 242.8 12.0948C221.6 8.29481 190.9 2.69481 155 12.3948C142.5 15.5948 123.1 22.3948 102.1 37.3948Z" stroke="#416388" stroke-width="0.6782" stroke-linejoin="round"/>
<path d="M7.19858 73.1948C8.09858 71.9948 8.39858 70.4948 8.19858 68.9948C7.69858 65.9948 6.69858 62.2948 4.59858 58.5948C3.69858 57.0948 2.79858 55.8948 1.99858 54.8948C1.49858 59.2948 1.19858 64.4948 1.39858 70.2948C1.49858 72.8948 1.69858 75.2948 1.99858 77.6948C2.89858 77.1948 4.19858 76.3948 5.59858 74.9948C6.19858 74.4948 6.69858 73.8948 7.19858 73.1948Z" fill="#99A5A9" stroke="#416388" stroke-width="0.6782" stroke-linejoin="round"/>
<path d="M9.99928 78.9948L20.6993 76.3948C22.4993 75.9948 24.1993 76.9948 24.6993 78.6948L25.4993 81.3948C26.0993 83.4948 24.6993 85.5948 22.4993 85.8948L11.2993 86.7948C9.79928 86.8948 8.29928 85.9948 7.79928 84.4948C7.79928 84.1948 7.69928 83.8948 7.49928 83.4948C6.89928 81.5948 8.09928 79.4948 9.99928 78.9948Z" fill="#99A5A9" stroke="#416388" stroke-width="0.6782" stroke-linejoin="round"/>
<path d="M22.8996 81.1948C22.8996 79.2948 22.2996 77.6948 21.4996 77.6948C20.6996 77.6948 20.0996 79.1948 20.0996 81.1948C20.0996 83.1948 20.6996 84.6948 21.4996 84.6948C22.1996 84.4948 22.8996 82.9948 22.8996 81.1948Z" fill="white" stroke="#416388" stroke-width="0.6782" stroke-linejoin="round"/>
<path d="M92.2 34.6948C95.3 34.2948 98.4 33.2948 101.1 31.5948C106.6 28.0948 112.9 24.6948 119.8 21.1948C130.3 16.0948 140.3 12.1948 149.1 9.49477C148.5 8.59477 147.8 7.79478 147.2 6.89478C137.8 10.0948 127.9 13.7948 117.5 18.1948C105.4 23.2948 94.4 28.6948 84.5 33.9948L86.7 34.9948C88.3 35.2948 90.3 34.9948 92.2 34.6948Z" fill="#99A5A9" stroke="#416388" stroke-width="0.6782" stroke-linejoin="round"/>
<path d="M189.599 9.2948C177.799 9.7948 166.599 11.4948 155.399 14.3948C139.499 18.5948 124.099 25.3948 109.699 34.7948L182.199 32.3948C184.299 26.1948 187.699 15.3948 189.599 9.2948Z" fill="#99A5A9" stroke="#416388" stroke-width="0.6782" stroke-linejoin="round"/>
<path d="M242.8 14.2948C242.7 14.2948 242.4 14.2948 242.3 14.1948C230.9 12.0948 216.9 9.59482 200.7 9.19482L198.9 31.7948L253.1 29.9948L242.8 14.2948Z" fill="#99A5A9" stroke="#416388" stroke-width="0.6782" stroke-linejoin="round"/>
<path d="M249.9 15.7948L260.6 29.8948L270 29.5948C272.6 29.4948 275.1 28.3948 277.1 26.7948L280.1 24.0948C270.2 20.5948 260 17.8948 249.9 15.7948Z" fill="#99A5A9" stroke="#416388" stroke-width="0.6782" stroke-linejoin="round"/>
<path d="M297.8 21.2947C307.4 24.0947 316.9 26.6947 326.2 29.0947C326.2 29.0947 328.6 28.7947 329.8 28.6947C319.4 24.6947 308.5 20.8947 296.8 17.1947C286.7 13.9947 276.8 10.9947 267.3 8.59473L266.4 11.7947C276.4 14.9947 287 18.1947 297.8 21.2947Z" fill="#99A5A9" stroke="#416388" stroke-width="0.6782" stroke-linejoin="round"/>
<path d="M31.6992 45.9948C42.5992 42.6948 51.8992 40.9948 58.4992 39.9948C67.3992 38.6948 74.7992 38.2948 84.0992 37.8948C91.4992 37.4948 97.6992 37.3948 102.099 37.3948" stroke="#416388" stroke-width="0.6782" stroke-linejoin="round"/>
<path d="M28.0996 54.4948C33.2996 58.5948 38.2996 62.5947 43.3996 66.6947" stroke="#416388" stroke-width="0.6782" stroke-linejoin="round"/>
<path d="M179.1 43.1947C179.1 42.3947 175.5 41.8947 171.1 41.9947C166.7 42.0947 163.1 42.7947 163.1 43.4947C163.1 44.2947 166.7 44.7947 171.1 44.6947C175.7 44.5947 179.1 43.9947 179.1 43.1947Z" stroke="#416388" stroke-width="0.6782" stroke-linejoin="round"/>
<path d="M261.6 41.8948C261.6 41.0948 258 40.5948 253.6 40.6948C249.2 40.7948 245.6 41.4948 245.6 42.1948C245.6 42.9948 249.2 43.4948 253.6 43.3948C258 43.2948 261.6 42.5948 261.6 41.8948Z" stroke="#416388" stroke-width="0.6782" stroke-linejoin="round"/>
<path d="M195.2 6.99475L189.7 34.4948C188.7 38.0948 187.8 41.8948 186.9 45.9948C183.6 62.6948 183.8 77.7947 185.1 90.0947" stroke="#416388" stroke-width="0.6782" stroke-linejoin="round"/>
<path d="M107.899 37.3948C106.499 41.4948 105.099 46.0948 104.199 51.3948C101.399 67.2948 103.699 80.9948 105.999 90.0948C149.899 90.0948 193.799 90.0948 237.599 90.0948C246.699 77.0948 253.999 66.7948 260.999 57.4948C263.999 53.3948 268.599 47.3948 267.199 40.3948C266.399 36.5948 263.999 33.6948 262.199 31.8948C257.399 25.5948 252.599 19.2948 247.799 12.8948" stroke="#416388" stroke-width="0.6782" stroke-linejoin="round"/>
<path d="M32 45.9948C31.9 45.9948 31.9 45.9948 31.7 45.9948C28 46.8948 23.4 48.1947 18.5 50.3947C14 52.4947 10.1 54.5947 7.09996 56.6947C6.49996 57.0947 6.79996 57.9948 7.59996 57.9948C10.7 57.6948 13.8 57.1947 17.1 56.6947C27.9 54.8947 37.5 52.0948 45.6 48.9948C46.2 48.6948 46.1 47.6947 45.5 47.6947C41 47.0947 36.5 46.4948 32 45.9948Z" fill="#99A5A9"/>
<path d="M321 46.6948L345 49.2948C345.4 47.3948 345.8 44.8948 345.8 42.1948C345.8 39.9948 345.7 38.0948 345.4 36.3948L314.6 41.6948L321 46.6948Z" fill="#99A5A9"/>
<path d="M32 45.9948C31.9 45.9948 31.9 45.9948 31.7 45.9948C28 46.8948 23.4 48.1947 18.5 50.3947C14 52.4947 10.1 54.5947 7.09996 56.6947C6.49996 57.0947 6.79996 57.9948 7.59996 57.9948C10.7 57.6948 13.8 57.1947 17.1 56.6947C27.9 54.8947 37.5 52.0948 45.6 48.9948C46.2 48.6948 46.1 47.6947 45.5 47.6947C41 47.0947 36.5 46.4948 32 45.9948Z" fill="white" stroke="#416388" stroke-width="0.6782" stroke-linejoin="round"/>
<path d="M321 46.6948L345 49.2948C345.4 47.3948 345.8 44.8948 345.8 42.1948C345.8 39.9948 345.7 38.0948 345.4 36.3948L314.6 41.6948L321 46.6948Z" fill="#99A5A9" stroke="#416388" stroke-width="0.6782" stroke-linejoin="round"/>
<path d="M32 45.9948C31.9 45.9948 31.9 45.9948 31.7 45.9948C28 46.8948 23.4 48.1947 18.5 50.3947C14 52.4947 10.1 54.5947 7.09996 56.6947C6.49996 57.0947 6.79996 57.9948 7.59996 57.9948C10.7 57.6948 13.8 57.1947 17.1 56.6947C27.9 54.8947 37.5 52.0948 45.6 48.9948C46.2 48.6948 46.1 47.6947 45.5 47.6947C41 47.0947 36.5 46.4948 32 45.9948Z" stroke="#2B3032" stroke-width="0.6782" stroke-linejoin="round"/>
<path d="M321 46.6948L345 49.2948C345.4 47.3948 345.8 44.8948 345.8 42.1948C345.8 39.9948 345.7 38.0948 345.4 36.3948L314.6 41.6948L321 46.6948Z" stroke="#2B3032" stroke-width="0.6782" stroke-linejoin="round"/>
<path d="M278.399 112.095C292.499 112.095 303.999 100.995 303.999 87.1948C303.999 73.4948 292.599 62.2948 278.399 62.2948C264.299 62.2948 252.799 73.3948 252.799 87.1948C252.799 100.995 264.299 112.095 278.399 112.095Z" fill="#99A5A9" stroke="#416388" stroke-width="1.2" stroke-linejoin="round"/>
<path d="M278.4 106.095C289.1 106.095 297.8 97.6948 297.8 87.1948C297.8 76.6948 289.1 68.2948 278.4 68.2948C267.7 68.2948 259 76.6948 259 87.1948C259 97.6948 267.7 106.095 278.4 106.095Z" fill="white" stroke="#416388" stroke-width="0.6782" stroke-linejoin="round"/>
<path d="M280.399 87.0948C280.399 88.0948 279.499 88.9948 278.299 88.9948C277.099 88.9948 276.199 88.0948 276.199 87.0948C276.199 86.0948 277.099 85.1948 278.299 85.1948C279.399 84.9948 280.399 85.8948 280.399 87.0948Z" stroke="#416388" stroke-width="0.6782" stroke-linecap="round" stroke-linejoin="round"/>
<path d="M278.399 104.295C278.999 104.295 279.799 104.295 280.599 104.195C280.899 104.195 281.099 104.095 281.399 104.095C281.699 103.995 281.999 103.795 282.199 103.595L283.199 102.295C283.599 101.795 283.599 100.995 283.199 100.495L279.499 95.8948C278.999 95.0948 277.799 95.0948 277.299 95.8948L273.599 100.495C273.199 100.995 273.199 101.795 273.599 102.295L274.599 103.595C274.899 103.895 275.099 103.995 275.399 104.095C275.699 104.095 275.899 104.195 276.199 104.195C276.999 104.295 277.699 104.295 278.399 104.295Z" fill="#D2DBDD" stroke="#416388" stroke-width="0.6782" stroke-linejoin="round"/>
<path d="M294.599 92.4947C294.899 91.8947 294.999 91.1947 295.099 90.3947C295.099 90.0947 295.199 89.8947 295.199 89.5947C295.199 89.1947 295.199 88.9947 294.899 88.6947L293.999 87.2947C293.599 86.7947 292.999 86.4947 292.299 86.7947L286.799 88.8947C285.899 89.2947 285.599 90.2947 286.199 90.9947L289.499 95.9947C289.899 96.4947 290.499 96.7947 291.199 96.4947L292.699 95.8947C292.999 95.7947 293.199 95.4947 293.499 95.2947C293.599 94.9947 293.799 94.7947 293.899 94.4947C294.199 93.7947 294.399 92.9947 294.599 92.4947Z" fill="#D2DBDD" stroke="#416388" stroke-width="0.6782" stroke-linejoin="round"/>
<path d="M288.6 73.4948C288.1 73.0948 287.6 72.6948 286.8 72.2948C286.5 72.1948 286.3 71.9948 286 71.8948C285.7 71.7948 285.4 71.7948 285.1 71.7948L283.4 72.1948C282.8 72.2948 282.4 72.9948 282.4 73.5948L282.5 79.4948C282.5 80.3948 283.4 80.9948 284.3 80.7948L290.1 79.2948C290.7 79.1948 291.1 78.4948 291.1 77.8948V76.1948C291.1 75.7948 291 75.5948 290.7 75.2948C290.6 74.9948 290.3 74.8948 290.2 74.6948C289.8 74.3948 289.2 73.8948 288.6 73.4948Z" fill="#D2DBDD" stroke="#416388" stroke-width="0.6782" stroke-linejoin="round"/>
<path d="M268.1 73.5948C267.6 73.9948 267.1 74.3948 266.4 74.9948C266.1 75.2948 266 75.3948 265.9 75.5948C265.6 75.8948 265.5 76.0948 265.5 76.4948V78.1948C265.5 78.7948 265.9 79.4948 266.5 79.5948L272.3 81.0948C273.2 81.3948 274.1 80.6948 274.1 79.7948L274.2 73.8948C274.2 73.2948 273.8 72.5948 273.2 72.4948L271.5 72.0948C271.2 71.9948 270.9 72.0948 270.6 72.1948C270.3 72.2948 270.1 72.4948 269.8 72.5948C269.1 72.6948 268.6 73.1948 268.1 73.5948Z" fill="#D2DBDD" stroke="#416388" stroke-width="0.6782" stroke-linejoin="round"/>
<path d="M262.1 92.4947C262.2 93.0947 262.5 93.7947 262.9 94.5947C263 94.8947 263.2 95.0947 263.3 95.3947C263.4 95.6947 263.7 95.8947 264.1 95.9947L265.8 96.5947C266.4 96.8947 267.1 96.5947 267.5 96.0947L270.8 91.0947C271.3 90.2947 270.9 89.2947 270.2 88.9947L264.7 86.8947C264.1 86.5947 263.4 86.8947 263 87.3947L262.1 88.7947C262 89.0947 261.8 89.3947 261.8 89.6947C261.8 89.9947 261.8 90.1947 261.9 90.4947C261.6 91.1947 261.8 91.7947 262.1 92.4947Z" fill="#D2DBDD" stroke="#416388" stroke-width="0.6782" stroke-linejoin="round"/>
<path d="M66.0996 112.095C80.1996 112.095 91.6996 100.995 91.6996 87.1948C91.6996 73.4948 80.2996 62.2948 66.0996 62.2948C51.8996 62.2948 40.5996 73.4948 40.5996 87.1948C40.5996 100.995 51.9996 112.095 66.0996 112.095Z" fill="#99A5A9" stroke="#416388" stroke-width="1.2" stroke-linejoin="round"/>
<path d="M66.0992 106.095C76.7992 106.095 85.4992 97.6948 85.4992 87.1948C85.4992 76.6948 76.7992 68.2948 66.0992 68.2948C55.3992 68.2948 46.6992 76.6948 46.6992 87.1948C46.6992 97.6948 55.3992 106.095 66.0992 106.095Z" fill="white" stroke="#416388" stroke-width="0.6782" stroke-linejoin="round"/>
<path d="M68.2 87.0948C68.2 88.0948 67.3 88.9948 66.1 88.9948C64.9 88.9948 64 88.0948 64 87.0948C64 86.0948 64.9 85.1948 66.1 85.1948C67.3 84.9948 68.2 85.8948 68.2 87.0948Z" stroke="#416388" stroke-width="0.6782" stroke-linecap="round" stroke-linejoin="round"/>
<path d="M66.1 104.295C66.7 104.295 67.5 104.295 68.3 104.195C68.6 104.195 68.8 104.095 69.1 104.095C69.4 103.995 69.7 103.795 69.9 103.595L70.9 102.295C71.3 101.795 71.3 100.995 70.9 100.495L67.2 95.8948C66.7 95.0948 65.5 95.0948 65 95.8948L61.3 100.495C60.9 100.995 60.9 101.795 61.3 102.295L62.3 103.595C62.6 103.895 62.8 103.995 63.1 104.095C63.4 104.095 63.6 104.195 63.9 104.195C64.8 104.295 65.5 104.295 66.1 104.295Z" fill="#D2DBDD" stroke="#416388" stroke-width="0.6782" stroke-linejoin="round"/>
<path d="M82.3997 92.4947C82.6997 91.8947 82.7997 91.1947 82.8997 90.3947C82.8997 90.0947 82.9997 89.8947 82.9997 89.5947C82.9997 89.1947 82.9997 88.9947 82.6997 88.6947L81.7997 87.2947C81.3997 86.7947 80.7997 86.4947 80.0997 86.7947L74.5997 88.8947C73.6997 89.2947 73.3997 90.2947 73.9997 90.9947L77.2997 95.9947C77.6997 96.4947 78.2997 96.7947 78.9997 96.4947L80.4997 95.8947C80.7997 95.7947 80.9997 95.4947 81.2997 95.2947C81.3997 94.9947 81.5997 94.7947 81.6997 94.4947C81.9997 93.7947 82.2997 92.9947 82.3997 92.4947Z" fill="#D2DBDD" stroke="#416388" stroke-width="0.6782" stroke-linejoin="round"/>
<path d="M76.4988 73.4948C75.9988 73.0948 75.4988 72.6948 74.6988 72.2948C74.3988 72.1948 74.1988 71.9948 73.8988 71.8948C73.5988 71.7948 73.2988 71.7948 72.9988 71.7948L71.2988 72.1948C70.6988 72.2948 70.2988 72.9948 70.2988 73.5948L70.3988 79.4948C70.3988 80.3948 71.2988 80.9948 72.1988 80.7948L77.9988 79.2948C78.5988 79.1948 78.9988 78.4948 78.9988 77.8948V76.1948C78.9988 75.7948 78.8988 75.5948 78.5988 75.2948C78.4988 74.9948 78.1988 74.8948 78.0988 74.6948C77.5988 74.3948 76.9988 73.8948 76.4988 73.4948Z" fill="#D2DBDD" stroke="#416388" stroke-width="0.6782" stroke-linejoin="round"/>
<path d="M55.8988 73.5948C55.3988 73.9948 54.8988 74.3948 54.1988 74.9948C53.8988 75.2948 53.7988 75.3948 53.6988 75.5948C53.3988 75.8948 53.2988 76.0948 53.2988 76.4948V78.1948C53.2988 78.7948 53.6988 79.4948 54.2988 79.5948L60.0988 81.0948C60.9988 81.3948 61.8988 80.6948 61.8988 79.7948L61.9988 73.8948C61.9988 73.2948 61.5988 72.5948 60.9988 72.4948L59.2988 72.0948C58.9988 71.9948 58.6988 72.0948 58.3988 72.1948C58.0988 72.2948 57.8988 72.4948 57.5988 72.5948C56.9988 72.6948 56.3988 73.1948 55.8988 73.5948Z" fill="#D2DBDD" stroke="#416388" stroke-width="0.6782" stroke-linejoin="round"/>
<path d="M49.8 92.4947C49.9 93.0947 50.2 93.7947 50.6 94.5947C50.7 94.8947 50.9 95.0947 51 95.3947C51.1 95.6947 51.4 95.8947 51.8 95.9947L53.5 96.5947C54.1 96.8947 54.8 96.5947 55.2 96.0947L58.5 91.0947C59 90.2947 58.6 89.2947 57.9 88.9947L52.4 86.8947C51.8 86.5947 51.1 86.8947 50.7 87.3947L49.8 88.7947C49.7 89.0947 49.5 89.3947 49.5 89.6947C49.5 89.9947 49.5 90.1947 49.6 90.4947C49.4 91.1947 49.6 91.7947 49.8 92.4947Z" fill="#D2DBDD" stroke="#416388" stroke-width="0.6782" stroke-linejoin="round"/>
<path d="M295.199 63.6948L304.799 61.5948C309.399 60.5948 313.499 57.7948 316.099 53.8948L320.899 46.6948C323.699 49.3948 328.599 53.3948 335.399 56.2948C341.699 58.9948 347.299 59.8948 351.199 60.2948" stroke="#416388" stroke-width="0.6782" stroke-linejoin="round"/>
<path d="M46 48.1948C92.5 44.5948 141.5 41.9948 192.8 40.9948C234.9 40.0948 275.6 40.3948 314.5 41.4948" stroke="#416388" stroke-width="0.6782" stroke-linejoin="round"/>
<path d="M308 85.5948C314.5 85.4948 320.1 85.0948 324.7 84.7948C334.3 84.1948 337 83.5948 339.7 82.0948C341.8 80.8948 341.9 80.2948 346 77.3948C349 75.1948 351.5 73.6948 353.3 72.6948" stroke="#416388" stroke-width="0.6782" stroke-linejoin="round"/>
<path d="M10.6988 54.4948C10.3988 53.5948 8.29883 51.4948 8.29883 51.4948" stroke="#416388" stroke-width="0.6782" stroke-linejoin="round"/>
<path d="M120.6 34.6948L124.6 37.3948C122.9 38.6948 121.3 40.0948 119.6 41.3948C119.5 41.3948 118.3 41.6948 117.4 40.7948C116.6 40.1948 116.6 39.0948 116.6 38.9948L120.6 34.6948Z" fill="#D2DBDD" stroke="#416388" stroke-width="0.6782" stroke-linejoin="round"/>
<path d="M130.7 28.9948C129.7 28.8948 128.4 28.8948 127.2 28.8948C124.2 28.9948 121 28.9948 119.9 30.9948C119 32.3948 119.6 34.2948 120.5 35.3948C122.3 37.5948 126 38.1948 128.7 37.2948C129.3 34.3948 129.9 31.6948 130.7 28.9948Z" fill="#99A5A9" stroke="#416388" stroke-width="0.6782" stroke-linejoin="round"/>
<path d="M250 5.49475C250 5.49475 250.5 4.09475 253.2 4.09475C255.9 3.99475 257.6 1.29475 257.6 1.29475L261.5 0.994751C261.5 0.994751 259.8 5.19475 259.9 6.99475L250 5.49475Z" fill="white" stroke="#416388" stroke-width="0.6782" stroke-linejoin="round"/>
</g>
<defs>
<clipPath id="clip0_1135_73180">
<rect width="354" height="112.3" fill="white" transform="translate(0 0.594727)"/>
</clipPath>
</defs>
</svg>
