<svg width="159" height="113" viewBox="0 0 159 113" fill="none" xmlns="http://www.w3.org/2000/svg">
<g opacity="0.5" clip-path="url(#clip0_1135_73263)">
<path d="M135.301 89.9948H23.3008V97.0947H135.201V89.9948H135.301Z" fill="#6C767A" stroke="#416388" stroke-width="0.6782" stroke-linejoin="round"/>
<path d="M12.8012 44.0947C13.3012 42.6947 14.0012 40.9947 14.9012 39.2947C15.2012 38.8947 15.3012 38.4947 15.5012 38.2947L13.4012 34.5947L8.70117 36.0947C9.30117 37.3947 10.0012 38.7947 10.6012 40.0947C11.3012 41.4947 12.1012 42.7947 12.8012 44.0947Z" fill="white" stroke="#416388" stroke-width="0.6782" stroke-miterlimit="10"/>
<path d="M15.0004 31.2948C15.0004 28.6948 11.8004 26.4948 7.70039 26.4948C3.60039 26.4948 0.400391 28.5948 0.400391 31.2948C0.400391 33.9948 3.60039 36.0948 7.70039 36.0948C11.7004 35.9948 15.0004 33.8948 15.0004 31.2948Z" fill="#99A5A9" stroke="#416388" stroke-width="0.6782" stroke-linejoin="round"/>
<path d="M7.69961 34.2947C10.7996 34.2947 13.2996 32.9947 13.2996 31.2947C13.2996 29.6947 10.7996 28.2947 7.69961 28.2947C4.59961 28.2947 2.09961 29.5947 2.09961 31.2947C2.09961 32.8947 4.59961 34.2947 7.69961 34.2947Z" fill="#D2DBDD" stroke="#416388" stroke-width="0.6782" stroke-miterlimit="10"/>
<path d="M146.2 44.0947C145.7 42.6947 145 40.9947 144.1 39.2947C143.8 38.8947 143.7 38.4947 143.5 38.2947L145.6 34.5947L150.3 36.0947C149.7 37.3947 149 38.7947 148.4 40.0947C147.6 41.4947 146.9 42.7947 146.2 44.0947Z" fill="white" stroke="#416388" stroke-width="0.6782" stroke-miterlimit="10"/>
<path d="M144 31.2948C144 28.6948 147.2 26.4948 151.3 26.4948C155.3 26.4948 158.6 28.5948 158.6 31.2948C158.6 33.9948 155.4 36.0948 151.3 36.0948C147.3 35.9948 144 33.8948 144 31.2948Z" fill="#99A5A9" stroke="#416388" stroke-width="0.6782" stroke-linejoin="round"/>
<path d="M151.301 34.2947C154.401 34.2947 156.901 32.9947 156.901 31.2947C156.901 29.6947 154.401 28.2947 151.301 28.2947C148.201 28.2947 145.701 29.5947 145.701 31.2947C145.701 32.8947 148.201 34.2947 151.301 34.2947Z" fill="#D2DBDD" stroke="#416388" stroke-width="0.6782" stroke-miterlimit="10"/>
<path d="M9.70117 63.1947V64.0947V107.495C9.70117 109.995 11.6012 111.895 14.1012 111.895H24.7012C27.1012 111.895 29.1012 109.995 29.1012 107.495V91.9947L9.70117 63.1947Z" fill="#99A5A9" stroke="#416388" stroke-width="1.2" stroke-linejoin="round"/>
<path d="M149.3 63.1947V64.0947V107.495C149.3 109.995 147.4 111.895 144.9 111.895H134.3C131.9 111.895 129.9 109.995 129.9 107.495V91.9947L149.3 63.1947Z" fill="#99A5A9" stroke="#416388" stroke-width="1.2" stroke-linejoin="round"/>
<path d="M79.5004 93.3947H141.3C143.2 93.3947 145 91.9947 145.4 89.9947L149.4 70.9947V49.5947C148.4 47.8947 147.5 46.3947 146.5 44.6947C146 43.1947 145.3 41.1947 144.3 39.2947C142.9 36.6947 141.4 34.6947 140.1 33.1947C138.6 28.6947 136.5 23.6947 133.8 18.1947C131.6 13.8947 129.3 10.0947 127.1 6.7947C125.6 4.5947 123.1 3.1947 120.6 2.8947C118.5 2.7947 116.5 2.5947 114.4 2.4947C102.2 1.5947 90.7004 1.1947 79.5004 1.1947C68.3004 1.3947 56.8004 1.5947 44.9004 2.4947C42.8004 2.5947 40.8004 2.7947 38.7004 2.8947C36.0004 3.1947 33.6004 4.5947 32.2004 6.7947C30.0004 10.1947 27.7004 13.8947 25.5004 18.1947C22.8004 23.5947 20.8004 28.6947 19.2004 33.1947C18.0004 34.4947 16.4004 36.5947 15.0004 39.1947C14.0004 41.0947 13.2004 43.0947 12.8004 44.5947C11.8004 46.2947 10.9004 47.7947 9.90039 49.4947V70.8947L13.9004 89.8947C14.3004 91.7947 16.0004 93.2947 18.0004 93.2947H79.5004V93.3947Z" fill="#EAF5F9" stroke="#416388" stroke-width="1.2" stroke-linejoin="round"/>
<path d="M17.7996 44.6947C17.6996 46.3947 17.6996 49.6947 18.2996 52.3947V52.5947C19.4996 57.1947 23.6996 60.4947 28.3996 60.4947H79.3996" stroke="#416388" stroke-width="0.6782" stroke-linejoin="round"/>
<path d="M79.5004 28.5947C90.0004 28.5947 100.4 28.5947 110.9 28.5947C116.2 28.5947 121.4 28.0947 126.5 27.0947C126.6 27.0947 126.6 27.0947 126.8 27.0947C126.7 23.6947 126.3 20.0947 125.8 16.3947C125.5 14.2947 125.2 12.3947 124.8 10.5947C118.1 10.0947 111.2 9.6947 104.2 9.5947C95.7004 9.2947 87.5004 9.1947 79.6004 9.2947C71.6004 9.2947 63.4004 9.2947 55.0004 9.5947C47.9004 9.6947 41.0004 10.0947 34.4004 10.4947C34.0004 12.2947 33.6004 14.1947 33.4004 16.2947C32.8004 20.1947 32.5004 23.6947 32.4004 26.9947C32.5004 26.9947 32.5004 26.9947 32.7004 26.9947C37.8004 27.9947 43.1004 28.4947 48.3004 28.4947C58.6004 28.5947 69.0004 28.5947 79.5004 28.5947Z" fill="#99A5A9" stroke="#416388" stroke-width="0.6782" stroke-linejoin="round"/>
<path d="M141.2 44.6947C141.3 46.3947 141.3 49.6947 140.7 52.3947V52.5947C139.5 57.1947 135.3 60.4947 130.6 60.4947H79.5996" stroke="#416388" stroke-width="0.6782" stroke-linejoin="round"/>
<path d="M17.5996 38.6948C17.5996 40.7948 17.6996 42.7948 17.6996 44.7948C27.9996 45.5948 38.1996 46.2948 48.4996 47.0948L52.6996 41.1948C48.6996 39.0948 41.1996 35.9948 31.3996 36.1948C25.7996 36.1948 20.9996 37.4948 17.5996 38.6948Z" fill="#99A5A9" stroke="#416388" stroke-width="0.6782" stroke-linejoin="round"/>
<path d="M141.301 38.6948C141.301 40.7948 141.201 42.7948 141.201 44.7948C130.901 45.5948 120.701 46.2948 110.401 47.0948L106.201 41.1948C110.201 39.0948 117.701 35.9948 127.501 36.1948C133.201 36.1948 138.001 37.4948 141.301 38.6948Z" fill="#99A5A9" stroke="#416388" stroke-width="0.6782" stroke-linejoin="round"/>
<path d="M45.3 81.1946L39.8 85.0946C39 85.5946 38.1 85.9946 37.1 85.9946H26.5C27.8 84.6946 30 82.8946 33.2 81.6946C38.7 79.6946 43.5 80.6946 45.3 81.1946Z" fill="#99A5A9" stroke="#416388" stroke-width="0.6782" stroke-linejoin="round"/>
<path d="M113.701 81.1946L119.201 85.0946C120.001 85.5946 120.901 85.9946 121.901 85.9946H132.401C131.101 84.6946 128.901 82.8946 125.701 81.6946C120.301 79.6946 115.501 80.6946 113.701 81.1946Z" fill="#99A5A9" stroke="#416388" stroke-width="0.6782" stroke-linejoin="round"/>
<path d="M145.9 87.3948H139.7L137.3 85.0947C132.2 80.1947 125.4 77.4948 118.3 77.4948H79.5H40.6C33.5 77.4948 26.8 80.1947 21.6 85.0947L19.2 87.3948H13" stroke="#416388" stroke-width="0.6782" stroke-linejoin="round"/>
<path d="M106.201 41.0947H79.5008H52.8008" stroke="#416388" stroke-width="0.6782" stroke-linejoin="round"/>
<path d="M110.4 47.0947L107.5 49.7947C105.6 51.5947 103 52.5947 100.3 52.5947H79.4996H58.6996C55.9996 52.5947 53.3996 51.5947 51.4996 49.7947L48.5996 47.0947" stroke="#416388" stroke-width="0.6782" stroke-linejoin="round"/>
<path d="M126.601 27.0947C126.701 30.9947 126.601 34.9947 126.301 39.1947C125.901 46.1947 125.001 52.5947 123.701 58.3947C122.701 63.3947 118.301 66.9947 113.301 66.9947H79.5012H45.5012C40.4012 66.9947 36.1012 63.3947 35.1012 58.3947C34.0012 52.5947 33.1012 46.0947 32.6012 39.1947C32.3012 34.8947 32.2012 30.8947 32.3012 27.0947" stroke="#416388" stroke-width="0.6782" stroke-linejoin="round"/>
<path d="M34.2012 10.3947C34.6012 9.09473 35.1012 7.69473 35.9012 6.09473C36.5012 4.89473 37.2012 3.89473 37.7012 3.09473" fill="white"/>
<path d="M34.2012 10.3947C34.6012 9.09473 35.1012 7.69473 35.9012 6.09473C36.5012 4.89473 37.2012 3.89473 37.7012 3.09473" stroke="#416388" stroke-width="0.6782" stroke-linejoin="round"/>
<path d="M124.801 10.3947C124.401 9.09473 123.901 7.69473 123.101 6.09473C122.501 4.89473 121.801 3.89473 121.301 3.09473" fill="white"/>
<path d="M124.801 10.3947C124.401 9.09473 123.901 7.69473 123.101 6.09473C122.501 4.89473 121.801 3.89473 121.301 3.09473" stroke="#416388" stroke-width="0.6782" stroke-linejoin="round"/>
<path d="M17.8008 44.6947C15.1008 50.0947 12.5008 55.3947 9.80078 60.7947" stroke="#416388" stroke-width="0.6782" stroke-linejoin="round"/>
<path d="M141.201 44.6947C143.901 50.0947 146.601 55.4947 149.301 60.9947" stroke="#416388" stroke-width="0.6782" stroke-linejoin="round"/>
<path d="M89.5004 9.1947H69.4004V11.5947H89.5004V9.1947Z" fill="#D2DBDD" stroke="#416388" stroke-width="0.6782" stroke-linejoin="round"/>
<path d="M110.9 89.0947H105.6C103.7 89.0947 102.1 90.5947 102.1 92.5947V93.1947C102.1 95.0947 103.6 96.6947 105.6 96.6947H110.9C112.8 96.6947 114.4 95.1947 114.4 93.1947V92.5947C114.4 90.6947 112.8 89.0947 110.9 89.0947Z" fill="#99A5A9" stroke="#416388" stroke-width="0.6782" stroke-linejoin="round"/>
<path d="M110.401 92.8947C110.401 91.6947 109.501 90.7947 108.301 90.7947C107.101 90.7947 106.201 91.6947 106.201 92.8947C106.201 94.0947 107.101 94.9947 108.301 94.9947C109.501 94.9947 110.401 93.9947 110.401 92.8947Z" fill="#576164" stroke="#416388" stroke-width="0.6782" stroke-linejoin="round"/>
<path d="M52.8 89.0947H47.5C45.6 89.0947 44 90.5947 44 92.5947V93.1947C44 95.0947 45.5 96.6947 47.5 96.6947H52.8C54.7 96.6947 56.3 95.1947 56.3 93.1947V92.5947C56.3 90.6947 54.8 89.0947 52.8 89.0947Z" fill="#99A5A9" stroke="#416388" stroke-width="0.6782" stroke-linejoin="round"/>
<path d="M52.2996 92.8947C52.2996 91.6947 51.3996 90.7947 50.1996 90.7947C48.9996 90.7947 48.0996 91.6947 48.0996 92.8947C48.0996 94.0947 48.9996 94.9947 50.1996 94.9947C51.3996 94.8947 52.2996 93.9947 52.2996 92.8947Z" fill="#576164" stroke="#416388" stroke-width="0.6782" stroke-linejoin="round"/>
<path d="M78.6008 1.39465C78.6008 1.39465 78.5008 2.69465 78.5008 3.09465C78.2008 3.29465 76.3008 4.49465 76.3008 4.49465H82.4008L79.5008 3.09465V1.49465L78.6008 1.39465Z" fill="#D2DBDD" stroke="#416388" stroke-width="0.6782" stroke-linejoin="round"/>
</g>
<defs>
<clipPath id="clip0_1135_73263">
<rect width="159" height="112" fill="white" transform="translate(0 0.594727)"/>
</clipPath>
</defs>
</svg>
