<svg width="155" height="113" viewBox="0 0 155 113" fill="none" xmlns="http://www.w3.org/2000/svg">
<g opacity="0.5" clip-path="url(#clip0_1135_73230)">
<path d="M131.799 86.6948H23.1992V96.7948H131.899V86.6948H131.799Z" fill="#6C767A" stroke="#416388" stroke-width="0.6782" stroke-linejoin="round"/>
<path d="M110.1 88.1948H45V98.2948H110.1V88.1948Z" fill="#6C767A" stroke="#416388" stroke-width="0.6782" stroke-linejoin="round"/>
<path d="M8.5 63.4948V64.3947V107.595C8.5 109.995 10.4 111.995 12.9 111.995H23.6C26 111.995 28 110.095 28 107.595V92.1947L8.5 63.4948Z" fill="#99A5A9" stroke="#416388" stroke-width="1.2" stroke-linejoin="round"/>
<path d="M146.5 63.4948V64.3947V107.595C146.5 109.995 144.6 111.995 142.1 111.995H131.4C129 111.995 127 110.095 127 107.595V92.1947L146.5 63.4948Z" fill="#99A5A9" stroke="#416388" stroke-width="1.2" stroke-linejoin="round"/>
<path d="M77.5992 91.9948H140.199C141.999 91.9948 143.499 90.6948 143.799 88.9948C144.699 84.0948 145.199 80.0948 145.599 77.1948C146.099 72.2948 145.999 69.7948 146.599 63.4948C146.999 58.6948 147.599 54.7948 147.899 52.2948C147.399 50.8948 146.599 49.1948 145.699 47.6948C145.099 46.4948 144.399 45.4948 143.799 44.5948C143.399 43.2948 142.899 41.4948 141.599 39.5948C140.599 38.0948 139.499 36.8948 138.599 36.0948C137.099 30.5948 134.599 23.7948 130.499 16.3948C128.699 13.1948 126.799 10.3948 124.999 7.79478C122.899 4.99478 119.899 3.29478 116.499 2.89478C114.299 2.59478 111.999 2.49478 109.799 2.39478C98.5992 1.59478 87.7992 1.39478 77.5992 1.39478C67.4992 1.49478 56.5992 1.59478 45.2992 2.39478C42.9992 2.49478 40.7992 2.79478 38.5992 2.89478C35.2992 3.19478 31.9992 4.99478 30.0992 7.79478C28.2992 10.3948 26.3992 13.1948 24.5992 16.3948C20.4992 23.6948 17.9992 30.4948 16.4992 36.0948C15.5992 36.8948 14.5992 37.9948 13.4992 39.5948C12.1992 41.4948 11.6992 43.2948 11.2992 44.5948C10.6992 45.4948 9.99922 46.4948 9.39922 47.6948C8.49922 49.3948 7.69922 50.8948 7.19922 52.2948C7.59922 54.8948 8.09922 58.6948 8.49922 63.4948C9.09922 69.7948 8.99922 72.4948 9.49922 77.1948C9.79922 80.2948 10.2992 84.2948 11.2992 89.0948C11.6992 90.8948 13.1992 92.0948 14.8992 92.0948H77.5992V91.9948Z" fill="#EAF5F9" stroke="#416388" stroke-width="1.2" stroke-linejoin="round"/>
<path d="M32.899 83.1948L32.799 83.2948C32.299 84.2948 31.299 84.7948 30.099 84.9948L16.299 85.4948C13.999 85.5948 12.299 83.2948 13.099 81.0948L14.099 77.9948C14.599 76.4948 16.299 75.5948 17.799 75.7948L30.699 78.1948C32.899 78.6948 34.099 81.0948 32.899 83.1948Z" fill="#99A5A9" stroke="#416388" stroke-width="0.6782" stroke-linejoin="round"/>
<path d="M77.5996 72.0948C86.5996 72.1948 97.2996 71.5948 108.9 68.9948C110.4 68.5948 112 68.1948 113.5 67.7948C115.4 67.2948 116.2 65.1948 115 63.7948C114.1 62.5948 112.9 61.4948 111.7 60.2948C111.7 60.2948 111.7 60.2948 111.6 60.1948C107.6 56.6948 102.2 54.6948 96.4996 54.4948C96.0996 54.4948 95.6996 54.4948 95.1996 54.4948C89.1996 54.3948 83.1996 54.4948 77.5996 54.4948C71.8996 54.4948 65.9996 54.3948 59.9996 54.4948C59.5996 54.4948 59.0996 54.4948 58.6996 54.4948C52.9996 54.5948 47.5996 56.6948 43.6996 60.1948C43.6996 60.1948 43.6996 60.1948 43.5996 60.2948C42.2996 61.4948 41.1996 62.5948 40.2996 63.7948C39.0996 65.1948 39.8996 67.2948 41.7996 67.7948C43.2996 68.1948 44.7996 68.5948 46.3996 68.9948C57.8996 71.7948 68.5996 72.3948 77.5996 72.0948Z" fill="#99A5A9" stroke="#416388" stroke-width="0.6782" stroke-linejoin="round"/>
<path d="M77.6 85.7948C88.4 85.7948 99.1 85.4948 109.9 84.9948C111.1 84.9948 111.8 83.6948 111.2 82.6948C110.7 81.8948 110.3 81.1948 109.8 80.3948C109.5 79.9948 109 79.7948 108.5 79.7948C98.2 80.2948 87.9 80.3948 77.6 80.3948C67.3 80.3948 57 80.0948 46.7 79.7948C46.2 79.7948 45.7 80.0948 45.4 80.3948C44.9 81.1948 44.5 81.8948 44 82.6948C43.4 83.5948 44.1 84.9948 45.3 84.9948C56 85.4948 66.8 85.7948 77.6 85.7948Z" fill="#99A5A9" stroke="#416388" stroke-width="0.6782" stroke-linejoin="round"/>
<path d="M77.6 85.7948C88.4 85.7948 99.1 85.4948 109.9 84.9948C111.1 84.9948 111.8 83.6948 111.2 82.6948C110.7 81.8948 110.3 81.1948 109.8 80.3948C109.5 79.9948 109 79.7948 108.5 79.7948C98.2 80.2948 87.9 80.3948 77.6 80.3948C67.3 80.3948 57 80.0948 46.7 79.7948C46.2 79.7948 45.7 80.0948 45.4 80.3948C44.9 81.1948 44.5 81.8948 44 82.6948C43.4 83.5948 44.1 84.9948 45.3 84.9948C56 85.4948 66.8 85.7948 77.6 85.7948Z" stroke="#416388" stroke-width="0.6782" stroke-linejoin="round"/>
<path d="M122.1 83.1948L122.2 83.2948C122.7 84.2948 123.7 84.7948 124.9 84.9948L138.7 85.4948C141 85.5948 142.7 83.2948 141.9 81.0948L140.9 77.9948C140.4 76.4948 138.7 75.5948 137.2 75.7948L124.3 78.1948C122.1 78.6948 120.9 81.0948 122.1 83.1948Z" fill="#99A5A9" stroke="#416388" stroke-width="0.6782" stroke-linejoin="round"/>
<path d="M13.8004 50.2948L7.90039 57.3948" stroke="#416388" stroke-width="0.6782" stroke-linejoin="round"/>
<path d="M12.9004 46.4947L11.4004 44.5947" stroke="#416388" stroke-width="0.6782" stroke-linejoin="round"/>
<path d="M16.5 36.0947C16.6 37.5947 17 39.6947 18.4 41.8947C19.8 44.0947 21.5 45.3947 22.8 46.2947C23.8 47.0947 24.7 47.5947 25.4 47.7947" stroke="#416388" stroke-width="0.6782" stroke-linejoin="round"/>
<path d="M17.9004 30.6948C18.4004 31.2948 19.3004 32.3948 20.6004 33.6948C25.6004 38.6948 29.9004 39.8948 34.4004 42.8948C36.7004 44.3948 40.1004 47.0948 43.3004 51.5948" stroke="#416388" stroke-width="0.6782" stroke-linejoin="round"/>
<path d="M20.5 33.5948C21 30.3948 21.7 26.7948 23.1 22.7948C25 16.8948 27.5 11.9948 29.8 8.39478" stroke="#416388" stroke-width="0.6782" stroke-linejoin="round"/>
<path d="M77.5992 30.2947C88.0992 30.3947 98.7992 30.5947 109.799 30.8947C117.299 31.1947 124.699 31.3947 131.899 31.7947C130.699 27.3947 129.199 22.6947 126.999 17.3947C125.799 14.5947 124.599 11.9947 123.299 9.69473C122.699 8.39473 121.199 7.59473 119.799 7.49473C114.899 7.39473 109.899 7.19473 104.899 7.09473C95.5992 6.99473 86.3992 6.59473 77.5992 6.59473C68.7992 6.59473 59.3992 6.99473 50.1992 7.29473C45.0992 7.29473 40.1992 7.39473 35.2992 7.69473C33.7992 7.69473 32.4992 8.59473 31.7992 9.89473C30.4992 12.1947 29.3992 14.7947 28.0992 17.5947C25.8992 22.6947 24.3992 27.5947 23.1992 31.9947C30.4992 31.5947 37.8992 31.3947 45.2992 31.0947C56.1992 30.6947 66.9992 30.3947 77.5992 30.2947Z" fill="#99A5A9" stroke="#416388" stroke-width="0.6782" stroke-linejoin="round"/>
<path d="M13.9995 46.0947C17.4995 46.5947 23.3995 47.4947 24.6995 47.7947C24.7995 47.7947 25.0995 47.8947 25.1995 47.8947L39.2995 54.9947C40.5995 55.5947 40.4995 57.1947 38.9995 57.6947L36.2995 58.4947H36.1995C34.6995 58.7947 24.7995 60.2947 17.2995 54.2947C14.8995 52.1947 13.2995 49.8947 12.3995 48.0947C11.9995 46.9947 12.8995 45.7947 13.9995 46.0947Z" fill="white" stroke="#416388" stroke-width="0.6782" stroke-linejoin="round"/>
<path d="M141 46.0947C137.5 46.5947 131.6 47.4947 130.3 47.7947C130.2 47.7947 129.9 47.8947 129.8 47.8947L115.7 54.9947C114.4 55.5947 114.5 57.1947 116 57.6947L118.8 58.5947H118.9C120.4 58.8947 130.3 60.3947 137.8 54.3947C140.2 52.2947 141.8 49.9947 142.7 48.1947C143.2 46.9947 142.3 45.7947 141 46.0947Z" fill="white" stroke="#416388" stroke-width="0.6782" stroke-linejoin="round"/>
<path d="M119.8 52.8947C115 52.2947 110.2 51.6947 105 51.3947C95.2 50.5947 86.1 50.3947 77.5 50.3947H77.8C69.2 50.2947 60 50.6947 50.3 51.3947C45.2 51.7947 40.3 52.2947 35.5 52.8947" stroke="#416388" stroke-width="0.6782" stroke-linejoin="round"/>
<path d="M18.6996 83.5947C20.3996 83.5947 21.7996 82.2947 21.7996 80.5947C21.7996 78.8947 20.3996 77.5947 18.6996 77.5947C16.9996 77.5947 15.5996 78.8947 15.5996 80.5947C15.5996 82.2947 16.8996 83.5947 18.6996 83.5947Z" fill="white" stroke="#416388" stroke-width="0.6782" stroke-linejoin="round"/>
<path d="M133.301 80.5947C133.301 78.8947 134.701 77.5947 136.401 77.5947C138.101 77.5947 139.501 78.9947 139.501 80.5947C139.501 82.2947 138.101 83.5947 136.401 83.5947C134.701 83.6947 133.301 82.2947 133.301 80.5947Z" fill="white" stroke="#416388" stroke-width="0.6782" stroke-linejoin="round"/>
<path d="M141.199 50.2948L147.199 57.3948" stroke="#416388" stroke-width="0.6782" stroke-linejoin="round"/>
<path d="M142.1 46.4947L143.6 44.5947" stroke="#416388" stroke-width="0.6782" stroke-linejoin="round"/>
<path d="M138.5 36.0947C138.4 37.5947 138 39.6947 136.6 41.8947C135.2 44.0947 133.5 45.3947 132.2 46.2947C131.2 47.0947 130.3 47.5947 129.6 47.7947" stroke="#416388" stroke-width="0.6782" stroke-linejoin="round"/>
<path d="M137.3 30.6948C136.8 31.2948 135.9 32.3948 134.6 33.6948C129.6 38.6948 125.3 39.8948 120.8 42.8948C118.5 44.3948 115.1 47.0948 111.9 51.5948" stroke="#416388" stroke-width="0.6782" stroke-linejoin="round"/>
<path d="M134.499 33.5948C133.999 30.3948 133.299 26.7948 131.899 22.7948C129.999 16.8948 127.499 11.9948 125.199 8.39478" stroke="#416388" stroke-width="0.6782" stroke-linejoin="round"/>
<path d="M15.1 30.0948C15.1 27.4948 11.9 25.2948 7.8 25.2948C3.7 25.2948 0.5 27.4948 0.5 30.0948C0.5 32.6948 3.7 34.8948 7.8 34.8948C11.8 34.8948 15.1 32.7948 15.1 30.0948Z" fill="#99A5A9" stroke="#416388" stroke-width="0.6782" stroke-linejoin="round"/>
<path d="M8.59961 34.8948C9.19961 36.1948 9.89961 37.5948 10.4996 38.8948C10.9996 39.8948 11.4996 40.7948 11.9996 41.6948C12.9996 40.1948 14.0996 38.5948 15.1996 37.0948C14.5996 35.7948 13.9996 34.6948 13.3996 33.3948C12.9996 33.2948 11.8996 32.9948 10.3996 33.4948C9.49961 33.8948 8.89961 34.4948 8.59961 34.8948Z" fill="white" stroke="#416388" stroke-width="0.6782" stroke-miterlimit="10"/>
<path d="M147.3 34.8948C151.3 34.8948 154.6 32.7948 154.6 30.0948C154.6 27.4948 151.3 25.2948 147.3 25.2948C143.3 25.2948 140 27.3948 140 30.0948C140 32.7948 143.2 34.8948 147.3 34.8948Z" fill="#99A5A9" stroke="#416388" stroke-width="0.6782" stroke-linejoin="round"/>
<path d="M146.4 34.8948C145.8 36.1948 145.1 37.5948 144.5 38.8948C144 39.7948 143.6 40.6948 143.1 41.6948C142.1 40.1948 141 38.5948 139.9 37.0948C140.5 35.7948 141.1 34.6948 141.7 33.3948C142.1 33.2948 143.2 32.9948 144.7 33.4948C145.5 33.8948 146.1 34.4948 146.4 34.8948Z" fill="white" stroke="#416388" stroke-width="0.6782" stroke-miterlimit="10"/>
</g>
<defs>
<clipPath id="clip0_1135_73230">
<rect width="155" height="112" fill="white" transform="translate(0 0.594727)"/>
</clipPath>
</defs>
</svg>
