<svg width="386" height="133" viewBox="0 0 386 133" fill="none" xmlns="http://www.w3.org/2000/svg">
<g opacity="0.5" clip-path="url(#clip0_1135_72667)">
<path d="M12.7969 112.899C25.4526 114.446 37.9677 116.133 50.6235 117.679C140.62 117.398 230.757 117.257 320.753 116.976C322.441 115.992 324.128 115.008 325.956 114.024C337.627 112.759 349.299 111.353 360.97 110.088C367.017 106.574 373.064 102.919 379.11 99.4043C343.674 64.2605 299.379 56.3883 274.911 73.9602C270.411 77.1934 259.865 86.1902 254.943 106.995C208.117 107.558 161.291 108.12 114.465 108.682C115.59 85.0656 97.5903 65.2445 75.9349 63.9794C52.5921 62.5736 31.0774 82.8164 32.0617 108.401C25.5932 109.947 19.2654 111.494 12.7969 112.899Z" fill="#6C767A" stroke="#416388" stroke-width="0.7004" stroke-linejoin="round"/>
<path d="M384.876 82.957C384.735 80.9889 384.454 79.1615 384.173 77.334C384.032 76.4905 383.61 75.6471 382.907 75.0848C381.642 73.9602 380.376 72.8356 379.11 71.711C378.97 67.6343 378.548 63.4171 377.985 58.7781C377.282 53.7174 376.439 49.0784 375.595 44.8611C371.517 43.4554 367.58 42.1902 363.502 40.7845C358.018 38.957 353.096 35.7238 349.159 31.5065L339.596 21.104L351.971 9.15508C322.722 5.35955 298.114 3.53207 279.974 2.54805C263.803 1.7046 250.866 1.00172 233.148 1.28287C205.867 1.7046 187.728 2.12632 164.525 8.03048C145.964 12.81 131.48 19.1359 114.605 26.5864C100.544 32.7717 89.1534 38.6758 80.9975 43.0337C67.3574 45.564 52.1705 49.3596 35.9993 54.7014C26.5778 57.7941 17.8594 61.1679 9.8441 64.5417C6.04738 66.2286 3.37561 69.7429 2.95375 73.9602V74.1008C2.95375 73.9602 3.09437 73.679 3.09437 73.5385C4.21932 80.0049 4.64118 83.3787 4.7818 85.2062C4.7818 86.0496 4.92242 86.8931 4.35994 88.0177C3.79747 89.2829 2.67251 90.6886 1.96942 91.5321C1.96942 95.3276 1.96942 98.842 2.25065 102.216L1.1257 104.887C0.563222 106.292 1.1257 108.12 2.53189 108.682C3.37561 109.104 4.35994 109.526 5.20366 109.947C7.73481 110.931 9.98472 111.775 12.2346 112.478L41.4834 114.446C41.0616 111.915 40.6397 107.979 41.3428 103.059C41.7647 100.107 43.4521 84.7845 57.5141 76.4905C69.0448 69.6024 83.2474 71.5704 92.9501 77.7557C107.715 87.1742 107.575 104.606 107.856 107.979C108.137 110.791 108.137 112.899 107.996 114.586H271.255C268.162 98.9826 274.63 83.3787 287.427 75.6471C297.551 69.4618 310.348 69.0401 320.753 74.2413C333.69 80.5672 341.565 94.6247 340.581 109.807C345.784 109.245 351.127 108.542 356.752 107.698C363.361 106.714 369.689 105.73 375.736 104.465C377.423 102.919 379.251 101.091 381.22 98.9825C382.063 97.9985 382.907 97.0145 383.61 96.171C384.595 94.9059 385.298 93.219 385.298 91.5321C385.298 88.8611 385.157 86.0496 384.876 82.957Z" fill="#EAF5F9" stroke="#416388" stroke-width="1.2365" stroke-linejoin="round"/>
<path d="M85.685 129.081C100.147 123.004 106.944 106.357 100.865 91.8995C94.7857 77.4415 78.1335 70.6475 63.671 76.7246C49.2085 82.8016 42.4124 99.4486 48.4914 113.907C54.5703 128.364 71.2225 135.159 85.685 129.081Z" fill="#99A5A9" stroke="#416388" stroke-width="1.2393" stroke-linejoin="round"/>
<path d="M83.0927 123.01C94.1961 118.361 99.4276 105.594 94.7775 94.4941C90.1274 83.3941 77.3566 78.1643 66.2531 82.813C55.1496 87.4616 49.9181 100.228 54.5682 111.328C59.2184 122.428 71.9892 127.658 83.0927 123.01Z" fill="white" stroke="#416388" stroke-width="0.7004" stroke-linejoin="round"/>
<path d="M72.4209 103.481C72.1397 102.356 72.8428 101.091 74.1084 100.81C75.3739 100.529 76.6395 101.232 76.9207 102.356C77.202 103.481 76.4989 104.746 75.2333 105.027C73.9677 105.449 72.7022 104.606 72.4209 103.481Z" stroke="#416388" stroke-width="0.7004" stroke-linecap="round" stroke-linejoin="round"/>
<path d="M69.7489 84.0818C69.0458 84.2224 68.2021 84.5035 67.3584 84.7847C67.0771 84.9252 66.7959 85.0658 66.5146 85.2064C66.2334 85.347 65.9522 85.6281 65.8115 86.0498L64.9678 87.8773C64.6866 88.5802 64.8272 89.4236 65.5303 89.8454L70.8738 93.922C71.7176 94.4843 72.8425 94.2032 73.2644 93.3597L76.0768 87.1744C76.358 86.4716 76.2174 85.6281 75.5143 85.2064L73.9675 84.0818C73.6862 83.8006 73.2644 83.8006 72.9831 83.8006C72.7019 83.8006 72.4207 83.8006 71.9988 83.8006C71.2957 83.6601 70.452 83.8006 69.7489 84.0818Z" fill="#D2DBDD" stroke="#416388" stroke-width="0.7004" stroke-linejoin="round"/>
<path d="M55.2656 101.654C55.2656 102.356 55.125 103.2 55.2656 104.043C55.2656 104.324 55.4062 104.606 55.4062 104.887C55.4062 105.308 55.6875 105.59 55.9687 105.871L57.3749 107.136C57.9374 107.698 58.7811 107.698 59.3436 107.277L64.8277 103.34C65.6715 102.778 65.6715 101.513 64.9684 100.81L59.9061 96.3117C59.3436 95.7494 58.4999 95.7494 57.9374 96.1711L56.3906 97.2957C56.1093 97.4363 55.8281 97.858 55.8281 98.1391C55.6875 98.4203 55.6875 98.7014 55.5469 98.9826C55.4062 100.107 55.2656 100.951 55.2656 101.654Z" fill="#D2DBDD" stroke="#416388" stroke-width="0.7004" stroke-linejoin="round"/>
<path d="M67.2189 120.631C67.922 120.913 68.6251 121.194 69.6094 121.475C69.8907 121.615 70.1719 121.615 70.4532 121.615C70.875 121.615 71.1563 121.615 71.4375 121.475L73.1249 120.491C73.828 120.069 74.1093 119.366 73.828 118.663L72 112.197C71.7187 111.213 70.5938 110.791 69.7501 111.213L63.8441 114.446C63.141 114.868 62.8597 115.571 63.141 116.274L63.7034 118.101C63.8441 118.523 63.9847 118.804 64.2659 118.945C64.5472 119.085 64.8284 119.226 64.969 119.507C65.8127 120.069 66.5158 120.491 67.2189 120.631Z" fill="#D2DBDD" stroke="#416388" stroke-width="0.7004" stroke-linejoin="round"/>
<path d="M89.7166 114.727C90.1385 114.165 90.7009 113.462 91.1228 112.759C91.2634 112.478 91.404 112.197 91.5447 111.916C91.6853 111.634 91.6853 111.213 91.6853 110.791L91.2634 108.964C91.1228 108.261 90.4197 107.698 89.7166 107.698H82.9669C81.9825 107.698 81.1388 108.682 81.4201 109.666L82.9669 116.273C83.1075 116.976 83.8106 117.539 84.5137 117.539H86.4824C86.9042 117.539 87.1855 117.398 87.4667 117.117C87.7479 116.976 87.8886 116.695 88.1698 116.555C88.7323 115.992 89.2947 115.289 89.7166 114.727Z" fill="#D2DBDD" stroke="#416388" stroke-width="0.7004" stroke-linejoin="round"/>
<path d="M90.9834 92.3758C90.5616 91.8135 90.1397 91.1106 89.5772 90.4078C89.296 90.1266 89.1554 89.986 88.8741 89.7049C88.5929 89.4237 88.3117 89.2832 87.8898 89.2832L85.9211 89.1426C85.218 89.002 84.5149 89.5643 84.2337 90.2672L81.9838 96.5931C81.7025 97.5771 82.265 98.5611 83.39 98.7017L90.1397 99.4046C90.8428 99.5452 91.5459 98.9828 91.8271 98.28L92.5302 96.4525C92.6709 96.1714 92.6709 95.7496 92.5302 95.3279C92.3896 95.0467 92.3896 94.7656 92.249 94.4844C91.8271 93.641 91.4053 92.9381 90.9834 92.3758Z" fill="#D2DBDD" stroke="#416388" stroke-width="0.7004" stroke-linejoin="round"/>
<path d="M373.344 44.1582C368.845 38.5352 363.923 32.9122 358.861 27.1486C354.783 22.6502 350.705 18.2924 346.767 14.0751L339.596 21.1039L349.158 31.5064C353.095 35.7237 358.017 38.9569 363.501 40.7844C366.735 41.909 370.11 43.0336 373.344 44.1582Z" fill="#99A5A9" stroke="#416388" stroke-width="0.5571" stroke-linejoin="round"/>
<path d="M84.5137 50.2028C154.261 45.845 223.867 41.4872 293.615 37.1293C302.755 36.567 311.192 32.0686 316.817 24.8993L323.004 17.0271C291.927 9.57662 265.209 7.32742 245.242 6.76512C226.68 6.34339 201.65 5.78109 170.151 12.9504C151.589 17.1677 137.808 22.5095 131.621 24.8993C111.653 33.0527 95.9038 42.4712 84.5137 50.2028Z" stroke="#416388" stroke-width="0.7004" stroke-linejoin="round"/>
<path d="M212.896 39.6598L278.425 35.5831V25.6023L273.644 11.2637C264.082 10.2796 254.66 9.71733 245.098 9.43618C240.458 9.2956 235.536 9.15503 230.193 9.15503C225.552 9.15503 220.068 9.2956 213.74 9.57675L212.896 39.6598Z" fill="#99A5A9"/>
<path d="M129.791 44.8611L195.882 40.7844L202.491 10.2796C193.07 11.2636 182.383 12.81 170.711 15.4809C161.852 17.5895 152.853 20.1199 144.275 23.0719L129.791 44.8611Z" fill="#99A5A9"/>
<path d="M281.66 12.1069C284.613 19.698 287.707 27.289 290.66 34.7395L293.472 34.5989C301.909 34.0366 309.643 29.96 314.706 23.3529L318.502 18.5734C306.269 15.7619 294.035 13.6533 281.66 12.1069Z" fill="#99A5A9"/>
<path d="M135.979 26.024C134.854 26.4458 133.729 26.8675 132.604 27.2892C119.104 32.7717 106.167 39.3787 93.9336 46.9697L118.964 45.4234C123.745 39.941 130.916 31.9282 135.979 26.024Z" fill="#99A5A9"/>
<path d="M212.896 39.6598L278.425 35.5831V25.6023L273.644 11.2637C264.082 10.2796 254.66 9.71733 245.098 9.43618C240.458 9.2956 235.536 9.15503 230.193 9.15503C225.552 9.15503 220.068 9.2956 213.74 9.57675L212.896 39.6598Z" stroke="#416388" stroke-width="0.7004" stroke-linejoin="round"/>
<path d="M129.791 44.8611L195.882 40.7844L202.491 10.2796C193.07 11.2636 182.383 12.81 170.711 15.4809C161.852 17.5895 152.853 20.1199 144.275 23.0719L129.791 44.8611Z" stroke="#416388" stroke-width="0.7004" stroke-linejoin="round"/>
<path d="M281.66 12.1069C284.613 19.698 287.707 27.289 290.66 34.7395L293.472 34.5989C301.909 34.0366 309.643 29.96 314.706 23.3529L318.502 18.5734C306.269 15.7619 294.035 13.6533 281.66 12.1069Z" stroke="#416388" stroke-width="0.7004" stroke-linejoin="round"/>
<path d="M135.979 26.024C134.854 26.4458 133.729 26.8675 132.604 27.2892C119.104 32.7717 106.167 39.3787 93.9336 46.9697L118.964 45.4234C123.745 39.941 130.916 31.9282 135.979 26.024Z" stroke="#416388" stroke-width="0.7004" stroke-linejoin="round"/>
<path d="M212.896 39.6598L278.425 35.5831V25.6023L273.644 11.2637C264.082 10.2796 254.66 9.71733 245.098 9.43618C240.458 9.2956 235.536 9.15503 230.193 9.15503C225.552 9.15503 220.068 9.2956 213.74 9.57675L212.896 39.6598Z" stroke="#416388" stroke-width="0.5571" stroke-linejoin="round"/>
<path d="M129.791 44.8611L195.882 40.7844L202.491 10.2796C193.07 11.2636 182.383 12.81 170.711 15.4809C161.852 17.5895 152.853 20.1199 144.275 23.0719L129.791 44.8611Z" stroke="#416388" stroke-width="0.5571" stroke-linejoin="round"/>
<path d="M281.66 12.1069C284.613 19.698 287.707 27.289 290.66 34.7395L293.472 34.5989C301.909 34.0366 309.643 29.96 314.706 23.3529L318.502 18.5734C306.269 15.7619 294.035 13.6533 281.66 12.1069Z" stroke="#416388" stroke-width="0.5571" stroke-linejoin="round"/>
<path d="M135.979 26.024C134.854 26.4458 133.729 26.8675 132.604 27.2892C119.104 32.7717 106.167 39.3787 93.9336 46.9697L118.964 45.4234C123.745 39.941 130.916 31.9282 135.979 26.024Z" stroke="#416388" stroke-width="0.5571" stroke-linejoin="round"/>
<path d="M208.54 7.32758L203.759 42.7525C202.775 50.6247 202.071 59.0592 201.65 67.7749C200.806 83.2381 200.947 97.8579 201.65 111.072" stroke="#416388" stroke-width="0.5571" stroke-linejoin="round"/>
<path d="M278.146 9.01453L292.911 45.9858C294.177 49.0784 294.177 52.4522 293.193 55.6855C292.63 57.5129 291.786 59.481 290.661 61.5896C287.287 67.9155 283.209 71.711 282.084 72.8356C277.303 77.4746 270.834 86.7525 263.662 107.136C263.381 107.698 262.819 108.823 261.694 109.807C260.288 110.931 258.741 111.072 258.178 111.213C211.915 111.213 165.651 111.213 119.528 111.213C118.965 106.152 117.981 97.7174 116.715 86.4714C116.715 86.4714 115.59 76.7717 115.731 65.104C115.731 62.9954 115.872 59.1998 117.137 54.5608C117.84 51.7493 118.825 49.6407 119.528 48.0944C127.121 39.0976 134.574 30.2414 142.167 21.2446" stroke="#416388" stroke-width="0.5571" stroke-linejoin="round"/>
<path d="M31.2187 60.1837C31.0781 60.1837 31.0781 60.1837 30.9375 60.1837C27.422 61.3083 23.2034 62.9952 18.7036 65.5255C14.6256 68.0559 11.2508 70.7268 8.43838 73.2571C7.87591 73.6789 8.29776 74.8035 9.00086 74.6629C11.9539 74.2412 14.9069 73.6789 18.0005 72.976C28.2657 70.5862 37.1247 67.0718 44.5776 63.2763C45.14 62.9952 44.9994 61.8706 44.2963 61.73C40.0777 61.1677 35.5779 60.746 31.2187 60.1837Z" fill="white" stroke="#416388" stroke-width="0.6588" stroke-linejoin="round"/>
<path d="M45.1387 62.2925C48.9354 61.8707 54.4195 61.1679 61.0287 60.465C89.9962 57.2318 116.292 54.9826 164.806 52.1711C204.32 49.9219 244.677 46.9698 286.441 45.4235C308.378 44.58 323.284 43.596 336.502 43.1743" stroke="#416388" stroke-width="0.6588" stroke-linejoin="round"/>
<path d="M377.141 53.5767C376.578 50.484 376.157 47.6725 375.453 45.0016C373.907 44.4393 372.219 43.877 370.672 43.3147H336.361L348.736 53.5767H377.141Z" fill="#99A5A9" stroke="#416388" stroke-width="0.7004" stroke-linejoin="round"/>
<path d="M348.736 53.5769C347.048 57.0913 344.798 61.0274 341.845 65.1041C337.627 71.1488 333.267 75.7878 329.33 79.1616" stroke="#416388" stroke-width="0.5571" stroke-linejoin="round"/>
<path d="M331.02 6.90594C331.441 8.17112 332.004 9.57687 332.707 10.9826C334.676 15.3404 337.347 18.7143 339.597 21.104" stroke="#416388" stroke-width="0.5571" stroke-linejoin="round"/>
<path d="M30.375 60.3244C40.2184 57.6535 51.046 55.2637 62.5768 53.2957C70.4515 51.8899 78.045 50.9059 85.2165 50.0624" stroke="#416388" stroke-width="0.5571" stroke-linejoin="round"/>
<path d="M9.42174 71.0082L6.04688 67.6344" stroke="#416388" stroke-width="0.5571" stroke-linejoin="round"/>
<path d="M31.7812 68.7589L47.9525 85.2062" stroke="#416388" stroke-width="0.5571" stroke-linejoin="round"/>
<path d="M385.157 89.2828H380.516C379.11 89.2828 377.845 88.2988 377.423 86.893C377.001 85.4873 376.438 83.9409 375.595 82.254C374.048 79.302 372.22 77.0528 370.814 75.647C370.111 71.7109 369.267 67.3531 368.001 62.8547C367.158 59.9026 366.314 57.0911 365.329 54.4202C364.064 52.0304 362.658 49.5001 361.111 46.9697C357.455 41.2061 353.658 36.4266 350.143 32.631" stroke="#416388" stroke-width="0.5571" stroke-linejoin="round"/>
<path d="M370.953 75.3658C372.078 74.5224 373.625 73.6789 375.453 72.9761C376.719 72.4138 377.984 71.992 379.109 71.7109" stroke="#416388" stroke-width="0.5571" stroke-linejoin="round"/>
<path d="M194.197 54.9827C194.197 54.1393 189.978 53.4364 184.916 53.577C179.713 53.7175 175.635 54.4204 175.635 55.2639C175.635 56.1073 179.853 56.8102 184.916 56.6696C189.978 56.6696 194.197 55.8262 194.197 54.9827Z" stroke="#416388" stroke-width="0.7004" stroke-linejoin="round"/>
<path d="M280.818 50.0625C280.818 49.219 276.599 48.5162 271.537 48.6567C266.334 48.7973 262.256 49.5002 262.256 50.3436C262.256 51.1871 266.474 51.89 271.537 51.7494C276.599 51.7494 280.818 50.9059 280.818 50.0625Z" stroke="#416388" stroke-width="0.7004" stroke-linejoin="round"/>
<path d="M4.36026 88.0176C4.78212 86.893 4.78212 86.0495 4.78212 85.2061C4.6415 83.3786 4.21964 80.0048 3.09469 73.5383C1.82912 79.7236 1.12602 85.4872 1.40726 89.5639C1.54788 90.5479 1.54788 91.3914 1.82912 91.9537C2.39159 91.1102 3.65717 89.5639 4.36026 88.0176Z" fill="#99A5A9" stroke="#416388" stroke-width="0.7004" stroke-linejoin="round"/>
<path d="M14.484 97.2956L22.9212 94.4841C24.3274 94.0624 25.593 95.187 26.0148 97.1551L26.7179 100.107C27.2804 102.497 26.1554 104.887 24.3274 105.168L15.609 106.292C14.3434 106.433 13.2185 105.308 12.7966 103.622C12.656 103.2 12.656 102.919 12.5154 102.497C11.9529 100.248 12.9372 97.8579 14.484 97.2956Z" fill="#99A5A9" stroke="#416388" stroke-width="0.7004" stroke-linejoin="round"/>
<path d="M23.4842 100.388C23.4842 98.2797 22.7811 96.5928 21.7968 96.5928C20.9531 96.5928 20.1094 98.2797 20.1094 100.388C20.1094 102.497 20.8125 104.184 21.7968 104.184C22.7811 104.184 23.4842 102.497 23.4842 100.388Z" fill="white" stroke="#416388" stroke-width="0.7004" stroke-linejoin="round"/>
<path d="M126.418 45.1422L132.886 48.2349C132.043 49.7812 131.058 51.3275 130.215 52.7333C130.074 52.7333 128.949 53.0144 127.262 52.0304C125.855 51.1869 125.152 50.2029 125.012 50.0623L126.418 45.1422Z" fill="#D2DBDD" stroke="#416388" stroke-width="0.7004" stroke-miterlimit="10"/>
<path d="M137.948 35.8643C136.823 35.8643 135.417 36.1455 134.292 36.286C131.198 36.8483 127.824 37.5512 126.417 40.3627C125.433 42.4713 126.136 44.8611 127.121 46.2669C128.949 48.9378 133.027 49.219 135.839 47.5321C136.401 43.5959 137.105 39.6598 137.948 35.8643Z" fill="#99A5A9" stroke="#416388" stroke-width="0.8233" stroke-linejoin="round"/>
<path d="M316.16 129.063C330.622 122.986 337.418 106.339 331.339 91.8815C325.26 77.4236 308.608 70.6296 294.146 76.7066C279.683 82.7837 272.887 99.4306 278.966 113.889C285.045 128.347 301.697 135.141 316.16 129.063Z" fill="#99A5A9" stroke="#416388" stroke-width="1.2393" stroke-linejoin="round"/>
<path d="M313.573 123.008C324.677 118.36 329.908 105.593 325.258 94.4928C320.608 83.3928 307.837 78.163 296.734 82.8117C285.63 87.4603 280.399 100.227 285.049 111.327C289.699 122.427 302.47 127.657 313.573 123.008Z" fill="white" stroke="#416388" stroke-width="0.7004" stroke-linejoin="round"/>
<path d="M302.894 103.481C302.612 102.356 303.315 101.091 304.581 100.81C305.847 100.529 307.112 101.232 307.393 102.356C307.675 103.481 306.972 104.746 305.706 105.027C304.44 105.449 303.175 104.606 302.894 103.481Z" stroke="#416388" stroke-width="0.7004" stroke-linecap="round" stroke-linejoin="round"/>
<path d="M300.222 84.0817C299.518 84.2223 298.675 84.5034 297.831 84.7846C297.55 84.9252 297.269 85.0657 296.987 85.2063C296.706 85.3469 296.425 85.628 296.284 86.0498L295.44 87.8772C295.159 88.5801 295.3 89.4236 296.003 89.8453L301.346 93.922C302.19 94.4843 303.315 94.2031 303.737 93.3597L306.549 87.1744C306.831 86.4715 306.69 85.628 305.987 85.2063L304.44 84.0817C304.159 83.8006 303.737 83.8006 303.456 83.8006C303.175 83.8006 302.893 83.8006 302.471 83.8006C301.628 83.66 300.925 83.8006 300.222 84.0817Z" fill="#D2DBDD" stroke="#416388" stroke-width="0.7004" stroke-linejoin="round"/>
<path d="M285.738 101.654C285.738 102.356 285.598 103.2 285.738 104.043C285.738 104.324 285.879 104.606 285.879 104.887C285.879 105.308 286.16 105.59 286.441 105.871L287.848 107.136C288.41 107.698 289.254 107.698 289.816 107.277L295.3 103.34C296.144 102.778 296.144 101.513 295.441 100.81L290.379 96.3117C289.816 95.7494 288.973 95.7494 288.41 96.1711L286.863 97.2957C286.582 97.4363 286.301 97.858 286.301 98.1391C286.16 98.4203 286.16 98.7014 286.02 98.9826C285.879 100.107 285.738 100.951 285.738 101.654Z" fill="#D2DBDD" stroke="#416388" stroke-width="0.7004" stroke-linejoin="round"/>
<path d="M297.692 120.631C298.395 120.913 299.098 121.194 300.082 121.475C300.363 121.615 300.645 121.615 300.926 121.615C301.348 121.615 301.629 121.615 301.91 121.475L303.598 120.491C304.301 120.069 304.582 119.366 304.301 118.663L302.473 112.197C302.191 111.213 301.066 110.791 300.223 111.213L294.317 114.446C293.614 114.868 293.332 115.571 293.614 116.274L294.176 118.101C294.317 118.523 294.457 118.804 294.739 118.945C295.02 119.085 295.301 119.226 295.442 119.507C296.285 120.069 296.988 120.491 297.692 120.631Z" fill="#D2DBDD" stroke="#416388" stroke-width="0.7004" stroke-linejoin="round"/>
<path d="M320.189 114.727C320.611 114.165 321.174 113.462 321.595 112.759C321.736 112.478 321.877 112.197 322.017 111.916C322.158 111.634 322.158 111.213 322.158 110.791L321.736 108.964C321.595 108.261 320.892 107.698 320.189 107.698H313.44C312.455 107.698 311.611 108.682 311.893 109.666L313.44 116.273C313.58 116.976 314.283 117.539 314.986 117.539H316.955C317.377 117.539 317.658 117.398 317.939 117.117C318.221 116.976 318.361 116.695 318.642 116.555C319.205 115.992 319.767 115.289 320.189 114.727Z" fill="#D2DBDD" stroke="#416388" stroke-width="0.7004" stroke-linejoin="round"/>
<path d="M321.456 92.3758C321.034 91.8135 320.612 91.1106 320.05 90.4077C319.769 90.1266 319.628 89.986 319.347 89.7048C319.066 89.4237 318.784 89.2831 318.362 89.2831L316.394 89.1425C315.691 89.002 314.988 89.5643 314.706 90.2671L312.456 96.593C312.175 97.577 312.738 98.5611 313.863 98.7016L320.612 99.4045C321.315 99.5451 322.019 98.9828 322.3 98.2799L323.003 96.4524C323.143 96.1713 323.143 95.7496 323.003 95.3278C322.862 95.0467 322.862 94.7655 322.722 94.4844C322.3 93.6409 321.878 92.9381 321.456 92.3758Z" fill="#D2DBDD" stroke="#416388" stroke-width="0.7004" stroke-linejoin="round"/>
</g>
<defs>
<clipPath id="clip0_1135_72667">
<rect width="386" height="132" fill="white" transform="translate(0 0.298828)"/>
</clipPath>
</defs>
</svg>
