<svg width="171" height="133" viewBox="0 0 171 133" fill="none" xmlns="http://www.w3.org/2000/svg">
<g opacity="0.5" clip-path="url(#clip0_1135_72767)">
<path d="M147.364 105.899H24.5078V117.414H147.364V105.899Z" fill="#6C767A" stroke="#416388" stroke-width="0.7004" stroke-linejoin="round"/>
<path d="M10.8574 76.8308V77.8138V126.541C10.8574 129.35 13.1091 131.456 15.7829 131.456H27.7448C30.5594 131.456 32.6703 129.21 32.6703 126.541V109.129L10.8574 76.8308Z" fill="#99A5A9" stroke="#416388" stroke-width="1.2393" stroke-linejoin="round"/>
<path d="M161.014 76.8308V77.8138V126.541C161.014 129.35 158.762 131.456 156.089 131.456H144.127C141.312 131.456 139.201 129.21 139.201 126.541V109.129L161.014 76.8308Z" fill="#99A5A9" stroke="#416388" stroke-width="1.2393" stroke-linejoin="round"/>
<path d="M14.5153 53.9414C15.219 52.3968 16.0634 50.7116 17.3299 49.0265C17.6114 48.6053 17.8928 48.3244 18.1743 47.9031L15.0783 45.235H9.58984C10.2935 46.6393 10.9971 48.0436 11.8415 49.5882C12.6859 51.1329 13.5302 52.5372 14.5153 53.9414Z" fill="#D2DBDD" stroke="#416388" stroke-width="0.7004" stroke-miterlimit="10"/>
<path d="M13.249 46.3586L4.38314 44.2522C2.55367 43.8309 1.28711 41.865 1.28711 39.899L1.42784 36.8096C1.42784 34.8437 2.83512 33.1586 4.66459 33.1586H13.3898C16.0636 33.1586 18.5967 35.4054 18.5967 38.2139V42.4267C18.5967 45.2352 16.0636 47.0607 13.249 46.3586Z" fill="#99A5A9" stroke="#416388" stroke-width="0.7004" stroke-linejoin="round"/>
<path d="M14.3757 44.8139C14.0942 44.8139 13.8128 44.8139 13.5313 44.6735L4.66541 42.5671C3.68031 42.2862 2.83594 41.0224 2.83594 39.7586L3.11739 36.8096C3.11739 35.6862 3.82104 34.8437 4.66541 34.8437H13.3906C15.22 34.8437 16.9088 36.3884 16.9088 38.2139V42.4267C16.9088 43.8309 15.9237 44.8139 14.3757 44.8139Z" fill="#D2DBDD" stroke="#416388" stroke-width="0.7004" stroke-miterlimit="10"/>
<path d="M157.354 53.9414C156.651 52.3967 155.806 50.7116 154.54 49.0265C154.258 48.6052 153.977 48.3244 153.695 47.9031L156.651 45.235H162.139C161.435 46.6392 160.732 48.0435 159.887 49.5882C159.043 51.1329 158.199 52.5371 157.354 53.9414Z" fill="#D2DBDD" stroke="#416388" stroke-width="0.7004" stroke-miterlimit="10"/>
<path d="M158.48 46.3584L167.346 44.252C169.176 43.8307 170.442 41.8648 170.442 39.8988L170.302 36.9499C170.302 34.9839 168.894 33.2988 167.065 33.2988H158.48C155.807 33.2988 153.273 35.5456 153.273 38.3541V42.5669C153.273 45.235 155.807 47.0605 158.48 46.3584Z" fill="#99A5A9" stroke="#416388" stroke-width="0.7004" stroke-linejoin="round"/>
<path d="M157.354 44.8137C157.635 44.8137 157.916 44.8137 158.198 44.6732L167.064 42.5669C168.049 42.286 168.893 41.0222 168.893 39.7583L168.753 36.8094C168.753 35.686 168.049 34.8434 167.205 34.8434H158.479C156.65 34.8434 154.961 36.3881 154.961 38.2137V42.4264C154.82 43.8307 155.946 44.8137 157.354 44.8137Z" fill="#D2DBDD" stroke="#416388" stroke-width="0.7004" stroke-miterlimit="10"/>
<path d="M85.8644 114.184H152.429C154.821 114.184 157.073 112.499 157.495 109.971C158.902 102.248 160.169 93.6819 160.732 84.133C161.295 74.4436 161.154 65.5968 160.591 57.733L151.866 43.9713C150.459 37.5117 148.489 33.1585 145.674 25.2947C143.422 19.2564 141.452 14.4819 139.341 10.1287C139.06 9.4266 138.638 8.72447 138.356 8.16277C136.667 4.93299 133.431 2.8266 129.772 2.54575C125.972 2.2649 122.172 2.12447 118.373 1.98405C107.255 1.56277 96.4191 1.28192 85.8644 1.28192C75.3098 1.28192 64.4737 1.56277 53.3561 1.98405C49.5565 2.12447 45.7568 2.40533 41.9571 2.54575C38.2982 2.68618 35.0614 4.93299 33.3727 8.16277C33.0912 8.72447 32.8098 9.4266 32.3876 10.1287C30.2767 14.4819 28.3065 19.2564 26.0548 25.2947C23.2402 33.1585 21.2701 37.5117 19.8628 43.9713L11.1376 57.733C10.7154 65.5968 10.434 74.4436 10.9969 84.133C11.5598 93.6819 12.6856 102.388 14.2336 109.971C14.6558 112.359 16.7667 114.184 19.2999 114.184H85.8644Z" fill="#EAF5F9" stroke="#416388" stroke-width="1.2365" stroke-linejoin="round"/>
<path d="M13.9531 53.6607C15.9233 50.7117 17.8935 47.7628 19.8637 44.8139C20.0044 44.3926 20.1452 43.8309 20.1452 43.4096C28.3074 44.6734 36.4697 45.9373 44.6319 47.2011V53.6607C34.4995 53.6607 24.2263 53.6607 13.9531 53.6607Z" fill="#99A5A9" stroke="#416388" stroke-width="0.7004" stroke-linejoin="round"/>
<path d="M35.0622 94.6649H19.582V97.8946H35.0622V94.6649Z" fill="#99A5A9" stroke="#416388" stroke-width="0.7004" stroke-linejoin="round"/>
<path d="M130.476 100.844H124.565C122.454 100.844 120.625 102.529 120.625 104.776V105.478C120.625 107.584 122.314 109.41 124.565 109.41H130.476C132.587 109.41 134.416 107.725 134.416 105.478V104.776C134.416 102.669 132.587 100.844 130.476 100.844Z" fill="#99A5A9" stroke="#416388" stroke-width="0.7004" stroke-linejoin="round"/>
<path d="M129.913 105.057C129.913 103.793 128.928 102.81 127.662 102.81C126.395 102.81 125.41 103.793 125.41 105.057C125.41 106.32 126.395 107.303 127.662 107.303C128.788 107.303 129.913 106.32 129.913 105.057Z" fill="#576164" stroke="#416388" stroke-width="0.7004" stroke-linejoin="round"/>
<path d="M47.1654 100.844H41.2549C39.1439 100.844 37.3145 102.529 37.3145 104.776V105.478C37.3145 107.584 39.0032 109.41 41.2549 109.41H47.1654C49.2764 109.41 51.1058 107.725 51.1058 105.478V104.776C51.1058 102.669 49.2764 100.844 47.1654 100.844Z" fill="#99A5A9" stroke="#416388" stroke-width="0.7004" stroke-linejoin="round"/>
<path d="M46.6029 105.057C46.6029 103.793 45.6178 102.81 44.3513 102.81C43.0847 102.81 42.0996 103.793 42.0996 105.057C42.0996 106.32 43.0847 107.303 44.3513 107.303C45.6178 107.303 46.6029 106.32 46.6029 105.057Z" fill="#576164" stroke="#416388" stroke-width="0.7004" stroke-linejoin="round"/>
<path d="M85.8648 13.6394H127.943C133.009 13.6394 137.653 16.1671 140.327 20.3799L142.578 31.8948C142.86 33.5799 142.015 35.1246 140.467 35.8267L126.957 41.0224C123.439 42.4267 119.64 43.1288 115.84 43.1288H85.8648H55.8896C52.0899 43.1288 48.2903 42.4267 44.772 41.0224L31.4028 35.6863C29.8548 35.1246 29.0105 33.4395 29.2919 31.7543L31.5436 20.2394C34.2174 16.0267 38.8614 13.499 43.9277 13.499H85.8648V13.6394Z" fill="#99A5A9" stroke="#416388" stroke-width="0.5571" stroke-linejoin="round"/>
<path d="M140.326 20.2393C140.045 18.6946 139.482 16.5882 137.934 14.6223C133.853 9.2861 126.394 9.14567 113.025 8.86482C101.204 8.58397 91.7749 8.58397 85.8643 8.44354C79.9537 8.44354 70.5249 8.58397 58.7037 8.86482C45.3345 9.14567 37.8759 9.42652 33.7947 14.6223C32.2467 16.5882 31.6838 18.6946 31.4023 20.2393" stroke="#416388" stroke-width="0.7004" stroke-linejoin="round"/>
<path d="M140.326 35.6862C141.734 38.7756 143.563 43.2692 144.267 49.1671C144.97 54.7841 144.407 58.9969 143.704 63.4905C142.719 69.95 141.593 77.6735 139.904 86.3798C139.482 88.7671 137.371 90.5926 134.838 90.5926H85.8644H36.7501C34.3577 90.5926 32.2468 88.7671 31.6839 86.3798C30.1359 77.533 29.01 69.8096 28.0249 63.4905C27.3213 58.9969 26.7584 54.7841 27.462 49.1671C28.1657 43.4096 29.9951 38.7756 31.4024 35.6862" stroke="#416388" stroke-width="0.7004" stroke-linejoin="round"/>
<path d="M160.592 57.733C159.467 59.8394 157.918 62.2266 155.808 64.6139C155.808 64.6139 155.808 64.6139 155.667 64.7543C151.867 69.1075 146.942 71.4947 141.875 71.7756C136.668 72.0564 131.462 72.1969 126.114 72.3373C112.463 72.7586 98.9533 72.899 85.8655 72.899C72.637 72.899 59.2678 72.7586 45.6172 72.3373C40.2695 72.1969 35.0625 71.916 29.8556 71.7756C24.7893 71.4947 19.7231 69.1075 16.0642 64.7543C16.0642 64.7543 16.0642 64.7543 15.9234 64.6139C13.8125 62.2266 12.2645 59.8394 11.1387 57.733" stroke="#416388" stroke-width="0.7004" stroke-linejoin="round"/>
<path d="M136.703 97.9H152.184V94.6702H136.703V97.9Z" fill="#99A5A9" stroke="#416388" stroke-width="0.7004" stroke-linejoin="round"/>
<path d="M145.674 114.184C143.281 114.184 141.03 112.78 139.904 110.673L135.541 101.967C134.838 100.703 133.571 99.8607 132.023 99.8607H123.017C121.609 99.8607 120.343 100.703 119.639 101.827L119.076 102.81H85.8643H52.6524L52.0895 101.827C51.3858 100.563 50.1193 99.8607 48.712 99.8607H39.7053C38.2981 99.8607 36.8908 100.703 36.1871 101.967L31.8246 110.673C30.6987 112.78 28.4471 114.184 26.0547 114.184" stroke="#416388" stroke-width="0.7004" stroke-linejoin="round"/>
<path d="M120.484 53.8011L112.041 65.0352C110.493 67.0011 108.1 68.1246 105.286 68.1246H85.8653H66.4448C63.6302 68.1246 61.0971 67.0011 59.6898 65.0352L51.2461 53.8011" stroke="#416388" stroke-width="0.7004" stroke-linejoin="round"/>
<path d="M118.515 56.6097H85.8657H53.3574" stroke="#416388" stroke-width="0.7004" stroke-linejoin="round"/>
<path d="M127.098 53.8011H85.8642H44.7715" fill="#99A5A9"/>
<path d="M127.098 53.8011H85.8642H44.7715" stroke="#416388" stroke-width="0.7004" stroke-linejoin="round"/>
<path d="M157.776 53.6607C155.806 50.7117 153.836 47.7628 151.866 44.8139C151.725 44.3926 151.584 43.8309 151.584 43.4096C143.422 44.6734 135.26 45.9373 127.098 47.2011V53.6607C137.371 53.6607 147.503 53.6607 157.776 53.6607Z" fill="#99A5A9" stroke="#416388" stroke-width="0.7004" stroke-linejoin="round"/>
<path d="M76.498 12.1663L95.2148 12.1663V10.2004L76.498 10.2004V12.1663Z" fill="#99A5A9" stroke="#416388" stroke-width="0.7004" stroke-linejoin="round"/>
</g>
<defs>
<clipPath id="clip0_1135_72767">
<rect width="170" height="132" fill="white" transform="translate(0.865234 0.298828)"/>
</clipPath>
</defs>
</svg>
