<svg width="170" height="132" viewBox="0 0 170 132" fill="none" xmlns="http://www.w3.org/2000/svg">
<g opacity="0.5" clip-path="url(#clip0_1135_72730)">
<path d="M146.194 106.44H23.9453V117.892H146.194V106.44Z" fill="#6C767A" stroke="#416388" stroke-width="0.7004" stroke-linejoin="round"/>
<path d="M121.548 107.976H48.4512V119.288H121.548V107.976Z" fill="#6C767A" stroke="#416388" stroke-width="0.7004" stroke-linejoin="round"/>
<path d="M10.2227 76.1335V77.1111V125.573C10.2227 128.366 12.4632 130.461 15.1238 130.461H27.0266C29.8273 130.461 31.9278 128.226 31.9278 125.573V108.255L10.2227 76.1335Z" fill="#99A5A9" stroke="#416388" stroke-width="1.2393" stroke-linejoin="round"/>
<path d="M159.777 76.1335V77.1111V125.573C159.777 128.366 157.536 130.461 154.876 130.461H142.833C140.032 130.461 137.932 128.226 137.932 125.573V108.255L159.777 76.1335Z" fill="#99A5A9" stroke="#416388" stroke-width="1.2393" stroke-linejoin="round"/>
<path d="M85.0006 113.562H151.236C153.617 113.562 155.857 111.886 156.277 109.372C157.678 101.691 158.938 93.1718 159.498 83.675C160.058 74.0386 159.918 65.2401 159.358 57.4192L150.676 46.5258C149.276 40.1015 147.315 32.8392 144.515 25.0183C142.274 19.013 140.314 14.2646 138.213 9.93516C137.933 9.23687 137.513 8.53858 137.233 7.97994C135.552 4.76779 132.332 2.6729 128.691 2.39359C124.91 2.11427 121.129 1.97461 117.348 1.83495C106.286 1.41598 95.5031 1.13666 85.0006 1.13666C74.4981 1.13666 63.7156 1.41598 52.653 1.83495C48.8721 1.97461 45.0912 2.25393 41.3103 2.39359C37.6695 2.53325 34.4487 4.76779 32.7683 7.97994C32.4882 8.67823 32.2082 9.37653 31.7881 10.0748C29.6876 14.4042 27.7271 19.1526 25.4866 25.158C22.6859 32.9789 20.7255 40.2411 19.3251 46.6654L10.6431 57.5588C10.083 65.3797 9.94293 74.1782 10.5031 83.8147C11.0632 93.3115 12.1835 101.97 13.7238 109.512C14.1439 111.886 16.2444 113.702 18.765 113.702H85.0006V113.562Z" fill="#EAF5F9" stroke="#416388" stroke-width="1.2365" stroke-linejoin="round"/>
<path d="M43.1313 99.8754L42.9913 99.7357C42.2912 98.4788 41.1709 97.6409 39.9106 97.2219L24.0869 93.5908C21.4262 93.0321 19.4658 95.127 20.446 97.7805L21.7063 101.412C22.2664 103.227 24.0869 104.624 25.9073 104.624L40.6108 104.903C43.1313 104.903 44.3916 102.389 43.1313 99.8754Z" fill="#99A5A9" stroke="#416388" stroke-width="0.7004" stroke-linejoin="round"/>
<path d="M85.0013 89.82C94.8036 89.9596 106.426 89.401 119.169 87.0268C120.85 86.7475 122.53 86.3285 124.211 86.0492C126.311 85.6302 127.151 83.8147 125.891 82.5577C124.911 81.5801 123.65 80.4629 122.25 79.4852C122.25 79.4852 122.25 79.4852 122.11 79.3456C117.769 76.1334 111.888 74.4575 105.726 74.3179C105.306 74.3179 104.886 74.3179 104.326 74.3179C97.7443 74.1782 91.3028 74.3179 85.0013 74.3179C78.6998 74.3179 72.3983 74.1782 65.6768 74.3179C65.2567 74.3179 64.6965 74.3179 64.2764 74.3179C58.115 74.4575 52.2336 76.2731 47.8926 79.3456C47.8926 79.3456 47.8926 79.3456 47.7525 79.4852C46.3522 80.6025 45.0919 81.5801 44.1117 82.5577C42.8514 83.8147 43.6916 85.6302 45.7921 86.0492C47.4725 86.4682 49.0128 86.7475 50.8333 87.0268C63.5763 89.401 75.199 89.9596 85.0013 89.82Z" fill="#99A5A9" stroke="#416388" stroke-width="0.7004" stroke-linejoin="round"/>
<path d="M85.0007 107.138C93.8228 107.138 102.645 106.858 112.027 106.439C113.007 106.439 115.108 105.182 115.668 104.065C116.228 103.227 116.648 102.25 117.208 101.272C117.488 100.713 117.488 100.294 116.788 100.294C105.726 100.993 95.2231 101.272 84.8607 101.272C74.4983 101.272 63.9958 100.993 52.9332 100.294C52.373 100.294 52.233 100.574 52.5131 101.272C53.0732 102.25 53.6333 103.227 54.0534 104.065C54.6136 105.043 56.7141 106.3 57.6943 106.439C67.3566 106.858 76.1786 107.138 85.0007 107.138Z" fill="#99A5A9" stroke="#416388" stroke-width="0.7004" stroke-linejoin="round"/>
<path d="M85.0007 107.138C93.8228 107.138 102.645 106.858 112.027 106.439C113.007 106.439 115.108 105.182 115.668 104.065C116.228 103.227 116.648 102.25 117.208 101.272C117.488 100.713 117.488 100.294 116.788 100.294C105.726 100.993 95.2231 101.272 84.8607 101.272C74.4983 101.272 63.9958 100.993 52.9332 100.294C52.373 100.294 52.233 100.574 52.5131 101.272C53.0732 102.25 53.6333 103.227 54.0534 104.065C54.6136 105.043 56.7141 106.3 57.6943 106.439C67.3566 106.858 76.1786 107.138 85.0007 107.138Z" stroke="#416388" stroke-width="0.7004" stroke-linejoin="round"/>
<path d="M14.8432 59.7934C19.4643 60.771 26.746 62.4469 28.2864 62.8659C28.4264 62.8659 28.7065 63.0056 28.8465 63.1452L43.1299 70.9661C44.2502 71.5248 44.1101 73.061 42.9899 73.3403L40.3292 74.1783H40.1892C38.6488 74.4576 28.4264 76.1335 19.3243 69.4299C15.9635 67.0557 13.863 64.2625 12.6027 62.028C11.7625 60.4917 13.1628 59.3744 14.8432 59.7934Z" fill="white" stroke="#416388" stroke-width="0.7004" stroke-linejoin="round"/>
<path d="M49.2926 69.9884C44.5315 66.3573 39.2102 61.4693 33.889 55.045C31.2283 51.8328 28.9878 48.6207 27.0273 45.5482" fill="#99A5A9"/>
<path d="M49.2926 69.9884C44.5315 66.3573 39.2102 61.4693 33.889 55.045C31.2283 51.8328 28.9878 48.6207 27.0273 45.5482" stroke="#416388" stroke-width="0.7004" stroke-linejoin="round"/>
<path d="M29.4072 63.285C27.5868 61.6091 25.0662 59.0952 22.9657 55.4641C21.0052 52.2519 20.025 49.3191 19.4648 47.0845" fill="#99A5A9"/>
<path d="M29.4072 63.285C27.5868 61.6091 25.0662 59.0952 22.9657 55.4641C21.0052 52.2519 20.025 49.3191 19.4648 47.0845" stroke="#416388" stroke-width="0.7004" stroke-linejoin="round"/>
<path d="M13.0243 60.2124C12.3242 59.2348 11.624 58.2572 10.9238 57.2796L13.0243 60.2124Z" fill="#99A5A9"/>
<path d="M13.0243 60.2124C12.3242 59.2348 11.624 58.2572 10.9238 57.2796" stroke="#416388" stroke-width="0.7004" stroke-linejoin="round"/>
<path d="M30.3884 99.596C30.3884 97.7804 28.848 96.2442 26.8875 96.2442C24.9271 96.2442 23.3867 97.7804 23.3867 99.596C23.3867 101.412 24.9271 102.948 26.8875 102.948C28.848 102.948 30.3884 101.412 30.3884 99.596Z" fill="white" stroke="#416388" stroke-width="0.7004" stroke-linejoin="round"/>
<path d="M12.4633 48.2018L3.64127 46.1069C1.82084 45.688 0.560547 43.7327 0.560547 41.7775L0.70058 38.8447C0.70058 36.8895 2.10091 35.2136 3.92134 35.2136H12.6034C15.264 35.2136 17.7846 37.4481 17.7846 40.2413V44.431C17.6446 47.2242 15.264 48.9001 12.4633 48.2018Z" fill="#99A5A9" stroke="#416388" stroke-width="0.8284" stroke-linejoin="round"/>
<path d="M13.5834 55.7434C14.2835 54.2071 15.1237 52.5312 16.384 50.8553C16.6641 50.4363 16.9442 50.157 17.2242 49.7381L14.2835 47.0845H8.82227C9.52243 48.4811 10.2226 49.8777 11.0628 51.414C11.903 52.9502 12.7432 54.4865 13.5834 55.7434Z" fill="#D2DBDD" stroke="#416388" stroke-width="0.7004" stroke-miterlimit="10"/>
<path d="M16.104 66.4969C15.1238 67.6142 13.8635 69.0107 12.7432 70.6867C11.483 72.6419 10.7828 74.3178 10.2227 75.7144" stroke="#416388" stroke-width="0.7004" stroke-linejoin="round"/>
<path d="M126.871 99.8754L127.011 99.7357C127.711 98.4788 128.831 97.6409 130.091 97.2219L145.915 93.5908C148.576 93.0321 150.536 95.127 149.556 97.7805L148.296 101.412C147.736 103.227 145.915 104.624 144.095 104.624L129.531 104.763C126.871 104.903 125.61 102.389 126.871 99.8754Z" fill="#99A5A9" stroke="#416388" stroke-width="0.7004" stroke-linejoin="round"/>
<path d="M155.158 59.7934C150.537 60.771 143.255 62.4469 141.715 62.8659C141.575 62.8659 141.295 63.0056 141.154 63.1452L126.871 70.9661C125.751 71.5248 125.891 73.061 127.011 73.3403L129.672 74.1783H129.812C131.352 74.4576 141.575 76.1335 150.677 69.4299C154.037 67.0557 156.138 64.2625 157.398 62.028C158.238 60.4917 156.838 59.3744 155.158 59.7934Z" fill="white" stroke="#416388" stroke-width="0.7004" stroke-linejoin="round"/>
<path d="M126.731 71.1057C126.031 70.9661 125.191 70.8264 123.93 70.5471C123.93 70.5471 120.43 69.8488 116.509 69.4298C112.868 69.0108 101.105 67.8936 85.0013 67.8936C68.8975 67.8936 57.1347 69.0108 53.4939 69.4298C49.573 69.9884 46.0721 70.5471 46.0721 70.5471C44.9519 70.6867 43.9716 70.9661 43.2715 71.1057" stroke="#416388" stroke-width="0.7004" stroke-linejoin="round"/>
<path d="M120.85 69.9884C125.611 66.3573 130.932 61.4693 136.253 55.045C138.914 51.8328 141.154 48.6207 143.115 45.5482" fill="#99A5A9"/>
<path d="M120.85 69.9884C125.611 66.3573 130.932 61.4693 136.253 55.045C138.914 51.8328 141.154 48.6207 143.115 45.5482" stroke="#416388" stroke-width="0.7004" stroke-linejoin="round"/>
<path d="M140.734 63.285C142.555 61.6091 145.075 59.0952 147.176 55.4641C149.136 52.2519 150.117 49.3191 150.677 47.0845" fill="#99A5A9"/>
<path d="M140.734 63.285C142.555 61.6091 145.075 59.0952 147.176 55.4641C149.136 52.2519 150.117 49.3191 150.677 47.0845" stroke="#416388" stroke-width="0.7004" stroke-linejoin="round"/>
<path d="M157.117 60.2124C157.817 59.2348 158.518 58.2572 159.218 57.2796L157.117 60.2124Z" fill="#99A5A9"/>
<path d="M157.117 60.2124C157.817 59.2348 158.518 58.2572 159.218 57.2796" stroke="#416388" stroke-width="0.7004" stroke-linejoin="round"/>
<path d="M142.414 41.7775C141.014 35.3532 140.033 31.1634 138.633 26.1357C137.933 23.3425 136.813 19.7114 135.412 15.382C134.852 13.5664 133.172 12.3095 131.351 12.1698C129.811 12.0302 128.131 11.8905 126.59 11.7509C112.307 10.6336 98.5836 10.075 85.1404 10.075C71.6973 10.075 57.694 10.6336 43.5506 11.7509C42.0103 11.8905 40.3299 12.0302 38.7895 12.1698C36.8291 12.3095 35.2887 13.5664 34.7286 15.382C33.3282 19.7114 32.208 23.4822 31.5078 26.1357C30.1075 31.1634 29.2673 35.3532 27.7269 41.7775C27.4468 43.0344 27.1668 44.2914 26.8867 45.688H31.3678H85.1404H138.913H143.394C142.974 44.2914 142.694 43.0344 142.414 41.7775Z" fill="#99A5A9" stroke="#416388" stroke-width="0.5571" stroke-linejoin="round"/>
<path d="M139.613 99.596C139.613 97.7804 141.154 96.2442 143.114 96.2442C145.075 96.2442 146.615 97.7804 146.615 99.596C146.615 101.412 145.075 102.948 143.114 102.948C141.154 102.948 139.613 101.412 139.613 99.596Z" fill="white" stroke="#416388" stroke-width="0.7004" stroke-linejoin="round"/>
<path d="M157.538 48.2018L166.36 46.1069C168.181 45.688 169.441 43.7327 169.441 41.7775L169.301 38.8447C169.301 36.8895 167.9 35.2136 166.08 35.2136H157.398C154.737 35.2136 152.217 37.4481 152.217 40.2413V44.431C152.357 47.2242 154.877 48.9001 157.538 48.2018Z" fill="#99A5A9" stroke="#416388" stroke-width="0.8284" stroke-linejoin="round"/>
<path d="M156.418 55.7434C155.718 54.2071 154.878 52.5312 153.618 50.8553C153.337 50.4363 153.057 50.157 152.777 49.7381L155.718 47.0845H161.179C160.479 48.4811 159.779 49.8777 158.939 51.414C158.099 52.9502 157.258 54.4865 156.418 55.7434Z" fill="#D2DBDD" stroke="#416388" stroke-width="0.7004" stroke-miterlimit="10"/>
<path d="M154.037 66.4969C155.017 67.6142 156.278 69.0107 157.398 70.6867C158.518 72.5022 159.358 74.3178 159.918 75.7144" stroke="#416388" stroke-width="0.7004" stroke-linejoin="round"/>
</g>
<defs>
<clipPath id="clip0_1135_72730">
<rect width="170" height="131" fill="white" transform="translate(0 0.298828)"/>
</clipPath>
</defs>
</svg>
