<svg width="170" height="53" viewBox="0 0 170 53" fill="none" xmlns="http://www.w3.org/2000/svg">
<path d="M107.117 21.2361V25.1911H114.629V35.3841H118.819V25.1911H126.319V21.2361H107.117Z" fill="black"/>
<path d="M130.604 22.416C130.177 22.8856 129.853 23.44 129.654 24.043C129.455 24.6461 129.385 25.2842 129.449 25.916V30.7C129.385 31.3332 129.454 31.9728 129.653 32.5774C129.852 33.1819 130.176 33.7378 130.604 34.209C131.075 34.6373 131.631 34.9627 132.235 35.1645C132.839 35.3663 133.479 35.44 134.113 35.381H143.771C144.399 35.435 145.03 35.3588 145.627 35.1571C146.224 34.9554 146.772 34.6326 147.238 34.209C147.665 33.7373 147.989 33.1814 148.188 32.577C148.387 31.9725 148.457 31.3331 148.393 30.7V25.919C148.456 25.2873 148.386 24.6494 148.187 24.0465C147.988 23.4436 147.665 22.8892 147.238 22.419C146.773 21.994 146.224 21.6697 145.628 21.4667C145.031 21.2636 144.399 21.1861 143.771 21.239H134.071C133.443 21.1853 132.81 21.2624 132.213 21.4655C131.616 21.6686 131.068 21.9933 130.603 22.419M133.636 30.345V26.135C133.624 26.0041 133.64 25.8722 133.685 25.7485C133.729 25.6248 133.801 25.5125 133.894 25.4196C133.987 25.3266 134.099 25.2554 134.223 25.2108C134.346 25.1663 134.478 25.1496 134.609 25.162H143.233C143.364 25.1491 143.496 25.1654 143.619 25.2095C143.743 25.2537 143.855 25.3247 143.948 25.4174C144.041 25.5102 144.112 25.6224 144.157 25.7459C144.201 25.8695 144.218 26.0013 144.205 26.132V30.454C144.218 30.5849 144.201 30.7169 144.157 30.8406C144.112 30.9644 144.041 31.0768 143.948 31.1699C143.855 31.263 143.743 31.3345 143.62 31.3793C143.496 31.4241 143.364 31.441 143.233 31.429H134.609C133.972 31.401 133.663 30.976 133.636 30.338" fill="black"/>
<path d="M86.1621 22.4139C85.7354 22.8852 85.4121 23.4404 85.2128 24.0441C85.0136 24.6477 84.9428 25.2863 85.0051 25.9189V30.7029C84.9119 31.3381 84.9683 31.9862 85.1699 32.5957C85.3714 33.2052 85.7125 33.7592 86.1659 34.2136C86.6194 34.668 87.1726 35.0103 87.7817 35.2131C88.3907 35.4159 89.0387 35.4738 89.6741 35.382H99.3291C99.9613 35.4675 100.605 35.4049 101.209 35.1992C101.812 34.9934 102.36 34.6501 102.809 34.1963C103.257 33.7426 103.594 33.1908 103.793 32.5845C103.991 31.9782 104.046 31.3341 103.953 30.7029V25.9199C104.016 25.2872 103.946 24.6482 103.746 24.0444C103.547 23.4406 103.223 22.8855 102.795 22.4149C102.33 21.9905 101.782 21.667 101.185 21.4648C100.589 21.2626 99.9566 21.186 99.3291 21.2399H89.6291C89.0014 21.1855 88.3693 21.2617 87.7726 21.4638C87.1759 21.6659 86.6275 21.9894 86.1621 22.4139ZM89.1951 30.2699V26.1329C89.1827 26.0021 89.1994 25.8701 89.2439 25.7465C89.2885 25.6228 89.3597 25.5105 89.4527 25.4175C89.5456 25.3246 89.6579 25.2533 89.7816 25.2088C89.9053 25.1643 90.0372 25.1476 90.1681 25.1599H98.7901C98.9208 25.1468 99.0529 25.1628 99.1768 25.2068C99.3006 25.2507 99.4132 25.3216 99.5064 25.4142C99.5996 25.5069 99.6711 25.619 99.7159 25.7426C99.7606 25.8662 99.7774 25.9981 99.7651 26.1289V30.4599C99.7762 30.5907 99.7586 30.7223 99.7135 30.8456C99.6685 30.9688 99.597 31.0807 99.5041 31.1734C99.4112 31.2661 99.2991 31.3374 99.1758 31.3822C99.0525 31.427 98.9208 31.4444 98.7901 31.4329H90.1621C89.5271 31.4029 89.2141 30.9039 89.1891 30.2699" fill="black"/>
<path d="M152.217 21.2411V35.3851H156.41V25.1611H164.46L164.604 25.1721C164.812 25.2049 165.002 25.3114 165.139 25.4721C165.315 25.6493 165.418 25.8856 165.43 26.1351V35.3851H169.62V25.9201C169.681 25.2867 169.61 24.6475 169.411 24.0433C169.211 23.439 168.888 22.8831 168.461 22.4111C167.642 21.6622 166.57 21.2504 165.461 21.2581L165.161 21.2461C165.071 21.2461 164.98 21.2361 164.881 21.2361L152.217 21.2411Z" fill="black"/>
<path d="M69.5129 21.2121V21.2041H68.3799C68.2799 21.2041 68.1799 21.2041 68.0879 21.2121H67.8389L67.6319 21.2221C66.5706 21.2183 65.5509 21.6341 64.7949 22.3791C64.3669 22.8501 64.0427 23.4057 63.8432 24.0101C63.6437 24.6144 63.5734 25.2539 63.6369 25.8871V35.3491H67.8269V31.4291H77.7729V27.6431H67.8269V25.8981C67.8185 25.7222 67.8528 25.5468 67.9269 25.3871C68.0039 25.2741 68.0599 25.1991 68.3599 25.1671L68.4859 25.1581H81.0329V21.2041L69.5129 21.2121Z" fill="black"/>
<path d="M26.5 0C21.2591 1.34335e-07 16.1358 1.55405 11.778 4.46564C7.42025 7.37723 4.02368 11.5156 2.01778 16.3575C0.0118797 21.1994 -0.513259 26.5274 0.508763 31.6677C1.53079 36.808 4.05407 41.5299 7.75956 45.2362C11.4651 48.9425 16.1863 51.4669 21.3264 52.4901C26.4665 53.5133 31.7946 52.9893 36.637 50.9845C41.4793 48.9797 45.6185 45.5841 48.531 41.227C51.4436 36.8699 52.9988 31.7469 53 26.506C53.0008 23.0255 52.3159 19.5789 50.9845 16.363C49.6531 13.1472 47.7013 10.2252 45.2405 7.76379C42.7796 5.3024 39.858 3.34989 36.6425 2.01777C33.427 0.685641 29.9805 -8.92127e-08 26.5 0ZM26.542 50.169C21.8615 50.1765 17.2839 48.796 13.388 46.202C9.49212 43.608 6.45287 39.9171 4.65456 35.5958C2.85625 31.2746 2.37966 26.5172 3.28504 21.9251C4.19042 17.3331 6.43712 13.1126 9.74105 9.7973C13.045 6.48205 17.2578 4.22092 21.8467 3.29982C26.4357 2.37873 31.1947 2.83904 35.522 4.62255C39.8494 6.40606 43.5507 9.43266 46.158 13.3197C48.7653 17.2067 50.1615 21.7795 50.17 26.46C50.1758 29.5682 49.5692 32.647 48.385 35.5207C47.2007 38.3944 45.462 41.0067 43.2681 43.2083C41.0741 45.41 38.4679 47.1579 35.5984 48.3522C32.7289 49.5465 29.6522 50.1639 26.544 50.169" fill="black"/>
<path d="M20.429 13.7829H12.861C12.4803 13.778 12.1043 13.8666 11.7658 14.041C11.4274 14.2153 11.137 14.4701 10.92 14.7829L7.29797 19.7659C7.08454 20.0817 6.98087 20.459 7.00291 20.8395C7.02496 21.2201 7.1715 21.5828 7.41997 21.8719L10.958 26.7439C11.1342 26.9735 11.3614 27.1589 11.6217 27.2855C11.8819 27.4121 12.1681 27.4764 12.4575 27.4733C12.7469 27.4702 13.0316 27.3998 13.2891 27.2676C13.5465 27.1355 13.7697 26.9452 13.941 26.7119L21.714 16.0169C21.8489 15.7913 21.9212 15.5338 21.9236 15.2709C21.9259 15.0081 21.8581 14.7493 21.7272 14.5214C21.5963 14.2934 21.4071 14.1044 21.1789 13.9739C20.9507 13.8434 20.6918 13.7761 20.429 13.7789" fill="black"/>
<path d="M25.0491 14.834L14.4821 29.379C14.23 29.6792 14.0894 30.0573 14.0841 30.4493C14.0789 30.8413 14.2092 31.2231 14.4531 31.53L18.0391 36.453C18.2176 36.6829 18.4481 36.867 18.7117 36.9903C18.9753 37.1135 19.2645 37.1723 19.5553 37.1617C19.8461 37.1512 20.1303 37.0716 20.3843 36.9296C20.6383 36.7876 20.8548 36.5872 21.0161 36.345L35.6981 16.13C35.8856 15.9416 36.0146 15.7031 36.0696 15.4431C36.1247 15.1831 36.1033 14.9128 36.0082 14.6646C35.9131 14.4165 35.7483 14.2012 35.5336 14.0446C35.3189 13.8879 35.0635 13.7968 34.7981 13.782H27.0621C26.6672 13.7848 26.2785 13.8817 25.9285 14.0646C25.5784 14.2476 25.277 14.5113 25.0491 14.834Z" fill="black"/>
<path d="M25.0089 46.0289L21.6299 41.3869C21.362 41.0723 21.2148 40.6726 21.2148 40.2594C21.2148 39.8462 21.362 39.4465 21.6299 39.1319L39.6699 14.3749C39.7807 14.2019 39.9319 14.0585 40.1105 13.9569C40.2891 13.8553 40.4897 13.7986 40.695 13.7917C40.9003 13.7848 41.1043 13.8279 41.2892 13.9173C41.4742 14.0067 41.6347 14.1397 41.7569 14.3049L45.8079 19.8119C45.993 20.1257 46.0748 20.4899 46.0416 20.8527C46.0084 21.2156 45.8619 21.5589 45.6229 21.8339L28.0229 46.0549C27.8541 46.2987 27.6282 46.4975 27.3649 46.634C27.1017 46.7704 26.809 46.8405 26.5125 46.8379C26.216 46.8353 25.9246 46.7603 25.6637 46.6193C25.4029 46.4783 25.1805 46.2756 25.0159 46.0289" fill="black"/>
</svg>
