<svg width="417" height="168" viewBox="0 0 417 168" fill="none" xmlns="http://www.w3.org/2000/svg">
<g opacity="0.5" clip-path="url(#clip0_1135_73588)">
<path d="M22.8223 140.069C35.8836 142.133 48.8074 144.059 61.8688 146.123C75.3425 145.297 88.9538 144.334 102.428 143.509C165.397 143.784 228.366 144.197 291.336 144.472C326.945 142.27 362.692 140.069 398.301 137.868C387.165 136.079 380.84 131.813 377.265 128.098C370.391 121.219 370.941 115.027 360.217 102.506C357.33 99.0665 353.892 95.7643 348.805 93.5629C344.406 91.6366 340.281 91.3614 337.944 91.2238C336.707 91.0862 331.07 90.811 323.233 93.1501C311.821 96.4523 304.259 102.919 301.922 104.983C292.161 113.789 288.036 123.833 286.386 128.924C233.866 129.474 181.346 130.162 128.825 130.713C128.55 126.998 127.588 120.944 124.151 114.477C117.826 102.369 107.377 97.1403 103.94 95.4891C89.0913 88.3344 74.7926 91.499 70.8055 92.5997C43.8579 99.8921 34.9212 129.062 34.3712 130.988C30.5216 134.015 26.6719 137.042 22.8223 140.069Z" fill="#6C747B" stroke="#416388" stroke-width="0.7491" stroke-linejoin="round"/>
<path d="M66.1311 107.322C56.9194 113.927 50.595 125.347 50.7325 138.418C50.7325 140.069 49.3576 141.445 47.7078 141.445H24.1974C23.7849 141.445 23.3725 141.307 23.0975 141.17L14.0233 137.455C13.8858 137.317 13.6108 137.317 13.4734 137.18C11.1361 135.666 8.79878 134.015 6.46149 132.501C6.18651 132.226 5.91154 131.951 5.63656 131.676C4.94912 130.713 3.71173 128.786 2.74932 126.31C1.92439 124.521 1.37444 122.32 1.09947 120.118C0.824493 117.504 0.96198 114.752 2.19937 112.138C2.61183 111.175 3.16178 110.074 4.1242 109.111C4.1242 108.698 4.39917 108.285 4.39917 107.872C4.53666 107.46 4.53666 107.047 4.53666 106.772C4.1242 104.02 3.84922 100.167 4.26168 95.902C4.81163 90.5359 5.49907 85.7201 9.34873 80.354C13.3359 74.988 19.3853 70.4474 26.2597 66.3196C33.5466 61.9167 40.146 59.1649 44.8205 57.5137C44.958 57.5137 45.0955 57.3762 45.233 57.3762L57.8819 54.8995C58.4318 54.7619 58.8443 54.6243 59.2567 54.2115C65.3062 51.8725 71.3557 49.671 77.4051 47.4695C78.0925 46.9192 91.8413 35.499 100.641 28.6194C102.29 27.2435 104.765 25.3172 108.065 22.9781C110.265 21.327 111.914 20.2263 114.389 18.5752C118.651 15.6857 120.851 14.1722 122.914 13.0715C125.663 11.558 128.001 10.5948 129.65 9.90686C130.338 9.35649 130.75 8.53094 130.475 7.84298C130.2 7.01743 129.1 6.32947 127.863 6.74224C137.487 3.44003 147.799 2.06411 154.811 1.92652C179.008 1.23856 222.592 0.825782 245.278 0.963375C282.124 1.10097 344.406 2.47689 392.802 3.9904C393.627 3.9904 394.452 4.12799 395.139 4.26559C399.264 5.09114 402.701 7.5678 404.763 11.1452C404.488 11.0076 404.213 10.87 403.938 10.7324C402.013 9.90686 400.364 9.90686 399.126 10.0445C399.401 11.9707 399.951 14.7226 400.501 18.1624C402.013 26.8307 404.213 39.4892 404.213 39.6268C404.213 40.0395 409.438 56.0002 409.438 56.0002H411.775C411.913 58.7521 412.188 61.5039 412.325 64.2558C413.425 87.2337 412.325 107.735 410.263 124.934C410.125 126.585 411.225 128.099 413.012 128.236C414.25 128.374 415.35 129.199 415.625 130.438C415.9 131.538 416.037 132.914 415.625 134.428C415.35 135.941 414.525 137.18 413.975 138.005C413.425 138.693 412.6 139.106 411.775 139.106C397.476 139.794 383.315 140.482 369.016 141.307C367.229 141.445 365.854 139.931 365.854 138.143C365.992 127.273 361.317 117.504 354.03 110.762C347.706 104.983 339.457 101.406 330.795 101.543C312.371 101.818 296.423 118.329 296.835 138.28C296.835 139.931 295.598 141.445 293.811 141.445H122.364C120.714 141.445 119.339 140.069 119.339 138.418C119.339 116.678 101.053 99.8921 82.4921 101.13C76.7177 101.543 71.0807 103.745 66.1311 107.322Z" fill="#EAF5F9" stroke="#416388" stroke-width="1.2365" stroke-linejoin="round"/>
<path d="M296.699 5.77856C292.712 5.77856 288.725 5.77856 284.6 5.77856C264.665 5.77856 244.316 5.91616 224.381 6.19134C200.87 6.46653 176.947 7.01689 153.437 7.70485C139.138 8.11763 125.527 12.9334 114.391 21.6017C108.204 26.2798 102.154 31.2331 96.3796 36.324C95.8297 36.8744 95.1423 37.4248 94.5923 37.9751C94.0424 46.2307 94.0424 53.2479 94.3173 59.0267C94.5923 65.6311 94.8673 75.4002 96.6546 85.1692C96.9296 86.4076 97.3421 88.8842 97.7545 92.324C98.3045 97.4149 98.3045 101.68 98.167 104.432" stroke="#416388" stroke-width="0.6982" stroke-linejoin="round"/>
<path d="M171.447 49.8083C174.746 47.4692 177.084 43.8918 177.633 39.764L181.071 16.2358C181.483 13.4839 179.283 11.0073 176.534 11.1449C168.834 11.2825 161.272 11.5577 153.711 11.6952C140.374 12.108 127.588 16.6486 117.001 24.7665C111.227 29.307 105.177 34.1228 99.2655 39.3513C89.0914 48.2948 80.0173 56.9631 72.043 65.3562L152.611 60.5405C155.086 60.4029 157.56 59.5773 159.623 58.0638L171.447 49.8083Z" stroke="#416388" stroke-width="0.6982" stroke-linejoin="round"/>
<path d="M382.354 32.0589L380.154 17.6118C379.604 13.6216 376.304 10.7322 372.317 10.7322C324.197 9.76901 274.976 9.63142 224.518 10.3194C216.131 10.457 207.745 10.5946 199.358 10.7322C197.433 10.7322 195.783 12.3833 195.783 14.3096V51.8722C195.783 55.1744 198.533 57.7887 201.833 57.6511L369.568 47.6068C377.679 47.0565 383.591 39.9017 382.354 32.0589Z" fill="#95A2A6" stroke="#416388" stroke-width="0.5571" stroke-linejoin="round"/>
<path d="M178.184 14.3098C177.909 14.0346 177.496 13.6218 176.534 13.6218C168.835 13.7594 161.273 14.0346 153.711 14.1722C149.586 14.3098 145.462 14.8602 141.612 15.6857L136.25 59.1648L152.474 58.2017C154.536 58.0641 156.461 57.3761 158.248 56.2754L170.072 48.0199C172.822 46.0936 174.747 42.929 175.296 39.6267L178.734 16.0985C178.734 15.1353 178.459 14.585 178.184 14.3098Z" fill="#95A2A6" stroke="#416388" stroke-width="0.5571" stroke-linejoin="round"/>
<path d="M118.378 26.6929C112.328 31.3711 106.416 36.1868 100.642 41.1401C99.6795 41.9657 98.5796 42.9288 97.6172 43.7544V61.3662L133.364 59.3023L139.001 16.3735C131.577 18.4374 124.565 21.8772 118.378 26.6929Z" fill="#95A2A6" stroke="#416388" stroke-width="0.5571" stroke-linejoin="round"/>
<path d="M296.699 2.33887V79.1153C295.049 85.9949 293.537 93.2873 292.162 100.717C289.962 112.963 288.312 124.658 287.212 135.803C231.255 136.354 175.297 136.904 119.34 137.454" stroke="#416388" stroke-width="0.6982" stroke-linejoin="round"/>
<path d="M192.621 1.23853L193.446 136.629" stroke="#416388" stroke-width="0.6982" stroke-linejoin="round"/>
<path d="M128.002 6.74193C123.877 8.11786 119.89 10.0441 116.315 12.2456C107.928 17.6117 99.2667 23.5282 90.33 30.1326C79.4685 38.2505 68.1945 46.3685 59.2578 54.2112C65.3073 52.0098 71.3567 49.6707 77.4062 47.4692C78.0936 46.9188 91.8424 35.4987 100.642 28.6191C102.291 27.2432 104.766 25.3169 108.066 22.9778C110.266 21.3267 111.916 20.226 114.39 18.5749C118.652 15.6854 120.852 14.1719 122.915 13.0712C125.664 11.5577 128.002 10.5945 129.651 9.90655C130.339 9.35618 130.751 8.53063 130.476 7.84267C130.339 6.87953 129.102 6.32916 128.002 6.74193Z" fill="#95A2A6" stroke="#416388" stroke-width="0.5571" stroke-linejoin="round"/>
<path d="M37.9461 70.585C37.8087 70.585 37.8087 70.585 37.9461 70.585C37.8087 70.585 37.6712 70.585 37.6712 70.585C37.5337 70.585 35.4714 70.8601 32.3091 72.0985C28.597 73.4744 25.7097 74.9879 25.7097 74.9879C15.9481 80.2164 11.136 87.3712 10.7236 89.7103C10.5861 90.811 10.4486 92.1869 11.136 92.0493C14.4358 91.6366 17.7355 90.9486 21.3101 90.123C32.9966 87.2336 43.3082 82.2803 52.1074 76.7766C52.7948 76.3638 52.7948 74.4375 51.9699 74.2999C47.2953 73.0616 42.6207 71.8233 37.9461 70.585Z" fill="white" stroke="#416388" stroke-width="0.7533" stroke-linejoin="round"/>
<path d="M52.6582 75.5385C88.9549 71.9611 125.802 68.6588 163.061 65.6318C241.841 59.165 318.972 54.2117 394.315 50.6343" stroke="#416388" stroke-width="0.7533" stroke-linejoin="round"/>
<path d="M53.3444 75.5383C49.3573 79.2533 44.8202 83.7939 40.4206 89.16C36.4335 94.1133 33.1337 98.7914 30.5215 103.057" stroke="#416388" stroke-width="0.7533" stroke-linejoin="round"/>
<path d="M44.959 107.734C46.4713 105.946 62.2824 86.4077 87.9926 87.9212C107.378 89.022 124.564 101.543 132.264 120.118C183.272 119.292 234.142 118.604 285.15 117.779C286.662 113.926 293.812 96.1768 312.372 88.6092C332.033 80.6288 356.506 87.3709 372.455 106.083" stroke="#416388" stroke-width="0.7533" stroke-linejoin="round"/>
<path d="M365.029 129.061L413.287 128.236" stroke="#416388" stroke-width="0.7533" stroke-linejoin="round"/>
<path d="M402.702 48.2946C404.764 67.8327 405.039 84.4813 405.039 97.9653L395.69 87.2332C395.553 77.8769 395.278 67.9702 394.59 57.7884C393.903 47.6066 392.941 37.9752 391.703 28.7565C393.765 26.555 396.653 23.6656 398.852 21.4641C400.64 31.6459 401.877 40.727 402.702 48.2946Z" fill="#95A2A6" stroke="#416388" stroke-width="0.7004" stroke-linejoin="round"/>
<path d="M354.305 110.761L391.976 101.956C394.176 101.405 395.688 99.6164 395.688 97.2774C395.688 93.9752 395.688 90.5354 395.688 87.2332C395.551 77.8769 395.276 67.9702 394.589 57.7884C393.901 47.6066 392.939 37.9752 391.701 28.7565C393.764 26.555 396.651 23.6656 398.851 21.4641" stroke="#416388" stroke-width="0.7533" stroke-linejoin="round"/>
<path d="M395.277 4.26514C396.652 10.3192 397.752 16.0981 398.715 21.4642C400.502 31.7836 401.739 40.8647 402.564 48.4322C404.627 67.9703 404.902 84.619 404.902 98.103C404.902 101.13 404.902 103.882 404.902 106.496C404.764 115.44 404.627 123.007 404.352 128.373" stroke="#416388" stroke-width="0.6982" stroke-linejoin="round"/>
<path d="M395.689 87.2336L405.039 97.9658" stroke="#416388" stroke-width="0.6982" stroke-linejoin="round"/>
<path d="M411.913 55.9998C410.813 41.4151 409.025 27.931 406.688 15.9605C406.413 14.1718 405.726 12.6583 404.901 11.1448C404.626 11.0072 404.351 10.8696 404.076 10.732C402.151 9.90645 400.501 9.90645 399.264 10.044C399.539 11.9703 400.089 14.7222 400.639 18.162C402.151 26.8303 404.351 39.3512 404.351 39.6263C404.351 40.0391 409.575 55.9998 409.575 55.9998H411.913Z" fill="#95A2A6" stroke="#416388" stroke-width="0.5571" stroke-linejoin="round"/>
<path d="M37.9473 70.585C41.9344 69.4843 45.7841 68.3836 49.6337 67.2828C52.3835 66.5949 54.9957 65.7693 57.4705 65.0813C61.3202 63.9806 64.4824 60.816 65.4448 56.8258C65.4448 56.8258 65.4448 56.8258 65.4448 56.6882C65.8573 54.7619 66.1322 52.9732 66.1322 51.4597" stroke="#416388" stroke-width="0.7631" stroke-linejoin="round"/>
<path d="M17.873 80.354C22.6851 75.8134 28.8721 70.7225 36.7089 65.7692C44.4082 60.8159 51.8325 57.3761 57.8819 54.8994" stroke="#416388" stroke-width="0.7598" stroke-linejoin="round"/>
<path d="M25.5722 116.128C25.5722 118.329 25.5722 120.806 25.5722 122.87C25.5722 126.034 24.0598 128.511 22.2725 128.648L8.79869 129.061C6.4614 129.199 5.63648 124.108 7.5613 122.044C9.07367 120.393 10.861 118.604 12.9233 117.091C16.498 114.339 19.6602 112.688 22.41 111.725C24.0598 111.174 25.5722 113.238 25.5722 116.128Z" fill="#95A2A6" stroke="#416388" stroke-width="0.657" stroke-linejoin="round"/>
<path d="M21.7223 120.943C21.7223 118.054 20.7599 115.577 19.66 115.577C18.5601 115.577 17.5977 117.916 17.5977 120.943C17.5977 123.833 18.5601 126.31 19.66 126.31C20.8974 126.31 21.7223 123.833 21.7223 120.943Z" fill="white" stroke="#416388" stroke-width="0.7393" stroke-linejoin="round"/>
<path d="M101.74 37.9755L100.365 38.1131C98.9905 38.2507 97.8906 39.489 97.8906 41.0025V58.8895C97.8906 61.091 99.403 63.0172 101.19 63.0172H103.115C105.04 63.0172 106.277 61.091 106.14 58.7519L104.765 40.4521C104.353 38.9386 103.115 37.8379 101.74 37.9755Z" fill="#95A2A6" stroke="#416388" stroke-width="0.8233" stroke-linejoin="round"/>
<path d="M85.9294 53.3857L78.6426 61.5036L98.3033 57.9262C99.2657 57.7886 99.9532 56.9631 99.9532 55.9999V53.3857C99.9532 52.1473 98.8533 51.1842 97.6159 51.4594L85.9294 53.3857Z" fill="#C7D8DC" stroke="#416388" stroke-width="0.7004" stroke-miterlimit="10"/>
<path d="M113.571 144.314C117.271 128.48 107.444 112.642 91.6217 108.939C75.7995 105.237 59.9737 115.071 56.2737 130.905C52.5737 146.739 62.4006 162.577 78.2228 166.28C94.0449 169.983 109.871 160.148 113.571 144.314Z" fill="#95A2A6" stroke="#416388" stroke-width="1.3129" stroke-linejoin="round"/>
<path d="M84.967 156.855C95.5975 156.855 104.215 148.231 104.215 137.592C104.215 126.953 95.5975 118.329 84.967 118.329C74.3365 118.329 65.7188 126.953 65.7188 137.592C65.7188 148.231 74.3365 156.855 84.967 156.855Z" fill="white" stroke="#416388" stroke-width="0.6324" stroke-linejoin="round"/>
<path d="M83.0411 138.142C82.7661 137.041 83.4536 135.941 84.5535 135.665C85.6534 135.39 86.7533 136.078 87.0282 137.041C87.3032 138.142 86.6158 139.243 85.5159 139.518C84.416 139.793 83.3161 139.243 83.0411 138.142Z" stroke="#416388" stroke-width="0.6324" stroke-linecap="round" stroke-linejoin="round"/>
<path d="M80.7035 120.943C80.1536 121.081 79.3286 121.356 78.6412 121.631C78.3662 121.769 78.0913 121.907 77.9538 122.044C77.6788 122.182 77.4038 122.457 77.2663 122.732L76.5789 124.246C76.3039 124.796 76.4414 125.622 76.9914 125.897L81.8034 129.474C82.4909 130.025 83.5908 129.749 84.0032 128.924L86.478 123.42C86.753 122.87 86.6155 122.044 86.0655 121.769L84.6907 120.668C84.4157 120.531 84.1407 120.393 83.7282 120.393C83.4533 120.393 83.1783 120.393 82.9033 120.393C81.9409 120.668 81.2535 120.806 80.7035 120.943Z" fill="#C7D8DC" stroke="#416388" stroke-width="0.6324" stroke-linejoin="round"/>
<path d="M67.918 136.491C67.918 137.042 67.918 137.867 67.918 138.693C67.918 138.968 67.918 139.243 68.0555 139.518C68.0555 139.794 68.3304 140.069 68.4679 140.344L69.7053 141.445C70.2553 141.857 70.9427 141.857 71.4926 141.582L76.3047 138.142C76.9921 137.592 77.1296 136.491 76.4422 135.941L72.0426 131.951C71.4926 131.538 70.8052 131.4 70.2553 131.813L68.8804 132.776C68.6054 132.914 68.4679 133.189 68.3304 133.602C68.1929 133.877 68.1929 134.152 68.1929 134.427C67.918 135.115 67.918 135.803 67.918 136.491Z" fill="#C7D8DC" stroke="#416388" stroke-width="0.6324" stroke-linejoin="round"/>
<path d="M78.3675 153.277C78.9175 153.552 79.6049 153.828 80.4298 153.965C80.7048 153.965 80.9798 154.103 81.2548 154.103C81.5297 154.103 81.9422 154.103 82.2172 153.965L83.7296 153.14C84.2795 152.864 84.5545 152.176 84.417 151.489L82.7671 145.71C82.4922 144.884 81.5297 144.471 80.7048 144.884L75.4803 147.774C74.9303 148.049 74.6554 148.737 74.7928 149.425L75.2053 151.076C75.3428 151.351 75.4803 151.626 75.7553 151.901C76.0302 152.039 76.1677 152.176 76.4427 152.314C77.1301 152.864 77.8176 153.14 78.3675 153.277Z" fill="#C7D8DC" stroke="#416388" stroke-width="0.6324" stroke-linejoin="round"/>
<path d="M98.303 148.049C98.7155 147.636 99.128 146.948 99.5404 146.26C99.6779 145.985 99.8154 145.71 99.9529 145.572C100.09 145.297 100.09 144.884 100.09 144.609L99.6779 142.958C99.5404 142.27 98.9905 141.857 98.303 141.857H92.3911C91.4286 141.857 90.7412 142.683 91.0162 143.646L92.3911 149.425C92.5285 150.113 93.0785 150.526 93.7659 150.526H95.4158C95.6908 150.526 96.1032 150.388 96.2407 150.25C96.3782 150.113 96.6532 149.975 96.9281 149.7C97.3406 149.15 97.8906 148.599 98.303 148.049Z" fill="#C7D8DC" stroke="#416388" stroke-width="0.6324" stroke-linejoin="round"/>
<path d="M99.4029 128.236C99.1279 127.685 98.7155 127.135 98.1655 126.447C98.028 126.172 97.7531 126.034 97.6156 125.897C97.3406 125.621 97.0656 125.484 96.7906 125.484L95.1408 125.346C94.4533 125.346 93.9034 125.621 93.6284 126.309L91.7036 131.951C91.4286 132.776 91.9786 133.739 92.941 133.877L98.853 134.565C99.5404 134.702 100.09 134.29 100.365 133.602L100.915 131.951C101.053 131.675 101.053 131.263 100.915 130.987C100.778 130.712 100.778 130.437 100.64 130.162C100.09 129.474 99.6779 128.786 99.4029 128.236Z" fill="#C7D8DC" stroke="#416388" stroke-width="0.6324" stroke-linejoin="round"/>
<path d="M351.316 158.463C362.806 146.965 362.806 128.321 351.316 116.823C339.826 105.324 321.197 105.324 309.707 116.823C298.217 128.321 298.217 146.965 309.707 158.463C321.197 169.962 339.826 169.962 351.316 158.463Z" fill="#95A2A6" stroke="#416388" stroke-width="1.3129" stroke-linejoin="round"/>
<path d="M330.52 156.855C341.15 156.855 349.768 148.231 349.768 137.592C349.768 126.954 341.15 118.329 330.52 118.329C319.889 118.329 311.271 126.954 311.271 137.592C311.271 148.231 319.889 156.855 330.52 156.855Z" fill="white" stroke="#416388" stroke-width="0.6324" stroke-linejoin="round"/>
<path d="M328.594 138.142C328.319 137.042 329.006 135.941 330.106 135.666C331.206 135.39 332.306 136.078 332.581 137.042C332.856 138.142 332.169 139.243 331.069 139.518C329.969 139.793 328.869 139.243 328.594 138.142Z" stroke="#416388" stroke-width="0.6324" stroke-linecap="round" stroke-linejoin="round"/>
<path d="M326.256 120.944C325.706 121.081 324.881 121.356 324.194 121.632C323.919 121.769 323.644 121.907 323.507 122.044C323.232 122.182 322.957 122.457 322.819 122.732L322.132 124.246C321.857 124.796 321.994 125.622 322.544 125.897L327.356 129.474C328.044 130.025 329.144 129.75 329.556 128.924L332.031 123.42C332.306 122.87 332.168 122.044 331.618 121.769L330.243 120.668C329.968 120.531 329.693 120.393 329.281 120.393C329.006 120.393 328.731 120.393 328.456 120.393C327.631 120.668 326.806 120.806 326.256 120.944Z" fill="#C7D8DC" stroke="#416388" stroke-width="0.6324" stroke-linejoin="round"/>
<path d="M313.471 136.492C313.471 137.042 313.471 137.868 313.471 138.693C313.471 138.968 313.471 139.244 313.608 139.519C313.608 139.794 313.883 140.069 314.021 140.344L315.258 141.445C315.808 141.858 316.495 141.858 317.045 141.583L321.857 138.143C322.545 137.593 322.682 136.492 321.995 135.941L317.595 131.951C317.045 131.539 316.358 131.401 315.808 131.814L314.433 132.777C314.158 132.914 314.021 133.19 313.883 133.602C313.746 133.878 313.746 134.153 313.746 134.428C313.608 135.116 313.471 135.804 313.471 136.492Z" fill="#C7D8DC" stroke="#416388" stroke-width="0.6324" stroke-linejoin="round"/>
<path d="M323.92 153.277C324.47 153.553 325.158 153.828 325.983 153.965C326.258 153.965 326.533 154.103 326.808 154.103C327.082 154.103 327.495 154.103 327.77 153.965L329.282 153.14C329.832 152.865 330.107 152.177 329.97 151.489L328.32 145.71C328.045 144.884 327.082 144.472 326.258 144.884L321.033 147.774C320.483 148.049 320.208 148.737 320.346 149.425L320.758 151.076C320.896 151.351 321.033 151.626 321.308 151.902C321.583 152.039 321.72 152.177 321.995 152.314C322.683 152.865 323.37 153.14 323.92 153.277Z" fill="#C7D8DC" stroke="#416388" stroke-width="0.6324" stroke-linejoin="round"/>
<path d="M343.856 148.049C344.268 147.636 344.681 146.948 345.093 146.26C345.231 145.985 345.368 145.71 345.506 145.572C345.643 145.297 345.643 144.884 345.643 144.609L345.231 142.958C345.093 142.27 344.543 141.857 343.856 141.857H337.944C336.981 141.857 336.294 142.683 336.569 143.646L337.944 149.425C338.081 150.113 338.631 150.526 339.319 150.526H340.969C341.243 150.526 341.656 150.388 341.793 150.251C341.931 150.113 342.206 149.975 342.481 149.7C343.031 149.15 343.443 148.599 343.856 148.049Z" fill="#C7D8DC" stroke="#416388" stroke-width="0.6324" stroke-linejoin="round"/>
<path d="M344.956 128.236C344.681 127.686 344.268 127.135 343.718 126.447C343.581 126.172 343.306 126.034 343.168 125.897C342.893 125.622 342.618 125.484 342.343 125.484L340.694 125.346C340.006 125.346 339.456 125.622 339.181 126.31L337.256 131.951C336.981 132.776 337.531 133.74 338.494 133.877L344.406 134.565C345.093 134.703 345.643 134.29 345.918 133.602L346.468 131.951C346.605 131.676 346.605 131.263 346.468 130.988C346.331 130.713 346.331 130.437 346.193 130.162C345.781 129.474 345.368 128.786 344.956 128.236Z" fill="#C7D8DC" stroke="#416388" stroke-width="0.6324" stroke-linejoin="round"/>
<path d="M186.434 67.8327C186.434 66.8695 181.622 66.3191 175.847 66.7319C170.073 67.1447 165.398 68.2454 165.398 69.2086C165.398 70.1717 170.21 70.7221 175.985 70.3093C181.897 69.8965 186.572 68.7958 186.434 67.8327Z" stroke="#416388" stroke-width="0.7004" stroke-linejoin="round"/>
<path d="M220.393 65.2189C220.393 64.2558 215.581 63.7054 209.806 64.1182C204.032 64.5309 199.357 65.6317 199.357 66.5948C199.357 67.558 204.169 68.1083 209.944 67.6956C215.856 67.2828 220.531 66.182 220.393 65.2189Z" stroke="#416388" stroke-width="0.7004" stroke-linejoin="round"/>
<path d="M4.40008 120.118H4.53757C3.71264 122.732 3.02521 124.934 2.61274 126.31C1.78782 124.521 1.23787 122.32 0.962891 120.118H4.40008Z" fill="#95A2A6" stroke="#416388" stroke-width="0.5571" stroke-linejoin="round"/>
<path d="M4.39994 107.872L7.69964 107.322C7.01221 111.587 5.77482 116.265 4.67492 120.118H4.53743H0.962749C0.687774 117.504 0.825262 114.752 2.06265 112.138C2.47511 111.174 3.02506 110.074 3.98748 109.11C4.12496 108.698 4.39994 108.285 4.39994 107.872Z" fill="#C7D8DC" stroke="#416388" stroke-width="0.7844" stroke-linejoin="round"/>
<path d="M6.18669 96.3141C8.38649 97.5525 8.52398 102.093 7.69905 107.322L4.53683 107.872C4.67432 107.459 4.67432 107.046 4.67432 106.771C4.26186 104.019 3.98688 100.167 4.39935 95.9014C5.08679 95.9014 5.63674 96.039 6.18669 96.3141Z" fill="#95A2A6" stroke="#416388" stroke-width="0.5571" stroke-linejoin="round"/>
<path d="M405.039 11.2822C405.039 11.2822 405.039 11.4198 405.177 11.4198" stroke="#416388" stroke-width="1.2365" stroke-linejoin="round"/>
<path d="M404.9 11.0073C404.9 11.1449 405.038 11.1449 405.038 11.2825" stroke="#416388" stroke-width="1.2365" stroke-linejoin="round"/>
<path d="M4.40039 107.872L7.70009 107.322L30.523 103.057L34.9226 105.946C36.985 107.184 39.3222 107.872 41.6595 107.872L66.1323 107.322" stroke="#416388" stroke-width="0.7533" stroke-linejoin="round"/>
<path d="M4.26236 95.9018C5.08729 95.7642 5.63724 96.0394 6.18719 96.3146C8.38699 97.5529 8.52448 102.093 7.69955 107.322C7.01212 111.587 5.77473 116.265 4.67483 120.118C3.8499 122.732 3.16246 124.934 2.75 126.31" stroke="#416388" stroke-width="0.7533" stroke-linejoin="round"/>
<path d="M0.962891 120.118H4.40008" stroke="#416388" stroke-width="1.2365" stroke-linejoin="round"/>
<path d="M14.9861 83.1057H7.69922" stroke="#416388" stroke-width="0.7533" stroke-linejoin="round"/>
</g>
<defs>
<clipPath id="clip0_1135_73588">
<rect width="417" height="168" fill="white"/>
</clipPath>
</defs>
</svg>
