<svg width="192" height="167" viewBox="0 0 192 167" fill="none" xmlns="http://www.w3.org/2000/svg">
<g opacity="0.5" clip-path="url(#clip0_1135_73697)">
<path d="M185.957 51.9368L186.094 52.4893C186.644 54.0088 185.82 55.6663 184.309 56.357L170.85 61.606V53.18L182.249 50.003C183.759 49.4505 185.408 50.2792 185.957 51.9368Z" fill="#C7D8DC" stroke="#416388" stroke-width="0.7004" stroke-miterlimit="10"/>
<path d="M183.072 36.8805L186.231 36.7423C188.565 36.6042 190.488 38.3999 190.626 40.7481L191.45 55.1137C191.587 57.8763 189.664 60.3627 187.055 60.7771L183.484 61.3296C180.737 61.744 178.402 59.672 178.402 56.7713V41.4388C178.54 38.9524 180.6 37.0186 183.072 36.8805Z" fill="#95A2A6" stroke="#416388" stroke-width="0.7004" stroke-linejoin="round"/>
<path d="M180.189 52.4892V41.4387C180.189 39.7812 181.563 38.538 183.211 38.3998L186.507 38.2617C187.88 38.2617 189.116 39.3668 189.116 40.7481L189.803 52.351H180.189V52.4892Z" fill="#C7D8DC" stroke="#416388" stroke-width="0.7004" stroke-miterlimit="10"/>
<path d="M189.802 53.7324L189.939 55.2518C190.077 57.1856 188.703 58.9813 186.918 59.2576L183.347 59.8101C183.21 59.8101 183.072 59.8101 182.798 59.8101C182.111 59.8101 181.424 59.5339 180.875 58.9813C180.325 58.4288 180.051 57.7382 180.051 56.7712V53.5942H189.802V53.7324Z" fill="#C7D8DC" stroke="#416388" stroke-width="0.7004" stroke-miterlimit="10"/>
<path d="M6.04443 51.9368L5.90709 52.4893C5.35773 54.0088 6.18177 55.6663 7.69249 56.357L21.1517 61.606V53.18L9.75258 50.003C8.24185 49.4505 6.59378 50.2792 6.04443 51.9368Z" fill="#C7D8DC" stroke="#416388" stroke-width="0.7004" stroke-miterlimit="10"/>
<path d="M8.92757 36.8805L5.76877 36.7423C3.43401 36.6042 1.51126 38.3999 1.37392 40.7481L0.549887 55.1137C0.412548 57.8763 2.33529 60.3627 4.94474 60.7771L8.51555 61.3296C11.2623 61.744 13.5971 59.672 13.5971 56.7713V41.4388C13.4598 38.9524 11.3997 37.0186 8.92757 36.8805Z" fill="#95A2A6" stroke="#416388" stroke-width="0.7004" stroke-linejoin="round"/>
<path d="M11.811 52.489V41.4385C11.811 39.781 10.4376 38.5378 8.78954 38.3997H5.4934C4.12001 38.3997 2.88396 39.5047 2.88396 40.886L2.19727 52.489H11.811Z" fill="#C7D8DC" stroke="#416388" stroke-width="0.7004" stroke-miterlimit="10"/>
<path d="M2.19759 53.7324L2.06025 55.2518C1.92291 57.1856 3.2963 58.9813 5.08171 59.2576L8.65253 59.8101C8.78987 59.8101 8.9272 59.8101 9.20188 59.8101C9.88858 59.8101 10.5753 59.5339 11.1246 58.9813C11.674 58.4288 11.9487 57.7382 11.9487 56.7712V53.5942H2.19759V53.7324Z" fill="#C7D8DC" stroke="#416388" stroke-width="0.7004" stroke-miterlimit="10"/>
<path d="M157.94 136.611H30.627V147.938H157.94V136.611Z" fill="#6C747B" stroke="#416388" stroke-width="0.7217" stroke-linejoin="round"/>
<path d="M53.5627 136.887H45.4597C42.5756 136.887 40.1035 139.236 40.1035 142.275V143.241C40.1035 146.142 42.4383 148.629 45.4597 148.629H53.5627C56.4469 148.629 58.919 146.28 58.919 143.241V142.275C58.919 139.236 56.4469 136.887 53.5627 136.887Z" fill="#95A2A6" stroke="#416388" stroke-width="0.9794" stroke-linejoin="round"/>
<path d="M43.9492 151.115H50.2668L52.7389 143.932C52.1896 142.965 50.9535 142.275 49.7175 142.275C48.3441 142.275 47.108 142.827 46.4213 143.794C45.5973 146.28 44.7733 148.629 43.9492 151.115Z" fill="#95A2A6" stroke="#416388" stroke-width="0.9794" stroke-linejoin="round"/>
<path d="M50.2668 151.115C50.2668 150.286 48.8934 149.734 47.108 149.734C45.3226 149.734 43.9492 150.425 43.9492 151.115C43.9492 151.944 45.3226 152.497 47.108 152.497C48.7561 152.497 50.2668 151.944 50.2668 151.115Z" fill="#44494E" stroke="#416388" stroke-width="0.6637" stroke-linejoin="round"/>
<path d="M13.7344 105.808V120.864V162.027C13.7344 164.375 15.6571 166.309 17.9919 166.309H29.5284C31.8631 166.309 33.7859 164.375 33.7859 162.027V140.202L13.7344 105.808Z" fill="#95A2A6" stroke="#416388" stroke-width="1.0663" stroke-linejoin="round"/>
<path d="M174.833 105.808V120.864V162.027C174.833 164.375 172.91 166.309 170.575 166.309H159.039C156.704 166.309 154.781 164.375 154.781 162.027V138.821L174.833 105.808Z" fill="#95A2A6" stroke="#416388" stroke-width="1.0663" stroke-linejoin="round"/>
<path d="M16.2075 54.0089C15.7955 56.9097 15.5208 59.8104 15.1088 62.8493C12.362 91.5805 13.7354 116.168 17.3062 134.401C18.2676 138.821 23.3491 141.998 27.8813 142.136C50.5423 142.689 141.186 142.689 163.984 142.136C168.517 141.998 173.598 138.821 174.559 134.401C178.268 116.168 179.641 91.5805 176.757 62.8493C174.697 41.7153 170.165 23.7583 165.358 9.39272C163.984 5.38693 160.414 2.62431 156.156 2.34805C151.761 2.07179 147.366 1.93366 142.834 1.79553C126.903 1.24301 107.675 0.828613 96.0015 0.828613C84.1903 0.828613 65.1002 1.10487 49.0315 1.79553C44.6367 1.93366 40.1045 2.20992 35.7097 2.34805C31.4521 2.62431 27.744 5.2488 26.5079 9.39272C26.3706 9.80711 26.2333 10.3596 26.0959 10.774C22.1131 22.7914 18.4049 37.4333 16.2075 54.0089Z" fill="#EAF5F9" stroke="#416388" stroke-width="1.2365" stroke-linejoin="round"/>
<path d="M26.7813 27.6259C27.1933 27.0734 27.88 26.2446 28.8414 25.2777C29.2534 24.8633 29.6654 24.4489 30.2148 23.8963C31.0388 23.0676 32.0002 22.1007 33.2362 20.9956C32.6869 30.941 32.2749 41.0246 32.0002 51.2462C31.4508 67.1313 31.1761 82.8781 31.0388 98.3488C31.0388 98.3488 21.4251 91.5804 21.1504 90.8897C21.1504 81.9112 21.4251 72.5184 21.9744 62.8492C22.6611 50.4174 24.4465 38.4001 26.7813 27.6259Z" fill="#95A2A6" stroke="#416388" stroke-width="0.7004" stroke-linejoin="round"/>
<path d="M49.0311 1.79517L37.9066 3.17647C35.7092 3.45273 34.0611 5.24843 33.9238 7.45852C33.6491 11.8787 33.5118 16.437 33.2371 20.8572C32.6878 30.8026 32.2757 40.8861 32.0011 51.1078C31.4517 66.9928 31.177 82.7397 31.0397 98.2104C30.9023 107.603 30.9023 116.996 30.9023 126.251C30.9023 128.185 32.5504 129.842 34.4732 129.842H96.0011" stroke="#416388" stroke-width="0.7491" stroke-linejoin="round"/>
<path d="M21.1504 90.8894C21.4251 91.5801 31.0388 98.3485 31.0388 98.3485" stroke="#416388" stroke-width="0.7491" stroke-linejoin="round"/>
<path d="M33.236 16.4377H31.5879V20.3054H33.236V16.4377Z" stroke="#416388" stroke-width="0.7491" stroke-linejoin="round"/>
<path d="M30.9024 99.3162H28.293V104.841H30.9024V99.3162Z" stroke="#416388" stroke-width="0.7491" stroke-linejoin="round"/>
<path d="M36.9453 129.981H16.6191" stroke="#416388" stroke-width="0.7491" stroke-linejoin="round"/>
<path d="M48.8937 132.329H40.2414C39.8294 132.329 39.5547 132.605 39.5547 133.019V135.367C39.5547 135.782 39.8294 136.058 40.2414 136.058H48.8937C49.3058 136.058 49.5804 135.782 49.5804 135.367V133.019C49.5804 132.605 49.1684 132.329 48.8937 132.329Z" fill="#95A2A6" stroke="#416388" stroke-width="0.7004" stroke-linejoin="round"/>
<path d="M27.1942 11.7406C25.6834 18.0946 24.31 24.5867 23.074 31.4933C21.8379 38.3998 20.7392 45.1682 19.9152 51.6604C18.6791 52.4892 17.4431 53.1798 16.207 54.0086C18.4045 37.2948 22.1126 22.7911 26.0954 10.7737L27.1942 11.7406Z" fill="#95A2A6" stroke="#416388" stroke-width="0.5571" stroke-linejoin="round"/>
<path d="M125.529 73.3475C125.529 72.3806 120.722 71.6899 114.954 71.6899C109.048 71.8281 104.379 72.6569 104.379 73.7619C104.379 74.7288 109.186 75.4195 114.954 75.4195C120.722 75.2813 125.529 74.3144 125.529 73.3475Z" stroke="#416388" stroke-width="0.7004" stroke-linejoin="round"/>
<path d="M22.3877 56.7715L15.2461 61.4679" stroke="#416388" stroke-width="0.7004" stroke-miterlimit="10"/>
<path d="M96.0012 56.9097H129.787C133.495 56.9097 137.066 55.6665 140.087 53.3183L150.525 44.8923C153.272 42.6822 154.782 39.2289 154.37 35.7757L153.821 12.846C153.546 10.3596 151.486 8.42578 149.014 8.42578H96.0012H42.9884C40.5163 8.42578 38.4562 10.3596 38.1815 12.846L37.6322 35.7757C37.3575 39.2289 38.7309 42.6822 41.4776 44.8923L51.9154 53.3183C54.7995 55.6665 58.5077 56.9097 62.2158 56.9097H96.0012Z" fill="#95A2A6" stroke="#416388" stroke-width="0.5571" stroke-linejoin="round"/>
<path d="M170.849 90.8894C170.575 91.5801 160.961 98.3485 160.961 98.3485" stroke="#416388" stroke-width="0.7491" stroke-linejoin="round"/>
<path d="M158.762 20.1257H160.41V16.2581H158.762V20.1257Z" stroke="#416388" stroke-width="0.7491" stroke-linejoin="round"/>
<path d="M161.105 104.987H163.715V99.4621H161.105V104.987Z" stroke="#416388" stroke-width="0.7491" stroke-linejoin="round"/>
<path d="M154.92 129.981H175.383" stroke="#416388" stroke-width="0.7491" stroke-linejoin="round"/>
<path d="M143.109 132.329H151.761C152.173 132.329 152.448 132.605 152.448 133.019V135.367C152.448 135.782 152.173 136.058 151.761 136.058H143.109C142.697 136.058 142.422 135.782 142.422 135.367V133.019C142.422 132.605 142.697 132.329 143.109 132.329Z" fill="#95A2A6" stroke="#416388" stroke-width="0.7004" stroke-linejoin="round"/>
<path d="M115.64 6.49206C114.953 5.93954 113.992 5.52515 113.03 5.52515H96.0004H78.833C77.8716 5.52515 77.0476 5.80141 76.2235 6.49206L74.3008 8.28776H96.0004H117.7L115.64 6.49206Z" fill="#95A2A6" stroke="#416388" stroke-width="0.7004" stroke-linejoin="round"/>
<path d="M169.613 56.7715L176.755 61.4679" stroke="#416388" stroke-width="0.7004" stroke-miterlimit="10"/>
<path d="M96 0.828613V129.981H157.528C159.451 129.981 161.099 128.461 161.099 126.389C161.099 117.135 161.099 107.88 160.961 98.3489C160.824 82.8782 160.412 67.2695 160 51.2463C159.725 41.0246 159.313 30.9411 158.764 20.9957C158.489 16.4374 158.352 12.0172 158.077 7.59702C157.94 5.38693 156.292 3.59123 154.094 3.31497L142.97 1.93366" stroke="#416388" stroke-width="0.7491" stroke-linejoin="round"/>
<path d="M84.4637 123.075H42.3006C40.2405 123.075 38.4551 121.417 38.4551 119.207V106.223H88.1718V119.207C88.3092 121.417 86.6611 123.075 84.4637 123.075Z" stroke="#416388" stroke-width="0.6492" stroke-linejoin="round"/>
<path d="M83.5036 102.355C82.4049 101.526 81.1689 100.973 79.7955 100.973H63.4521H47.1088C45.7354 100.973 44.4993 101.388 43.4006 102.355L38.5938 106.222H63.4521H88.3105L83.5036 102.355Z" stroke="#416388" stroke-width="0.6492" stroke-linejoin="round"/>
<path d="M164.807 11.7406C166.317 18.0946 167.691 24.5867 168.927 31.4933C170.163 38.3998 171.262 45.1682 172.086 51.6604C173.322 52.4892 174.558 53.1798 175.794 54.0086C173.596 37.2948 169.888 22.7911 165.905 10.7737L164.807 11.7406Z" fill="#95A2A6" stroke="#416388" stroke-width="0.5571" stroke-linejoin="round"/>
<path d="M165.219 27.6259C164.807 27.0734 164.12 26.2446 163.159 25.2777C162.747 24.8633 162.334 24.4489 161.785 23.8963C160.961 23.0676 160 22.1007 158.764 20.9956C159.313 30.941 159.725 41.0246 160 51.2462C160.549 67.1313 160.824 82.8781 160.961 98.3488C160.961 98.3488 170.575 91.5804 170.85 90.8897C170.85 81.9112 170.575 72.5184 170.025 62.8492C169.201 50.4174 167.553 38.4001 165.219 27.6259Z" fill="#95A2A6" stroke="#416388" stroke-width="0.7004" stroke-linejoin="round"/>
</g>
<defs>
<clipPath id="clip0_1135_73697">
<rect width="192" height="167" fill="white"/>
</clipPath>
</defs>
</svg>
