<svg width="191" height="168" viewBox="0 0 191 168" fill="none" xmlns="http://www.w3.org/2000/svg">
<g opacity="0.5" clip-path="url(#clip0_1135_73656)">
<path d="M159.258 137.567H31.8789V148.859H159.258V137.567Z" fill="#6C747B" stroke="#416388" stroke-width="0.7217" stroke-linejoin="round"/>
<path d="M131.365 139.22H59.6367V150.374H131.365V139.22Z" fill="#6C747B" stroke="#416388" stroke-width="0.7004" stroke-linejoin="round"/>
<path d="M14.8398 106.997V122.006V163.042C14.8398 165.383 16.7636 167.311 19.0996 167.311H30.642C32.978 167.311 34.9017 165.383 34.9017 163.042V141.285L14.8398 106.997Z" fill="#95A2A6" stroke="#416388" stroke-width="1.0663" stroke-linejoin="round"/>
<path d="M176.16 106.997V122.006V163.042C176.16 165.383 174.236 167.311 171.9 167.311H160.357C158.021 167.311 156.098 165.383 156.098 163.042V139.908L176.16 106.997Z" fill="#95A2A6" stroke="#416388" stroke-width="1.0663" stroke-linejoin="round"/>
<path d="M95.5011 143.488C118.174 143.488 140.846 142.387 163.519 141.836C168.054 141.698 171.764 138.531 172.726 134.125C176.436 115.948 179.184 91.436 176.436 62.7934C174.374 41.7245 169.84 23.8229 165.031 9.50158C163.656 5.50814 160.084 2.75404 155.824 2.47863C151.427 2.20322 147.03 2.06552 142.495 1.92781C126.418 1.23929 107.318 0.826172 95.5011 0.826172C83.8212 0.826172 64.5838 1.23929 48.5069 1.79011C44.1097 1.92781 39.5752 2.20322 35.1781 2.34093C30.9184 2.61634 27.2083 5.37043 25.9716 9.36388C21.1622 23.6852 16.6277 41.7245 14.5666 62.6557C11.8184 91.2983 14.5666 115.81 18.2766 133.987C19.1011 138.393 22.9486 141.561 27.4831 141.698C50.1558 142.249 72.8284 143.488 95.5011 143.488Z" fill="#EAF5F9" stroke="#416388" stroke-width="1.2365" stroke-linejoin="round"/>
<path d="M23.3606 71.0554C29.4067 70.6423 36.2772 74.498 36.2772 74.498C36.552 74.6357 36.8268 74.7734 36.8268 74.7734L52.9038 87.1669C54.2779 88.2685 54.4153 90.4718 53.1786 90.7472L50.4304 91.4357H50.293C48.3693 91.7111 37.3765 93.639 28.7196 84.6882C28.3074 84.2751 28.0326 83.862 27.6204 83.5865C27.6204 83.5865 23.0858 78.3538 22.3988 72.2947C22.2614 71.4685 22.5362 71.1931 22.6736 71.0554C22.9484 71.0554 23.2232 71.0554 23.3606 71.0554Z" fill="white" stroke="#416388" stroke-width="0.7631" stroke-linejoin="round"/>
<path d="M35.8652 9.22607V2.34082" stroke="#416388" stroke-width="0.7598" stroke-linejoin="round"/>
<path d="M25.9713 9.36353C24.7346 28.0914 23.4979 46.8193 22.3987 65.4094C19.9253 63.4816 17.4519 61.5537 14.9785 59.6258C15.9404 51.6389 17.3145 42.8258 19.3756 33.4619C21.2994 24.7865 23.6353 16.6619 25.9713 9.36353Z" stroke="#416388" stroke-width="0.7598" stroke-linejoin="round"/>
<path d="M36.8257 74.9114C33.253 71.8819 29.6803 68.7147 25.9703 65.6852C25.8329 65.1343 24.871 61.1409 27.3444 57.5606C29.9552 54.1179 34.3523 53.9802 35.589 53.8425C36.6883 53.8425 37.6501 53.8425 38.1998 53.9802L46.994 81.5212" stroke="#416388" stroke-width="0.7631" stroke-linejoin="round"/>
<path d="M95.5008 96.531C87.1188 96.531 78.5993 96.6687 69.8051 97.0818C69.2555 97.0818 68.8432 97.0818 68.2936 97.2195C64.5835 97.3572 60.8734 98.7343 57.9878 101.213C57.026 102.039 56.2015 102.728 55.2396 103.692C53.8655 105.069 52.4914 106.446 51.3921 107.685C50.8425 108.236 50.4303 108.787 49.8806 109.475C48.9188 110.715 48.7813 112.367 49.6058 113.744C50.1554 114.846 50.8425 115.81 51.3921 116.911C51.667 117.462 52.0792 118.013 52.354 118.564C53.7281 120.905 56.2015 122.42 58.8123 122.695C61.1483 122.97 63.6216 123.108 66.095 123.383C76.4008 124.072 86.1569 124.21 95.3634 124.21" fill="#95A2A6"/>
<path d="M95.5008 96.531C87.1188 96.531 78.5993 96.6687 69.8051 97.0818C69.2555 97.0818 68.8432 97.0818 68.2936 97.2195C64.5835 97.3572 60.8734 98.7343 57.9878 101.213C57.026 102.039 56.2015 102.728 55.2396 103.692C53.8655 105.069 52.4914 106.446 51.3921 107.685C50.8425 108.236 50.4303 108.787 49.8806 109.475C48.9188 110.715 48.7813 112.367 49.6058 113.744C50.1554 114.846 50.8425 115.81 51.3921 116.911C51.667 117.462 52.0792 118.013 52.354 118.564C53.7281 120.905 56.2015 122.42 58.8123 122.695C61.1483 122.97 63.6216 123.108 66.095 123.383C76.4008 124.072 86.1569 124.21 95.3634 124.21" stroke="#416388" stroke-width="0.5781" stroke-linejoin="round"/>
<path d="M23.6357 116.774C23.9105 118.977 24.3228 121.456 24.5976 123.797C25.0098 126.964 27.2084 129.718 29.5443 129.994L46.7206 131.508C49.6062 131.784 50.0184 126.689 47.2702 124.348C45.0717 122.42 42.5983 120.63 39.8501 118.84C35.0407 115.672 30.6436 113.745 27.071 112.505C24.8724 111.817 23.2235 113.882 23.6357 116.774Z" fill="#95A2A6" stroke="#416388" stroke-width="0.7201" stroke-linejoin="round"/>
<path d="M27.207 122.832C27.207 120.216 29.2682 118.15 31.879 118.15C34.4898 118.15 36.5509 120.216 36.5509 122.832C36.5509 125.449 34.4898 127.514 31.879 127.514C29.2682 127.514 27.207 125.449 27.207 122.832Z" fill="white" stroke="#416388" stroke-width="0.7439" stroke-linejoin="round"/>
<path d="M51.391 107.685L25.9702 103.141C24.4587 96.9443 23.0846 89.646 22.5349 81.5214C22.2601 78.0788 22.2601 74.7738 22.3975 71.7443C21.0234 70.9181 19.3745 69.9542 17.7256 68.5771C16.3515 67.4755 15.2522 66.3738 14.4277 65.4099" stroke="#416388" stroke-width="0.7598" stroke-linejoin="round"/>
<path d="M25.9702 103.141C25.8328 103.692 25.6954 104.518 25.2831 105.207C24.5961 106.721 22.9472 107.685 21.2982 107.548C20.4738 107.548 19.6493 107.41 18.6874 107.41C17.0385 107.272 15.6644 106.997 14.4277 106.584" stroke="#416388" stroke-width="0.7598" stroke-linejoin="round"/>
<path d="M9.06931 37.7313L5.90888 37.5936C3.57291 37.4559 1.64917 39.2461 1.51176 41.5871L0.549891 55.9084C0.412481 58.6625 2.33622 61.1412 4.94701 61.5543L8.51967 62.1051C11.2679 62.5182 13.6038 60.4526 13.6038 57.5608V42.4133C13.4664 39.9346 11.5427 37.869 9.06931 37.7313Z" fill="#95A2A6" stroke="#416388" stroke-width="0.8233" stroke-linejoin="round"/>
<path d="M24.5972 30.0193C25.0095 23.134 25.5591 16.2488 25.9713 9.36353C23.6354 16.6619 21.2994 24.7865 19.3756 33.5996C17.3145 42.9635 15.9404 51.7766 14.9785 59.7635C16.0778 60.5898 17.0397 61.416 18.1389 62.2422L24.5972 30.0193Z" fill="#95A2A6" stroke="#416388" stroke-width="0.5571" stroke-linejoin="round"/>
<path d="M6.18284 52.7407L6.04543 53.2915C5.49579 54.8063 6.18284 56.4587 7.69435 57.0095L21.1605 62.2423V53.8423L9.7555 50.6751C8.24399 50.262 6.59507 51.0882 6.18284 52.7407Z" fill="#C7D8DC" stroke="#416388" stroke-width="0.7004" stroke-miterlimit="10"/>
<path d="M13.4668 87.3052C13.7416 87.9937 14.2913 88.9576 14.7035 90.3347C16.4898 95.0166 16.902 99.1478 17.3143 103.141C17.4517 104.243 17.5891 105.895 17.7265 107.823" stroke="#416388" stroke-width="0.5571" stroke-linejoin="round"/>
<path d="M167.777 71.0554C161.731 70.6423 154.86 74.498 154.86 74.498C154.586 74.6357 154.311 74.7734 154.311 74.7734L138.234 87.1669C136.86 88.2685 136.722 90.4718 137.959 90.7472L140.707 91.4357H140.845C142.768 91.7111 153.761 93.639 162.418 84.6882C162.83 84.2751 163.105 83.862 163.517 83.5865C163.517 83.5865 168.052 78.3538 168.739 72.2947C168.876 71.4685 168.601 71.1931 168.464 71.0554C168.189 71.0554 167.914 71.0554 167.777 71.0554Z" fill="white" stroke="#416388" stroke-width="0.7631" stroke-linejoin="round"/>
<path d="M95.5009 57.5609C101.547 57.5609 113.364 57.4232 119.822 57.1478C127.105 56.8724 135.762 56.3216 146.892 54.9445C148.679 54.6691 150.328 54.3937 151.976 54.256C157.198 53.4298 161.045 48.7478 160.771 43.515C160.221 33.4626 159.671 23.4101 158.984 13.3576C158.847 11.2921 157.198 9.5019 155.137 9.3642C152.801 9.08879 150.327 8.95108 147.992 8.67567C129.716 6.88551 112.128 6.7478 95.5009 6.7478C78.8743 6.7478 61.2858 6.88551 43.0102 8.53797C40.5369 8.81338 38.2009 8.95108 35.8649 9.22649C33.8038 9.5019 32.1548 11.1544 32.0174 13.2199C31.4678 23.2724 30.9182 33.3249 30.2311 43.3773C29.9563 48.7478 33.6664 53.4298 39.0254 54.1183C40.6743 54.3937 42.3232 54.6691 44.1095 54.8068C55.2397 56.3216 63.8966 56.7347 71.1793 57.0101C77.6376 57.4232 89.4548 57.5609 95.5009 57.5609Z" fill="#95A2A6" stroke="#416388" stroke-width="0.5571" stroke-linejoin="round"/>
<path d="M155.273 9.22607V2.34082" stroke="#416388" stroke-width="0.7598" stroke-linejoin="round"/>
<path d="M165.029 9.36353C166.266 28.0914 167.503 46.6816 168.739 65.4094C171.213 63.4816 173.686 61.5537 176.16 59.6258C175.198 51.6389 173.824 42.8258 171.762 33.4619C169.701 24.7865 167.503 16.6619 165.029 9.36353Z" stroke="#416388" stroke-width="0.7598" stroke-linejoin="round"/>
<path d="M145.243 81.7969C128.616 82.21 111.989 83.1739 95.3629 83.1739C78.8736 83.1739 62.3844 82.3477 45.7578 81.7969" stroke="#416388" stroke-width="0.7598" stroke-linejoin="round"/>
<path d="M154.311 74.9114C157.884 71.8819 161.456 68.7147 165.166 65.6852C165.304 65.1343 166.266 61.1409 163.792 57.5606C161.181 54.1179 156.784 53.9802 155.548 53.8425C154.448 53.8425 153.486 53.8425 152.937 53.9802L144.143 81.5212" stroke="#416388" stroke-width="0.7631" stroke-linejoin="round"/>
<path d="M95.5 96.531C103.882 96.531 112.401 96.6687 121.196 97.0818C121.745 97.0818 122.158 97.0818 122.707 97.2195C126.417 97.3572 130.127 98.7343 133.013 101.213C133.975 102.039 134.799 102.728 135.761 103.692C137.135 105.069 138.509 106.446 139.609 107.685C140.158 108.236 140.571 108.787 141.12 109.475C142.082 110.715 142.219 112.367 141.395 113.744C140.845 114.846 140.158 115.81 139.609 116.911C139.334 117.462 138.922 118.013 138.647 118.564C137.273 120.905 134.799 122.42 132.188 122.695C129.853 122.97 127.379 123.108 124.906 123.383C114.6 123.934 104.844 124.072 95.5 123.934" fill="#95A2A6"/>
<path d="M95.5 96.531C103.882 96.531 112.401 96.6687 121.196 97.0818C121.745 97.0818 122.158 97.0818 122.707 97.2195C126.417 97.3572 130.127 98.7343 133.013 101.213C133.975 102.039 134.799 102.728 135.761 103.692C137.135 105.069 138.509 106.446 139.609 107.685C140.158 108.236 140.571 108.787 141.12 109.475C142.082 110.715 142.219 112.367 141.395 113.744C140.845 114.846 140.158 115.81 139.609 116.911C139.334 117.462 138.922 118.013 138.647 118.564C137.273 120.905 134.799 122.42 132.188 122.695C129.853 122.97 127.379 123.108 124.906 123.383C114.6 123.934 104.844 124.072 95.5 123.934" stroke="#416388" stroke-width="0.5781" stroke-linejoin="round"/>
<path d="M167.366 116.774C167.091 118.977 166.679 121.456 166.404 123.797C165.992 126.964 163.793 129.718 161.457 129.993L144.418 131.646C141.533 131.921 141.121 126.826 143.869 124.485C146.067 122.557 148.541 120.767 151.289 118.977C156.098 115.81 160.495 113.882 164.068 112.643C166.129 111.816 167.778 113.882 167.366 116.774Z" fill="#95A2A6" stroke="#416388" stroke-width="0.7201" stroke-linejoin="round"/>
<path d="M163.93 122.832C163.93 120.216 161.869 118.15 159.258 118.15C156.647 118.15 154.586 120.216 154.586 122.832C154.586 125.449 156.647 127.514 159.258 127.514C161.869 127.514 163.93 125.449 163.93 122.832Z" fill="white" stroke="#416388" stroke-width="0.7439" stroke-linejoin="round"/>
<path d="M139.609 107.685L165.03 103.141C166.542 96.9443 167.916 89.646 168.466 81.5214C168.74 78.0788 168.74 74.7738 168.603 71.7443C169.977 70.9181 171.626 69.9542 173.275 68.5771C174.649 67.4755 175.748 66.3738 176.573 65.4099" stroke="#416388" stroke-width="0.7598" stroke-linejoin="round"/>
<path d="M165.029 103.141C165.167 103.692 165.304 104.518 165.716 105.207C166.403 106.721 168.052 107.685 169.701 107.548C170.526 107.548 171.35 107.41 172.312 107.41C173.961 107.272 175.335 106.997 176.572 106.584" stroke="#416388" stroke-width="0.7598" stroke-linejoin="round"/>
<path d="M125.044 128.066C122.021 128.203 118.86 128.341 115.7 128.341C108.829 128.479 102.096 128.754 95.5005 128.754C88.9048 128.754 82.1717 128.616 75.3012 128.341C72.1408 128.203 68.9804 128.203 65.9573 128.066L60.4609 133.987C64.3084 134.262 68.2933 134.4 72.2782 134.538C80.248 134.813 87.943 134.813 95.3631 134.813C102.783 134.813 110.616 134.813 118.448 134.538C122.433 134.4 126.418 134.262 130.265 133.987L125.044 128.066Z" fill="#95A2A6" stroke="#416388" stroke-width="0.5781" stroke-linejoin="round"/>
<path d="M182.068 37.7313L185.229 37.5936C187.565 37.4559 189.489 39.2461 189.626 41.5871L190.45 55.9084C190.588 58.6625 188.664 61.1412 186.053 61.5543L182.481 62.1051C179.732 62.5182 177.396 60.4526 177.396 57.5608V42.4133C177.534 39.9346 179.595 37.869 182.068 37.7313Z" fill="#95A2A6" stroke="#416388" stroke-width="0.8233" stroke-linejoin="round"/>
<path d="M166.403 30.0193C165.991 23.134 165.442 16.2488 165.029 9.36353C167.365 16.6619 169.701 24.7865 171.625 33.5996C173.686 42.9635 175.06 51.7766 176.022 59.7635C174.923 60.5898 173.961 61.416 172.862 62.2422L166.403 30.0193Z" fill="#95A2A6" stroke="#416388" stroke-width="0.5571" stroke-linejoin="round"/>
<path d="M184.955 52.7406L185.092 53.2915C185.642 54.8062 184.818 56.4587 183.306 57.1472L169.84 62.38V53.98L181.245 50.8128C182.756 50.2619 184.405 51.0882 184.955 52.7406Z" fill="#C7D8DC" stroke="#416388" stroke-width="0.7004" stroke-miterlimit="10"/>
<path d="M177.533 87.3052C177.258 87.9937 176.709 88.9576 176.296 90.3347C174.51 95.0166 174.098 99.1478 173.686 103.141C173.548 104.243 173.411 105.895 173.273 107.823" stroke="#416388" stroke-width="0.5571" stroke-linejoin="round"/>
<path d="M141.121 109.338C140.709 108.787 140.159 108.236 139.609 107.547C133.838 108.924 129.029 109.613 125.594 110.026C119.548 110.715 114.738 110.852 107.73 111.128C102.646 111.265 98.3864 111.265 95.5008 111.265C92.6152 111.265 88.3554 111.265 83.2713 111.128C76.2634 110.99 71.5914 110.852 65.408 110.026C61.9727 109.613 57.1634 108.924 51.3921 107.547C50.8425 108.098 50.4303 108.649 49.8806 109.338C48.9188 110.577 48.7813 112.229 49.6058 113.606C50.1554 114.708 50.8425 115.672 51.3921 116.774C53.0411 117.462 55.7893 118.288 59.0871 118.839C62.7972 119.528 65.6828 119.665 67.3317 119.803C79.4238 120.354 88.4929 120.767 95.5008 120.767C102.509 120.767 111.578 120.354 123.67 119.803C125.319 119.665 128.204 119.528 131.914 118.839C135.212 118.151 137.823 117.324 139.609 116.774C140.159 115.672 140.846 114.708 141.396 113.606C142.22 112.229 142.083 110.577 141.121 109.338Z" fill="#C7D8DC" stroke="#416388" stroke-width="0.7844" stroke-linejoin="round"/>
</g>
<defs>
<clipPath id="clip0_1135_73656">
<rect width="191" height="168" fill="white"/>
</clipPath>
</defs>
</svg>
