<svg fill="none" height="18" viewBox="0 0 158 18" width="158" xmlns="http://www.w3.org/2000/svg"><path d="m58.964 14.18v3.82h16.876v-3.82zm76.391-11.02v11.695l2.99 3.092.052.052h7.8v-3.82h-4.667l-1.628-1.684v-6.987l1.507-1.688h4.788v-3.82h-8.025zm-27.689 0v11.695l2.988 3.092.05.052h7.803v-3.82h-4.668l-1.628-1.684v-6.987l1.507-1.688h4.789v-3.82h-8.024zm19.83-3.16h-8.029v3.82h4.788l1.487 1.672v7.008l-1.623 1.68h-4.652v3.82h7.81l2.976-3.08.054-.054v-11.716l-2.756-3.09-.055-.058zm27.693 0h-8.031v3.82h4.788l1.487 1.672v7.008l-1.624 1.68h-4.651v3.82h7.81l2.976-3.08.054-.054v-11.716l-2.757-3.09-.052-.058zm-74.49 3.106-.048.055v11.694l3.039 3.145h1.5v-17.999h-1.723l-2.77 3.105zm5.455 14.894h16.879v-3.82h-16.879zm-28.92-18h-3.774v18h4.541v-17.999h-.767zm-41.614 0v18h4.216l3.032-3.134v-14.865h-7.247zm-12.363 18h11.401v-3.82h-14.658zm71.392-7.09v-3.82h-15.685v3.82zm11.505-7.09h16.879v-3.82h-16.879zm-27.19-3.82v3.82h16.876v-3.82zm-28.967 0h4.79l-.771 3.82h-.004l-2.863 14.18h-4.787l3.636-17.999zm10.823 0h4.549l3.635 18h-4.797l-2.863-14.18h-6.294l.77-3.82z" fill="#00657b"/></svg>