<svg viewBox="0 0 283.46 232.36" xmlns="http://www.w3.org/2000/svg" xmlns:xlink="http://www.w3.org/1999/xlink"><linearGradient id="a" gradientUnits="userSpaceOnUse" x1="138.91" x2="138.91" y1="142.88" y2="52.23"><stop offset="0" stop-color="#d1d3d4"/><stop offset=".16" stop-color="#f1f2f2"/><stop offset=".16" stop-color="#f0f1f1"/><stop offset=".26" stop-color="#e8e9ea"/><stop offset=".44" stop-color="#e6e7e8"/><stop offset=".56" stop-color="#cecfd0"/><stop offset=".81" stop-color="#939496"/><stop offset="1" stop-color="#636466"/></linearGradient><linearGradient id="b" gradientUnits="userSpaceOnUse" x1="155.27" x2="124.5" y1="64.79" y2="38.98"><stop offset="0" stop-color="#e6e7e8"/><stop offset=".44" stop-color="#e6e7e8"/><stop offset=".56" stop-color="#cecfd0"/><stop offset=".81" stop-color="#939496"/><stop offset="1" stop-color="#636466"/></linearGradient><linearGradient id="c" x1="158.23" x2="113.74" xlink:href="#b" y1="107.2" y2="81.51"/><linearGradient id="d" x1="138.91" x2="138.91" xlink:href="#b" y1="73.8" y2="24.68"/><linearGradient id="e" gradientUnits="userSpaceOnUse" x1="138.91" x2="138.91" y1=".62" y2="159.74"><stop offset="0" stop-color="#c7c8ca"/><stop offset=".04" stop-color="#d3d4d6"/><stop offset=".12" stop-color="#e6e7e8"/><stop offset=".12" stop-color="#e8e9ea"/><stop offset=".15" stop-color="#eff0f0"/><stop offset=".21" stop-color="#f1f2f2"/><stop offset=".55" stop-color="#f1f2f2"/><stop offset=".61" stop-color="#cccdce"/><stop offset=".69" stop-color="#a6a7a9"/><stop offset=".77" stop-color="#898a8b"/><stop offset=".85" stop-color="#747576"/><stop offset=".93" stop-color="#67686a"/><stop offset="1" stop-color="#636466"/></linearGradient><linearGradient id="f" x1="138.91" x2="138.91" xlink:href="#e" y1=".62" y2="159.73"/><linearGradient id="g" x1="138.91" x2="138.91" xlink:href="#e" y1=".63" y2="159.75"/><linearGradient id="h" gradientUnits="userSpaceOnUse" x1="138.91" x2="138.91" y1="33.62" y2="78.97"><stop offset="0" stop-color="#e6e7e8"/><stop offset="1" stop-color="#6d6e71"/></linearGradient><linearGradient id="i" x1="154.62" x2="154.62" xlink:href="#b" y1=".62" y2="78.52"/><linearGradient id="j" x1="123.2" x2="123.2" xlink:href="#b" y1=".62" y2="78.52"/><linearGradient id="k" x1="122.27" x2="122.27" xlink:href="#b" y1=".62" y2="129.45"/><linearGradient id="l" x1="155.56" x2="155.56" xlink:href="#b" y1=".62" y2="129.45"/><path d="m141.4 207.13c-.04-13.95 11.19-25.2 25.23-25.22 13.71.03 24.96 11.27 25.23 25.22-.27 13.79-11.52 25.04-25.23 25.23-14.04-.19-25.27-11.44-25.23-25.23zm25.23 15.93c7.58-.12 13.86-7.24 13.94-15.93-.08-8.87-6.36-15.99-13.94-15.94-7.9-.05-14.19 7.07-13.94 15.94-.24 8.7 6.04 15.82 13.94 15.93" fill="#ed1a3b"/><path d="m220.4 192.53v38.5h-10.62v-38.5h-15.27v-8.63h40.5v8.63z" fill="#ed1a3b"/><path d="m247.61 220.41-3.97 10.63h-12.61l19.91-47.13h13.27l19.25 47.13h-12.61l-3.98-10.63zm9.97-7.96h6.63l-6.63-17.26-6.64 17.26z" fill="#ed1a3b"/><path d="m25.22 192.53v38.5h-10.62v-38.5h-14.6v-8.63h39.83v8.63z" fill="#ed1a3b"/><path d="m42.48 207.13c.02-13.95 11.26-25.2 25.22-25.22 13.78.03 25.03 11.27 25.23 25.22-.2 13.79-11.45 25.04-25.23 25.23-13.96-.19-25.2-11.44-25.22-25.23zm25.22 15.93c7.66-.12 13.94-7.24 13.94-15.93 0-8.87-6.28-15.99-13.94-15.94-7.83-.05-14.11 7.07-13.93 15.94-.18 8.7 6.1 15.82 13.93 15.93" fill="#ed1a3b"/><path d="m116.84 231.03h5.3v-17.93l18.59-29.2h-11.94l-11.95 19.91-11.29-19.91h-12.62l18.6 29.2v17.93z" fill="#ed1a3b"/><g fill="#231f20"><path d="m9.94 80.19c0 44.21 57.86 80.18 128.98 80.18s128.97-35.97 128.97-80.18-57.86-80.19-128.98-80.19-128.97 35.97-128.97 80.19zm1.25 0c0-43.53 57.29-78.94 127.72-78.94s127.72 35.41 127.72 78.94-57.3 78.93-127.72 78.93-127.72-35.41-127.72-78.93z"/><path d="m126.68 14.82c-29.5 1.8-51.7 9.72-55.23 19.7-.34.97-.51 1.93-.51 2.89 0 1.55.45 3.09 1.34 4.61 4.02 6.85 16.82 12.57 35.12 15.69l.62.11.1-.62c3.13-19.05 10.05-34.09 19-41.25l1.54-1.23-1.97.12zm-53.33 26.56c-.77-1.31-1.16-2.65-1.16-3.99 0-.82.14-1.64.44-2.46 3.25-9.16 24.68-16.78 52.38-18.73-8.42 7.64-14.93 22.06-18 40.15-17.35-3.03-29.92-8.6-33.66-14.97z"/><path d="m122.37 58.85-.12.68.69.05c5.2.4 10.57.6 15.97.6s10.77-.2 15.98-.6l.69-.05-.12-.68c-2.84-15.95-9.18-25.85-16.54-25.85s-13.7 9.9-16.54 25.85zm16.54-24.6c6.61 0 12.38 9.24 15.16 24.13-4.95.36-10.04.55-15.16.55s-10.21-.2-15.16-.55c2.78-14.88 8.55-24.13 15.16-24.13z"/><path d="m150.71 15.93c8.94 7.17 15.87 22.2 18.99 41.25l.1.62.62-.11c18.3-3.11 31.11-8.83 35.12-15.69 1.44-2.45 1.72-4.98.82-7.5-3.54-9.97-25.73-17.89-55.23-19.7l-1.97-.12 1.54 1.23zm2.11.27c27.7 1.96 49.12 9.57 52.37 18.73.29.82.44 1.64.44 2.46 0 1.34-.39 2.67-1.16 3.98-3.73 6.37-16.3 11.94-33.66 14.97-3.07-18.09-9.57-32.51-18-40.15z"/><path d="m51.73 42.96c-13.39 11.21-20.46 24.49-20.46 38.4 0 33 40.57 60.91 94.37 64.93l1.9.14-1.45-1.24c-12.23-10.47-19.84-35.12-19.84-64.32l.11-5.69-.52-.1c-29.68-5.33-50.02-17.51-53.09-31.78l-.22-1.01-.79.67zm-19.21 38.4c0-13.27 6.69-25.96 19.3-36.79 3.86 14.25 24.06 26.29 53.27 31.64-.02.86-.09 4.67-.09 4.67 0 28.46 7.22 52.67 18.93 63.98-52.23-4.45-91.41-31.53-91.41-63.5z"/><path d="m120.76 77.76v.72c0 25.58 7.97 45.62 18.15 45.62s18.16-20.04 18.16-45.62l-.02-1.4-.67.06c-5.7.5-11.57.75-17.47.75s-11.78-.25-17.47-.75l-.67-.06v.68zm1.23.72v-.05c5.52.46 11.2.71 16.91.71s11.38-.25 16.91-.71v.05c0 24.88-7.43 44.37-16.91 44.37s-16.91-19.49-16.91-44.37z"/><path d="m225.08 43.31c-3.07 14.27-23.41 26.45-53.09 31.78l-.52.09.1 5.7c0 29.2-7.6 53.84-19.84 64.32l-1.45 1.24 1.9-.14c53.8-4.02 94.37-31.93 94.37-64.93 0-13.91-7.08-27.19-20.47-38.4l-.79-.67-.22 1.01zm.93 1.27c12.61 10.83 19.3 23.52 19.3 36.79 0 31.96-39.18 59.04-91.41 63.5 11.7-11.31 18.92-35.52 18.92-63.98 0 0-.07-3.81-.08-4.67 29.21-5.35 49.41-17.39 53.27-31.64z"/></g><path d="m225.14 32.71c.18.52.35 1.04.48 1.56.76 2.99.6 5.94-.37 8.8 13 10.73 20.68 23.97 20.68 38.29 0 35.79-47.92 64.8-107.02 64.8s-107.02-29.01-107.02-64.8c0-14.32 7.68-27.56 20.68-38.29-.97-2.86-1.13-5.81-.37-8.8.14-.54.36-1.09.62-1.65-17.74 12.64-28.51 29.21-28.51 47.36 0 39.63 51.31 71.76 114.61 71.76s114.61-32.13 114.61-71.76c0-18.11-10.71-34.64-28.38-47.27z" fill="url(#a)"/><path d="m122.98 58.96-3.31 2.39c2.72-20.55 10.3-33.71 19.24-33.71s16.52 13.16 19.24 33.71l-3.31-2.39c-2.78-15.59-8.86-25.34-15.93-25.34s-13.15 9.75-15.93 25.34z" fill="url(#b)"/><path d="m159.13 72.92-2.69 4.85v.71c0 25.6-7.86 45-17.54 45s-17.53-19.39-17.53-45c0-.28 0-.56 0-.84l-2.69-4.73c-.07 1.81-.11 3.67-.11 5.56 0 29.01 9.1 50.98 20.32 50.98s20.32-21.97 20.32-50.98c0-1.89-.04-3.74-.11-5.55z" fill="url(#c)"/><path d="m154.83 58.95c-5.05.38-10.37.59-15.92.59s-10.87-.21-15.92-.59-3.3 2.39-3.3 2.39c6.09.54 12.52.84 19.24.84s13.14-.3 19.23-.84l-3.31-2.39zm58.54-25.14c-4.02-13.29-37.19-23.06-74.46-23.06s-70.44 9.77-74.46 23.06c-3.49 11.54 15.57 22.21 45.65 26.45l-2.61-3.17c-24.33-4.14-38.79-12.97-35.45-22.36 4.04-11.39 33.41-19.65 66.87-19.65s62.84 8.27 66.88 19.65c3.33 9.39-11.12 18.22-35.46 22.36s-2.61 3.18-2.61 3.18c30.07-4.23 49.14-14.91 45.65-26.45z" fill="url(#d)"/><path d="m225.26 43.07c4.97 4.1 9.16 8.58 12.44 13.34-1.16-7.74-4.25-14.85-8.75-20.82-1.23-.98-2.5-1.93-3.8-2.87.18.52.35 1.04.48 1.56.76 2.99.6 5.94-.37 8.8z" fill="#414042"/><path d="m52.57 43.07c-.97-2.86-1.13-5.81-.37-8.8.14-.54.36-1.09.62-1.65-1.36.96-2.66 1.95-3.93 2.96-4.5 5.98-7.59 13.09-8.75 20.82 3.29-4.76 7.47-9.24 12.45-13.34z" fill="#414042"/><path d="m10.56 80.19c0-43.95 57.47-79.57 128.35-79.57s128.35 35.62 128.35 79.56-57.46 79.56-128.35 79.56-128.35-35.62-128.35-79.55zm128.35 71.56c63.29 0 114.61-32.13 114.61-71.76s-51.31-71.77-114.61-71.77-114.61 32.13-114.61 71.76 51.31 71.76 114.61 71.76z" fill="url(#e)"/><path d="m23.55 79.98c0 39.98 51.75 72.51 115.36 72.51s115.36-32.53 115.36-72.51-51.75-72.51-115.36-72.51-115.36 32.53-115.36 72.51zm1.5 0c0-39.16 51.08-71.01 113.86-71.01s113.86 31.86 113.86 71.01-51.07 71.01-113.86 71.01-113.86-31.85-113.86-71.01z" fill="#fff"/><path d="m108.76 80.88c0-38.32 13.5-70.12 30.15-70.12s30.15 31.8 30.15 70.12-13.5 70.12-30.15 70.12-30.15-31.39-30.15-70.12zm30.15 48.57c11.22 0 20.32-21.97 20.32-50.98s-9.1-50.83-20.32-50.83-20.32 20.73-20.32 50.83 9.1 50.98 20.32 50.98z" fill="url(#f)"/><path d="m52.19 34.27c3.31-13.1 43.32-32.16 86.72-32.16s82.03 13.62 86.71 32.17c5.25 20.78-33.31 39.58-86.71 39.58s-91.97-18.8-86.72-39.59zm86.72-23.51c-37.27 0-70.44 9.77-74.46 23.06-4.51 14.9 28.59 28.37 74.46 28.37s78.97-13.47 74.46-28.37c-4.02-13.29-37.19-23.06-74.46-23.06z" fill="url(#g)"/><path d="m118.67 72.9h.03s2.75 4.86 2.75 4.86c5.61.49 11.43.76 17.46.76s11.9-.27 17.53-.76l2.68-4.85h.01c-6.45.6-13.2.94-20.23.94s-13.79-.34-20.24-.95zm107.41-34.15c-.7 14.87-23.53 28.03-57.3 32.99h.02s3.3 3.94 3.3 3.94c33.03-5.94 54.76-20.51 53.98-36.93zm-174.34 0c-.79 16.42 20.95 30.99 53.98 36.93l3.3-3.94c-33.77-4.97-56.59-18.13-57.29-32.99z" fill="url(#h)"/><path d="m167.72 60.27 2.61-3.17c-4.55-27.71-16.91-46.34-31.41-46.34 13.54 0 25 21.04 28.8 49.51z" fill="url(#i)"/><path d="m110.11 60.27c3.8-28.47 15.26-49.51 28.8-49.51-14.51 0-26.87 18.63-31.42 46.34l2.61 3.17z" fill="url(#j)"/><path d="m108.76 80.88c0-3.09.09-6.13.27-9.12l-3.3 3.93c-.06 1.71-.09 3.44-.09 5.19 0 41 14.62 70.12 33.29 70.12-16.65 0-30.15-31.39-30.15-70.12z" fill="url(#k)"/><path d="m172.1 75.69-3.3-3.93h-.01c.17 2.99.27 6.04.27 9.12 0 38.73-13.5 70.12-30.15 70.12 18.66 0 33.29-29.11 33.29-70.12 0-1.75-.04-3.48-.09-5.19z" fill="url(#l)"/></svg>