<svg width="175" height="22" viewBox="0 0 175 22" fill="none" xmlns="http://www.w3.org/2000/svg">
<path d="M0 21.4694C0.731649 20.2771 1.23173 18.9702 1.83159 17.7126C4.23839 12.6539 6.58854 7.56807 9.07417 2.5463C9.37472 1.93906 9.66664 1.32688 9.93639 0.706092C10.1002 0.316864 10.3576 0.151812 10.7887 0.160434C13.2313 0.176447 15.6738 0.167825 18.1176 0.17891C18.7186 0.17891 18.7716 0.272522 18.5179 0.834192C17.3884 3.34077 16.2478 5.84365 15.1183 8.34776C15.037 8.52759 14.8978 8.6988 14.952 8.96363C15.7378 8.85893 16.5212 8.73822 17.3083 8.65323C19.5953 8.42237 21.895 8.34214 24.1925 8.41304C24.7812 8.42536 25.0682 8.20488 25.301 7.68878C26.3825 5.3411 27.5108 3.01436 28.5996 0.667908C28.7733 0.298388 28.9975 0.148117 29.399 0.15058C31.8415 0.164129 34.284 0.159203 36.7266 0.169056C37.3991 0.169056 37.457 0.257741 37.1737 0.887157C35.8816 3.7497 34.5871 6.61102 33.2777 9.46371C31.4929 13.3412 29.6823 17.2064 27.9012 21.0851C27.6918 21.5409 27.427 21.7281 26.9158 21.7244C24.4117 21.701 21.9064 21.7121 19.4023 21.7047C18.6817 21.7047 18.6435 21.6271 18.9514 20.9656C20.2152 18.2501 21.4773 15.5329 22.7378 12.814C22.8031 12.6724 22.925 12.5369 22.861 12.3312C20.7941 12.3423 18.7371 12.4728 16.7023 12.9163C13.8804 13.5321 11.9922 15.2763 10.7038 17.7804C10.1289 18.8947 9.60628 20.032 9.13576 21.1923C8.99781 21.531 8.81305 21.7231 8.41273 21.7207C5.78545 21.7047 3.15816 21.7084 0.529645 21.6973C0.350037 21.6802 0.172599 21.6451 0 21.5926V21.4694Z" fill="black"/>
<path d="M58.2607 0.0371094C58.4664 0.246504 58.7349 0.251431 58.9997 0.27237C61.4262 0.458362 63.8035 0.875919 66.0427 1.87362C67.0589 2.32813 68.0049 2.91321 68.7612 3.74586C69.7737 4.85442 70.1826 6.18961 70.206 7.69356C70.2516 10.7064 69.5372 13.4716 67.6563 15.8661C66.0551 17.9095 63.9242 19.2374 61.5247 20.1451C58.948 21.1207 56.2603 21.489 53.5185 21.6405C50.1778 21.8447 46.8248 21.6195 43.5414 20.9704C41.4475 20.5467 39.4644 19.8421 37.7942 18.4503C36.3666 17.2592 35.7002 15.653 35.6091 13.8571C35.4095 9.9932 37.028 6.87569 39.8684 4.38266C42.7088 1.88964 46.1503 0.750283 49.8455 0.256358C50.7631 0.138111 51.6931 0.283456 52.5947 0.0371094H58.2607ZM50.6325 19.262C54.3942 19.1462 57.3504 17.6287 59.2337 14.2735C60.3486 12.2744 60.9726 10.039 61.0542 7.75145C61.1675 5.11308 59.7498 3.23592 57.3098 2.68041C54.8697 2.1249 52.5122 2.44884 50.3615 3.72492C46.9213 5.7659 45.2215 8.97087 44.5946 12.8126C44.2756 14.7699 44.6919 16.5448 46.2611 17.8861C47.5089 18.9541 49.0227 19.2805 50.6325 19.262Z" fill="black"/>
<path d="M88.7373 12.4447C87.7667 13.7996 86.8109 15.1348 85.8649 16.4712C84.7564 18.0466 83.638 19.6208 82.5392 21.2085C82.2769 21.5903 81.9628 21.732 81.5083 21.7295C78.9019 21.7159 76.2956 21.7295 73.6892 21.7221C72.9428 21.7221 72.742 21.5398 72.694 20.7885C72.662 20.2773 72.6792 19.7624 72.6792 19.25C72.6792 15.0424 72.6694 10.836 72.6792 6.62845C72.6792 4.72419 72.7482 2.81993 72.7704 0.915675C72.7704 0.496885 72.8935 0.257929 73.3616 0.262856C75.2092 0.286259 77.0445 0.0620838 78.8946 0.241917C79.5203 0.302272 79.6866 0.501812 79.6853 1.09181C79.6693 5.31912 79.6853 9.54766 79.6853 13.7787C79.6853 14.2603 79.5708 14.8416 80.2063 15.0104C80.7865 15.1693 81.0292 14.6544 81.2977 14.2824C84.432 9.93771 87.5614 5.59051 90.6859 1.24085C91.0776 0.69889 91.4853 0.121207 92.297 0.17294C92.9708 0.214819 93.2565 0.455007 93.3847 1.19158C93.9225 4.26188 94.4563 7.33423 94.9859 10.4086C95.2027 11.6625 95.4084 12.9177 95.6313 14.1691C95.6979 14.5485 95.7299 14.9944 96.2078 15.0929C96.6857 15.1915 96.9283 14.833 97.1353 14.5091C98.6454 12.1384 100.144 9.76198 101.632 7.37981C103.018 5.17418 104.399 2.96446 105.775 0.750622C105.995 0.39342 106.267 0.257929 106.684 0.257929C109.084 0.271478 111.487 0.257929 113.887 0.269015C114.55 0.269015 114.591 0.342919 114.224 0.924297C111.925 4.5653 109.618 8.20425 107.303 11.8411C105.579 14.562 103.829 17.2669 102.155 20.0186C101.433 21.2035 100.553 21.7935 99.1085 21.743C96.4443 21.6519 93.7739 21.7049 91.1023 21.7283C90.5394 21.7283 90.3164 21.546 90.2314 20.9806C89.8249 18.2831 89.3778 15.5918 88.9406 12.8992C88.9233 12.7686 88.9529 12.611 88.7373 12.4447Z" fill="black"/>
<path d="M165.857 12.6175C167.088 13.4662 168.299 14.3419 169.458 15.2842C171.083 16.6083 172.661 17.9829 173.919 19.6778C174.317 20.2014 174.654 20.7683 174.923 21.3677C175.074 21.7065 175.022 21.9454 174.601 21.9429C172.221 21.9282 169.841 22.0205 167.457 21.9035C166.964 21.8789 166.637 21.6658 166.333 21.2803C164.486 18.9338 162.479 16.745 159.962 15.0847C158.568 14.1765 157.087 13.4098 155.541 12.7961C155.08 12.6089 154.622 12.4648 154.107 12.5756C153.862 12.6153 153.613 12.6153 153.368 12.5756C151.98 12.4106 152.136 12.2911 151.502 13.7408C150.409 16.2191 149.353 18.7146 148.309 21.2138C148.115 21.6818 147.866 21.8703 147.352 21.8629C144.95 21.8309 142.549 21.837 140.148 21.8235C139.462 21.8235 139.42 21.7557 139.707 21.1177C141.966 16.1037 144.227 11.0906 146.49 6.07823C147.24 4.41293 147.993 2.75255 148.707 1.06508C148.946 0.496017 149.253 0.261988 149.897 0.266915C153.346 0.290318 156.795 0.346977 160.244 0.228731C162.402 0.153595 164.555 0.269378 166.7 0.284159C168.964 0.301403 171.085 0.922197 172.928 2.28942C174.179 3.21938 174.906 4.45481 174.92 6.05852C174.932 7.41343 174.96 8.76833 174.442 10.0653C173.703 11.9056 172.928 12.4426 170.945 12.4586C169.264 12.4734 167.583 12.4586 165.902 12.4586L165.857 12.6175ZM160.747 4.22447V4.23063C159.146 4.23063 157.545 4.23802 155.944 4.23063C155.551 4.23063 155.29 4.33533 155.132 4.72332C154.713 5.7703 154.276 6.80988 153.82 7.84207C153.617 8.30397 153.773 8.4062 154.223 8.41113C155.862 8.42714 157.501 8.42838 159.14 8.49612C161.33 8.58481 163.527 8.52322 165.721 8.53307C166.214 8.53105 166.703 8.4362 167.161 8.25347C167.326 8.19576 167.478 8.10495 167.608 7.98657C167.737 7.86819 167.84 7.72472 167.912 7.56493C168.528 6.19032 167.838 4.75535 166.387 4.37105C166.01 4.27129 165.622 4.22159 165.232 4.22324C163.742 4.22447 162.245 4.22447 160.747 4.22447Z" fill="black"/>
<path d="M128.084 21.7151C125.498 21.7151 122.911 21.7878 120.324 21.6967C116.98 21.5735 113.637 21.6585 110.293 21.6302C109.801 21.6302 109.308 21.6954 108.815 21.7102C107.985 21.7349 107.927 21.6437 108.239 20.8973C109.525 17.8093 110.783 14.7103 112.105 11.6383C113.125 9.26479 114.096 6.86538 115.321 4.58421C116.931 1.58987 119.555 0.194314 122.835 0.189387C128.455 0.180765 134.077 0.279303 139.698 0.321182C141.13 0.331036 142.567 0.372915 144.002 0.401245C144.179 0.401245 144.418 0.319951 144.519 0.48993C144.634 0.680848 144.406 0.821266 144.299 0.951829C143.571 1.83868 142.821 2.71074 142.09 3.59513C141.98 3.72892 141.841 3.83552 141.683 3.90665C141.525 3.97778 141.352 4.01154 141.179 4.00529C137.632 4.11985 134.084 3.85625 130.539 4.00529C129.025 4.07058 127.507 4.03362 125.994 4.19621C124.632 4.34279 123.607 4.98452 122.853 6.11156C122.333 6.88755 121.984 7.73621 121.681 8.61197C121.537 9.02584 121.697 9.06525 122.05 8.99381C125.455 8.31143 128.895 8.40135 132.34 8.50112C134.76 8.56763 137.183 8.52452 139.607 8.543C139.877 8.543 140.269 8.39026 140.389 8.69696C140.489 8.94331 140.122 9.11575 139.95 9.31283C139.221 10.1196 138.472 10.9042 137.756 11.7246C137.618 11.9005 137.441 12.041 137.238 12.1344C137.035 12.2278 136.813 12.2714 136.59 12.2616C133.675 12.2394 130.76 12.2234 127.844 12.248C125.43 12.2678 123.109 12.7407 120.993 13.954C119.813 14.6373 118.848 15.638 118.208 16.8424C118.008 17.2119 118.03 17.3844 118.506 17.4287C120.248 17.5876 121.992 17.5026 123.735 17.5248C125.541 17.5482 127.349 17.4804 129.155 17.5494C132.026 17.6603 134.896 17.4768 137.766 17.5494C138.36 17.5642 138.952 17.5962 139.546 17.6147C139.669 17.6147 139.813 17.5642 139.889 17.6788C139.996 17.8389 139.839 17.9473 139.753 18.0483C138.986 18.9314 138.165 19.7727 137.459 20.7002C136.82 21.5402 136.054 21.7792 135.029 21.7496C132.712 21.6819 130.391 21.7287 128.072 21.7287L128.084 21.7151Z" fill="black"/>
</svg>
