<svg width="76" height="50" viewBox="0 0 76 50" fill="none" xmlns="http://www.w3.org/2000/svg">
<g id="Frame" clip-path="url(#clip0_748_44785)">
<g id="ctd1aw.tif_1_">
<g id="Group">
<path id="Vector" d="M0.0128174 0.552389C0.306945 0.53934 0.601072 0.500192 0.8952 0.500192C4.16897 0.500192 7.44274 0.500192 10.7293 0.500192C11.3303 0.500192 11.9058 0.578488 12.4941 0.72203C20.6401 2.84906 28.799 4.96304 36.9578 7.10312C37.5588 7.25971 38.1087 7.27276 38.7098 7.11617C46.907 4.96304 55.1042 2.83601 63.3014 0.695931C63.8257 0.565438 64.3372 0.487143 64.8743 0.500192C68.1481 0.513241 71.4219 0.500192 74.7084 0.500192C74.9514 0.500192 75.2072 0.500192 75.4501 0.500192C75.4757 0.578488 75.5013 0.643734 75.5269 0.72203C68.877 4.41497 62.24 8.12096 55.5518 11.84C55.7308 12.0357 55.9482 12.0488 56.14 12.101C57.5851 12.4794 59.0174 12.8578 60.4624 13.2363C60.6415 13.2885 60.8972 13.2624 60.9356 13.4973C60.9739 13.68 60.7565 13.7713 60.6159 13.8626C53.1732 19.4347 45.7305 25.0067 38.3005 30.5918C37.9041 30.8919 37.6484 30.8006 37.3031 30.5396C30.487 25.4243 23.6581 20.322 16.842 15.2067C16.2282 14.75 15.6016 14.2802 14.9877 13.8235C14.8727 13.7321 14.6808 13.6539 14.7064 13.4973C14.732 13.2885 14.9494 13.3015 15.1156 13.2493C16.6374 12.8448 18.1592 12.4533 19.681 12.0488C19.7961 12.0227 19.9368 12.0096 20.0391 11.8009C19.0416 11.2397 18.0441 10.6786 17.0466 10.1175C11.4838 7.03787 5.92094 3.9452 0.358098 0.839473C0.243004 0.787276 0.127911 0.735079 0.0128174 0.682882C0.0128174 0.643734 0.0128174 0.604586 0.0128174 0.552389ZM8.03099 2.36624C8.52973 2.57503 8.9901 2.78381 9.45048 2.97955C16.4967 5.90259 23.5558 8.82562 30.6021 11.7487C30.7939 11.827 31.1392 11.84 31.1264 12.114C31.1136 12.3359 30.7939 12.3359 30.5893 12.3881C28.8629 12.9361 27.1365 13.4712 25.4101 14.0323C25.2438 14.0845 25.0264 14.0584 24.8986 14.3324C25.0904 14.4499 25.2822 14.5804 25.4868 14.6847C29.3361 16.8248 33.1853 18.9519 37.0089 21.118C37.5844 21.4443 38.0192 21.4573 38.5947 21.1311C41.8045 19.3042 45.0399 17.5164 48.2753 15.7156C49.1065 15.2459 49.9378 14.7761 50.8969 14.2411C48.6462 13.5234 46.5489 12.8578 44.4644 12.1793C44.4772 12.101 44.4772 12.0227 44.49 11.9574C52.1885 8.78648 59.8742 5.58941 67.5726 2.40539C66.2043 2.28794 64.8488 2.30099 63.506 2.28794C62.9433 2.27489 62.4062 2.37929 61.8819 2.54893C54.0939 4.98914 46.3059 7.4424 38.5307 9.89566C38.0576 10.0392 37.6356 10.0523 37.1624 9.90871C30.5893 7.82083 23.9906 5.78515 17.4303 3.64507C14.3867 2.65332 11.3175 1.96171 8.03099 2.36624Z" fill="black"/>
<path id="Vector_2" d="M0.0127882 39.7261C0.844018 39.7131 1.67525 39.7261 2.49369 39.687C3.03079 39.6609 3.19704 39.8958 3.19704 40.4047C3.18425 42.2969 3.18425 44.1759 3.19704 46.0681C3.19704 46.3291 3.04358 46.7075 3.33771 46.838C3.5679 46.9424 3.77251 46.6292 3.97712 46.4726C6.75215 44.4239 9.52718 42.3751 12.2766 40.3003C12.8521 39.8697 13.4276 39.6348 14.1565 39.6609C15.3202 39.7131 16.4967 39.687 17.6604 39.674C18.1975 39.6609 18.2487 39.8436 17.9674 40.2742C17.1361 41.553 16.3049 42.8449 15.4865 44.1368C15.0133 44.8676 15.0133 44.8676 15.7422 45.4026C17.3663 46.6031 18.9776 47.8036 20.5889 49.0042C20.768 49.1477 20.9982 49.2521 21.0749 49.5C19.5403 49.5 18.0057 49.5 16.4839 49.5C15.2563 48.5996 14.0414 47.6993 12.8137 46.7858C11.5733 45.8593 11.65 46.1464 12.5708 44.9328C13.2613 44.0324 13.9647 43.1451 14.6552 42.2447C14.6297 42.2186 14.6041 42.1925 14.5785 42.1664C11.2919 44.6066 8.00539 47.0468 4.73162 49.487C3.28656 49.487 1.84149 49.4739 0.396433 49.5C0.0767289 49.5 0 49.4218 0 49.0955C0.0127882 45.9767 0.0127882 42.858 0.0127882 39.7261Z" fill="black"/>
<path id="Vector_3" d="M57.9687 49.4871C57.9559 49.2 58.1477 49.0043 58.2756 48.7955C59.1069 47.4906 59.9381 46.1726 60.7949 44.8807C61.0634 44.4762 61.0123 44.2674 60.6286 43.9934C58.9278 42.7667 57.2526 41.501 55.5645 40.2482C55.4111 40.1308 55.0914 40.0394 55.1809 39.8046C55.2576 39.5697 55.5517 39.6871 55.7564 39.6871C56.8561 39.6741 57.9687 39.6871 59.0685 39.6741C59.401 39.6741 59.6823 39.7524 59.9637 39.9481C61.268 40.9268 62.5724 41.8924 63.8896 42.845C64.2733 43.1191 64.3244 43.3409 64.0175 43.7193C63.1607 44.7633 62.3423 45.8464 61.575 46.9947C62.0993 46.6163 62.6364 46.2379 63.1479 45.8464C65.7311 43.9412 68.3143 42.0229 70.8847 40.1047C71.294 39.7915 71.716 39.6349 72.2403 39.648C73.3017 39.6741 74.3631 39.661 75.4245 39.648C75.8338 39.648 75.9872 39.7915 75.9872 40.2221C75.9744 43.3018 75.9616 46.3814 75.9489 49.461C74.8874 49.461 73.826 49.461 72.7518 49.461C72.7518 47.347 72.7518 45.22 72.7518 43.106C72.7518 42.8972 72.8541 42.6232 72.6495 42.5058C72.4321 42.3753 72.2787 42.6363 72.1124 42.7537C69.0944 44.9851 66.0764 47.2296 63.0456 49.461C61.3704 49.4871 59.6695 49.4871 57.9687 49.4871Z" fill="black"/>
<path id="Vector_4" d="M23.6325 49.4869C23.6709 49.1737 23.9138 49.0171 24.1057 48.8214C26.8423 45.9375 29.5918 43.0667 32.3157 40.1828C32.6354 39.8435 32.9551 39.6739 33.4282 39.6869C34.6175 39.713 35.8068 39.713 36.9961 39.6869C37.4309 39.6739 37.7634 39.8044 38.0575 40.1436C40.6919 43.0928 43.3518 46.0289 45.9862 48.9649C46.1269 49.1215 46.2164 49.3173 46.3443 49.5C44.9887 49.5 43.6204 49.5 42.2648 49.5C40.0013 47.125 37.7378 44.75 35.4743 42.3751C35.2186 42.101 35.0268 41.8922 34.6687 42.3098C32.5331 44.7239 30.3719 47.112 28.2235 49.5C26.6889 49.4869 25.1543 49.4869 23.6325 49.4869Z" fill="black"/>
<path id="Vector_5" d="M48.774 49.487C48.774 46.4335 48.7613 43.3799 48.7485 40.3264C48.7485 39.8436 48.9275 39.6609 49.4007 39.687C50.0145 39.7131 50.6283 39.7131 51.2549 39.687C51.7793 39.6609 51.9839 39.8566 51.9711 40.3917C51.9455 41.6444 51.9583 42.9102 51.9711 44.1629C51.9711 45.9376 51.9711 47.7123 51.9839 49.5C50.9097 49.487 49.8355 49.487 48.774 49.487Z" fill="black"/>
</g>
</g>
</g>
<defs>
<clipPath id="clip0_748_44785">
<rect width="76" height="49" fill="white" transform="translate(0 0.5)"/>
</clipPath>
</defs>
</svg>
