<svg width="98" height="34" viewBox="0 0 98 34" fill="none" xmlns="http://www.w3.org/2000/svg">
<path d="M80.9857 0.158203C76.9435 0.158203 73.234 1.57075 70.324 3.9243C67.4134 1.57075 63.7038 0.158203 59.6624 0.158203C55.6202 0.158203 51.9107 1.57075 49.0004 3.92396C46.0901 1.5704 42.3806 0.158203 38.3384 0.158203C34.2966 0.158203 30.5871 1.57075 27.6768 3.92396C24.7661 1.57075 21.0566 0.158203 17.0144 0.158203C7.66855 0.158203 0.0925293 7.69831 0.0925293 16.9999C0.0925293 26.3015 7.66855 33.8416 17.0144 33.8416C21.0566 33.8416 24.7661 32.429 27.6764 30.0755C30.5867 32.429 34.2963 33.8416 38.3381 33.8416C42.3802 33.8416 46.0897 32.429 49 30.0755C51.9107 32.429 55.6202 33.8416 59.662 33.8416C63.7038 33.8416 67.4134 32.429 70.3237 30.0755C73.234 32.429 76.9435 33.8416 80.9853 33.8416C90.3312 33.8416 97.9072 26.3015 97.9072 16.9999C97.9072 7.69831 90.3315 0.158203 80.9857 0.158203ZM70.3237 24.5688C68.7916 22.4344 67.8868 19.8233 67.8868 16.9999C67.8868 14.1765 68.7916 11.5654 70.3237 9.43093C71.8561 11.5654 72.7606 14.1765 72.7606 16.9999C72.7606 19.8233 71.8561 22.4344 70.3237 24.5688ZM49 24.5688C47.4676 22.4344 46.5628 19.8233 46.5628 16.9999C46.5628 14.1765 47.4676 11.565 49 9.43059C50.5322 11.565 51.4369 14.1765 51.4369 16.9999C51.4369 19.8233 50.5322 22.4344 49 24.5688ZM27.6764 24.5688C26.144 22.4344 25.2392 19.8233 25.2392 16.9999C25.2392 14.1765 26.144 11.565 27.6764 9.43059C29.2089 11.565 30.1137 14.1765 30.1137 16.9999C30.1137 19.8233 29.2089 22.4344 27.6764 24.5688ZM3.91522 16.9999C3.91522 9.79944 9.78004 3.96277 17.0144 3.96277C20.0152 3.96277 22.7785 4.96938 24.9869 6.65839C22.7516 9.51301 21.4162 13.1002 21.4162 16.9999C21.4162 20.8992 22.7516 24.4867 24.9869 27.341C22.7785 29.03 20.0152 30.0366 17.0144 30.0366C9.78004 30.0366 3.91522 24.2 3.91522 16.9999ZM30.3659 27.341C32.6013 24.4864 33.9367 20.8992 33.9367 16.9999C33.9367 13.1002 32.6013 9.51301 30.3659 6.65839C32.5744 4.96938 35.3377 3.96277 38.3384 3.96277C41.3391 3.96277 44.1025 4.96938 46.3109 6.65839C44.0752 9.51301 42.7401 13.1002 42.7401 16.9999C42.7401 20.8992 44.0756 24.4864 46.3109 27.341C44.1025 29.03 41.3391 30.0366 38.3384 30.0366C35.3373 30.0366 32.5744 29.03 30.3659 27.341ZM51.6895 27.341C53.9252 24.4864 55.2607 20.8992 55.2607 16.9999C55.2607 13.1002 53.9252 9.51301 51.6895 6.65839C53.898 4.96938 56.6613 3.96277 59.662 3.96277C62.6628 3.96277 65.4257 4.96938 67.6345 6.65873C65.3988 9.51336 64.0638 13.1002 64.0638 16.9999C64.0638 20.8992 65.3988 24.4864 67.6345 27.341C65.4261 29.03 62.6628 30.0366 59.662 30.0366C56.6613 30.0366 53.898 29.03 51.6895 27.341ZM80.9857 30.0366C77.9853 30.0366 75.222 29.03 73.0132 27.341C75.2485 24.4864 76.5839 20.8992 76.5839 16.9999C76.5839 13.1002 75.2485 9.51301 73.0128 6.65873C75.2216 4.96938 77.9846 3.96277 80.9853 3.96277C88.2197 3.96277 94.0845 9.79978 94.0845 16.9999C94.0845 24.2 88.2201 30.0366 80.9857 30.0366Z" fill="black"/>
</svg>
