<svg width="84" height="71" viewBox="0 0 84 71" fill="none" xmlns="http://www.w3.org/2000/svg">
<path d="M48.95 38.337C48.8833 38.3538 48.6167 38.3538 48.5 38.3538H39.9V40.3742H48.65C48.7167 40.3742 49.2333 40.3742 49.3333 40.3574C51.1167 40.189 51.9333 38.6905 51.9333 37.3773C51.9333 36.0304 51.0833 34.5824 49.4667 34.4309C49.15 34.3972 48.8833 34.3972 48.7667 34.3972H43.05C42.8 34.3972 42.5167 34.3804 42.4167 34.3467C41.9667 34.2288 41.8 33.8248 41.8 33.488C41.8 33.185 41.9667 32.7809 42.4333 32.6462C42.5667 32.6125 42.7167 32.5957 43.0333 32.5957H51.2833V30.609H42.9C42.55 30.609 42.2833 30.6258 42.0667 30.6595C40.6333 30.8615 39.6333 32.0232 39.6333 33.5049C39.6333 34.7171 40.3833 36.1314 42.0333 36.3671C42.3333 36.4008 42.75 36.4008 42.9333 36.4008H48.5C48.6 36.4008 48.85 36.4008 48.9 36.4176C49.5333 36.5018 49.75 36.9732 49.75 37.3941C49.75 37.7982 49.5 38.2359 48.95 38.337Z" fill="black"/>
<path d="M32.65 38.337C32.5833 38.3538 32.3167 38.3538 32.2167 38.3538H23.6V40.3742H32.35C32.4167 40.3742 32.9333 40.3742 33.0333 40.3574C34.8167 40.189 35.6333 38.6905 35.6333 37.3773C35.6333 36.0304 34.7833 34.5824 33.1667 34.4309C32.85 34.3972 32.5833 34.3972 32.4667 34.3972H26.75C26.5 34.3972 26.2167 34.3804 26.1167 34.3467C25.6667 34.2288 25.5 33.8248 25.5 33.488C25.5 33.185 25.6667 32.7809 26.1333 32.6462C26.2667 32.6125 26.4167 32.5957 26.7333 32.5957H34.9833V30.609H26.6C26.25 30.609 25.9833 30.6258 25.7667 30.6595C24.3333 30.8615 23.3333 32.0232 23.3333 33.5049C23.3333 34.7171 24.0833 36.1314 25.7333 36.3671C26.0333 36.4008 26.45 36.4008 26.6333 36.4008H32.2C32.3 36.4008 32.55 36.4008 32.6 36.4176C33.2333 36.5018 33.45 36.9732 33.45 37.3941C33.45 37.7982 33.2167 38.2359 32.65 38.337Z" fill="black"/>
<path d="M19.1167 30.5416H16.95V40.4247H19.1167V30.5416Z" fill="black"/>
<path d="M12.1667 40.4247V30.5416H10V37.9161L2.78333 30.5416H0V40.4247H2.16667V33.0166L9.43333 40.4247H12.1667Z" fill="black"/>
<path d="M81.85 30.5416V37.9161L74.6333 30.5416H71.85V40.4247H74.0167V33.0166L81.2667 40.4247H84V30.5416H81.85Z" fill="black"/>
<path d="M60.5667 30.5416L54.4667 40.4247H57.1L58.1833 38.6569H65.3L66.3833 40.4247H69L62.9 30.5416H60.5667ZM64.1833 36.788H59.3L61.75 32.8146L64.1833 36.788Z" fill="black"/>
<path d="M12.05 24.935C16.4167 12.055 28.45 3.401 42.0167 3.401C55.5833 3.401 67.6333 12.055 71.9833 24.935L72.0167 25.036H81.5667V23.8743L77.6 23.4029C75.15 23.1167 74.6333 22.0223 73.9667 20.6417L73.8 20.305C68.0667 7.98056 55.5833 0 42.0167 0C28.4333 0 15.9667 7.98056 10.2333 20.3386L10.0667 20.6754C9.4 22.056 8.88333 23.1503 6.43333 23.4366L2.46667 23.908V25.0697H12L12.05 24.935Z" fill="black"/>
<path d="M72.0167 45.9471L71.9833 46.0481C67.6167 58.9281 55.5833 67.5653 42.0167 67.5653C28.45 67.5653 16.4 58.9113 12.05 46.0313L12.0167 45.9303H2.48333V47.092L6.45 47.5634C8.9 47.8497 9.41667 48.944 10.0833 50.3246L10.25 50.6614C15.9833 63.0194 28.4667 71 42.0333 71C55.6 71 68.0833 63.0194 73.8167 50.6782L73.9833 50.3415C74.65 48.9609 75.1667 47.8665 77.6167 47.5803L81.5833 47.1088V45.9471H72.0167Z" fill="black"/>
</svg>
