<svg height="403.20984" width="1000.0001" xmlns="http://www.w3.org/2000/svg"><g fill="#231f20"><path d="m0 0c-.12-6.621 1.31-10.128 6.768-10.128 5.449 0 6.231 5.974 6.231 10.52 0 4.549-1.034 8.965-6.759 8.965-3.512 0-6.105-2.729-6.24-9.357zm-11.042-27.668v44.818h11.177s0-.649 0-1.818c0-2.425.978-1.425 1.766-.48.132.158 2.623 3.207 8.233 3.207 5.593 0 14.294-3.896 14.294-17.667 0-10.652-5.191-18.445-14.156-18.445-4.94 0-7.796 1.945-8.449 2.73-.654.774-1.562.909-1.562 0 0-.911 0-12.345 0-12.345z" transform="matrix(6.775315875 0 0 -6.775315875 833.99265 215.2504125)"/><path d="m0 0h12.082s0-26.238 0-31.696c0-5.452-2.341-16.887-19.096-16.887-16.757 0-18.575 10.658-18.575 16.629v5.845h11.692s0-2.208 0-5.713c0-3.507 2.339-6.753 6.753-6.753 4.416 0 7.144 2.467 7.144 6.621 0 4.157 0 31.954 0 31.954" transform="matrix(6.775315875 0 0 -6.775315875 173.873525 .5)"/><path d="m0 0c0 3.251-1.815 6.368-5.972 6.368-4.027 0-5.457-2.855-5.457-6.368zm-7.137 13.641c9.488 0 17.798-3.636 17.798-20.394h-22.471c0-5.326 2.206-7.535 6.103-7.535 3.898 0 5.196 3.12 5.196 3.12h11.045c0-4.808-6.626-11.303-16.631-11.174-11.428 0-17.015 8.444-17.015 17.148 0 8.707 4.933 18.835 15.975 18.835" transform="matrix(6.775315875 0 0 -6.775315875 426.9249 182.6746875)"/><path d="m0 0c0 3.251-1.817 6.368-5.974 6.368-4.025 0-5.458-2.855-5.458-6.368zm-7.137 13.641c9.487 0 17.795-3.636 17.795-20.394h-22.47c0-5.326 2.208-7.535 6.108-7.535 3.894 0 5.194 3.12 5.194 3.12h11.045c0-4.808-6.627-11.303-16.629-11.174-11.434 0-17.021 8.444-17.021 17.148 0 8.707 4.939 18.835 15.978 18.835" transform="matrix(6.775315875 0 0 -6.775315875 670.314525 182.6746875)"/><path d="m0 0c0 1.775 1.445 3.217 3.226 3.217 1.775 0 3.217-1.442 3.217-3.217 0-1.772-1.442-3.223-3.217-3.223-1.781 0-3.226 1.451-3.226 3.223zm-.372 0c0-1.986 1.608-3.598 3.598-3.598 1.977 0 3.594 1.612 3.594 3.598s-1.617 3.598-3.594 3.598c-1.99 0-3.598-1.612-3.598-3.598" transform="matrix(6.775315875 0 0 -6.775315875 949.376275 366.306075)"/><path d="m0 0-.747 1.764c.237.082.316.14.442.275.164.176.267.454.267.706 0 .636-.489 1.069-1.198 1.069h-1.5v-3.814h.445v1.652h1.084l.712-1.652zm-2.303 2.039v1.36h1.058c.442 0 .723-.252.723-.642 0-.443-.298-.718-.785-.718z" transform="matrix(6.775315875 0 0 -6.775315875 980.99665 378.7726625)"/></g></svg>