<svg width="160" height="36" viewBox="0 0 160 36" fill="none" xmlns="http://www.w3.org/2000/svg">
<g clip-path="url(#clip0_1_2)">
<path d="M20.19 36H12.616C12.6115 32.6595 11.2806 29.4575 8.916 27.098C6.54937 24.7361 3.34353 23.4079 0 23.404V15.847C10.212 15.08 19.42 24.246 20.19 36Z" fill="#B248FF"/>
<path d="M0.00390625 23.404V15.847C4.21211 15.8444 8.24777 14.1742 11.2269 11.202C12.7005 9.73198 13.8701 7.98611 14.669 6.06407C15.4679 4.14203 15.8804 2.08145 15.8829 0L23.4379 0C23.4305 6.20535 20.9595 12.1539 16.5679 16.538C12.1716 20.9268 6.21591 23.3956 0.00390625 23.404V23.404Z" fill="#00A8FF"/>
<path d="M36.0638 20.153C30.7152 20.1445 25.5875 18.0185 21.8018 14.24C18.0196 10.4653 15.8904 5.34358 15.8818 0H23.4378C23.4423 3.3405 24.7731 6.54252 27.1378 8.902C29.505 11.2643 32.7116 12.5926 36.0558 12.596L36.0638 20.153Z" fill="#FF4352"/>
<path d="M20.1902 35.9999H12.6152C12.6231 29.792 15.0964 23.8415 19.4912 19.4569C23.8906 15.0678 29.8499 12.6008 36.0642 12.5959V20.1519C31.8568 20.1562 27.8225 21.8271 24.8442 24.7989C21.8693 27.768 20.1953 31.7969 20.1902 35.9999Z" fill="#46E650"/>
<path d="M53.9322 0.004L45.8662 18.446H49.3952L51.4372 13.723H59.2492L61.3082 18.444H64.8712L56.8052 0L53.9322 0.004ZM52.7642 10.661L55.3432 4.75L57.9162 10.661H52.7642ZM153.891 5.101C151.624 5.101 149.625 5.916 148.391 7.331L148.267 7.477L150.125 9.424L150.28 9.263C150.736 8.79991 151.283 8.43579 151.886 8.19337C152.49 7.95095 153.136 7.83543 153.786 7.854C154.916 7.854 156.772 8.178 156.921 10.286C156.028 10.076 155.114 9.96999 154.197 9.97C151.107 9.97 147.807 11.153 147.807 14.471C147.807 17.371 150.344 18.693 152.696 18.693C154.314 18.7239 155.879 18.1226 157.06 17.017L157.209 18.444H160V10.64C159.998 6.56 156.843 5.103 153.891 5.103V5.1V5.101ZM153.002 15.939C151.606 15.939 150.874 15.183 150.874 14.429C150.874 13.472 152.026 12.509 154.221 12.509C155.122 12.5212 156.017 12.665 156.876 12.936C156.766 14.712 154.783 15.939 152.996 15.939H153.002ZM146.059 5.339H142.069L137.373 10.435V5.34H134.15V18.453H137.373V13.329L142.682 18.447H147.003L140.117 11.779L146.059 5.339V5.339ZM98.3292 5.086C96.5575 5.10531 94.8652 5.82422 93.6212 7.086C92.3788 8.34692 91.6868 10.0488 91.6967 11.8189C91.7067 13.5891 92.4178 15.2831 93.6742 16.53C94.9319 17.7784 96.6321 18.479 98.4042 18.479C100.176 18.479 101.877 17.7784 103.134 16.53C104.39 15.283 105.101 13.5892 105.111 11.8194C105.121 10.0496 104.429 8.348 103.187 7.087C101.943 5.82507 100.25 5.10616 98.4782 5.087H98.3292V5.086ZM98.3292 15.686C96.2302 15.686 94.7032 14.09 94.7032 11.889C94.7032 9.687 96.2302 8.091 98.3292 8.091C100.429 8.091 101.932 9.689 101.932 11.889C101.932 14.089 100.414 15.684 98.3232 15.684L98.3292 15.686ZM76.7232 11.444C77.3152 10.839 77.6432 10.024 77.6332 9.179C77.6332 7.406 76.3942 5.335 72.8922 5.335H66.8782V18.449H73.6172C77.1662 18.449 78.4322 16.396 78.4322 14.477C78.4319 13.8656 78.2732 13.2646 77.9716 12.7328C77.67 12.2009 77.2358 11.7562 76.7112 11.442L76.7232 11.444ZM70.1052 8.011H72.9862C73.5152 8.011 74.4032 8.168 74.4032 9.218C74.4032 10.335 73.4132 10.454 72.9862 10.454H70.1012L70.1052 8.011V8.011ZM73.6072 15.656H70.1002V12.904H73.6002C74.6202 12.904 75.2172 13.407 75.2172 14.292C75.2172 15.177 74.6042 15.656 73.6002 15.656H73.6062H73.6072ZM106.075 8.238H109.885V18.448H113.105V8.244H117.093V5.333H106.067V8.243L106.075 8.238ZM125.065 5.072C121.163 5.072 118.221 8.002 118.221 11.884C118.221 15.894 121.037 18.694 125.065 18.694C127.694 18.694 129.815 17.611 131.042 15.65L131.147 15.482L128.661 13.719L128.543 13.923C127.8 15.133 126.638 15.758 125.088 15.758C123.072 15.758 121.617 14.551 121.412 12.738H131.373V12.535C131.398 12.127 131.398 11.882 131.398 11.609C131.412 7.096 128.231 5.086 125.068 5.086L125.065 5.072V5.072ZM121.582 10.254C122.086 8.492 123.701 7.858 124.969 7.858C126.558 7.858 127.767 8.79 128.118 10.254H121.582V10.254ZM79.5492 8.242H83.3612V18.448H86.5842V8.244H90.5742V5.333H79.5472V8.243L79.5492 8.242V8.242ZM57.5902 26.751C57.1649 26.7478 56.7434 26.8312 56.3514 26.9963C55.9594 27.1613 55.6051 27.4045 55.3102 27.711V26.867H54.1462V36H55.3102V32.512C55.6049 32.8187 55.9592 33.0621 56.3512 33.2271C56.7432 33.3922 57.1648 33.4755 57.5902 33.472C58.4842 33.472 59.3412 33.118 59.9732 32.487C60.4456 32.0171 60.7676 31.4173 60.8983 30.7639C61.0289 30.1105 60.9624 29.433 60.707 28.8175C60.4517 28.202 60.0192 27.6764 59.4644 27.3073C58.9095 26.9383 58.2575 26.7426 57.5912 26.745V26.751H57.5902ZM57.5132 32.311C57.0776 32.3108 56.6517 32.1817 56.2894 31.9398C55.9271 31.698 55.6445 31.3542 55.4772 30.952C55.3523 30.6514 55.2957 30.3267 55.3116 30.0015C55.3276 29.6763 55.4155 29.3588 55.5692 29.0718C55.7229 28.7848 55.9385 28.5355 56.2003 28.342C56.4622 28.1485 56.7637 28.0157 57.0832 27.953C57.5105 27.8682 57.9534 27.9119 58.356 28.0784C58.7585 28.245 59.1027 28.5271 59.3452 28.889C59.6279 29.312 59.755 29.82 59.7048 30.3262C59.6547 30.8325 59.4304 31.3057 59.0702 31.665C58.657 32.0775 58.0971 32.3094 57.5132 32.31V32.311ZM75.7002 30.506H70.3332C70.4212 31.029 70.6992 31.5 71.1152 31.829C71.5572 32.159 72.0992 32.329 72.6502 32.309C73.4962 32.309 74.1082 31.998 74.4882 31.377L75.4362 31.913C74.8062 32.875 73.8662 33.356 72.6202 33.356C72.1638 33.3725 71.7087 33.2973 71.2819 33.1348C70.855 32.9723 70.4651 32.7258 70.1352 32.41C69.8235 32.0915 69.5789 31.7136 69.416 31.2987C69.2532 30.8839 69.1754 30.4405 69.1872 29.995C69.1723 29.5522 69.2475 29.1109 69.4082 28.6981C69.5689 28.2852 69.8119 27.9092 70.1222 27.593C70.4367 27.2736 70.8144 27.0232 71.231 26.858C71.6477 26.6927 72.0943 26.616 72.5422 26.633C72.9743 26.6195 73.4041 26.7019 73.8005 26.8743C74.197 27.0467 74.5504 27.3048 74.8352 27.63C75.4312 28.277 75.7522 29.13 75.7302 30.009C75.7312 30.175 75.7212 30.341 75.7002 30.506V30.506ZM72.5482 27.681C72.0114 27.664 71.4865 27.8416 71.0702 28.181C70.6663 28.5267 70.4039 29.0091 70.3332 29.536H74.6212C74.5598 29.0096 74.3093 28.5235 73.9162 28.168C73.5372 27.841 73.0492 27.668 72.5482 27.681V27.681ZM65.0362 26.633C64.3708 26.6336 63.7205 26.831 63.1671 27.2004C62.6137 27.5698 62.1819 28.0947 61.9262 28.709C61.6714 29.3233 61.6049 29.9994 61.735 30.6516C61.8652 31.3038 62.1861 31.9026 62.6572 32.372C63.1285 32.8413 63.7281 33.1607 64.3805 33.2899C65.0329 33.4191 65.709 33.3524 66.3235 33.0982C66.9381 32.8439 67.4637 32.4135 67.8341 31.8611C68.2046 31.3087 68.4033 30.6591 68.4052 29.994C68.4039 29.1023 68.0485 28.2477 67.4172 27.618C66.785 26.9877 65.9289 26.6335 65.0362 26.633V26.633ZM65.0362 32.196C64.6002 32.1959 64.174 32.0666 63.8113 31.8246C63.4486 31.5826 63.1657 31.2386 62.9982 30.836C62.8731 30.5352 62.8164 30.2103 62.8323 29.8849C62.8482 29.5594 62.9362 29.2416 63.09 28.9544C63.2438 28.6672 63.4596 28.4178 63.7216 28.2242C63.9837 28.0306 64.2855 27.8976 64.6052 27.835C65.0328 27.7503 65.4759 27.794 65.8788 27.9606C66.2816 28.1271 66.6262 28.4091 66.8692 28.771C67.1527 29.1944 67.2803 29.703 67.2303 30.2101C67.1804 30.7171 66.9559 31.1911 66.5952 31.551C66.1812 31.9641 65.6201 32.1961 65.0352 32.196H65.0362ZM82.4612 27.911H84.5302V33.24H85.6942V27.91H87.7622V26.748H82.4622V27.91L82.4612 27.911ZM79.2532 29.89L82.2232 33.24H80.6802L77.9052 30.12V33.24H76.7702V26.749H77.9052V29.666L80.5492 26.749H82.0952L79.2532 29.89V29.89ZM47.2422 26.749V33.239H48.3742V27.839H51.5492V33.239H52.6802V26.749H47.2422V26.749ZM94.4882 24.005L90.9232 33.24H92.2752L93.1572 30.891H97.0552L97.9372 33.24H99.2892L95.7262 24.005H94.4882V24.005ZM93.6312 29.73L95.1052 25.856L96.5812 29.729H93.6312V29.73ZM101.239 33.24H102.397L104.915 26.751H103.565L101.799 31.395H101.868L100.102 26.749H98.7462L101.239 33.239V33.24ZM116.509 26.633C115.844 26.6334 115.193 26.8307 114.64 27.1999C114.086 27.5691 113.654 28.0938 113.398 28.708C113.208 29.1675 113.122 29.6635 113.146 30.1602C113.171 30.657 113.305 31.1421 113.54 31.5805C113.775 32.019 114.104 32.3999 114.504 32.6957C114.904 32.9914 115.364 33.1948 115.852 33.291C116.505 33.4201 117.182 33.3533 117.797 33.0988C118.412 32.8444 118.938 32.4137 119.309 31.861C119.741 31.2147 119.935 30.4384 119.859 29.6648C119.782 28.8911 119.44 28.1681 118.889 27.619C118.258 26.9885 117.402 26.6339 116.509 26.633V26.633ZM116.509 32.196C116.184 32.1958 115.862 32.1234 115.568 31.9842C115.273 31.8451 115.014 31.6424 114.807 31.3909C114.6 31.1394 114.452 30.8453 114.372 30.5296C114.292 30.2139 114.283 29.8845 114.346 29.565C114.41 29.2452 114.544 28.9436 114.738 28.6818C114.932 28.42 115.182 28.2046 115.47 28.051C115.758 27.8975 116.076 27.8097 116.401 27.794C116.727 27.7782 117.052 27.8349 117.353 27.96C117.826 28.1535 118.216 28.5053 118.458 28.9552C118.7 29.4051 118.777 29.9251 118.677 30.4259C118.578 30.9267 118.307 31.3773 117.911 31.7002C117.515 32.0232 117.02 32.1985 116.509 32.196V32.196ZM110.569 31.163C110.569 31.221 110.573 31.28 110.581 31.338C110.614 31.558 110.725 31.758 110.894 31.903C111.052 32.041 111.245 32.133 111.453 32.168C111.535 32.182 111.617 32.188 111.7 32.188H112.57V33.24H111.439C111.137 33.2168 110.841 33.1356 110.569 33.001C110.395 32.9153 110.233 32.807 110.087 32.679C109.875 32.4909 109.707 32.2585 109.595 31.9982C109.483 31.738 109.429 31.4563 109.438 31.173V27.85H108.306V26.76H109.438V25.404H110.569V26.759H112.57V27.85H110.569V31.163ZM105.946 26.749H107.077V33.239H105.946V26.749V26.749ZM106.511 25.879C106.709 25.8793 106.899 25.8008 107.04 25.6609C107.18 25.521 107.259 25.3311 107.259 25.133C107.259 24.9349 107.181 24.7448 107.041 24.6045C106.901 24.4642 106.711 24.3853 106.513 24.385C106.315 24.3847 106.125 24.4632 105.985 24.6031C105.844 24.743 105.765 24.9329 105.765 25.131C105.765 25.3291 105.843 25.5192 105.983 25.6595C106.123 25.7998 106.313 25.8787 106.511 25.879V25.879Z" fill="black"/>
</g>
<defs>
<clipPath id="clip0_1_2">
<rect width="160" height="36" fill="white"/>
</clipPath>
</defs>
</svg>
