<svg width="40" height="40" viewBox="0 0 40 40" fill="none" xmlns="http://www.w3.org/2000/svg">
<g clip-path="url(#clip0_1_20)">
<path d="M22.3934 39.9288H13.9928C13.9878 36.2238 12.5117 32.6724 9.88902 30.0553C7.26412 27.4357 3.70842 25.9626 0 25.9582V17.5765C11.3265 16.7258 21.5393 26.8921 22.3934 39.9288Z" fill="#B248FF"/>
<path d="M0.00439453 25.9581V17.5764C4.67185 17.5736 9.14793 15.721 12.4522 12.4245C14.0866 10.7941 15.3839 8.85765 16.2699 6.72585C17.156 4.59405 17.6135 2.30861 17.6163 0L25.9958 0C25.9876 6.88256 23.2469 13.4802 18.3761 18.3428C13.5 23.2106 6.89432 25.9488 0.00439453 25.9581V25.9581Z" fill="#00A8FF"/>
<path d="M39.9997 22.3523C34.0674 22.3429 28.38 19.9849 24.1813 15.794C19.9863 11.6074 17.6247 5.92673 17.6152 0H25.9958C26.0007 3.70506 27.4769 7.25651 30.0996 9.87349C32.7251 12.4936 36.2817 13.9668 39.9909 13.9706L39.9997 22.3523Z" fill="#FF4352"/>
<path d="M22.3934 39.9287H13.9917C14.0004 33.0433 16.7437 26.4433 21.6181 21.5803C26.4976 16.7122 33.1072 13.9759 39.9997 13.9706V22.3512C35.3332 22.3558 30.8586 24.2091 27.5553 27.5053C24.2557 30.7984 22.399 35.267 22.3934 39.9287Z" fill="#46E650"/>
</g>
<defs>
<clipPath id="clip0_1_20">
<rect width="40" height="40" fill="white"/>
</clipPath>
</defs>
</svg>
