<svg width="353" height="87" viewBox="0 0 353 87" fill="none" xmlns="http://www.w3.org/2000/svg">
<path d="M86.48 86.41H0V0H86.48V86.41ZM50.45 79.21V77.98C50.45 70.85 50.44 63.71 50.47 56.58C50.47 55.82 50.27 55.28 49.72 54.73C42.93 47.98 36.15 41.21 29.4 34.42C29.08 34.1 28.85 33.54 28.85 33.09C28.82 24.79 28.83 16.49 28.83 8.19C28.83 7.87 28.83 7.56 28.83 7.2H7.16C7.16 7.59 7.16 7.93 7.16 8.28C7.16 19.05 7.16 29.81 7.16 40.58C7.16 53.16 7.16 65.75 7.16 78.33C7.16 78.91 7.16 79.27 7.95 79.27C21.85 79.24 35.74 79.25 49.64 79.25C49.88 79.25 50.12 79.23 50.45 79.21ZM36.11 7.18C36.09 7.36 36.06 7.47 36.06 7.57C36.06 15.22 36.06 22.87 36.07 30.51C36.07 30.79 36.26 31.12 36.47 31.33C43.3 38.15 50.13 44.97 56.99 51.77C57.48 52.25 57.66 52.73 57.66 53.41C57.64 61.71 57.66 70.01 57.63 78.31C57.63 79.05 57.82 79.27 58.58 79.26C65.23 79.23 71.88 79.24 78.53 79.24C78.77 79.24 79 79.21 79.24 79.2V7.18H36.11Z" fill="black"/>
<path d="M201.01 34.03H177.36V40.1H199.73V45.14H177.35V52.27H201V57.25H171.66C171.66 56.93 171.66 56.6 171.66 56.26C171.66 47.48 171.66 38.69 171.66 29.91C171.66 29.32 171.74 29.04 172.44 29.04C181.75 29.06 191.05 29.05 200.36 29.05C200.55 29.05 200.73 29.07 201.01 29.09V34.03Z" fill="black"/>
<path d="M337.38 47C342.43 50.39 347.48 53.79 352.74 57.32C349.81 57.32 347.13 57.33 344.46 57.3C344.15 57.3 343.82 57.06 343.53 56.86C336.73 52.25 329.94 47.64 323.15 43.03C322.97 42.91 322.79 42.8 322.5 42.62V57.25H316.68V56.35C316.68 47.59 316.69 38.83 316.66 30.08C316.66 29.28 316.83 29.04 317.68 29.04C325.06 29.08 332.44 29.04 339.82 29.08C342.71 29.09 345.36 29.89 347.63 31.81C351.42 35.03 351.59 42.58 345.67 45.46C343.7 46.42 341.62 46.8 339.45 46.78C338.79 46.78 338.12 46.78 337.46 46.78C337.43 46.86 337.4 46.93 337.37 47.01L337.38 47ZM322.49 42.48C322.81 42.5 323.06 42.52 323.3 42.52C328.73 42.52 334.15 42.52 339.58 42.51C340.17 42.51 340.77 42.46 341.36 42.35C343.61 41.92 344.61 40.7 344.62 38.46C344.62 38.08 344.59 37.7 344.62 37.32C344.7 36.04 344 35.18 342.97 34.66C342.2 34.27 341.29 33.95 340.43 33.94C334.65 33.87 328.87 33.89 323.1 33.88C322.92 33.88 322.74 33.91 322.51 33.93V42.48H322.49Z" fill="black"/>
<path d="M249.08 29.12V34.07H225.42V40.14H247.85V45.16H225.41V52.25H249.07V57.25H219.84V29.12H249.08Z" fill="black"/>
<path d="M131.95 52.51H152.89V57.26H119.83C127.32 49.46 134.72 41.74 142.28 33.86H121.16V29.12H154.14C146.64 36.94 139.26 44.63 131.88 52.32C131.9 52.39 131.93 52.45 131.95 52.52V52.51Z" fill="black"/>
<path d="M303.15 57.32C300.38 57.32 297.61 57.33 294.85 57.3C294.51 57.3 294.12 57.11 293.83 56.91C287.37 52.39 280.92 47.85 274.47 43.31C274.24 43.15 273.99 43 273.65 42.78V57.25H267.94V29.12H273.59V42.58C273.92 42.4 274.13 42.31 274.31 42.19C280.56 37.98 286.8 33.76 293.06 29.58C293.52 29.27 294.15 29.09 294.71 29.08C297.26 29.03 299.81 29.06 302.45 29.23C295.81 33.66 289.17 38.09 282.47 42.56C289.45 47.48 296.33 52.32 303.22 57.17C303.2 57.22 303.18 57.27 303.16 57.31L303.15 57.32Z" fill="black"/>
</svg>
