<svg viewBox="0 0 210 26" fill="currentColor" xmlns="http://www.w3.org/2000/svg" class="desktop" data-di-res-id="b6d3748f-cd511180" data-di-rand="1693571487739"><g clip-path="url(#clip0_4965_51794)"><path d="M78.6817 7.03198H76.6797V17.1787H78.6817V7.03198Z" fill="currentColor"/><path d="M136.557 7.03198H134.555V17.1787H136.557V7.03198Z" fill="currentColor"/><path d="M114.508 17.1787V7.03198H122.531V8.44541H116.394V11.525H120.771V12.9355H116.394V17.1787H114.508Z" fill="currentColor"/><path d="M190.313 17.1787V8.44835H186.664V7.03198H195.891V8.44835H192.242V17.1787H190.313Z" fill="currentColor"/><path d="M174.541 7.03198H172.539V17.1787H174.541V7.03198Z" fill="currentColor"/><path d="M210.002 7.03198H208V17.1787H210.002V7.03198Z" fill="currentColor"/><path d="M157.804 17.1787L151.651 9.97932V17.1787H149.766V7.03198H151.25L157.44 14.249V7.03198H159.329V17.1787H157.804Z" fill="currentColor"/><path d="M99.9247 17.1787L93.7685 9.97932V17.1787H91.8828V7.03198H93.3675L99.5604 14.249V7.03198H101.446V17.1787H99.9247Z" fill="currentColor"/><path d="M28.2367 0.675859C15.1469 0.675859 4.5949 5.89173 4.5949 12.1596C4.5949 15.7123 8.90204 18.4892 15.4224 20.0289L26.8133 7.03187H28.2367L18.3796 26C7.64694 24.1605 0 19.3736 0 13.5466C0 6.05334 12.649 0 28.2367 0C43.8245 0 56.4735 6.05334 56.4735 13.5466C56.4735 19.3736 48.8265 24.1605 38.0939 26L28.2367 7.03187H29.6602L41.048 20.0289C47.5714 18.4892 51.8755 15.7123 51.8755 12.1596C51.8755 5.89173 41.3235 0.675859 28.2337 0.675859H28.2367Z" fill="currentColor"/></g><defs><clipPath id="clip0_4965_51794"><rect width="210" height="26" fill="currentColor"/></clipPath></defs></svg>