<svg width="514" height="390" viewBox="0 0 514 390" fill="none" xmlns="http://www.w3.org/2000/svg">
<path d="M513.235 19.3734C513.235 24.1818 511.485 28.5702 508.586 31.9591L375.002 184.477C362.456 197.153 345.042 205 325.789 205H190.905C170.672 205 152.458 196.323 139.792 182.488L118.23 158.356C117.8 157.896 117.53 157.296 117.53 156.617C117.53 155.237 118.649 154.117 120.029 154.117C120.029 154.117 258.562 154.107 258.982 154.087C270.887 153.678 281.334 147.55 287.672 138.363L355.808 61.1591C356.838 60.1194 357.478 58.6999 357.478 57.1204C357.478 53.9616 354.919 51.4024 351.76 51.4024H25.2114L3.68874 27.3107C1.38954 24.7615 0 21.3927 0 17.684C0 7.91728 7.91728 0 17.684 0H493.871C504.568 0 513.235 8.66702 513.235 19.3734Z" fill="#2A58FD"/>
<path d="M82.27 266.65V354.67C82.27 357.93 81.83 361.09 81 364.08C77.24 377.66 65.56 387.93 51.23 389.6C49.88 389.76 48.5 389.84 47.1 389.84H0.35999L5.03003 364.08H36.53C44.65 364.08 51.23 357.51 51.23 349.38V292.74H17.94L22.66 266.65H82.27Z" fill="#2A58FD"/>
<path d="M190.05 364.08V389.84H113.11V266.65H185.1V292.74H144.03V315.46H180.03V341.22H144.03V364.08H190.05Z" fill="#2A58FD"/>
<path d="M210.42 266.65V292.74H235.74V389.84H267.1V292.74H292.42V266.65H210.42Z" fill="#2A58FD"/>
<path d="M317.996 266.65V292.74H343.316V389.84H374.676V292.74H399.996V266.65H317.996Z" fill="#2A58FD"/>
<path d="M482.1 266.65H441.08L410.48 389.84H441.4L445.5 369.53H477.68L481.78 389.84H512.7L482.1 266.65ZM450.71 343.69L461.59 289.74L472.47 343.69H450.71Z" fill="#2A58FD"/>
</svg>
