<svg width="184" height="33" viewBox="0 0 184 33" fill="none" xmlns="http://www.w3.org/2000/svg">
<path d="M33.6194 5.1C35.8194 7.6 36.6194 11.3 36.1194 16.8C35.7194 22.6 34.3194 26.2 31.8194 28.5C29.2194 30.9 24.9194 32.1 18.5194 32.1C12.1194 32.1 7.81936 31 5.21936 28.5C2.81936 26.2 1.51936 22.6 1.01936 16.8C0.519356 11.3 1.31936 7.6 3.51936 5.1C6.11936 2.2 10.9194 0.8 18.6194 0.8C26.2194 0.8 31.0194 2.2 33.6194 5.1ZM18.6194 0C3.21936 0 -0.780644 5.7 0.119356 16.9C1.11936 28.2 5.11936 33 18.5194 33C31.9194 33 35.9194 28.2 36.9194 16.9C37.9194 5.7 33.9194 0 18.6194 0Z" fill="#0B457F"/>
<path d="M18.6179 1.60156C4.81791 1.60156 1.01791 6.70156 1.91791 16.9016C2.81791 27.0016 6.41791 31.3016 18.5179 31.3016C30.6179 31.3016 34.2179 27.0016 35.1179 16.9016C36.0179 6.70156 32.4179 1.60156 18.6179 1.60156ZM25.5179 4.00156C22.8179 10.8016 19.8179 17.3016 18.9179 19.3016C18.8824 19.3473 18.8369 19.3842 18.7849 19.4097C18.7329 19.4351 18.6758 19.4483 18.6179 19.4483C18.56 19.4483 18.5029 19.4351 18.4509 19.4097C18.3989 19.3842 18.3534 19.3473 18.3179 19.3016C17.3179 17.2016 14.3179 10.8016 11.7179 4.00156C11.6179 3.90156 11.7179 3.80156 11.8179 3.80156C13.7179 3.40156 16.0179 3.20156 18.7179 3.20156C21.4179 3.20156 23.6179 3.40156 25.6179 3.80156C25.5179 3.80156 25.6179 3.90156 25.5179 4.00156ZM3.41791 16.7016C3.11791 12.0016 3.71791 8.90156 5.51791 6.80156C6.51791 5.70156 7.91791 4.90156 9.81791 4.30156C9.91791 4.30156 9.91791 4.30156 9.91791 4.50156V13.7016C9.91791 15.2016 10.3179 16.7016 11.0179 18.1016L17.1179 29.5016C17.2179 29.6016 17.1179 29.7016 17.0179 29.7016C12.2179 29.5016 9.11791 28.6016 7.11791 26.7016C5.01791 24.8016 3.91791 21.7016 3.41791 16.7016ZM33.7179 16.7016C33.3179 21.7016 32.1179 24.8016 30.0179 26.7016C28.0179 28.6016 24.8179 29.6016 20.1179 29.7016C19.9179 29.7016 19.9179 29.5016 19.9179 29.5016L26.0179 18.1016C26.7179 16.7016 27.0179 15.2016 27.0179 13.7016V4.40156C27.0179 4.20156 27.1179 4.20156 27.2179 4.20156C29.1179 4.80156 30.5179 5.60156 31.5179 6.70156C33.4179 8.90156 34.1179 12.0016 33.7179 16.7016Z" fill="#0B457F"/>
<path d="M55.018 24.0004C49.918 24.0004 46.918 22.2004 46.918 16.8004C46.918 11.9004 50.018 9.90039 55.218 9.90039H61.818V13.6004H55.518C53.018 13.6004 52.318 14.3004 52.318 16.9004C52.318 19.7004 53.018 20.4004 55.718 20.4004H61.818V24.1004H55.018V24.0004Z" fill="#0B457F"/>
<path d="M82.4187 9.80078V24.0008H77.2188V18.6008H71.4187V24.0008H66.2188V9.80078H71.4187V14.8008H77.2188V9.80078H82.4187Z" fill="#0B457F"/>
<path d="M85.3164 24.0008L91.0164 9.80078H95.8164C97.0164 9.80078 97.5164 10.2008 97.8164 11.0008L103.316 24.0008H97.7164L94.1164 15.2008C93.9164 14.6008 93.5164 14.6008 93.3164 15.2008L89.8164 24.0008H85.3164Z" fill="#0B457F"/>
<path d="M117.417 23.2008L110.817 17.0008C110.617 16.7008 110.417 16.8008 110.417 17.2008V24.0008H106.117V9.80078H108.917C109.917 9.80078 110.517 10.0008 111.017 10.4008L117.917 16.8008C118.117 17.1008 118.317 16.9008 118.317 16.6008V9.80078H122.617V23.3008C122.617 23.7008 122.417 24.0008 121.917 24.0008H119.617C118.717 24.0008 118.017 23.7008 117.417 23.2008Z" fill="#0B457F"/>
<path d="M142.817 24.0004H134.917C129.517 24.0004 126.617 22.2004 126.617 16.8004C126.617 12.0004 129.417 9.90039 135.017 9.90039H143.417V13.6004H135.217C132.617 13.6004 131.817 14.2004 131.817 16.9004C131.817 19.8004 132.517 20.6004 135.217 20.6004H138.317C138.517 20.6004 138.617 20.4004 138.617 20.2004V18.8004C138.617 18.6004 138.517 18.4004 138.317 18.4004H135.817V15.4004H142.617C143.017 15.4004 143.317 15.6004 143.317 16.1004V23.3004C143.517 23.7004 143.217 24.0004 142.817 24.0004Z" fill="#0B457F"/>
<path d="M146.516 24.0008L152.216 9.80078H156.916C158.216 9.80078 158.616 10.2008 159.016 11.0008L164.416 24.0008H158.916L155.316 15.2008C155.116 14.6008 154.716 14.6008 154.516 15.2008L151.016 24.0008H146.516Z" fill="#0B457F"/>
<path d="M178.616 23.2008L172.016 17.0008C171.716 16.7008 171.616 16.8008 171.616 17.2008V24.0008H167.316V9.80078H170.016C171.016 9.80078 171.716 10.0008 172.216 10.4008L179.116 16.8008C179.316 17.1008 179.516 16.9008 179.516 16.6008V9.80078H183.816V23.3008C183.816 23.7008 183.616 24.0008 183.116 24.0008H180.816C179.916 24.0008 179.216 23.7008 178.616 23.2008Z" fill="#0B457F"/>
</svg>
