<svg width="164" height="38" viewBox="0 0 164 38" fill="none" xmlns="http://www.w3.org/2000/svg">
<path d="M159.491 37.7347H7.04332L8.48281 34.1331H160.936L159.491 37.7347Z" fill="#D6001C"/>
<path d="M114.021 27.8446C113.778 28.6915 112.981 29.2079 112.241 28.9971C111.5 28.7868 111.095 27.9294 111.338 27.0825C111.58 26.2356 112.377 25.7192 113.118 25.93C113.858 26.1403 114.263 26.9977 114.021 27.8446ZM116.241 16.1541C116.241 16.1541 116.084 20.6808 113.108 23.256L116.241 16.1541ZM52.5417 27.3735C52.092 28.4052 50.9706 28.9508 50.1317 28.5874C49.2919 28.2241 49.0506 27.1008 49.5007 26.069C49.9512 25.0373 51.019 24.5084 51.8579 24.8723C52.6977 25.2356 52.9914 26.3418 52.5417 27.3735ZM30.9688 11.0033C30.9688 11.0033 32.0651 15.1396 27.4449 20.0567L30.9688 11.0033ZM156.651 28.2074C155.946 28.2074 156.186 27.4032 156.186 27.4032L158.497 22.0041L151.745 22.0139L150.517 24.8796H153.964L152.535 28.2074H137.645C136.888 28.2376 137.069 27.6265 137.069 27.6265L139.128 22.0088L135.93 22.0139L133.662 28.0945C133.579 28.2881 133.288 28.6197 132.752 28.499C132.167 28.3183 132.488 27.5094 132.488 27.5094L134.327 22.0139L131.12 22.0119L129.04 28.2074L116.045 28.2116C116.867 25.2851 114.518 24.1144 114.518 24.1144C122.504 16.3884 115.946 10.3516 115.946 10.3516L108.309 28.2074C108.309 28.2074 95.0745 28.2178 93.7126 28.2074C92.3506 28.1975 92.7942 27.5141 93.0469 27.2928C94.1872 26.2585 98.8961 22.0077 98.8961 22.0077H94.7856L90.5043 25.6234L95.6076 13.6961H91.6144L86.1263 28.1975C86.1263 28.1975 72.5578 28.2028 70.1042 28.2038C69.8411 28.2038 69.6009 28.0455 69.5099 27.7993C69.3201 27.2845 69.3515 26.638 69.6453 26.0362C70.1481 25.004 71.2309 24.4938 72.0634 24.8968C72.5437 25.1294 72.8346 25.6151 72.8995 26.1825H75.5392C75.573 24.409 74.7937 22.8234 73.3492 22.1243C71.197 21.0827 68.3977 22.4013 67.0974 25.0691C66.5897 26.1112 66.3898 27.2038 66.4575 28.2116H55.2125C56.1409 25.6323 55.341 22.9785 53.2545 22.0749C51.0524 21.1207 48.2499 22.5074 47.0697 25.2138C46.6325 26.2169 46.4447 27.2522 46.4935 28.2074H35.8021C33.9234 28.0908 34.5319 26.2215 34.5319 26.2215L41.2265 10.6525H36.2936L31.36 22.8265C29.7884 26.0368 28.3485 26.9113 28.0498 27.0315C25.6211 28.0086 26.0749 25.0508 26.0749 25.0508C38.8774 12.2911 30.538 0 30.538 0L21.7295 24.3486C9.27904 29.7331 3.28888 22.5928 3.28888 22.5928L0 29.1481C11.1588 35.7038 21.1419 28.563 21.1419 28.563C21.9405 30.9513 23.0478 31.9887 24.2109 32.2651C27.6288 32.8971 30.0684 29.2652 30.0684 29.2652C30.8137 31.5759 32.7634 31.7831 33.034 31.7867C33.3045 31.7909 43.2526 31.7867 43.2526 31.7867C45.8363 31.7867 46.9782 30.1855 47.0068 30.186C47.3828 30.9091 47.9554 31.4885 48.723 31.8211C50.4456 32.5675 52.6179 31.8487 54.0483 30.2069C54.5826 31.7013 55.8995 31.7867 55.8995 31.7867C55.8995 31.7867 62.4474 31.7956 64.0032 31.7867C65.5187 31.7789 66.9491 30.2979 67.0237 30.2204C67.3956 30.8976 67.9863 31.7419 69.0271 31.7867C69.0263 31.7867 81.4428 31.7841 82.3438 31.7867C83.6211 31.7909 85.4102 30.198 85.4102 30.198L84.7546 31.7867H87.8714L88.9711 29.223C89.7274 31.465 91.5113 31.7831 91.7349 31.7867C91.9585 31.7909 105.373 31.7867 105.373 31.7867C107.331 31.8169 108.653 30.1782 108.653 30.1782C109.386 31.5316 110.193 31.9981 111.048 32.0897C113.282 32.3286 114.753 30.6701 114.753 30.6701C114.988 31.6066 115.843 31.7878 116.047 31.7867C116.251 31.7857 125.782 31.7867 125.782 31.7867C127.85 31.5858 128.98 30.2287 128.98 30.2287C129.447 31.6711 130.539 32.0241 131.291 32.1048C133.405 32.2464 134.485 30.2016 134.485 30.2016C135.224 31.5962 136.422 31.7878 136.717 31.7867C137.012 31.7857 149.741 31.7867 149.741 31.7867C151.503 31.6701 152.323 30.1881 152.323 30.1881C152.732 31.5088 153.515 31.7878 153.897 31.7867C154.279 31.7857 161.957 31.7867 161.957 31.7867L163.493 28.2048L156.651 28.2074Z" fill="#D6001C"/>
</svg>
