<svg width="339" height="125" viewBox="0 0 339 125" fill="none" xmlns="http://www.w3.org/2000/svg">
<g opacity="0.5" clip-path="url(#clip0_1135_72803)">
<path d="M8.29688 103.873C22.998 106.915 37.8447 109.812 52.5459 112.854L296.935 111.116C304.649 107.494 312.509 103.728 320.223 100.106C317.458 82.1437 303.63 68.2372 287.328 66.0643C267.387 63.3119 246.863 78.2325 243.079 100.831C196.064 101.41 149.05 102.134 102.035 102.714C103.491 83.0129 87.4794 66.4989 68.5571 66.7886C50.0715 66.9334 34.6425 83.7372 36.5347 103.293C27.0736 103.438 17.758 103.728 8.29688 103.873Z" fill="#6C767A" stroke="#416388" stroke-width="0.6782" stroke-linejoin="round"/>
<path d="M337.982 77.5081C337.836 75.4801 337.545 73.7417 337.108 72.1483C336.817 70.5548 335.798 69.2511 334.634 68.2371C333.615 67.5128 332.742 66.6436 331.723 65.4847C326.337 59.4006 325.61 52.1576 325.464 49.1156C325.027 47.667 324.445 45.9287 323.572 44.0455C322.99 42.8866 322.407 41.7277 321.825 40.8586C321.68 40.5688 321.534 40.424 321.388 40.1343C319.933 37.9614 318.332 36.223 315.712 33.6156C312.509 30.7184 307.561 26.6623 300.428 22.6062C301.593 20.5782 305.814 13.6249 306.833 12.0315C304.213 11.3072 300.283 10.438 295.771 9.42398C265.349 2.90529 241.333 1.60155 234.928 1.45669C200.431 0.00809407 170.156 4.93333 151.524 8.84454C152.252 9.85856 152.834 10.7277 153.562 11.7417C142.063 15.0735 133.184 18.8399 127.362 21.5922C110.187 29.4146 103.345 35.4987 88.4987 39.41C85.442 40.1343 82.6765 40.7137 80.0565 41.1483C75.2531 41.8726 71.032 42.0174 68.1209 42.1623C58.8053 43.3212 47.1608 45.7838 34.2063 50.4193C20.524 55.3445 9.60734 61.4287 1.4562 66.6436C1.31064 67.0782 1.31064 67.6576 1.16509 68.0922C2.18398 68.9614 3.20287 70.1202 4.07621 71.424C6.4051 74.7558 7.56955 78.0875 8.00622 80.695C8.29733 81.9987 7.86066 83.4473 6.84177 84.4614C6.4051 85.0408 5.82288 85.4754 5.0951 86.0548C3.63954 87.2137 2.18398 87.938 1.01953 88.5174C1.74731 93.4427 2.91176 97.7885 4.22176 101.41C5.0951 103.873 7.27844 105.611 9.89845 105.756C20.2329 106.335 30.713 106.915 41.0474 107.639C38.4274 87.5034 51.2364 70.9894 68.8486 70.5548C87.6254 70.2651 101.599 86.7791 98.9788 107.784H248.174C244.826 87.5034 258.654 70.5548 277.139 70.1202C294.897 69.6857 307.852 84.8959 307.124 103.873C318.623 104.597 323.281 101.989 325.609 99.6716C326.628 98.6576 327.356 97.4987 329.831 94.7464C331.723 92.7184 333.47 90.9801 335.071 89.5315C336.817 87.938 337.982 85.6202 338.127 83.1576C338.273 81.4193 338.127 79.5361 337.982 77.5081Z" fill="#EAF5F9" stroke="#416388" stroke-width="1.2" stroke-linejoin="round"/>
<path d="M98.1047 48.8259C95.1936 49.1156 94.0292 45.3492 96.358 43.7558C113.97 32.4567 142.645 17.5361 180.926 11.3072C225.03 4.20904 260.982 12.0315 280.486 17.8259C282.088 18.2604 282.961 20.1436 282.088 21.7371C281.214 23.3305 280.05 25.2137 278.594 27.0969C276.556 29.7044 274.519 31.7324 272.626 33.181C272.19 33.4707 271.753 33.7604 271.171 33.7604C213.676 38.6857 155.89 43.7558 98.1047 48.8259Z" stroke="#416388" stroke-width="0.6782" stroke-linejoin="round"/>
<path d="M315.564 33.7602C318.329 36.2228 319.93 38.106 321.24 40.2789C321.386 40.5686 321.532 40.7135 321.677 41.0032C319.639 36.2228 316.583 30.7181 311.925 25.0686C309.159 21.7368 306.394 18.9845 303.774 16.8116C302.609 18.8396 301.445 20.7228 300.135 22.7508C307.413 26.6621 312.361 30.863 315.564 33.7602Z" fill="#99A5A9" stroke="#416388" stroke-width="0.6782" stroke-miterlimit="10"/>
<path d="M127.069 21.592C132.892 18.8396 141.916 15.2181 153.269 11.7415C152.542 10.7275 151.959 9.85832 151.232 8.8443C140.024 13.0452 127.943 17.8256 115.425 23.4751C102.616 29.2695 90.8258 35.2088 80.0547 41.0032C82.6747 40.5686 85.5858 39.9892 88.4969 39.2649C103.344 35.4985 110.185 29.4144 127.069 21.592Z" fill="#99A5A9" stroke="#416388" stroke-width="0.6782" stroke-miterlimit="10"/>
<path d="M194.17 12.176C189.949 12.6105 185.582 13.19 181.361 13.9143C151.813 18.6947 122.993 29.8489 97.8116 46.0732C97.666 46.0732 97.666 46.218 97.666 46.218C97.666 46.3629 97.8116 46.3629 97.8116 46.3629L188.784 38.3956L194.17 12.176Z" fill="#99A5A9" stroke="#416388" stroke-width="0.6782" stroke-miterlimit="10"/>
<path d="M279.905 20.4329C279.905 20.288 279.905 20.288 279.905 20.4329C274.665 18.6945 269.425 17.3908 264.039 16.2319L271.754 30.5731C273.5 29.1245 275.101 27.3861 276.557 25.503C277.721 23.9095 278.886 22.316 279.759 20.4329C279.905 20.5777 280.05 20.4329 279.905 20.4329Z" fill="#99A5A9"/>
<path d="M257.633 14.9284C244.097 12.3209 230.269 11.0172 216.441 11.0172C212.948 11.0172 209.454 11.162 205.815 11.3069L203.195 37.0919L264.765 31.7321L257.633 14.9284Z" fill="#99A5A9"/>
<path d="M279.905 20.4329C279.905 20.288 279.905 20.288 279.905 20.4329C274.665 18.6945 269.425 17.3908 264.039 16.2319L271.754 30.5731C273.5 29.1245 275.101 27.3861 276.557 25.503C277.721 23.9095 278.886 22.316 279.759 20.4329C279.905 20.5777 280.05 20.4329 279.905 20.4329Z" stroke="#416388" stroke-width="0.6782" stroke-miterlimit="10"/>
<path d="M257.633 14.9284C244.097 12.3209 230.269 11.0172 216.441 11.0172C212.948 11.0172 209.454 11.162 205.815 11.3069L203.195 37.0919L264.765 31.7321L257.633 14.9284Z" stroke="#416388" stroke-width="0.6782" stroke-miterlimit="10"/>
<path d="M279.905 20.4329C279.905 20.288 279.905 20.288 279.905 20.4329C274.665 18.6945 269.425 17.3908 264.039 16.2319L271.754 30.5731C273.5 29.1245 275.101 27.3861 276.557 25.503C277.721 23.9095 278.886 22.316 279.759 20.4329C279.905 20.5777 280.05 20.4329 279.905 20.4329Z" stroke="#464C51" stroke-width="0.6782" stroke-miterlimit="10"/>
<path d="M257.633 14.9284C244.097 12.3209 230.269 11.0172 216.441 11.0172C212.948 11.0172 209.454 11.162 205.815 11.3069L203.195 37.0919L264.765 31.7321L257.633 14.9284Z" stroke="#464C51" stroke-width="0.6782" stroke-miterlimit="10"/>
<path d="M183.109 54.0406C183.109 53.1715 179.034 52.7369 173.939 53.1715C168.99 53.4612 164.915 54.4752 165.06 55.3444C165.06 56.2135 169.136 56.6481 174.23 56.2135C179.179 55.7789 183.109 54.9098 183.109 54.0406Z" stroke="#416388" stroke-width="0.6782" stroke-linejoin="round"/>
<path d="M264.766 47.6671C264.766 46.7979 260.69 46.3633 255.596 46.7979C250.647 47.0876 246.571 48.1017 246.717 48.9708C246.717 49.84 250.792 50.2746 255.887 49.84C260.836 49.5503 264.911 48.5362 264.766 47.6671Z" stroke="#416388" stroke-width="0.6782" stroke-linejoin="round"/>
<path d="M107.13 47.9565C106.548 51.1434 106.111 54.4751 105.82 58.0966C104.364 74.4658 106.111 88.9518 109.022 100.541C137.406 99.9611 165.789 99.5265 194.173 98.9471C192.863 83.4471 192.426 64.905 194.609 44.1901C196.065 31.1527 198.103 19.4191 200.723 8.8443" stroke="#416388" stroke-width="0.6782" stroke-linejoin="round"/>
<path d="M259.38 12.1765C261.127 15.5082 263.892 20.7232 267.095 27.097C269.278 31.2979 271.898 36.5129 272.189 37.3821C274.081 41.4381 275.246 54.0409 236.528 98.0783C222.409 98.368 208.29 98.6578 194.025 98.9475" stroke="#416388" stroke-width="0.6782" stroke-linejoin="round"/>
<path d="M6.98648 84.606C8.00537 83.592 8.29648 82.1434 8.15093 80.8396C7.71426 78.2321 6.54981 74.9004 4.22092 71.5686C3.20202 70.2649 2.18313 69.106 1.30979 68.2368C0.72757 72.148 0.436458 76.7835 0.582015 81.9985C0.727571 84.3163 0.873127 86.634 1.30979 88.6621C2.32869 88.2275 3.78425 87.5032 5.38536 86.1994C5.96759 85.7649 6.54981 85.1854 6.98648 84.606Z" fill="#99A5A9" stroke="#416388" stroke-width="0.6782" stroke-linejoin="round"/>
<path d="M12.0803 93.8772L21.1047 91.7043C22.5603 91.4146 24.0158 92.2838 24.4525 93.7324L25.1803 96.0501C25.7625 97.7884 24.4525 99.6716 22.7058 99.8165L13.2447 100.541C11.9347 100.686 10.7702 99.8165 10.3336 98.5127C10.188 98.223 10.188 97.9333 10.0425 97.6436C9.46024 96.0501 10.4791 94.1669 12.0803 93.8772Z" fill="#99A5A9" stroke="#416388" stroke-width="0.6782" stroke-linejoin="round"/>
<path d="M44.5391 60.9939L57.4935 73.4518" stroke="#416388" stroke-width="0.6782" stroke-linejoin="round"/>
<path d="M13.101 64.6157L9.02539 62.1531" stroke="#416388" stroke-width="0.6782" stroke-linejoin="round"/>
<path d="M293.296 74.6107C293.15 74.4659 312.218 60.5593 312.218 60.5593L293.296 74.6107Z" fill="white"/>
<path d="M293.296 74.6107C293.15 74.4659 312.218 60.5593 312.218 60.5593" stroke="#416388" stroke-width="0.6782" stroke-linejoin="round"/>
<path d="M281.795 6.81653C282.377 8.84457 283.25 11.3072 284.415 13.7698C286.307 17.8259 288.636 21.1576 290.528 23.4754" stroke="#416388" stroke-width="0.6782" stroke-linejoin="round"/>
<path d="M290.383 23.3303C294.749 25.5032 299.844 28.6901 305.23 33.0359C313.235 39.5546 318.621 46.6527 322.114 51.8677C315.418 49.4051 308.868 46.9425 302.173 44.6247L290.383 23.3303Z" fill="#99A5A9"/>
<path d="M38.2811 54.4752C38.1355 54.4752 38.1355 54.4752 37.99 54.4752C33.7689 55.4892 28.5288 56.9378 22.9977 59.4004C17.9032 61.7182 13.5366 64.1808 10.0432 66.4985C9.31544 66.9331 9.75211 67.9471 10.6254 67.9471C14.1188 67.6574 17.6121 67.078 21.3966 66.4985C33.6233 64.4705 44.54 61.2836 53.71 57.8069C54.4378 57.5172 54.2923 56.3583 53.5645 56.3583C48.47 55.7789 43.3756 55.0546 38.2811 54.4752Z" fill="#99A5A9"/>
<path d="M22.8523 95.4704C22.8523 93.877 22.2701 92.5732 21.6879 92.5732C20.9601 92.5732 20.5234 93.877 20.5234 95.4704C20.5234 97.0639 21.1057 98.3676 21.6879 98.3676C22.4157 98.3676 22.8523 97.0639 22.8523 95.4704Z" fill="#99A5A9"/>
<path d="M290.383 23.3303C294.749 25.5032 299.844 28.6901 305.23 33.0359C313.235 39.5546 318.621 46.6527 322.114 51.8677C315.418 49.4051 308.868 46.9425 302.173 44.6247L290.383 23.3303Z" fill="#87999E" stroke="#416388" stroke-width="0.6782" stroke-linejoin="round"/>
<path d="M38.2811 54.4752C38.1355 54.4752 38.1355 54.4752 37.99 54.4752C33.7689 55.4892 28.5288 56.9378 22.9977 59.4004C17.9032 61.7182 13.5366 64.1808 10.0432 66.4985C9.31544 66.9331 9.75211 67.9471 10.6254 67.9471C14.1188 67.6574 17.6121 67.078 21.3966 66.4985C33.6233 64.4705 44.54 61.2836 53.71 57.8069C54.4378 57.5172 54.2923 56.3583 53.5645 56.3583C48.47 55.7789 43.3756 55.0546 38.2811 54.4752Z" fill="white" stroke="#416388" stroke-width="0.6782" stroke-linejoin="round"/>
<path d="M22.8523 95.4704C22.8523 93.877 22.2701 92.5732 21.6879 92.5732C20.9601 92.5732 20.5234 93.877 20.5234 95.4704C20.5234 97.0639 21.1057 98.3676 21.6879 98.3676C22.4157 98.3676 22.8523 97.0639 22.8523 95.4704Z" fill="white" stroke="#416388" stroke-width="0.6782" stroke-linejoin="round"/>
<path d="M290.383 23.3303C294.749 25.5032 299.844 28.6901 305.23 33.0359C313.235 39.5546 318.621 46.6527 322.114 51.8677C315.418 49.4051 308.868 46.9425 302.173 44.6247L290.383 23.3303Z" stroke="#2B3032" stroke-width="0.6782" stroke-linejoin="round"/>
<path d="M38.2811 54.4752C38.1355 54.4752 38.1355 54.4752 37.99 54.4752C33.7689 55.4892 28.5288 56.9378 22.9977 59.4004C17.9032 61.7182 13.5366 64.1808 10.0432 66.4985C9.31544 66.9331 9.75211 67.9471 10.6254 67.9471C14.1188 67.6574 17.6121 67.078 21.3966 66.4985C33.6233 64.4705 44.54 61.2836 53.71 57.8069C54.4378 57.5172 54.2923 56.3583 53.5645 56.3583C48.47 55.7789 43.3756 55.0546 38.2811 54.4752Z" stroke="#2B3032" stroke-width="0.6782" stroke-linejoin="round"/>
<path d="M22.8523 95.4704C22.8523 93.877 22.2701 92.5732 21.6879 92.5732C20.9601 92.5732 20.5234 93.877 20.5234 95.4704C20.5234 97.0639 21.1057 98.3676 21.6879 98.3676C22.4157 98.3676 22.8523 97.0639 22.8523 95.4704Z" stroke="#2B3032" stroke-width="0.6782" stroke-linejoin="round"/>
<path d="M38.1367 54.4753C42.5034 53.6062 49.0534 52.4473 56.9134 51.4333C61.7168 50.8538 64.7735 50.5641 67.9757 50.2744C74.3802 49.5501 83.5502 48.3912 95.0491 46.3632" stroke="#416388" stroke-width="0.6782" stroke-linejoin="round"/>
<path d="M302.32 44.6248C303.194 47.8117 305.668 54.6201 312.073 60.4145C321.679 69.1061 333.033 69.3958 335.944 69.3958" stroke="#416388" stroke-width="0.6782" stroke-linejoin="round"/>
<path d="M80.6387 62.8771C114.844 58.0967 157.056 54.1855 194.9 50.9986C232.308 47.8117 268.115 45.7836 302.32 44.6248" stroke="#416388" stroke-width="0.6782" stroke-linejoin="round"/>
<path d="M70.1569 123.284C84.3053 123.284 95.7748 112.129 95.7748 98.368C95.7748 84.6074 84.3053 73.4521 70.1569 73.4521C56.0086 73.4521 44.5391 84.6074 44.5391 98.368C44.5391 112.129 56.0086 123.284 70.1569 123.284Z" fill="#99A5A9" stroke="#416388" stroke-width="1.2" stroke-linejoin="round"/>
<path d="M70.1568 117.345C80.9289 117.345 89.6614 108.848 89.6614 98.3679C89.6614 87.8874 80.9289 79.3912 70.1568 79.3912C59.3848 79.3912 50.6523 87.8874 50.6523 98.3679C50.6523 108.848 59.3848 117.345 70.1568 117.345Z" fill="white" stroke="#416388" stroke-width="0.6782" stroke-linejoin="round"/>
<path d="M72.1947 98.2232C72.1947 99.3821 71.3214 100.251 70.1569 100.251C68.9925 100.251 68.1191 99.3821 68.1191 98.2232C68.1191 97.0644 68.9925 96.1952 70.1569 96.1952C71.3214 96.1952 72.1947 97.0644 72.1947 98.2232Z" stroke="#416388" stroke-width="0.6782" stroke-linecap="round" stroke-linejoin="round"/>
<path d="M70.1562 115.461C70.7385 115.461 71.4662 115.461 72.3396 115.316C72.6307 115.316 72.9218 115.172 73.2129 115.172C73.504 115.027 73.7951 114.882 74.0863 114.737L75.1051 113.433C75.5418 112.854 75.5418 112.13 75.1051 111.695L71.3207 106.915C70.7385 106.19 69.7196 106.19 69.1373 106.915L65.3529 111.55C64.9162 112.13 64.9162 112.854 65.3529 113.288L66.3718 114.592C66.5173 114.882 66.8085 115.027 67.2451 115.027C67.5362 115.027 67.8273 115.172 68.1185 115.172C68.8462 115.461 69.574 115.461 70.1562 115.461Z" fill="#D2DBDD" stroke="#416388" stroke-width="0.6782" stroke-linejoin="round"/>
<path d="M86.6039 103.583C86.7495 103.004 87.0406 102.279 87.1861 101.41C87.1861 101.12 87.3317 100.831 87.3317 100.541C87.3317 100.251 87.3317 99.9616 87.0406 99.6718L86.0217 98.2232C85.585 97.6438 85.0028 97.4989 84.275 97.6438L78.5983 99.8167C77.725 100.106 77.4339 101.12 77.8705 101.99L81.2183 106.915C81.655 107.494 82.2372 107.639 82.965 107.494L84.5661 106.915C84.8572 106.77 85.1483 106.625 85.2939 106.335C85.4395 106.046 85.585 105.901 85.7306 105.611C86.1672 104.887 86.4583 104.163 86.6039 103.583Z" fill="#D2DBDD" stroke="#416388" stroke-width="0.6782" stroke-linejoin="round"/>
<path d="M80.6378 84.6062C80.2012 84.1716 79.4734 83.737 78.7456 83.4473C78.4545 83.3024 78.3089 83.1576 78.0178 83.1576C77.7267 83.0127 77.4356 83.0127 76.9989 83.0127L75.3978 83.4473C74.8156 83.5921 74.3789 84.1716 74.3789 84.8959L74.5245 90.8351C74.5245 91.7043 75.3978 92.4286 76.2711 92.1389L82.0934 90.6903C82.6756 90.5454 83.1123 89.966 83.1123 89.2417V87.5034C83.1123 87.2136 82.9667 86.9239 82.8212 86.6342C82.6756 86.4893 82.53 86.1996 82.2389 86.0548C81.6567 85.4753 81.0745 85.0407 80.6378 84.6062Z" fill="#D2DBDD" stroke="#416388" stroke-width="0.6782" stroke-linejoin="round"/>
<path d="M59.8221 84.751C59.2399 85.0407 58.8032 85.6202 58.221 86.1996C58.0754 86.3445 57.7843 86.6342 57.6388 86.779C57.4932 87.0688 57.3477 87.3585 57.3477 87.6482V89.3865C57.3477 90.1108 57.7843 90.6902 58.3665 90.8351L64.1888 92.2837C65.0621 92.5734 65.9355 91.8491 65.9355 90.98L66.081 85.0407C66.081 84.3164 65.6443 83.737 65.0621 83.5921L63.461 83.1575C63.1699 83.0127 62.8788 83.1575 62.4421 83.3024C62.151 83.4473 62.0054 83.5921 61.7143 83.5921C60.9866 83.8818 60.4043 84.3164 59.8221 84.751Z" fill="#D2DBDD" stroke="#416388" stroke-width="0.6782" stroke-linejoin="round"/>
<path d="M53.7102 103.583C53.8558 104.162 54.1469 104.887 54.5835 105.611C54.7291 105.901 54.8746 106.045 55.0202 106.335C55.1658 106.625 55.4569 106.77 55.748 106.915L57.3491 107.494C57.9313 107.784 58.6591 107.494 59.0958 106.915L62.4436 101.989C62.8802 101.265 62.5891 100.251 61.7158 99.8165L56.0391 97.6436C55.4569 97.3538 54.7291 97.6436 54.2924 98.223L53.2735 99.6716C53.128 99.9613 52.9824 100.251 52.9824 100.541C52.9824 100.83 52.9824 101.12 53.128 101.41C53.4191 102.279 53.5646 103.003 53.7102 103.583Z" fill="#D2DBDD" stroke="#416388" stroke-width="0.6782" stroke-linejoin="round"/>
<path d="M277.719 123.429C291.868 123.429 303.337 112.273 303.337 98.5127C303.337 84.752 291.868 73.5968 277.719 73.5968C263.571 73.5968 252.102 84.752 252.102 98.5127C252.102 112.273 263.571 123.429 277.719 123.429Z" fill="#99A5A9" stroke="#416388" stroke-width="1.2" stroke-linejoin="round"/>
<path d="M277.719 117.489C288.491 117.489 297.224 108.993 297.224 98.5125C297.224 88.032 288.491 79.5359 277.719 79.5359C266.947 79.5359 258.215 88.032 258.215 98.5125C258.215 108.993 266.947 117.489 277.719 117.489Z" fill="white" stroke="#416388" stroke-width="0.6782" stroke-linejoin="round"/>
<path d="M279.757 98.3679C279.757 99.5268 278.884 100.396 277.719 100.396C276.555 100.396 275.682 99.5268 275.682 98.3679C275.682 97.209 276.555 96.3398 277.719 96.3398C278.884 96.3398 279.757 97.209 279.757 98.3679Z" stroke="#416388" stroke-width="0.6782" stroke-linecap="round" stroke-linejoin="round"/>
<path d="M277.719 115.606C278.301 115.606 279.029 115.606 279.902 115.461C280.193 115.461 280.484 115.317 280.775 115.317C281.067 115.172 281.358 115.027 281.649 114.882L282.668 113.578C283.104 112.999 283.104 112.274 282.668 111.84L278.883 107.204C278.301 106.48 277.282 106.48 276.7 107.204L272.915 111.84C272.479 112.419 272.479 113.144 272.915 113.578L273.934 114.882C274.08 115.172 274.371 115.317 274.808 115.317C275.099 115.317 275.39 115.461 275.681 115.461C276.409 115.606 277.137 115.606 277.719 115.606Z" fill="#D2DBDD" stroke="#416388" stroke-width="0.6782" stroke-linejoin="round"/>
<path d="M294.166 103.728C294.312 103.148 294.603 102.424 294.749 101.555C294.749 101.265 294.894 100.975 294.894 100.686C294.894 100.396 294.894 100.106 294.603 99.8165L293.584 98.3679C293.148 97.7884 292.565 97.6436 291.838 97.7885L286.161 99.9614C285.287 100.251 284.996 101.265 285.433 102.134L288.781 107.059C289.217 107.639 289.8 107.784 290.528 107.639L292.129 107.059C292.42 106.915 292.711 106.77 292.856 106.48C293.002 106.19 293.148 106.045 293.293 105.756C293.73 105.031 294.021 104.307 294.166 103.728Z" fill="#D2DBDD" stroke="#416388" stroke-width="0.6782" stroke-linejoin="round"/>
<path d="M288.2 84.7508C287.764 84.3162 287.036 83.8816 286.308 83.5919C286.017 83.4471 285.871 83.3022 285.58 83.3022C285.289 83.1573 284.998 83.1573 284.561 83.1573L282.96 83.5919C282.378 83.7368 281.941 84.3162 281.941 85.0405L282.087 90.9798C282.087 91.8489 282.96 92.5732 283.834 92.2835L289.656 90.8349C290.238 90.6901 290.675 90.1106 290.675 89.3863V87.648C290.675 87.3583 290.529 87.0686 290.384 86.7788C290.238 86.634 290.093 86.3443 289.801 86.1994C289.219 85.4751 288.637 85.0405 288.2 84.7508Z" fill="#D2DBDD" stroke="#416388" stroke-width="0.6782" stroke-linejoin="round"/>
<path d="M267.385 84.751C266.802 85.0407 266.366 85.6202 265.783 86.1996C265.638 86.3445 265.347 86.6342 265.201 86.779C265.056 87.0688 264.91 87.3585 264.91 87.6482V89.3865C264.91 90.1108 265.347 90.6902 265.929 90.8351L271.751 92.2837C272.625 92.5734 273.498 91.8491 273.498 90.98L273.643 85.0407C273.643 84.3164 273.207 83.737 272.625 83.5921L271.023 83.1575C270.732 83.0127 270.441 83.1575 270.005 83.3024C269.713 83.4473 269.568 83.5921 269.277 83.5921C268.549 84.0267 267.967 84.4613 267.385 84.751Z" fill="#D2DBDD" stroke="#416388" stroke-width="0.6782" stroke-linejoin="round"/>
<path d="M261.417 103.727C261.563 104.307 261.854 105.031 262.291 105.756C262.436 106.045 262.582 106.19 262.727 106.48C262.873 106.77 263.164 106.914 263.455 107.059L265.056 107.639C265.638 107.928 266.366 107.639 266.803 107.059L270.151 102.134C270.587 101.41 270.296 100.396 269.423 99.9611L263.746 97.7882C263.164 97.4985 262.436 97.7882 261.999 98.3677L260.981 99.8162C260.835 100.106 260.689 100.396 260.689 100.685C260.689 100.975 260.689 101.265 260.835 101.555C260.981 102.424 261.126 103.148 261.417 103.727Z" fill="#D2DBDD" stroke="#416388" stroke-width="0.6782" stroke-linejoin="round"/>
<path d="M113.387 44.4797L117.899 47.5217C116.007 48.9703 114.115 50.5638 112.223 52.0124C112.077 52.0124 110.767 52.3021 109.748 51.2881C108.875 50.5638 108.875 49.4049 108.875 49.26L113.387 44.4797Z" fill="#D2DBDD" stroke="#416388" stroke-width="0.6782" stroke-miterlimit="10"/>
<path d="M124.887 37.9611C123.723 37.8163 122.267 37.8163 120.957 37.8163C117.61 37.9611 113.971 37.9611 112.661 40.134C111.642 41.7275 112.37 43.9004 113.388 45.0593C115.426 47.5219 119.647 48.2462 122.704 47.2322C123.286 44.0453 124.014 41.0032 124.887 37.9611Z" fill="#99A5A9" stroke="#416388" stroke-width="0.6782" stroke-linejoin="round"/>
</g>
<defs>
<clipPath id="clip0_1135_72803">
<rect width="339" height="124" fill="white" transform="translate(0 0.297852)"/>
</clipPath>
</defs>
</svg>
