<svg width="169" height="125" viewBox="0 0 169 125" fill="none" xmlns="http://www.w3.org/2000/svg">
<g opacity="0.5" clip-path="url(#clip0_1135_72901)">
<path d="M146.54 99.5555H26.791V107.803H146.54V99.5555Z" fill="#6C767A" stroke="#416388" stroke-width="0.6782" stroke-linejoin="round"/>
<path d="M31.762 104.331V118.8C31.762 121.259 29.715 123.43 27.0832 123.43H17.5792C15.0936 123.43 12.9004 121.404 12.9004 118.8V71.4858L31.762 104.331Z" fill="#99A5A9" stroke="#416388" stroke-width="1.2" stroke-linejoin="round"/>
<path d="M137.037 104.331V118.8C137.037 121.259 139.084 123.43 141.716 123.43H151.22C153.706 123.43 155.899 121.404 155.899 118.8V71.4858L137.037 104.331Z" fill="#99A5A9" stroke="#416388" stroke-width="1.2" stroke-linejoin="round"/>
<path d="M155.9 70.3281C155.9 66.8555 155.461 64.1064 155.022 62.3701C154.73 59.0422 154.145 54.9909 152.975 50.6501C151.806 46.02 150.197 42.1134 148.735 38.9302C146.834 33.7213 144.349 28.2231 141.425 22.2907C139.67 18.6735 137.769 15.3456 135.868 12.3071C133.237 7.96635 128.996 5.07253 124.025 4.34908C122.563 4.0597 121.101 3.915 119.492 3.77031C107.064 2.17872 95.3671 1.45526 84.5473 1.45526C73.7274 1.45526 62.0303 2.17872 49.6021 3.77031C48.1399 3.915 46.5316 4.20439 45.0695 4.34908C40.683 4.92784 36.8815 7.24289 34.2496 10.7155C34.1034 12.7411 33.811 15.635 32.495 19.1075C31.1791 22.4354 29.717 24.3164 27.5238 27.6443C25.7692 30.2487 23.2835 34.1554 20.3593 39.0749C18.8971 42.2581 17.435 46.1647 16.1191 50.7948C14.9493 55.1356 14.3645 59.1869 14.0721 62.5148C13.6334 64.3958 13.0486 67.1449 13.1948 70.4728C13.1948 73.2219 13.6334 75.2476 15.2418 82.4821C16.1191 86.3888 16.8501 89.572 17.2888 91.7423C17.2888 93.4786 17.435 96.2277 18.6047 99.4109C18.7509 99.845 18.8971 100.134 19.0433 100.568C20.2131 103.028 22.6987 104.475 25.3305 104.475H84.401H143.472C146.103 104.475 148.735 103.028 149.759 100.568C149.905 100.279 150.051 99.845 150.197 99.4109C151.513 96.2277 151.66 93.3339 151.513 91.7423C151.952 89.572 152.683 86.3888 153.56 82.4821C155.461 75.1029 155.9 73.0772 155.9 70.3281Z" fill="#EAF5F9" stroke="#416388" stroke-width="1.2" stroke-linejoin="round"/>
<path d="M42.7285 4.63855C43.1672 5.65139 43.4596 6.80891 43.752 8.11113C44.1907 10.2815 44.3369 12.1625 44.3369 13.7541" stroke="#416388" stroke-width="0.6782" stroke-linejoin="round"/>
<path d="M13.4863 75.9709C14.2174 72.7877 16.1182 65.9872 22.2592 60.3443C24.7448 58.0292 27.3767 56.4376 29.5699 55.4248" stroke="#416388" stroke-width="0.6782" stroke-linejoin="round"/>
<path d="M49.4547 69.6045C47.1152 69.7492 43.7523 70.328 39.9507 71.7749C37.4651 72.7877 36.1492 73.6559 34.687 74.2346C33.8098 74.6687 32.64 75.1028 31.4703 75.5369C25.0369 77.5625 18.0186 74.09 15.9716 67.5789V67.4342C14.9481 64.251 14.5095 61.3572 14.3633 59.0421" stroke="#416388" stroke-width="0.6782" stroke-linejoin="round"/>
<path d="M133.236 22.2906C134.114 22.58 134.991 23.0141 135.868 23.5928C137.33 24.461 138.5 25.3291 139.377 26.1973L137.915 24.1716C132.067 16.503 123.148 11.7282 113.351 11.2941C111.743 11.1494 109.988 11.1494 108.38 11.0048C100.192 10.7154 92.1502 10.5707 84.5471 10.5707C76.7977 10.5707 68.9022 10.7154 60.7142 11.0048C59.1058 11.0048 57.3513 11.1494 55.7429 11.2941C46.0928 11.7282 37.0275 16.503 31.1789 24.1716L29.7168 26.1973C30.5941 25.3291 31.7638 24.461 33.2259 23.5928C34.1032 23.0141 34.9805 22.58 35.8578 22.2906" stroke="#416388" stroke-width="0.6782" stroke-linejoin="round"/>
<path d="M126.071 4.63855C125.633 5.65139 125.34 6.80891 125.048 8.11113C124.609 10.2815 124.463 12.1625 124.463 13.7541" stroke="#416388" stroke-width="0.6782" stroke-linejoin="round"/>
<path d="M130.457 52.8206C128.995 54.8462 127.386 57.0166 125.632 59.187C124.462 60.6339 123.146 62.0808 121.976 63.5277C121.684 63.9617 121.099 64.6852 119.929 65.264C119.052 65.698 118.175 65.8427 117.297 65.8427C106.331 65.8427 95.3653 65.8427 84.3992 65.8427C73.4332 65.8427 62.4671 65.8427 51.5011 65.8427C50.6238 65.8427 49.6003 65.5533 48.8692 65.264C47.6995 64.6852 47.1146 63.8171 46.8222 63.5277C45.6525 62.0808 44.4828 60.6339 43.1669 59.187C41.4123 57.0166 39.8039 54.9909 38.3418 52.8206" stroke="#416388" stroke-width="0.6782" stroke-linejoin="round"/>
<path d="M142.886 46.1649L138.792 57.3061C136.891 62.6597 132.504 66.8557 126.948 68.592C124.755 69.3154 122.562 69.6048 120.222 69.6048H84.4H48.7237C46.3843 69.6048 44.1911 69.3154 41.9979 68.592C36.588 66.8557 32.2015 62.6597 30.1545 57.3061L26.0605 46.1649" stroke="#416388" stroke-width="0.6782" stroke-linejoin="round"/>
<path d="M155.46 75.9709C154.729 72.7877 152.829 65.9872 146.688 60.3443C144.202 58.0292 141.57 56.4376 139.377 55.4248" stroke="#416388" stroke-width="0.6782" stroke-linejoin="round"/>
<path d="M119.492 69.6045C121.832 69.7492 125.195 70.328 128.996 71.7749C131.482 72.7877 132.798 73.6559 134.26 74.2346C135.137 74.6687 136.307 75.1028 137.477 75.5369C143.91 77.5625 150.928 74.09 152.975 67.5789V67.4342C153.999 64.251 154.437 61.3572 154.584 59.0421" stroke="#416388" stroke-width="0.6782" stroke-linejoin="round"/>
<path d="M84.3992 50.2162H115.689L111.595 56.5826C109.84 59.187 106.916 60.9233 103.699 60.9233H84.3992H65.2451C62.0284 60.9233 59.1042 59.3317 57.3496 56.5826L53.1094 50.2162H84.3992Z" stroke="#416388" stroke-width="0.6782" stroke-linejoin="round"/>
<path d="M137.036 104.33L133.819 100.713C129.872 96.3724 124.316 93.7679 118.321 93.7679H84.3991H50.6236C44.6288 93.7679 39.0727 96.2277 35.1249 100.713L31.9082 104.33" stroke="#416388" stroke-width="0.6782" stroke-linejoin="round"/>
<path d="M84.4003 13.4646H97.2671V10.8602H84.4003H71.6797V13.4646H84.4003Z" fill="#D2DBDD" stroke="#416388" stroke-width="0.6782" stroke-linejoin="round"/>
<path d="M29.5692 26.1971C28.2533 28.6569 26.7911 32.5635 26.06 37.3383C25.6214 40.8109 25.7676 43.9941 26.06 46.3092C26.9373 47.322 28.2533 48.4795 29.8616 49.637C33.2245 51.8074 36.4412 52.5309 38.4882 52.8202C36.295 49.7817 33.3707 45.0069 31.47 38.6406C30.0078 33.7211 29.5692 29.3803 29.5692 26.1971Z" fill="#99A5A9" stroke="#416388" stroke-width="0.6782" stroke-linejoin="round"/>
<path d="M139.376 26.1971C140.692 28.6569 142.154 32.5635 142.885 37.3383C143.324 40.8109 143.178 43.9941 142.885 46.3092C142.008 47.322 140.692 48.4795 139.084 49.637C135.721 51.8074 132.504 52.5309 130.457 52.8202C132.65 49.7817 135.575 45.0069 137.475 38.6406C138.937 33.7211 139.23 29.3803 139.376 26.1971Z" fill="#99A5A9" stroke="#416388" stroke-width="0.6782" stroke-linejoin="round"/>
<path d="M35.1259 84.942L30.8856 87.8358C30.3008 88.2699 29.5697 88.4146 28.8386 88.4146H20.7969C21.8204 87.4018 23.4287 86.0995 25.9144 85.2314C30.0084 83.7845 33.6637 84.5079 35.1259 84.942Z" fill="#99A5A9" stroke="#416388" stroke-width="0.6782" stroke-linejoin="round"/>
<path d="M133.82 84.9421L138.061 87.8359C138.645 88.27 139.376 88.4146 140.108 88.4146H148.149C147.126 87.4018 145.517 86.0996 143.032 85.2315C138.938 83.7846 135.282 84.508 133.82 84.9421Z" fill="#99A5A9" stroke="#416388" stroke-width="0.6782" stroke-linejoin="round"/>
<path d="M84.4002 15.6348H108.526C117.152 15.6348 125.779 17.9499 133.236 22.2906C129.727 31.1167 121.1 36.9044 111.596 36.9044H84.4002H57.3506C47.8467 36.9044 39.2201 31.1167 35.7109 22.2906C43.1679 17.9499 51.6483 15.6348 60.4211 15.6348H84.4002Z" fill="#99A5A9" stroke="#416388" stroke-width="0.6782" stroke-linejoin="round"/>
<path d="M32.3487 18.8182C33.6646 15.4903 33.957 12.4518 34.1032 10.4261C33.6646 10.8602 33.3722 11.439 33.0797 12.0177C31.1789 15.2009 29.2782 18.5288 27.5236 22.0014C24.4531 27.9337 22.1137 33.5767 20.2129 38.6408C23.1372 33.7214 25.6228 29.8147 27.3774 27.2103C29.7168 24.0271 31.1789 22.1461 32.3487 18.8182Z" fill="#99A5A9" stroke="#416388" stroke-width="0.6782" stroke-linejoin="round"/>
<path d="M136.454 18.8182C135.138 15.4903 134.845 12.4518 134.699 10.4261C135.138 10.8602 135.43 11.439 135.723 12.0177C137.623 15.2009 139.524 18.5288 141.279 22.0014C144.349 27.9337 146.689 33.5767 148.59 38.6408C145.665 33.7214 143.18 29.8147 141.425 27.2103C139.232 24.0271 137.77 22.1461 136.454 18.8182Z" fill="#99A5A9" stroke="#416388" stroke-width="0.6782" stroke-linejoin="round"/>
<path d="M10.2695 48.4797C10.4157 48.7691 14.656 57.3058 14.656 57.3058L18.4575 51.6629L15.6795 46.7434L10.2695 48.4797Z" fill="white" stroke="#416388" stroke-width="0.6782" stroke-linejoin="round"/>
<path d="M17.5805 43.126C17.5805 40.2322 13.9252 37.7725 9.24631 37.7725C4.71368 37.7725 0.912109 40.0875 0.912109 43.126C0.912109 46.1645 4.56746 48.4796 9.24631 48.4796C13.7789 48.4796 17.5805 46.0198 17.5805 43.126Z" fill="#99A5A9" stroke="#416388" stroke-width="0.6782" stroke-linejoin="round"/>
<path d="M9.24592 46.4541C12.799 46.4541 15.6793 44.9642 15.6793 43.1262C15.6793 41.2883 12.799 39.7983 9.24592 39.7983C5.69284 39.7983 2.8125 41.2883 2.8125 43.1262C2.8125 44.9642 5.69284 46.4541 9.24592 46.4541Z" fill="#D2DBDD" stroke="#416388" stroke-width="0.6782" stroke-linejoin="round"/>
<path d="M158.678 48.4796C158.532 48.769 154.292 57.3058 154.292 57.3058L150.49 51.6628L153.268 46.7433L158.678 48.4796Z" fill="white" stroke="#416388" stroke-width="0.6782" stroke-linejoin="round"/>
<path d="M151.367 43.126C151.367 40.2322 155.023 37.7725 159.701 37.7725C164.234 37.7725 168.036 40.0875 168.036 43.126C168.036 46.1645 164.38 48.4796 159.701 48.4796C155.169 48.4796 151.367 46.0198 151.367 43.126Z" fill="#99A5A9" stroke="#416388" stroke-width="0.6782" stroke-linejoin="round"/>
<path d="M159.701 46.4541C163.254 46.4541 166.134 44.9642 166.134 43.1262C166.134 41.2883 163.254 39.7983 159.701 39.7983C156.148 39.7983 153.268 41.2883 153.268 43.1262C153.268 44.9642 156.148 46.4541 159.701 46.4541Z" fill="#D2DBDD" stroke="#416388" stroke-width="0.6782" stroke-linejoin="round"/>
<path d="M27.9609 76.2605H141.569" stroke="#416388" stroke-width="0.6782" stroke-linejoin="round"/>
<path d="M119.783 97.3851H111.595C108.671 97.3851 106.186 99.8449 106.186 102.739V103.607C106.186 106.501 108.671 108.96 111.595 108.96H119.783C122.708 108.96 125.193 106.501 125.193 103.607V102.739C125.193 99.8449 122.708 97.3851 119.783 97.3851Z" fill="#99A5A9" stroke="#416388" stroke-width="0.6782" stroke-linejoin="round"/>
<path d="M118.906 103.173C118.906 101.436 117.444 99.9895 115.689 99.9895C113.935 99.9895 112.473 101.436 112.473 103.173C112.473 104.909 113.935 106.356 115.689 106.356C117.444 106.356 118.906 104.909 118.906 103.173Z" fill="#576164" stroke="#416388" stroke-width="0.6782" stroke-linejoin="round"/>
</g>
<defs>
<clipPath id="clip0_1135_72901">
<rect width="168" height="124" fill="white" transform="translate(0.472656 0.297852)"/>
</clipPath>
</defs>
</svg>
