<svg width="167" height="125" viewBox="0 0 167 125" fill="none" xmlns="http://www.w3.org/2000/svg">
<g opacity="0.5" clip-path="url(#clip0_1135_72871)">
<path d="M143.774 102.373H24.2012V110.649H143.774V102.373Z" fill="#6C767A" stroke="#416388" stroke-width="0.6782" stroke-linejoin="round"/>
<path d="M124.211 103.244H43.7656V112.827H124.211V103.244Z" fill="#6C767A" stroke="#416388" stroke-width="0.6782" stroke-linejoin="round"/>
<path d="M32.2303 107.6V118.926C32.2303 121.394 30.1863 123.572 27.5583 123.572H18.0684C15.5865 123.572 13.3965 121.539 13.3965 118.926V76.0918L32.2303 107.6Z" fill="#99A5A9" stroke="#416388" stroke-width="1.2" stroke-linejoin="round"/>
<path d="M154.429 76.0918V118.78C154.429 121.249 152.385 123.427 149.758 123.427H140.268C137.786 123.427 135.596 121.394 135.596 118.78V107.455L154.429 76.0918Z" fill="#99A5A9" stroke="#416388" stroke-width="1.2" stroke-linejoin="round"/>
<path d="M83.9156 108.036C97.9314 108.036 112.239 107.89 126.547 107.745C132.825 107.6 138.957 107.6 145.235 107.455C148.155 107.455 150.637 105.277 150.929 102.373C152.243 91.9186 153.703 81.319 155.017 70.8647C155.017 65.3471 154.287 58.0872 151.805 50.1012C150.491 45.7452 148.885 41.8249 147.279 38.6305C145.089 32.3869 142.315 25.853 138.957 18.8834C137.643 16.1246 136.329 13.3659 134.869 10.7523C132.679 6.6867 128.737 3.92791 124.211 3.34712C120.415 2.91152 116.619 2.47592 112.677 2.18553C102.311 1.31433 92.5295 1.31433 83.6236 1.31433C74.7177 1.31433 65.0818 1.31433 54.57 2.18553C50.628 2.47592 46.6861 2.91152 43.0361 3.34712C38.5101 3.92791 34.5682 6.6867 32.3782 10.7523C31.0642 13.3659 29.6043 15.9794 28.2903 18.8834C25.0783 25.853 22.3043 32.3869 19.9684 38.6305C18.3624 41.8249 16.7564 45.7452 15.4424 50.1012C13.1065 58.0872 12.3765 65.3471 12.2305 70.8647C14.1284 81.1738 15.5884 91.7733 16.9024 102.228C17.3404 105.132 19.6764 107.31 22.5963 107.31C28.7283 107.455 35.0062 107.6 41.2841 107.6C55.5919 107.89 69.8998 108.036 83.9156 108.036Z" fill="#EAF5F9" stroke="#416388" stroke-width="1.2" stroke-linejoin="round"/>
<path d="M25.0776 53.1506C28.5816 54.167 34.5675 56.0546 35.8815 56.4902C36.0275 56.4902 36.1735 56.6354 36.3195 56.7806L49.8973 66.2185C51.0653 67.0897 50.6273 68.6869 49.3133 68.9773L46.2474 69.4129H46.1014C44.4954 69.4129 33.9835 69.5581 27.1216 62.1529C24.7856 59.6846 23.6177 57.071 23.0337 55.0382C22.7417 53.7314 23.9097 52.715 25.0776 53.1506Z" fill="white" stroke="#416388" stroke-width="0.6782" stroke-linejoin="round"/>
<path d="M43.3275 97.291C42.7435 98.4526 41.7215 99.0334 40.5535 99.0334L26.9757 99.469C24.6397 99.6142 23.0337 97.291 23.7637 95.113L24.7857 92.0638C25.3697 90.6118 26.8297 89.5955 28.4357 89.8858L41.1375 92.209C43.3275 92.935 44.4955 95.4034 43.3275 97.291Z" fill="#99A5A9" stroke="#416388" stroke-width="0.6782" stroke-linejoin="round"/>
<path d="M32.2315 94.8227C32.2315 93.2256 30.9175 91.9188 29.1656 91.9188C27.4136 91.9188 26.0996 93.2256 26.0996 94.8227C26.0996 96.4199 27.4136 97.7267 29.1656 97.7267C30.9175 97.7267 32.2315 96.5651 32.2315 94.8227Z" fill="white" stroke="#416388" stroke-width="0.6782" stroke-linejoin="round"/>
<path d="M18.0696 43.1315C18.0696 40.2275 14.4196 37.7591 9.74768 37.7591C5.07574 37.7591 1.42578 40.0823 1.42578 43.1315C1.42578 46.1806 5.07574 48.5038 9.74768 48.5038C14.4196 48.5038 18.0696 46.0354 18.0696 43.1315Z" fill="#99A5A9" stroke="#416388" stroke-width="0.6782" stroke-linejoin="round"/>
<path d="M25.6623 60.12C23.9103 60.7008 21.5743 61.8624 19.0924 63.6048C15.8804 66.0731 13.8364 68.8319 12.8145 70.5743" stroke="#416388" stroke-width="0.6782" stroke-linejoin="round"/>
<path d="M23.4725 53.0052C22.5965 51.5532 21.7205 49.6656 20.9905 47.1972C19.9685 43.5673 20.1145 40.3729 20.4065 38.3401" stroke="#416388" stroke-width="0.6782" stroke-linejoin="round"/>
<path d="M20.9902 47.3424C22.3042 42.1153 23.7642 36.4525 25.6622 30.6446C28.1441 22.8038 30.7721 15.6891 33.5461 9.30029" stroke="#416388" stroke-width="0.6782" stroke-linejoin="round"/>
<path d="M83.9159 41.6796C97.7857 41.6796 112.386 41.3892 127.715 40.0825C131.803 39.7921 135.745 39.3565 139.687 38.9209C138.811 34.4197 137.497 29.3377 135.891 23.9654C134.577 19.6094 132.971 15.689 131.511 12.059C125.671 11.4782 119.539 11.0426 113.408 10.7522C103.188 10.1714 93.2598 10.0262 83.9159 10.0262C74.572 10.0262 64.6441 10.1714 54.4242 10.7522C48.1463 11.0426 42.1604 11.4782 36.3204 12.059C34.8605 15.689 33.2545 19.6094 31.9405 23.9654C30.1885 29.3377 29.0205 34.2745 28.1445 38.9209C32.0865 39.3565 36.0284 39.7921 40.1164 40.0825C55.4462 41.3892 70.046 41.6796 83.9159 41.6796Z" fill="#99A5A9" stroke="#416388" stroke-width="0.6782" stroke-linejoin="round"/>
<path d="M142.752 53.1506C139.249 54.167 133.263 56.0546 131.949 56.4902C131.803 56.4902 131.657 56.6354 131.511 56.7806L117.787 66.2185C116.619 67.0897 117.057 68.6869 118.371 68.9773L121.437 69.4129H121.583C123.189 69.4129 133.701 69.5581 140.563 62.1529C142.898 59.6846 144.066 57.071 144.65 55.0382C145.234 53.7314 144.066 52.715 142.752 53.1506Z" fill="white" stroke="#416388" stroke-width="0.6782" stroke-linejoin="round"/>
<path d="M83.9141 84.6584C92.674 84.8036 103.186 84.2228 114.574 81.6092C116.18 81.3188 117.64 80.8832 119.1 80.5928C120.998 80.1572 121.728 78.1245 120.56 76.6725C119.684 75.5109 118.516 74.4945 117.202 73.3329C117.202 73.3329 117.202 73.3329 117.056 73.1877C113.114 69.7029 107.858 67.8153 102.31 67.6701C101.872 67.6701 101.434 67.6701 101.142 67.6701C95.156 67.5249 89.316 67.6701 83.7681 67.6701C78.2202 67.6701 72.3802 67.5249 66.3943 67.6701C65.9563 67.6701 65.5183 67.6701 65.2263 67.6701C59.6784 67.8153 54.4225 69.7029 50.4805 73.1877C50.4805 73.1877 50.4805 73.1877 50.3345 73.3329C49.0205 74.4945 47.9985 75.6561 46.9765 76.6725C45.8086 78.1245 46.5386 80.0121 48.4365 80.5928C49.8965 81.0284 51.3565 81.3188 52.9625 81.6092C64.6423 84.2228 75.1542 84.8036 83.9141 84.6584Z" fill="#99A5A9" stroke="#416388" stroke-width="0.6782" stroke-linejoin="round"/>
<path d="M124.649 97.291C125.233 98.4526 126.255 99.0334 127.423 99.0334L141 99.469C143.336 99.6142 144.942 97.291 144.212 95.113L143.19 92.0638C142.606 90.6118 141.146 89.5955 139.54 89.8858L126.839 92.209C124.649 92.935 123.481 95.4034 124.649 97.291Z" fill="#99A5A9" stroke="#416388" stroke-width="0.6782" stroke-linejoin="round"/>
<path d="M135.744 94.8227C135.744 93.2256 137.058 91.9188 138.81 91.9188C140.562 91.9188 141.876 93.2256 141.876 94.8227C141.876 96.4199 140.562 97.7267 138.81 97.7267C137.058 97.7267 135.744 96.5651 135.744 94.8227Z" fill="white" stroke="#416388" stroke-width="0.6782" stroke-linejoin="round"/>
<path d="M83.9146 100.34C93.5505 100.34 103.332 100.195 112.968 99.7591C113.99 99.7591 114.72 98.5975 114.136 97.7263C113.698 97.0003 113.26 96.4195 112.822 95.6935C112.53 95.2579 112.092 95.1127 111.654 95.1127C102.456 95.5483 93.1125 95.6935 83.7686 95.6935C74.4248 95.6935 65.2269 95.5483 55.883 95.1127C55.445 95.1127 55.007 95.2579 54.715 95.6935C54.277 96.4195 53.839 97.0003 53.401 97.7263C52.817 98.5975 53.547 99.7591 54.569 99.7591C64.4969 100.049 74.2788 100.34 83.9146 100.34Z" fill="#99A5A9" stroke="#416388" stroke-width="0.6782" stroke-linejoin="round"/>
<path d="M83.9146 100.34C93.5505 100.34 103.332 100.195 112.968 99.7591C113.99 99.7591 114.72 98.5975 114.136 97.7263C113.698 97.0003 113.26 96.4195 112.822 95.6935C112.53 95.2579 112.092 95.1127 111.654 95.1127C102.456 95.5483 93.1125 95.6935 83.7686 95.6935C74.4248 95.6935 65.2269 95.5483 55.883 95.1127C55.445 95.1127 55.007 95.2579 54.715 95.6935C54.277 96.4195 53.839 97.0003 53.401 97.7263C52.817 98.5975 53.547 99.7591 54.569 99.7591C64.4969 100.049 74.2788 100.34 83.9146 100.34Z" stroke="#416388" stroke-width="0.6782" stroke-linejoin="round"/>
<path d="M157.061 47.3424C156.915 47.4876 152.681 52.86 152.681 52.86L148.885 49.3752L151.659 46.326L157.061 47.3424Z" fill="white" stroke="#416388" stroke-width="0.6782" stroke-linejoin="round"/>
<path d="M149.906 43.1315C149.906 40.2275 153.556 37.7592 158.228 37.7592C162.754 37.7592 166.55 40.0823 166.55 43.1315C166.55 46.1807 162.9 48.5039 158.228 48.5039C153.556 48.3587 149.906 46.0355 149.906 43.1315Z" fill="#99A5A9" stroke="#416388" stroke-width="0.6782" stroke-linejoin="round"/>
<path d="M142.168 60.12C143.92 60.7008 146.256 61.8624 148.738 63.6048C151.95 66.0731 153.994 68.8319 155.016 70.5743" stroke="#416388" stroke-width="0.6782" stroke-linejoin="round"/>
<path d="M144.357 53.0052C145.233 51.5532 146.109 49.6656 146.839 47.1972C147.861 43.5673 147.715 40.3729 147.423 38.3401" stroke="#416388" stroke-width="0.6782" stroke-linejoin="round"/>
<path d="M146.839 47.3424C145.525 42.1153 144.065 36.4525 142.167 30.6446C139.685 22.8038 137.057 15.6891 134.283 9.30029" stroke="#416388" stroke-width="0.6782" stroke-linejoin="round"/>
<path d="M139.832 38.9211C139.394 39.9375 138.81 41.6799 137.788 43.5675C135.16 48.2139 132.094 50.8275 129.32 53.441C126.984 55.7642 123.772 59.249 120.414 64.4762C117.786 64.0406 115.012 63.7502 112.384 63.4598C102.31 62.2982 92.8203 62.2982 84.0604 62.2982C75.3005 62.2982 65.8106 62.4434 55.7367 63.4598C52.9628 63.7502 50.3348 64.0406 47.7068 64.4762C44.3489 59.3942 41.1369 55.7642 38.8009 53.441C36.027 50.8275 32.961 48.2139 30.333 43.5675C29.311 41.6799 28.5811 40.0827 28.2891 38.9211" stroke="#416388" stroke-width="0.6782" stroke-linejoin="round"/>
<path d="M10.7695 47.633C10.9155 47.7782 15.1495 53.1505 15.1495 53.1505L18.9454 49.6658L16.1715 46.6166L10.7695 47.633Z" fill="white" stroke="#416388" stroke-width="0.6782" stroke-linejoin="round"/>
</g>
<defs>
<clipPath id="clip0_1135_72871">
<rect width="166" height="124" fill="white" transform="translate(0.988281 0.297852)"/>
</clipPath>
</defs>
</svg>
