<svg enable-background="new 0 0 382 500" height="437.52325" viewBox="0 0 500 437.52325" width="500" xmlns="http://www.w3.org/2000/svg"><path d="m208.9847 0-83.7801 156.00918 83.7801 156.00793h23.1817l84.6912-156.00793-53.9577-100.47724-12.1848 22.68901 41.7745 77.78823-72.0524 134.16793-72.0511-134.16793 83.7803-156.00918zm48.0051 0-84.6924 156.00918 53.9591 100.47714 12.1845-22.68908-41.7744-77.78806 72.0524-134.16799 72.0512 134.16799-83.7814 156.00793h23.1826l83.7803-156.00793-83.7803-156.00918z"/><path d="m79.9942 374.10754v62.23127h54.2125v-12.54696h-38.0963v-12.60195h33.3725v-12.38133h-33.3725v-12.31994h37.3091v-12.38109z" fill-rule="evenodd" stroke-width=".350576"/><path d="m0 374.10754v62.23127h16.1162v-19.49003h19.4006l11.2528 19.49003h18.5865l-13.496-22.89223c6.5534-3.61768 11.2722-10.20709 11.2722-18.31429 0-16.64605-12.6179-21.02475-22.8701-21.02475zm16.1162 12.38109h22.8561c2.9512 0 6.2357 2.29429 6.2357 9.38713 0 2.40483-.702 8.59169-6.2357 8.59169h-22.8561z" fill-rule="evenodd" stroke-width=".350576"/><path d="m148.8468 374.10754v62.23127h16.1162v-40.08544l35.6286 40.08544h16.116v-62.23127h-16.116v39.7587l-35.6286-39.7587z" stroke-width=".223607"/><path d="m253.3119 374.10754-27.4231 62.23127h18.4797l4.1814-10.59523h31.3448l4.1814 10.59523h18.4797l-27.4231-62.23127zm10.9103 11.92151 10.7866 27.33332h-21.5729z"/><path d="m391.7109 374.10754v62.23127h51.6291v-12.54696h-35.5131v-49.68431z"/><path d="m435.4432 374.10754v12.38109h24.2204v49.85018h16.1161v-49.85018h24.2203v-12.38109z"/><path d="m310.1242 374.10754v42.05703c0 17.62353 17.8765 21.35867 32.0531 21.35867s32.0533-3.73514 32.0533-21.35867v-42.05703h-16.1162v41.26999c0 6.40728-9.6883 8.55893-15.9371 8.55893s-15.937-2.15165-15.937-8.55893v-41.26999z"/></svg>