<svg width="414" height="138" viewBox="0 0 414 138" fill="none" xmlns="http://www.w3.org/2000/svg">
<g opacity="0.5">
<path d="M22.0742 111.191L59.5006 117.901H341.485L359.272 107.096C358.901 84.9176 339.138 67.061 315.916 66.9472C291.707 66.8335 270.832 86.0549 271.944 109.598C214.507 109.712 188.331 109.371 130.895 109.598C132.13 85.8275 112.367 65.9236 88.8982 64.6725C63.5767 63.1939 40.108 83.6665 40.9727 109.371C34.6732 109.94 28.3737 110.508 22.0742 111.191Z" fill="#B5B9BD" stroke="#416388" stroke-width="0.6782" stroke-linejoin="round"/>
<path d="M407.277 82.9846L409.007 85.3731C409.624 86.1693 409.871 87.1929 409.624 88.1028V93.3346C409.624 94.3583 409.377 95.1544 408.883 96.0643C408.018 97.9978 406.289 100.273 403.695 102.661C402.46 103.798 399.743 106.073 395.913 107.779C391.961 109.599 388.502 109.94 386.279 110.281C374.421 111.76 358.487 112.215 355.646 112.329C355.646 112.215 354.287 92.9934 345.518 82.8709C336.624 72.5209 315.873 66.7204 299.568 74.5682C271.5 86 279 114.945 279 114.945C279 114.945 244.773 114.831 123.477 114.49C126.565 95.7231 117.054 78.4352 101.243 71.7247C85.3091 65.0143 69.7457 71.9522 68.7575 72.4072C53.6882 79.5725 45.0418 96.0643 48.0063 113.466C48.0063 113.466 30.7136 112.329 21.6967 111.305C18.9792 110.85 16.5089 110.623 13.7914 110.281C10.9505 109.826 8.72715 107.779 8.23307 105.163C7.98603 104.595 7.98603 103.798 7.86251 103.116C7.49195 100.727 5.2686 78.5489 5.76268 75.1368C6.13324 72.066 6.62732 69.45 7.24491 67.0616C17.1265 61.6022 29.3549 55.9154 44.1772 51.2522C68.387 43.4044 89.7558 42.267 105.813 41.8121L108.499 39.8056L113.965 37.1517C120.729 33.9463 165.89 15.9222 165.89 15.9222C182.287 10.6133 174.088 13.2671 193.218 7.96008C215.081 6.21198 213.106 6.21294 244.155 6.21265C275.204 6.21236 292.667 12.2814 305.266 15.921C317.865 19.5605 327.978 24.7517 341.318 28.2775C353.299 31.4621 365.034 34.4192 376.397 37.1489C376.397 37.1489 379.362 36.8077 380.844 36.694C388.132 38.0588 395.543 39.3099 402.831 40.6747C401.842 42.1533 401.101 43.7456 400.113 45.3379L362.069 51.366L369.974 57.1665L399.619 60.1236L406.413 69.45C407.03 70.2462 407.401 71.4973 407.401 72.6346L407.277 82.9846Z" fill="#EAF5F9" stroke="#416388" stroke-width="1.2" stroke-linejoin="round"/>
<path d="M123.5 47.0001L208.348 44L276 41.5C280.376 41.3934 289.924 38.488 299 36L312 32.5C312 32.5 310 30.5561 305 28.5C303.233 27.7734 282.5 19.9999 277.5 18.5C262.716 14.0649 246 11.4998 197.5 15C179.5 16.9998 147.5 30.5 123.5 47.0001Z" stroke="#416388" stroke-width="0.6782" stroke-linejoin="round"/>
<path d="M13.5438 87.6499C14.6554 86.2851 15.026 84.579 14.779 82.873C14.1614 79.4609 12.9262 75.2526 10.3323 71.0444C9.22059 69.2246 8.10891 67.8598 7.24428 66.7224C6.62668 71.7268 6.25612 77.6411 6.50316 84.2378C6.62668 87.1949 6.87372 89.9246 7.24428 92.6543C8.35595 92.0856 9.9617 91.1757 11.691 89.5834C12.3086 89.0147 12.9262 88.3323 13.5438 87.6499Z" fill="#95A2A6" stroke="#416388" stroke-width="0.6782" stroke-linejoin="round"/>
<path d="M17.0027 94.1306L30.2193 91.1734C32.4427 90.7185 34.5425 91.8559 35.1601 93.7894L36.1482 96.8602C36.8894 99.2487 35.1601 101.637 32.4427 101.978L18.6085 103.116C16.7557 103.229 14.9029 102.206 14.2853 100.5C14.2853 100.159 14.1618 99.8174 13.9148 99.3624C13.1736 97.0877 14.6559 94.6993 17.0027 94.1306Z" fill="#95A2A6" stroke="#416388" stroke-width="0.6782" stroke-linejoin="round"/>
<path d="M32.9371 96.6365C32.9371 94.4755 32.1959 92.6558 31.2078 92.6558C30.2196 92.6558 29.4785 94.3618 29.4785 96.6365C29.4785 98.9113 30.2196 100.617 31.2078 100.617C32.0724 100.39 32.9371 98.6838 32.9371 96.6365Z" fill="white" stroke="#416388" stroke-width="0.6782" stroke-linejoin="round"/>
<path d="M114.7 39.4585C117.585 39.0816 120.47 38.1394 122.983 36.5376C128.102 33.2398 133.965 30.0363 140.387 26.7385C150.159 21.9332 160.432 18.4632 168.622 15.9192C168.064 15.0712 174.527 13.6937 173.968 12.8457C165.22 15.8608 147.925 19.7661 138.246 23.9119C126.985 28.7172 117.214 34.4647 108 39.4585L109.581 39.7411C111.07 39.9296 112.931 39.6469 114.7 39.4585Z" fill="#95A2A6" stroke="#416388" stroke-width="0.6782" stroke-linejoin="round"/>
<path d="M241 15.5C233 15.5 204.32 15.2764 190.486 18.5748C170.846 23.3517 148.148 34.422 130.361 45.1132L229.703 41.2454C232.297 34.0801 238.653 22.3242 241 15.5Z" fill="#95A2A6" stroke="#416388" stroke-width="0.6782" stroke-linejoin="round"/>
<path d="M256 16.5L247.5 40.5L269.738 39.8056C283.239 39.8056 295.341 34.2049 307.998 31.8459C307.998 31.8459 301.957 28.6023 286.135 23.8844C270.313 19.1664 269 17.5 256 16.5Z" fill="#95A2A6" stroke="#416388" stroke-width="0.6782" stroke-linejoin="round"/>
<path d="M338.586 28.5046C350.444 31.6892 362.178 34.6463 373.665 37.376C373.665 37.376 376.63 37.0348 378.112 36.921C365.266 32.3716 351.802 28.0496 337.351 23.8414C324.875 20.2018 312.647 16.7897 300.912 14.0601L299.801 17.6996C312.153 21.3392 325.246 24.9787 338.586 28.5046Z" fill="#95A2A6" stroke="#416388" stroke-width="0.6782" stroke-linejoin="round"/>
<path d="M43.8066 56.7156C57.2702 52.9624 68.7575 51.0288 76.9098 49.8915C87.903 48.4129 97.0435 47.958 108.531 47.503C117.671 47.0481 119.065 47 124.5 47" stroke="#416388" stroke-width="0.6782" stroke-linejoin="round"/>
<path d="M39.3594 66.2651C45.6589 70.9283 51.8348 75.4778 58.2578 80.141" stroke="#416388" stroke-width="0.6782" stroke-linejoin="round"/>
<path d="M225.874 53.4122C225.874 52.5023 221.428 51.9336 215.993 52.0474C210.558 52.1611 206.111 52.9573 206.111 53.7534C206.111 54.6633 210.558 55.232 215.993 55.1183C221.675 55.0045 225.874 54.3221 225.874 53.4122Z" stroke="#416388" stroke-width="0.6782" stroke-linejoin="round"/>
<path d="M251.5 13.5L238.967 43.6318C237.731 47.7263 236.62 52.0483 235.508 56.7115C231.432 75.7054 231.679 92.8796 233.285 106.869" stroke="#416388" stroke-width="0.6782" stroke-linejoin="round"/>
<path d="M137.928 46.9343C136.199 51.5975 134.47 56.8294 133.358 62.8574C129.899 80.9415 132.74 96.5233 135.581 106.873C189.806 106.873 253.897 106.873 307.998 106.873" stroke="#416388" stroke-width="0.6782" stroke-linejoin="round"/>
<path d="M44.1788 56.7134C44.0553 56.7134 44.0553 56.7134 43.8083 56.7134C39.238 57.737 33.5562 59.2156 27.5037 61.7178C21.9453 64.1062 17.2516 66.4947 13.4225 68.8832C12.6814 69.3381 13.0519 70.3617 14.0401 70.3617C17.8692 70.0205 21.6983 69.4518 25.7744 68.8832C39.1145 66.8359 50.9724 63.6513 60.9774 60.1255C61.7186 59.7843 61.595 58.6469 60.8539 58.6469C55.2956 57.8507 49.7372 57.2821 44.1788 56.7134Z" fill="#95A2A6"/>
<path d="M370.522 57.2256L400.167 60.1827C400.661 58.0217 401.155 55.1783 401.155 52.1074C401.155 49.6052 401.032 47.4443 400.661 45.5107L362.617 51.5388L370.522 57.2256Z" fill="#95A2A6"/>
<path d="M44.1788 56.7134C44.0553 56.7134 44.0553 56.7134 43.8083 56.7134C39.238 57.737 33.5562 59.2156 27.5037 61.7178C21.9453 64.1062 17.2516 66.4947 13.4225 68.8832C12.6814 69.3381 13.0519 70.3617 14.0401 70.3617C17.8692 70.0205 21.6983 69.4518 25.7744 68.8832C39.1145 66.8359 50.9724 63.6513 60.9774 60.1255C61.7186 59.7843 61.595 58.6469 60.8539 58.6469C55.2956 57.8507 49.7372 57.2821 44.1788 56.7134Z" fill="white" stroke="#416388" stroke-width="0.6782" stroke-linejoin="round"/>
<path d="M369.905 57.2256L399.55 60.1827C400.044 58.0217 400.538 55.1783 400.538 52.1074C400.538 49.6052 400.414 47.4443 400.044 45.5107L362 51.5388L369.905 57.2256Z" fill="#95A2A6" stroke="#416388" stroke-width="0.6782" stroke-linejoin="round"/>
<path d="M370.522 57.2256L400.167 60.1827C400.661 58.0217 401.155 55.1783 401.155 52.1074C401.155 49.6052 401.032 47.4443 400.661 45.5107L362.617 51.5388L370.522 57.2256Z" stroke="#416388" stroke-width="0.6782" stroke-linejoin="round"/>
<path d="M44.1788 56.7134C44.0553 56.7134 44.0553 56.7134 43.8083 56.7134C39.238 57.737 33.5562 59.2156 27.5037 61.7178C21.9453 64.1062 17.2516 66.4947 13.4225 68.8832C12.6814 69.3381 13.0519 70.3617 14.0401 70.3617C17.8692 70.0205 21.6983 69.4518 25.7744 68.8832C39.1145 66.8359 50.9724 63.6513 60.9774 60.1255C61.7186 59.7843 61.595 58.6469 60.8539 58.6469C55.2956 57.8507 49.7372 57.2821 44.1788 56.7134Z" stroke="#4C5152" stroke-width="0.6782" stroke-linejoin="round"/>
<path d="M315.023 131.781C332.439 131.781 346.644 119.156 346.644 103.46C346.644 87.8786 332.563 75.1401 315.023 75.1401C297.607 75.1401 283.402 87.7649 283.402 103.46C283.402 119.156 297.607 131.781 315.023 131.781Z" fill="#95A2A6" stroke="#416388" stroke-width="1.2" stroke-linejoin="round"/>
<path d="M315.023 124.952C328.24 124.952 338.986 115.398 338.986 103.456C338.986 91.5138 328.24 81.96 315.023 81.96C301.807 81.96 291.061 91.5138 291.061 103.456C291.061 115.398 301.807 124.952 315.023 124.952Z" fill="white" stroke="#416388" stroke-width="0.6782" stroke-linejoin="round"/>
<path d="M317.492 103.347C317.492 104.484 316.381 105.508 314.899 105.508C313.416 105.508 312.305 104.484 312.305 103.347C312.305 102.21 313.416 101.186 314.899 101.186C316.257 101.072 317.492 102.096 317.492 103.347Z" stroke="#416388" stroke-width="0.6782" stroke-linecap="round" stroke-linejoin="round"/>
<path d="M315.024 122.909C315.765 122.909 316.753 122.909 317.742 122.795C318.112 122.795 318.359 122.681 318.73 122.681C319.1 122.567 319.471 122.34 319.718 122.112L320.953 120.634C321.447 120.065 321.447 119.155 320.953 118.587L316.383 113.355C315.765 112.445 314.283 112.445 313.665 113.355L309.095 118.587C308.601 119.155 308.601 120.065 309.095 120.634L310.33 122.112C310.701 122.454 310.948 122.567 311.319 122.681C311.689 122.681 311.936 122.795 312.307 122.795C313.295 122.909 314.159 122.909 315.024 122.909Z" fill="#C7D8DC" stroke="#416388" stroke-width="0.6782" stroke-linejoin="round"/>
<path d="M335.035 109.485C335.405 108.802 335.529 108.006 335.652 107.096C335.652 106.755 335.776 106.527 335.776 106.186C335.776 105.731 335.776 105.504 335.405 105.163L334.294 103.57C333.799 103.002 333.058 102.66 332.194 103.002L325.4 105.39C324.288 105.845 323.918 106.982 324.659 107.779L328.735 113.465C329.229 114.034 329.97 114.375 330.835 114.034L332.688 113.352C333.058 113.238 333.305 112.897 333.676 112.669C333.799 112.328 334.046 112.101 334.17 111.759C334.541 110.963 334.788 110.053 335.035 109.485Z" fill="#C7D8DC" stroke="#416388" stroke-width="0.6782" stroke-linejoin="round"/>
<path d="M327.625 87.8735C327.007 87.4185 326.39 86.9636 325.402 86.5086C325.031 86.3949 324.784 86.1674 324.413 86.0537C324.043 85.9399 323.672 85.9399 323.302 85.9399L321.202 86.3949C320.461 86.5086 319.967 87.3048 319.967 87.9872L320.09 94.6976C320.09 95.7213 321.202 96.4037 322.314 96.1762L329.478 94.4702C330.219 94.3564 330.713 93.5603 330.713 92.8779V90.9443C330.713 90.4894 330.589 90.2619 330.219 89.9207C330.095 89.5795 329.725 89.4658 329.601 89.2383C329.107 88.8971 328.366 88.3284 327.625 87.8735Z" fill="#C7D8DC" stroke="#416388" stroke-width="0.6782" stroke-linejoin="round"/>
<path d="M302.301 87.9907C301.684 88.4456 301.066 88.9006 300.202 89.583C299.831 89.9242 299.707 90.038 299.584 90.2654C299.213 90.6066 299.09 90.8341 299.09 91.2891V93.2226C299.09 93.905 299.584 94.7011 300.325 94.8149L307.489 96.5209C308.601 96.8621 309.713 96.066 309.713 95.0424L309.836 88.3319C309.836 87.6495 309.342 86.8533 308.601 86.7396L306.501 86.2847C306.13 86.1709 305.76 86.2847 305.389 86.3984C305.019 86.5121 304.772 86.7396 304.401 86.8533C303.537 86.9671 302.919 87.6495 302.301 87.9907Z" fill="#C7D8DC" stroke="#416388" stroke-width="0.6782" stroke-linejoin="round"/>
<path d="M294.889 109.485C295.013 110.167 295.383 110.963 295.877 111.873C296.001 112.215 296.248 112.442 296.372 112.783C296.495 113.124 296.866 113.352 297.36 113.466L299.46 114.148C300.201 114.489 301.065 114.148 301.559 113.579L305.635 107.893C306.253 106.983 305.759 105.845 304.894 105.504L298.101 103.116C297.36 102.774 296.495 103.116 296.001 103.684L294.889 105.277C294.766 105.618 294.519 105.959 294.519 106.3C294.519 106.641 294.519 106.869 294.642 107.21C294.272 108.006 294.519 108.802 294.889 109.485Z" fill="#C7D8DC" stroke="#416388" stroke-width="0.6782" stroke-linejoin="round"/>
<path d="M86.2982 131.781C103.714 131.781 117.919 119.156 117.919 103.46C117.919 87.8786 103.838 75.1401 86.2982 75.1401C68.7585 75.1401 54.8008 87.8786 54.8008 103.46C54.8008 119.156 68.882 131.781 86.2982 131.781Z" fill="#95A2A6" stroke="#416388" stroke-width="1.2" stroke-linejoin="round"/>
<path d="M86.2967 124.953C99.5133 124.953 110.259 115.399 110.259 103.457C110.259 91.5148 99.5133 81.9609 86.2967 81.9609C73.0802 81.9609 62.334 91.5148 62.334 103.457C62.334 115.399 73.0802 124.953 86.2967 124.953Z" fill="white" stroke="#416388" stroke-width="0.6782" stroke-linejoin="round"/>
<path d="M88.8909 103.347C88.8909 104.484 87.7793 105.508 86.297 105.508C84.8148 105.508 83.7031 104.484 83.7031 103.347C83.7031 102.21 84.8148 101.186 86.297 101.186C87.7793 101.072 88.8909 102.096 88.8909 103.347Z" stroke="#416388" stroke-width="0.6782" stroke-linecap="round" stroke-linejoin="round"/>
<path d="M86.2956 122.909C87.0367 122.909 88.0249 122.909 89.013 122.795C89.3836 122.795 89.6306 122.681 90.0012 122.681C90.3717 122.567 90.7423 122.34 90.9893 122.112L92.2245 120.634C92.7186 120.065 92.7186 119.155 92.2245 118.587L87.6543 113.355C87.0367 112.445 85.5545 112.445 84.9369 113.355L80.3667 118.587C79.8726 119.155 79.8726 120.065 80.3667 120.634L81.6018 122.112C81.9724 122.454 82.2194 122.567 82.59 122.681C82.9606 122.681 83.2076 122.795 83.5782 122.795C84.6898 122.909 85.5545 122.909 86.2956 122.909Z" fill="#C7D8DC" stroke="#416388" stroke-width="0.6782" stroke-linejoin="round"/>
<path d="M106.431 109.485C106.801 108.802 106.925 108.006 107.048 107.096C107.048 106.755 107.172 106.527 107.172 106.186C107.172 105.731 107.172 105.504 106.801 105.163L105.69 103.57C105.195 103.002 104.454 102.66 103.59 103.002L96.9197 105.39C95.808 105.845 95.4374 106.982 96.1785 107.779L100.255 113.465C100.749 114.034 101.49 114.375 102.355 114.034L104.207 113.352C104.578 113.238 104.825 112.897 105.195 112.669C105.319 112.328 105.566 112.101 105.69 111.759C105.937 110.963 106.307 110.053 106.431 109.485Z" fill="#C7D8DC" stroke="#416388" stroke-width="0.6782" stroke-linejoin="round"/>
<path d="M99.1426 87.8735C98.525 87.4185 97.9074 86.9636 96.9192 86.5086C96.5487 86.3949 96.3016 86.1674 95.9311 86.0537C95.5605 85.9399 95.19 85.9399 94.8194 85.9399L92.7196 86.3949C91.9785 86.5086 91.4844 87.3048 91.4844 87.9872L91.6079 94.6976C91.6079 95.7213 92.7196 96.4037 93.8312 96.1762L100.995 94.4702C101.736 94.3564 102.231 93.5603 102.231 92.8779V90.9443C102.231 90.4894 102.107 90.2619 101.736 89.9207C101.613 89.5795 101.242 89.4658 101.119 89.2383C100.501 88.8971 99.7602 88.3284 99.1426 87.8735Z" fill="#C7D8DC" stroke="#416388" stroke-width="0.6782" stroke-linejoin="round"/>
<path d="M73.6998 87.9907C73.0822 88.4456 72.4646 88.9006 71.6 89.583C71.2294 89.9242 71.1059 90.038 70.9824 90.2654C70.6118 90.6066 70.4883 90.8341 70.4883 91.2891V93.2226C70.4883 93.905 70.9824 94.7011 71.7235 94.8149L78.8876 96.5209C79.9993 96.8621 81.1109 96.066 81.1109 95.0424L81.2345 88.3319C81.2345 87.6495 80.7404 86.8533 79.9993 86.7396L77.8994 86.2847C77.5289 86.1709 77.1583 86.2847 76.7878 86.3984C76.4172 86.5121 76.1702 86.7396 75.7996 86.8533C75.0585 86.9671 74.3174 87.6495 73.6998 87.9907Z" fill="#C7D8DC" stroke="#416388" stroke-width="0.6782" stroke-linejoin="round"/>
<path d="M66.164 109.485C66.2875 110.167 66.6581 110.963 67.1522 111.873C67.2757 112.215 67.5227 112.442 67.6462 112.783C67.7697 113.124 68.1403 113.352 68.6344 113.466L70.7342 114.148C71.4753 114.489 72.34 114.148 72.834 113.579L76.9102 107.893C77.5278 106.983 77.0337 105.845 76.1691 105.504L69.3755 103.116C68.6344 102.774 67.7697 103.116 67.2757 103.684L66.0405 105.39C65.917 105.732 65.6699 106.073 65.6699 106.414C65.6699 106.755 65.6699 106.983 65.7934 107.324C65.6699 108.006 65.917 108.802 66.164 109.485Z" fill="#C7D8DC" stroke="#416388" stroke-width="0.6782" stroke-linejoin="round"/>
<path d="M338 76.8396L349.858 74.4511C355.54 73.3137 360.604 70.1291 363.816 65.6934L369.744 57.5044C373.203 60.5753 379.255 65.1247 387.655 68.4231C395.436 71.494 402.354 72.5176 407.171 72.9725" stroke="#416388" stroke-width="0.6782" stroke-linejoin="round"/>
<path d="M61.4707 59.1017C118.907 55.0072 179.432 52.05 242.797 50.9127C294.799 49.889 332.595 42.4581 368.123 37.1504" stroke="#416388" stroke-width="0.6782" stroke-linejoin="round"/>
<path d="M354 101.64C362.029 101.526 368.946 101.072 374.628 100.73C386.486 100.048 389.821 99.3655 393.156 97.6595C395.75 96.2946 395.873 95.6122 400.937 92.3139C404.643 89.8117 407.731 88.1056 409.954 86.9683" stroke="#416388" stroke-width="0.6782" stroke-linejoin="round"/>
<path d="M17.8688 66.2678C17.4982 65.2442 14.9043 62.8557 14.9043 62.8557" stroke="#416388" stroke-width="0.6782" stroke-linejoin="round"/>
<path d="M153.617 43.8572L158.557 46.9281C156.457 48.4066 154.481 49.9989 152.381 51.4775C152.258 51.4775 150.776 51.8187 149.664 50.7951C148.676 50.1127 148.676 48.8616 148.676 48.7478L153.617 43.8572Z" fill="#C7D8DC" stroke="#416388" stroke-width="0.6782" stroke-linejoin="round"/>
<path d="M166.091 37.2641C164.856 37.1504 163.25 37.1504 161.768 37.1504C158.062 37.2641 154.11 37.2641 152.751 39.5389C151.639 41.1312 152.381 43.2921 153.492 44.5432C155.716 47.0454 160.286 47.7279 163.621 46.7042C164.362 43.4059 165.103 40.335 166.091 37.2641Z" fill="#95A2A6" stroke="#416388" stroke-width="0.6782" stroke-linejoin="round"/>
</g>
</svg>
