<svg width="155" height="112" viewBox="0 0 155 112" fill="none" xmlns="http://www.w3.org/2000/svg">
<g opacity="0.5" clip-path="url(#clip0_1135_73956)">
<path d="M131.799 86.1001H23.1992V96.2001H131.899V86.1001H131.799Z" fill="#6C767A" stroke="#416388" stroke-width="0.6782" stroke-linejoin="round"/>
<path d="M110.1 87.6001H45V97.7001H110.1V87.6001Z" fill="#6C767A" stroke="#416388" stroke-width="0.6782" stroke-linejoin="round"/>
<path d="M8.5 62.9001V63.8001V107C8.5 109.4 10.4 111.4 12.9 111.4H23.6C26 111.4 28 109.5 28 107V91.6001L8.5 62.9001Z" fill="#99A5A9" stroke="#416388" stroke-width="1.2" stroke-linejoin="round"/>
<path d="M146.5 62.9001V63.8001V107C146.5 109.4 144.6 111.4 142.1 111.4H131.4C129 111.4 127 109.5 127 107V91.6001L146.5 62.9001Z" fill="#99A5A9" stroke="#416388" stroke-width="1.2" stroke-linejoin="round"/>
<path d="M77.5992 91.4H140.199C141.999 91.4 143.499 90.1 143.799 88.4C144.699 83.5 145.199 79.5 145.599 76.6C146.099 71.7 145.999 69.2001 146.599 62.9001C146.999 58.1001 147.599 54.2001 147.899 51.7001C147.399 50.3 146.599 48.6 145.699 47.1C145.099 45.9 144.399 44.9001 143.799 44C143.399 42.7001 142.899 40.9001 141.599 39C140.599 37.5 139.499 36.3 138.599 35.5C137.099 30 134.599 23.2 130.499 15.8C128.699 12.6 126.799 9.80005 124.999 7.20005C122.899 4.40005 119.899 2.70005 116.499 2.30005C114.299 2.00005 111.999 1.90005 109.799 1.80005C98.5992 1.00005 87.7992 0.800049 77.5992 0.800049C67.4992 0.900049 56.5992 1.00005 45.2992 1.80005C42.9992 1.90005 40.7992 2.20005 38.5992 2.30005C35.2992 2.60005 31.9992 4.40005 30.0992 7.20005C28.2992 9.80005 26.3992 12.6 24.5992 15.8C20.4992 23.1 17.9992 29.9 16.4992 35.5C15.5992 36.3 14.5992 37.4001 13.4992 39C12.1992 40.9001 11.6992 42.7001 11.2992 44C10.6992 44.9001 9.99922 45.9 9.39922 47.1C8.49922 48.8 7.69922 50.3 7.19922 51.7001C7.59922 54.3 8.09922 58.1001 8.49922 62.9001C9.09922 69.2001 8.99922 71.9 9.49922 76.6C9.79922 79.7 10.2992 83.7 11.2992 88.5C11.6992 90.3 13.1992 91.5 14.8992 91.5H77.5992V91.4Z" fill="#EAF5F9" stroke="#416388" stroke-width="1.2" stroke-linejoin="round"/>
<path d="M32.899 82.6L32.799 82.7C32.299 83.7 31.299 84.2 30.099 84.4L16.299 84.9C13.999 85 12.299 82.7 13.099 80.5L14.099 77.4C14.599 75.9 16.299 75 17.799 75.2L30.699 77.6C32.899 78.1 34.099 80.5 32.899 82.6Z" fill="#99A5A9" stroke="#416388" stroke-width="0.6782" stroke-linejoin="round"/>
<path d="M77.5996 71.5002C86.5996 71.6002 97.2996 71.0002 108.9 68.4002C110.4 68.0002 112 67.6002 113.5 67.2002C115.4 66.7002 116.2 64.6002 115 63.2002C114.1 62.0002 112.9 60.9002 111.7 59.7002C111.7 59.7002 111.7 59.7002 111.6 59.6002C107.6 56.1002 102.2 54.1002 96.4996 53.9002C96.0996 53.9002 95.6996 53.9002 95.1996 53.9002C89.1996 53.8002 83.1996 53.9002 77.5996 53.9002C71.8996 53.9002 65.9996 53.8002 59.9996 53.9002C59.5996 53.9002 59.0996 53.9002 58.6996 53.9002C52.9996 54.0002 47.5996 56.1002 43.6996 59.6002C43.6996 59.6002 43.6996 59.6002 43.5996 59.7002C42.2996 60.9002 41.1996 62.0002 40.2996 63.2002C39.0996 64.6002 39.8996 66.7002 41.7996 67.2002C43.2996 67.6002 44.7996 68.0002 46.3996 68.4002C57.8996 71.2002 68.5996 71.8002 77.5996 71.5002Z" fill="#99A5A9" stroke="#416388" stroke-width="0.6782" stroke-linejoin="round"/>
<path d="M77.6 85.2C88.4 85.2 99.1 84.9 109.9 84.4C111.1 84.4 111.8 83.1 111.2 82.1C110.7 81.3 110.3 80.6 109.8 79.8C109.5 79.4 109 79.2 108.5 79.2C98.2 79.7 87.9 79.8 77.6 79.8C67.3 79.8 57 79.5 46.7 79.2C46.2 79.2 45.7 79.5 45.4 79.8C44.9 80.6 44.5 81.3 44 82.1C43.4 83 44.1 84.4 45.3 84.4C56 84.9 66.8 85.2 77.6 85.2Z" fill="#99A5A9" stroke="#416388" stroke-width="0.6782" stroke-linejoin="round"/>
<path d="M77.6 85.2C88.4 85.2 99.1 84.9 109.9 84.4C111.1 84.4 111.8 83.1 111.2 82.1C110.7 81.3 110.3 80.6 109.8 79.8C109.5 79.4 109 79.2 108.5 79.2C98.2 79.7 87.9 79.8 77.6 79.8C67.3 79.8 57 79.5 46.7 79.2C46.2 79.2 45.7 79.5 45.4 79.8C44.9 80.6 44.5 81.3 44 82.1C43.4 83 44.1 84.4 45.3 84.4C56 84.9 66.8 85.2 77.6 85.2Z" stroke="#416388" stroke-width="0.6782" stroke-linejoin="round"/>
<path d="M122.1 82.6L122.2 82.7C122.7 83.7 123.7 84.2 124.9 84.4L138.7 84.9C141 85 142.7 82.7 141.9 80.5L140.9 77.4C140.4 75.9 138.7 75 137.2 75.2L124.3 77.6C122.1 78.1 120.9 80.5 122.1 82.6Z" fill="#99A5A9" stroke="#416388" stroke-width="0.6782" stroke-linejoin="round"/>
<path d="M13.8004 49.7L7.90039 56.7999" stroke="#416388" stroke-width="0.6782" stroke-linejoin="round"/>
<path d="M12.9004 45.9L11.4004 44" stroke="#416388" stroke-width="0.6782" stroke-linejoin="round"/>
<path d="M16.5 35.5C16.6 37 17 39.1 18.4 41.3C19.8 43.5 21.5 44.8 22.8 45.7C23.8 46.5 24.7 47 25.4 47.2" stroke="#416388" stroke-width="0.6782" stroke-linejoin="round"/>
<path d="M17.9004 30.1001C18.4004 30.7001 19.3004 31.8001 20.6004 33.1001C25.6004 38.1001 29.9004 39.3001 34.4004 42.3001C36.7004 43.8001 40.1004 46.5001 43.3004 51.0001" stroke="#416388" stroke-width="0.6782" stroke-linejoin="round"/>
<path d="M20.5 33C21 29.8 21.7 26.2 23.1 22.2C25 16.3 27.5 11.4 29.8 7.80005" stroke="#416388" stroke-width="0.6782" stroke-linejoin="round"/>
<path d="M77.5992 29.7C88.0992 29.8 98.7992 30 109.799 30.3C117.299 30.6 124.699 30.8 131.899 31.2C130.699 26.8 129.199 22.1 126.999 16.8C125.799 14 124.599 11.4 123.299 9.1C122.699 7.8 121.199 7 119.799 6.9C114.899 6.8 109.899 6.6 104.899 6.5C95.5992 6.4 86.3992 6 77.5992 6C68.7992 6 59.3992 6.4 50.1992 6.7C45.0992 6.7 40.1992 6.8 35.2992 7.1C33.7992 7.1 32.4992 8 31.7992 9.3C30.4992 11.6 29.3992 14.2 28.0992 17C25.8992 22.1 24.3992 27 23.1992 31.4C30.4992 31 37.8992 30.8 45.2992 30.5C56.1992 30.1 66.9992 29.8 77.5992 29.7Z" fill="#99A5A9" stroke="#416388" stroke-width="0.6782" stroke-linejoin="round"/>
<path d="M13.9995 45.5001C17.4995 46.0001 23.3995 46.9001 24.6995 47.2001C24.7995 47.2001 25.0995 47.3001 25.1995 47.3001L39.2995 54.4001C40.5995 55.0001 40.4995 56.6001 38.9995 57.1001L36.2995 57.9001H36.1995C34.6995 58.2001 24.7995 59.7001 17.2995 53.7001C14.8995 51.6001 13.2995 49.3001 12.3995 47.5001C11.9995 46.4001 12.8995 45.2001 13.9995 45.5001Z" fill="white" stroke="#416388" stroke-width="0.6782" stroke-linejoin="round"/>
<path d="M141 45.5C137.5 46 131.6 46.9 130.3 47.2C130.2 47.2 129.9 47.3 129.8 47.3L115.7 54.4C114.4 55 114.5 56.6 116 57.1L118.8 58H118.9C120.4 58.3 130.3 59.8 137.8 53.8C140.2 51.7 141.8 49.4 142.7 47.6C143.2 46.4 142.3 45.2 141 45.5Z" fill="white" stroke="#416388" stroke-width="0.6782" stroke-linejoin="round"/>
<path d="M119.8 52.3001C115 51.7001 110.2 51.1001 105 50.8001C95.2 50.0001 86.1 49.8001 77.5 49.8001H77.8C69.2 49.7001 60 50.1001 50.3 50.8001C45.2 51.2001 40.3 51.7001 35.5 52.3001" stroke="#416388" stroke-width="0.6782" stroke-linejoin="round"/>
<path d="M18.6996 83C20.3996 83 21.7996 81.7 21.7996 80C21.7996 78.3 20.3996 77 18.6996 77C16.9996 77 15.5996 78.3 15.5996 80C15.5996 81.7 16.8996 83 18.6996 83Z" fill="white" stroke="#416388" stroke-width="0.6782" stroke-linejoin="round"/>
<path d="M133.301 80C133.301 78.3 134.701 77 136.401 77C138.101 77 139.501 78.4 139.501 80C139.501 81.7 138.101 83 136.401 83C134.701 83.1 133.301 81.7 133.301 80Z" fill="white" stroke="#416388" stroke-width="0.6782" stroke-linejoin="round"/>
<path d="M141.199 49.7L147.199 56.7999" stroke="#416388" stroke-width="0.6782" stroke-linejoin="round"/>
<path d="M142.1 45.9L143.6 44" stroke="#416388" stroke-width="0.6782" stroke-linejoin="round"/>
<path d="M138.5 35.5C138.4 37 138 39.1 136.6 41.3C135.2 43.5 133.5 44.8 132.2 45.7C131.2 46.5 130.3 47 129.6 47.2" stroke="#416388" stroke-width="0.6782" stroke-linejoin="round"/>
<path d="M137.3 30.1001C136.8 30.7001 135.9 31.8001 134.6 33.1001C129.6 38.1001 125.3 39.3001 120.8 42.3001C118.5 43.8001 115.1 46.5001 111.9 51.0001" stroke="#416388" stroke-width="0.6782" stroke-linejoin="round"/>
<path d="M134.499 33C133.999 29.8 133.299 26.2 131.899 22.2C129.999 16.3 127.499 11.4 125.199 7.80005" stroke="#416388" stroke-width="0.6782" stroke-linejoin="round"/>
<path d="M15.1 29.5C15.1 26.9 11.9 24.7 7.8 24.7C3.7 24.7 0.5 26.9 0.5 29.5C0.5 32.1 3.7 34.2999 7.8 34.2999C11.8 34.2999 15.1 32.2 15.1 29.5Z" fill="#99A5A9" stroke="#416388" stroke-width="0.6782" stroke-linejoin="round"/>
<path d="M8.59961 34.3001C9.19961 35.6001 9.89961 37.0001 10.4996 38.3001C10.9996 39.3001 11.4996 40.2001 11.9996 41.1001C12.9996 39.6001 14.0996 38.0002 15.1996 36.5002C14.5996 35.2002 13.9996 34.1001 13.3996 32.8001C12.9996 32.7001 11.8996 32.4002 10.3996 32.9002C9.49961 33.3002 8.89961 33.9001 8.59961 34.3001Z" fill="white" stroke="#416388" stroke-width="0.6782" stroke-miterlimit="10"/>
<path d="M147.3 34.2999C151.3 34.2999 154.6 32.2 154.6 29.5C154.6 26.9 151.3 24.7 147.3 24.7C143.3 24.7 140 26.8 140 29.5C140 32.2 143.2 34.2999 147.3 34.2999Z" fill="#99A5A9" stroke="#416388" stroke-width="0.6782" stroke-linejoin="round"/>
<path d="M146.4 34.3001C145.8 35.6001 145.1 37.0001 144.5 38.3001C144 39.2002 143.6 40.1001 143.1 41.1001C142.1 39.6001 141 38.0002 139.9 36.5002C140.5 35.2002 141.1 34.1001 141.7 32.8001C142.1 32.7001 143.2 32.4002 144.7 32.9002C145.5 33.3002 146.1 33.9001 146.4 34.3001Z" fill="white" stroke="#416388" stroke-width="0.6782" stroke-miterlimit="10"/>
</g>
<defs>
<clipPath id="clip0_1135_73956">
<rect width="155" height="112" fill="white"/>
</clipPath>
</defs>
</svg>
