<svg width="307" height="70" viewBox="0 0 307 70" fill="none" xmlns="http://www.w3.org/2000/svg">
<g clip-path="url(#clip0_439_14898)">
<mask id="mask0_439_14898" style="mask-type:luminance" maskUnits="userSpaceOnUse" x="0" y="0" width="307" height="70">
<path d="M307 0H0V70H307V0Z" fill="white"/>
</mask>
<g mask="url(#mask0_439_14898)">
<path fill-rule="evenodd" clip-rule="evenodd" d="M120.471 52.8321V16.6622C120.471 15.9677 120.16 15.3066 119.623 14.8149C119.05 14.2887 118.271 14 117.461 14C109.652 14 90.8193 14 83.0101 14C82.1994 14 81.4207 14.2887 80.8476 14.8149C80.3105 15.3066 80 15.9677 80 16.6622V52.8321H90.2453V21.4482C90.2453 21.1562 90.4579 20.9187 90.7195 20.9187H109.751C110.013 20.9187 110.226 21.1562 110.226 21.4482V52.8321H120.471ZM136.3 52.8321V41.9635C136.3 41.6714 136.513 41.434 136.774 41.434C136.774 41.434 146.808 41.434 154.298 41.434C158.441 41.434 161.842 38.4127 161.842 34.6156C161.842 30.2298 161.842 24.6947 161.842 20.388C161.842 16.8284 158.651 14 154.767 14C146.904 14 134.93 14 129.065 14C128.254 14 127.474 14.2887 126.901 14.8149C126.365 15.3066 126.055 15.9677 126.055 16.6622V52.8321H136.3ZM243.214 14L223.037 38.3347C222.907 38.4941 222.698 38.5476 222.518 38.4674C222.338 38.3882 222.219 38.192 222.219 37.9746C222.219 37.9746 222.219 21.7548 222.219 15.7068C222.219 14.7325 221.31 14 220.252 14C218.584 14 216.398 14 214.741 14C213.682 14 212.774 14.7325 212.774 15.7068V52.8321H223.057L243.234 28.4974C243.364 28.3368 243.574 28.2844 243.753 28.3636C243.933 28.4427 244.053 28.6389 244.053 28.8563V52.8321H253.497V15.7068C253.497 14.7325 252.589 14 251.531 14H243.214ZM307 52.8321V16.6622C307 15.1605 305.632 14 303.995 14C301.828 14 299.143 14 297.416 14C296.507 14 295.649 14.4426 295.219 15.1817C292.424 19.9131 283.618 34.8464 283.618 34.8464C283.528 34.9958 283.379 35.0849 283.219 35.0849C283.059 35.0849 282.909 34.9958 282.83 34.8464C282.83 34.8464 274.014 19.9131 271.228 15.1817C270.789 14.4426 269.941 14 269.022 14C267.295 14 264.609 14 262.453 14C260.815 14 259.438 15.1605 259.438 16.6622V52.8321H268.992V31.1362C268.992 30.9043 269.122 30.7003 269.322 30.6312C269.521 30.562 269.731 30.6434 269.851 30.8341L278.227 44.3069H287.811L296.597 30.824C296.717 30.639 296.926 30.5621 297.126 30.6323C297.316 30.7036 297.456 30.9065 297.456 31.1362V52.8321H307ZM210.597 52.8321L195.524 16.3467C194.934 14.9175 193.428 14 191.76 14H178.55C176.883 14 175.376 14.9175 174.786 16.3467L159.714 52.8321H169.777L174.198 41.6982C174.274 41.5064 174.445 41.3838 174.631 41.3838H195.568C195.755 41.3838 195.924 41.5053 196 41.6937L200.53 52.8321H210.597ZM192.344 34.5153C192.505 34.5153 192.656 34.4238 192.743 34.2722C192.83 34.1206 192.843 33.93 192.776 33.7661L187.677 21.2297C187.6 21.0402 187.43 20.9187 187.245 20.9187H182.759C182.571 20.9187 182.402 21.0424 182.325 21.2331L177.347 33.7706C177.281 33.9344 177.295 34.124 177.383 34.2745C177.47 34.4239 177.619 34.5153 177.78 34.5153H192.344ZM152.811 24.8675C152.811 23.8151 152.567 22.9767 152.107 22.3457C151.437 21.4248 150.28 20.9187 148.605 20.9187H136.774C136.513 20.9187 136.3 21.1562 136.3 21.4482V33.9857C136.3 34.2778 136.513 34.5153 136.774 34.5153H148.605C150.28 34.5153 151.437 34.0091 152.107 33.0883C152.567 32.4562 152.811 31.6189 152.811 30.5665V24.8675ZM237.713 14.0056H229.067C227.43 14.0056 226.052 15.1661 226.052 16.6689V19.058H233.73L237.713 14.0056Z" fill="white"/>
<path fill-rule="evenodd" clip-rule="evenodd" d="M52.6289 13.3768L61.7767 18.6581V47.9741L36.3879 62.6322L27.2974 57.3829L52.6289 42.9253V13.3768ZM45.5736 9.3031L20.0888 23.8483V53.2216L11 47.9741V18.6581L36.3879 4L45.5736 9.3031Z" fill="white"/>
</g>
</g>
<defs>
<clipPath id="clip0_439_14898">
<rect width="307" height="70" fill="white"/>
</clipPath>
</defs>
</svg>
