<svg width="310" height="355" viewBox="0 0 310 355" fill="none" xmlns="http://www.w3.org/2000/svg">
<g clip-path="url(#clip0_1410_2)">
<path fill-rule="evenodd" clip-rule="evenodd" d="M0 155.554C0 155.376 0 155.177 0 155C0 69.4622 69.4622 0 155 0C240.538 0 310 69.4622 310 155C310 155.177 310 155.376 310 155.554C309.646 271.383 198.179 340.513 162.949 352.824C160.602 353.644 157.79 354.286 155 354.286C152.21 354.286 149.531 353.754 147.051 352.824C111.821 340.513 0.354286 271.383 0 155.554Z" fill="#222222"/>
<path fill-rule="evenodd" clip-rule="evenodd" d="M88.7174 117.612L89.6461 115.267C97.2088 96.3955 115.534 84 135.907 84H173.093C193.466 84 211.791 96.3955 219.354 115.267L220.283 117.612H220.339C220.764 117.5 221.2 117.5 221.625 117.5H244V117.612C244 123.418 241.651 129.112 237.467 133.356C235.766 135.031 233.819 136.372 231.705 137.489L231.805 137.601C233.629 138.941 235.296 140.503 236.773 142.29C239.682 145.751 241.818 149.884 242.982 154.239C243.653 156.807 243.989 159.487 244 162.167V195.667H232.812V218H199.25V195.667H109.75V218H76.1875V195.667H65V162.167C65 152.228 69.6987 143.184 77.2951 137.489C75.1806 136.372 73.2338 135.031 71.5333 133.356C67.3492 129.112 65 123.418 65 117.612V117.5H87.375C87.8337 117.5 88.2811 117.5 88.7174 117.612ZM232.812 151H217.396C212.586 151 207.965 152.898 204.564 156.248C201.163 159.71 199.25 164.29 199.25 169.091V173.333H210.437C222.744 173.333 232.734 163.395 232.812 151.112V151ZM91.6038 151H76.1875C76.1875 163.395 86.2002 173.333 98.54 173.333C104.715 173.333 109.75 173.333 109.75 173.333V169.091C109.75 164.29 107.837 159.71 104.436 156.248C101.035 152.898 96.4144 151 91.6038 151ZM135.907 106.333C124.685 106.333 114.594 113.145 110.421 123.53L108.374 128.667H200.626L198.579 123.53C197.617 121.185 196.319 118.951 194.73 116.829C192.94 114.596 190.792 112.586 188.376 111.022C185.993 109.347 183.364 108.121 180.611 107.339C178.161 106.669 175.633 106.333 173.093 106.333H135.907Z" fill="white"/>
</g>
<defs>
<clipPath id="clip0_1410_2">
<rect width="310" height="355" fill="white"/>
</clipPath>
</defs>
</svg>
