<svg width="939" height="95" viewBox="0 0 939 95" fill="none" xmlns="http://www.w3.org/2000/svg">
<path d="M64.4828 91.1959V27.981H101.797V4.97693H0V27.981H37.3128V91.1959H64.4828ZM138.934 55.1509V4.97693H112.67V91.1959H135.856L181.138 41.0219V91.1959H207.403V4.97693H184.217L138.934 55.1509ZM295.762 59.1359V91.1959H322.026V4.97693H295.762V36.4929H253.557V4.97693H227.294V91.1959H253.557V59.1359H295.762ZM395.17 91.1959C401.147 91.1959 406.581 90.6529 411.653 89.2029C425.238 85.3989 434.114 74.3499 434.114 59.3159C434.114 45.0069 426.505 35.0449 414.37 30.5159C408.574 28.3429 401.691 28.1609 395.17 28.1609H368.181V4.97693H341.917V91.1959H395.17ZM390.642 48.4489C394.264 48.4489 397.705 48.4489 400.785 49.5359C405.132 50.9839 407.668 54.6069 407.668 58.9539C407.668 63.4829 405.132 67.287 400.966 69.098C398.068 70.365 395.17 70.3649 390.642 70.3649H368.181V48.4489H390.642ZM481.205 58.5919L512.541 91.1959H547.5L503.847 46.275L545.869 4.97693H512.904L481.205 37.4H473.96V4.97693H447.695V91.1959H473.96V58.5919H481.205ZM601.543 2.62195C566.222 2.62195 545.029 22.546 545.029 48.267C545.029 73.989 566.222 93.913 601.543 93.913C636.682 93.913 657.875 73.989 657.875 48.267C657.875 22.546 636.682 2.62195 601.543 2.62195ZM601.543 72.9019C583.973 72.9019 572.742 62.396 572.742 48.267C572.742 34.139 583.973 23.814 601.543 23.814C618.931 23.814 630.343 34.139 630.343 48.267C630.343 62.396 618.931 72.9019 601.543 72.9019ZM745.344 0.0859375H719.08V8.77997C686.114 9.50497 666.37 23.4519 666.37 48.0859C666.37 72.7199 686.114 85.581 719.08 86.306V94.9999H745.344V86.306C778.491 85.581 798.234 72.7199 798.234 48.0859C798.234 23.4519 778.491 9.50497 745.344 8.77997V0.0859375ZM719.08 67.83C700.967 67.105 692.996 59.6789 692.996 48.0859C692.996 36.4929 700.967 28.161 719.08 27.437V67.83ZM745.344 27.437C763.639 28.161 771.427 36.4929 771.427 48.0859C771.427 59.6789 763.639 67.105 745.344 67.83V27.437ZM885.616 0.0859375H859.351V8.77997C826.386 9.50497 806.642 23.4519 806.642 48.0859C806.642 72.7199 826.386 85.581 859.351 86.306V94.9999H885.616V86.306C918.759 85.581 938.507 72.7199 938.507 48.0859C938.507 23.4519 918.759 9.50497 885.616 8.77997V0.0859375ZM859.351 67.83C841.238 67.105 833.268 59.6789 833.268 48.0859C833.268 36.4929 841.238 28.161 859.351 27.437V67.83ZM885.616 27.437C903.912 28.161 911.699 36.4929 911.699 48.0859C911.699 59.6789 903.912 67.105 885.616 67.83V27.437Z" fill="#416388"/>
</svg>
