<svg fill="none" height="207" viewBox="0 0 800 207" width="800" xmlns="http://www.w3.org/2000/svg"><path d="m151.737 68.7627c-.32 10.3152-.529 18.7324-.858 27.1448-.31 7.9385-.649 15.8775-1.152 23.8055-.563 8.861-2.08 17.567-4.639 26.083-2.8 9.319-7.617 17.457-13.896 24.779-3.838 4.476-8.324 8.227-12.83 11.971-9.491 7.885-19.6075 14.812-30.5187 20.535-2.396 1.257-4.8366 2.422-7.4264 3.229-3.0068.938-6.0065.917-9.0015-.046-2.8458-.916-5.5143-2.239-8.1452-3.639-10.7726-5.732-20.7606-12.643-30.1321-20.483-3.5869-3.001-7.1797-5.981-10.3979-9.405-8.9216-9.49-14.77299-20.6-17.59182-33.382-1.56914-7.118-2.65087-14.296-3.02201-21.576-.38407-7.538-.74347-15.079-1.01596-22.6241-.352348-9.7561-.658886-19.5146-.885566-29.2743-.165606-7.1138-.23138263-14.2312-.22433557-21.3462.00587255-6.1653.12802157-12.3319.29362757-18.4961.068122-2.5248.243126-5.0638.618969-7.5578.721145-4.7813 3.584605-7.9186 7.989025-9.53767 4.49017-1.64996 9.16587-2.66368 13.83337-3.66552 9.2716-1.98826 18.6477-3.24413 28.0861-4.07148 7.3289-.642179 14.6684-1.033896 22.0244-1.1704033 7.2408-.1341332 14.4723.1163283 21.6862.6884713 6.0028.475992 12.0068 1.004222 17.9838 1.731862 9.796 1.19414 19.465 3.08625 28.941 5.91492 1.928.57571 3.759 1.3259 5.336 2.63642 2.575 2.1401 4.118 4.8466 4.406 8.2106.239 2.7954.462 5.5968.539 8.3993.15 5.5719.277 11.1461.261 16.718-.027 8.7756-.181 17.5513-.26 24.4253zm-1.452-25.401c.036 0 .072 0 .108-.0012-.088-3.8329-.167-7.6658-.267-11.4987-.069-2.6459-.126-5.2941-.266-7.9364-.095-1.8126-.182-3.6453-.521-5.4211-.769-4.0478-3.309-6.6414-7.067-8.0029-1.945-.70511-3.958-1.23927-5.965-1.74969-8.001-2.03692-16.082-3.65127-24.292-4.55934-4.931-.54484-9.858-1.13479-14.7979-1.56924-3.9299-.34542-7.8751-.58045-11.8179-.68966-4.6112-.1282-9.2282-.14838-13.8393-.06885-4.5712.07835-9.14.33-13.7089.52229-1.171.04986-2.3408.14363-3.5082.25403-2.8776.2742-5.7563.54009-8.628.86652-3.5306.40121-7.0717.75376-10.5788 1.31997-4.5489.73476-9.0942 1.53837-13.5926 2.53666-4.0016.88789-7.9926 1.90991-11.88607 3.18711-3.83595 1.2583-6.30125 4.0157-7.05998 8.1299-.16443.8903-.2584 1.7996-.31007 2.7041-.17266 3.0352-.35235 6.0716-.45101 9.1103-.11158 3.4365-.1703 6.8741-.1891 10.3129-.01174 2.2909.09984 4.5819.13508 6.8728.07869 5.1363.18439 10.2737.20553 15.4111.02702 6.6414.12567 13.278.47802 19.9123.15739 2.9592.15387 5.9267.25723 8.8895.13272 3.8294.36879 7.6563.43574 11.4859.10688 6.088.46511 12.16.99951 18.221.26661 3.024.60253 6.05 1.07585 9.048.45454 2.881 1.08524 5.737 1.71008 8.588 2.05774 9.387 5.78679 18.007 11.55949 25.697 4.0204 5.355 8.6985 10.025 13.8323 14.293 8.9626 7.451 18.2765 14.367 28.4595 20.04 3.325 1.852 6.6524 3.692 10.237 4.998 1.3625.496 2.7402.853 4.2142.942 2.6274.159 5.0234-.582 7.3806-1.596 4.6922-2.02 9.0919-4.595 13.4611-7.226 7.6136-4.583 14.7116-9.895 21.5776-15.544 4.741-3.899 9.364-7.905 13.274-12.694 4.258-5.216 7.906-10.809 10.43-17.093 2.719-6.768 4.354-13.832 5.483-21.034.84-5.352 1.222-10.747 1.552-16.145.311-5.086.493-10.181.693-15.273.191-4.8953.344-9.7917.493-14.6894.167-5.4911.339-10.9823.454-16.4734.114-5.414.172-10.8292.231-16.2444.028-2.6103.004-5.2205.004-7.8296z" fill="#000"/><path d="m75.9467 204.134c-2.2997.057-4.2447-.667-6.1486-1.504-6.3318-2.785-12.2219-6.374-18.0311-10.115-8.0724-5.198-15.5211-11.23-22.7326-17.552-5.8033-5.089-10.5201-11.133-14.3455-17.884-2.1681-3.827-3.7772-7.879-5.09384-12.073-1.50572-4.795-2.58156-9.688-3.33677-14.648-.49212-3.234-.83156-6.497-1.10522-9.758-.32416-3.856-.54262-7.723-.73759-11.588-.19027-3.785-.29715-7.575-.43574-11.3632-.1339-3.6299-.27367-7.2598-.38877-10.8897-.1339-4.2246-.24547-8.4492-.36175-12.6738-.101-3.7106-.22433-7.4201-.28306-11.1307-.0599-3.8317-.04462-7.6634-.07985-11.4963-.03289-3.5159-.14095-7.0331-.12098-10.549.02231-3.8697.12684-7.7406.24311-11.6091.07752-2.6031.19381-5.2062.37351-7.8034.13741-2.0049.29244-4.0252 1.41762-5.7986 1.19918-1.8898 2.79299-3.3035 4.89419-4.0466 3.80194-1.3449 7.70364-2.33959 11.64994-3.13727 4.4021-.88908 8.803-1.81258 13.2403-2.48799 4.826-.73477 9.6862-1.24756 14.5404-1.77222 3.298-.3573 6.6078-.62438 9.9176-.8321 3.5482-.22198 7.1022-.36205 10.6563-.47244 2.8506-.08784 5.7046-.12938 8.5563-.09852 2.8917.03086 5.7833.14719 8.6726.27657 2.9292.13176 5.8585.28133 8.7806.5033 3.3873.25758 6.7722.5674 10.1502.92113 3.263.34186 6.524.71221 9.772 1.17396 6.619.94249 13.187 2.17225 19.66 3.87918 2.38.6267 4.77 1.2582 7.08 2.0998 3.647 1.3295 5.695 4.062 6.091 7.9626.552 5.4258.678 10.8743.704 16.3262.014 2.8786.082 5.7571.069 8.6356-.017 3.6715-.1 7.3441-.14 11.0156-.038 3.4767-.026 6.9535-.09 10.4291-.066 3.554-.195 7.1055-.301 10.6583-.08 2.6838-.156 5.3689-.25 8.0527-.144 4.0644-.306 8.1275-.451 12.1907-.146 4.0642-.225 8.1332-.434 12.1942-.243 4.732-.504 9.467-.928 14.184-.42 4.678-1.188 9.311-2.198 13.906-.893 4.056-2.037 8.028-3.458 11.923-1.385 3.798-3.217 7.368-5.369 10.77-2.34 3.702-5.011 7.148-7.965 10.378-2.554 2.792-5.324 5.339-8.253 7.714-3.445 2.79-6.846 5.645-10.403 8.284-3.619 2.685-7.348 5.229-11.1345 7.668-3.1923 2.057-6.5032 3.931-9.8189 5.783-2.632 1.47-5.3346 2.811-8.2133 3.747-1.3166.429-2.6426.703-3.8618.609zm12.6295-125.7813c.0176-.1081.0341-.2149.0517-.3229.3699-.0155.7446-.0724 1.1099-.0392 1.6255.1472 2.8775.9508 3.7854 2.3028.3735.5556.6824 1.155 1.0594 1.707.4828.705.9913.9104 1.5774.7015.6366-.2267.9643-.7704.8245-1.6405-.5285-3.2916-2.1987-5.6514-6.0499-6.2722-.1844-.0297-.3864.057-.6918.108.417.3834.7153.6588 1.1839 1.0909-.4252-.0487-.6119-.0617-.7951-.0926-1.191-.2042-2.3749-.4867-3.5752-.6042-3.1771-.3122-6.3318.0048-9.4607.5639-3.6434.6516-6.7159-.5128-9.3879-2.9486-1.1428-1.041-1.9285-2.3396-1.8827-3.9409.0928-3.2655 1.1087-6.0562 4.1895-7.6836.2043-.108.3441-.3418.6518-.6612-.4404-.0201-.6742-.0819-.8809-.032-4.9282 1.1775-6.8016 3.313-7.8022 7.6183-.3524 1.5146-.4358 3.0578-.0106 4.5807.7693 2.7515 2.6685 4.4193 5.2442 5.3202 3.3297 1.1633 6.7804 1.5111 10.2922 1.3259 2.3044-.1222 4.6088-.2706 6.9144-.2967.8362-.0095 1.6889.2552 2.5087.4843.3888.1092.8093.3703.6119 1.073-.3547-.0178-.7293-.051-1.104-.0534-1.1663-.0083-2.3467-.1234-3.4977.0131-3.7702.4463-7.5321.8831-11.3446.7466-3.4178-.1222-6.5056-1.1526-9.3996-2.9616-5.6682-3.5444-5.317-10.7105-1.9943-14.4258 2.9621-3.313 6.6489-5.3559 10.9218-6.3126 3.2675-.7324 6.5913-.8084 9.9246-.603.4017.0249.8057.0035 1.2085.0035.0318-.0854.0646-.1709.0963-.2564-.2548-.2754-.4886-.5757-.7681-.8226-2.6027-2.2992-5.6588-2.6874-8.8123-1.1348-1.4834.7301-2.3303.5306-3.3544-.7905-1.9885-2.5652-4.6159-3.8768-7.8199-3.8911-2.7037-.0118-5.1878.6933-7.1446 2.7409-1.0887 1.1395-1.6936 2.5378-2.1775 4.018-.3054.933-.653 1.8625-1.097 2.7349-.4745.933-1.319 1.2974-2.3631 1.1823-.9138-.1009-1.7477-.3573-2.4595-.9935-.5543-.4962-.6906-.457-1.1263.0819-.0987.1222-.1785.2599-.2701.3881-2.1682 3.0257-3.89 6.2805-5.2231 9.7763-2.0836 5.4639-3.5235 11.0773-3.7984 16.9234-.1491 3.1871.0646 6.4015.2772 9.5923.0928 1.3971.4687 2.8096.9396 4.1354.5309 1.496 1.9133 1.871 3.2687 1.095.7576-.435 1.0547-1.138 1.1228-1.9661.0846-1.0244.1445-2.0512.2267-3.0756.2643-3.2726.7106-6.5072 1.4881-9.7086 1.6572-6.8171 4.556-13.1166 7.7295-19.2998 1.2602-2.4536 2.7906-4.7611 4.5712-6.8835.8891-1.0588 1.9814-1.7865 3.3003-2.1497.7776-.2149 1.5152-.1555 2.2539.5852-.4357.2255-.7716.3893-1.0981.5698-.9596.5294-1.9544 1.0066-2.8647 1.6131-1.4846.9876-2.5769 2.3218-2.941 4.1285-.2877 1.4268-.5261 2.8678-.6964 4.3124-.0623.5294-.1833.8689-.6672 1.117-1.7453.8938-2.9409 2.3384-3.7866 4.081-1.7852 3.6797-3.1394 7.4984-3.5012 11.6161-.1903 2.1652-.3594 4.3279-.0763 6.5073.4017 3.0827 3.056 5.8484 5.8291 5.9007 1.5738.0297 3.0948-.2897 4.5876-.8452 1.4987-.5579 3.0455-.9959 4.59-1.4125.4792-.1294 1.0206-.0202 1.649-.0202-.1656.222-.2126.3466-.2983.3917-2.4371 1.2665-4.792 2.6624-7.0447 4.2494-1.6772 1.181-3.5776 1.563-5.5978 1.135-1.7406-.369-3.3872-.959-4.7438-2.196-.1774-.162-.4369-.229-.7858-.405-.0234.539-.054.924-.0552 1.308-.0047 1.82 0 3.638-.0023 5.458-.0035 2.642.4968 5.191 1.4634 7.639 1.2239 3.099 3.1407 5.625 6.0335 7.339 5.0892 3.016 11.5971 1.811 15.1864-2.926.942-1.244 1.6796-2.665 2.3843-4.069.9819-1.956 2.4453-3.463 4.079-4.836.2761-.233.5873-.575 1.1182-.135-.2373.352-.4569.711-.7071 1.044-1.1346 1.518-2.1681 3.095-2.9457 4.837-.7552 1.694-1.562 3.363-2.3384 5.048-1.0665 2.312-2.7895 3.883-5.1949 4.657-.7798.251-1.5832.436-2.3866.595-.7082.14-1.4317.202-2.2515.312.3524.587.8621.692 1.3143.856 1.7594.636 3.5905.816 5.4368.683 4.1883-.303 7.8633-1.961 11.1696-4.505 1.1815-.909 2.2879-1.918 3.4413-2.867.2044-.168.4663-.266.7012-.395.0669.078.1339.157.2008.235-.3629.585-.7094 1.182-1.0911 1.756-2.7683 4.166-6.5573 6.895-11.4339 7.846-2.4054.469-4.8918.514-7.3418.743-.4029.038-.8093.033-1.2133.049.3218.562.6683.941 1.0911 1.19 1.9579 1.152 3.9076 2.322 5.9137 3.382 2.6332 1.391 5.4873 1.78 8.4283 1.643 1.1122-.052 1.1592-.111 1.1757-1.247.0422-2.858.6283-5.531 2.2351-7.975 2.2104-3.362 4.3409-6.773 7.2114-9.622.417-.414.4605-.767.0881-1.225-.2971-.365-.5532-.767-.801-1.169-.6425-1.043-.902-2.183-.7846-3.404.1374-1.426.8504-2.439 2.1928-2.949.8234-.314 1.2873-.089 1.4999.759.1527.612.1961 1.249.3101 1.871.3887 2.137.7199 4.286 1.198 6.403.6753 2.992 2.4336 5.139 5.169 6.521 2.9046 1.469 5.9608 1.884 9.1268 1.445 1.062-.147 2.09-.612 3.105-1.005.466-.181.71-.614.566-1.166-.152-.579-.527-.867-1.12-.82-.506.039-1.013.09-1.515.166-2.487.376-4.9668.589-7.4497-.08-2.4112-.649-3.8183-2.254-4.3175-4.657-.5485-2.645-.1867-5.191 1.0853-7.588.5426-1.022.5696-.998 1.6173-.618 1.9121.693 3.8277 1.384 5.7746 1.964.847.253 1.781.357 2.663.306 3.054-.175 4.639-2.8 3.471-5.649-.564-1.373-1.424-2.546-2.528-3.523-1.394-1.233-2.964-2.187-4.656-2.948-.328-.149-.756-.194-.9439-.763 2.4719-.7946 4.8339-1.6552 7.4579-1.4119 1.467.1365 2.979.1698 4.433-.0308 1.993-.2754 3.041-1.6559 3.162-3.675.095-1.593-.276-3.0614-1.108-4.4086-2.493-4.0371-6.066-6.1998-10.808-6.1808-1.753.0071-3.5139.1756-5.2581.3905-1.8968.2338-3.4002-.2422-4.3926-1.9847-.3312-.5816-.7047-1.1395-1.05-1.7141-.6719-1.117-1.5398-1.9859-2.8189-2.3669-.2067-.0617-.3923-.197-.5872-.2979zm26.2558-54.4059c-.057.0368-.116.0736-.173.1104.099.3122.205.622.299.9353.388 1.2832.829 2.5521 1.145 3.8531.41 1.6891.182 3.3189-.86 4.7422-.742 1.0137-1.494 2.0428-2.377 2.9248-2.169 2.1675-4.481 4.1913-6.61 6.3968-1.396 1.4458-2.892 1.6915-4.691 1.1016-3.3966-1.1146-6.6829-2.4856-9.7413-4.3588-1.0324-.6326-2.0448-1.3354-2.948-2.1413-4.4667-3.9825-9.2117-7.5993-14.0577-11.0868-4.5372-3.2643-9.5558-5.5292-14.827-7.2646-3.4989-1.1514-7.0436-1.3662-10.6529-.6208-3.978.8214-6.5984 3.0649-7.5591 7.153-.3747 1.5954-.5485 3.1907-.3723 4.8193.1433 1.3235-.3348 2.234-1.501 2.9319-1.4083.844-2.7872 1.7746-4.038 2.837-1.1264.9579-2.2727 2.0132-3.0361 3.2596-1.3742 2.2423-2.4735 4.659-3.6715 7.0093-.0846.1662-.0494.3953-.0905.7953.5661-.5045.9385-.9116 1.3801-1.2143 1.0312-.7075 2.0366-1.4933 3.1582-2.0144 2.3514-1.092 4.3915-.6315 6.2214 1.2001 1.6349 1.6369 2.4359 3.694 2.6532 5.9363.2208 2.2755.2079 4.5736.2936 6.8622.0212.5685.0271 1.1383.04 1.7081.0846.0392.1691.0783.2537.1175.2795-.2362.5732-.457.8339-.7122 1.6091-1.5693 3.392-2.7907 5.6917-3.0578 1.8005-.2089 2.9562-1.2772 3.729-2.888.6683-1.3936 1.5105-2.6779 2.6439-3.7462 1.3506-1.2737 2.9386-1.9776 4.7884-1.8732 1.0853.0606 2.1834.2173 3.2346.4927 2.3479.6137 4.3951 1.8387 6.2508 3.4031.3089.2612.653.4796 1.178.8618.0963-.6267.1997-.9971.2009-1.3674 0-1.1455.0246-2.2981-.0764-3.4364-.2267-2.545-.7529-5.0437-2.221-7.1661-4.3527-6.2912-10.1384-9.8558-17.9712-9.3513-1.326.0854-2.6485.2303-3.9745.3133-2.4242.1508-3.8536-1.1704-3.9569-3.6251-.1245-2.932 1.4963-5.49 4.3598-6.8456 1.8756-.889 3.8617-1.2594 5.9265-1.1953 3.6269.1128 7.0318 1.1479 10.2347 2.7765 4.9071 2.4939 9.476 5.5683 13.7606 9.0237 5.0445 4.0679 9.9868 8.2688 14.8939 12.5076 3.789 3.2726 8.0515 5.4294 12.9835 6.1701 4.153.6232 8.095.0808 11.722-2.2434 2.336-1.498 3.714-3.5967 4.085-6.3363.918-6.7566-1.287-12.4388-5.93-17.251-.175-.1816-.413-.2991-.621-.4475zm-76.593 25.8699c-.0235-.4677-.0211-.825-.0634-1.1763-.3465-2.8857-2.0307-3.7855-4.4843-2.2518-1.2461.7798-2.4289 1.7496-3.4272 2.8334-4.0145 4.3647-7.2761 9.2789-9.8788 14.6193-.7341 1.5075-1.2403 3.1492-1.6678 4.779-.222.8428-.155 1.8114-.0176 2.6909.1879 1.2001.9067 1.739 2.1035 1.8518.9572.0914 1.8628-.114 2.7437-.4748 1.6196-.6636 3.0396-1.6511 4.2306-2.9177 2.396-2.5485 4.6851-5.1944 6.5643-8.1714 2.2926-3.6323 3.6222-7.5839 3.8959-11.7824zm-4.0274 50.3103c-.9126 1.779-1.4728 3.494-1.8839 5.259-.4663 2.006-.7517 4.031-.5414 6.102.2725 2.684.8961 5.279 1.7782 7.826.3582 1.034.5684 2.13.7528 3.214.168.986.2103 1.995.3066 2.981 1.0911-.34 2.0777-.857 3.0854-.904 1.0465-.05 2.1141.354 3.2381.572.0376-.154.1104-.334.1198-.518.1457-2.624.6108-5.13 1.9439-7.472 1.0711-1.88 1.2438-4.005.5344-6.081-.6096-1.785-1.3883-3.512-2.0989-5.262-.0235-.058-.1257-.083-.1926-.122-4.0662.386-5.3769-.625-7.0424-5.593zm-17.6787-29.8283-.3112-.032c-.4417.6018-.6777 1.3116-.6954 2.0535-.0246 1.022.0682 2.0464.1011 3.0708.0563 1.7343.2313 3.4756.1338 5.2016-.1867 3.3082-1.2802 6.4087-2.4476 9.4724-.5614 1.4731-.202 2.6007 1.1451 3.3759.6284.3608 1.1945.4546 1.8182-.0855.8339-.7217 1.8475-.9924 2.948-.9271 1.1674.0701 1.2144.0487 1.1569-1.1134-.2619-5.2727.8832-10.2725 2.827-15.1226.0658-.1638.0693-.3526.1374-.7158-.4991.1519-.8515.26-1.205.3656-1.8557.5555-3.5224-.0344-4.6194-1.6476-.5672-.8321-.882-1.7532-.9137-2.7705-.0118-.3751-.0494-.749-.0752-1.1241zm91.8551 66.9773c-.199-.161-.372-.309-.555-.451-1.553-1.205-2.464-2.722-2.289-4.773.027-.313.045-.63.038-.945-.035-1.679-.698-2.433-2.367-2.656-2.175-.29-4.0283.409-5.4812 2.039-1.2743 1.43-2.0589 3.139-2.4805 5.027-.249 1.117.0411 2.069.821 2.806.5555.526 1.2344.977 1.9355 1.275 1.4189.602 2.7152 1.379 3.9302 2.318.203.158.435.278.654.416-.045-.083-.089-.166-.133-.249.932-.838 1.832-1.716 2.804-2.504.965-.784 2-1.48 3.123-2.302zm12.822 19.065c2.131.797 4.091.984 6.011-.108.54-.307 1.021-.726 1.511-1.118 1.126-.902 1.458-.867 2.372.297.467.595 1.095.796 1.761.565.6-.21.926-.72.92-1.494-.002-.273-.051-.549-.105-.819-.408-1.999-1.579-3.507-3.095-4.758-1.157-.955-2.114-.863-3.223.187-1.361 1.29-2.132 1.343-3.581.221-.608-.471-1.247-.81-2.046-.719-1.079.122-1.624.794-1.442 1.861.078.464.224.922.39 1.364.532 1.419.945 2.851.528 4.521zm-5.958.845c3.064.024 4.248-1.34 3.895-3.834-.561-3.981-5.113-5.975-7.661-5.436-1.3.275-2.141 1.085-2.459 2.408-.223.927-.059 1.819.358 2.644 1.341 2.65 3.54 3.993 5.865 4.217zm5.636-10.555c-.277-.154-.434-.26-.606-.335-2.34-1.032-4.529-2.299-6.517-3.945-.828-.686-1.828-1.238-2.837-1.609-1.885-.692-3.546-.156-4.848 1.387-.838.992-1.283 2.166-1.324 3.474-.037 1.21.398 2.245 1.238 3.098.639.65 1.164.678 1.844.102.36-.303.678-.656 1.035-.963 2.507-2.164 4.844-2.309 7.611-.498.249.164.593.385.831.327 1.161-.286 2.301-.658 3.573-1.037zm-83.8376-74.6574c2.813-4.1118 4.6288-15.6758 3.0913-19.3935-1.1369 2.7954-2.0765 5.687-3.4624 8.3423-1.393 2.6673-3.2299 5.0971-4.8719 7.6302.9678.3383 2.0472.514 2.8858 1.0636.8867.5804 1.5445 1.5182 2.3572 2.3562zm73.6796 35.6204c.585-.491 1.097-.975 1.663-1.381.652-.466 1.159-.407 1.556.086.355.441.315.872-.218 1.468-.68.762-1.418 1.472-2.086 2.243-.355.41-.657.882-.908 1.366-.264.509-.167 1.009.318 1.362.459.336.954.353 1.42.024.254-.179.472-.413.687-.641 1.08-1.142 2.193-2.254 3.211-3.449.47-.554.818-1.243 1.097-1.923.409-.994.098-1.882-.714-2.536-.576-.465-1.205-.88-1.854-1.234-2.253-1.23-4.707-1.898-7.167-2.536-.131-.034-.288.037-.431.058.211 1.803 1.911 5.347 3.426 7.093zm-31.4712 27.059c.0329.51.0153 1.032.1092 1.53.1515.813.5532 1.468 1.3742 1.777 1.8017.675 3.2827-.526 2.9938-2.456-.1456-.973-.3758-1.935-.5356-2.907-.6001-3.636.3324-6.794 2.9093-9.433.1903-.195.4252-.393.5074-.635.0893-.265.1327-.653 0-.856-.1386-.211-.5109-.36-.7822-.361-.2842 0-.6296.14-.8433.336-1.8088 1.656-3.4531 3.463-4.2752 5.838-.8011 2.313-1.3578 4.694-1.4576 7.167zm16.267-19.142-.1421.023c.2137 1.08.3558 2.18.6577 3.234.4169 1.456 1.4998 2.291 2.9069 2.662 2.1057.554 3.5577-.473 3.9337-2.677.091-.539.256-1.078.472-1.579.244-.566.69-.979 1.332-1.036.855-.075 1.715-.134 2.572-.127.639.006 1.143.293 1.207 1.031.047.543.315.825.848.673.522-.148.592-.587.476-1.052-.183-.729-.665-1.254-1.261-1.655-2.125-1.429-4.979-.754-6.05.818-.243.357-.542.675-.807 1.017-.905 1.169-2.0297.791-2.5289-.436-.1327-.326-.1821-.686-.2913-1.023-.1457-.45-.276-.91-.4804-1.333-.3746-.77-.8856-.99-1.7394-.824-.6789.132-1.0042.511-1.0994 1.337-.0364.312-.0058.631-.0058.947zm-58.0161 11.68c-1.6679.132-3.3885.578-4.8038 1.843-.7587.677-1.2391 1.534-1.3284 2.565-.0575.673.2972.948.9443.801.1515-.034.3089-.083.437-.166.6178-.399 1.1569-.259 1.7335.136 1.2826.881 1.7371.869 3.0467-.11.8245-.618 1.595-.672 2.4923-.141.5603.331 1.2074.577 1.8452.695.6777.126 1.5069.229 1.9473-.452.4463-.692-.0164-1.384-.4099-1.968-1.3718-2.041-3.325-3.044-5.9066-3.201zm58.029 1.815c-.8997-.756-1.7876-1.214-2.8376-1.28-1.3084-.084-2.0989.373-2.6051 1.574-.8691 2.058-.9478 4.227-.68 6.402.128 1.047 1.2896 1.802 2.4606 1.778 1.057-.021 1.6032-.542 1.797-1.788.0916-.583.1374-1.179.1374-1.769 0-1.385.4005-2.642 1.0946-3.82.1985-.336.3911-.675.6331-1.095zm-77.5858-26.442c.6565-.226 1.3436-.39 1.9614-.696.7106-.353 1.1182-1.017 1.144-1.818.0528-1.6676-.4745-3.1335-1.8111-4.171-.9643-.749-2.0859-.9306-3.1994-.3359-1.3401.7146-2.0554 2.4939-1.6725 3.9729.451 1.744 1.8945 2.938 3.5788 3.049zm66.7932 32.085c.0482.41.0716 1.007.1973 1.582.1645.755.646 1.09 1.3425 1.041.7634-.055 1.2403-.481 1.3448-1.233.0376-.271.027-.552.0294-.828.0317-2.958.3476-5.835 2.0248-8.399.498-.761.2889-1.555-.3476-1.991-.7188-.493-1.6749-.37-2.1976.341-.3006.408-.5285.877-.7458 1.339-1.1874 2.518-1.3788 5.247-1.6478 8.148zm-57.356 2.738c.0763.381.128.978.3194 1.524.4405 1.253 1.4541 1.783 2.6803 1.976 1.0418.165 1.6971-.491 2.2515-1.207.9631-1.245 1.1052-2.674.5837-4.133-.4686-1.312-1.8134-2.039-3.2933-1.896-1.2673.124-2.1082.934-2.4007 2.355-.0787.382-.0822.78-.1409 1.38zm15.2017-.254c.0352.01.0704.021.1057.033.0199.355.0094.715.0669 1.062.2161 1.314 1.2591 2.291 2.5428 2.411 1.1886.112 2.5381-.728 2.8365-1.855.3312-1.251.2572-2.515-.2302-3.719-.4229-1.043-1.2333-1.619-2.3561-1.663-1.1534-.045-1.9509.578-2.389 1.587-.2912.671-.3911 1.426-.5766 2.144zm-1.3766 1.125c-.1256-.652-.1761-1.249-.3617-1.801-.4334-1.291-1.5375-2.035-2.7601-1.942-1.2274.095-2.3161 1.11-2.4406 2.472-.0811.889-.0235 1.817.1432 2.695.2514 1.325 1.0031 2.001 2.0625 2.088 1.2684.106 2.3584-.471 2.8552-1.631.2572-.6.3465-1.276.5015-1.881zm-27.46-39.9705c-.2619-.939-.4616-1.9005-.8022-2.8097-.431-1.1502-1.1522-1.4185-2.214-.8464-1.27547.6873-2.19394 1.745-2.79999 3.0721-.28541.6231-.20085 1.2166.14446 1.8007.72115 1.2178 1.99433 1.6998 3.56343 1.3248 1.4306-.342 1.9579-1.0162 2.1083-2.5415zm8.2063-2.8121c.2231.3977.3242.6505.4862.8535.8422 1.0517 1.0853 2.1948.7623 3.5326-.4522 1.8705.2854 2.6485 2.2034 2.4455.2314-.024.4616-.073.6859-.134 1.5034-.419 2.0213-1.303 1.6373-2.8362-.6061-2.4144-2.4348-3.605-4.6899-4.0098-.3006-.0546-.6354.0819-1.0852.1496z" fill="#000"/><path d="m78.7666 96.9236c-.2677.1661-.5473.3157-.8021.5009-3.6175 2.6205-6.0817 6.2165-8.2651 10.0425-.8797 1.54-1.6971 3.117-2.571 4.661-1.7887 3.159-4.4349 5.293-7.8257 6.444-2.2175.754-4.4643.784-6.6336-.244-3.1654-1.499-4.7556-4.587-4.1989-8.088.7552-4.744 4.2259-7.486 9.2739-7.327 1.2238.039 2.4171.22 3.4977.857 1.4858.876 2.2198 2.695 1.7301 4.277-.3007.972-.9408 1.636-1.8722 1.987-.9302.35-1.7806-.088-1.763-1.078.0411-2.345-1.6819-2.729-3.3367-2.623-2.1564.139-3.7585 2.268-3.2969 4.454.4275 2.021 1.6091 3.39 3.6445 3.91 1.4881.38 2.9551.297 4.3751-.289 2.2809-.939 4.1096-2.406 5.29-4.642.6248-1.186 1.3283-2.329 1.9778-3.502 1.6995-3.071 3.9816-5.661 6.4974-8.0561.8374-.7977 1.8123-1.3829 2.9386-1.6606.3477-.0855.7165-.0796 1.0759-.1152.0881.1638.1762.3288.2631.4926z" fill="#000"/><path d="m89.3326 83.1267c-.4287.6873-.8469.59-1.2826.5354-.619-.0772-1.2462-.1555-1.8651-.1247-.4957.0249-1.0125.1436-1.4694.3395-1.2637.5413-1.5045 1.5111-.7281 2.6625.263.3905.5496.7751.741 1.2013.4123.9187.1586 2.0108-.5191 2.4595-.6941.4605-1.7253.2397-2.4136-.5579-.8316-.9651-1.1475-2.1509-1.2438-3.3842-.1879-2.4227.6801-3.5777 3.0279-4.1487 1.5562-.3786 3.0995-.3976 4.5911.2647.4017.1781.7506.482 1.1617.7526z" fill="#000"/><path d="m102.89 97.2037c-.26.114-.511.2588-.78.3383-1.193.3502-2.3959.6671-3.5869 1.0232-.9572.2861-1.178.26-1.8052-.546-.5767-.7407-1.1158-1.5135-1.6373-2.2957-.1914-.2873-.3312-.6303-.4134-.9686-.1738-.717.1985-1.1858.9267-1.098.4486.0546.9102.2338 1.3025.4677.8703.5175 1.7289 1.0659 2.5381 1.6761.7145.5377 1.4305.9092 2.3565.8238.35-.0321.716.1246 1.075.1958.009.1282.017.2552.025.3834z" fill="#000"/><path d="m799.09 86.2794c-24.4 0-48.17-.13-71.94.09-5.77.05-8.95 3.96-9.13 9.82-.13 4.3196-.08 8.6496-.03 12.9796.09 7.93 3.01 10.86 10.88 10.87 21.97.02 43.93 0 65.9-.01 1.44 0 2.87-.17 4.13-.25v-19.55h-58.57v6.8h51.07v5.46c-.76.23-1.07.41-1.39.41-17.31.04-34.61.08-51.92.09-14.73 0-12.5 1.09-12.88-12.82-.13-4.8097 1.52-6.4196 6.34-6.3696 20.3.2 40.61.1 60.91.1h6.62v-7.62zm-514.93.33h-80.47v33.2896h6.96v-11.73h48.13v-7.45h-47.72v-7.0796h73.11v-7.02zm317.62 33.3296v-33.3696h-6.91v12.5199h-66.98v-12.64h-6.85v33.3997h6.72c.2-4.39.38-8.44.56-12.36h66.69v12.45zm33.38-28.0997c6.54 2.93 11.94 5.31 17.3 7.76 14.5 6.6197 28.96 13.3297 43.48 19.8897 6.3 2.84 12.49.08 12.81-6.03.45-8.75.11-17.5397.11-26.5797h-5.86c-.11 1.03-.28 1.8301-.28 2.6301-.03 6.65.03 13.2996-.07 19.9396-.07 4.81-.98 5.37-5.26 3.55-1.38-.58-2.74-1.21-4.1-1.83-17.22-7.87-34.41-15.7896-51.66-23.5896-6.45-2.92-12.41-.44-12.84 5.86-.6 8.7196-.15 17.5096-.15 26.2096h6.51v-27.8097zm-169.28-5.2599v7.43h20.66v25.8696h7.32v-25.9997h20.64v-7.2999zm153.51 33.3896v-33.3096h-6.98v33.3096z" fill="#fff"/><g fill="#000"><path d="m799.09 86.2794v7.62c-2.38 0-4.5 0-6.62 0-20.3 0-40.61.1-60.91-.1-4.82-.05-6.47 1.5599-6.34 6.3696.38 13.91-1.86 12.83 12.88 12.82 17.31-.01 34.61-.05 51.92-.09.31 0 .63-.18 1.39-.41v-5.46h-51.07v-6.8h58.57v19.55c-1.26.08-2.69.24-4.13.25-21.97.02-43.93.03-65.9.01-7.87 0-10.79-2.94-10.88-10.87-.05-4.33-.1-8.66.03-12.9796.18-5.86 3.36-9.77 9.13-9.82 23.77-.22 47.54-.09 71.94-.09z"/><path d="m284.16 86.6094v7.0199h-73.11v7.0797h47.72v7.45h-48.13v11.73h-6.96v-33.2897h80.47z"/><path d="m601.78 119.939h-6.77v-12.45h-66.69c-.18 3.92-.36 7.97-.56 12.36h-6.72v-33.3997h6.85v12.64h66.98v-12.5199h6.91z"/><path d="m635.15 91.8294v27.8096h-6.51c0-8.69-.45-17.49.15-26.2096.43-6.3 6.39-8.78 12.84-5.86 17.25 7.79 34.44 15.7196 51.66 23.5896 1.36.62 2.72 1.24 4.1 1.83 4.28 1.81 5.19 1.26 5.26-3.55.1-6.65.04-13.2996.07-19.9396 0-.8.17-1.6.28-2.63h5.86c0 9.04.33 17.8296-.11 26.5796-.31 6.12-6.51 8.88-12.81 6.03-14.53-6.55-28.99-13.27-43.48-19.8897-5.36-2.45-10.76-4.8299-17.3-7.7599z"/><path d="m514.48 86.5694v7.3h-20.64v25.9996h-7.32v-25.8696h-20.66v-7.43z"/><path d="m619.39 119.959h-6.98v-33.3096h6.98z"/><path d="m293.92 86.5294v33.2596h74.35v-33.2596zm67.2 7.76v18.1296h-60.03v-18.1296"/><path d="m443.82 86.5893c8.78 0 13.14 2.28 15.1 7.79 2.22 6.2197.32 10.8297-7.16 16.7697 1.63 2.96 3.12 5.67 4.65 8.45-5.71 1.7-9.3.3-11.58-4.93-.66-1.52-3.09-3.19-4.73-3.21-17.45-.22-34.9-.13-52.35-.11-.64 0-1.27.18-2.21.33-.16 2.69-.31 5.27-.48 8.19h-7.2v-32.9696c1.65-.11 3.39-.33 5.12-.33m2.52 17.2996h60.76c.33 0 .79.06.97-.12 2.77-.249 4.96-2.249 4.96-5.2496-.43-1.9994.31-2.9994-5.06-4.59-.87-.2577-2.26-.2-3.42-.2-17.76-.02-35.51-.03-53.27-.02-1.59 0-3.19.2-4.94.32z"/></g></svg>