<svg width="39" height="42" viewBox="0 0 39 42" fill="none" xmlns="http://www.w3.org/2000/svg">
<path fill-rule="evenodd" clip-rule="evenodd" d="M4.60612 19.5071H5.48555L7.19601 22.8452H9.3018L11.0123 19.4987L11.8917 19.4903V18.9452H9.26953V19.4903H9.96339L8.75316 21.8639L7.44612 19.4987L8.39816 19.4903V18.9368H4.60612V19.5071ZM21.509 19.5071H22.3884L24.0988 22.8452H26.2046L27.9151 19.4987L28.7945 19.4903V18.9452H26.1724V19.4903H26.8662L25.656 21.8639L24.349 19.4987L25.301 19.4903V18.9368H21.509V19.5071ZM17.1925 18.9536V19.5071H18.0719V22.2329H17.1521V22.8452L18.0719 22.8536H22.4449V21.0419H21.872C21.8398 21.9981 21.041 22.2413 20.7021 22.2413C20.3956 22.2413 19.7904 22.2413 19.7904 22.2413V19.5155L20.6537 19.5071V18.9536H17.1925ZM14.2476 18.8361C12.7631 18.8361 11.5528 19.7587 11.5528 20.891C11.5528 22.0232 12.7631 22.9458 14.2476 22.9458C15.7321 22.9458 16.9424 22.0232 16.9424 20.891C16.9424 19.7587 15.7402 18.8361 14.2476 18.8361ZM14.2073 22.3503C13.6828 22.3503 13.2552 21.6961 13.2552 20.891C13.2552 20.0858 13.6828 19.4316 14.2073 19.4316C14.7317 19.4316 15.1593 20.0858 15.1593 20.891C15.1593 21.6961 14.7317 22.3503 14.2073 22.3503ZM31.1504 18.769C29.6659 18.769 28.4557 19.7084 28.4557 20.8574C28.4557 22.0149 29.6659 22.9458 31.1504 22.9458C32.635 22.9458 33.8452 22.0065 33.8452 20.8574C33.8452 19.7084 32.6431 18.769 31.1504 18.769ZM31.1101 22.3336C30.5857 22.3336 30.158 21.671 30.158 20.849C30.158 20.0271 30.5857 19.3645 31.1101 19.3645C31.6345 19.3645 32.0621 20.0271 32.0621 20.849C32.0621 21.671 31.6345 22.3336 31.1101 22.3336Z" fill="#1D1D1B"/>
<path d="M29.2463 1.81034V2.22969C30.4566 2.88388 31.6023 3.67227 32.6431 4.57808L29.8676 7.46324C30.9084 8.31872 31.8443 9.30001 32.6592 10.3819L35.4266 7.50517C36.2818 8.60388 37.0241 9.80324 37.6373 11.0697H38.1536V1.81034H29.2463Z" fill="#1D1D1B"/>
<path fill-rule="evenodd" clip-rule="evenodd" d="M35.5799 9.6355L33.5063 11.6232C35.1926 14.3323 36.1769 17.5613 36.1769 21.0336C36.1769 30.5949 28.7219 38.3445 19.5242 38.3445C10.3265 38.3445 2.87146 30.5949 2.87146 21.0336C2.87146 11.4723 10.3265 3.72259 19.5242 3.72259C22.8725 3.72259 25.9949 4.75421 28.609 6.52388L30.6986 4.47743C27.5198 2.14582 23.6632 0.787109 19.5 0.787109C8.76123 0.787109 0.0556641 9.83679 0.0556641 21C0.0556641 32.1632 8.76123 41.2129 19.5 41.2129C30.2387 41.2129 38.9443 32.1632 38.9443 21C38.9443 16.7813 37.7018 12.8729 35.5799 9.6355Z" fill="#1D1D1B"/>
</svg>
