<svg width="188" height="34" viewBox="0 0 188 34" fill="none" xmlns="http://www.w3.org/2000/svg">
<g clip-path="url(#clip0_1488_80427)">
<path d="M179.301 16.0916H165.582C165.624 15.1697 166.018 14.2989 166.683 13.6591C167.348 13.0193 168.233 12.6594 169.156 12.6536H185.334V9.35363H168.414C161.674 9.35363 158.908 14.4776 158.908 19.3976H177.785C178.424 19.3976 179.941 19.5326 179.941 21.0826C179.941 22.6326 178.627 22.7686 176.369 22.8356H156.683V9.35063H150.883V22.8326H139.831C136.493 22.8326 136.124 20.3726 136.124 19.0586V9.35063H125.573L116.973 15.0806L109.221 9.35063H86.61C79.869 9.35063 75.824 14.0356 75.251 18.1136H79.913C78.1783 19.2674 76.8218 20.9067 76.013 22.8266L62.849 22.8326C59.512 22.8326 59.141 20.3726 59.141 19.0586V9.35063H53.341V18.5506C53.341 24.8876 57.79 26.1346 59.947 26.1346H106.293L114.955 20.3346L122.809 26.1346H131.944L119.776 17.1686L129.786 10.4606V19.3226C129.786 25.0516 135.386 26.1316 136.932 26.1316H179.232C181.322 26.1316 187.086 25.8616 187.086 21.2776C187.086 16.6936 182.837 16.0866 179.298 16.0866L179.301 16.0916ZM105.352 22.8326H83.543C83.741 21.8553 84.2733 20.9775 85.0483 20.35C85.8234 19.7226 86.7929 19.3848 87.79 19.3946H100.666V16.0946H83.066C83.264 15.1173 83.7963 14.2395 84.5714 13.612C85.3464 12.9846 86.3159 12.6468 87.313 12.6566H102.013V10.7326L112.193 18.2826L105.352 22.8326ZM22.992 33.5176C30.604 33.5176 37.355 30.8606 41.54 26.7656L37.769 26.7836C33.5909 30.0692 28.3987 31.7965 23.085 31.6686C12.066 31.6686 3.466 25.1026 3.466 17.0016C3.466 7.65863 12.066 2.33463 23.087 2.33463C23.787 2.33463 24.348 2.65963 23.928 3.26763C21.639 6.02363 15.12 14.8936 13.928 16.8156C11.582 20.6046 11.638 25.2706 17.385 25.5976H41.552C41.964 25.6189 42.373 25.5179 42.7278 25.3075C43.0825 25.097 43.3672 24.7864 43.546 24.4146C45.1389 22.2723 45.994 19.6712 45.983 17.0016C45.983 10.0396 41.083 4.82163 33.871 2.25463L32.755 3.92263C38.745 6.13263 42.706 10.5986 42.706 17.0026C42.7057 18.0983 42.5471 19.1883 42.235 20.2386C41.967 21.1386 41.444 21.9076 40.453 21.9076H21.166C18.695 21.9076 19.65 19.3586 20.566 18.1236C23.7459 13.2226 27.1987 8.50418 30.908 3.99062C31.354 3.31362 32.608 1.91163 30.881 1.37463C28.2944 0.773091 25.6466 0.474419 22.991 0.484628C10.291 0.484628 0.00700262 7.00463 2.62003e-06 17.0016C-0.00599738 27.0916 10.294 33.5176 22.992 33.5176Z" fill="black"/>
</g>
<defs>
<clipPath id="clip0_1488_80427">
<rect width="187.089" height="33.033" fill="white" transform="translate(0 0.484375)"/>
</clipPath>
</defs>
</svg>
