<svg height="164.22" overflow="hidden" viewBox="0 0 238.81 164.22" width="238.81" xmlns="http://www.w3.org/2000/svg"><g fill="#0d392e" transform="translate(-264.6 -301.89)"><path d="m376.75 302c29.558-1.978 55.124 20.38 57.102 49.938 1.978 29.559-20.38 55.124-49.938 57.103-29.559 1.978-55.124-20.38-57.102-49.939-1.373-20.503 9.089-39.989 26.938-50.172 7.045-4.017 14.908-6.387 23-6.93zm1.62 4.56c-27.041 1.075-48.09 23.868-47.014 50.908 1.075 27.041 23.867 48.09 50.908 47.015 27.04-1.076 48.089-23.868 47.014-50.909-.655-16.468-9.544-31.503-23.658-40.014-8.204-4.954-17.684-7.389-27.26-7z"/><path d="m366.52 315.17c5.235-1.728 10.746-2.464 16.25-2.17.578-.027 1.154.072 1.69.29 6.041 4.803 10.822 11.005 13.93 18.07 3.367 8.152 4.61 17.026 3.61 25.79-.616 6.375-2.141 12.628-4.53 18.57h4.3c.42-1.09.8-2.19 1.24-3.27 5.006.636 9.65 2.944 13.18 6.55-3.517 3.63-8.173 5.942-13.19 6.55-.41-1.07-.82-2.13-1.2-3.2-13.18 0-26.37 0-39.55 0-.66.044-1.294.273-1.83.66-1.45.73-2.88 1.49-4.33 2.22-.531.245-1.117.348-1.7.3-1.7 0-3.4 0-5.11 0-3.589-3.827-6.494-8.241-8.59-13.05h11.65c.829-.085 1.667.003 2.46.26 1.933.833 3.867 1.677 5.8 2.53 1.46.86 3.21.35 4.82.48-.247-4.132-1.441-8.153-3.49-11.75-2.178-3.478-5.211-6.339-8.81-8.31-4.824-2.594-10.028-4.407-15.42-5.37.719-5.698 2.59-11.189 5.5-16.14 3.794.863 7.525 1.979 11.17 3.34 3.91 1.392 7.611 3.313 11 5.71l1.09-.53c-2.19-2.444-4.657-4.625-7.35-6.5-3.831-2.794-7.839-5.336-12-7.61 3.497-4.273 7.794-7.822 12.65-10.45 3.323 1.356 6.429 3.193 9.22 5.45 4.243 3.404 8.181 7.172 11.77 11.26l1.4-.37c-3.6-7.54-9.33-13.88-15.63-19.31zm19.48 45.25c-2.789.888-4.331 3.868-3.443 6.658.888 2.789 3.868 4.331 6.658 3.443 2.789-.888 4.33-3.869 3.443-6.658-.333-1.045-.982-1.962-1.858-2.623-1.374-1.033-3.161-1.338-4.8-.82z"/><path d="m268.11 434.36c1.475-1.18 3.334-1.772 5.22-1.66v11.16c.03.9.784 1.605 1.684 1.574.025-.001.051-.002.076-.004h22.53c1.883-.059 3.718.603 5.13 1.85 1.333 1.277 2.084 3.044 2.08 4.89v6.77c-.017 2.234-1.065 4.334-2.84 5.69-1.33.982-2.947 1.496-4.6 1.46h-32.79c1.49-2.38 3-4.77 4.46-7.15h26.1c.895.1 1.701-.545 1.8-1.44.006-.05.009-.1.01-.15 0-1.6 0-3.2 0-4.8h-23.9c-1.817.075-3.605-.472-5.07-1.55-1.547-1.239-2.454-3.108-2.47-5.09 0-2.033 0-4.07 0-6.11.021-2.104.965-4.092 2.58-5.44z"/><path d="m276.67 432.71h27.42c-1.42 2.29-2.89 4.55-4.29 6.85-6.26.07-12.53 0-18.79 0z"/><path d="m313.45 432.72h8v12.81h11.2c4.39-4.27 8.76-8.58 13.18-12.83h11c-5.853 5.633-11.707 11.267-17.56 16.9 5.787 5.493 11.57 10.99 17.35 16.49-3.7 0-7.39 0-11.09 0-4.487-4.333-8.973-8.667-13.46-13-3.51 0-7 0-10.54 0v13h-8c-.053-11.12-.08-22.243-.08-33.37z"/><path d="m368.48 433c1.071-.202 2.161-.29 3.25-.26h18c3.626.02 7.052 1.669 9.33 4.49 1.642 2.083 2.537 4.657 2.54 7.31v9.93c-.053 3.508-1.67 6.809-4.41 9-2.195 1.7-4.894 2.619-7.67 2.61h-16.66c-1.195.044-2.392-.003-3.58-.14-5.9-.739-10.316-5.774-10.28-11.72 0-3.31 0-6.62 0-9.92.061-3.281 1.489-6.387 3.94-8.57 1.579-1.374 3.488-2.315 5.54-2.73zm1.3 7.37c-1.662.478-2.805 2.001-2.8 3.73v10.8c.081 2.073 1.785 3.712 3.86 3.71h18.93c2.063-.003 3.759-1.629 3.85-3.69 0-3.673 0-7.34 0-11-.102-2.061-1.806-3.678-3.87-3.67h-17.54c-.808-.067-1.621-.033-2.42.1z"/><path d="m410.53 432.72h29c2.332-.019 4.623.618 6.61 1.84 3.3 2.062 5.367 5.622 5.52 9.51v6.76c0 2.26.19 4.78-.57 7.06-1.197 3.756-4.204 6.657-8 7.72-2.18.67-4.48.48-6.73.5h-25.82c-.007-11.133-.01-22.263-.01-33.39zm8 7.49v18.38h21.23c1.569.024 2.997-.9 3.62-2.34.283-.798.392-1.647.32-2.49 0-3.3 0-6.6 0-9.9-.112-2.07-1.837-3.684-3.91-3.66z"/><path d="m473.61 432.72h11c6.26 11.113 12.523 22.24 18.79 33.38-3 0-6.07 0-9.1 0-1.15-2-2.26-4-3.41-6h-15.89l-4.14-6.56-7.06 12.58c-3 0-5.93 0-8.89 0 6.22-11.14 12.453-22.273 18.7-33.4zm-2.61 20.44h16c-2.66-4.75-5.35-9.48-8-14.24-2.66 4.73-5.29 9.5-8 14.24z"/></g></svg>