<svg fill="none" height="30" viewBox="0 0 30 30" width="30" xmlns="http://www.w3.org/2000/svg"><path clip-rule="evenodd" d="m0 14.2771c0-13.06751 9.67673-14.2771 15-14.2771 5.3233 0 15 1.20959 15 14.2735 0 12.7437-9.8378 14.3559-15 14.3559-5.08171 0-15-1.6122-15-14.3559zm20.6454-.4849 1.6121 12.0959c.8876-.4831 5.7259-2.8218 5.6454-11.6128 0-10.32266-6.2895-13.06213-11.6933-13.06213zm-4.9189-2.4192v-10.16162h-1.3707v10.16162zm-.7265 16.0486c2.9846 0 5.6454-.8052 6.7744-1.3707l-5.8869-12.8223h-1.775l-5.88692 12.8223c1.12907.5637 3.78982 1.3707 6.77442 1.3707zm-1.2096-26.21022c-5.40378 0-11.6933 2.74126-11.6933 13.06392-.08052 8.791 4.75784 11.1297 5.64536 11.6128l1.69271-12.0959 4.35523-12.57903z" fill="#fff" fill-rule="evenodd"/></svg>