<svg fill="none" height="30" viewBox="0 0 30 30" width="30" xmlns="http://www.w3.org/2000/svg"><path d="m24.8097 18.8809c-.9223 0-1.7725-.3008-2.4523-.805.6899-.8489 1.1028-1.9165 1.1028-3.0759 0-1.1593-.4129-2.2269-1.1028-3.0759.6798-.5041 1.53-.805 2.4523-.805 2.2213 0 4.0286 1.741 4.0286 3.8809 0 2.14-1.8073 3.8809-4.0286 3.8809zm-8.9922-.805c.69-.8489 1.1029-1.9165 1.1029-3.0759 0-1.1593-.4129-2.2269-1.1028-3.0759.6797-.5041 1.5301-.805 2.4523-.805.9223 0 1.7725.3009 2.4523.805-.6899.849-1.1028 1.9166-1.1028 3.0759 0 1.1594.4129 2.227 1.1028 3.0759-.6798.5042-1.53.805-2.4523.805-.9222 0-1.7726-.3008-2.4524-.805zm-6.53982 0c.69-.8489 1.10292-1.9165 1.10292-3.0759 0-1.1593-.41292-2.2269-1.10281-3.0759.67972-.5041 1.53011-.805 2.45231-.805s1.7726.3009 2.4523.805c-.6899.849-1.1028 1.9166-1.1028 3.0759 0 1.1594.4129 2.227 1.1028 3.0759-.6797.5042-1.5301.805-2.4523.805s-1.77259-.3008-2.45242-.805zm-8.11598-3.0759c0-2.1399 1.80726-3.8809 4.02861-3.8809.92222 0 1.7726.3009 2.45232.805-.6899.849-1.10284 1.9166-1.10284 3.0759 0 1.1594.41294 2.227 1.10284 3.0759-.67972.5042-1.5301.805-2.45232.805-2.22135 0-4.02861-1.7409-4.02861-3.8809zm7.29851 2.2627c-.47678-.6375-.75872-1.4187-.75872-2.2627 0-.8439.28194-1.6252.75872-2.2627.47678.6375.75872 1.4188.75872 2.2627 0 .844-.28194 1.6252-.75872 2.2627zm6.53979 0c-.4768-.6375-.7587-1.4187-.7587-2.2627 0-.8439.2819-1.6252.7587-2.2627.4768.6375.7587 1.4188.7587 2.2627 0 .844-.2819 1.6252-.7587 2.2627zm6.5398 0c-.4768-.6375-.7587-1.4187-.7587-2.2627 0-.8439.2819-1.6252.7587-2.2627.4768.6375.7587 1.4188.7587 2.2627 0 .844-.2819 1.6252-.7587 2.2627zm3.2699-7.2627c-1.2386 0-2.3768.4207-3.2699 1.1207-.8932-.7-2.0313-1.1207-3.2699-1.1207s-2.3768.4207-3.2699 1.1207c-.8931-.7-2.0314-1.1207-3.2699-1.1207-1.2386 0-2.37674.4207-3.26989 1.1207-.89315-.7-2.03139-1.1207-3.2699-1.1207-2.86194 0-5.19031 2.243-5.19031 5 0 2.7571 2.32837 5 5.19031 5 1.23851 0 2.37675-.4206 3.2699-1.1207.89315.7001 2.03129 1.1207 3.26989 1.1207 1.2385 0 2.3768-.4206 3.2699-1.1207.8931.7001 2.0313 1.1207 3.2699 1.1207s2.3767-.4206 3.2699-1.1207c.8931.7001 2.0313 1.1207 3.2699 1.1207 2.8619 0 5.1903-2.2429 5.1903-5 0-2.757-2.3284-5-5.1903-5z" fill="#fff"/></svg>