<svg width="30" height="30" viewBox="0 0 30 30" fill="none" xmlns="http://www.w3.org/2000/svg">
<path d="M29 22.2876C27.1382 22.5174 25.5767 22.4471 24.2542 20.9961C21.7303 18.2264 19.1306 15.5355 16.5631 12.812C15.0016 11.1553 14.9725 11.1655 13.3949 12.8463C10.7935 15.6178 8.18893 18.3858 5.56655 21.1333C4.31349 22.4471 3.45767 22.5362 1 22.2498C1.61361 21.5775 2.1481 20.9721 2.70196 20.3856C6.33841 16.5336 9.98131 12.6868 13.6194 8.83481C14.6625 7.73033 15.2842 7.71489 16.3403 8.82967C20.4418 13.1567 24.54 17.4889 28.6383 21.8194C28.7303 21.9171 28.8046 22.032 29 22.2876Z" fill="white"/>
</svg>
