<svg width="30" height="30" viewBox="0 0 30 30" fill="none" xmlns="http://www.w3.org/2000/svg">
<path d="M14.8659 26C11.9735 25.978 9.06335 25.3492 6.36299 23.8805C4.16385 22.6844 2.32239 21.0948 1.14775 18.8566C-0.483949 15.7521 -0.360302 12.6651 1.41933 9.65299C2.69554 7.49391 4.58778 5.99443 6.80017 4.88411C9.8516 3.35604 13.0995 2.80198 16.4976 3.06142C17.4559 3.13398 18.3987 3.28568 19.3371 3.50115C20.9246 3.86393 22.426 4.42679 23.8436 5.2205C25.7468 6.28685 27.3609 7.6742 28.5201 9.53646C29.8912 11.7417 30.3505 14.1163 29.7256 16.6557C29.2377 18.6345 28.1646 20.2791 26.7029 21.684C25.7976 22.5525 24.782 23.2759 23.678 23.8717C20.982 25.3294 18.0852 25.9758 14.8659 26ZM14.3625 24.5863C15.5173 24.6148 16.4049 24.5665 17.2859 24.4499C18.6283 24.2697 19.9332 23.9421 21.1874 23.4188C21.2359 23.399 21.3088 23.3792 21.3198 23.3462C21.3441 23.2671 21.258 23.2517 21.2072 23.2209C20.9467 23.0582 20.6861 22.8933 20.4278 22.7284C19.0721 21.8665 18.0741 20.7078 17.5861 19.1754C17.3455 18.4212 17.1953 17.6407 17.0562 16.8558C16.8023 15.4179 16.502 13.9865 16.3099 12.5376C16.1488 11.3284 16.2702 10.1631 16.9105 9.08794C17.3985 8.26564 18.1116 7.6742 18.9021 7.16631C19.6307 6.6958 20.3064 6.15273 21.0637 5.72399C21.1145 5.69541 21.2028 5.68222 21.2006 5.60746C21.1962 5.51292 21.0924 5.53271 21.0328 5.49973C21.0019 5.48214 20.9666 5.47115 20.9312 5.46015C18.4892 4.54991 15.9655 4.22671 13.3733 4.47516C11.8697 4.61807 10.408 4.95226 9.00153 5.50852C8.9375 5.53271 8.83814 5.52831 8.83151 5.61626C8.82489 5.7042 8.93087 5.7086 8.98607 5.74818C9.84056 6.32642 10.6995 6.89807 11.554 7.47412C12.1148 7.85229 12.6072 8.30961 12.9781 8.87027C13.7244 10.0004 13.8966 11.2558 13.7089 12.575C13.4594 14.3449 13.1172 16.0973 12.7595 17.8474C12.499 19.1248 12.0706 20.3297 11.2139 21.3498C10.5626 22.1238 9.72574 22.6602 8.88009 23.1857C8.81385 23.2275 8.69683 23.2407 8.70124 23.3308C8.70566 23.4408 8.83814 23.4298 8.91321 23.4606C10.7502 24.1949 12.6601 24.5577 14.3691 24.5929L14.3625 24.5863ZM28.2154 14.4834C28.2065 14.1053 28.1977 13.7271 28.1337 13.3511C28.0476 12.8366 27.9217 12.3354 27.7782 11.8319C27.6943 11.5394 27.5706 11.2558 27.447 10.9986C27.2107 10.5083 26.8464 10.0883 26.4335 9.71236C25.4223 8.79112 24.2675 8.53387 22.9582 8.89885C22.0463 9.1517 21.2117 9.59583 20.355 9.98059C19.2819 10.4621 18.8314 11.4097 19.1472 12.5376C19.5248 13.881 19.9421 15.2134 20.4477 16.515C20.8672 17.5967 21.5274 18.5246 22.6071 19.0457C23.8303 19.6349 25.0867 19.6393 26.3452 19.1182C26.7758 18.9401 27.0981 18.6763 27.2792 18.2387C27.405 17.9331 27.564 17.6429 27.67 17.3241C27.9791 16.4007 28.2529 15.4728 28.2109 14.4834H28.2154ZM5.96556 8.74934C4.58115 8.66579 3.25416 9.73654 2.69112 10.8491C1.47453 13.2566 1.48998 15.6861 2.66904 18.109C2.83464 18.4476 3.00245 18.7862 3.37118 18.9753C4.66506 19.6371 5.98322 19.6723 7.30138 19.094C8.37888 18.6213 9.06114 17.7396 9.48949 16.6865C10.0547 15.2991 10.4985 13.8678 10.8916 12.4255C11.1698 11.4031 10.6884 10.4599 9.72574 10.0114C9.07881 9.71016 8.42525 9.41993 7.76727 9.1429C7.18878 8.89885 6.586 8.74055 5.96556 8.74934Z" fill="white"/>
</svg>
