<svg fill="none" height="30" viewBox="0 0 30 30" width="30" xmlns="http://www.w3.org/2000/svg"><g fill="#fff"><path clip-rule="evenodd" d="m8.86141 6.1301c.47934.55304.20795 1.13232-.27138 1.63372-.14173.14827-.26912.28088-.38985.40655-.45566.47432-.81643.84986-1.49487 1.59557l-2.58962-2.43964c.24847-.32202.6626-.81905.9472-1.13407.9428-1.04393 1.28909-1.34933 1.73934-1.39483.24143-.0245.48021.03238.67053.18551.39034.31415.35598.76917.30223.91181l-.01146.0315.03613-.014c.36302-.14789.80094-.08226 1.06175.21788zm-2.32352-.39902c-.25112.22751-.80534.80242-1.32697 1.43596l.50224.47515s1.01153-1.05093 1.28732-1.35983c.12248-.1365.23262-.30189.19297-.47602-.03965-.17326-.215-.29315-.38505-.24677-.10486.028-.19121.09976-.27051.17151zm.99391 1.02644c-.32161.33077-1.30671 1.36508-1.30671 1.36508l.52515.4944 1.30583-1.38783c.10045-.10763.22204-.24852.25464-.3964.02732-.12426-.02291-.24939-.13217-.32202-.11102-.0735-.23526-.06213-.34892-.007-.08811.04288-.17006.12251-.29782.25377z" fill-rule="evenodd"/><path d="m16.1254 3.00967-.8291 1.84461h-.7552l-.8291-1.84461-.0529-.16363.015.17063-.0872 2.46502c-.2908.028-.5913.06738-.8873.11638l.1348-3.65071c.4141-.0455.8265-.07788 1.2389-.09538l.8159 2.01349.0291.14964.029-.14964.8168-2.01349c.4124.0175.8248.04988 1.2389.09538l.1348 3.65071c-.2961-.049-.5965-.08925-.8873-.11638l-.0872-2.46502.015-.17063z"/><path d="m22.844 9.45005c-.1648-.21264-.4582-.56266-.6618-.77967l.9402-1.80261.0855-.1155-.1163.08488-1.8134.93455c-.2053-.18639-.5269-.46028-.771-.64666l1.9262-3.01105c.274.21001.489.38327.7128.57228l-1.2715 1.90761-.1136.13038.1427-.09713 1.6944-.84267.6.59591-.8485 1.68185-.0978.14176.1313-.11201 1.9217-1.26182c.1807.21088.4221.51015.5736.70704z"/><g clip-rule="evenodd" fill-rule="evenodd"><path d="m23.8896 15.0002c0-4.9096-3.9799-8.88958-8.8894-8.88971-.0815 0-.163.0011-.244.00328-3.756.10099-6.92775 2.52725-8.12935 5.89283-.33445.9354-.51662 1.9432-.51662 2.9936 0 4.9096 3.98007 8.8897 8.88967 8.8897.6379 0 1.26-.0672 1.8598-.1949 3.2475-.6901 5.8369-3.1514 6.711-6.3265.2079-.754.3189-1.5482.3189-2.3683zm-.4928.0004c0-4.6373-3.7593-8.39713-8.3966-8.39725l-.0003 8.39585-8.39681.0002c0 4.6374 3.75941 8.3976 8.39681 8.3976 0 0 .0001 0 0 0v-8.3978z"/><path d="m0 15c0-8.28404 6.71596-15 15-15 8.284 0 15 6.71596 15 15 0 8.284-6.716 15-15 15-8.28404 0-15-6.716-15-15zm15 14.0246c7.7461 0 14.0246-6.2794 14.0246-14.0246 0-7.74518-6.2794-14.024577-14.0246-14.024577-7.74518 0-14.024577 6.279397-14.024577 14.024577 0 7.7452 6.278517 14.0246 14.024577 14.0246z"/></g></g></svg>