<svg fill="none" height="30" viewBox="0 0 30 30" width="30" xmlns="http://www.w3.org/2000/svg"><path clip-rule="evenodd" d="m15.4504 28.7716h-.7853c-.062-.007-.1274-.0173-.1929-.0277-.0654-.0103-.1308-.0207-.1928-.0276-.2644-.0316-.53-.0587-.7956-.0859h-.0007v-.0001h-.0002c-.6615-.0676-1.3241-.1351-1.9727-.2731-3.58196-.7733-6.61286-2.5272-8.85849-5.4688-2.53494-3.342-3.306443-7.0708-2.080304-11.1171 1.088374-3.60449 3.471764-6.2008 6.750654-7.95469 3.62334-1.96104 7.50834-2.40297 11.50364-1.47769 3.4994.8148 6.4476 2.59631 8.6243 5.49644 2.2181 2.95534 3.0172 6.29744 2.287 9.92954-.5786 2.9139-2.1079 5.3031-4.3673 7.2227-2.4798 2.1129-5.3592 3.2868-8.5967 3.632-.4271.0691-.868.1105-1.3226.152zm-12.81247-13.4788.00744.0641c.01447.1297.02825.2827.04354.4522v.0002c.03926.4367.08845.9817.18323 1.5136.53041 2.5838 1.76716 4.7691 3.5919 6.5956.2198.2205.44622.4342.67892.641 1.22614 1.091 2.61761 1.8643 4.25704 2.1958 1.4328.2762 2.5901-.442 2.8656-1.8782.0865-.4556.0796-.9198.0727-1.3857-.0022-.1273-.0035-.2547-.0038-.382.0069-.2853-.0597-.5356-.1926-.7437-.129-.2114-.3272-.3802-.5927-.4992-.3024-.1414-.6195-.2608-.9352-.3795h-.0001c-.1157-.0435-.2315-.087-.3459-.1315-.2635-.1092-.5346-.2051-.805-.3006-.55-.1945-1.0983-.3882-1.57844-.6937-.57725-.3631-1.05255-.8023-1.43968-1.303-.62382-.8147-1.01219-1.7897-1.23303-2.8539-.11917-.5612-.23049-1.1251-.34208-1.6894-.14631-.7408-.29276-1.4819-.45698-2.2189-.1284-.6051-.38851-1.1622-.83625-1.6153-.03679-.0376-.07495-.0746-.11435-.1109-.64751-.58005-1.35013-.5386-1.87365.1519-.16533.2209-.30309.4695-.39953.7181-.45354 1.1159-.49583 2.3008-.55066 3.842zm12.97927 8.5846c-.0001-.3098.0109-.6218.0261-.9337.0138-.3867.1929-.7458.5511-.9253l.0947-.0443c.5898-.2764 1.1926-.5587 1.8202-.7291 2.783-.7457 4.202-2.6653 4.7393-5.3721.248-1.2706.4959-2.5411.799-3.7978.1516-.6491.496-1.2291 1.0608-1.6158.6062-.4143 1.1298-.3453 1.5982.2071.4959.5801.7026 1.2982.8128 2.0163.0922.5853.1387 1.1704.1734 1.6082.0101.1315.0211.263.0332.3943-.0413 3.7425-1.3501 6.6013-3.6233 9.0595-1.2123 1.2981-2.6451 2.2786-4.3397 2.831-.6199.2072-1.2674.3315-1.915.1934-1.0332-.2348-1.7221-1.0358-1.8047-2.1268-.0181-.2546-.0268-.5097-.0261-.7649zm-1.2276-8.3222c0-.2305.0005-.4609.0014-.6913l.0016-.3867v-.0237c.001-.2365.0019-.4728.0026-.7096.0006-.2693.0007-.538-.0002-.8062-.0008-.2323-.0026-.4646-.0054-.6969-.0138-1.0772-.5511-1.602-1.6119-1.602h-3.03091c-.9506 0-1.4879.511-1.55679 1.4639-.0912 1.1888.05222 2.3325.37005 3.434.20886.7335.49459 1.4483.84232 2.1453.82663 1.6434 2.19053 2.4306 4.05043 2.3201.4822-.0276.7852-.2624.8817-.7319.0413-.1658.0551-.3453.0551-.5248zm1.2644 1.0923v-.0003c.0015-.3835.0031-.7662.0031-1.1472v-3.3006c0-1.0082.5373-1.5468 1.543-1.5468h2.962c1.1021 0 1.6394.4834 1.6808 1.5744.0826 2.0301-.3996 3.9221-1.3777 5.6898-.868 1.5743-2.2594 2.1958-4.0229 2.0577-.4684-.0414-.7852-.4419-.7852-1.0082-.0093-.7743-.0061-1.5486-.0031-2.3188zm-9.99894-9.3093c.56789.07858.87139.43612 1.16759.7851.1189.14018.23669.27897.36991.39774l.00551.00483c.23393.20702.59172.38641.90845.4005h.00082c.10595.00262.21175.00497.3177.00731 1.58856.03412 3.17636.03315 4.75216.02031.4806-.00926.8557-.23602 1.0548-.60102.1025-.18202.162-.39939.1714-.6419.0275-.98052.0275-1.96104-.0138-2.94156-.0138-.29001-.1791-.62146-.3582-.85623-.4546-.59384-1.1022-.59384-1.7634-.45573-1.668.36044-3.16941 1.02568-4.52533 1.97485-.43948.3072-.85999.64082-1.2592.99902-.07477.06672-.14885.13421-.22222.20246-.02012.01892-.03996.03798-.05924.05745-.10609.10565-.20239.22538-.31412.36404l-.00055.00069c-.0445.05524-.09148.11352-.14245.17525-.02866.03452-.05841.07015-.08983.10689zm9.94414-.95497c.0001-.59387.024-1.18749.0716-1.77944.0689-.8148.868-1.33959 1.667-1.21529 2.5212.4143 4.6704 1.57435 6.5165 3.32824l.0413.04143.0196.02072c.2142.22786.3208.34111.306.43502-.0019.0106-.0051.02091-.0097.03066-.0284.08368-.157.15591-.3932.28835l-.0467.02624c-.1791.09667-.3582.26239-.4684.44193-.4546.6905-1.0608 1.02195-1.915.98052-.5272-.04143-1.0466-.03632-1.5641-.03108-.1722.0018-.3442.00346-.5162.00346-.2525 0-.5052.00151-.7577.00303-.5052.00304-1.0103.00622-1.5155-.00303-.8541-.01381-1.3363-.37288-1.3914-1.2153-.0298-.4512-.0445-.90328-.0441-1.35546z" fill="#fff" fill-rule="evenodd"/></svg>