<svg fill="none" height="30" viewBox="0 0 30 30" width="30" xmlns="http://www.w3.org/2000/svg"><path d="m6.55602 14.1301h-2.57677l-.19917-1.1788h11.05812v1.1788h-.2988v-.9048h-8.07882zm-2.82158-1.4527h11.09956v-.8675h-11.24064zm6.94186 2.9054h4.1577v-.6185h-4.1535zm-7.19497-4.0427h2.6307l-.49792-.8674h8.92529v.8633h.2988v-1.1622h-12.17015zm15.87967-1.1663h-4.195v1.7391h4.195zm-14.78424 6.7032c.06639.1037.19502.2241.61411.3362.20332.0498.42739.0996.74274.1701h4.45229v-.6142h-5.86723c.0166.0415.03735.0747.05809.1079zm-.25311-.938h6.06225v-1.735h-6.361zm6.35265 2.4322c1.5519.3071 3.0706.5894 4.1619.7595v-2.9095h-4.1619zm8.971-4.4411h6.3734l.2905-1.7391h-6.6639zm0-3.2042v.6184l6.8548-.0042.4315-.6142zm10.3527-1.9259-2.0207 2.8514c-.22 1.212-.8009 4.3332-.8673 4.6362-.1908.8716-.2821 1.4029-1.9958 1.8138-2.2822.5396-7.5021 1.5938-10.1203 2.0047-2.6183-.4109-7.83822-1.461-10.11623-2.0047-1.71369-.4068-1.80498-.938-1.99585-1.8138-.06639-.2988-.64316-3.4242-.86722-4.6362l-2.0166-2.8514zm-1.5934.53542h-26.81324l1.59336 2.27448c.39834 2.3658.64316 3.8849.74689 4.4162.17842.9214.20747 1.3199 1.16183 1.5772 1.89211.4483 7.38586 1.5772 9.90876 1.9591 2.5228-.3777 8.0124-1.5067 9.9087-1.9549.9543-.2574.9834-.6558 1.1618-1.5772.0996-.5313.3485-2.0504.7469-4.4162zm-13.2406 6.04738h.2987v-.8758h7.9336c-.0083.083-.0829.6724-.1244.8799h2.5062l.1992-1.1787h-10.8133zm0 1.1331h10.4025l.1701-.8592h-10.5726zm4.195-3.7646h-4.195v.6226h4.195zm-4.195 4.0219h10.3195c-.0166.0374-.0332.0747-.054.1079-.0705.1038-.195.2325-.6141.3362-1.8672.4649-7.0041 1.4859-9.6473 1.9176zm.2987 2.0089c.4772-.0872 1.639-.2906 2.054-.3694 4.2199-.8052 4.946-.9297 5.2987-1.3448h-7.3527z" fill="#fff"/></svg>