<svg fill="none" height="30" viewBox="0 0 30 30" width="30" xmlns="http://www.w3.org/2000/svg"><g fill="#fff"><path d="m27.2122 6.37853c1.7807 2.02355 2.4282 5.01837 2.0235 9.47017-.3237 4.6947-1.4569 7.6086-3.4805 9.4703-2.1045 1.9426-5.585 2.9139-10.7653 2.9139-5.18025 0-8.66076-.8904-10.76525-2.9139-1.94261-1.8617-2.99485-4.7756-3.399563-9.4703-.40471-4.4518.242823-7.44662 2.023553-9.47017 2.10449-2.34732 5.9897-3.48051 12.22226-3.48051 6.1516 0 10.0368 1.13319 12.1413 3.48051zm-12.1413-4.12804c-12.46509 0-15.702769 4.61369-14.974291 13.67921.80942 9.1464 4.047101 13.0316 14.893291 13.0316 10.8463 0 14.0839-3.8852 14.8934-13.0316.8094-9.06552-2.4283-13.67921-14.8124-13.67921z"/><path d="m15.0708 3.54524c-11.17 0-14.245794 4.12804-13.51732 12.38416.72848 8.1751 3.64239 11.6556 13.43642 11.6556 9.7939 0 12.7078-3.4805 13.4363-11.6556.7285-8.25612-2.1854-12.38416-13.3554-12.38416zm5.585 1.94261c-2.1854 5.50405-4.6137 10.76525-5.3422 12.38415-.0287.037-.0656.0669-.1076.0875-.0421.0206-.0884.0313-.1352.0313-.0469 0-.0931-.0107-.1352-.0313s-.0789-.0505-.1076-.0875c-.8095-1.6998-3.2377-6.8801-5.3422-12.38415-.08095-.08094 0-.16188.08094-.16188 1.53786-.32377 3.39956-.48565 5.58496-.48565 2.1855 0 3.9662.16188 5.585.48565-.0809 0 0 .08094-.0809.16188zm-17.88819 10.27965c-.24282-3.8043.24283-6.31349 1.69978-8.01327.80942-.89037 1.94261-1.5379 3.48051-2.02355.08094 0 .08094 0 .08094.16188v7.44664c0 1.2142.32377 2.4283.89036 3.5615l4.9375 9.2274c.0809.0809 0 .1618-.081.1618-3.88519-.1618-6.39439-.8903-8.01323-2.4282-1.69979-1.5379-2.59015-4.0471-2.99486-8.0942zm24.52539 0c-.3237 4.0471-1.295 6.5563-2.9948 8.0942-1.6189 1.5379-4.209 2.3473-8.0133 2.4282-.1619 0-.1619-.1618-.1619-.1618l4.9375-9.2274c.5666-1.1332.8094-2.3473.8094-3.5615v-7.52758c0-.16188.081-.16188.1619-.16188 1.5379.48565 2.6711 1.13318 3.4805 2.02354 1.5379 1.78073 2.1045 4.28992 1.7807 8.09422z"/></g></svg>