<svg fill="none" height="30" viewBox="0 0 30 30" width="30" xmlns="http://www.w3.org/2000/svg"><path d="m14.9996 10c-7.6855 0-14.9996 2.2389-14.9996 5s6.71556 5 14.9996 5c8.284 0 15.0004-2.2373 15.0004-4.9992 0-2.8156-7.5408-5.0008-15.0004-5.0008zm-11.03942 4.3496c0-1.409 4.269-2.9029 8.73302-3.3152-1.0134.8554-4.06337 3.4254-4.75415 3.9664-.77773.6078-1.54653 1.0398-2.20154.8476-.04836-.0168-.09631-.0341-.14304-.0517-.0173-.0078-.03508-.0145-.05323-.0201-1.00365-.3848-1.58106-.8627-1.58106-1.427zm7.94352 2.4783c-.1315-.0203-.2566-.0704-.366-.1467-.1094-.0762-.2002-.1766-.2655-.2935-.2917-.5254-.6042-.5676.0208-1.0926 0 0 3.0105-2.6373 3.7289-2.6373.7185 0 3.731 2.6389 3.731 2.6389.625.525.3125.5672.0208 1.0926-.0652.1167-.1558.217-.265.2932-.1091.0763-.234.1265-.3653.147-.9902.0562-2.0373.0848-3.1215.0848-1.0841 0-2.1288-.0303-3.1182-.0864zm12.399-.9779c-.6538.1877-1.4201-.243-2.1942-.8492-.6948-.5434-3.766-3.1324-4.7664-3.9754 4.6429.3976 8.7436 1.9053 8.7436 3.3258-.0016.5996-.6566 1.1021-1.783 1.4988z" fill="#fff"/></svg>