<svg fill="none" height="30" viewBox="0 0 30 30" width="30" xmlns="http://www.w3.org/2000/svg" xmlns:xlink="http://www.w3.org/1999/xlink"><clipPath id="a"><path d="m0 0h30v30h-30z"/></clipPath><g clip-path="url(#a)" fill="#fff"><path clip-rule="evenodd" d="m25.145 16.5672v-3.3406h4.199c.3933 0 .7123.3194.7123.7132v1.9141c0 .189-.0749.3703-.2085.5041-.1335.1337-.3147.209-.5038.2092zm3.7392-2.733h-2.9227v2.1253h2.9227c.0467-.0001.093-.0094.1362-.0273.0432-.018.0824-.0443.1154-.0774s.0592-.0724.077-.1156c.0179-.0433.027-.0896.027-.1363v-1.4118c.0001-.0468-.0091-.0931-.0269-.1364-.0178-.0432-.044-.0826-.077-.1157s-.0723-.0595-.1154-.0774c-.0432-.018-.0896-.0273-.1363-.0274z" fill-rule="evenodd"/><path d="m.762651 13.2314c-.187501.0002-.367246.0749-.49971.2076s-.2068014.3126-.2066664.5001v1.8983c-.0000675.1874.0743084.3672.2067724.4998s.31217.2072.499604.2073h4.165259v-.6023h-3.70867c-.04639 0-.09231-.0092-.13515-.027s-.08175-.0439-.114518-.0767c-.032765-.0328-.058738-.0718-.076435-.1147-.017697-.0428-.026771-.0888-.026704-.1352v-.4245h3.763097v-.6026h-3.763097v-.3739c0-.1954.157707-.3533.353057-.3533h3.70867v-.6029z"/><path d="m8.76935 14.4741-1.56257-1.212h-1.05995l2.09242 1.6231-2.09268 1.6229h1.06021l1.56257-1.2118 1.56285 1.212h1.0597l-2.0927-1.6231 2.0927-1.6229h-1.0597z"/><path d="m12.6108 13.9418c-.0001-.0928.0181-.1848.0536-.2706s.0875-.1637.1531-.2294.1435-.1178.2292-.1534.1776-.0539.2705-.054h4.1652v.6026h-3.7089c-.0937 0-.1836.0373-.2498.1036-.0663.0663-.1035.1562-.1035.25v.3736h3.7638v.6029h-3.7638v.4245c0 .0937.0373.1835.1035.2498.0663.0662.1561.1035.2498.1035h3.7087v.6029h-4.1648c-.1874-.0002-.3671-.0747-.4996-.2073s-.2068-.3124-.2068-.4999z"/><path d="m19.5942 13.237c-.1875.0002-.3673.0749-.4997.2076-.1325.1327-.2068.3125-.2067.5v1.8986c0 .1875.0744.3672.2068.4998.1325.1326.3122.2072.4996.2074h4.1652v-.6024h-3.7086c-.0938 0-.1837-.0372-.2501-.1035-.0663-.0663-.1035-.1563-.1035-.25v-.4248h3.7636v-.6029h-3.7634v-.3734c0-.0464.0091-.0924.0269-.1353.0177-.0429.0437-.0819.0765-.1148.0328-.0328.0718-.0589.1147-.0767s.0888-.027.1353-.027h3.7086v-.6026z"/></g></svg>