<svg fill="none" height="30" viewBox="0 0 30 30" width="30" xmlns="http://www.w3.org/2000/svg"><g fill="#fff"><path d="m18.6017 16.0376c6.6246 0 8.498-.2232 9.0559-.4463h.1118c-.2678.1786-.736.3124-2.1858.4238-.3571.3348-1.2939.4242-2.5876.4909-.446.4015-1.5612.4685-4.0148.4685-.8803 0-1.3319.3378-1.8057.6922-.5227.3909-1.0722.802-2.2538.802s-1.7312-.4111-2.2538-.802c-.4738-.3544-.9254-.6922-1.8057-.6922-2.45355 0-3.59109-.067-4.01491-.4685-1.31586-.0667-2.23035-.1561-2.5873-.4909-1.44975-.1116-1.91814-.2453-2.18577-.4238h.11144c.55771.2229 2.40899.4463 9.05584.4463.5115 0 .7481-.0459.8822-.0718.053-.0103.09-.0175.1216-.0175.1114 0 .1337.0891.0891.1781-.0447.067-.0891.1785-.1116.2455.0176-.123-.0616-.1214-.3682-.1151-.0828.0017-.1823.0037-.3009.0037-4.7287 0-5.75464-.0892-7.18226-.2455.60229.4015 4.0595.4241 6.80296.4241.3122.0223.6467.0223.8921.0223.0893 0 .1339.0221.1116.1114 0 .0196-.0019.0451-.0041.0736-.0052.0682-.0116.1535.0041.2165-.0116-.0145-.0213-.0287-.0307-.0423-.0625-.0911-.1087-.1585-.5939-.1585-2.81051 0-4.0595-.0893-4.57247-.1563.4461.2453 1.13754.3571 4.28257.3571.5892 0 .9493.2853 1.3524.6047.5125.4062 1.0946.8674 2.3056.8674s1.793-.4612 2.3055-.8673c.4031-.3195.7632-.6048 1.3524-.6048 3.145 0 3.8366-.1119 4.2826-.3571-.5131.067-1.7621.1563-4.5726.1563-.485 0-.5313.0673-.5939.1585-.0093.0136-.0191.0278-.0307.0423.0157-.063.0093-.1483.0041-.2165-.0022-.0285-.0041-.054-.0041-.0736-.0223-.0891.0221-.1114.1114-.1114.2455 0 .58 0 .8922-.0223 2.7437 0 6.2009-.0226 6.8032-.4241-1.4278.1561-2.4536.2455-7.1824.2455-.1187 0-.2182-.002-.3011-.0037-.3065-.0063-.3857-.0079-.3679.1151-.0224-.067-.067-.1785-.1114-.2455-.0448-.0888-.0225-.1781.089-.1781.0317 0 .0688.0072.1219.0175.1341.026.3706.0718.8819.0718z"/><g clip-rule="evenodd" fill-rule="evenodd"><path d="m17.0628 16.7062c0 .3691-.2411.7046-.6306.9473l-.0008.0012c-.3874.2411-.9207.3903-1.5095.3903-.618 0-1.1692-.1644-1.5542-.4269-.3513-.2394-.565-.5607-.565-.9119 0-.7138.9368-1.3161 2.1189-1.3161 1.1823 0 2.1412.6023 2.1412 1.3161zm-.2007 0c0 .4013-.3339.7802-.8242.9811.2449-.2454.3783-.6018.3783-.9807 0-.0962-.0097-.1924-.0287-.2865-.0514-.2544-.1708-.493-.3498-.6721.223.0911.4135.2151.5552.3602l-.0003-.0009c.17.1743.2695.3799.2695.5989zm-3.8588 0c0-.1854.0715-.3614.1967-.5169l-.0005.0016c.1457-.1809.3643-.3345.6281-.4426-.2447.2452-.3782.6017-.3782.9579 0 .3351.1045.6524.298.8911.0255.0316.0526.0617.0812.0904-.4908-.2008-.8253-.5802-.8253-.9815zm1.9186-1.1817c.3726 0 .6998.1555.9224.4.0075.0082.0148.0165.022.0249.1771.2059.282.4704.282.7568 0 .6693-.5352 1.1822-1.2267 1.1822-.3868 0-.7289-.1714-.9487-.4454-.0078-.0097-.0154-.0195-.0229-.0295-.1464-.1951-.2325-.4385-.2325-.707 0-.6467.5352-1.182 1.2044-1.182z"/><path d="m13.8117 17.1735c-.0618-.1401-.0938-.2915-.0939-.4447v-.0105c.0009.1564.0329.3112.0939.4552z"/><path d="m14.855 16.0376c.0223 0 .0669 0 .0669.0223l.0669.0667c-.0223.0226-.0446.0226-.0669 0zm-.1116.0223h.0669l.0893.0667c-.0224.0226-.0668.0447-.0668.0226zm-.1114.0667c0-.0444.0447-.0444.0669-.0444l.0893.067c-.0223.0223-.0446.0444-.0669.0223zm-.1116.0447c0-.0223.0446-.0447.0669-.0223l.0893.0223c0 .0445-.0223.0445-.0448.0445zm-.0892.0893c0-.0447.0446-.0447.0446-.0447l.1116.0223c-.0007.0116-.0056.0225-.0138.0308-.0082.0082-.0192.0132-.0308.0139zm-.0668.0894c0-.0448.0224-.0671.0445-.0671h.1115c0 .0445-.0223.0671-.0446.0671zm-.0669.0891c0-.0226.0223-.0447.0446-.0447l.0891-.0223c.0223.0223 0 .0444-.0223.067zm-.0447.1116c0-.0226.0222-.0447.0222-.0447l.1117-.0444c.0222.0223 0 .0444-.0225.0667zm-.0223.1338c0-.0448 0-.0671.0223-.0671l.0893-.0667c.0223.0223.0223.0444 0 .0667zm.0223.1114c-.0223-.0223-.0223-.067 0-.067l.0668-.0667c.0225.0223.0225.0444.0225.0667zm.4015.5353c-.0225 0-.0669-.0223-.0669-.0445l-.0223-.0893c.0446-.0223.0669 0 .0669.0223zm.1114.0447c-.0223 0-.0668-.0226-.0668-.0226l-.0446-.1115c.0446-.0222.0668.0001.0668.0227zm.1339 0c-.0447.0223-.0668.0223-.0893 0l-.0446-.0893c.0223-.0223.0446-.0223.0669 0zm.1116 0c-.0223.0223-.0668.0223-.0668 0l-.0669-.067c0-.0223.0446-.0223.0669-.0223zm.1115-.0224c-.0223.0226-.0446.0226-.0669.0226l-.0893-.0671c.0223-.0223.0446-.0444.0669-.0223zm.1114-.0446c0 .0223-.0444.0444-.0667.0223l-.0893-.0445c0-.0222.0446-.0447.067-.0222zm.1115-.0444c-.0223.0222-.0445.0222-.0667.0222l-.1115-.0447c.0223-.0223.0444-.0444.0667-.0223zm.0893-.0894c0 .0223-.0444.0445-.0667.0445l-.1115-.0223c.0223-.0223.0444-.0448.0667-.0448zm.067-.0891c0 .0223-.0223.0444-.0447.0444h-.1115c0-.0223.0226-.0444.0448-.0444zm.067-.1116c0 .0444-.0226.0667-.0447.0667l-.1114.0226c0-.0226.0222-.0447.0444-.067zm.0445-.1115c0 .0445-.0223.0667-.0445.0667l-.0893.0448c-.0226-.0223 0-.0448.0223-.067zm0-.1117c.0222.0226 0 .067 0 .067l-.1115.067c0-.0223 0-.067.0223-.067zm0-.1116c.0222.0226.0222.067 0 .067l-.0894.067c-.0223-.0226-.0223-.0447 0-.067zm-.4016-.5353c.0223 0 .0448.0223.0448.0223l.0223.1114c-.0223 0-.0448 0-.0448-.0222zm-.1114-.0444c.0223 0 .0447 0 .067.0223l.0223.1114c-.0223 0-.0444 0-.067-.0223zm-.1339-.0223c.0223 0 .0669 0 .0669.0223l.0668.0893c-.0223.0223-.0668.0223-.0668 0z"/><path d="m15.8584 17.0188c.067-.1114.1118-.1785.1118-.3122 0-.156-.0671-.223-.1341-.3568-.0667-.1563-.0667-.2455-.1781-.3571-.1118-.1114-.2234-.1114-.3572-.156-.156-.067-.223-.1341-.3792-.1341s-.223.0671-.3569.1341c-.1562.0667-.2677.0667-.3793.156-.1114.1115-.1114.2231-.1562.3571-.0668.156-.1337.2231-.1337.3789 0 .1564.0669.2234.1337.3571.0669.1338.0669.2452.1562.3568.1338.1115.2454.0893.3793.1564.1561.0444.223.1337.3792.1337s.2232-.0893.3569-.1337h.0223l.3122.3789.0671-.2898.1337.0667.1563-.6912zm-1.8288-.1337c-.0223-.0448-.0446-.0893-.0446-.1564 0-.1337.0891-.2007.1337-.3345.0446-.1337.0446-.223.1562-.3345.0892-.0893.1785-.067.3122-.134.1337-.0444.2008-.1115.3345-.1115.1339 0 .2006.0671.3347.1115.1337.0447.223.0447.3122.1118zm.9145.7358c-.1562 0-.2008-.067-.357-.1114-.1116-.0444-.2006-.0444-.2899-.1337l1.5166-.8478c.0223.0447.067.1114.067.1784 0 .1115-.067.1785-.1114.2678 0 .0223-.0226.0445-.0226.0667-.0223.0448-.0223.0671-.0223.0894-.0223.0223-.0223.0447-.0223.0447-.0223.0667-.0444.1337-.1114.1782-.0671.0893-.1564.0893-.2678.134-.0223 0-.0444 0-.0444.0223h-.0223c-.1113.0444-.1783.1114-.3122.1114zm.6468.2008-.2007-.2678c.1114-.0223.2007-.0444.29-.1337.0223-.0223.0445-.0444.0445-.067zm.2008-.1785-.067-.0444.1114-.4015-.0444-.0223c.0223-.0226.0223-.067.0444-.0893l.067.0223zm-1.5615-.3123c-.0445-.0894-.0668-.1785-.1114-.2901-.0223-.0223-.0223-.0444-.0446-.0667l1.5391-.8701c.067.0893.067.1563.1337.2901 0 .0223.0226.0447.0448.067z"/><path d="m14.4535 16.7957.0448-.0223v.156l.0668-.0444v-.1563l.0446-.0223v.3571l-.0446.0223v-.1564l-.0668.0448v.156l-.0448.0223zm.2454.0444v-.1337l.0223-.0223c.0222 0 .0222 0 .0222.0223v.067c0 .0223 0 .0223-.0222.0444zm.0668-.0221c.0223-.0223.0223-.0223.0223-.0444v-.0894c0-.0447-.0223-.067-.0668-.0447l-.0669.0447v.3568l.0446-.0223v-.156h.0223l.0445.1338.0446-.0445zm.0894-.0446-.0669-.1562.0446-.0223.0445.1115.0446-.1785.0446-.0223-.0669.2454v.1561l-.0445.0223zm.1783-.1114c-.0223.0222-.0446 0-.0446-.0227v-.0889c0-.0448 0-.0448.0446-.0671l.0445-.0223c.0223-.0223.0446-.0223.0446.0223v.0444l-.0446.0227v-.0671l-.0445.0223v.1337l.0445-.0222c.0223-.0223.0446-.0223.0446.0222v.0894c0 .0447 0 .067-.0446.0893l-.0445.0223c-.0223 0-.0446 0-.0446-.0223v-.067l.0223-.0223v.067l.0891-.0223v-.1341zm.134-.2678.0444-.0223v.3345l.0671-.0444v.0444l-.1115.067zm.1338-.0671.1337-.0667v.0223l-.0893.0444v.1341l.067-.0447v.0447l-.067.0223v.1337l.0893-.0446v.0446l-.1337.067zm.2007.0448v-.1115l.0223-.0226c.0223-.0223.0447 0 .0447 0v.0893c0 .0226-.0226.0226-.0226.0226zm.067 0c.0223-.0223.0445-.0223.0445-.0671v-.0893c0-.0223-.0445-.0444-.0671-.0223l-.0893.0445v.3571l.0448-.0223v-.1564l.0222-.0223.0448.1338.0444-.0223zm-1.2045.6023v-.0894l-.0669.0445v.2678l.0669-.0448v-.0667l.0446-.0223v.0667c0 .0448 0 .0671-.0446.0671l-.0446.0222c-.0223.0223-.0669.0223-.0669-.0222v-.2452c0-.0448.0223-.0671.0669-.0893l.0446-.0227c.0224 0 .0446 0 .0446.0448v.067z"/><path d="m14.4531 16.662c.0223-.2231.2231-.4242.4684-.4242.0695-.0009.1382.0145.2006.0449zm.2012-.2677-.0669.1563.0669-.067.0223.0221.1562-.1559.0223.0445.0668-.1338-.0668.0667-.0223-.0444-.1562.1785z"/><path d="m14.9215 17.1972c-.067 0-.1339-.0223-.2007-.067l.6914-.3792c-.0105.1225-.0668.2366-.1578.3193-.091.0828-.2099.1281-.3329.1269zm.1054-.1735-.0669.1563.0669-.067.0223.0221.1562-.1559.0223.0445.0668-.1338-.0668.0667-.0223-.0444-.1562.1785z"/><path d="m27.9259 15.4129c-1.0259.067-6.0221.2455-9.5463.2455-.5575 0-.9812-.1564-1.4275-.3347-.5129-.2006-1.1152-.4238-2.0297-.4238s-1.5166.2231-2.0298.4238c-.4461.1783-.8697.3347-1.4274.3347-3.52427 0-8.52039-.1785-9.54649-.2455l-.17848-.0223.06687.1563c.15619.2901.55771.6467 2.34196.6913.58.4909 1.89602.5579 2.63204.5356.49068.3568 1.56136.513 3.5911.513 1.2046 0 1.7176.3567 2.2305.736.5353.3568 1.0928.736 2.3197.736 1.2267 0 1.7844-.3792 2.2975-.736.5353-.3793 1.0483-.736 2.2528-.736 2.0073 0 3.1003-.1564 3.5689-.513.7583.0223 2.0743-.0447 2.6543-.5356 1.7842-.0444 2.1858-.4012 2.3195-.6913l.0893-.1563zm-2.2749.7363c-.4238.3789-1.4275.5576-2.6317.5353-.5356.4238-1.9631.5129-3.5466.5129-2.4757 0-2.1413 1.4721-4.5501 1.4721-2.4089 0-2.0967-1.4721-4.5502-1.4721-1.58368 0-3.01114-.0893-3.5464-.5129-1.20458.0223-2.20823-.1564-2.63204-.5353-1.71738-.0447-2.1412-.3792-2.29738-.647 1.04839.0893 6.08925.2678 9.56872.2678 1.2267 0 1.7844-.7808 3.4573-.7808s2.2082.7808 3.4572.7808c3.4795 0 8.5203-.1785 9.5689-.2678-.1565.2676-.5802.6021-2.2977.647z"/><path d="m27.7696 15.5246.0671-.0226s-.0228.0447-.0673.0893h-.1118c.0669-.0222.112-.0667.112-.0667z"/><path d="m2.07449 15.5244-.06687-.0226s.02202.0449.0666.0895h.11144c-.06686-.0221-.11117-.0669-.11117-.0669zm17.46451-1.8737h2.6991v-.2899h-1.8736v-1.2938h-.8255zm-15.59094-1.5837v1.5837h.82517v-.6469h1.44992v.6469h.82518v-1.5837h-.82518v.6469h-1.44992v-.6469zm10.34954 0-.7808.6692-.7807-.6692h-.9591l1.1598.9368v.6469h.8254v-.6469c.0222-.0223 1.0928-.9368 1.0928-.9368zm8.855 1.5837h2.7435v-.2677h-1.9183v-.4015h1.8513v-.2676h-1.8513v-.3792h1.8958v-.2677h-2.721zm-7.6062-1.1599c0 .3568.4241.4461 1.0259.513.6023.0893.8922.1115.8922.2454 0 .1114-.1784.1784-.6914.1784-.602 0-1.1149-.1337-1.182-.1562 0 .0223-.067.3345-.067.3345.067.0223.5579.1338 1.2716.1338.8027 0 1.5612-.1338 1.5612-.5577 0-.29-.3122-.4461-1.2046-.5353-.3567-.0446-.736-.0669-.736-.2008 0-.1114.0893-.1561.6246-.1561.513 0 .9589.1116 1.0259.1116l.0672-.2898c-.0893-.0223-.6023-.1116-1.2937-.1116-.5576.0002-1.2939.067-1.2939.4908zm-15.5464.3793c0 .5129.557709.8697 1.71754.8697.44611 0 .9145-.0668 1.00365-.0891l.06687-.3345c-.08932.0223-.49084.0668-.8922.0668-.64671 0-1.092811-.1561-1.092811-.5129 0-.3793.423811-.5354 1.092811-.5354.37923 0 .80304.0445.8922.0668l-.06687-.3345c-.11144-.0224-.53526-.0668-.98152-.0668-1.181962 0-1.73967.3345-1.73967.8699zm8.31977.7806h.82517v-1.2938c.11145-.0222.24534-.0222.42382-.0222.2006 0 .35678 0 .46834.0222.2454.0223.3345.1117.3345.2231 0 .0892-.1114.2008-.3569.223-.17847.0225-.28992.0446-.42381.0446-.08932 0-.15619 0-.26763-.0223l.93674.8252h1.0484l-.9368-.6468c.1785-.0223.2454-.0223.4461-.0892.2454-.0669.357-.2006.3791-.3345 0-.2008-.1337-.3569-.6021-.4684-.2453-.0446-.58-.067-1.00365-.067-.60229 0-1.20442.0224-1.27145.0224zm18.66913 0h.8252v-1.2938c.134-.0222.2455-.0222.4462-.0222.2008 0 .3345 0 .4683.0222.2455.0223.3348.1117.3122.2231 0 .0892-.1115.2008-.3568.223-.1564.0225-.2678.0446-.4238.0446-.0894 0-.1564 0-.2455-.0223l.9371.8252h1.0482l-.9592-.6468c.2007-.0223.2678-.0223.4462-.0892.2452-.0669.3789-.2006.3789-.3345 0-.2008-.1114-.3569-.5796-.4684-.2678-.0446-.58-.067-1.026-.067-.58 0-1.2045.0224-1.2716.0224z"/></g></g></svg>