<svg fill="none" height="30" viewBox="0 0 30 30" width="30" xmlns="http://www.w3.org/2000/svg"><path clip-rule="evenodd" d="m29.0941 27.9254c-2.6191-2.2864-10.4003-8.7924-14.0941-8.7924-3.6954 0-11.47065 6.5016-14.091337 8.7896-.015741-.5405-.030397-.8688-.030397-1.3502 0 0-.064051-.7947.626404-1.59 5.68104-5.2409 11.63733-7.8052 11.82023-7.8837 1.7761-.7644 1.6762-.6207 1.6746-3.6879 0 0 .0792-.005.1297.0005 2.5013.2305 9.2261 6.8757 13.206 11.3683.0071.0077.7854.9252.7854 1.8923.0011.4532-.0119.9003-.0265 1.2535zm-.107-3.7504c-.4228-.4775-10.3818-11.6701-13.9871-11.6701-3.6043 0-13.56373 11.1926-13.98603 11.6695l-.00054.0006c-.041258.047-1.01343 1.1783-1.01343 2.4975 0 1.0268.0667656 2.0603.0678512 2.0703.0021712.0475.0255119.4841.2638058.6029.038539.0194.080336.0293.123218.0293.088478 0 .187269-.0403.294203-.1199.107476-.0967 10.253122-9.2207 14.250922-9.2207 3.9983 0 14.1445 9.124 14.246 9.2163.1108.0829.2106.1243.3002.1243.0434 0 .0841-.0099.1232-.0287.2378-.1183.2611-.5555.2633-.6047.0005-.0077.0673-1.0412.0673-2.068 0-1.3203-.9722-2.4516-1.0129-2.4986zm.0928-6.895c-2.6163-2.2837-10.3899-8.78298-14.0794-8.78298-3.6916 0-11.45921 6.49548-14.077181 8.78068-.015742-.5394-.030397-.8682-.030397-1.3485 0 0-.064052-.7941.625858-1.5883 5.67562-5.23595 11.62592-7.79755 11.80832-7.87603 1.7744-.76378 1.6745-.62009 1.6729-3.68405 0 0 .0787-.00498.1297.00055 2.4986.23046 9.2169 6.86906 13.1925 11.35673.007.0077.7849.924.7849 1.8906.0005.4521-.0131.8987-.0272 1.2513zm-.1069-3.7466c-.4228-.4769-10.3715-11.6584-13.973-11.6584-3.6005 0-13.55016 11.1815-13.97192 11.6579l-.00054.0005c-.041255.047-1.0128837 1.1772-1.0128837 2.4953 0 1.0258.0673083 2.0581.0678512 2.0681.0021712.0475.0255125.4836.2632625.6024.03854.0193.080336.0287.123218.0287.088478 0 .186727-.0403.29366-.1199.108019-.0967 10.243352-9.21124 14.237352-9.21124 3.9945 0 14.1304 9.11454 14.2319 9.20684.1102.0829.2101.1238.2997.1238.0434 0 .0841-.0094.1232-.0288.2372-.1182.2611-.5548.2627-.604.0005-.0078.0673-1.0401.0673-2.0659.0005-1.3181-.9705-2.4483-1.0118-2.4953z" fill="#fff" fill-rule="evenodd"/></svg>