<svg fill="none" height="30" viewBox="0 0 30 30" width="30" xmlns="http://www.w3.org/2000/svg"><path clip-rule="evenodd" d="m15 5.625c.6594 0 1.3098.02597 1.9478.07565-1.4114 6.35275-1.6644 12.15335-1.6678 17.75185-.2006.0027-.4012.0027-.6018 0-.0034-5.5974-.2563-11.398-1.6678-17.74846.6515-.05194 1.3155-.07904 1.9896-.07904zm-.9971 17.8094c-.2981-.0113-.5939-.0294-.8875-.0508-.105-7.3002-1.9727-11.8654-6.00045-16.42165 1.00405-.36808 2.03505-.65801 3.08375-.86721 2.6446 5.21226 3.6461 9.35746 3.8054 17.33966zm-1.5729-.1129c-.3264-.0333-.652-.0732-.9767-.1197.0361-1.9851-.2575-4.0763-.9237-5.7103-1.27599-3.1312-3.75453-5.9315-8.1301-7.78001.7155-.64619 1.50368-1.20701 2.34869-1.67118 3.58288 2.02799 7.75181 7.45369 7.68181 15.28229zm-1.7943-.2541c-6.14383-1.1145-10.6357-4.519-10.6357-8.5275 0-1.0445.304878-2.0484.866079-2.9811 3.070231.5691 6.252261 2.2945 8.153791 4.9515 1.27823 1.7841 1.89703 3.9442 1.61583 6.5571zm9.1272-16.98057c1.0727.21455 2.0935.50023 3.0442.84689-4.0458 4.56748-5.9202 9.13848-6.0241 16.45668-.276.0202-.5523.0353-.8288.0451.158-7.9867 1.1608-12.1319 3.8087-17.34867zm5.437 1.92638c.8977.49684 1.6937 1.05691 2.3679 1.67118-4.4185 1.84731-6.9174 4.65901-8.2001 7.80711-.6663 1.6373-.9598 3.7354-.9226 5.725-.3218.0451-.6481.0835-.9778.1163-.0734-7.8704 4.1373-13.3142 7.7326-15.31959zm3.9239 3.52869c.5668.9372.8762 1.9467.8762 2.998 0 4.0311-4.5404 7.4491-10.7362 8.5456-.2846-2.6208.3331-4.7866 1.6136-6.5752 1.9196-2.6841 5.149-4.4162 8.2464-4.9684z" fill="#fff" fill-rule="evenodd"/></svg>