<svg fill="none" height="30" viewBox="0 0 30 30" width="30" xmlns="http://www.w3.org/2000/svg"><g fill="#fff"><path d="m29.999 9.30074c-.506.41498-.959.92996-1.5269 1.22596-2.002 1.046-4.1789 1.6259-6.3468 2.2129-5.2379 1.419-10.5587 2.4649-15.89251 3.4429-.077.014-.15999.002-.31299.002.65598-.981 1.28096-1.9159 1.93294-2.8909-.35099-.365-.69198-.722-1.03597-1.077-2.19692-2.27388-4.39485-4.54781-6.593777-6.82173-.067998-.07-.1479955-.129-.222993-.193.0629979-.06699.123996-.18899.189994-.19099.468984-.017.939966-.009 1.409956-.009.016.028.027.062.04899.085 2.52092 2.52091 5.03984 5.04482 7.57175 7.55372.125.124.37899.197.55898.176 3.86383-.465 7.73573-.883 11.58563-1.4499 2.0679-.305 4.1019-.852 6.1408-1.332.459-.10798.899-.35398 1.3059-.60397.433-.26599.432-.62598.006-.91097-.327-.21899-.6959-.42298-1.0739-.50998-1.441-.33099-2.8799-.74397-4.3429-.88497-4.1888-.40499-8.3887-.70398-12.5866-1.01497-.89793-.06699-1.8049-.01-2.73187-.01 1.78294 1.88494 3.56887 3.77288 5.43277 5.74286-1.1799.1249-2.2339.2219-3.2848.3559-.33803.043-.55402-.066-.78402-.2959-1.16596-1.166-2.35192-2.31297-3.52288-3.47393-1.14596-1.13897-2.28292-2.28493-3.42388-3.42689h5.69981c.14599.022.29099.06.43798.062 4.28089.061 8.55169.28699 12.79959.84297 2.1129.27699 4.2158.62398 6.2228 1.38395.9089.34399 1.7739.76298 2.3399 1.61095v.39999z"/><path d="m.0999835 24.6992v-2.8809c1.0799665 0 2.1409265-.049 3.1948965.019.62298.04.80897.624.70897 1.8369-.052.635-.32999.922-.92097.962-.12799.009-.25499.041-.38298.063zm.8919705-2.1969v1.4379c.586976 0 1.149966.033 1.707946-.009.54098-.041.43498-.497.43998-.8469.004-.334-.10799-.589-.51298-.583-.52898.007-1.05797.002-1.633946.002z"/><path d="m22.7992 24.6992c-.42-.163-.7289-.394-.537-1.041.293.093.576.235.871.265.535.054 1.078.046 1.617.048.036 0 .117-.175.1-.194-.083-.086-.189-.197-.294-.205-.497-.038-.996-.046-1.495-.063-.667-.022-.8769-.2079-.8949-.7939-.018-.612.2219-.899.8489-.92.663-.022 1.329-.028 1.99.023.5039.039.6109.231.5769.931-.33-.103-.6229-.246-.9269-.277-.473-.048-.954-.025-1.431-.012-.048.001-.149.186-.128.214.06.081.166.172.259.178.514.03 1.03.028 1.545.05.6279.027.8439.243.8679.8449.021.527-.171.763-.6909.86-.127.024-.252.061-.378.092z"/><path d="m10.4997 24.6992v-2.8629h.7859c.014.312.028.62.044.964h1.944v-.974h.826v2.8729h-.8v-1.0859h-2v1.0859z"/><path d="m4.19983 24.6993c.49599-.921.98097-1.847 1.49395-2.758.143-.2529 1.21096-.2229 1.35096.032.49598.903.97197 1.817 1.45495 2.727h-.89997c-.22099-.619-.72897-.572-1.24696-.568-.51598.003-1.03296-.06-1.25296.568zm2.14593-2.296c-.21399.4-.38898.728-.58098 1.086h1.17096c-.19799-.364-.36198-.668-.58998-1.086z"/><path d="m26.9991 24.6992c-.738-.302-.825-.44-.819-1.275.003-.528 0-1.0559 0-1.6069h.876c0 .495.017.987-.005 1.4779-.021.492.197.681.678.696 1.2229.038 1.2379.036 1.2379-1.161 0-.3289 0-.6569 0-1.0099h.867c0 .703.024 1.3829-.007 2.0609-.026.559-.482.699-.927.819h-1.8999z"/><path d="m17.9994 24.6993c-.117-.465-.414-.625-.883-.567-.2949.037-.5979-.003-.8969.012-.123.006-.318.033-.352.109-.249.553-.713.343-1.231.39.474-.855.926-1.618 1.323-2.4089.177-.353.396-.438.772-.458.5199-.028.8119.14 1.0279.618.286.6339.658 1.2299.983 1.8469.074.141.105.305.156.458zm-1.1989-2.2829c-.218.4029-.391.7229-.589 1.0909h1.1929c-.205-.37-.381-.689-.6039-1.0909z"/><path d="m9.09968 24.6992c-.031-.374-.078-.748-.088-1.123-.015-.577-.004-1.1549-.004-1.7569h.92297c-.044.9779-.088 1.9289-.131 2.8809z"/><path d="m18.4134 21.8173h3.3509v.696h-1.242v2.0909h-.877v-2.0689h-1.2319z"/></g></svg>