<svg fill="none" height="30" viewBox="0 0 30 30" width="30" xmlns="http://www.w3.org/2000/svg"><g fill="#fff"><path d="m11.0233 14.3485c0 .1432.0051.2629-.0021.3805-.0071.1248.0512.1585.1657.1565.2568-.0062.5135-.0021.7712-.0021h.3877v1.9116h.811v-1.9238h1.3092v-.5227zm-3.72294 2.4629c.20865 0 .37332-.0164.53185.003.24445.0307.40502-.0511.48889-.2812.05114-.1381.14728-.1759.29149-.1718.38866.0102.77834.0194 1.16598-.0041.24853-.0154.41213.0511.51033.2853.0266.0655.0982.1534.1545.1575.2587.0174.5195.0072.8059.0072-.0337-.0706-.047-.1064-.0665-.1391-.4602-.7528-.9205-1.5055-1.38582-2.2552-.02455-.0389-.09205-.0716-.1391-.0727-.2437-.0085-.48762-.0082-.73129.0011-.03251.004-.06383.0147-.09199.0314-.02817.0167-.05256.0391-.07166.0657-.32217.5053-.63719 1.0146-.95118 1.525-.1657.2659-.32525.537-.5114.8479zm13.95284-2.468c0 .5083.0051.9952-.0021 1.482-.0041.2843-.1064.4398-.3856.4981-.2465.0501-.5114.0665-.7609.0389-.4112-.0461-.5421-.2209-.5472-.6331-.0021-.2567 0-.5135-.001-.7702v-.6075h-.7978c0 .5288-.001 1.0432.001 1.5567.0031.5103.2158.8274.7231.9072.4828.0757.9809.0716 1.4718.0716.1913 0 .3887-.0655.5717-.135.2793-.1074.5053-.3007.5166-.6168.0214-.5952.0061-1.1915.0061-1.7919zm4.1811 0v1.8799l-.045.0307c-.0092-.0246-.0123-.0532-.0276-.0747-.403-.5779-.806-1.1557-1.212-1.7306-.0307-.0439-.0798-.1063-.1207-.1073-.3784-.0082-.7589-.0041-1.1404-.0041v2.4567h.7681v-1.7868l.0522-.0143c.0542.0634.1125.1217.1605.1882.3509.494.6976.99 1.0515 1.483.0419.0583.1125.135.1738.137.3529.0133.7078.0062 1.0811.0062v-2.4639zm-7.5553.5779v-.2404c.0021-.3048.0051-.3314-.3007-.362-.5038-.0501-1.0095-.0774-1.5158-.0819-.3068-.002-.6177.0409-.8939.2107-.2475.1534-.3426.4102-.2761.8029.0388.2271.1646.3437.4531.3989.5952.1105 1.1925.2117 1.7858.3293.0767.0154.18.0951.1973.1637.0358.136-.1012.1595-.1933.1626-.4582.0133-.9184.0338-1.3766.0153-.2854-.0112-.5677-.0869-.8755-.138 0 .1299.0102.2475-.0031.3641-.0184.1636.0614.2229.2066.2424.2475.0327.493.0838.7425.1043.6055.0491 1.2141.0583 1.8001-.135.1371-.045.3171-.1544.355-.2741.1841-.5738.1043-.9747-.5012-1.0842-.5779-.1022-1.1537-.2076-1.7285-.3191-.0665-.0122-.1227-.0716-.1831-.1094.0583-.045.1125-.1227.1759-.1299.2864-.0327.5769-.0747.8633-.0603.4121.0204.8223.0879 1.2682.1401zm-14.30872 1.8686c.89391 0 1.76327.0307 2.62957-.0102.56355-.0266.85505-.4091.86527-.9829.00308-.1316.00274-.2633-.00102-.3948-.02045-.5922-.24853-.8796-.82232-1.0187-.13452-.0308-.27214-.0459-.41013-.045-.6914-.0051-1.3828-.0021-2.0742-.0021h-.18717zm-.33548-4.0553c.08592.0204.11046.0306.13603.0306 1.11279-.0194 2.2266-.0378 3.34041-.0654.06853-.0021.15853-.0614.20149-.1217.50992-.699 1.14025-1.3017 1.86146-1.7797 1.66301-1.11684 3.51841-1.63948 5.50051-1.74585 1.5086-.08182 2.9865.09921 4.4195.58708 1.6968.57787 3.1634 1.48817 4.2425 2.95587.047.0644.1636.1053.2495.1074 1.0668.0276 2.1346.046 3.2013.0644.0594.001.1197-.0102.1974-.0174-.0307-.0655-.046-.1023-.0665-.135-.4397-.7344-.9716-1.4033-1.6262-1.9484-.7159-.5973-1.4861-1.1312-2.2317-1.69373-.2741-.20762-.5676-.28126-.9236-.28024-4.6465.01432-9.293.00818-13.93844.01636-.1752.00019-.34678.04982-.49503.14319-.53728.36601-1.06422.74698-1.5802 1.14245-.32121.24117-.62473.50507-.90823.78957-.42138.4306-.82027.8847-1.20995 1.344-.14523.1697-.23728.3845-.37025.6065zm23.3706 5.5128c-.1064-.0133-.1504-.0256-.1943-.0246-1.0412.0215-2.0824.042-3.1236.0716-.0645.0021-.1463.0716-.1872.1319-.1851.2701-.3222.583-.5441.8183-.4511.4776-.8776.9072-1.3654 1.3429-1.3399 1.3398-3.1901 1.4605-5.0587 1.5822-2.1151.0307-4.0461-.0818-5.9506-.9051-.78443-.3396-1.52186-.7528-2.11814-1.3777-.3457-.3621-.66481-.7487-1.01051-1.1108-.09307-.0981-.23728-.2045-.36104-.2086-1.00788-.0298-2.01607-.0479-3.02437-.0542-.04363.0018-.08635.0131-.1252.0331-.03885.0199-.0729.0481-.09981.0825-.03068.0491.00409.1667.04705.227.18614.2639.37434.5268.58196.7743.89289 1.0657 1.99545 1.8901 3.12869 2.6786.38048.2649.77629.4766 1.26518.3498.00614-.002.0133 0 .02046 0 .92869.0031 1.85843.0072 2.78813.0082 3.4877 0 6.9743.001 10.462-.0041.1575 0 .3416-.0225.4685-.1043.5032-.3222.9982-.6607 1.4799-1.0156.988-.7262 1.884-1.5485 2.5733-2.5723.1432-.2117.2251-.4644.3478-.7231zm3.3946-3.0009v.7119c-.0634.3222-.1074.6494-.1923.9655-.3385 1.2498-1.0657 2.2685-1.9504 3.1839-1.2192 1.2631-2.6582 2.2358-4.1679 3.1103-.106.0519-.2216.0815-.3395.0869-.3733.0368-.7467.0716-1.121.0921-1.7694.1043-3.5358.2393-5.3052.2956-1.4555.0442-2.9122.0373-4.3673-.0205-1.9146-.0736-3.82619-.2148-5.73777-.3355-.23933-.0153-.50525-.0317-.70572-.1432-1.08001-.5948-2.10122-1.2907-3.04993-2.0783-1.08415-.9082-2.04455-1.9218-2.675603-3.2094-.010227-.0205-.035797-.0328-.054207-.0481-.419341-1.5127-.468435-3.0162 0-4.5105.038866-.0583.081822-.1145.114551-.1769.521321-.9954 1.221699-1.8861 2.066019-2.6276 1.08829-.98003 2.28686-1.83021 3.57156-2.53339.08937-.05495.18882-.09146.29251-.10739 1.04938-.08796 2.09875-.17694 3.15017-.24649.82112-.06205 1.64372-.10161 2.46692-.11865 1.884-.0225 3.77-.06443 5.653-.01022 1.8021.05318 3.6012.21478 5.4013.33547.225.01534.4807.02966.6658.13807.6597.38559 1.3143.78448 1.9331 1.22939 1.1087.79571 2.1887 1.62521 2.9947 2.75841.5349.7538.9962 1.5373 1.2069 2.4445.0634.269.1012.5421.1503.8141z"/><path d="m4.36396 16.2724c0-.4276.00204-.8346-.00205-1.2407 0-.1145.05216-.1472.15649-.1472.41525.003.82947-.0082 1.2437.0061.35184.0123.49707.1739.50628.5216.00409.1309 0 .2629-.00716.3938-.01637.2853-.13296.4469-.41014.4602-.48377.0246-.9696.0072-1.48712.0072m4.90219-1.435.55946.9901h-1.11892z"/></g></svg>