<svg fill="none" height="30" viewBox="0 0 31 30" width="31" xmlns="http://www.w3.org/2000/svg"><g clip-rule="evenodd" fill="#fff" fill-rule="evenodd"><path d="m25.8898 13.2522-3.6145 5.0452h1.771l3.6073-5.0411zm2.4956 0-3.6145 5.0452h1.771l3.6073-5.0411z"/><path d="m7.63201 14.465c-.51327-.0018-2.31451.0529-2.31451 1.0458 0 .6987.84267.9 1.53837.9904.49247.064.90993.0609.90993.0609s.39134.0188.86542-.0135c.73549-.0505 1.67178-.2503 1.67178-1.0381 0-1.0401-2.44478-1.0438-2.53889-1.0438-.01174 0-.05879-.0014-.1321-.0017zm-4.8354.0291-2.388299.0011c.000048 0-.111897-.0116-.178575.0513-.062263.0586-.062844.1908-.062844.1908l-.017722 1.5636c0 .2423.228003.2232.228003.2232l2.502737-.0024s.8226.0247 1.38365-.2044c.36775-.1501.55683-.4378.55683-.8033 0-.4089-.32674-.6912-.76949-.8394-.55622-.1859-1.25429-.1805-1.25429-.1805zm10.64789 0-2.3875.0011s-.112-.0116-.1787.0513c-.0623.0586-.0627.1908-.0627.1908l-.0181 1.5636c0 .2423.2281.2232.2281.2232l2.5036-.0024s.8213.0247 1.3826-.2044c.3678-.1501.5577-.4378.5577-.8033 0-.4089-.3266-.6912-.7706-.8394-.5552-.1859-1.2544-.1805-1.2544-.1805zm7.1456.0022c-.0217 0-2.7702.0026-2.7702.0026s-.2056-.0014-.479.0282c-.548.0592-1.3706.2607-1.3706.9837 0 .3365.1512.5748.4125.7253.5686.31 1.5581.2868 1.5581.2868h2.4726c.2166 0 .2383-.1543.2383-.2584 0-.104.0061-.5164.0061-.7537 0-.2371-.2129-.217-.2129-.217h-2.2005c-.0967 0-.0967.095-.0967.095s-.0049.1222-.0049.2307c0 .1088.092.1058.092.1058h1.2689c.0835 0 .0932.0813.0932.0813v.1837c0 .0945-.0835.1008-.0835.1008h-1.4565c-.225 0-1.0137 0-1.0137-.5803 0-.5801.9315-.5855.9315-.5855h2.602c.1053 0 .0908-.1527.0908-.1527v-.1911c0-.0831-.0557-.0852-.0775-.0852zm.8541.0015c-.1948 0-.2577.0383-.2637.2551-.0049.1715-.0206 1.243-.0206 1.4909 0 .2476.1137.2791.2492.2791h3.9872c.0895 0 .0859-.0837.0859-.1028v-.2387c0-.0909-.1101-.0903-.1101-.0903h-3.0158c-.1173 0-.1137-.0878-.1137-.0878s.0012-.0831.0012-.176c0-.0926.0702-.1076.104-.1076h2.838c.0835 0 .0822-.0945.0822-.0945v-.2364c0-.1023-.1028-.0983-.1028-.0983h-2.827c-.0944 0-.0956-.1154-.0956-.1154l.0024-.1287c0-.1118.0932-.1211.0932-.1211h2.9903c.0883 0 .1004-.0768.1004-.1527v-.1911c0-.092-.1052-.0837-.1052-.0837zm-13.67199.3979c.24993 0 1.45829.0263 1.45829.6223.00133.6403-1.12756.6033-1.45829.6033-.33085 0-1.37361-.0245-1.37361-.6033 0-.6405 1.12357-.6223 1.37361-.6223zm-4.95334.0296s.33581.0156.59251.133c.20117.092.33702.258.33702.4534 0 .1645-.08843.3303-.24835.4187-.27351.1509-.68239.1601-.68239.1601l-1.54091.0012s-.08695.0026-.08695-.0947c0 0 .0137-.962.0137-.9746 0-.0127-.001-.0959.09091-.0959.10573 0 1.52446-.0012 1.52446-.0012zm10.64803 0s.3363.0156.5927.133c.202.092.3375.258.3375.4534 0 .1645-.0883.3303-.2492.4187-.2734.1509-.6823.1601-.6823.1601l-1.5405.0012s-.0866.0026-.0866-.0947c0 0 .0134-.962.0134-.9746 0-.0127-.001-.0959.091-.0959.1056 0 1.524-.0012 1.524-.0012z"/></g></svg>