<svg fill="none" height="30" viewBox="0 0 30 30" width="30" xmlns="http://www.w3.org/2000/svg"><path clip-rule="evenodd" d="m14.9244 29.8581c-8.24127-.0019-14.921275-6.6825-14.9244-14.9237v-.0106c.003125-8.24255 6.68563-14.9238 14.9294-14.9238 8.2437 0 14.9275 6.68375 14.9275 14.9287 0 8.2438-6.6813 14.9269-14.9219 14.9294zm-.0863-24.0131c-8.29872 10.5056-.6268 19.775 5.1388 21.0962 4.6862-1.9718 7.9781-6.6081 7.9781-12.0125 0-1.8093-.3687-3.5318-1.0362-5.09807.2112 7.85057-3.755 12.57997-11.8982 14.18377 8.2969-10.5081.625-19.77628-5.1406-21.09815-4.68625 1.9725-7.97625 6.6075-7.97625 12.01245 0 1.8094.3675 3.5338 1.03438 5.0994-.21125-7.8525 3.755-12.57997 11.89997-14.1831zm-4.2256-3.21c4.7-.0325 11.8713 2.775 12.4544 12.0794 1.4281-.8475 2.6844-2.4469 3.7387-5.14002-2.0418-4.52375-6.5906-7.67125-11.875-7.67125-1.5131 0-2.9675.25812-4.3181.73187zm8.6331 24.5875c-4.7.0337-11.87122-2.7756-12.45435-12.0788-1.42812.8475-2.68437 2.4463-3.73875 5.14 2.04188 4.525 6.59063 7.6701 11.8775 7.6701 1.5106 0 2.965-.2576 4.3156-.7313z" fill="#fff" fill-rule="evenodd"/></svg>