<svg fill="none" height="30" viewBox="0 0 30 30" width="30" xmlns="http://www.w3.org/2000/svg"><path d="m.313388 17.147.714522-3.6879h1.21344c.32853-.008.65237.0791.93264.2507.26084.1598.4604.4026.56661.6894.09924.263.12945.5469.08775.8249l-.01755.1679c-.05004.3242-.17636.6318-.36855.8976-.19575.2685-.45389.4853-.75213.6318-.30866.1495-.64734.2266-.9903.2256zm1.551892-3.0085-.44877 2.3216h.28331c.15148.007.30262-.0199.44232-.0789s.2644-.1486.36496-.2621c.22818-.305.3537-.6746.35852-1.0555v-.0827c.02739-.2149-.02236-.4326-.1404-.6143-.05745-.0735-.13143-.1325-.21593-.1721-.0845-.0397-.17715-.0588-.27045-.056zm5.47552 1.6221.86244-2.3015h.98028l-1.49674 3.6879h-1.00284l-.16547-2.0909-.89002 2.0909h-1.00284l-.20809-3.6879h.94517l.05516 2.2915.94769-2.2915h.82233zm6.338 1.3864h-.9628l.2959-1.5418h-1.4115l-.3009 1.5418h-.9702l.7145-3.6879h.9727l-.2858 1.4641h1.414l.2833-1.4641h.9678zm2.3366.0502c-.3798.0104-.7489-.1261-1.0304-.3811-.2682-.2588-.427-.6105-.4438-.9828-.0175-.2395.0002-.4802.0526-.7145.0536-.2654.152-.5198.2909-.7522.1343-.226.3125-.4229.524-.5791.3507-.2579.7783-.3896 1.2134-.3736.2559-.0009.5083.0584.7371.173.2076.11.381.2747.5014.4764.1298.2152.2055.4586.2206.7095.0157.2119.0056.4249-.0301.6343-.04.2379-.1152.4686-.2231.6844-.1079.2132-.2502.4072-.4212.5742-.1766.1682-.3833.3017-.6092.3936-.2483.0999-.5147.1469-.7822.1379zm1.1056-2.4369c-.02-.4212-.2031-.6419-.5516-.6594-.1255-.0072-.251.0151-.3664.0652s-.2174.1265-.2979.2231c-.1982.2586-.319.5681-.3485.8925-.0323.1862-.0458.3752-.0401.5641.02.4313.2055.6494.5565.6619.109.007.2183-.009.3206-.047.1024-.038.1956-.0972.2736-.1736.1833-.1906.3077-.43.3585-.6895.0715-.2731.1036-.5551.0953-.8373zm4.4702 1.0003.8599-2.3015h.9803l-1.4968 3.6879h-1.0028l-.1655-2.0909-.89 2.0909h-1.0028l-.2056-3.6879h.9427l.0551 2.2915.9477-2.2915h.8223zm4.3473-.1805h-1.5043l-.173.8825h1.7951l-.1479.6844h-2.7578l.7145-3.6879h2.7578l-.1278.6794h-1.7951l-.1529.7772h1.5268zm2.1411.2607h-.5366l-.2507 1.3062h-.9677l.712-3.6879h1.4566c.3815-.023.76.0791 1.0781.2908.1225.0911.2185.2133.278.3539s.0803.2945.0604.4459c-.0097.2419-.0976.4742-.2507.6618-.174.1882-.3919.3303-.6343.4137l.5591 1.4792v.0426h-1.0329zm-.4062-.6819h.5666c.1414.0027.2808-.0328.4037-.1028.1039-.0629.1867-.1555.2376-.2659.051-.1103.0677-.2334.0482-.3534-.0376-.188-.1705-.2858-.4012-.2958h-.6493zm-12.6734-4.4451c5.8441 0 11.1391.5215 15 1.3664-3.2417-1.6322-8.7498-2.7052-15-2.7052-6.25021 0-11.75832 1.073-15 2.7052 3.86094-.8449 9.15594-1.3664 15-1.3664zm0 9.527c-5.84406 0-11.13906-.5215-15-1.3689 3.24168 1.6321 8.74979 2.7077 15 2.7077 6.2502 0 11.7583-1.0756 15-2.7077-3.8609.8474-9.1559 1.3689-15 1.3689z" fill="#fff"/></svg>