<svg fill="none" height="30" viewBox="0 0 30 30" width="30" xmlns="http://www.w3.org/2000/svg"><g fill="#fff"><path d="m15.355 30c-4.0144 0-8.02891 0-12.04338 0-1.07694 0-1.2451-.1606-1.2485-1.2452 0-3.1889-.10191-6.3813.02888-9.5632.09853-2.3664.7406-4.5668 3.1306-5.6967 1.11475-.5545 2.32957-.8644 3.56715-.9099 4.75625-.0698 9.49885-.0297 14.24655-.0489.7117 0 .9479.3214.9292 1.0059-.0255 1.0147 0 2.0293 0 3.044 0 1.1666-.0765 1.2469-1.1891 1.2487-3.9012 0-7.8024 0-11.7037 0-1.86847 0-2.70251.8644-2.70421 2.8082 0 .7527.03738 1.5088-.01018 2.2598-.04756.7509.2531.9361.93766.9308 3.50603-.0262 7.01033-.0105 10.51633-.0105 2.5734 0 5.1452.021 7.7186-.0122.7746 0 1.0583.2829 1.0328 1.0706-.0408 1.2731 0 2.5497-.0119 3.8245 0 1.233-.0543 1.2906-1.2315 1.2924z"/><path d="m18.2487 6.15953c-2.9386 0-5.8773.03144-8.81595-.01921-.8782-.01572-1.13809.28291-1.08713 1.14562.06285 1.09848.017 2.20221.0153 3.30246 0 1.2591-.53508 1.6783-1.68336 1.198-.87311-.365-1.7649-.6986-2.50891-1.3709-1.29437-1.16312-2.05195-2.59865-2.13349-4.34154-.07644-1.67654 0-3.36005-.02888-5.04008-.01189-.7265.22252-1.03561903.97842-1.03387264 8.081.01979244 16.1626.01979244 24.2448 0 .7202 0 1.0293.23750564 1.0107 1.00068264-.034 1.38896-.034 2.77909 0 4.17038.0186.75968-.2803 1.00591-1.0056.99893-2.9947-.02795-5.9895-.01047-8.9859-.01047z"/></g></svg>