<svg width="30" height="30" viewBox="0 0 30 30" fill="none" xmlns="http://www.w3.org/2000/svg">
<path d="M7.2642 7C6.39775 7.00092 5.56714 7.34612 4.95502 7.95933C4.34289 8.57255 3.99938 9.40387 4 10.2703V19.0425C3.99969 19.9084 4.34338 20.7393 4.95551 21.3521C5.56763 21.9648 6.39806 22.3095 7.2642 22.31H26.5121V19.5267H9.37412C9.15975 19.5267 8.94755 19.4842 8.74958 19.402C8.55162 19.3197 8.37181 19.1991 8.22039 19.0475C8.06898 18.896 7.94896 18.7157 7.86718 18.5175C7.7854 18.3197 7.74347 18.1072 7.74378 17.8927V15.9311H25.1332V13.1465H7.74378V11.4186C7.74378 10.5157 8.47255 9.78603 9.37527 9.78603H26.5132V7H7.2642Z" fill="white"/>
</svg>
