<svg fill="none" height="30" viewBox="0 0 30 30" width="30" xmlns="http://www.w3.org/2000/svg"><path d="m15 5.625c-8.2847 0-15 4.12272-15 9.2086 0 5.0858 6.7153 9.2085 15 9.2085s15-4.1227 15-9.2085c0-5.08588-6.7153-9.2086-15-9.2086zm-13.61652 9.2086c0-4.4923 6.09631-8.1323 13.61652-8.1323 7.5202 0 13.6165 3.6412 13.6165 8.1323 0 4.4922-6.0963 8.1334-13.6165 8.1334-7.52021 0-13.61652-3.6412-13.61652-8.1334zm11.12672-5.49815v1.15485c1.0278-.53818 1.0601.3637 1.0601.3637l.0635 9.1462c0 .6005-.5219.6167-.5219.6167l-.7126-.0162-.015.9493h5.2371l-.0161-.9169-.649-.0324c-.6005-.1108-.5543-.6801-.5543-.6801v-11.62796l-1.5972-.01617-2.2946 1.06013zm4.9854 4.45415 8.1958-.0473c.7437-.0474.776-.3811.776-.3811l.7114-1.6607-7.6738-.0312v-.3325l-2.0094-.0162zm-14.67437-2.2126.7183 1.7795c.2737.4435.54854.3811.54854.3811h8.43833v-2.1618h-9.70517zm1.0763 2.9101.71714 1.7808c.27485.4434.54855.381.54855.381h7.29968v-2.1618zm13.61307 2.1029 7.1368-.0161c.41.0161.6317-.3476.6317-.3476l.791-1.6618-8.5757-.0312zm-6.8828 1.6399-5.10543.0219.73908 1.6029s.23097.4435.75872.4008h3.60763l1.8362-.8223.0196-2.0463zm6.8666-.7691v1.9147l1.82-.0162 1.1872.9008 2.6572.0161c.5855-.0785.6017-.4423.6017-.4423l.7275-1.5359h-3.9552l-1.1872-.8696z" fill="#fff"/></svg>