<svg fill="none" height="30" viewBox="0 0 30 30" width="30" xmlns="http://www.w3.org/2000/svg"><path clip-rule="evenodd" d="m22.7244 24.6188c-3.0976 3.1518-13.3831 2.475-15.26965 0-2.31013-5.1-3.14051-10.3238-2.85501-15.6413-.08211-1.76625.49449-2.95875 1.73167-3.57375 4.29369-1.93687 12.88109-2.14875 16.86509-.07687 1.644.6375 2.2467 2.23125 2.1795 4.54875.1306 5.81627-1.0524 10.62567-2.6497 14.74127zm-20.25566-15.67505c.33962-2.10562 1.67942-3.65625 3.82908-4.90687 4.69308-3.112505 12.13848-3.15563 17.50138.11062 1.9351 1.0125 3.051 2.56313 3.5734 4.57125 1.0823 5.71125.14 10.69875-2.2541 15.01125-2.6124 6.0113-16.43778 6.1125-19.68652.7013-2.74678-3.7463-4.08845-9.99-2.96137-15.48755zm12.53036 21.00565c-8.28143 0-14.9991-6.705-14.9991-14.9756 0-8.2688 6.71767-14.9738 14.9991-14.9738 8.2832 0 15.0009 6.705 15.0009 14.9738 0 8.2687-6.7177 14.9756-15.0009 14.9756zm3.7003-20.6869h3.8029l-.013 1.3594-1.2447-.0038-.013 10.7138h-1.2409l-.056-10.7063-1.2372-.0075zm-1.5171 4.6875h-1.7149v-3.3844l1.0637-.0037.6512 1.5881zm1.2409 7.3819h-1.2409l-.0075-5.7694h-1.7111l-.028 5.7731h-1.1196v-12.10872h2.9259l1.1812 2.39812v9.7088zm-6.8278.0356h1.241v-12.13875h-1.241v12.14065zm-4.16678-12.105h3.60518v1.3369l-2.36241.0037.00374 3.615 1.85487.0019.0074 1.3556-1.86041-.0037-.00746 5.7937h-1.24091v-12.09935z" fill="#fff" fill-rule="evenodd"/></svg>