<svg width="30" height="30" viewBox="0 0 30 30" fill="none" xmlns="http://www.w3.org/2000/svg">
<path d="M13.475 13.3533C13.4847 13.4007 13.5039 13.4102 13.528 13.4055C13.6386 13.3818 13.7637 13.2917 13.8358 13.1873C13.9032 13.0925 13.9321 12.955 13.8695 12.8981C13.8118 12.8507 13.7156 12.8601 13.6434 12.9218C13.4991 13.0498 13.4558 13.2205 13.475 13.3533Z" fill="white"/>
<path d="M20.9075 15.7198C20.9123 15.7436 20.946 15.7673 20.9797 15.7815C20.9893 15.7862 20.9989 15.7957 20.9845 15.8194C20.9029 15.9973 20.8251 16.1071 20.7237 16.2502C20.7116 16.2673 20.6991 16.2849 20.6862 16.3031C20.5804 16.4596 20.4553 16.5829 20.311 16.7062C20.0897 16.8864 19.7818 17.0808 19.5268 16.9528C19.4162 16.8959 19.3633 16.7394 19.3681 16.6113C19.3729 16.2557 19.5316 15.8906 19.8299 15.5349C20.1907 15.0986 20.59 14.871 20.8498 14.9943C21.1192 15.1223 21.0326 15.4306 20.9123 15.6724C20.9027 15.6866 20.9027 15.7056 20.9075 15.7198Z" fill="white"/>
<path fill-rule="evenodd" clip-rule="evenodd" d="M15 9.90579C7.34123 9.90579 1.13052 11.9923 1.13052 14.5435C1.13052 17.0947 7.34123 19.1812 15 19.1812C22.6587 19.1812 28.8695 17.0947 28.8695 14.5435C28.8695 11.9923 22.6587 9.90579 15 9.90579ZM7.87529 17.5974C7.05746 17.6022 6.33585 17.1043 6.24925 16.2412C6.20114 15.7623 6.34066 15.3355 6.61487 14.9846C6.86022 14.6716 7.26914 14.4108 7.62032 14.3491C7.73578 14.3302 7.88492 14.3397 7.94746 14.4155C8.04848 14.5293 8.01962 14.6526 7.91859 14.7048C7.654 14.8376 7.33168 15.0699 7.17292 15.3829C7.04303 15.639 7.01898 15.9472 7.21622 16.2412C7.54335 16.7297 8.46221 16.7439 9.31372 15.9614C9.52539 15.7718 9.71301 15.5868 9.90544 15.3687C10.2807 14.9466 10.4058 14.7902 10.9061 14.1073C10.9109 14.0978 10.9157 14.0883 10.9109 14.0836C10.9061 14.0741 10.9013 14.0741 10.8868 14.0741C10.5549 14.0836 10.2614 14.1784 9.98241 14.3871C9.90063 14.444 9.78517 14.4392 9.73225 14.3586C9.67453 14.2733 9.71782 14.1595 9.80923 14.0931C10.2252 13.8052 10.6819 13.734 11.1456 13.6616L11.1459 13.6616C11.1862 13.6553 11.2265 13.649 11.2669 13.6426C11.2669 13.6426 11.3006 13.6426 11.3294 13.6046C11.4186 13.4922 11.4988 13.3834 11.5789 13.2746C11.6847 13.131 11.7904 12.9875 11.9163 12.8364C12.1354 12.5688 12.4205 12.3245 12.6409 12.1356L12.6476 12.1299C12.9267 11.8934 13.1149 11.7973 13.2982 11.7036C13.3171 11.694 13.3359 11.6844 13.3548 11.6746C13.4077 11.6462 13.35 11.613 13.3307 11.613C13.2535 11.5986 13.1761 11.584 13.0985 11.5693C12.0497 11.3709 10.9691 11.1665 9.93431 11.5418C9.16458 11.8264 8.82783 12.4286 8.98658 12.8317C9.10204 13.1162 9.48209 13.1636 9.83809 12.9929C10.1315 12.8507 10.4058 12.6183 10.603 12.3243C10.7137 12.1583 10.9398 12.2769 10.8195 12.5661C10.4924 13.3201 9.87177 13.9176 9.11648 13.9413C8.47183 13.9603 8.0581 13.4956 8.0581 12.917C8.06291 11.7789 9.34739 11.0297 10.6944 10.9206C11.8338 10.8276 12.9307 11.0093 14.0414 11.1933C14.5157 11.2719 14.9926 11.3509 15.4763 11.4091C16.7127 11.5561 17.901 11.5608 19.1421 11.2763C19.2913 11.2431 19.3923 11.3379 19.3827 11.4849C19.3682 11.6983 19.2047 11.9022 18.7958 12.1204C18.3291 12.3717 17.8432 12.4476 17.3333 12.4523C16.4913 12.4588 15.6897 12.2392 14.8871 12.0193C14.5159 11.9176 14.1443 11.8158 13.7685 11.7363C13.7685 11.7467 13.7691 11.7574 13.7696 11.7682C13.772 11.8117 13.7743 11.8557 13.7396 11.8785C13.0854 12.3575 12.4888 12.8412 12.0895 13.524C12.0751 13.5382 12.0847 13.5525 12.1088 13.5525C12.2341 13.5456 12.3543 13.54 12.4721 13.5345C12.6797 13.5248 12.8797 13.5154 13.0854 13.5003C13.1431 13.4956 13.1431 13.4813 13.1383 13.4434C13.1094 13.211 13.1768 12.9408 13.3884 12.7558C13.6049 12.5661 13.8695 12.5424 14.0475 12.6799C14.2496 12.8364 14.2303 13.1162 14.1197 13.3249C14.009 13.5382 13.8214 13.6521 13.6434 13.7042C13.6434 13.7042 13.6049 13.7137 13.6097 13.7469C13.6153 13.7769 13.6975 13.8338 13.7698 13.8838C13.8231 13.9206 13.871 13.9537 13.8791 13.9698C13.8984 14.003 13.8888 14.0551 13.8503 14.0931C13.8262 14.1215 13.7829 14.15 13.7348 14.15C13.6937 14.15 13.67 14.1372 13.6225 14.1116L13.6145 14.1073C13.5039 14.0504 13.3692 13.9508 13.2778 13.8417C13.2441 13.8038 13.2297 13.8038 13.1527 13.8085C12.8015 13.8275 12.2579 13.8797 11.8923 13.9271C11.8041 13.9362 11.7921 13.9542 11.774 13.981L11.772 13.984L11.7318 14.0494C11.1563 14.9842 10.5392 15.9866 9.86696 16.6585C9.14053 17.3983 8.52956 17.5927 7.87529 17.5974ZM23.8132 12.9552C23.8325 12.922 23.8132 12.8983 23.7699 12.8983H23.0146C22.9569 12.8983 22.9281 12.9031 22.904 12.9552C22.8457 13.067 22.3463 13.8137 21.9663 14.3819L21.966 14.3824C21.7821 14.6574 21.6261 14.8906 21.5618 14.9896C21.5281 15.037 21.4896 15.0275 21.4848 14.9753C21.4656 14.7951 21.3068 14.5865 21.0567 14.4869C20.869 14.411 20.6814 14.3968 20.489 14.4205C20.1426 14.4679 19.8299 14.6481 19.5557 14.852C19.3804 14.9827 19.2163 15.1294 19.0503 15.278C18.8245 15.48 18.5951 15.6852 18.329 15.8574C18.0788 16.0186 17.7372 16.1561 17.5063 15.9475C17.2994 15.7578 17.3235 15.3357 17.641 15.0085C17.6747 14.9753 17.7132 15.0038 17.7084 15.0322C17.6795 15.1792 17.718 15.3262 17.8286 15.4258C17.9681 15.5491 18.1654 15.5634 18.3338 15.4827C18.5358 15.3832 18.6513 15.1982 18.6849 14.9801C18.7379 14.6481 18.4781 14.3541 18.1558 14.3304C17.8912 14.3115 17.641 14.4015 17.3909 14.6055C17.2658 14.705 17.1984 14.7809 17.0878 14.9327C17.0637 14.9706 17.0204 14.9753 17.0252 14.9184C17.0397 14.4916 16.8569 14.2545 16.5009 14.2451C16.2266 14.2403 15.9284 14.3873 15.6975 14.5675C15.5118 14.7125 15.3466 14.8928 15.1776 15.0771C15.1145 15.1458 15.0508 15.2153 14.9855 15.2836C14.9566 15.312 14.9325 15.312 14.9229 15.2551C14.9133 14.9753 14.846 14.7003 14.7113 14.5059C14.6631 14.4395 14.5669 14.4063 14.4851 14.449L14.4703 14.4562C14.4193 14.4808 14.302 14.5374 14.2157 14.6055C14.1676 14.6434 14.1484 14.7003 14.1676 14.7714C14.2975 15.1935 14.2687 15.6724 14.0955 16.0755C13.9367 16.4454 13.6288 16.7821 13.2632 16.8911C13.0227 16.967 12.7725 16.9291 12.6186 16.7204C12.4069 16.4311 12.4935 15.9285 12.8062 15.5112C13.0852 15.1461 13.4893 14.9089 13.8886 14.7619C13.9367 14.743 13.9463 14.7145 13.9319 14.6766C13.9199 14.6351 13.9003 14.5862 13.8838 14.5449C13.8739 14.5202 13.8652 14.4982 13.8597 14.4822C13.8213 14.3873 13.7202 14.3684 13.5951 14.3826C13.3017 14.4158 13.0419 14.5154 12.7821 14.6529C12.1038 15.0133 11.7622 15.7056 11.6083 16.0802C11.5361 16.2604 11.4736 16.3695 11.3966 16.4691C11.2908 16.6019 11.1561 16.7252 10.9059 16.9338C10.8819 16.9528 10.8674 16.9955 10.8867 17.0334C10.9107 17.0855 11.0406 17.261 11.0743 17.28C11.1093 17.2972 11.1524 17.2752 11.1743 17.264L11.1801 17.261C11.3533 17.1472 11.5602 16.9623 11.6612 16.839C11.6949 16.7963 11.7334 16.8153 11.7526 16.8769C11.8488 17.2088 12.0942 17.4791 12.4358 17.5929C13.0612 17.8016 13.7106 17.4981 14.1965 16.9765C14.4095 16.7504 14.5288 16.5793 14.6212 16.4467C14.6644 16.3846 14.7018 16.331 14.7401 16.2841C14.7724 16.2447 14.8097 16.1976 14.8516 16.1447C15.0716 15.8667 15.4168 15.4307 15.8129 15.1318C15.9861 14.999 16.193 14.8995 16.294 14.9659C16.3758 15.018 16.4046 15.1413 16.2699 15.3832C15.9706 15.9231 15.5818 16.5237 15.2996 16.9598C15.1282 17.2245 14.996 17.4287 14.947 17.5218C14.9229 17.5645 14.9422 17.5977 14.9903 17.5977H15.7215C15.76 17.5977 15.7792 17.5787 15.7985 17.5503L15.8874 17.4126C16.2254 16.8888 16.5499 16.3862 16.8905 15.8716C16.9098 15.8384 16.929 15.8621 16.929 15.8763C16.9386 16.0091 16.9675 16.1846 17.0493 16.3031C17.1888 16.5212 17.3909 16.6113 17.6121 16.6161C17.7901 16.6161 17.8767 16.5924 18.0692 16.5212C18.2231 16.4643 18.3482 16.3885 18.4444 16.3221C18.5021 16.2841 18.5118 16.3458 18.507 16.3553C18.4204 16.8105 18.5262 17.3464 18.9832 17.574C19.5316 17.8395 20.133 17.4649 20.4794 17.1282C20.513 17.095 20.5515 17.0998 20.5515 17.1709C20.5612 17.2989 20.6189 17.4554 20.7247 17.5598C21.0134 17.849 21.6003 17.7352 22.1872 17.2847C22.5624 16.9955 22.9617 16.5924 23.3177 16.1609C23.3322 16.1466 23.3418 16.1182 23.3177 16.0897C23.2878 16.0575 23.2485 16.0237 23.2105 15.9911C23.1815 15.9661 23.153 15.9416 23.1301 15.919C23.1061 15.9 23.0724 15.9048 23.0483 15.919C22.9425 16.0178 22.8395 16.121 22.7351 16.2256C22.4789 16.4823 22.2143 16.7474 21.8793 16.9765C21.7206 17.0856 21.4608 17.1756 21.3501 17.0239C21.3068 16.967 21.3116 16.8816 21.3549 16.7726C21.4566 16.5421 22.5778 14.8382 23.272 13.7834L23.2722 13.7831C23.5631 13.3409 23.7791 13.0127 23.8132 12.9552Z" fill="white"/>
<path fill-rule="evenodd" clip-rule="evenodd" d="M15 9C6.67255 9 0 11.4611 0 14.5435C0 17.6068 6.73028 20.0869 15 20.0869C23.2697 20.0869 30 17.5973 30 14.5435C30 11.4896 23.2697 9 15 9ZM15 19.608C7.0622 19.608 0.625385 17.3413 0.625385 14.5483C0.625385 11.7552 7.0622 9.48849 15 9.48849C22.9378 9.48849 29.3746 11.7552 29.3746 14.5483C29.3746 17.3413 22.9378 19.608 15 19.608Z" fill="white"/>
</svg>
