<svg width="30" height="30" viewBox="0 0 30 30" fill="none" xmlns="http://www.w3.org/2000/svg">
<path d="M26.2211 9.96561C26.1743 11.4606 26.1437 12.6804 26.0955 13.8996C26.0501 15.0502 26.0004 16.2007 25.9268 17.3497C25.8444 18.634 25.6222 19.8956 25.2474 21.1298C24.8373 22.4804 24.1319 23.6599 23.2124 24.721C22.6503 25.3697 21.9934 25.9133 21.3335 26.4559C19.9435 27.5987 18.4621 28.6027 16.8642 29.432C16.5133 29.6142 16.1559 29.783 15.7766 29.9C15.3363 30.0359 14.897 30.033 14.4584 29.8933C14.0417 29.7606 13.6509 29.5688 13.2656 29.366C11.688 28.5352 10.2253 27.5337 8.85291 26.3974C8.32762 25.9625 7.80147 25.5305 7.33019 25.0344C6.02367 23.659 5.16676 22.0488 4.75395 20.1963C4.52416 19.1648 4.36575 18.1246 4.3114 17.0695C4.25515 15.9769 4.20252 14.884 4.16261 13.7906C4.11101 12.3766 4.06612 10.9624 4.03293 9.54791C4.00868 8.51693 3.99904 7.48542 4.00007 6.45427C4.00093 5.56073 4.01882 4.66703 4.04307 3.77366C4.05305 3.40775 4.07868 3.03978 4.13372 2.67834C4.23933 1.98539 4.65867 1.53071 5.30367 1.29606C5.96123 1.05694 6.64597 0.910022 7.3295 0.764827C8.68727 0.476674 10.0604 0.294664 11.4426 0.174758C12.5158 0.0816885 13.5907 0.024918 14.6679 0.00513431C15.7283 -0.0143053 16.7873 0.0219934 17.8438 0.104913C18.7228 0.173898 19.6021 0.250452 20.4774 0.355907C21.9119 0.528971 23.328 0.80319 24.7157 1.21314C24.998 1.29658 25.2661 1.4053 25.4971 1.59522C25.8741 1.9054 26.1001 2.29763 26.1423 2.78517C26.1774 3.1903 26.2101 3.5963 26.2212 4.00247C26.2432 4.80998 26.2618 5.61785 26.2594 6.42536C26.2555 7.6972 26.2329 8.96903 26.2214 9.96526L26.2211 9.96561ZM26.0085 6.2843C26.0138 6.2843 26.019 6.2843 26.0243 6.28413C26.0114 5.72864 25.9999 5.17314 25.9852 4.61765C25.9751 4.23419 25.9667 3.85039 25.9462 3.46745C25.9323 3.20476 25.9195 2.93914 25.87 2.68178C25.7573 2.09515 25.3853 1.71926 24.8351 1.52194C24.5502 1.41975 24.2554 1.34234 23.9615 1.26836C22.7898 0.973158 21.6063 0.739194 20.404 0.60759C19.6819 0.528627 18.9604 0.443128 18.2369 0.380164C17.6614 0.330103 17.0837 0.29604 16.5063 0.280213C15.831 0.261634 15.1549 0.258709 14.4796 0.270235C13.8102 0.28159 13.1411 0.31806 12.472 0.345929C12.3005 0.353155 12.1292 0.366745 11.9582 0.382744C11.5368 0.422484 11.1152 0.461019 10.6947 0.508328C10.1777 0.566474 9.65908 0.617568 9.14549 0.699627C8.47933 0.806115 7.81368 0.92258 7.15492 1.06726C6.56891 1.19594 5.98445 1.34406 5.41427 1.52916C4.85251 1.71152 4.49148 2.11115 4.38037 2.70741C4.35629 2.83643 4.34253 2.96821 4.33496 3.0993C4.30968 3.53919 4.28336 3.97924 4.26891 4.41964C4.25257 4.91768 4.24397 5.41588 4.24122 5.91426C4.2395 6.24628 4.25584 6.5783 4.261 6.91032C4.27252 7.6547 4.288 8.39926 4.2911 9.14381C4.29506 10.1063 4.3095 11.0682 4.3611 12.0296C4.38415 12.4585 4.38364 12.8886 4.39877 13.318C4.41821 13.873 4.45278 14.4276 4.46259 14.9826C4.47824 15.8649 4.5307 16.7449 4.60896 17.6233C4.648 18.0616 4.6972 18.5001 4.76651 18.9347C4.83308 19.3522 4.92544 19.7661 5.01694 20.1793C5.31829 21.5397 5.86439 22.789 6.70978 23.9035C7.29854 24.6795 7.98362 25.3564 8.73544 25.9749C10.048 27.0547 11.4119 28.0572 12.9032 28.8793C13.3901 29.1477 13.8774 29.4143 14.4024 29.6036C14.6019 29.6755 14.8036 29.7273 15.0195 29.7402C15.4043 29.7632 15.7551 29.6559 16.1003 29.5088C16.7875 29.2161 17.4318 28.8428 18.0717 28.4616C19.1866 27.7974 20.2261 27.0276 21.2317 26.2089C21.9259 25.6437 22.6028 25.0631 23.1754 24.3692C23.7991 23.6132 24.3333 22.8026 24.703 21.8919C25.1012 20.911 25.3406 19.8872 25.5059 18.8435C25.6289 18.0678 25.6848 17.2859 25.7331 16.5037C25.7787 15.7665 25.8053 15.0282 25.8346 14.2901C25.8626 13.5807 25.885 12.8711 25.9068 12.1613C25.9312 11.3654 25.9565 10.5696 25.9734 9.77379C25.9901 8.98915 25.9985 8.20435 26.0071 7.41954C26.0112 7.04124 26.0078 6.66294 26.0078 6.28481L26.0085 6.2843Z" fill="white"/>
<path d="M15.122 29.5846C14.7852 29.5929 14.5004 29.488 14.2216 29.3667C13.2943 28.9631 12.4317 28.4429 11.581 27.9008C10.3989 27.1475 9.30802 26.2732 8.25194 25.357C7.40208 24.6195 6.71133 23.7435 6.15112 22.7651C5.8336 22.2105 5.59796 21.6232 5.40515 21.0154C5.18464 20.3204 5.02709 19.6113 4.91649 18.8925C4.84443 18.4237 4.79472 17.9508 4.75464 17.4782C4.70717 16.9195 4.67518 16.359 4.64662 15.7989C4.61876 15.2503 4.60311 14.701 4.58281 14.152C4.5632 13.6259 4.54274 13.0999 4.52588 12.5738C4.50627 11.9615 4.48993 11.3493 4.4729 10.737C4.45811 10.1992 4.44005 9.66163 4.43145 9.12386C4.42268 8.56854 4.42492 8.01322 4.41976 7.45773C4.41494 6.94817 4.39912 6.43844 4.40204 5.92888C4.40531 5.36806 4.42061 4.80706 4.43764 4.24641C4.44899 3.86915 4.46602 3.49188 4.49234 3.11547C4.51246 2.82491 4.53517 2.53211 4.69994 2.2751C4.87556 2.00122 5.10896 1.79633 5.41667 1.68864C5.97344 1.49373 6.54483 1.34957 7.12275 1.23396C7.76741 1.10511 8.4119 0.971268 9.06172 0.873382C9.76847 0.766894 10.4802 0.692577 11.1911 0.616539C11.6741 0.564757 12.1588 0.52605 12.6435 0.495944C13.1631 0.463774 13.6836 0.443475 14.204 0.427476C14.6215 0.414745 15.0394 0.408724 15.4571 0.413197C15.8805 0.41767 16.304 0.434529 16.7271 0.45328C17.1561 0.472376 17.5851 0.494052 18.013 0.526222C18.509 0.563553 19.0048 0.608453 19.4994 0.659719C19.9773 0.709264 20.4549 0.762938 20.9305 0.829858C21.8999 0.966451 22.8617 1.14468 23.8096 1.39206C24.1581 1.48289 24.5081 1.57441 24.8464 1.69638C25.3805 1.88906 25.6805 2.28508 25.7384 2.85037C25.8193 3.63673 25.8377 4.42636 25.8415 5.2165C25.8435 5.63368 25.8535 6.05085 25.8516 6.46803C25.8492 7.00013 25.837 7.53239 25.8311 8.06449C25.8256 8.56837 25.8273 9.07225 25.8179 9.57596C25.8083 10.091 25.7893 10.6057 25.7739 11.1206C25.7622 11.5096 25.751 11.8987 25.7372 12.2877C25.7162 12.8767 25.6925 13.4656 25.6712 14.0545C25.6498 14.6435 25.6383 15.2332 25.6077 15.8217C25.5721 16.5075 25.5339 17.1937 25.4718 17.8774C25.4102 18.5553 25.2978 19.2268 25.1498 19.8927C25.0191 20.4805 24.8516 21.0562 24.6435 21.6208C24.4407 22.1711 24.1724 22.6886 23.8572 23.1816C23.5145 23.7182 23.1233 24.2176 22.6907 24.6857C22.3168 25.0903 21.9111 25.4595 21.4821 25.8036C20.9776 26.208 20.4797 26.6217 19.9587 27.0042C19.4287 27.3933 18.8826 27.762 18.3281 28.1155C17.8606 28.4136 17.3757 28.6853 16.8902 28.9536C16.5047 29.1666 16.1089 29.361 15.6874 29.4967C15.4946 29.5588 15.3004 29.5986 15.1218 29.585L15.122 29.5846ZM16.9715 11.3555C16.9741 11.3398 16.9765 11.3243 16.9791 11.3087C17.0333 11.3064 17.0881 11.2982 17.1416 11.303C17.3797 11.3243 17.563 11.4408 17.696 11.6367C17.7507 11.7172 17.7959 11.8041 17.8511 11.8841C17.9218 11.9863 17.9963 12.0161 18.0821 11.9858C18.1754 11.9529 18.2234 11.8741 18.2029 11.748C18.1255 11.271 17.8809 10.929 17.3169 10.839C17.2899 10.8347 17.2603 10.8473 17.2156 10.8547C17.2767 10.9102 17.3203 10.9502 17.389 11.0128C17.3267 11.0057 17.2994 11.0038 17.2725 10.9994C17.0981 10.9698 16.9247 10.9288 16.749 10.9118C16.2837 10.8665 15.8217 10.9125 15.3635 10.9935C14.8299 11.0879 14.38 10.9192 13.9887 10.5662C13.8213 10.4153 13.7063 10.2271 13.713 9.99503C13.7266 9.52177 13.8753 9.11732 14.3265 8.88147C14.3564 8.86581 14.3769 8.83192 14.422 8.78564C14.3575 8.78272 14.3232 8.77378 14.293 8.781C13.5712 8.95166 13.2969 9.26114 13.1504 9.8851C13.0988 10.1046 13.0865 10.3283 13.1488 10.549C13.2615 10.9477 13.5396 11.1894 13.9168 11.32C14.4044 11.4886 14.9098 11.539 15.424 11.5122C15.7615 11.4945 16.099 11.473 16.4366 11.4692C16.5591 11.4678 16.6839 11.5062 16.804 11.5394C16.8609 11.5552 16.9225 11.593 16.8936 11.6949C16.8417 11.6923 16.7868 11.6875 16.7319 11.6871C16.5611 11.6859 16.3883 11.6692 16.2197 11.689C15.6676 11.7537 15.1167 11.817 14.5584 11.7972C14.0578 11.7795 13.6056 11.6302 13.1818 11.368C12.3518 10.8543 12.4032 9.81577 12.8898 9.27731C13.3236 8.79717 13.8635 8.5011 14.4892 8.36245C14.9677 8.2563 15.4545 8.24529 15.9426 8.27505C16.0014 8.27867 16.0606 8.27557 16.1196 8.27557C16.1243 8.26318 16.1291 8.2508 16.1337 8.23841C16.0964 8.1985 16.0622 8.15498 16.0212 8.11919C15.6401 7.78597 15.1925 7.72971 14.7307 7.95473C14.5135 8.06053 14.3895 8.03163 14.2395 7.84016C13.9483 7.4684 13.5635 7.2783 13.0943 7.27624C12.6983 7.27452 12.3346 7.3767 12.048 7.67346C11.8886 7.83861 11.8 8.04126 11.7291 8.25579C11.6844 8.391 11.6335 8.5257 11.5685 8.65215C11.499 8.78736 11.3753 8.84018 11.2224 8.82349C11.0886 8.80887 10.9665 8.77171 10.8622 8.6795C10.781 8.60759 10.7611 8.61327 10.6973 8.69137C10.6828 8.70909 10.6711 8.72905 10.6577 8.74763C10.3402 9.18613 10.088 9.65785 9.89283 10.1645C9.5877 10.9563 9.37683 11.7699 9.33658 12.6171C9.31473 13.079 9.34604 13.5449 9.37717 14.0073C9.39076 14.2098 9.4458 14.4145 9.51477 14.6067C9.59251 14.8234 9.79496 14.8778 9.99345 14.7653C10.1044 14.7023 10.1479 14.6005 10.1579 14.4804C10.1703 14.332 10.179 14.1831 10.1911 14.0347C10.2298 13.5604 10.2951 13.0916 10.409 12.6276C10.6517 11.6397 11.0762 10.7267 11.5409 9.83057C11.7255 9.47498 11.9496 9.14055 12.2104 8.83295C12.3406 8.6795 12.5005 8.57405 12.6937 8.5214C12.8076 8.49027 12.9156 8.49887 13.0238 8.60622C12.96 8.6389 12.9108 8.66264 12.8629 8.68879C12.7224 8.76552 12.5767 8.83467 12.4434 8.92258C12.226 9.06571 12.0661 9.25908 12.0127 9.52091C11.9706 9.72769 11.9357 9.93654 11.9107 10.1459C11.9016 10.2226 11.8839 10.2718 11.813 10.3078C11.5575 10.4373 11.3824 10.6467 11.2585 10.8992C10.9971 11.4325 10.7988 11.986 10.7458 12.5827C10.7179 12.8965 10.6931 13.21 10.7346 13.5258C10.7934 13.9726 11.1821 14.3734 11.5882 14.381C11.8187 14.3853 12.0415 14.339 12.2601 14.2585C12.4796 14.1776 12.7061 14.1142 12.9323 14.0538C13.0024 14.035 13.0817 14.0509 13.1737 14.0509C13.1495 14.083 13.1426 14.1011 13.1301 14.1076C12.7732 14.2912 12.4283 14.4935 12.0984 14.7235C11.8528 14.8947 11.5745 14.9501 11.2786 14.888C11.0237 14.8345 10.7826 14.749 10.5839 14.5697C10.558 14.5463 10.5199 14.5365 10.4689 14.511C10.4654 14.5891 10.4609 14.6449 10.4608 14.7006C10.4601 14.9643 10.4608 15.2279 10.4604 15.4916C10.4599 15.8746 10.5332 16.2439 10.6747 16.5986C10.854 17.0478 11.1347 17.4139 11.5583 17.6623C12.3036 18.0995 13.2567 17.9248 13.7823 17.2383C13.9202 17.058 14.0282 16.852 14.1315 16.6485C14.2752 16.365 14.4896 16.1467 14.7288 15.9477C14.7692 15.914 14.8148 15.8644 14.8926 15.9281C14.8578 15.9792 14.8256 16.0311 14.789 16.0795C14.6229 16.2995 14.4715 16.5279 14.3576 16.7805C14.247 17.026 14.1289 17.2678 14.0152 17.512C13.859 17.8471 13.6067 18.0749 13.2544 18.187C13.1402 18.2233 13.0226 18.2501 12.9049 18.2732C12.8012 18.2935 12.6952 18.3024 12.5752 18.3184C12.6268 18.4034 12.7014 18.4187 12.7677 18.4425C13.0253 18.5347 13.2935 18.5607 13.5638 18.5414C14.1772 18.4975 14.7154 18.2572 15.1996 17.8885C15.3726 17.7568 15.5346 17.6105 15.7035 17.4731C15.7335 17.4487 15.7718 17.4345 15.8062 17.4158C15.816 17.4271 15.8258 17.4385 15.8356 17.4499C15.7825 17.5347 15.7317 17.6212 15.6758 17.7043C15.2704 18.3081 14.7156 18.7036 14.0014 18.8414C13.6492 18.9094 13.285 18.9159 12.9262 18.9491C12.8672 18.9546 12.8077 18.9539 12.7486 18.9562C12.7957 19.0377 12.8464 19.0926 12.9084 19.1287C13.1951 19.2956 13.4806 19.4652 13.7744 19.6188C14.16 19.8205 14.578 19.8769 15.0087 19.8569C15.1715 19.8494 15.1784 19.8409 15.1808 19.6763C15.187 19.262 15.2729 18.8746 15.5081 18.5204C15.8319 18.0332 16.1439 17.5388 16.5642 17.1259C16.6253 17.0659 16.6317 17.0148 16.5771 16.9484C16.5336 16.8956 16.4961 16.8373 16.4598 16.7789C16.3657 16.6279 16.3277 16.4626 16.3449 16.2857C16.3651 16.0789 16.4695 15.9322 16.6661 15.8582C16.7866 15.8128 16.8546 15.8453 16.8857 15.9683C16.9081 16.0569 16.9144 16.1493 16.9311 16.2394C16.988 16.5491 17.0365 16.8606 17.1066 17.1674C17.2055 17.6011 17.4629 17.9121 17.8635 18.1125C18.2889 18.3253 18.7364 18.3855 19.2001 18.3219C19.3556 18.3006 19.5061 18.2331 19.6547 18.1762C19.723 18.15 19.7588 18.0872 19.7377 18.0072C19.7155 17.9233 19.6606 17.8817 19.5737 17.8884C19.4996 17.894 19.4253 17.9014 19.3519 17.9125C18.9876 17.967 18.6245 17.9978 18.2609 17.9009C17.9077 17.8068 17.7017 17.5742 17.6286 17.2259C17.5483 16.8426 17.6012 16.4736 17.7875 16.1262C17.867 15.9781 17.8709 15.9816 18.0244 16.0366C18.3044 16.1371 18.5849 16.2372 18.8701 16.3213C18.9941 16.358 19.1308 16.3731 19.26 16.3657C19.7072 16.3403 19.9394 15.9599 19.7683 15.547C19.6857 15.348 19.5598 15.178 19.3981 15.0364C19.194 14.8577 18.964 14.7194 18.7163 14.6091C18.6682 14.5876 18.6055 14.5811 18.578 14.4985C18.9401 14.3834 19.286 14.2587 19.6702 14.2939C19.8851 14.3137 20.1064 14.3185 20.3194 14.2895C20.6112 14.2495 20.7647 14.0495 20.7824 13.7568C20.7963 13.526 20.742 13.3132 20.6202 13.1179C20.255 12.5328 19.7318 12.2194 19.0374 12.2222C18.7806 12.2232 18.5228 12.2476 18.2674 12.2788C17.9896 12.3126 17.7694 12.2437 17.6241 11.9911C17.5756 11.9068 17.5209 11.826 17.4703 11.7427C17.3719 11.5808 17.2448 11.4549 17.0575 11.3997C17.0273 11.3907 17.0001 11.3711 16.9715 11.3565V11.3555ZM20.8166 3.47055C20.8082 3.47588 20.7996 3.48121 20.7912 3.48655C20.8058 3.53179 20.8213 3.57669 20.835 3.62211C20.8918 3.80807 20.9565 3.99198 21.0027 4.18052C21.0627 4.42532 21.0294 4.66152 20.8768 4.86779C20.7681 5.01471 20.658 5.16386 20.5287 5.29168C20.211 5.60581 19.8725 5.89912 19.5607 6.21876C19.3562 6.42829 19.1372 6.4639 18.8737 6.3784C18.3763 6.21686 17.895 6.01817 17.4471 5.7467C17.2959 5.65501 17.1477 5.55317 17.0154 5.43636C16.3613 4.85919 15.6664 4.33501 14.9567 3.82958C14.2923 3.35649 13.5573 3.02825 12.7854 2.77674C12.273 2.60987 11.7539 2.57873 11.2253 2.68677C10.6428 2.80582 10.259 3.13096 10.1183 3.72343C10.0635 3.95465 10.038 4.18586 10.0638 4.42188C10.0848 4.6137 10.0148 4.74565 9.84398 4.8468C9.63775 4.96912 9.43582 5.10399 9.25264 5.25796C9.08769 5.39679 8.91982 5.54972 8.80802 5.73036C8.60678 6.05533 8.44578 6.40558 8.27034 6.74621C8.25796 6.77029 8.26312 6.80349 8.2571 6.86147C8.34 6.78835 8.39453 6.72935 8.4592 6.68548C8.61022 6.58295 8.75745 6.46906 8.92171 6.39354C9.26606 6.23527 9.56482 6.30202 9.8328 6.56747C10.0722 6.8047 10.1895 7.10283 10.2213 7.4278C10.2537 7.75758 10.2518 8.09064 10.2643 8.42231C10.2674 8.50472 10.2683 8.58729 10.2702 8.66987C10.2826 8.67554 10.295 8.68122 10.3073 8.6869C10.3483 8.65266 10.3913 8.62067 10.4295 8.58368C10.6651 8.35625 10.9262 8.17923 11.263 8.14052C11.5267 8.11025 11.6959 7.95542 11.8091 7.72197C11.907 7.52001 12.0303 7.33387 12.1963 7.17904C12.3941 6.99445 12.6266 6.89243 12.8975 6.90757C13.0564 6.91635 13.2173 6.93905 13.3712 6.97897C13.715 7.06791 14.0148 7.24544 14.2866 7.47218C14.3318 7.51003 14.3822 7.54168 14.4591 7.59708C14.4732 7.50624 14.4884 7.45257 14.4885 7.3989C14.4885 7.23288 14.4921 7.06584 14.4773 6.90086C14.4441 6.53203 14.3671 6.1699 14.1521 5.86231C13.5147 4.95054 12.6674 4.43393 11.5203 4.50704C11.3261 4.51943 11.1324 4.54041 10.9383 4.55246C10.5832 4.5743 10.3739 4.38283 10.3588 4.02707C10.3405 3.60215 10.5779 3.23142 10.9972 3.03496C11.2719 2.90611 11.5628 2.85244 11.8652 2.86173C12.3963 2.87807 12.8949 3.02808 13.364 3.26411C14.0826 3.62555 14.7517 4.07111 15.3791 4.5719C16.1179 5.16145 16.8417 5.77027 17.5603 6.3846C18.1152 6.85889 18.7394 7.17147 19.4616 7.27882C20.0698 7.36913 20.6472 7.29052 21.1783 6.95368C21.5204 6.73657 21.7222 6.43242 21.7766 6.03537C21.9109 5.05617 21.588 4.23265 20.9081 3.53523C20.8825 3.50891 20.8476 3.49188 20.8171 3.47038L20.8166 3.47055ZM9.59991 7.21981C9.59647 7.15203 9.59682 7.10025 9.59062 7.04933C9.53988 6.63112 9.29323 6.50072 8.93392 6.72298C8.75143 6.83601 8.57823 6.97656 8.43202 7.13362C7.84412 7.76618 7.36648 8.4784 6.98532 9.25237C6.87782 9.47085 6.80369 9.70877 6.74108 9.94497C6.70857 10.0671 6.71838 10.2075 6.7385 10.335C6.76602 10.5089 6.87129 10.587 7.04656 10.6033C7.18674 10.6166 7.31935 10.5868 7.44835 10.5345C7.68554 10.4384 7.89349 10.2952 8.0679 10.1117C8.41878 9.74231 8.75401 9.35885 9.02921 8.9274C9.36496 8.40098 9.55966 7.82829 9.59974 7.21981H9.59991ZM9.01012 14.5112C8.87647 14.7689 8.79443 15.0175 8.73423 15.2733C8.66595 15.564 8.62415 15.8575 8.65494 16.1577C8.69484 16.5467 8.78617 16.9228 8.91535 17.2919C8.96781 17.4418 8.9986 17.6006 9.0256 17.7576C9.0502 17.9006 9.05639 18.0468 9.07049 18.1898C9.23028 18.1404 9.37476 18.0656 9.52234 18.0587C9.67559 18.0515 9.83194 18.1099 9.99654 18.1416C10.002 18.1192 10.0127 18.0933 10.0141 18.0666C10.0354 17.6862 10.1035 17.3231 10.2987 16.9837C10.4556 16.7112 10.4809 16.4032 10.377 16.1023C10.2877 15.8436 10.1737 15.5933 10.0696 15.3397C10.0662 15.3313 10.0512 15.3277 10.0414 15.322C9.44597 15.3779 9.25402 15.2315 9.01012 14.5114V14.5112ZM6.42116 10.1882L6.37558 10.1836C6.31091 10.2708 6.27633 10.3737 6.27375 10.4812C6.27014 10.6293 6.28373 10.7778 6.28855 10.9262C6.2968 11.1776 6.32243 11.4299 6.30815 11.6801C6.28081 12.1595 6.12067 12.6089 5.9497 13.0529C5.86749 13.2664 5.92012 13.4298 6.11741 13.5422C6.20943 13.5945 6.29233 13.608 6.38366 13.5298C6.50578 13.4252 6.65422 13.3859 6.81539 13.3954C6.98636 13.4056 6.99324 13.4025 6.98481 13.234C6.94645 12.4699 7.11415 11.7453 7.39881 11.0424C7.40845 11.0186 7.40896 10.9913 7.41894 10.9386C7.34584 10.9606 7.29424 10.9763 7.24246 10.9916C6.9707 11.0721 6.72663 10.9866 6.56599 10.7528C6.48291 10.6322 6.43681 10.4987 6.43217 10.3513C6.43045 10.2969 6.42494 10.2428 6.42116 10.1884V10.1882ZM19.8728 19.8951C19.8438 19.8717 19.8183 19.8502 19.7917 19.8297C19.5641 19.6551 19.4308 19.4353 19.4564 19.138C19.4604 19.0926 19.463 19.0467 19.4619 19.0011C19.4568 18.7576 19.3598 18.6484 19.1154 18.6161C18.7968 18.5741 18.5254 18.6754 18.3126 18.9116C18.126 19.1189 18.0111 19.3665 17.9494 19.6402C17.9129 19.802 17.9554 19.94 18.0696 20.0469C18.1509 20.1231 18.2504 20.1884 18.353 20.2316C18.5608 20.3188 18.7507 20.4315 18.9286 20.5676C18.9583 20.5905 18.9924 20.6078 19.0244 20.6278C19.0178 20.6158 19.0113 20.6037 19.0049 20.5917C19.1413 20.4702 19.2732 20.3431 19.4155 20.2289C19.5569 20.1151 19.7084 20.0143 19.8728 19.8953V19.8951ZM21.7506 22.6581C22.0626 22.7736 22.3497 22.8007 22.6309 22.6425C22.71 22.5979 22.7803 22.5372 22.8521 22.4804C23.017 22.3497 23.0657 22.3548 23.1995 22.5234C23.268 22.6098 23.3598 22.6389 23.4573 22.6053C23.5452 22.5749 23.5931 22.5011 23.5922 22.3889C23.5919 22.3493 23.5846 22.3092 23.5767 22.2702C23.517 21.9805 23.3455 21.7618 23.1235 21.5805C22.9541 21.4422 22.8139 21.4554 22.6515 21.6077C22.4522 21.7947 22.3393 21.8023 22.1271 21.6397C22.038 21.5714 21.9444 21.5224 21.8275 21.5354C21.6694 21.5532 21.5896 21.6505 21.6162 21.8052C21.6278 21.8725 21.6491 21.9389 21.6734 22.0029C21.7513 22.2086 21.8118 22.4161 21.7508 22.6581H21.7506ZM20.878 22.7806C21.3268 22.784 21.5001 22.5864 21.4485 22.2249C21.3663 21.648 20.6997 21.3589 20.3266 21.437C20.1362 21.477 20.013 21.5943 19.9664 21.7861C19.9337 21.9205 19.9578 22.0496 20.0189 22.1692C20.2153 22.5534 20.5373 22.7479 20.8778 22.7804L20.878 22.7806ZM21.7035 21.2509C21.6629 21.2285 21.6398 21.2132 21.6147 21.2024C21.2721 21.0527 20.9515 20.8692 20.6603 20.6306C20.539 20.5311 20.3926 20.4511 20.2449 20.3975C19.9688 20.2972 19.7256 20.3747 19.5349 20.5984C19.4122 20.7422 19.347 20.9123 19.341 21.1019C19.3355 21.2772 19.3993 21.4272 19.5223 21.5509C19.6159 21.645 19.6928 21.6492 19.7923 21.5657C19.845 21.5217 19.8916 21.4706 19.9439 21.426C20.3111 21.1124 20.6532 21.0914 21.0584 21.3539C21.0949 21.3777 21.1453 21.4097 21.1802 21.4013C21.3502 21.3598 21.5172 21.306 21.7035 21.2511V21.2509ZM9.42584 10.431C9.83779 9.83504 10.1037 8.1591 9.87855 7.6203C9.71206 8.02544 9.57445 8.4445 9.37149 8.82934C9.1675 9.2159 8.89849 9.56805 8.65803 9.93516C8.79976 9.98419 8.95783 10.0097 9.08064 10.0893C9.2105 10.1734 9.30682 10.3093 9.42584 10.4308V10.431ZM20.2158 15.5933C20.3015 15.5222 20.3765 15.4521 20.4594 15.3932C20.5548 15.3256 20.6291 15.3342 20.6873 15.4056C20.7392 15.4696 20.7334 15.532 20.6553 15.6184C20.5557 15.7289 20.4477 15.8317 20.3498 15.9435C20.2979 16.0029 20.2537 16.0714 20.2168 16.1414C20.1781 16.2152 20.1924 16.2876 20.2635 16.3389C20.3307 16.3876 20.4031 16.39 20.4714 16.3423C20.5086 16.3163 20.5406 16.2824 20.572 16.2494C20.7301 16.0839 20.8932 15.9227 21.0423 15.7495C21.1111 15.6693 21.162 15.5694 21.2029 15.4708C21.2628 15.3268 21.2172 15.1981 21.0984 15.1033C21.0139 15.0359 20.9219 14.9759 20.8268 14.9244C20.4969 14.7462 20.1376 14.6494 19.7772 14.557C19.7581 14.552 19.7351 14.5623 19.7141 14.5654C19.7451 14.8267 19.9939 15.3402 20.2158 15.5933ZM15.607 19.5149C15.6119 19.5889 15.6093 19.6644 15.623 19.7367C15.6452 19.8545 15.7041 19.9495 15.8243 19.9942C16.0881 20.0921 16.305 19.918 16.2627 19.6383C16.2414 19.4972 16.2077 19.3579 16.1843 19.217C16.0964 18.69 16.233 18.2323 16.6103 17.8498C16.6382 17.8216 16.6726 17.7929 16.6846 17.7578C16.6977 17.7194 16.7041 17.6632 16.6846 17.6338C16.6643 17.6031 16.6098 17.5816 16.5701 17.5815C16.5285 17.5815 16.4779 17.6018 16.4466 17.6301C16.1817 17.8701 15.9409 18.132 15.8205 18.4762C15.7032 18.8115 15.6217 19.1566 15.607 19.5149ZM17.9893 16.7407L17.9685 16.744C17.9998 16.9006 18.0206 17.06 18.0648 17.2128C18.1258 17.4237 18.2844 17.5448 18.4905 17.5985C18.7989 17.6788 19.0115 17.53 19.0665 17.2106C19.0799 17.1325 19.104 17.0544 19.1356 16.9818C19.1714 16.8997 19.2368 16.8398 19.3307 16.8316C19.4559 16.8207 19.5818 16.8121 19.7074 16.8132C19.8009 16.814 19.8747 16.8557 19.8842 16.9627C19.8911 17.0413 19.9303 17.0822 20.0084 17.0602C20.0847 17.0387 20.0951 16.975 20.078 16.9076C20.0512 16.802 19.9807 16.7259 19.8933 16.6678C19.5822 16.4607 19.1642 16.5586 19.0073 16.7863C18.9717 16.8381 18.928 16.8842 18.8892 16.9338C18.7567 17.1032 18.592 17.0483 18.5189 16.8706C18.4994 16.8233 18.4922 16.7712 18.4762 16.7223C18.4549 16.6571 18.4358 16.5904 18.4058 16.5291C18.351 16.4175 18.2762 16.3857 18.1511 16.4098C18.0517 16.4289 18.0041 16.4837 17.9901 16.6035C17.9848 16.6487 17.9893 16.695 17.9893 16.7407ZM9.4931 18.4335C9.24886 18.4526 8.99687 18.5173 8.78961 18.7005C8.6785 18.7988 8.60815 18.923 8.59508 19.0723C8.58665 19.1698 8.6386 19.2097 8.73337 19.1884C8.75556 19.1834 8.77861 19.1764 8.79735 19.1643C8.88783 19.1065 8.96678 19.1268 9.05123 19.1841C9.23905 19.3118 9.30562 19.31 9.4974 19.1681C9.61814 19.0785 9.73097 19.0707 9.86238 19.1476C9.94443 19.1956 10.0392 19.2312 10.1326 19.2485C10.2318 19.2667 10.3533 19.2817 10.4178 19.1829C10.4831 19.0826 10.4154 18.9823 10.3577 18.8977C10.1568 18.602 9.87081 18.4566 9.49275 18.4337L9.4931 18.4335ZM17.9912 18.6966C17.8594 18.587 17.7294 18.5206 17.5756 18.511C17.384 18.4989 17.2682 18.5651 17.1941 18.7391C17.0668 19.0374 17.0553 19.3517 17.0945 19.667C17.1133 19.8187 17.2834 19.9281 17.4549 19.9247C17.6097 19.9216 17.6896 19.8461 17.718 19.6655C17.7314 19.581 17.7381 19.4946 17.7381 19.4091C17.7381 19.2084 17.7968 19.0262 17.8984 18.8555C17.9275 18.8068 17.9557 18.7576 17.9912 18.6967V18.6966ZM6.62911 14.8644C6.72526 14.8315 6.82588 14.8078 6.91635 14.7634C7.02041 14.7123 7.0801 14.6161 7.08388 14.5C7.09162 14.2583 7.01439 14.0459 6.81865 13.8955C6.67744 13.787 6.51318 13.7606 6.35012 13.8468C6.15387 13.9504 6.04912 14.2083 6.10519 14.4226C6.17124 14.6753 6.38263 14.8484 6.62928 14.8646L6.62911 14.8644ZM16.4106 19.5144C16.4177 19.5738 16.4211 19.6603 16.4395 19.7436C16.4636 19.853 16.5341 19.9017 16.6361 19.8944C16.7479 19.8865 16.8178 19.8248 16.8331 19.7159C16.8386 19.6765 16.837 19.6359 16.8374 19.5958C16.842 19.1671 16.8883 18.7501 17.1339 18.3785C17.2068 18.2682 17.1762 18.1531 17.083 18.09C16.9777 18.0186 16.8377 18.0363 16.7612 18.1394C16.7171 18.1985 16.6838 18.2665 16.652 18.3334C16.4781 18.6985 16.45 19.094 16.4106 19.5144ZM8.01114 19.9111C8.02232 19.9663 8.02989 20.0529 8.05792 20.132C8.12242 20.3137 8.27086 20.3904 8.45043 20.4184C8.60299 20.4424 8.69897 20.3472 8.78015 20.2435C8.9212 20.063 8.94201 19.8559 8.86564 19.6445C8.79701 19.4544 8.60007 19.3489 8.38335 19.3697C8.19776 19.3876 8.07461 19.5051 8.03178 19.711C8.02025 19.7664 8.01974 19.8241 8.01114 19.9109V19.9111ZM10.2373 19.8743C10.2425 19.8759 10.2477 19.8774 10.2528 19.8791C10.2558 19.9306 10.2542 19.9827 10.2626 20.0331C10.2943 20.2235 10.447 20.3651 10.635 20.3825C10.8091 20.3987 11.0067 20.277 11.0504 20.1136C11.0989 19.9323 11.0881 19.7491 11.0167 19.5746C10.9548 19.4234 10.8361 19.34 10.6716 19.3336C10.5027 19.3271 10.386 19.4174 10.3218 19.5636C10.2791 19.6608 10.2645 19.7702 10.2373 19.8743ZM10.0358 20.0374C10.0174 19.9429 10.01 19.8564 9.98278 19.7764C9.91932 19.5892 9.75763 19.4814 9.57858 19.495C9.39884 19.5087 9.2394 19.6558 9.22117 19.8531C9.2093 19.982 9.21772 20.1165 9.24215 20.2438C9.27896 20.4358 9.38904 20.5337 9.54418 20.5464C9.72994 20.5617 9.88956 20.4781 9.96232 20.3101C9.99999 20.223 10.0131 20.1251 10.0358 20.0374ZM6.01438 14.2446C5.97602 14.1085 5.94678 13.9691 5.8969 13.8374C5.83378 13.6707 5.72817 13.6318 5.57268 13.7147C5.38589 13.8143 5.25138 13.9676 5.16263 14.1599C5.12083 14.2502 5.13321 14.3363 5.18378 14.4209C5.28939 14.5974 5.47584 14.6672 5.70564 14.6129C5.91513 14.5633 5.99236 14.4656 6.01438 14.2446ZM7.21615 13.837C7.24883 13.8946 7.26362 13.9313 7.28736 13.9607C7.41068 14.1131 7.44629 14.2788 7.39899 14.4727C7.33276 14.7438 7.44078 14.8565 7.72166 14.8271C7.75554 14.8236 7.78925 14.8166 7.82211 14.8076C8.04227 14.7469 8.11812 14.6189 8.06188 14.3966C7.97313 14.0467 7.70532 13.8742 7.37508 13.8155C7.33104 13.8076 7.28202 13.8274 7.21615 13.8372V13.837Z" fill="white"/>
<path d="M15.535 14.0469C15.4958 14.071 15.4548 14.0927 15.4175 14.1195C14.8877 14.4993 14.5269 15.0204 14.2071 15.5749C14.0783 15.7982 13.9586 16.0266 13.8306 16.2504C13.5687 16.7082 13.1811 17.0175 12.6846 17.1844C12.3598 17.2936 12.0308 17.2979 11.7131 17.149C11.2496 16.9317 11.0167 16.4842 11.0982 15.9767C11.2088 15.2893 11.7171 14.8919 12.4563 14.915C12.6356 14.9206 12.8103 14.9468 12.9685 15.0392C13.1861 15.1661 13.2936 15.4297 13.2219 15.659C13.1779 15.7999 13.0841 15.8961 12.9477 15.947C12.8115 15.9977 12.687 15.9343 12.6896 15.7908C12.6956 15.4508 12.4433 15.3953 12.2009 15.4106C11.8851 15.4307 11.6505 15.7393 11.7181 16.0561C11.7807 16.349 11.9537 16.5474 12.2518 16.6227C12.4697 16.6778 12.6846 16.6657 12.8925 16.5809C13.2266 16.4448 13.4944 16.2322 13.6672 15.9081C13.7587 15.7362 13.8617 15.5706 13.9569 15.4006C14.2058 14.9556 14.5399 14.5802 14.9084 14.233C15.031 14.1174 15.1738 14.0326 15.3387 13.9924C15.3896 13.98 15.4436 13.9808 15.4963 13.9757C15.5092 13.9994 15.5221 14.0233 15.5348 14.0471L15.535 14.0469Z" fill="white"/>
<path d="M17.0823 12.0474C17.0195 12.147 16.9583 12.1328 16.8945 12.1249C16.8038 12.1138 16.712 12.1024 16.6213 12.1069C16.5487 12.1105 16.4731 12.1277 16.4062 12.1561C16.2211 12.2345 16.1858 12.3751 16.2995 12.5419C16.338 12.5985 16.38 12.6543 16.4081 12.716C16.4684 12.8492 16.4313 13.0075 16.332 13.0725C16.2304 13.1392 16.0794 13.1072 15.9786 12.9916C15.8568 12.8518 15.8105 12.6799 15.7964 12.5012C15.7689 12.1501 15.896 11.9827 16.2398 11.8999C16.4677 11.845 16.6937 11.8423 16.9122 11.9383C16.971 11.9641 17.0221 12.0081 17.0823 12.0474Z" fill="white"/>
<path d="M19.0677 14.0875C19.0297 14.104 18.9929 14.125 18.9535 14.1365C18.7787 14.1873 18.6026 14.2332 18.4282 14.2848C18.288 14.3263 18.2557 14.3225 18.1638 14.2057C18.0794 14.0983 18.0004 13.9863 17.9241 13.873C17.896 13.8313 17.8756 13.7816 17.8635 13.7326C17.8381 13.6287 17.8926 13.5607 17.9992 13.5735C18.0649 13.5814 18.1325 13.6074 18.19 13.6412C18.3174 13.7163 18.4432 13.7957 18.5617 13.8842C18.6663 13.9621 18.7712 14.0159 18.9067 14.0035C18.958 13.9989 19.0116 14.0216 19.0643 14.0319C19.0655 14.0505 19.0667 14.0689 19.0679 14.0875H19.0677Z" fill="white"/>
</svg>
