<svg fill="none" height="30" viewBox="0 0 30 30" width="30" xmlns="http://www.w3.org/2000/svg"><g fill="#fff"><path d="m25.632 4.39434c-2.7139-2.71386-6.4652-4.39434-10.6067-4.39434-8.30943.00202224-15.0253 6.7179-15.0253 15.001s6.71587 14.999 14.999 14.999c4.1415 0 7.8908-1.6785 10.6067-4.3943 2.7138-2.7139 4.3943-6.4652 4.3943-10.6067 0-4.1416-1.6522-7.88879-4.368-10.60466zm-10.633 23.89886c-1.8463 0-3.5814-.364-5.17696-1.0354-1.59555-.6714-3.02123-1.6501-4.22649-2.8534-1.20323-1.2032-2.182-2.6309-2.85339-4.2264-.67138-1.5956-1.03539-3.3307-1.03539-5.177s.36401-3.5814 1.03539-5.17694c.67139-1.59555 1.65016-3.02123 2.85339-4.22649 1.20324-1.20323 2.63094-2.182 4.22649-2.85339 1.59556-.67138 3.33066-1.03538 5.17696-1.03538s3.5814.364 5.1769 1.03538c1.5956.67139 3.0213 1.65016 4.2265 2.85339 1.2033 1.20324 2.182 2.63094 2.8534 4.22649.6714 1.59554 1.0354 3.33064 1.0354 5.17694 0 1.818-.364 3.5814-1.0354 5.177-.6714 1.5955-1.6501 3.0212-2.8534 4.2264-2.4064 2.4065-5.7088 3.8888-9.4034 3.8888z"/><path d="m20.204 9.26391s.0566-.05663.1112-.19616c.0567-.11122.1113-.27907.1113-.44692 0-.11122-.0284-.25278-.085-.364-.1112-.22447-.279-.364-.4469-.42063-.1395-.05662-.2791-.08493-.2791-.08493h-4.364c-.0566 0-.1395.02831-.279.05662-.1396.02831-.3074.08493-.4753.19616-.279.16784-.4469.42062-.4469.42062l-5.93324 8.14363s-.05662.0849-.11123.1961c-.05662.1112-.11122.2791-.11122.4752 0 .3924.22447.6431.22447.6714l2.01412 2.7705s.3357.4206.9242.4206.9242-.4752.9242-.4752zm.0283-.64308c0 .13954-.0566.27907-.0849.36401.0283-.11123.0849-.22447.0849-.36401z"/><path d="m8.11551 15.1971 4.30939-6.0162s.1112-.19616.1112-.50354c0-.13954-.0283-.30738-.1112-.44692-.2245-.47523-.7563-.50354-.8392-.50354 0 0 0 0-.0283 0h-4.25281l-.02831.02831c-.11122 0-.39232.02831-.67139.19616s-.44691.42063-.44691.42063l-2.04247 2.7988c-.02831.0283-.19616.2528-.19616.5885 0 .364.27907.6997.27907.728l1.98585 2.7421s.364.4207.97876.4207c.56017-.0061.95248-.453.95248-.453z"/><path d="m23.6462 8.0889s-.0566-.08493-.1678-.16784c-.1112-.08494-.2528-.16785-.4752-.16785-.5036 0-.728.364-.7564.364l-10.1294 13.96359s-.0566.0849-.1112.1962c-.0566.1112-.1112.279-.1112.5035 0 .3923.2244.6431.2528.6997l1.9029 2.6026c.0283.0283.3074.4753.9788.4753.5601 0 .8958-.447.8958-.447l9.9333-13.6562s.0283-.0849.0849-.1961c.0566-.1396.0849-.3074.0849-.5036 0-.364-.0849-.5318-.1112-.5318z"/></g></svg>