<svg fill="none" height="30" viewBox="0 0 30 30" width="30" xmlns="http://www.w3.org/2000/svg"><path d="m14.9927 24.7005c-3.0301-.0251-5.97164-.5164-8.75711-1.7599-1.72021-.7737-3.27477-1.7735-4.5134-3.2279-.903449-1.0618-1.521799-2.2648-1.6836111-3.6747-.1529489-1.3552.1516241-2.7228.8649201-3.8835.882261-1.4931 2.147851-2.58969 3.608011-3.48128 1.88028-1.11305 3.94488-1.87695 6.09489-2.25509 1.1111-.20997 2.2357-.33924 3.3653-.3868 3.0205-.16099 6.0418.29972 8.8785 1.35382 1.6682.61075 3.2081 1.52905 4.5403 2.70765 1.0865.9805 1.9264 2.1274 2.3463 3.5431.5664 1.8934.1926 3.6495-.8707 5.2741-.8919 1.3538-2.1055 2.346-3.4674 3.1641-1.9502 1.1321-4.0903 1.8964-6.3145 2.2551-1.1123.2023-2.239.3142-3.3692.3346-.2446.0154-.4835.0425-.7223.0367zm14.3588-11.1342v-.0387l-2.4079-.7214c-.3711-.0814-.7043-.2857-.9458-.5802-1.1211-1.5472-2.6237-2.56836-4.3554-3.28782-2.7104-1.114-5.5363-1.43507-8.4374-1.20105-1.7372.13279-3.43927.56117-5.03346 1.2668-1.52566.67691-2.88949 1.58787-3.94319 2.90107-.78426.9029-1.23543 2.0491-1.27787 3.2463-.04244 1.1973.32644 2.3728 1.04479 3.3294.8418 1.2126 1.97255 2.0887 3.26126 2.7734 2.19987 1.1701 4.57697 1.6439 7.03877 1.7406 1.3234.0629 2.6494-.0457 3.9452-.323 1.3869-.3056 2.7084-.7736 3.8353-1.6807.5267-.398.935-.9331 1.1808-1.5472.182-.4234.2089-.8977.076-1.3391s-.4171-.8213-.8022-1.0726c-.477-.3164-1.0131-.5323-1.5757-.6344-1.0712-.217-2.163-.315-3.2555-.292l-7.5955.0116c-.32188.0192-.64186-.0607-.91724-.229-.27539-.1683-.49305-.417-.62387-.7129-.21383-.4371-.44112-.8664-.66265-1.2997-.16952-.3326-.16952-.3326.21189-.3326h21.23967z" fill="#fff"/></svg>