<svg fill="none" height="30" viewBox="0 0 30 30" width="30" xmlns="http://www.w3.org/2000/svg" xmlns:xlink="http://www.w3.org/1999/xlink"><clipPath id="a"><path d="m0 0h30v30h-30z"/></clipPath><g clip-path="url(#a)" fill="#fff"><path d="m20.7407 10.625c.0382.0801.1178.0604.1848.0638.2035.01.4071.0207.6122.024.1397.0026.1982.0475.1952.1969-.0222 1.0329-.1232 2.063-.1282 3.0967 0 .2999-.0383.3039-.3501.3199-.724.037-1.4488.0708-2.1705.1278-.5085.0404-1.0159.0349-1.5233.0616-1.19.0619-2.3809.1356-3.5717.0611-.9038-.0567-1.8111-.0233-2.7115-.0941-.603-.0471-1.2088-.0341-1.80837-.1016-.2847-.0319-.56862-.0519-.8537-.0626-.08801-.0034-.15306-.0304-.16186-.1201-.01416-.1483-.06505-.2854-.06773-.4355-.00957-.5975-.01072-1.1957-.05357-1.791-.02526-.3491-.05625-.6972-.05893-1.0474 0-.2224.00803-.2339.24719-.2365.18482-.0022.37003 0 .55447 0 .06849 0 .14426.0137.18711-.0615z"/><path d="m29.9999 13.6567c-.0513.07-.1279.07-.2051.0686-.6697-.0123-1.3298.1112-1.9971.1423-.3827.0185-.7764.02-1.1572.0845-.4672.0793-.9424.0315-1.4047.0975-.4817.0689-.9685.0348-1.4433.1071-.5074.0771-1.0175.0293-1.5226.0889-.1768.0208-.2514-.037-.2369-.2223.0203-.2513-.0046-.5063.0192-.7569.0765-.7913.0765-1.5849.0964-2.3781.003-.1289.057-.1749.1825-.1734 1.0967.0133 2.1941 0 3.2908.0482.5082.0226 1.0171.0511 1.5249.047.574-.0048 1.1403.0968 1.712.1312.3635.0223.719.1565.9608.4682.0712.0919.0873.2127.1822.2883z"/><path d="m0 11.6959c.169133-.2647.35472-.5171.668113-.636.157653-.0597.323725-.1175.490177-.1327.92602-.0853 1.8574-.0879 2.78457-.1413 1.20995-.0693 2.41951-.037 3.6287-.0659.26785-.006.26785 0 .27398.2509.01301.4989 0 1.0007.04898 1.4959.05165.5341.06275 1.0679.06887 1.6023.00306.2372-.01224.2461-.24336.1957-.08031-.0199-.16277-.0306-.24567-.0318-.65701.0111-1.30676-.0849-1.96033-.1212-.61531-.0345-1.23252-.0586-1.84477-.1142-.39834-.0371-.79821-.0519-1.19579-.0916-.74503-.0741-1.490052-.153-2.239287-.1794-.099489-.0037-.1618616-.0607-.234183-.1082z"/><path d="m15.1354 19.2729c-.7083-.0337-1.35-.083-1.9898-.126-.5154-.0345-1.0278-.1286-1.5425-.1894-.4377-.0519-.8766-.1168-1.3121-.1879-.4236-.0693-.84605-.1423-1.27156-.2002-.1588-.0218-.25561-.0871-.25752-.2709-.00574-.51-.09069-1.0148-.13546-1.5223-.02564-.2931-.05357-.5863-.0597-.8795-.00688-.3273-.11938-.6412-.10446-.9715.00727-.1575.06888-.2309.21811-.1853.23763.0741.47909.0556.71939.0575.9804.0081 1.9565.1004 2.9353.143 1.7461.0742 3.491.0519 5.2351.0189.5633-.0107 1.135-.0096 1.6948-.0863.5965-.0816 1.1939-.0575 1.7908-.0812.1113-.0044.2074-.0552.3164-.0619.1091-.0067.1757.0248.1688.1397-.0134.2269.0054.4567-.0685.6783-.0149.0406-.0236.083-.026.126-.0126.4604-.0589.9185-.0938 1.3774-.0329.4347-.1148.8651-.1194 1.302 0 .1854-.1779.1983-.2839.2065-.3061.0241-.6023.0945-.8969.1483-.5277.0971-1.0715.1041-1.5877.2546-.0434.0102-.0882.0136-.1327.01-.4099-.0148-.8067.0897-1.2081.1371-.6845.0819-1.371.0868-1.9886.1631z"/><path d="m21.7137 17.7731c.0046-.5423.1251-1.0749.1572-1.6146.0173-.2909.0536-.5852.0666-.8788.0077-.169.0834-.3221.0957-.4881.0053-.076.0589-.0886.1194-.0871.3386.0081.67-.0782 1.0052-.0793.7841-.003 1.5601-.1153 2.343-.1461.4209-.0163.8529-.0252 1.2704-.0963.4247-.0742.8587-.0067 1.2715-.0897.5155-.1034 1.0435-.0312 1.5529-.1542.0567-.0092.1143-.0121.1718-.0085.1737 0 .2253.0574.176.2127-.0765.245-.0888.5022-.1661.7487-.1531.4904-.4002.917-.7982 1.2602-.3777.3277-.817.556-1.2769.7472-.2296.0949-.4722.1524-.7106.2224-.3119.0916-.6226.1853-.9379.2636-.1703.0418-.3444.0893-.5139.1141-.3926.0578-.7772.1561-1.1636.2331-.38.0742-.7718.1164-1.1423.245-.1653.0575-.3478.0434-.523.0775-.2893.0567-.5771.1434-.8801.1438-.1018 0-.1305-.0259-.1225-.1282.0149-.1642.0054-.331.0054-.4974z"/><path d="m8.28144 17.7339c0 .1787-.00344.3573 0 .536.00268.0941-.0287.1305-.13163.1268-.31187-.0115-.60957-.0953-.91072-.1598-.22156-.0474-.44885-.0815-.66964-.113-.42092-.0597-.82883-.1631-1.24286-.2391-.36007-.0664-.72436-.1483-1.08291-.238-.31454-.08-.63061-.1664-.95127-.2305-.23725-.0471-.46722-.1345-.69452-.2191-.2889-.1074-.5801-.212-.85217-.3576-.49515-.2654-.945148-.5823-1.222571-1.0749-.229592-.4077-.382655-.8399-.418242-1.3062 0-.0059 0-.0122 0-.0181-.004209-.0949-.1255103-.1935-.0382654-.2743.0872444-.0808.2215564-.0304.3325254-.0193.865943.0864 1.733033.1483 2.602043.2035.40408.0256.81543.0297 1.21377.0975.43125.0741.86748.0182 1.29184.0838.51352.0793 1.0301.0552 1.54133.1082.26556.0274.52997.0552.7963.0619.08495.0022.12283.0396.15765.1045.03584.0657.05375.1392.05204.2135-.01224.5426.10562 1.0749.1148 1.6175.00689.3647.14464.7224.1125 1.0967z"/></g></svg>