<svg width="30" height="30" viewBox="0 0 30 30" fill="none" xmlns="http://www.w3.org/2000/svg">
<path d="M14.3161 12.0702C13.9612 12.144 13.1353 12.3846 12.0642 12.7247L11.5965 12.8722L10.7254 12.869C9.81242 12.8626 8.49294 12.8113 3.8054 12.5996C-0.282075 12.4135 -0.0175343 12.4199 0.0147268 12.4744C0.182484 12.7568 0.514774 12.9845 0.856741 13.0455C1.20516 13.1129 2.4214 13.2283 6.37016 13.578C7.47026 13.6775 8.63166 13.7833 8.95105 13.8186C10.6222 14.0015 10.9674 14.1619 11.4416 14.9703C11.9191 15.7884 12.1449 16.1188 12.5353 16.5584C13.0159 17.1005 13.8902 17.7582 14.6548 18.1496L15 18.326L15.3452 18.1496C16.1001 17.7646 16.9841 17.1005 17.4647 16.5584C17.8551 16.1188 18.0809 15.7884 18.5584 14.9703C19.0326 14.1619 19.3778 14.0015 21.049 13.8186C21.3683 13.7833 22.5297 13.6775 23.6298 13.578C27.5786 13.2283 28.7948 13.1129 29.1433 13.0455C29.4852 12.9845 29.8175 12.7568 29.9853 12.4744C30.0175 12.4199 30.2821 12.4135 26.1946 12.5996C22.4039 12.7696 20.4102 12.853 19.4198 12.8755C18.4519 12.8979 18.5971 12.9236 17.1841 12.4905C15.9259 12.1023 15.5452 12.0157 15.0645 12.0029C14.7613 11.9932 14.6225 12.0061 14.3161 12.0702ZM15.8452 12.6669C16.526 12.837 17.3712 13.1161 17.7325 13.2893C18.0938 13.4657 18.1809 13.5652 18.1713 13.8026C18.1616 14.1876 17.6648 15.3136 17.2647 15.8686C17.0195 16.2119 16.5259 16.7188 16.1453 17.0235C15.8388 17.2706 15.1452 17.7261 15.0387 17.755C14.9064 17.7871 14.1677 17.2994 13.6063 16.8118C13.0353 16.3145 12.603 15.7531 12.2707 15.0794C12.0901 14.7105 11.8545 14.0625 11.8223 13.8347C11.7803 13.5588 11.9804 13.3855 12.6127 13.1417C13.1514 12.9332 14.2548 12.622 14.8064 12.5226C14.9774 12.4937 15.3581 12.545 15.8452 12.6669Z" fill="white"/>
<path d="M12.674 13.9887C12.5223 14.0881 12.4611 14.2806 12.5223 14.4667C12.5965 14.7073 12.8708 14.8131 13.1579 14.7137C13.2547 14.6784 13.2579 14.672 13.2579 14.4891V14.2999H13.1127C12.9708 14.2999 12.9192 14.348 13.0159 14.3833C13.045 14.3961 13.0643 14.4442 13.0643 14.5116C13.0643 14.611 13.0579 14.6207 12.9676 14.6207C12.7385 14.6207 12.6256 14.3191 12.7772 14.1234C12.8385 14.0496 12.8675 14.04 12.9805 14.0496C13.0547 14.0592 13.1385 14.0753 13.1708 14.0881C13.216 14.1106 13.2256 14.0977 13.2256 14.0336C13.2256 13.9438 13.1611 13.9149 12.9321 13.9149C12.8321 13.9149 12.7482 13.9373 12.674 13.9887Z" fill="white"/>
<path d="M13.3773 13.9373C13.3644 13.947 13.3676 13.9726 13.3869 13.9951C13.4031 14.0143 13.4224 14.1876 13.4257 14.3833L13.4353 14.7329L13.7192 14.7426C13.9838 14.7522 13.9999 14.749 13.9999 14.6848C13.9999 14.6271 13.9805 14.6207 13.8031 14.6207H13.6095L13.6192 14.4988C13.6289 14.3801 13.6289 14.3801 13.7838 14.3704C13.8902 14.364 13.9354 14.348 13.9354 14.3127C13.9354 14.2806 13.8934 14.2678 13.7741 14.2678H13.6128V14.0432H13.8096C13.9773 14.0432 14.0031 14.0368 13.987 13.9919C13.9773 13.963 13.9676 13.9341 13.9676 13.9277C13.9676 13.9053 13.3998 13.9149 13.3773 13.9373Z" fill="white"/>
<path d="M14.1096 13.9534C14.0967 13.9726 14.1031 13.9983 14.1225 14.0047C14.1483 14.0111 14.1612 14.1298 14.1612 14.3865C14.1612 14.749 14.1612 14.7522 14.2354 14.7426C14.2999 14.7329 14.3064 14.7105 14.3225 14.5116L14.3386 14.287L14.5258 14.5212C14.6709 14.6977 14.7322 14.749 14.7838 14.7426C14.8516 14.7329 14.8548 14.7169 14.8548 14.3319C14.8548 13.9438 14.8516 13.9309 14.7838 13.9213C14.7161 13.9117 14.7129 13.9245 14.7032 14.1683L14.6935 14.4282L14.4903 14.1715C14.3386 13.9758 14.2709 13.9149 14.2128 13.9149C14.1677 13.9149 14.1225 13.9309 14.1096 13.9534Z" fill="white"/>
<path d="M15 13.9598C15 13.9855 15.0161 14.0175 15.0323 14.0272C15.0516 14.04 15.0645 14.1972 15.0645 14.3993V14.749H15.3387C15.5904 14.749 15.613 14.7426 15.613 14.6848C15.613 14.6271 15.5904 14.6207 15.4355 14.6207H15.2581V14.364H15.4194C15.542 14.364 15.5807 14.3512 15.5807 14.3159C15.5807 14.2806 15.542 14.2678 15.4194 14.2678H15.2581V14.0432H15.4387C15.5904 14.0432 15.6162 14.0336 15.6065 13.9855C15.5968 13.9405 15.5517 13.9309 15.2968 13.9213C15.0516 13.9149 15 13.9213 15 13.9598Z" fill="white"/>
<path d="M15.8452 13.947C15.8065 13.963 15.7581 14.0143 15.742 14.0625C15.6936 14.1876 15.7646 14.2999 15.9517 14.4025C16.1388 14.502 16.1679 14.5982 16.0227 14.6142C15.9711 14.6207 15.8872 14.611 15.8356 14.5918C15.742 14.5597 15.7388 14.5629 15.7485 14.6463C15.7581 14.7297 15.7678 14.7329 15.9549 14.7426C16.113 14.749 16.1646 14.7394 16.2356 14.6848C16.4001 14.5565 16.3421 14.3736 16.0969 14.2517C15.9807 14.194 15.9356 14.1523 15.9356 14.101C15.9356 14.04 15.9485 14.0368 16.113 14.0528C16.2711 14.0689 16.2904 14.0625 16.2904 14.0111C16.2904 13.979 16.2679 13.9438 16.2388 13.9341C16.1646 13.9053 15.9323 13.9149 15.8452 13.947Z" fill="white"/>
<path d="M16.4324 13.9534C16.4195 13.9726 16.4259 13.9983 16.4453 14.0047C16.4711 14.0111 16.484 14.1298 16.484 14.3833V14.749H16.6776V13.9149H16.5679C16.5066 13.9149 16.4453 13.9309 16.4324 13.9534Z" fill="white"/>
<path d="M16.9647 13.963C16.7776 14.0657 16.8324 14.2646 17.0808 14.3929C17.1905 14.4506 17.2421 14.4988 17.2421 14.5405C17.2421 14.6175 17.1099 14.6431 16.9647 14.5918C16.8711 14.5597 16.8679 14.5629 16.8776 14.6463C16.8873 14.7297 16.8969 14.7329 17.0841 14.7426C17.3292 14.7554 17.4518 14.6752 17.4518 14.5116C17.4518 14.3961 17.4099 14.348 17.2034 14.2357C17.1131 14.1876 17.0647 14.1362 17.0647 14.0977C17.0647 14.04 17.0808 14.0368 17.2421 14.0528C17.4002 14.0689 17.4196 14.0625 17.4196 14.0111C17.4196 13.979 17.397 13.9438 17.368 13.9341C17.2776 13.8988 17.0518 13.9149 16.9647 13.963Z" fill="white"/>
<path d="M0.94062 13.4593C0.947072 13.4754 1.05999 13.5844 1.19226 13.7064C2.14718 14.5725 2.84402 14.8356 4.61193 14.9864C5.41846 15.057 6.51856 15.1243 7.85417 15.1821C8.49294 15.211 9.093 15.2494 9.18978 15.2687C9.30914 15.2912 9.39625 15.3329 9.48013 15.4066C9.54465 15.4644 9.58659 15.5221 9.57691 15.5318C9.55755 15.551 7.23153 15.5125 5.9185 15.4708C5.50556 15.458 5.31522 15.4612 5.33781 15.4836C5.41201 15.5574 7.02506 16.0066 7.91547 16.2023L8.37035 16.3017L9.62853 16.3049C10.9932 16.3081 10.9835 16.3081 11.1577 16.491L11.2319 16.5712L11.0932 16.5904C10.9351 16.6097 10.0479 16.6738 9.93178 16.6738C9.88662 16.6738 9.87049 16.6867 9.88984 16.7027C9.92533 16.7412 11.0706 17.0524 11.5803 17.1679C12.0546 17.2706 12.8708 17.4213 12.8869 17.4053C12.8934 17.3989 12.8191 17.3283 12.7191 17.2513C12.303 16.9209 11.832 16.353 11.2222 15.4548C10.9061 14.9864 10.5835 14.6367 10.3609 14.5148C10.0608 14.3544 9.38012 14.2357 7.93482 14.0913C4.18608 13.7256 1.12128 13.4337 0.982559 13.4337C0.953524 13.4337 0.934168 13.4465 0.94062 13.4593Z" fill="white"/>
<path d="M27.6786 13.5492C27.0495 13.6069 25.7849 13.7288 24.8719 13.8186C23.9589 13.9085 22.7685 14.024 22.2265 14.0785C20.6231 14.2325 19.9488 14.348 19.6391 14.5148C19.4165 14.6367 19.0939 14.9864 18.7778 15.4548C18.168 16.353 17.697 16.9209 17.2809 17.2513C17.1808 17.3283 17.1066 17.3989 17.1131 17.4053C17.1292 17.4213 17.9454 17.2706 18.4197 17.1679C18.9294 17.0524 20.0747 16.7412 20.1102 16.7027C20.1295 16.6867 20.1134 16.6738 20.0682 16.6738C19.9521 16.6738 19.0649 16.6097 18.9068 16.5904L18.7681 16.5712L18.8423 16.491C19.0165 16.3081 19.0068 16.3081 20.3715 16.3049L21.6297 16.3017L22.0845 16.2023C22.9717 16.0066 24.588 15.5574 24.6622 15.4836C24.6848 15.4612 24.4977 15.458 24.0976 15.4708C22.833 15.5093 20.4424 15.551 20.4231 15.5318C20.4134 15.5221 20.4553 15.4644 20.5199 15.4066C20.6037 15.3329 20.6909 15.2912 20.8102 15.2687C20.907 15.2494 21.5071 15.211 22.1458 15.1821C23.4814 15.1243 24.5783 15.057 25.3881 14.9864C27.1527 14.8356 27.8528 14.5725 28.8077 13.7064C28.94 13.5844 29.0562 13.4754 29.0594 13.4593C29.0755 13.4208 28.9368 13.4305 27.6786 13.5492Z" fill="white"/>
</svg>
