<svg fill="none" height="30" viewBox="0 0 30 30" width="30" xmlns="http://www.w3.org/2000/svg"><path clip-rule="evenodd" d="m15 25.2636c7.3004 0 13.2221-3.5752 13.2221-9.4065 0-5.8338-5.9217-9.40774-13.2221-9.40774-7.30037 0-13.22207 3.57394-13.22207 9.40654 0 5.8325 5.92041 9.4064 13.22207 9.4064m12.7014-9.4064c0-5.6039-5.6879-9.037-12.7014-9.037-7.01482 0-12.70135 3.4331-12.70135 9.037 0 3.9925 3.44991 6.945 7.31587 7.9438.07753.0207.15764.0349.23775.0439v.0142c2.19653.3024 4.93583.1628 4.93583-1.5634v-11.4829l-4.93583 2.5919v4.1529c0 2.6061-1.74304 3.4537-3.12688 3.1979-1.98596-.3682-3.37626-2.4808-3.37626-4.9216 0-5.264 5.2175-8.49169 11.65087-8.49169 6.4321 0 11.6496 3.22769 11.6496 8.49169 0 2.4395-1.3903 4.5534-3.3763 4.9216-1.3825.2558-3.1269-.5918-3.1269-3.1979v-4.1529l-4.9358-2.5932v11.4829c0 1.7262 2.7393 1.8658 4.9358 1.5634v-.0129c.0814-.009.1603-.0232.2378-.0439 3.8672-.9988 7.3172-3.9513 7.3172-7.9438m-12.7014 10.2321c8.2824 0 15-3.8892 15-10.2321 0-6.34297-6.7176-10.2309-15.0013-10.2309-8.28107 0-14.9987 3.88793-14.9987 10.2309 0 6.3442 6.71763 10.2321 15 10.2321z" fill="#fff" fill-rule="evenodd"/></svg>