<svg fill="none" height="30" viewBox="0 0 30 30" width="30" xmlns="http://www.w3.org/2000/svg"><path d="m14.0353 7.39385c-1.7924.33318-3.0071.94032-4.17739 2.10276-.66661.66639-1.31841 1.64369-1.62949 2.43589-.11851.311-.2148.6072-.2148.659 0 .0741-.78512.0963-3.88117.0963-2.13316 0-3.933007.0222-3.999669.0444-.362933.1407.029628.4664 1.036949.8663l.82216.3332 1.47395.0888c1.93318.1111 4.28854.3998 4.21447.5109-.01481.0296 0 .385.03704.7848.11851 1.2365.57032 2.473 1.25915 3.4725 1.7332 2.51 4.6663 3.6725 7.6586 3.0431 2.1332-.4516 4.1182-2.0509 5.0515-4.0722.3777-.8145.6221-1.7548.674-2.5767.0222-.3924.0667-.7182.0889-.7182s.5777-.0666 1.2295-.148c.6518-.0815 1.8961-.1999 2.7776-.2592l1.5924-.111.8518-.348c.9481-.385 1.1258-.5035 1.0962-.7182-.0222-.1555-.0518-.1555-3.9478-.1777l-3.9256-.0148-.2519-.6664c-.5999-1.6067-1.9331-3.0727-3.5478-3.89455-.7629-.39241-1.1184-.50348-2.1924-.69598-.9185-.1703-1.3333-.1703-2.0962-.03702zm1.8295 1.29571c2.0591.32578 3.7108 1.54004 4.6071 3.36884l.2888.5923-5.681.0223c-3.1257.0074-5.69582 0-5.71064-.0149-.01481-.0148.06666-.2443.19258-.5108 1.08136-2.38415 3.76266-3.85756 6.30316-3.45774zm-5.7402 6.33054c1.985.5553 3.5552 1.3401 4.644 2.3174l.2741.2444.5703-.4739c1.0962-.9181 2.6368-1.6437 4.6737-2.1842l.8073-.2221-.0592.5701c-.2815 2.6358-2.0517 4.6053-4.6885 5.2273-.674.1629-2.0369.1406-2.748-.037-2.5553-.6442-4.28849-2.6655-4.58476-5.3458-.03704-.3406-.02963-.422.05184-.3924.05185.0148.53329.1481 1.05922.2962z" fill="#fff"/></svg>