<svg width="30" height="30" viewBox="0 0 30 30" fill="none" xmlns="http://www.w3.org/2000/svg">
<path d="M14.064 21.9784C14.8115 19.8264 15.4733 17.9132 16.1567 16.0001C14.3845 15.4135 11.7581 16.3478 10.6265 18.0435C9.96429 19.0439 9.49489 20.1958 8.91793 21.2611C8.76867 21.5436 8.46975 21.9131 8.23489 21.9131C6.48392 22 4.75452 21.9787 3.00354 21.9787C2.68341 21.9787 2.38451 21.9347 2 21.9131C2.06402 21.5656 2.08524 21.2828 2.14963 21.0003C3.58012 16.2826 5.566 11.8476 8.29892 7.76122C8.6622 7.21754 9.02514 7 9.66573 7C11.502 7.04365 13.3382 7.022 15.3453 7.022C14.4486 8.97845 13.6371 10.7394 12.7404 12.7178C14.4698 12.6305 16.0287 12.5872 17.5872 12.435C17.8433 12.413 18.0785 11.9782 18.2494 11.6958C19.1033 10.3479 19.872 8.9568 20.6834 7.63062C20.8543 7.36978 21.1956 7.0653 21.4737 7.0653C23.5232 7.02165 25.5731 7.0433 27.8366 7.0433C27.0464 8.76091 26.3633 10.3263 25.6371 11.8696C24.1854 14.9567 22.7117 18.0218 21.3025 21.1306C21.0039 21.7828 20.641 22 19.9364 22C18.0789 21.9351 16.1995 21.9784 14.064 21.9784Z" fill="white"/>
</svg>
