<svg fill="none" height="30" viewBox="0 0 30 30" width="30" xmlns="http://www.w3.org/2000/svg"><path clip-rule="evenodd" d="m15.006 3.75c-3.013.0018-6.02395.15919-9.02076.47153-2.43748.2561-4.50437 1.14944-5.32239 3.40765-.497137 1.39048-.6492917 2.83222-.66285 4.26332v.5092c0 .5996.0256101 1.1992.0512202 1.7867.1144928 2.3727.2802048 4.6957.6884608 6.9042.230491 1.1856.512199 2.3983 1.059049 3.4573.85568 1.6587 2.59115 2.4631 4.67009 2.7177 2.80807.3571 5.67938.4851 8.53718.4851v-1.0199c-4.0569 0-7.50223-.2561-9.17442-.6899-1.45526-.3571-2.66647-1.3785-3.16361-3.471-1.02139-4.3251-1.27749-8.7677-.81802-13.28409.20489-2.02772 1.46731-3.60952 4.417-4.09611 2.60168-.42181 5.89485-.54836 8.73905-.54836zm0 16.4748c-.3071-.0047-.6141.0119-.9189.0498-1.2248.1536-1.9509.7788-2.2582 1.7866-.4068 1.3408-.8798 2.6545-1.3137 3.9696l-2.94816-.4339-1.25038-19.65196 2.02923-.26815c.71407 2.94817 1.40403 5.88281 2.13011 8.81741.4972 2.0292 1.264 3.1907 2.2342 3.4965 1.059.3194 1.6721.4851 2.2958.4851zm14.994-8.3338c-.0121-1.4281-.1657-2.87134-.6764-4.26182-.8165-2.25972-2.8834-3.15155-5.3209-3.40765-2.9887-.31278-5.9916-.47017-8.9967-.47153v.89334c2.8473 0 6.1254.12805 8.7165.54836 2.9467.48509 4.2106 2.06689 4.414 4.09762.461 4.51638.2049 8.95748-.815 13.28258-.4972 2.094-1.7099 3.1139-3.1531 3.471-1.6842.4338-5.1039.6899-9.1624.6899v1.0199c2.8473 0 5.7307-.128 8.5252-.4851 2.0669-.2561 3.8159-1.059 4.658-2.7177.5484-1.059.8421-2.2717 1.0591-3.4573.4067-2.2085.5724-4.5315.6884-6.9042.0256-.5875.0512-1.1871.0633-1.7867zm-10.5002 14.1398c-.4474-1.3151-.9069-2.6288-1.3151-3.9696-.3194-1.0078-1.0335-1.633-2.2718-1.7866-.3007-.0383-.6038-.0549-.9069-.0498v-1.749c.6132 0 1.2384-.1657 2.2974-.4851.9566-.3058 1.7234-1.4673 2.2341-3.495.7261-2.9361 1.4161-5.87074 2.1046-8.81891l2.0412.26815-1.2503 19.65196-2.9347.4339z" fill="#fff" fill-rule="evenodd"/></svg>