<svg fill="none" height="30" viewBox="0 0 30 30" width="30" xmlns="http://www.w3.org/2000/svg"><g fill="#fff"><path d="m22.4077 1.05682c0-.221934-.0861-.426138-.2408-.579547-.2409-.238978-.5345-.238978-.5855-.238978-2.2397-.1530677-4.6176-.238295-7.1498-.238295-2.4981 0-4.85915.0852273-7.08129.238295-.22397 0-.43071.085228-.58542.239148-.24172.238296-.24172.527897-.24172.579207-.03429 1.61949-.05151 3.25602-.06857 4.90926-.01757 2.59091.01671 5.13099.06857 7.63639 0 1.6534.17228 3.0849.24172 4.2276.13713 2.3177.70585 4.1761.70585 4.1927.62057 1.6193.96514 2.5229 1.75731 3.9717.65469 1.1758 1.32715 2.1818 1.96445 3.0341.1028.1367.3101.375.6546.5629.2929.153.5681.2043.7403.2382.5002.0853 1.0689.1364 1.7062.1531.7753.0174 1.4468-.0504 2.033-.1531.1548-.0173.3957-.0678.6717-.2045.2929-.1537.4652-.3409.5685-.4599.6375-.9036 1.3091-1.9437 1.9472-3.1029.792-1.4489 1.1709-2.0281 1.8952-4.0396.4474-1.7046.5335-2.608.7058-4.1075.1759-1.3687.2737-2.7461.2929-4.1257.0861-2.3176.1378-4.72139.1211-7.20951 0-1.875-.0518-3.71591-.1213-5.52307zm-.6715 12.74998c-.0345 1.1758-.1038 2.4716-.276 3.8693-.1723 1.3974-.3956 2.6932-.654 3.8523-.4308 1.1594-.9995 2.4378-1.7405 3.7841-.5854 1.0906-1.206 2.0628-1.7914 2.9151-.0861.1192-.2584.2896-.5344.4427-.1916.1072-.4023.1766-.6206.2045-.5169.0853-1.1541.1538-1.86.1364-.5863 0-1.1198-.0678-1.5681-.1364-.2372-.0257-.4661-.1011-.6716-.221-.3103-.1705-.5002-.3923-.5863-.5288-.5854-.8011-1.206-1.7386-1.80899-2.8466-.72343-1.3636-1.24028-2.642-1.60226-3.7333 0-.0165-.39574-1.6193-.65417-3.937-.12128-1.074-.20743-2.4206-.22431-3.9717-.05186-2.3523-.06943-4.73867-.05186-7.15913 0-1.55147.01758-3.10227.05169-4.61966 0-.05045 0-.32352.22431-.54528.13714-.13636.327-.22159.53357-.22159 2.16192-.145955 4.32822-.21969 6.49512-.221081 2.309 0 4.4969.085227 6.5469.220911.0517 0 .3277 0 .5343.22176.1378.13653.2239.34091.2239.54545.0689 1.68785.1031 3.40909.1031 5.19887.0518 2.30113.0177 4.56815-.0684 6.75015z"/><path d="m14.1038 28.7896h.8094l.138-26.6927h-1.1023zm-5.32365-26.50571c-.2064.01738-.49997.32437-.49997.52875l.32786 8.24966c.03428.3757.08614.767.17228 1.1593.2238.8013.80957 1.2444 2.03278 3.2221.379.5965 1.6367 2.1811 1.7398 3.63.138 2.0967.2417 6.1876.3964 9.7159h.379l-.1723-26.6927zm11.40535 0-4.3758-.18699-.1722 26.6927h.3788c.1547-3.5283.2584-7.6192.3963-9.7159.103-1.4654 1.3609-3.0335 1.7397-3.63 1.2236-1.9777 1.7923-2.4212 2.0332-3.2221.0861-.4088.1378-.7836.1722-1.1591l.327-8.24986c0-.20455-.2927-.52875-.4992-.52875z"/></g></svg>