<svg fill="none" height="30" viewBox="0 0 30 30" width="30" xmlns="http://www.w3.org/2000/svg"><g fill="#fff"><path d="m2.67876 14.402h-.87325v-1.2087h-1.80551v3.1591h1.80551v-1.2226h.87325v1.2226h1.8055v-3.1591h-1.8055zm4.74618.9022c0 .2185-.13096.4659-.45137.4659-.32042 0-.45138-.2474-.45138-.4659v-2.1109h-1.80499v2.1399c0 .3204.27693 1.0192 1.31013 1.0192h1.89247c1.03372 0 1.31013-.6988 1.31013-1.0192v-2.1399h-1.80499zm4.81916-.8298-.7138-1.2811h-2.06691v3.1591h1.65951v-1.3536l.7423 1.3536h.7573l.7423-1.3536v1.3536h1.6595v-3.1591h-2.0669zm5.7944 0-.7138-1.2811h-2.0669v3.1591h1.6595v-1.3536l.7423 1.3536h.7573l.7423-1.3536v1.3536h1.66v-3.1591h-2.0674zm3.0132 1.878h3.5235v-.8732h-1.6595v-.3494h1.6595v-.7278h-1.6595v-.3349h1.6595v-.8738h-3.5235zm8.2987-2.1109c0-.3929-.2475-1.0482-.9463-1.0482h-3.596v3.1591h1.805v-.9167l.7718.9167h2.2274l-.9462-1.1212c.3783.015.6843-.5963.6843-.9897zm-2.2419.4079h-.4954v-.7133h.5534c.4513 0 .4079.7133-.058.7133zm2.5359-1.5239c-.0934 0-.183.0371-.2491.1032-.0661.066-.1032.1556-.1032.249 0 .0935.0371.1831.1032.2491.0661.0661.1557.1032.2491.1032s.183-.0371.2491-.1032c.066-.066.1031-.1556.1031-.2491 0-.0934-.0371-.183-.1031-.249-.0661-.0661-.1557-.1032-.2491-.1032zm0 .646c-.0385.0004-.0766-.0071-.1121-.0218-.0355-.0148-.0676-.0366-.0945-.0641-.0268-.0275-.0478-.0602-.0617-.0961-.0139-.0358-.0203-.0741-.019-.1125-.001-.0383.0056-.0764.0196-.112s.0351-.068.0619-.0953.0588-.0489.0942-.0636c.0354-.0146.0733-.022.1116-.0216.0381-.0001.0758.0075.1109.0222.0351.0148.0669.0365.0935.0637.0266.0273.0475.0596.0614.0951.0138.0355.0204.0734.0194.1115.0012.0382-.0052.0763-.019.112-.0137.0357-.0346.0682-.0612.0957s-.0584.0493-.0937.0642c-.0352.0149-.0731.0226-.1113.0226z"/><path d="m29.8064 13.3901c0-.0802-.0476-.1154-.1434-.1154h-.1542v.4063h.0616v-.176h.0709l.1072.176h.0688l-.116-.1791c.0591-.0072.1051-.0388.1051-.1118zm-.2365.0626v-.1258h.0838c.043 0 .0885.0094.0885.0596 0 .0626-.0465.0662-.0988.0662z"/></g></svg>