<svg fill="none" height="30" viewBox="0 0 30 30" width="30" xmlns="http://www.w3.org/2000/svg"><path d="m30 15.0169c0 4.1128-6.735 7.4831-15 7.4831-8.29969 0-15-3.3703-15-7.4831 0-4.1466 6.70031-7.5169 15-7.5169 8.265 0 15 3.3703 15 7.5169zm-15.7144-1.0453c1.2928-.2354 2.551-.6741 3.5372-1.0444 3.1969-1.1128 4.6941-2.2594 4.9997-2.5284.4087-.3713.1031-.5063-.2719-.64036-2.1768-.64032-5.4759-1.11281-7.5844-1.01156-1.5309.03375-2.3812 1.68562-2.7215 2.39342-1.5985 3.3375 1.259 3 2.0409 2.8313zm-9.79498 4.7193c.06844-.135 2.58563-5.9662 5.54438-9.13496.3741-.3375-.0338-.40406-.51-.30281-4.89844.94317-8.29969 3.16877-8.29969 5.72997 0 1.4156 1.02 2.73 2.72157 3.7753.23812.135.47531.0338.54374-.0675zm11.19098-2.6625c-1.2938.2354-2.5519.6741-3.5382 1.0444-3.19684 1.1128-4.69309 2.2922-4.99965 2.5622-.40875.3375-.10219.5062.27187.6066 2.17688.6403 5.47598 1.1118 7.58528 1.0453 1.531-.0675 2.3813-1.7194 2.7554-2.4281 1.5646-3.3366-1.2929-2.9654-2.0747-2.8313zm13.0612-1.0115c0-1.4157-.9872-2.6963-2.7215-3.7416-.2382-.1687-.4425-.0675-.5438.0675-.0684.1013-2.5856 5.9325-5.5444 9.1013-.3403.3703.0338.4378.51.3375 4.8985-.9779 8.2997-3.2035 8.2997-5.7647z" fill="#fff"/></svg>