<svg fill="none" height="30" viewBox="0 0 30 30" width="30" xmlns="http://www.w3.org/2000/svg"><path d="m20.9637 18.3788-5.9637-8.0289-5.96369 8.0289c-2.01396-.1958-5.47486-1.5078-5.47486-3.8382 0-2.9374 5.0838-5.67896 11.45815-5.67896 6.7067 0 11.4581 2.74156 11.4581 5.67896 0 2.3499-3.4805 3.662-5.4749 3.8186m-6.0028-10.3592c-8.2514 0-14 3.2311-14 7.4023 0 1.9582 1.2514 4.1515 3.91061 5.4831 2.48324 1.2337 5.96369 1.6645 6.45249 1.7233l3.6369-10.6334 3.6369 10.6334c2.2245-.2496 4.3993-.8304 6.4525-1.7233 2.6592-1.3316 3.9106-3.5249 3.9106-5.4831-.0196-4.1907-5.7486-7.4023-14-7.4023z" fill="#fff"/></svg>