<svg fill="none" height="30" viewBox="0 0 30 30" width="30" xmlns="http://www.w3.org/2000/svg" xmlns:xlink="http://www.w3.org/1999/xlink"><clipPath id="a"><path d="m0 0h30v30h-30z"/></clipPath><g clip-path="url(#a)" fill="#fff"><path d="m28.0218 14.0151c-.3742 0-.7487-.0079-1.1226.0034-.1687.0051-.2925-.0595-.3963-.1786-.2181-.2501-.4874-.4245-.7858-.5586-.156-.0695-.3215-.1019-.4861-.1429-.157-.039-.3101-.0397-.4653-.0371-.1988.0035-.3898.0583-.5821.1062-.2027.0505-.3757.1607-.5515.2631-.1679.0977-.3047.2387-.4344.3836-.1787.2001-.3026.4311-.4061.6807-.1522.367-.1531.7485-.1178 1.127.0225.2413.1156.4756.2297.6965.1326.2549.3152.4798.5364.6611.1999.1698.4299.2996.6777.3827.2669.0888.5462.1328.8271.1303.1616-.0019.3128-.05.4685-.0784.207-.038.3916-.129.5694-.2352.2468-.1472.4692-.3232.6335-.5667.0653-.0965.1425-.1855.254-.2369.0385-.0182.0806-.0276.1231-.0274.806 0 1.612.0019 2.4169-.0022.1191 0 .2767.1372.3342.2356.0813.1389.0254.254-.0413.3683-.215.3636-.4857.6904-.8019.9681-.2788.2485-.5846.464-.9117.6422-.1543.0838-.3087.168-.4675.2393-.2228.0991-.4511.1852-.6837.2579-.1514.0476-.3036.0953-.4586.1215-.1142.0191-.2252.0521-.339.0717-.1566.0272-.3178.0225-.471.0708-.0304.0076-.0619.0106-.0932.0088-.4257 0-.8517.0082-1.2768-.0046-.1447-.0046-.2915-.0348-.4363-.0672-.1072-.024-.2166-.0392-.3248-.0587-.1706-.0307-.3335-.0852-.5004-.1258-.1998-.0488-.3879-.1274-.5771-.2013-.2066-.0807-.4074-.1757-.6012-.2841-.2264-.1251-.4441-.2655-.6517-.4204-.1749-.1332-.339-.2802-.4908-.4398-.1624-.1692-.3258-.3391-.4576-.5333-.1583-.2309-.2914-.4786-.3968-.7387-.0478-.119-.07-.2457-.1253-.3623-.0259-.0547-.0309-.1234-.0376-.1838-.0189-.1736-.0803-.3421-.0612-.5207.0075-.0893.0079-.179.001-.2683-.0101-.181.0484-.3506.0779-.525.049-.2913.163-.5591.2915-.8199.0732-.1424.1564-.2793.2488-.4098.213-.3124.4792-.5753.7601-.8223.2905-.2553.6174-.4573.9588-.638.3043-.1593.6215-.2918.9482-.3962.1372-.0446.2763-.0927.4241-.1116.0923-.0118.183-.0338.2706-.0656.1051-.0385.2181-.0391.3269-.0568.5275-.0867 1.0608-.0694 1.5916-.0496.1768.0068.3575.0424.5359.068.1152.0174.2267.0493.3408.0695.1503.026.2986.0631.4436.1109.1101.0362.2221.0673.3308.1083.2401.09.4802.1782.7042.3063.0931.0533.1914.097.2836.1529.16.097.319.1944.4697.3063.2919.214.5578.4621.7922.7392.0851.1033.1647.2113.2383.3233.1117.1675.0069.4468-.1908.5266-.0661.0266-.1367.0397-.2077.0385-.3857-.0021-.7714-.0008-1.1571-.0008z"/><path d="m14.3498 11.3961c.3113 0 .6227.0045.934-.0014.2229-.0043.4057.081.5709.2256.0993.0868.1562.2017.2229.3102.1134.1841.2229.3714.331.5583.1739.2987.3529.5941.5258.8934.0857.1472.1746.2934.2649.4383.1323.2121.2525.4318.3801.647.1432.2412.2901.4802.433.7218.1329.2256.2605.4528.3944.6769.2391.4036.4795.8063.7213 1.2081.1477.2459.3051.486.4442.7371.1123.2025.2372.3976.343.6043.054.1055.1306.201.1886.3062.0465.0834.0401.1765.0158.2603-.0098.0323-.0292.0607-.0557.0813s-.0586.0324-.092.0336c-.0768.005-.1543.0132-.2305.0134-.5144.0012-1.0289.002-1.5422 0-.1132 0-.2279 0-.3356-.0493-.2188-.0995-.3754-.2583-.5042-.4652-.1331-.214-.2301-.4628-.4426-.6144-.1372-.0978-.289-.1723-.4709-.1714-.8597.0043-1.7194.0014-2.5791.001-.22 0-.4399 0-.6599 0-.0527.0005-.1049-.0107-.1529-.0329-.048-.0221-.0906-.0547-.1248-.0953-.0697-.0781-.0685-.193-.007-.3071.113-.2082.2262-.4165.3339-.6272.0628-.123.1285-.243.2375-.3297.1681-.1389.3783-.2153.5953-.2163.4712-.0033.9432-.0019 1.4138 0 .0732 0 .1308-.0187.1814-.0762.0185-.0181.0307-.0419.0347-.0677.004-.0257-.0004-.0521-.0126-.0751-.0435-.0897-.0916-.1771-.144-.2617-.125-.2015-.2535-.401-.3811-.6007-.1043-.1633-.2161-.3221-.3119-.4903-.0846-.1482-.182-.2881-.2653-.4369-.0214-.0407-.0505-.0767-.0856-.106-.0352-.0293-.0758-.0512-.1194-.0646-.0775-.0229-.2135.0674-.2654.1562-.0875.1498-.1811.2951-.2708.444-.106.1751-.2103.3513-.3156.5267-.1118.1861-.2219.3732-.3361.5577-.1446.2332-.2898.4663-.427.7044-.1029.1776-.2175.3471-.3258.5223-.1791.2905-.3572.5815-.5344.8731-.1914.3142-.3814.6292-.5726.9436-.0709.1163-.181.1859-.2929.2559-.1395.0867-.2916.1041-.4497.1041-.5284 0-1.05673.0016-1.58509-.0012-.09107 0-.1859.0074-.25724-.0842-.08283-.1074-.09295-.16-.0319-.2803.17269-.3409.37728-.6633.56301-.9969.12485-.2239.25724-.4436.38329-.6668.1317-.2333.25826-.4686.38993-.7027.1095-.1935.224-.3839.3343-.5771.1684-.295.3346-.5901.5025-.8851.1251-.2199.2524-.4386.3772-.6595.1441-.2553.2947-.5066.4351-.7637.1307-.24.2734-.4745.4099-.7116.1293-.2256.2612-.4486.3879-.6751.0708-.1269.1351-.2581.2229-.3742.1164-.1585.2816-.2734.4696-.3264.0334-.0075.0677-.0104.1018-.0085.3457-.0007.6913-.0007 1.0369 0z"/><path d="m5.91537 14.3936c0-.7046.0036-1.4093-.0024-2.1137-.00226-.1876.05259-.3713.15709-.5262.07151-.1089.17783-.1767.30199-.2246.19876-.0767.40336-.0802.61035-.0799.48544.001.97099.001 1.45665 0 .14492 0 .16532.0221.15315.1651v.0087c-.03824.6971-.05248 1.3959-.02195 2.0924.02109.4786 0 .9568.0228 1.4344.02436.508.01047 1.016.01201 1.524 0 .2062-.04407.4089-.07614.6123-.03705.2345-.12502.45-.22672.6609-.05324.1071-.1164.209-.18864.3041-.14959.2034-.33577.3765-.54877.51-.16498.1042-.34796.1762-.52923.2512-.15434.0638-.32361.0559-.47366.1265-.00812.003-.0168.004-.02538.0031-.23392-.0127-.46303.0398-.69832.0385-1.13391-.0059-2.26799.0014-3.40173-.0062-.22657-.0038-.45158-.0389-.66882-.1041-.21256-.0609-.41734-.1468-.61016-.2559-.10801-.0618-.211828-.1308-.310751-.2067-.179684-.1366-.33903-.2987-.47315-.4812-.125222-.1705-.220425-.3615-.2814174-.5648-.0687723-.2245-.09944701-.4593-.09072018-.6942.00874608-.2603.00154544-.5198.00205992-.7798 0-.1041.01251946-.117.11198466-.117.639839 0 1.279674-.0057 1.919344.0044.24232.0038.44725.2003.47709.4705.02213.2013.00583.4106.08386.6027.07542.1946.22319.3514.41158.4369.25553.1204.52288.1376.79727.1347.40267-.0046.80602.0083 1.208-.0058.24249-.0085.47914-.0694.66058-.2534.07974-.0819.13665-.1837.16498-.295.07769-.2777.07871-.5602.0782-.8442-.00126-.6092-.0016-1.2184-.00103-1.8277z"/></g></svg>