<svg fill="none" height="30" viewBox="0 0 30 30" width="30" xmlns="http://www.w3.org/2000/svg"><g fill="#fff"><path d="m25.0048 15.4425c-.0244 1.3458.2662 2.0586 1.3756 2.0586 1.1076 0 1.2665-1.2142 1.2665-2.1383 0-.9246-.2101-1.8222-1.3738-1.8222-.7138 0-1.2409.5547-1.2683 1.9019zm-2.2444 5.6238v-9.1097h2.2718v.3695c0 .4929.1988.2897.359.0976.0268-.0321.5331-.6519 1.6734-.6519 1.1368 0 2.9054.7919 2.9054 3.591 0 2.1652-1.0551 3.7492-2.8773 3.7492-1.0041 0-1.5847-.3954-1.7174-.5549-.1329-.1574-.3175-.1848-.3175 0v2.5092z"/><path d="m5.20121 9h2.45578v6.4425c0 1.1082-.47583 3.4325-3.88145 3.4325-3.406014 0-3.77554-2.1664-3.77554-3.38v-1.1881h2.37651v1.1612c0 .7129.47542 1.3726 1.37261 1.3726.89759 0 1.45209-.5014 1.45209-1.3457 0-.845 0-6.495 0-6.495z"/><path d="m12.7927 14.4652c0-.6608-.3689-1.2943-1.2138-1.2943-.8185 0-1.1092.5803-1.1092 1.2943zm-1.4506-2.7726c1.9285 0 3.6176.739 3.6176 4.1453h-4.5675c0 1.0825.4484 1.5315 1.2405 1.5315.7923 0 1.0562-.6342 1.0562-.6342h2.245c0 .9773-1.3468 2.2975-3.3804 2.2713-2.32288 0-3.45849-1.7164-3.45849-3.4855 0-1.7698 1.00268-3.8284 3.24709-3.8284z"/><path d="m20.0944 14.4652c0-.6608-.3693-1.2943-1.2142-1.2943-.8182 0-1.1094.5803-1.1094 1.2943zm-1.4506-2.7726c1.9283 0 3.617.739 3.617 4.1453h-4.5673c0 1.0825.4488 1.5315 1.2415 1.5315.7915 0 1.0558-.6342 1.0558-.6342h2.245c0 .9773-1.347 2.2975-3.38 2.2713-2.3241 0-3.4597-1.7164-3.4597-3.4855 0-1.7698 1.0039-3.8284 3.2477-3.8284z"/><path d="m28.4663 19.9742c0-.3608.2937-.6539.6557-.6539.3608 0 .6539.2931.6539.6539 0 .3602-.2931.6551-.6539.6551-.362 0-.6557-.2949-.6557-.6551zm-.0756 0c0 .4037.3268.7313.7313.7313.4018 0 .7305-.3276.7305-.7313s-.3287-.7313-.7305-.7313c-.4045 0-.7313.3276-.7313.7313z"/><path d="m29.4149 20.3482-.1518-.3586c.0481-.0166.0642-.0284.0898-.0559.0333-.0357.0543-.0922.0543-.1435 0-.1292-.0994-.2173-.2435-.2173h-.3049v.7753h.0904v-.3358h.2204l.1447.3358zm-.4681-.4145v-.2764h.215c.0899 0 .147.0512.147.1305 0 .09-.0606.1459-.1596.1459z"/></g></svg>