<svg width="30" height="30" viewBox="0 0 30 30" fill="none" xmlns="http://www.w3.org/2000/svg">
<path d="M30 10.2092C29.9347 10.3873 29.9039 10.5758 29.8093 10.7453C29.644 11.0406 29.4032 11.2735 29.1854 11.525C28.527 12.2852 27.8664 13.0434 27.2038 13.8002C26.3991 14.7198 25.5904 15.636 24.7857 16.5556C24.0086 17.4432 23.2265 18.3269 22.4605 19.2241C21.8228 19.9711 21.0723 20.5391 20.1181 20.8146C19.7132 20.9316 19.3004 20.9935 18.8802 20.9938C16.3474 20.996 13.8145 21.0088 11.282 20.9895C10.0466 20.9802 8.98279 20.508 8.12467 19.6144C7.71863 19.1917 7.34565 18.7367 6.95798 18.2964C6.90458 18.2359 6.84666 18.1754 6.88904 18.085C6.93058 17.9963 7.01252 17.9971 7.09446 17.9971C8.63383 17.9977 10.1735 17.9977 11.7129 17.9977C12.7063 17.9977 13.6998 17.9807 14.6927 18.003C15.6147 18.0237 16.3352 17.682 16.932 16.9778C17.9825 15.7383 19.0667 14.5276 20.1365 13.3045C20.3495 13.0609 20.5597 12.8145 20.7751 12.5726C20.8717 12.4641 20.9104 12.3471 20.8513 12.2106C20.7883 12.0654 20.6756 12.0069 20.5148 12.0071C18.6836 12.0097 16.852 12.0083 15.0208 12.0083C10.5484 12.0083 6.07584 12.0077 1.60352 12.0105C1.49445 12.0105 1.42381 11.9775 1.35373 11.8955C1.00506 11.4891 0.655251 11.0839 0.295838 10.6871C0.139301 10.5144 0.0686615 10.3079 0 10.0959V9.8981C0.0350372 9.88567 0.0274081 9.85345 0.0327767 9.82745C0.0895708 9.54739 0.231132 9.32301 0.469328 9.16193C0.695657 9.00848 0.952785 9 1.21359 9C9.47501 9.00057 17.7367 9.00057 25.9981 9.00057C26.9114 9.00057 27.8246 9.00057 28.7378 9.00057C29.1472 9.00057 29.5058 9.117 29.7725 9.44848C29.9056 9.6138 29.9441 9.81558 30 10.0111V10.209V10.2092Z" fill="white"/>
</svg>
