<svg fill="none" height="30" viewBox="0 0 30 30" width="30" xmlns="http://www.w3.org/2000/svg" xmlns:xlink="http://www.w3.org/1999/xlink"><clipPath id="a"><path d="m0 5h30v19h-30z"/></clipPath><g clip-path="url(#a)" fill="#fff"><path d="m.00504796 5.0203c.11610304-.00506.23220604-.02024.34830904-.02024h3.881883c.23725 0 .46441.03036.69661.08602 3.21555.82477 6.43615 1.64447 9.65675 2.4743.2372.06072.4543.06578.6916.00506 3.2357-.83489 6.4714-1.65965 9.7072-2.48948.2069-.0506.4089-.08096.6209-.0759 1.2923.00506 2.5845 0 3.8819 0h.2927c.0101.03036.0202.05566.0303.08602-2.6249 1.43196-5.2448 2.86897-7.8849 4.31105.0707.0759.1565.08096.2322.1012.5704.14674 1.1358.29347 1.7062.44021.0707.02024.1717.01012.1868.10116.0152.0709-.0707.1063-.1262.1417-2.9379 2.1606-5.8758 4.3212-8.8087 6.4868-.1565.1164-.2574.081-.3937-.0202-2.6906-1.9835-5.38618-3.9619-8.07674-5.9454-.2423-.1771-.48965-.3593-.73196-.5364-.04543-.0354-.12115-.0657-.11105-.1265.0101-.08092.09591-.07586.16153-.0961.60071-.15686 1.20142-.30865 1.80212-.46551.04544-.01012.10096-.01518.14135-.09614-.39374-.21758-.78748-.43515-1.18122-.65273-2.19587-1.19414-4.39173-2.39334-6.587587-3.5976-.0454318-.02024-.0908634-.04048-.13629504-.06072 0-.01518 0-.03036 0-.0506zm3.16507204.70333c.19687.08096.37859.16192.56032.23781 2.78142 1.13343 5.5679 2.26685 8.34936 3.40027.0757.03036.212.03542.2069.14168-.005.08602-.1312.08602-.212.10626-.6815.21251-1.3629.41995-2.0444.63755-.06564.0202-.15145.0101-.20193.1164.07572.0455.15144.0961.23223.1366 1.5194.8298 3.0388 1.6546 4.5482 2.4945.2271.1265.3988.1316.6259.0051 1.2671-.7084 2.5442-1.4016 3.8213-2.0999.3282-.1821.6563-.3643 1.0349-.5717-.8885-.2783-1.7163-.5364-2.5392-.79951.0051-.03036.0051-.06072.0101-.08602 3.0389-1.22956 6.0727-2.46924 9.1116-3.70386-.5401-.04554-1.0752-.04048-1.6052-.04554-.2222-.00506-.4342.03542-.6411.1012-3.0742.9462-6.1485 1.89747-9.2176 2.84873-.1868.05566-.3534.06072-.5401.00506-2.5947-.80959-5.19944-1.59893-7.78904-2.42876-1.20141-.38455-2.41292-.65273-3.71024-.49587z"/><path d="m.00504796 20.2102c.32811704-.0051.65623404 0 .97930304-.0152.212019-.0101.277639.081.277639.2783-.00505.7337-.00505 1.4623 0 2.196 0 .1012-.06058.2479.05553.2985.09086.0405.17163-.0809.25239-.1416 1.09541-.7944 2.19082-1.5889 3.27613-2.3934.22716-.167.45431-.258.74205-.2479.45936.0202.92377.0101 1.38314.005.21201-.005.2322.0658.12115.2328-.32812.4959-.65624.9968-.97931 1.4977-.18677.2834-.18677.2834.10096.4908.64109.4656 1.27714.9311 1.91318 1.3966.07067.0556.16153.0961.19182.1923-.60575 0-1.21151 0-1.81222 0-.4846-.3492-.96415-.6983-1.44876-1.0525-.48965-.3593-.45936-.2479-.09591-.7185.27259-.3491.55023-.6932.82282-1.0424-.0101-.0101-.02019-.0202-.03029-.0303-1.29732.9462-2.59465 1.8924-3.88693 2.8386-.57042 0-1.140834-.0051-1.711253.0051-.1261993 0-.156487-.0304-.156487-.1569.00504796-1.2093.00504796-2.4186.00504796-3.633z"/><path d="m22.8824 23.995c-.0051-.1113.0707-.1872.1211-.2682.3282-.506.6563-1.017.9945-1.518.106-.1568.0858-.2378-.0656-.344-.6714-.4757-1.3327-.9665-1.999-1.4522-.0606-.0456-.1868-.081-.1515-.1721.0303-.091.1464-.0455.2272-.0455.4341-.0051.8733 0 1.3074-.0051.1313 0 .2423.0304.3534.1063.5149.3795 1.0297.7539 1.5497 1.1233.1514.1063.1716.1923.0505.339-.3382.4048-.6613.8248-.9642 1.2701.207-.1468.419-.2935.6209-.4453 1.0197-.7388 2.0394-1.4826 3.054-2.2264.1616-.1214.3281-.1821.5351-.1771.419.0101.838.0051 1.2569 0 .1616 0 .2222.0557.2222.2227-.0051 1.1941-.0101 2.3882-.0152 3.5824-.419 0-.8379 0-1.262 0 0-.8197 0-1.6445 0-2.4642 0-.081.0404-.1872-.0404-.2328-.0858-.0506-.1464.0506-.212.0962-1.1913.8652-2.3826 1.7355-3.579 2.6008-.6613.0101-1.3326.0101-2.004.0101z"/><path d="m9.32862 23.995c.01515-.1214.11106-.1822.18678-.2581 1.0803-1.1182 2.1656-2.2314 3.2408-3.3496.1262-.1316.2524-.1974.4392-.1923.4694.0101.9389.0101 1.4083 0 .1717-.0051.3029.0455.419.1771 1.0399 1.1435 2.0899 2.282 3.1297 3.4205.0556.0607.0909.1366.1414.2075-.5351 0-1.0752 0-1.6103 0-.8935-.9209-1.787-1.8419-2.6805-2.7628-.1009-.1062-.1766-.1872-.318-.0253-.843.9361-1.6961 1.8621-2.5442 2.7881-.6057-.0051-1.21147-.0051-1.81218-.0051z"/><path d="m19.2529 23.995c0-1.184-.005-2.368-.0101-3.5521 0-.1872.0707-.258.2575-.2479.2423.0101.4846.0101.7319 0 .207-.0101.2877.0658.2827.2732-.0101.4858-.0051.9766 0 1.4624 0 .6881 0 1.3763.005 2.0695-.424-.0051-.848-.0051-1.267-.0051z"/></g></svg>