<svg fill="none" height="30" viewBox="0 0 30 30" width="30" xmlns="http://www.w3.org/2000/svg"><path d="m17.4043 17.4984c0 .057.018.09.051.09.027-.003.0509-.015.072-.03l9.35-6.0684c.158-.1104.3473-.1672.54-.162h2.0548c.3149 0 .5279.21.5279.5249v3.9237c0 .4739-.105.7499-.5249 1.0018l-2.4928 1.4999c-.0249.0173-.0538.0276-.084.03-.03 0-.06-.024-.06-.111v-4.5776c0-.054-.015-.09-.051-.09-.0263.0031-.0513.0135-.072.03l-6.8333 4.4396c-.156.105-.3389.162-.5249.159h-4.5296c-.318 0-.528-.21-.528-.5279v-5.6545c0-.0419-.0179-.081-.0539-.081-.0263.0034-.0512.0137-.072.03l-4.5086 2.7058c-.04494.03-.05695.051-.05695.072 0 .0179.00897.0359.03897.0689l3.22168 3.2187c.042.042.072.075.072.111 0 .03-.048.054-.105.054h-2.90972c-.22793 0-.40494-.033-.52793-.156l-1.95279-1.9498c-.0074-.0088-.01655-.0161-.02687-.0212-.01033-.0052-.0216-.0082-.03313-.0088-.02117.001-.04178.0072-.06.018l-3.26364 1.9618c-.19799.12-.33298.153-.52798.153h-3.002612c-.32103.003-.531028-.21-.531028-.525v-3.8485c0-.477.104999-.75.527925-1.002l2.507785-1.5058c.01966-.0129.04253-.0201.06598-.021.03902 0 .06.039.06.126v5.1535c0 .054.01201.078.05097.078.02702-.003.05104-.015.075-.03l8.47114-5.0965c.162-.111.36-.165.558-.156h4.5595c.315 0 .528.21.528.5249l-.0031 5.6485z" fill="#fff"/></svg>