<svg fill="none" height="30" viewBox="0 0 30 30" width="30" xmlns="http://www.w3.org/2000/svg"><path d="m28.9074 13.1538c-1.0401-1.0321-2.3342-1.6514-3.6839-2.1516-2.8026-1.04003-5.7322-1.4767-8.7095-1.59579-2.096-.07939-4.192-.01588-6.2721.27788-2.14362.30964-4.23962.76221-6.2324 1.61961-1.10358.4764-2.15157 1.048-3.00109 1.9214-.595452.6192-1.01623891 1.3179-1.00829953 2.2071s.45254453 1.5799 1.04799953 2.1833c1.0083 1.0242 2.27066 1.6355 3.5886 2.1437 1.89751.7383 3.88236 1.1512 5.89099 1.4052 1.4768.1906 2.9694.2859 4.3508.2462 1.707.0158 3.279-.0794 4.851-.2938 2.0722-.2858 4.1046-.7304 6.0418-1.5323 1.2068-.5002 2.3501-1.1036 3.2631-2.0563.4526-.4684.8098-1.0004.921-1.6593.1985-1.0957-.2858-1.9611-1.048-2.7153zm-16.1725-2.8264c.262.0238.5319 0 .7939.0873.4367.1509.651.4605.6431.913-.0556.6431-.3334 1.2068-.659 1.7467-.5875.9766-1.2464 1.8896-2.1357 2.62-.4287.3493-.8971.6431-1.43698.8019-.08734.0238-.19055.127-.26994.0397-.0794-.0874.01588-.1826.05557-.27.38105-.8574.76215-1.7069 1.14325-2.5644.4446-1.0083.9131-2.0245 1.3577-3.0566.1032-.2541.2381-.3414.5081-.3176zm14.3782 7.0581c-.7304.7463-1.6276 1.2465-2.5724 1.6673-1.1353.5001-2.3183.8415-3.525 1.1035-.0556.0159-.1191.0159-.2382.0318.1985-.3335.4128-.5955.5081-.921.2699-.9686-.127-1.7069-.8257-2.3342-.1112-.1032-.3414-.1587-.2938-.3334.0477-.1906.2859-.135.4367-.1826.1429-.0477.2858-.0873.4367-.0873.4208-.008.5716-.2541.651-.6193.0397-.1667.0079-.2382-.1667-.2541-.7066-.0397-1.4212-.0873-2.1278-.127-.1111-.0079-.2143.0238-.3096.0873l-.9051.6193c-.1667.1191-.2461.2779-.2223.4843.0079.1111.0159.2144.0317.3255.1112.8178-.1984 1.3735-.9527 1.7149-.8098.3652-1.6752.4526-2.5406.5478-1.3814.1588-2.7629.1588-4.1523.1191-.85743-.0238-1.71488-.127-2.5644-.254-.24612-.0397-.36521.0397-.46048.254-.21436.5002-.21436.4923-.7463.3097-1.13533-.3891-2.22303-.8734-3.19163-1.6038-.47637-.3573-.90509-.7781-1.19885-1.3021-.54782-.9765-.42873-1.9133.23024-2.7946.65897-.8892 1.59582-1.4529 2.5803-1.9213 1.64345-.7781 3.39806-1.2227 5.19232-1.5006.3494-.0556.6987-.1429 1.1036-.1191-.2302.5161-.4446 1.0083-.6669 1.5006-.84157 1.8816-1.67521 3.7632-2.51678 5.6449-.09527.2143-.07146.3017.1826.3096 1.70697.0635 3.39808.0159 5.08118-.2858 2.1278-.3811 3.9459-1.318 5.4067-2.8979.5161-.5637.9766-1.1671 1.2307-1.8975.2223-.651.2302-1.3179.0555-1.9769-.0397-.1509-.0952-.3096.1668-.262 1.8022.3176 3.5568.7781 5.1685 1.6514.7384.397 1.4053.8813 1.9372 1.5402 1.0401 1.2624.8654 2.6518-.2223 3.7633z" fill="#fff"/></svg>