<svg fill="none" height="30" viewBox="0 0 30 30" width="30" xmlns="http://www.w3.org/2000/svg"><g clip-rule="evenodd" fill="#fff" fill-rule="evenodd"><path d="m15.0005 8.09321c-7.96047 0-14.412077 3.10479-14.412077 6.93669 0 3.8329 6.452557 6.9396 14.412077 6.9396 7.9585 0 14.4111-3.1067 14.4111-6.9396 0-3.831-6.4526-6.93669-14.4111-6.93669zm14.9995 6.93859c0 4.1601-6.7166 7.5328-14.9995 7.5328-8.28482-.001-15.0005-3.3736-15.0005-7.5347 0-4.1582 6.71663-7.5299 15.0005-7.5299 8.2838 0 14.9995 3.3727 14.9995 7.5318z"/><path d="m11.4834 11.7948-.6736 1.0955h.6831zm-2.64268 2.4647h1.21128s-.0038-.0938.0278-.1531c.0574-.11.2076-.3731.2076-.3731h1.2189l.0029.3281s.0057.1139-.0842.201h1.2094s-.09-.0508-.1062-.1991l-.1522-3.2856s-.0067-.2104.0938-.2545h-1.1998s.0842.1034-.0765.3397l-2.2083 3.2732s-.04114.0784-.14352.1234zm12.79798 1.7145.3272-.8831h-2.4551s.088.0775-.0249.3923c-.1138.3158-1.1079 2.9957-1.1079 2.9957s-.1761.3521-.2268.3521h2.5307l.3023-.8936s-.0382.0507-.2774.0507h-1.0697l.2267-.6047h.8305s.1761-.0124.2144.0383l.3396-.9549s-.0249.0861-.2516.0861h-.8056l.2392-.6669h1.0199s.1378-.0191.1885.088zm-6.1206-.8821s.0938.0497.0938.2889v3.2359s-.0124.177-.0794.2134h1.0123s0-.0747.1004-.201c.1005-.1263 2.2025-2.9459 2.2025-2.9459s.4803-.5913.6057-.5913h-1.4486s.1139.0756.0249.2134c-.088.1387-1.3759 2.0647-1.3759 2.0647l.0163-1.9423s-.0019-.3119.1234-.3377zm-2.4111 2.9345c.3406.0621.7147-.1818.909-.9635.2966-1.1826-.2488-1.1922-.3483-1.2046-.3014-.0364-.7042.3109-.8678 1.0352-.0746.3301-.155 1.0467.3071 1.1329zm-.0851.8831c1.3624 0 2.1728-1.3367 2.1728-2.2954 0-1.0046-.4133-1.6332-1.3567-1.6332-1.2055 0-1.9901.9147-2.1929 2.0504-.1866 1.0448.4037 1.8782 1.3777 1.8782zm10.2912-2.2064s.4621.0345.6037-.3272c.1674-.4267-.2497-.4162-.2497-.4162h-.3416l-.2516.7434zm-.8994 2.1279c-.0957.0019-.0287-.2296-.0287-.2296l.3942-1.0678.5702 1.1577c.0383.0766.0191.1388.0191.1388h1.3663c-.1253 0-.264-.2392-.264-.2392l-.6573-1.1788c.9185 0 1.1959-.8783 1.1959-.8783.4823-1.5156-1.0543-1.4419-1.0543-1.4419h-1.5491c.1139.1253.0259.3904.0259.3904s-1.0104 2.7813-1.086 2.9947c-.0472.1318-.1223.2519-.2201.3521l1.2869.0019zm-12.72144-2.8933-.25546.7511h.2392s.466.0411.6372-.3292c0 0 .2009-.4238-.36069-.4238zm-.93573 2.8799c-.03828 0-.03828-.1225-.03828-.1225l.443-1.1749.59033 1.1577c.03827.0766.01914.1388.01914.1388h1.31938c-.1263 0-.2564-.2392-.2564-.2392l-.6563-1.1788c.9185 0 1.2122-.9109 1.2122-.9109.4535-1.4476-1.0716-1.4103-1.0716-1.4103h-1.56147c.11385.1263.02487.3904.02487.3904l-1.04385 2.9852c-.07654.2143-.21432.3636-.21432.3636h1.23425zm-4.21943-1.5471h2.40919l.29277-.8391h-1.5586l1.77675-.6152.11769-.3397-2.73545.8975zm13.4361-3.8654s.0048-.0019.1742-.0019c.2583 0 .7338-.0574 1.0534-.8353.5262-1.2802-.2076-1.2371-.2076-1.2371h-.2832zm-.1597-2.8771s.0937.1512-.0287.5004c-.1235.3492-1.086 2.9469-1.086 2.9469s-.0765.243-.1799.2909l1.5117-.0019s1.8304.0679 2.3977-1.8572c0 0 .7176-1.8982-1.3595-1.8791zm-5.0519 3.7277h1.1042s-.0756-.112-.0287-.2345c.0669-.1703.6525-1.7662.6525-1.7662l.2545 2.0007h1.0008l1.3127-3.5593s.0536-.1665.1263-.1665l-1.063-.0028s.0306.1224-.0077.2172c-.0382.0947-.642 1.7097-.642 1.7097l-.2363-1.9269h-1.1414s.0593.0947.021.198l-1.2103 3.3239s-.0775.2067-.1426.2067zm-5.09772-.8277s.90894-2.4225.98261-2.6053c.12917-.3253.20667-.3023.20667-.3023h-1.35385c.16839.0803.01914.3961.01914.3961s-1.085 3.0215-1.16059 3.1727c-.07558.1512-.13203.1703-.13203.1703h2.34699l.32818-.8946c-.0287.0851-.25355.0631-.25355.0631zm16.33232-1.4715h-2.4073l-.2937.8391h1.5586l-1.7777.6152-.1177.3397 2.7364-.8965zm5.0423 3.0742c0 3.6262-6.2861 6.5664-14.039 6.5664-7.75374 0-14.038861-2.9402-14.038861-6.5664 0-3.6263 6.285121-6.56551 14.038861-6.56551 7.7529 0 14.039 2.94021 14.039 6.56551z"/></g></svg>