<svg fill="none" height="30" viewBox="0 0 30 30" width="30" xmlns="http://www.w3.org/2000/svg"><path clip-rule="evenodd" d="m15.0006 25.3028c4.9666 0 9.3701-1.7336 12.1005-4.4048l-2.4597.0108c-2.325 1.9559-5.7249 3.1871-9.5801 3.1871-7.1892 0-12.80096-4.2836-12.80096-9.5694 0-6.09537 5.61176-9.56939 12.80096-9.56939.458.00135.823.21149.5495.60751-1.4952 1.79965-5.74777 7.58658-6.52232 8.83928-1.53158 2.4732-1.49521 5.5175 2.25492 5.7303h15.7671c.8056 0 1.0103-.3772 1.2999-.7718 1.0389-1.3977 1.5966-3.0945 1.5895-4.8359-.0027-4.54358-3.1978-7.94755-7.9017-9.62192l-.7274 1.0884c3.9078 1.44134 6.4927 4.35502 6.4927 8.53352-.0002.7147-.1036 1.4256-.3071 2.1108-.1751.5913-.5159 1.0898-1.1638 1.0898h-12.5854c-1.6111 0-.9888-1.6623-.3907-2.4692.8648-1.5518 5.6078-8.01486 6.7487-9.22046.291-.44183 1.1073-1.35647-.0175-1.7067-1.6869-.39233-3.4138-.58717-5.1457-.58058-8.287 0-14.9993041 4.25395-15.00199818 10.77634-.00404112 6.5843 6.71633818 10.7763 15.00059818 10.7763z" fill="#fff" fill-rule="evenodd"/></svg>