<svg fill="none" height="30" viewBox="0 0 30 30" width="30" xmlns="http://www.w3.org/2000/svg"><path clip-rule="evenodd" d="m21.4855 8.24717-.1241.26455-.1255.26591-.1254.26727-.1269.26591-.1254.26454-.1241.26591-.1255.26724-.5018 1.0637-.1254.2645-.1241.2646-.1255.2686-.2495.5305-.0587.0763-.0518.0764-.0504.0791-.0464.0763-.0423.0764-.0818.1527-.0382.0764-.0491.0682-.045.0695-.0463.0682-.0437.0723-.0831.1404-.0819.1405-.0872.1363-.0464.0682-.045.0655-.0491.0654-.0504.0614-.0546.0614-.0573.0586-.0027.0205-.0054.0177-.0082.015-.0096.0177-.0259.0314-.0273.0327-.0163.0177-.0137.0178-.0136.019-.0109.0191-.0095.0232-.0082.0232-.0055.0259-.0013.0273-.0791.0682-.0737.06-.0341.03-.0272.0272-.0164.0191-.0123.015-.0095.0178-.0109.0177-.1732.1841-.1609.1704-.1527.1582-.1528.1555-.3191.3136-.1731.1691-.1882.1827-.0273.0027-.0273.0055-.0245.0095-.0232.015-.0205.0164-.0177.015-.0382.0382-.0341.0382-.0327.0327-.015.0136-.0177.0096-.0177.0054-.0205.0028-.0204.0272-.0232.0232-.0259.0232-.0246.0177-.0586.0355-.0587.0341-.0272.0177-.0314.0177-.0273.0205-.0286.0232-.0273.0218-.0245.0273-.0232.034-.0218.0355-.0587.0205-.0586.0286-.06.0273-.06.0341-.0586.0327-.0587.0382-.0586.0354-.0614.0409-.0109.0178-.0136.0163-.0136.0123-.0178.0136-.0382.0218-.0436.0205-.0464.0177-.045.0232-.0463.0273-.0205.0163-.0204.0178-.1364.0763-.1418.0764-.1405.0736-.1418.0737-.1459.0722-.2209.0996-.0777.03-.0764.03-.0791.0314-.0886.0559-.0914.0545-.0927.0477-.0914.0464-.0954.045-.0928.0409-.0968.0409-.0954.0409-.1964.0737-.1936.0736-.1978.0723-.1963.0736.1036.1023h5.0127l-.0054.0382-.015.0763-.0109.0382-.0505.1473-.0327.075-.0341.0709-.0382.0709-.0382.075-.0818.1418-.0791.1459-.0409.0737-.0354.0736-.0355.0764-.03.0763h-5.9604v-.1009l.3518-.7063.3518-.7037.3545-.7063.3519-.7037.3545-.7036.3518-.7064.3518-.7036.3546-.7037.3504-.7063.3546-.7037.3518-.7036.3518-.7064.3546-.7036.3518-.70363.3518-.70636.3546-.70364zm-1.2137-2.92227.1282.04909.1295.05045.1282.05182.1296.05318.1282.05455.1295.05455.1268.0559.1309.06137.1268.06136.1282.06137.2564.13227.1309.06818.1268.07227.1309.07091.1268.07637.1173.06.1173.06272.1173.06682.1145.06818.1118.07228.1159.07363.1119.07637.1118.07909.1091.07909.1091.08182.1131.08318.1091.08454.1078.08455.2181.17318.1105.08727h.0518l.0859.07773.0955.08182.1009.08727.0995.09136.0491.04637.0477.04636.0437.045.0436.04909.0355.04773.0327.04636.0273.04773.0232.04909h-2.0032l-.6328 1.25455-.315.62998-.319.6273-.6328 1.2545-.9477 1.8832-.3191.6273-.6327 1.2545-.315.63-.6327 1.2546-.3191.6273.0545.0504h4.695l.0382-.0559.0409-.0518.0355-.0505.0368-.0545.0327-.0518.03-.06.0164-.03.0122-.0328.0096-.0354.0109-.0382.0409-.0586.0382-.0641.0382-.0682.0354-.0723.0327-.0709.0314-.0764.0246-.0777.0231-.0763-4.0636-.0505.0082-.0177.0054-.0178.0069-.015.0109-.0163.0095-.0137.0109-.0095.0218-.0218.0273-.0191.0314-.0123.0341-.0136.0327-.0096.0709-.0177.0723-.0177.0354-.0096.0355-.0136.0327-.0123.0314-.0177.0682-.0382.0681-.0354.0696-.0341.0682-.03.1404-.0614.1391-.0586.1364-.0587.1404-.0586.0682-.0327.0696-.0328.0681-.0368.0696-.0354.0054-.015.0082-.0096.0068-.0136.0082-.0096.0177-.0163.0178-.0123.0232-.0082.0231-.0068.0246-.0082.0232-.0027.0259-.0041.0232-.0082.0245-.0054.0205-.0096.0204-.0136.0177-.0136.0164-.0219.0041-.0122.0054-.015.0491-.0109.045-.0178.0464-.0177.0409-.0232.0423-.0245.0409-.0273.0395-.03.0409-.0273.0369-.0272.0409-.0287.0818-.0545.0436-.0218.0437-.0178.045-.0191.0491-.0095.0613-.0409.0587-.0437.0586-.045.0614-.0436.0586-.0436.0586-.0355.03-.0177.0273-.015.0314-.0136.03-.0096.09-.0791.0859-.0791.09-.0818.4459-.4254.1773-.1732.18-.1718.0886-.0819.09-.0818.0859-.0818.09-.0777.0027-.0273.0068-.0273.011-.0272.0136-.026.0164-.0218.0204-.0259.0205-.0232.0204-.0259.045-.0477.0437-.0491.0204-.0245.015-.0273.0164-.0273.0136-.0273.0273-.0204.0232-.0205.0218-.0231.0204-.0232.0341-.045.03-.0491.03-.0464.0341-.0477.0205-.0205.0204-.0231.0246-.0205.0272-.0205.0396-.0559.0327-.0504.0614-.0968.0273-.0491.034-.0505.0328-.0518.0354-.0545.2196-.4173.1077-.2087.1091-.2059.1091-.21.1091-.2086.1091-.2073.2181-.4172.1078-.2073.2182-.4173.1077-.2073.1091-.2086.1091-.20591.1091-.21.0163-.00273.0164-.00409.0095-.01091.0109-.00682.0096-.0109.0095-.00682.0164-.00546.0177-.00272.0355.03818.0327.03818.0314.03818.0245.03818.0464.07637.0409.07637.0968.1718.0995.1677.0969.1637.0954.165.1827.3272.0437.0832.0818.1691.0409.0859.0982.2428.0927.2454.0818.2496.0737.2536.0654.2564.0559.2563.0491.2591.0409.2646.0328.2645.0231.2645.015.266.0082.2672v.2687l-.0082.2672-.0177.2646-.0259.2659-.03.2645-.0409.2659-.0491.2591-.0545.2605-.0641.2577-.0682.255-.0805.2523-.0859.2468-.0954.2455-.1009.24-.1078.2359-.1172.2318-.1228.2277-.1295.2223-.1377.2141-.1459.2086-.0273.03-.0259.0314-.0246.03-.0232.0341-.0463.0654-.0437.0668-.0231.0328-.0219.0327-.0272.0341-.0246.0327-.03.0327-.0313.0314-.0355.03-.0354.0273.0054.0218.0027.0177-.0027.015-.0082.015-.0136.015-.0109.0164-.0164.0136-.0177.0164-.0327.0273-.0328.0313-.0136.015-.0095.0178-.0082.019-.0028.0178-.079.1036-.0819.1023-.0859.0995-.0872.0996-.0887.0968-.0886.0954-.0927.09-.0941.0928-.1882.18-.0968.09-.0969.0859-.1963.1773-.1991.1718-.0273.0109-.0273.015-.0245.0177-.0232.0177-.0436.0437-.0382.0491-.0409.0477-.0423.0436-.0463.0355-.0273.0163-.0287.0096-.0272.0273-.0628.0463-.0272.0178-.0587.0354-.0545.0341-.0273.0177-.0259.0178-.0259.0204-.0245.0232-.0232.0232-.0232.0272-.0205.0328-.0204.0354-.0614.0205-.0586.0273-.0587.03-.0586.0327-.0614.0327-.0572.0382-.0587.0354-.0613.0396-.0818.0573-.0846.06-.0859.0545-.09.06-.0886.0586-.0873.0546-.0859.06-.0818.0545-.0587.0219-.0586.0204-.0559.0205-.0559.0231-.0546.0246-.0504.0273-.0232.0163-.0232.0178-.0204.015-.0205.0204-.1582.0586-.1568.0641-.1568.0682-.3082.1432-.1473.0777-.1459.0764-.1391.0764-.0286-.0082-.0259-.0028h-.0205l-.0204.0055-.015.0055-.015.0095-.015.0109-.0137.0096-.0218.0259-.0273.0231-.0122.0096-.0137.0054-.0163.0041-.0205.0028h-.0273l-.0286.0027-.0273.0027-.0272.0055-.0505.0095-.0477.0177-.0518.0232-.0505.0259-.0545.03-.0546.0369-.3163.0763-.1582.0409-.0791.0178-.0791.019-.2959.0819-.3.0777-.3041.0709-.3082.0641-.3136.0586-.3164.0532-.3218.0436-.3205.041-.3272.0327-.3273.0259-.33.0204-.3314.0137-.3313.0082h-.3314l-.3341-.0041-.3314-.0109-.334-.0178-.3314-.0259-.3273-.0272-.33-.0382-.3273-.0409-.3259-.0505-.3204-.0545-.3191-.0628-.3136-.0681-.311-.0723-.3081-.0818-.3-.0873-.3-.0955-.29049-.0981-.28636-.105-.28228-.1119-.07772-.0381-.08182-.0355-.08728-.0327-.08454-.0341-.17455-.0655-.17863-.0682-.09-.0395-.08591-.0382-.09-.0436-.08591-.045-.08727-.0491-.08455-.0532-.04091-.0314-.04091-.0272-.08182-.0668-.04772-.0096-.04773-.015-.04636-.0177-.04637-.0191-.045-.0218-.04636-.0232-.04364-.0259-.045-.0259-.09-.0532-.08863-.0532-.04637-.0259-.04636-.0232-.04773-.0218-.04909-.0205-.03-.0354-.03273-.0314-.03136-.0259-.03273-.0218-.03272-.0191-.03682-.0177-.03273-.0137-.03545-.0163-.03273-.0137-.03682-.0136-.03273-.0191-.03545-.0177-.03137-.0232-.03272-.0259-.03-.03-.03137-.0355-.02045-.0027-.01773-.0054-.01773-.0041-.01363-.0109-.03137-.0246-.06136-.0573-.03136-.0245-.01364-.0109-.01909-.0068-.01773-.0055h-.02045l-.03137-.0354-.03-.0341-.03-.0273-.03409-.0259-.06545-.0436-.06682-.041-.03-.0177-.03136-.0204-.03-.0205-.02728-.0218-.02863-.0273-.02591-.0273-.02318-.0327-.02046-.0354-.03818-.0205-.03818-.0232-.03546-.0232-.0709-.0545-.03137-.0286-.06409-.0614-.05454-.0641-.05182-.0641-.04909-.0613-.04091-.0614v-.0505l4.85457-.0504.0259-.0205.0232-.0204.0204-.0232.0137-.0205.0136-.0231.0109-.026.0095-.0218.0082-.0232.0137-.049.0163-.0478.0109-.0204.0096-.0232.015-.0205.0177-.0204.0614-.15.0668-.15.0682-.1459.0682-.1487.0695-.15.0668-.1554.0327-.0791.0328-.0818.0613-.1678-6.0136-.0518.01091-.0177.01227-.0177.00955-.015.01363-.015.02728-.0259.03409-.0205.03272-.0177.03546-.015.03545-.0137.03819-.0095.08181-.015.08455-.0177.04364-.0109.08181-.0273.04091-.0177.18546-.0696.18409-.0709.18273-.0764.18136-.0763.35727-.1637.17591-.0845.17591-.0859.35182-.1759.525-.2646.17318-.09.17727-.0872.17728-.0859.08181-.0778.08591-.0763.08864-.0737.09273-.0682.04772-.034.04909-.03.04773-.0314.09682-.0546.04909-.0231.05046-.0232.04909-.0205.02045-.0354.02318-.0341.02455-.0273.02591-.0259.02727-.0205.03136-.0204.02728-.0177.03136-.0178.05864-.0327.05591-.0368.0259-.0177.02455-.0219.02318-.0231.02318-.0273.02728-.0109.02863-.015.02591-.0191.02727-.0177.0491-.0437.04636-.0422.04364-.041.0409-.0354.0191-.0136.02045-.0096.02045-.0082h.01773l1.37182-1.3336.0082-.0177.0054-.0178.0069-.0177.0109-.0177.0204-.03.0218-.0287.0273-.0259.0273-.0245.0273-.0259.0313-.0232.0273-.0259.0314-.0246.0272-.0259.0259-.0259.0232-.0272.0205-.0314.0068-.0177.015-.0355.0054-.0177.0996-.1077.0954-.1091.0914-.1146.0914-.1173.0886-.1172.0873-.1228.0845-.1227.0818-.1241.0819-.1254.0777-.1255.1527-.2536.075-.1282.0709-.1268.0709-.1255.0723-.1268.1036-.0518.0791-.1636.1528-.33.0791-.1664.0763-.1677.0777-.1664.0764-.1691.0791-.1677.0777-.1677.0818-.1691.0846-.1678.0845-.1663.0887-.1678.0927-.165.0914-.1663.0954-.1637.0627-.1322.06-.1364.0614-.1282.0641-.13225.0641-.13091.0668-.12954.0627-.13091.1364-.25909.0655-.13091.0681-.12955.1378-.25909.0681-.13363.0696-.13228.0682-.13636.0545-.05045-.0545-.05046h-5.53775l-.36409.72682-.36819.72682-.36273.72679-.36818.7255-.36409.7295-.73363 1.4537-.36546.7268-.36818.7254-.36273.7269-.36818.7295-.36409.7268-.36818.7268-.36273.7269-.735 1.4522-.01773.0109-.01772.0055-.015.0041-.015.0027-.01637.0027-.00954-.0027h-.01364l-.00954-.0054-.02046-.0096-.015-.0136-.01364-.0164-.01227-.0204-.02591-.0464-.02727-.0464-.015-.0232-.02045-.0177-.01091-.0095-.01364-.0082-.01091-.0041-.01636-.0055-.02046-.0559-.05454-.1022-.02864-.0491-.03136-.045-.02728-.0518-.02727-.0505-.02182-.0559-.02591-.0205-.02318-.0231-.01909-.0232-.01636-.0259-.02455-.0532-.02045-.0532-.02046-.0505-.01363-.0231-.01228-.0232-.01772-.0205-.01773-.015-.02318-.015-.02727-.0136-.03137-.0846-.03545-.0831-.03818-.0819-.03819-.079-.08181-.1528-.08728-.15-.04091-.075-.04091-.0736-.03818-.0736-.03545-.0737-.03546-.075-.03-.0763-.02591-.0737-.02318-.0763-.03818-.0969-.03818-.0995-.07091-.2046-.06682-.2113-.06136-.2141-.05864-.2168-.05045-.2182-.04637-.2182-.04227-.2114-.02318-.135-.02046-.135-.01772-.135-.01364-.135-.01227-.1363-.015-.2687-.00546-.274.00546-.27.00545-.135.00682-.1323.01091-.135.01227-.135.01364-.1323.01636-.1323.01637-.1336.02045-.1323.02046-.1295.02181-.1323.02319-.1309.0259-.1295.02728-.1282.05727-.255.06-.2496.06409-.2468.06818-.2427.03682-.0614.015-.03.01364-.0341.02454-.0654.02318-.0668.01364-.0328.01227-.0327.01364-.0341.01909-.0327.01773-.0327.02318-.0314.02591-.03.02454-.0273.04364-.1159.04364-.1118.04772-.1091.05182-.1091.05318-.1064.05455-.1063.05727-.105.05864-.1009.12-.2073.12545-.20591.12273-.20455.11864-.21136.03818-.01773.03136-.02045.02455-.02318.02318-.02318.02045-.02319.01773-.02181.01637-.02319.01363-.0259.01637-.02319.015-.02454.015-.02318.02045-.02319.02318-.02318.02591-.02045.03273-.02046.03545-.02045.00273-.02727.00818-.02728.00955-.02182.01363-.02318.01364-.02045.01909-.02046.02046-.02045.01772-.02046.02046-.01772.02045-.02046.01773-.02045.015-.02046.01364-.02181.00954-.02319.00818-.02591.00273-.02727.07636-.05863.07091-.0641.06818-.06409.06682-.06681.12546-.13637.12-.13636.05727-.06546.12273-.12818.06409-.05863.03-.02728.03409-.02727.03545-.02727.03273-.02455.03546-.02591.03818-.02318.03682-.02045.0409-.02046.04091-.05318.04091-.05455.04091-.045.04227-.04363.04637-.04227.04227-.03955.04909-.03818.04637-.03546.09409-.07091.09545-.07363.04909-.03818.05182-.04091.04773-.04364.04909-.04636.06136-.03818.11727-.07637.06137-.03818.05863-.03818.05864-.04091.05864-.03818.06-.03818.02045-.02591.02046-.02455.02318-.02045.04636-.03546.02591-.01363.02182-.015.02591-.01091.04909-.02455.04773-.02318.04636-.02727.02318-.01637.01909-.01772.03955-.03546.04091-.03273.03682-.02727.0409-.02727.0791-.04227.07909-.04091.27545-.16909.14046-.0791.13636-.07909.14182-.07636.28091-.14727.27954-.13773.14318-.06818.14318-.06409.14182-.06409.14591-.06409.14455-.06137.14863-.05863.14728-.05864.13636-.03818.26182-.07637.12679-.03818.1296-.03818.1309-.03818.1323-.03818.1363-.03819.0505-.01772.0477-.01773.0518-.01364.0477-.01227.0996-.02318.0995-.02046.0969-.01772.0995-.02318.0505-.01228.049-.01363.0996-.03409.1473-.0341.15-.03.15-.02727.1513-.02863.3055-.05182.1541-.02046.1554-.02318.3109-.03545.1555-.015.1582-.015.1582-.01364.1568-.01227.1582-.00955.1609-.01091.1581-.00682.4814-.01636.3246-.00136h.3231l.3273.00409.3232.01091.3273.01363.3245.01637.2482.02045.2468.02591.495.06546.2455.0409.2441.04364.2454.04636.2414.05046.2427.05591.2386.05591.24.06409.2373.06409.2346.06682.2345.07091.4582.14727zm-1.3173-1.22727.03.01636.0314.015.03.01636.0327.00955.0369.01091.0327.00682.0354.00818.0328.00409.0681.00818.0696.00273.0641.00273h.0641l.3232.08863.3272.09273.3205.09545.3218.10091.3205.10364.3163.10909.1582.05727.1582.05864.1554.05864.1555.06136.1554.06273.1555.06136.1527.06682.1555.06682.1527.06545.15.06818.1541.07228.15.0709.1486.075.15.07637.1473.07636.1486.07909.1446.07909.1486.08319.1432.08181.1446.08728.0477.01363.0463.01364.0437.02045.0436.02319.0409.0259.0409.02728.0409.03136.0382.03.0818.06409.0819.05864.0409.03.045.02727.045.02455.0491.02045.0791.05455.1581.10363.0791.05318.0791.05455.0791.05727.0409.03137.0382.03272.0409.03546.0382.03818.0859.06409.0845.06409.086.06273.0872.06409.0846.06409.0859.06409.0873.06273.0831.06682 1.1605 1.07591.0082.05318.0041.01636.0136.03.0355.05455.0231.02454.0259.02318.0219.02319.0491.04091.0436.04227.0136.02318.0137.02591.0054.00954.0055.015.0013.01364v.01227l.0396.03137.06.05454.0273.03137.045.05591.0818.11727.0422.05727.0273.02727.0287.03.034.02864.0355.02727.0232.04091.0245.04637.0287.04909.0313.05045.0546.10909.0286.05864.0205.05727.0204.00955.0177.01363.015.01364.0191.01909.0273.03821.0259.0409.045.0886.0409.0846.105.1009.1064.1841.1023.1909.0968.1909.09.1991.0859.1991.0818.2045.0764.2086.0682.21.0681.2141.06.2141.0546.2182.0504.2196.0437.2222.0382.2237.0327.225.0273.2263.0204.2278.0177.229.0109.2264.0055.2305v.2291l-.0082.229-.0136.2291-.0164.2305-.0232.2291-.0313.2263-.0355.225-.0409.2264-.0477.2223-.0546.2223-.06.2181-.0668.2182-.0409.1391-.0436.1377-.045.1378-.0518.1363-.0505.1337-.0545.1363-.0573.1323-.0587.1323-.1281.2591-.0682.1309-.0723.1295-.0709.1255-.0764.1268-.0763.1254-.0818.1255-.0819.1227-.0859.1214-.0872.1227-.0887.12-.0954.1173-.0941.1173-.0955.1172-.2018.2291-.105.1146-.1064.1118-.1104.1091-.1091.1104-.1132.1091-.1173.1091-.1172.1064h-.0532l-.0587.0763-.0613.0764-.03.0355-.0327.0354-.0669.0696-.0709.0654-.0382.0314-.0409.0273-.0409.0259-.0436.0259-.0464.0218-.0477.0204-.0205.0369-.0259.0327-.0231.0273-.0273.0272-.0273.0219-.0627.0409-.0327.0177-.0641.0409-.0655.0436-.0341.0246-.03.0273-.0327.034-.0286.0355-.0205.0027-.0177.0055-.0178.0095-.0177.0137-.0327.0327-.0341.0382-.0177.0177-.0178.0205-.0204.0163-.0205.0137-.0231.0163-.0232.0096-.0246.0054-.0313.0027-.0478.0464-.0518.0409-.0532.0382-.0504.0355-.1091.064-.1091.0573-.1091.0587-.1064.0613-.0545.0368-.0505.0382-.0504.0409-.0505.045-.0381.0137-.0396.0122-.0354.0178-.0382.0204-.0682.0437-.0723.045-.0682.049-.0681.0437-.0396.0204-.0354.0178-.0382.0136-.0382.0109-.1064.1023-.1663.0763-.1678.0764-.1663.0764-.165.0763-.1637.075-.165.0737-.1663.0709-.165.0723-.1664.0681-.1664.0669-.1677.0627-.3409.1227-.1718.0559-.1759.0518-.1759.0505-.0791.0354-.0791.0341-.0791.0273-.0777.0259-.0791.0232-.1582.0409-.0791.0177-.0614.0232-.0586.0218-.0586.0273-.0614.0246-.0586.0231-.0587.0178-.0313.0068-.0273.0054-.0314.0028-.03.0027-.0409.0245-.0409.0232-.045.0177-.0463.0164-.0491.0136-.0478.011-.0491.0109-.0504.0095-.0477.0109-.0491.0096-.0478.0109-.049.0136-.0464.0164-.045.0177-.0409.0232-.0409.0259-.1896.0436-.1909.0409-.1936.0382-.3873.0709-.1991.0328-.1963.0313-.2005.03-.1991.0273-.2018.0273-.4091.045-.2032.0204-.2045.0177-.2046.015-.2072.0164-.4132.0191-.2059.0109-.21.0055-.2059.0041-.2087.0027h-.2073l-.2086-.0027-.2073-.0014-.4131-.0164-.2046-.0068-.4118-.0273-.2046-.0163-.2031-.0178-.3232-.0409-.3246-.0436-.3204-.0477-.3164-.0518-.3163-.0546-.3164-.06-.3109-.0641-.3109-.0654-.3055-.075-.30953-.0737-.30272-.0818-.30273-.0832-.30137-.09-.29999-.0941-.30001-.0995-.29727-.1023-.07909-.0409-.16091-.0859-.08454-.0409-.04091-.0177-.04228-.0178-.04363-.0136-.04637-.0136-.045-.0109-.04636-.0082-.04909-.0055-.04773-.0013-.09954-.0587-.09955-.0613-.09954-.0641-.10364-.0587-.05182-.0272-.05454-.0287-.05182-.0232-.05455-.0231-.05454-.0205-.05728-.0177-.05863-.015-.05864-.0137-.25773-.1445-.255-.1473-.25227-.15-.25227-.1541-.24955-.1582-.24681-.1636-.12546-.0818-.12273-.0832-.12272-.0845-.11864-.0859-.12273-.0873-.12-.0887-.12-.09-.11727-.0886-.12-.0954-.11727-.0914-.11728-.0955-.11454-.0981-.11455-.0955-.22909-.2018-.11182-.1023-.11318-.105-.11182-.1077-.10909-.1064-.10909-.1091-.01091-.0286-.01772-.0273-.02046-.0273-.02318-.0245-.05591-.0505-.12818-.1077-.06273-.0586-.02863-.03-.02728-.0341-.02727-.0355-.01909-.0381-.03818-.0273-.03409-.0314-.02728-.0327-.02727-.0314-.04636-.0654-.04637-.0668-.02045-.0328-.02591-.0354-.02455-.0341-.02727-.03-.03409-.0327-.03545-.0314-.04091-.03-.04637-.0314-.02318-.0545-.02727-.06-.02727-.0587-.03409-.0545-.03546-.06-.03818-.0559-.03818-.0586-.04091-.0587-.01773-.0095-.01636-.0137-.01228-.015-.00954-.015-.01636-.0368-.01364-.0368-.00818-.0191-.00818-.0204-.01091-.0178-.01228-.0177-.03545-.03-.02318-.0136-.02728-.0096-.00272-.0382-.00546-.0354-.01091-.0341-.01363-.03-.01909-.0327-.01773-.0314-.02046-.03-.02318-.0314-.04363-.0627-.04228-.0723-.02045-.0354-.01773-.0409-.01636-.0437-.00955-.045-.054543-.0518-.095454-.1854-.092728-.1855-.083181-.195-.081819-.1936-.076363-.1991-.072273-.2005-.065454-.2018-.064091-.2059-.055909-.21-.051819-.2086-.045-.2141-.040909-.2114-.035454-.2182-.0545457-.4322-.0190909-.2182-.0163637-.2182-.00954543-.2182-.00272727-.2209v-.2223l.00818182-.2182.00954548-.2181.0177272-.2182.0231819-.2182.0272727-.2155.0340909-.214.040909-.2141.043636-.2128.050455-.2086.054545-.2086.06-.2073.066819-.2005.050454-.1404.109091-.2755.06-.1377.062727-.1364.064091-.1363.065455-.1364.069545-.1336.073637-.1337.073636-.1322.15545-.2646.08182-.1309.17455-.25908.08863-.13091.08864-.12682.09546-.12818.09545-.12682.09818-.12545.10091-.1241.10227-.12545.105-.12273.10637-.12272.10909-.12273.11045-.12137.11455-.12.23182-.23727.11727-.11727.12273-.11727.12272-.11455.03819-.01364.03545-.01227.03273-.01773.03409-.02045.03-.02045.03136-.02182.05455-.04637.05454-.04909.05046-.04227.02727-.02045.02727-.01773.03-.01364.02728-.01227.03136-.03546.03-.03409.03409-.03.03-.02727.06682-.05182.06545-.04636.06137-.04091.05863-.04227.02728-.02318.02727-.02591.02182-.02591.02045-.02455.05864-.04091.06136-.03545.05864-.03818.05863-.03409.06137-.03273.05863-.02727.05864-.02864.05864-.02046.04636-.05454.02455-.02182.02727-.02318.05454-.04091.05864-.03818.05864-.04091.05591-.04091.02727-.02045.02727-.02455.02182-.02727.02045-.02728.03819-.00954.07636-.02727.03682-.01637.07091-.03545.13636-.07637.07227-.03545.03546-.01636.03682-.01364.03818-.01364.04091-.01091.02727-.02727.03409-.02591.03-.02318.03273-.02318.06818-.03818.06954-.03546.06819-.03272.06954-.03137.06409-.03273.06409-.03818.15819-.07636.15681-.07636.15819-.07364.15818-.075.15818-.07091.15818-.06545.15818-.0641.15819-.06136.00954-.01773.01091-.01363.00954-.01228.01091-.00681.00955-.00546.01364-.00545.00954-.00273h.01364l.05318.00818.07091.00546.18818-.08455.19091-.08182.195-.07909.19636-.07363.195-.07228.20182-.06818.19909-.06682.405-.12409.20727-.05863.20455-.05864.2045-.05455.2073-.05318.2073-.05045.2086-.05182.2059-.04773.0137-.01773.0122-.0109.015-.00955.0178-.00545.0177-.00273.0205-.00273.0204.00273.0232.00273.0436.00545.0464.00273h.0218l.0232-.00273.0204-.00545.0205-.00682.3927-.08182.1991-.03818.1991-.03409.2046-.03273.2031-.03.2059-.02864.2073-.02591.2087-.02181.2086-.02046.2114-.01773.2127-.01909.2113-.01227.2141-.01364.2114-.00681.2141-.00819.2141-.00409.2141-.00272h.4282l.2113.00545.2141.00409.2127.01091.2114.00955.4173.02727.2072.01909.206.01773.2045.02045.2045.02591.2005.02455.1991.02863.135.01773.1323.02045.1295.01773.1309.02046.1268.01772.1309.02046.1323.01772.1364.02046z" fill="#fff" fill-rule="evenodd"/></svg>