<svg fill="none" height="30" viewBox="0 0 30 30" width="30" xmlns="http://www.w3.org/2000/svg" xmlns:xlink="http://www.w3.org/1999/xlink"><clipPath id="a"><path d="m0 13h30v4.34783h-30z"/></clipPath><g clip-path="url(#a)" fill="#fff"><path d="m0 13.1448c.210608.0009.421216.0046.631824.0014.067065-.0011.086184.0172.086037.0863-.002206 1.0682-.001471 2.1364-.001471 3.2046v.0971h1.96636v.6536c-.02471.0017-.04589.0042-.06721.0042-.84758.0003-1.69516.0004-2.5427391.0001-.024267 0-.0485339-.0038-.0728009-.0057 0-1.3472 0-2.6944 0-4.0416z"/><path d="m7.81749 13c.90979.8975 1.81105 1.7864 2.72691 2.6897 0-.0453 0-.0732 0-.1011 0-.7845.0008-1.569-.0018-2.3534-.0003-.0727.021-.0908.0904-.089.1909.0046.3821.0034.5732.0006.0543-.0008.0712.0151.0712.071-.0015 1.3568-.0012 2.7135-.0015 4.0703 0 .0138-.0015.0275-.0032.0597-.9139-.8981-1.81652-1.7849-2.73308-2.6857v2.5254h-.72213z"/><path d="m25.9979 15.4284h.7041c.0117.044.022.0914.0365.1375.1656.5206.4965.8739 1.0417.9668.5542.0945.99-.128 1.294-.5946.4424-.6791.2144-1.6137-.491-1.9962-.4593-.2491-.9136-.2042-1.3424.0953-.024.0167-.0467.0353-.0736.056-.1807-.1484-.3603-.2959-.5465-.449.1359-.1371.2856-.2456.4501-.3323 1.0486-.5522 2.3163-.0753 2.7677 1.04.3593.8876.1066 1.8796-.6323 2.4827-.7766.6341-1.9329.5535-2.6348-.1835-.3019-.317-.4859-.6937-.5625-1.1248-.0055-.0306-.0071-.0619-.011-.0979z"/><path d="m24.3601 16.0314c.1773.146.3548.292.5319.4379-.3874.5372-1.166.92-1.991.756-.9116-.1813-1.5128-.9123-1.6439-1.7119-.1559-.9517.348-1.8322 1.1237-2.2197.7768-.3882 1.6691-.2193 2.226.2763-.1523.1747-.3047.3495-.4569.524-.6705-.5277-1.5094-.3271-1.9228.2159-.4485.5888-.378 1.3911.1531 1.8892.499.4681 1.4208.5288 1.9799-.1677z"/><path d="m16.242 17.1902c-.2474 0-.4799-.0067-.7119.003-.1087.0044-.1694-.0333-.231-.1212-.3643-.5198-.7355-1.0345-1.1045-1.5509-.017-.0236-.0352-.0465-.0581-.0766-.0758.0838-.1478.1629-.2195.2427-.0706.0786-.1365.1624-.2126.235-.0608.058-.0787.1202-.0777.2023.0043.3231.0018.6464.0018.9696v.0924h-.7151c-.0015-.0223-.0041-.0435-.0041-.0649 0-.407-.0012-.8142.0021-1.2212.0002-.0397.0175-.0883.0435-.1174.7302-.8148 1.4626-1.6276 2.1946-2.4406.0032-.0037.0076-.0065.0101-.0107.097-.1625.2396-.2032.4217-.1876.1888.0162.38.0036.5908.0036-.091.106-.1691.1986-.2487.2896-.4159.4757-.8316.9518-1.2495 1.4256-.04.0453-.0346.0736-.0024.1187.5061.7086 1.0104 1.4183 1.515 2.1278.0155.0217.0302.044.0555.0808z"/><path d="m19.404 16.558c.1955.2203.3739.4216.5624.6341-.194 0-.3719.0015-.5497-.0019-.0218-.0004-.047-.0229-.064-.0413-.0799-.0864-.1572-.1753-.2402-.2683-.0635.0583-.124.1144-.1853.1698-.4006.3614-.9927.2224-1.2651-.1188-.2583-.3234-.2396-.7677.0534-1.0608.0847-.0848.1785-.1606.2728-.2448-.06-.0735-.1244-.1463-.1821-.2241-.1953-.2636-.2462-.5479-.0872-.8445.149-.278.3934-.4112.7045-.3885.3052.0223.525.1884.6345.4761.1086.2855.0532.5498-.1587.7719-.0861.0901-.1848.168-.2846.2577.1698.1901.339.3797.5109.5722.0378-.0349.0743-.0611.1013-.0949.0612-.0764.1373-.0961.2323-.0911.1454.0077.2916.0021.4484.0021-.1728.1699-.3361.3304-.5036.4951zm-1.1288-.6162c-.0784.0687-.1531.1284-.2212.1952-.1442.1416-.1662.3308-.0617.4898.1051.16.3259.2326.4984.161.1269-.0526.2218-.1482.3206-.2457-.1788-.2002-.3534-.3959-.5361-.6003zm.059-.5805c.0958-.0821.1897-.1566.2759-.2393.0377-.0361.0669-.086.0868-.135.0521-.1291.0009-.2731-.1215-.3638-.1268-.0941-.2971-.0917-.4236.0058-.1114.0858-.1504.2226-.0976.3566.0582.148.1741.2524.28.3757z"/><path d="m3.30634 13.1478h.26502c.15913 0 .31841.0018.47755-.001.04677-.0009.07574.0133.10236.0526.5827.8611 1.16673 1.7215 1.74943 2.5826.01559.023.02794.0539.02809.0811.00176.4317.00117.8632.00088 1.2949 0 .0073-.0025.0144-.005.0279h-.72022c-.00117-.0238-.00338-.0475-.00338-.0713 0-.3428.00118-.6857-.00147-1.0285-.00029-.0412-.01338-.0883-.03588-.1224-.4899-.7432-.98201-1.4848-1.47367-2.2269-.1181-.1783-.2359-.3568-.35356-.5355-.00883-.0135-.01618-.0281-.03015-.0535z"/></g></svg>