<svg width="30" height="30" viewBox="0 0 30 30" fill="none" xmlns="http://www.w3.org/2000/svg">
<path d="M18.2275 5.16006L15.65 0.207501C15.5064 -0.069167 15.0687 -0.069167 14.9251 0.207501L8.47096 12.6053C7.84301 13.8127 7.84301 15.2066 8.47096 16.414L10.6298 20.5617C10.7734 20.8384 11.2111 20.8384 11.3547 20.5617L18.2275 7.36055C18.5908 6.66435 18.5908 5.85772 18.2275 5.16006Z" fill="white"/>
<path d="M18.6453 9.43827L11.7724 22.6394C11.4092 23.3374 11.4092 24.1437 11.7724 24.8399L14.35 29.7925C14.4936 30.0692 14.9313 30.0692 15.0748 29.7925L21.5291 17.3947C22.157 16.1873 22.157 14.7934 21.5291 13.586L19.3701 9.43827C19.2265 9.1616 18.7889 9.1616 18.6453 9.43827Z" fill="white"/>
</svg>
