<svg fill="none" height="30" viewBox="0 0 30 30" width="30" xmlns="http://www.w3.org/2000/svg" xmlns:xlink="http://www.w3.org/1999/xlink"><clipPath id="a"><path d="m0 9h30v12h-30z"/></clipPath><g clip-path="url(#a)" fill="#fff"><path d="m11.3558 21c-.3456-.0294-.6917-.0588-1.0374-.0882-2.20548-.1855-3.95968-1.2024-5.2881-2.9151-.61213-.7892-1.14513-1.6474-1.64239-2.5147-1.12267-1.9566-2.2004-3.9385-3.2955031-5.91076-.0280795-.05069-.050543-.10442-.0924069-.19262.111807-.00507.20013-.01267.288452-.01267 2.685928-.00051 5.372368.00152 8.058288-.00507.18992 0 .28437.06437.37167.22455.65144 1.19777 1.30749 2.39397 1.97429 3.58367.2093.3736.4436.7355.6922 1.0852.5295.7452 1.2728 1.171 2.181 1.2399.9047.0684 1.815.0755 2.7232.0765.3089 0 .4942.0517.6556.3513.8684 1.616 1.7679 3.2157 2.6532 4.823.0419.076.0506.1703.0746.256h-8.3167z"/><path d="m20.8967 21c-.9858-1.7822-1.9717-3.5649-2.9565-5.3477-.0061-.0111.0036-.0309.0082-.0653.0786-.0046.1608-.0127.2425-.0127 2.907-.0005 5.8145 0 8.7215-.0031.1562 0 .2619.0249.3466.1795.9312 1.698 1.8711 3.391 2.8074 5.0861.0281.0506.0429.1089.0644.1632h-9.2351z"/><path d="m26.6464 14.7034c-.1062.0051-.1884.0122-.2711.0122-2.8994.0005-5.7987-.002-8.6985.0056-.2093.0005-.3115-.0689-.409-.2469-.8995-1.6489-1.8093-3.2917-2.716-4.93652-.0317-.05778-.0603-.11709-.1149-.22303h.3017c2.8994 0 5.7987 0 8.6985-.00152.1496 0 .2665.0071.3538.16727.9328 1.7072 1.8747 3.4093 2.8136 5.1135.0123.0218.0184.0471.0419.1094z"/></g></svg>