<svg width="30" height="30" viewBox="0 0 30 30" fill="none" xmlns="http://www.w3.org/2000/svg">
<path d="M16.8105 23.985V23.6779C16.8105 21.8976 16.808 20.1149 16.8155 18.3346C16.8155 18.1448 16.7655 18.01 16.6282 17.8727C14.9326 16.1873 13.2395 14.4969 11.5538 12.8015C11.4739 12.7216 11.4165 12.5818 11.4165 12.4694C11.409 10.397 11.4115 8.32459 11.4115 6.25218C11.4115 6.17228 11.4115 6.09488 11.4115 6.00499H6C6 6.10237 6 6.18727 6 6.27466C6 8.9638 6 11.6504 6 14.3396C6 17.4807 6 20.6242 6 23.7653C6 23.9101 6 24 6.19728 24C9.66842 23.9925 13.1371 23.995 16.6082 23.995C16.6681 23.995 16.7281 23.99 16.8105 23.985ZM13.2295 6C13.2245 6.04494 13.217 6.07241 13.217 6.09738C13.217 8.00749 13.217 9.9176 13.2195 11.8252C13.2195 11.8951 13.2669 11.9775 13.3194 12.03C15.025 13.7328 16.7306 15.4357 18.4437 17.1336C18.566 17.2534 18.611 17.3733 18.611 17.5431C18.606 19.6155 18.611 21.6879 18.6035 23.7603C18.6035 23.9451 18.6509 24 18.8407 23.9975C20.5014 23.99 22.162 23.9925 23.8227 23.9925C23.8826 23.9925 23.9401 23.985 24 23.9825V6H13.2295Z" fill="white"/>
</svg>
