<svg fill="none" height="30" viewBox="0 0 30 30" width="30" xmlns="http://www.w3.org/2000/svg"><path clip-rule="evenodd" d="m10.4167 14.2177c2.0095.8378 3.3482 2.0109 4.5645 4.648 1.2121-2.6371 2.5105-3.9772 4.5617-4.815l5.1587-1.848.0334.1322c.0835.5858.1253 1.2983.1253 2.0095 0 7.2837-4.815 8.749-9.8805 8.7087-5.06545.0417-9.83868-1.425-9.83868-8.7087 0-.5442 0-1.0883.08349-1.5489l.07515-.309zm13.1744-5.05154-.1113-.18091c-1.8021-2.67886-5.0669-3.30787-8.5-3.30787s-6.7827.67076-8.5417 3.39137l-.18787.32702c3.0198 1.72703 6.44737 1.75903 8.72957 6.12033 2.0958-4.4949 5.5609-4.5603 8.6113-6.34994zm2.4409-1.56278-.2922-.33399c-2.6803-2.89038-7.0764-3.51939-10.76-3.51939-3.7253.00278-8.24807.62901-10.88518 3.68638l-.12524.167c-1.29977 1.54886-2.09438 3.76852-2.09438 6.74102 0 9.1679 7.45209 10.6333 13.1048 10.6333 5.6945 0 13.1452-1.4654 13.1452-10.6333 0-2.9725-.7932-5.19077-2.093-6.74102z" fill="#fff" fill-rule="evenodd"/></svg>