<svg fill="none" height="30" viewBox="0 0 30 30" width="30" xmlns="http://www.w3.org/2000/svg"><path clip-rule="evenodd" d="m15 30c-3.9782 0-7.79356-1.5277-10.6066-4.247-2.81305-2.7192-4.3934-6.4074-4.3934-10.253s1.58035-7.53377 4.3934-10.25305c2.81304-2.71928 6.6284-4.24695 10.6066-4.24695s7.7936 1.52767 10.6066 4.24695 4.3934 6.40745 4.3934 10.25305-1.5804 7.5338-4.3934 10.253c-2.813 2.7193-6.6284 4.247-10.6066 4.247zm.0038-12.3093-12.17804 4.8714c1.25927 2.0481 3.05029 3.7424 5.19559 4.9153 2.14525 1.1728 4.57035 1.7834 7.03495 1.7712 2.4626-.007 4.8808-.6342 7.0163-1.8198 2.1354-1.1855 3.9145-2.8885 5.1617-4.9411zm-2.1086-3.4412 1.9396-12.42731c-2.4605.0314-4.87035.68025-6.99335 1.88295-2.12299 1.2027-3.88629 2.91798-5.11708 4.97774-1.23521 2.05992-1.892271 4.39612-1.906102 6.77702-.013832 2.381.616042 4.7241 1.827242 6.7973zm4.1532.1633 10.368 7.7573c1.186-2.0722 1.7949-4.4066 1.7673-6.7746-.0277-2.3681-.691-4.6886-1.925-6.7344-1.2286-2.04902-2.985-3.75566-5.0984-4.95379-2.1133-1.19814-4.5116-1.84696-6.9613-1.8833l1.8494 12.59059z" fill="#fff" fill-rule="evenodd"/></svg>