<svg fill="none" height="30" viewBox="0 0 30 30" width="30" xmlns="http://www.w3.org/2000/svg"><path d="m14.9999 9c-1.1049.00019-2.1919.27534-3.1608.80008-.9689.52472-1.7883 1.28212-2.3827 2.20232h-9.4564l.941403.93h8.023767c-.15229.35-.27313.7125-.36111 1.0834h-6.56589l.92992.9187h5.48374c-.018.1873-.02776.3752-.02925.5633.00173.1737.01052.3473.02633.5203h-4.38394l.92992.9187h3.59703c.08339.3704.19947.733.34692 1.0834h-2.84718l.9414.93h2.40406c.59098.9309 1.41118 1.6985 2.38408 2.231.9728.5326 2.0665.8128 3.1787.8143 1.1123-.0015 2.206-.2817 3.1789-.8142.9728-.5326 1.7931-1.3002 2.3841-2.2311h2.404l.9414-.93h-2.8471c.1474-.3504.2635-.713.3469-1.0834h3.597l.9299-.9187h-4.3839c.0158-.173.0246-.3466.0263-.5203-.0014-.1881-.0112-.376-.0291-.5633h5.4836l.9299-.9187h-6.5659c-.0879-.3709-.2088-.7334-.3611-1.0834h8.0238l.9414-.93h-9.4564c-.5944-.9202-1.4138-1.6776-2.3827-2.20235-.9689-.52473-2.056-.79988-3.161-.80005zm0 .88077c.7467 0 1.4861.14533 2.176.42753.6898.2823 1.3166.6961 1.8446 1.2177s.9468 1.1408 1.2325 1.8223c.2858.6815.4329 1.4119.4329 2.1495 0 .7377-.1471 1.4681-.4329 2.1496-.2857.6815-.7045 1.3007-1.2325 1.8223s-1.1548.9353-1.8446 1.2176c-.6899.2823-1.4293.4276-2.176.4276-1.5079 0-2.9542-.5918-4.0205-1.6452-1.06631-1.0534-1.66536-2.4822-1.66536-3.9719s.59905-2.9184 1.66536-3.9718c1.0663-1.0534 2.5126-1.64523 4.0205-1.64523zm-4.5231 4.16123v2.9116h.6146v-2.2919l.6484 2.2919h.637l.6505-2.2919v2.2919h.6148v-2.9116h-.9926l-.5879 1.986-.5945-1.986zm3.8068 0v2.9116h.6616v-2.9116zm1.2964 0v2.9116h.6148v-1.8987l1.3211 1.8987h.664v-2.9116h-.6148v1.9443l-1.3412-1.9443zm3.2816 0v2.9116h.6616v-2.9116z" fill="#fff"/></svg>