<svg width="30" height="30" viewBox="0 0 30 30" fill="none" xmlns="http://www.w3.org/2000/svg">
<g clip-path="url(#clip0_1289_77131)">
<path d="M23 1C19.697 1 16.8692 2.86778 16.2144 4.86272V16.178C16.2144 16.3297 16.2042 16.39 16.0403 16.3922L14.9908 16.4059C14.8119 16.4059 14.8059 16.3206 14.8059 16.1866V4.87509C14.1127 2.86778 11.052 1.04725 8 1.04725V27.1201C8 28.111 9.64378 29 11.0559 29H20.1253C21.3244 29 23 28.2205 23 27.1201V1ZM21.2845 5.62463V23.3583C21.2845 24.5162 20.7641 24.6405 19.3883 24.6405H11.7246C10.733 24.6405 9.65914 24.7494 9.65914 23.3882V5.62463C9.65914 4.89002 11.0022 4.87278 11.0022 5.62463V17.9069C11.0022 18.2956 11.0694 18.3435 11.436 18.3435H19.5398C19.8394 18.3435 19.9649 18.2538 19.9649 17.9197V5.62459C19.9649 4.90102 21.2844 4.91675 21.2844 5.62459L21.2845 5.62463Z" fill="white"/>
</g>
<defs>
<clipPath id="clip0_1289_77131">
<rect width="30" height="30" fill="white"/>
</clipPath>
</defs>
</svg>
