<svg fill="none" height="30" viewBox="0 0 31 30" width="31" xmlns="http://www.w3.org/2000/svg"><g fill="#fff"><path d="m17.5822 15.6094c-.021.0052-.1044.0052-.1409.0052h-2.693v.625h2.7399c.0209 0 .1827 0 .2139-.0052.5585-.0521.8142-.5156.8142-.9219 0-.4167-.2661-.8646-.7724-.9115-.0992-.0104-.1827-.0104-.2191-.0104h-1.7901c-.0783 0-.1671-.0052-.1983-.0156-.1409-.0365-.1932-.1615-.1932-.2656 0-.0938.0523-.2187.1983-.2605.0418-.0104.0888-.0155.1879-.0155h2.5833v-.6146h-2.625c-.1096 0-.1931.0052-.261.0156-.4488.0624-.7619.4219-.7619.8802 0 .375.2348.8125.7515.8854.0939.0104.2244.0104.2818.0104h1.7432c.0313 0 .1095 0 .1252.0053.1983.0259.2661.1718.2661.302 0 .125-.0782.2605-.2504.2917z"/><path d="m12.4781 15.6094c-.0209.0052-.1044.0052-.1357.0052h-2.6981v.625h2.7398c.021 0 .1828 0 .214-.0052.5585-.0521.8142-.5156.8142-.9219 0-.4167-.2662-.8646-.7724-.9115-.0992-.0104-.1827-.0104-.2192-.0104h-1.79c-.0784 0-.1671-.0052-.1983-.0156-.1409-.0365-.1932-.1615-.1932-.2656 0-.0938.0523-.2187.1983-.2605.0418-.0104.0888-.0155.1879-.0155h2.5833v-.6146h-2.625c-.1096 0-.1931.0052-.261.0156-.44881.0624-.76191.4219-.76191.8802 0 .375.23485.8125.75151.8854.0939.0104.2244.0104.2818.0104h1.7431c.0313 0 .1096 0 .1253.0053.1983.0259.2661.1718.2661.302 0 .125-.0731.2605-.2505.2917z"/><path d="m8.24046 13.198h-.67845v3.0573h.67845z"/><path d="m6.06416 16.2553v-3.0573h-.67845v2.2812l-2.25976-2.2812h-.87156v3.0573h.67845v-2.2917l2.27543 2.2917z"/><path d="m27.8842 13.198v2.2812l-2.2597-2.2812h-.8716v3.0573h.6785v-2.2917l2.2702 2.2917h.8559v-3.0573z"/><path d="m21.2199 13.198-1.9101 3.0573h.8245l.3392-.5469h2.2286l.3392.5469h.8193l-1.9101-3.0573zm1.1324 1.9323h-1.529l.7671-1.2292z"/><path d="m6.0277 11.4636c1.36734-3.98443 5.1353-6.66152 9.3835-6.66152s8.0213 2.67709 9.3835 6.66152l.0105.0312h2.9904v-.3594l-1.2421-.1458c-.7672-.0885-.929-.4271-1.1377-.8542l-.0522-.1042c-1.7953-3.81245-5.7042-6.2812-9.9524-6.2812-4.2533 0-8.15707 2.46875-9.95236 6.2917l-.05218.1041c-.20875.4271-.37054.7657-1.13771.8542l-1.24209.1458v.3594h2.98518z"/><path d="m24.8051 17.9637-.0105.0312c-1.3673 3.9843-5.1353 6.6562-9.3835 6.6562s-8.02137-2.677-9.38349-6.6614l-.01044-.0312h-2.98519v.3593l1.24209.1458c.76717.0886.92896.4271 1.13771.8543l.05219.1041c1.79529 3.8229 5.70423 6.2917 9.95233 6.2917s8.1571-2.4688 9.9524-6.2865l.0522-.1042c.2087-.427.3705-.7656 1.1377-.8541l1.242-.1459v-.3593z"/></g></svg>