<svg fill="none" height="30" viewBox="0 0 30 30" width="30" xmlns="http://www.w3.org/2000/svg"><path clip-rule="evenodd" d="m24.8195 17.5315-16.14587.1453 4.02467-2.9672-7.8812-.2081c-.15753 2.5335.63936 5.0341 2.23371 7.0093 1.59434 1.9751 3.87059 3.2816 6.38019 3.6621 2.5097.3805 5.0708-.1926 7.179-1.6064 2.1081-1.4139 3.6104-3.5659 4.2109-6.0322zm-19.63185-5.2176 16.18575-.1454-3.7867 2.8262 7.5207.3491.0028-.2366c.001-2.4502-.8838-4.8182-2.4912-6.6675-1.6075-1.84928-3.8293-3.05516-6.2558-3.39536-2.4265-.34019-4.8942.20822-6.94822 1.54416s-3.55589 3.36935-4.22876 5.7254zm-5.18765.0456 3.94062-.0356c.62028-2.4508 2.04022-4.62469 4.03507-6.17762s4.45061-2.39618 6.97871-2.39628c1.5161-.00012 3.0169.30332 4.4139.89243 1.397.5891 2.6619 1.45195 3.7201 2.53767s1.8884 2.37233 2.4415 3.784c.553 1.4116.8179 2.9197.7789 4.4353l3.6912.171v1.9155l-3.9449.0356c-.6009 2.7332-2.1895 5.1484-4.4611 6.7828s-5.0666 2.3729-7.849 2.0739c-2.7825-.2989-5.35675-1.6142-7.22937-3.6939-1.87262-2.0796-2.91184-4.7772-2.91848-7.5756 0-.2138.0057-.4276.01853-.6385l-3.61568-.0969z" fill="#fff" fill-rule="evenodd"/></svg>