<svg fill="none" height="30" viewBox="0 0 30 30" width="30" xmlns="http://www.w3.org/2000/svg"><path clip-rule="evenodd" d="m15.4834 0c4.3738 0 8.9135.373398 13.5214 1.16868.0688 1.84723.1469 4.70253.0158 7.12545-.2937 5.40207-1.4826 9.59497-3.7429 13.19557-2.2532 3.59-5.7423 6.677-9.7943 8.5103-4.052-1.8333-7.5413-4.9203-9.79451-8.5103-2.25999-3.6006-3.44922-7.7935-3.74259-13.19557-.13173-2.42292-.05337-5.27822.01542-7.12545 4.60791-.795282 9.14798-1.16868 13.52168-1.16868zm0 .52041c-4.3117 0-8.68919.366603-13.0173 1.09023-.09501 2.74042-.09501 4.92089-.00062 6.65538.28813 5.31008 1.45237 9.42418 3.66363 12.94688 2.21094 3.5225 5.52629 6.4321 9.35429 8.2148 3.8278-1.7827 7.1434-4.6923 9.3544-8.2148 2.2112-3.5227 3.3751-7.6368 3.6636-12.94688.0944-1.73449.0944-3.91496-.0006-6.65538-4.3281-.723627-8.7059-1.09023-13.0174-1.09023zm-.0377 15.77479s.0852.5056.1111.6523c.0145.0831.0176.1053-.0034.1868-.068.2622-.3824 1.6442-.634 3.0588l-.0392.2235c-.1028.5958-.1916 1.1873-.2433 1.6933-.0293.2875-.0198.3564.0561.6115.215.7208 1.0103 2.6042 1.163 2.9476.017.038.0272.0779.0321.119l.0574.4441c-.2548-.3852-1.6393-2.9322-2.1832-4.3427-.0642-.1662-.0765-.248-.0055-.5535.3782-1.6205 1.4014-4.3742 1.6889-5.0407zm-2.019-3.9147s.1064.345.209.7195l.0358.133c.0648.244.1226.485.1436.6374.02.1467.0166.1863-.0355.3268-.1264.3366-.3591.878-.6072 1.4316l-.1071.2374c-.3045.6715-.6128 1.3202-.7625 1.6011-.0737.1383-.1431.2285-.2819.3697-.3168.3227-.9233.9327-1.2988 1.274-.1363.1241-.173.2301-.2008.3907-.0447.2578-.0891.6979-.1015.9253-.0108.1998.0216.2934.133.4913.6617 1.1814 2.8708 3.8993 3.5001 4.47.0457.0414.079.0692.1752.1331.0926.0618.3943.2576.3943.2576.012.0083.0222.0195.0299.0321l.1092.1924s-.0102-.005-.0286-.0142l-.0472-.0234c-.0379-.0189-.088-.0439-.1457-.0727l-.1402-.0703c-.215-.108-.4713-.2378-.606-.3104-.0556-.03-.1077-.0652-.1561-.1057-.737-.6127-2.9955-3.258-3.65963-4.3624-.16566-.2759-.18263-.3651-.16042-.6261.04165-.4858.10612-1.0967.16258-1.3645.03427-.1615.06967-.2563.19347-.399.4157-.479.9227-1.1113 1.4168-1.7601l.1737-.2294c.7488-.9953 1.4385-1.9915 1.6961-2.499.0589-.1155.0639-.1557.0651-.2647.0034-.3162-.0975-.9321-.124-1.0878-.004-.0244-.0053-.0491-.0031-.0738zm6.1637-.5935.191.083c.0564.0244.1079.0603.1505.1047 1.1707 1.2231 2.107 2.4912 2.2946 2.8254.0361.0642.0607.1285.0697.202.2104 1.7836.0296 3.6731-.4001 5.3168-.0389.1482-.0824.2242-.2249.3314-.4588.3454-1.1436.8962-1.8247 1.4577l-.2147.1775c-.8204.6799-1.5998 1.3456-1.9306 1.6519-.083.0772-.1554.1643-.2147.2609-.1551.2524-.3919.6866-.5082.9022l-.0324.0603c-.0234.0434-.0369.0688-.0369.0688-.1542-.337-.4905-1.1591-.6058-1.4914-.0377-.1084-.0445-.1653-.0047-.3104.1882-.6891 1.0776-2.6923 1.2506-3.0545l.0004.1482c0 .0216-.0034.0429-.0102.0633-.0781.2369-.5562 1.8157-.6534 2.5005-.0216.1522-.0198.1933 0 .3428.0426.3196.2335.9058.2335.9058s.1132-.2366.2187-.3965c.0519-.0785.083-.1162.1675-.2002.4276-.4233 1.157-1.0776 1.9168-1.7356l.269-.232c.5836-.5014 1.1662-.9893 1.6266-1.3621.1197-.0969.1644-.1618.1909-.3459.132-.9068.1703-2.5344.0907-3.7188-.0151-.2236-.0876-.4398-.2135-.6254-.2887-.4272-.6339-.8315-1.1574-1.3506-.0747-.0745-.1256-.1696-.1447-.2734-.1527-.8153-.4936-2.3064-.4936-2.3064zm-9.90009 1.8864c.0728-.0235.15023-.0262.22427-.0083.33382.0803 1.04022.2535 1.57422.3903.075.0192.1684.0893.2082.1557l.1163.1937c.0408.0679.0435.1513.0074.2217-.097.1884-.2355.4434-.3818.7064l-.1108.1979c-.2038.362-.4068.7113-.522.8951-.0759.1213-.1181.1751-.2533.2229-.5253.185-1.17777.4062-1.56554.5319-.07928.0256-.10612.0738-.09069.1618.02776.1603.11722.7045.15147.8633.01264.0586.05953.1053.14653.0886.2292-.0436.83943-.193.83943-.193s-.17988.1664-.28754.2646c-.01975.0186-.04258.0322-.06818.0405-.16628.0556-.57225.1696-.69873.1974-.09872.0213-.16165-.0176-.18694-.1294 0 0-.17307-.7376-.23569-.9884-.00987-.0383-.01974-.0713-.03177-.109-.0469-.1451-.15949-.4305-.22304-.58-.00741-.0173-.01111-.0358-.01082-.055.00187-.1708.03334-.5519.03334-.5519s.37358.3506.55435.4772c.04072.0287.06509.0346.11507.0219.24833-.0639.81935-.2529 1.13275-.3703.0716-.0269.1342-.072.183-.131.3242-.3919.7308-1.0015.9655-1.4614.0324-.0633.0386-.1359.0182-.2039l-.0506-.1667c-.0148-.0488-.0663-.1038-.1138-.122-.5525-.2104-.9881-.3666-1.49987-.5411zm10.92689-4.74691c.1216-.04478.2548-.04169.3742.00865.9261.38915 2.4834 1.30456 3.349 1.94946.0836.0624.1169.1053.1388.206.2033.9253.2804 2.3556.1524 3.5598-.0093.0865-.0265.1383-.0716.2307-.5485 1.1227-1.1658 2.1792-1.8154 2.9943l.0013-.0134c.0084-.0867.0551-.5761.0576-.8409.0003-.03.0142-.0574.0379-.0757.1207-.0939.2863-.2273.3801-.3085.0456-.0395.0709-.0692.0947-.1075.2647-.428.7379-1.3243.9286-1.8636.0465-.1315.065-.2708.0536-.4101-.061-.7515-.1789-1.7926-.3544-2.472-.0299-.1159-.1065-.2138-.2129-.2684-.1514-.0779-.4485-.2135-1.125-.4849-.0938-.0377-.1814-.0899-.2586-.1548-.4436-.3731-1.137-.93238-1.5686-1.2542-.1262-.0942-.2872-.12848-.4409-.09358-.3143.07135-.7144.17079-.9396.23195-.0765.02069-.1068.02254-.1857.01328-.0412-.00478-.0943-.01-.1502-.01508l-.0846-.00745c-.0983-.0084-.1905-.01552-.2267-.01826l-.0161-.00122c.7339-.34498 1.4401-.64271 1.8821-.80455zm-9.7915 6.07371c-.2295.378-.5038.7795-.7111 1.0303-.0271.0327-.0632.0581-.1042.0735-.22677.0849-.60467.2128-.88293.2977zm-3.03337-.4963-.13543.9355-.46057-.5411c.08391-.1819.32915-.3537.596-.3944zm2.48087-5.29642-.1259.15505c-.0071.00679-.0139.01328-.021.02038-.1107.08185-.57685.43918-.70302.53925-.03578.02841-.04997.05312-.0583.09794-.02838.1581-.07558.4586-.08947.6251-.00401.0488-.02498.0729-.07465.0929-.21625.0881-.47261.1807-.67991.2638-.04442.0176-.05676.0244-.08298.0445-.02067.016-.29615.2622-.29615.2622s.59877-.1476.81842-.1974c.05244-.0117.07496-.0086.12339.0142.04535.021.12093.051.16073.0655.06108.0226.09347.0216.16103.0068.24741-.0553.66351-.1541.88501-.2119.1151-.0299.178-.0611.2755-.1294.1061-.0738.3748-.2755.3748-.2755s-.0049.0356-.0086.0553c-.0028.017-.0089.0266-.02.0399-.0547.0657-.1503.1729-.1978.222-.1089.1128-.174.1529-.3106.21-.62936.2626-1.70475.6702-2.51145.9497-.05275.0186-.07558.0337-.11476.0739-.04257.0432-.09933.1062-.09933.1062s.6577.0479.85852.071c.06509.0075.11168.0288.16134.0717.16504.1421.71138.7051.87488.9006 0 0-1.55325.2585-2.27295.4373-.08885.022-.13327.0785-.15332.1498-.05954.2094-.1999.8827-.1999.8827s-.04998-.0161-.1197-.0562c-.04781-.0275-.07218-.0503-.12463-.1059-.17028-.1801-.45008-.5248-.58458-.7246-.03949-.059-.05615-.134-.00679-.1943.14591-.1797.43898-.5077.60063-.6763.01727-.0183.03918-.0501.06231-.0958.05439-.1081.12609-.3821.15107-.481l.00798-.032.00106-.0043s-.00154.001-.00433.0027l-.02952.0186c-.04002.0252-.10466.0659-.13243.0834-.04164.0266-.05306.038-.07033.0744-.02622.055-.07219.1418-.10705.202-.01141.0198-.04195.0504-.0583.063-.20638.1578-.43436.3274-.59662.4417-.01111.0077-.0253.0043-.03486-.005-.02067-.0207-.10736-.1192-.12278-.1424-.01296-.0194-.01883-.0376-.01883-.0611-.0003-.0411.00371-.1133.00772-.1671.00494-.0636.02314-.0939.10057-.1742.08669-.0899.18109-.1844.28042-.2813.2434-.2051.85791-.7042 1.95521-1.4881.02067-.0148.03948-.0321.0546-.0528.11537-.1556.44268-.5806.52351-.6816.01141-.0142.02406-.0275.03856-.0389.12925-.1023.19311-.1464.32422-.22919.30571-.19273.8977-.5442 1.22936-.73723zm6.6881-.3476c.046-.00803.0931-.00155.1354.01853l.3205.15349c.0315.01514.0546.04386.063.07845.0435.18346.0968.42652.1326.63314.0145.08586-.0015.17357-.045.24924-.1327.23067-.4051.64577-.5575.86877-.0339.0501-.0379.1106-.0274.1702.0691.3824.3572 1.7175.3572 1.7175l-.1814-.1652c-.0361-.0334-.0598-.0686-.0753-.1146-.1289-.3777-.3701-1.1668-.4812-1.5507-.0179-.0634-.0043-.131.0373-.1813.1891-.2298.4646-.5973.6256-.83022.0451-.06548.0599-.13775.0334-.19179-.0371-.07598-.0994-.19149-.1592-.29619-.0161-.02903-.0429-.05065-.0747-.06115l-.2175-.0698c-.0379-.01205-.0786-.01143-.1163.00216-.4738.17203-1.1111.42003-1.5011.58187-.057.02378-.0805.02564-.1496.01513-.1129-.01667-.4417-.07566-.6031-.10593-.029-.00556-.0435-.0383-.0287-.06393l.1913-.33171c.0259-.04478.0688-.07659.1194-.08802.6151-.14021 1.4286-.30143 2.2023-.43794zm-6.8069 1.52332c.0293-.0025.0571.0139.0685.0407.0385.0899.0281.1903-.0093.2762-.0145.0349-.0592.0688-.0959.0769l-.30696.0682c-.01851.004-.03547-.0108-.03424-.0296l.02869-.3608c.00216-.0244.02129-.0438.04566-.0457zm3.4926-2.3179c.0355-.00031.0577.03799.0401.06856l-.7484 1.29006c-.0416.07598-.1114.1325-.194.15752l-1.4034.43946c-.1628.0494-.3004.076-.4701.089-.3113.0235-1.2358.0525-1.2358.0525l.02036-.0439c.00956-.0207.02653-.037.04751-.046l.43743-.18592c.0327-.0139.0614-.03521.0833-.0627l.6756-.83265c.0361-.04448.0833-.0871.1336-.11366.4463-.23503 1.2401-.58805 1.796-.77397.0524-.01761.1231-.02873.1783-.02934zm-.7502-1.4981c1.5486-.1362 3.6441-.17326 5.6459-.02162.1139.00865.2246.03552.3298.07999.6558.27611 1.8195.88022 3.1133 1.62115.057.03274.1107.07103.1601.11458.3427.30236 1.2111 1.19185 1.2111 1.19185l-.2708-.05374c-.038-.00741-.0735-.02224-.1055-.04386-.5479-.36846-1.3478-.8481-2.0182-1.18629-.0796-.03984-.1656-.06547-.2542-.07474-.326-.0349-.7669-.06547-1.0553-.07721-.1422-.00587-.2391-.02965-.3782-.10038-.2659-.13496-.9101-.42744-1.2309-.55005-.1373-.05251-.2073-.06486-.3418-.0627-.5513.00803-1.8071.04818-2.4485.08802-.0222.00124-.0435.00031-.0651-.00309l-.3057-.04787c.8669-.14948 3.0096-.34066 3.8965-.38729l-.3609-.12076c-.0697-.02317-.1422-.03552-.2159-.03738-.1926-.00459-.6207-.01315-1.1765-.0139l-.1898.00005c-.8419.00164-1.925.02231-2.9239.09755-.0873.00649-.1724.02749-.2527.06301-.4035.17743-1.3874.71153-2.3742 1.26013l-.2191.12201c-.2551.1423-.5076.28387-.7473.41875 0 0 .1231-.15844.1469-.18932.0209-.02687.0274-.03181.0558-.05034.0396-.02603.175-.11531.3115-.2059l.1011-.06722c.082-.05461.1551-.10368.1963-.13209.0204-.0139.0334-.02378.059-.04293.297-.22423.7659-.61955 1.0454-.86447.0633-.05528.117-.11952.1611-.19118.0904-.14639.1891-.30514.2498-.39316.0519-.07629.1404-.12972.2509-.1396zm-6.59478-3.56223c.38252-.03953.59631.10933.59631.49694v.21434c0 .39656-.21379.55685-.59631.5967-.52906.05528-1.05812.1152-1.58626.18005v.58589c-.11075.01359-.2218.02718-.33255.04139v-1.89355c.63888-.08092 1.27838-.15474 1.91881-.22176zm17.75398-.0614c.8434.08216 1.6862.17666 2.5275.28291v.30545c-.3637-.04602-.7281-.08988-1.0927-.13126v1.58841c-.1107-.01267-.2215-.02502-.3329-.03737v-1.58841c-.3667-.04046-.7345-.07845-1.1019-.11428zm-14.011-.24887v.30515c-.69375.04293-1.38724.09389-2.0801.15288v.46636c.61636-.05282 1.23303-.09883 1.85001-.13837v.30545c-.61698.03954-1.23365.08555-1.85001.13806v.51176c.69286-.0593 1.38635-.11026 2.0801-.15288v.30514c-.80234.04942-1.6041.10995-2.40556.1813v-1.89386c.80146-.07135 1.60322-.13157 2.40556-.18099zm10.7907.51871c0-.42466.2104-.51207.6846-.47995.4164.02873.8323.05992 1.2484.09451.4119.03397.6836.14979.6836.58311v.84562c0 .42529-.2347.50188-.6836.46482-.4161-.03428-.832-.06578-1.2484-.0942-.4535-.03057-.6846-.11829-.6846-.56828zm-3.2265-.6605c.8033.01915 1.6063.04942 2.4093.0908v.30514c-.6941-.03551-1.3885-.063-2.0832-.08215v.46605c.6179.0173 1.2355.04077 1.8528.07073v.30545c-.6173-.02996-1.2349-.05374-1.8528-.07073v.51146c.6947.01915 1.3891.04663 2.0832.08246v.30514c-.803-.04107-1.606-.07134-2.4093-.0908zm-4.18-.00167v1.36975c0 .43331-.2274.52844-.6855.54264-.3988.01236-.7977.02718-1.1966.04509-.4251.01915-.6848-.06177-.6848-.49076v-1.36974l.3257-.01668v1.4275c0 .08679.0744.15751.1731.15288.5229-.0244 1.0455-.04416 1.5684-.0593.0993-.00278.1653-.07875.1653-.16554v-1.4275c.1114-.00309.2227-.00587.3344-.00834zm7.9057.47532c-.0991-.00679-.1734.0627-.1734.16184v.93643c0 .08678.0743.17789.1734.18469.5401.03582 1.0797.07659 1.6192.1223.0864.00741.1728-.07196.1728-.15844v-.93674c0-.09883-.0864-.18067-.1728-.18808-.5395-.04571-1.0791-.08648-1.6192-.122zm-6.4651-.49706c.5987-.00432 1.1975-.00216 1.796.00587v.30514c-.6398-.00834-1.2799-.01019-1.9201-.00494-.0866.00093-.1733.07598-.1733.16276v.94878c0 .08679.0867.17265.1733.17172.5741-.00494 1.1479-.00401 1.722.00248v-.51177c-.3331-.0037-.6663-.00556-.9992-.00525v-.30545c.4418 0 .8835.0034 1.3253.00988v1.12205c-.6207-.00926-1.2414-.01173-1.862-.00803-.4544.00309-.6855-.07536-.6855-.51701v-.82524c0-.41232.2064-.5479.6235-.55099zm-8.44333.77022-.02574.00051c-.56207.05806-1.12383.12138-1.68497.19025v.69707c.56114-.06856 1.1229-.13218 1.68497-.18994.08607-.00926.17245-.08802.17245-.17048v-.38359c0-.08679-.08638-.15227-.17245-.14331z" fill="#fff" fill-rule="evenodd"/></svg>