<svg fill="none" height="30" viewBox="0 0 30 30" width="30" xmlns="http://www.w3.org/2000/svg" xmlns:xlink="http://www.w3.org/1999/xlink"><clipPath id="a"><path d="m3 0h24v30h-24z"/></clipPath><g clip-path="url(#a)" fill="#fff"><path d="m25.9031 2.97114v.19292c-.7104-.27508-1.4366-.50702-2.1748-.69453v.44373c.7313.19293 1.4627.42444 2.1748.67524v.46302c-.7121-.23151-1.4435-.48231-2.1748-.69453-.0092.14777-.0092.29596 0 .44373.7313.23151 1.4819.44373 2.194.71383.0096.14131.0096.28312 0 .42443-.8853-.30868-1.7706-.59807-2.6367-.84887 0-.40515 0-1.92926 0-2.18007.5581.13505 1.9246.57878 2.6367.84888zm-3.2526-1.19614-.4042-.07717v.88746l-1.6937-.32798c0-.2701 0-.65595 0-.92604l-.4234-.05788v2.16077h.4427c0-.2701 0-.59807 0-.86817l1.6744.32798v.82958l.3849.13505c0-.67524 0-1.42766 0-2.12219zm-4.2534-.77171c-1.559-.501606-1.251.82958-1.2703 1.81351.4427.69453 1.9246.27009 2.5982.55948v-.40514c-1.3279-.25081-2.5597.23151-2.194-1.48553.1155-.38586 1.9246.15434 2.194.11575.0097-.14131.0097-.28312 0-.42443zm-5.0233 1.65917c.0265.13374.0265.27139 0 .40514h-.5004c0-1.00321-1.4242-.54019-1.9246-.5209v.67524l-.2502.11576v-2.21865c.7313 0 3.6953-.694536 2.3865 1.13826.0954.12361.1732.25998.231.40515zm-.6159-1.13827c0-.38585-1.5397 0-1.7129 0v.65595c.3849-.15434 1.9824.15434 1.7129-.65595zm-2.6944.01929c0 .40515.2694 1.75563-.34647 1.92927-.61588.17363-2.2903.82958-2.38653 0-.09623-.82959-.26945-1.73634.32719-1.81351.59663-.07717 2.27105-.733119 2.40581-.11576zm-.48119.38586c0-.50161-1.21252 0-1.55895 0s-.23095.96463-.30794 1.25402c-.07698.28939 1.40498-.11576 1.67442 0 .26945.11575.13473-1.0418.19247-1.25402zm6.69769-.17364c-.4812-.17363-1.9246.28939-1.9246-.28939 0-.578774 1.5204-.11575 2.117-.21221v-.385856c-.7313.057877-2.2133-.270097-2.5597.154336 0 .42444-.1732 1.27332.5581 1.08039.4235 0 2.1364-.19293 1.4435.5209-.6411-.03498-1.2836-.03498-1.9246 0v.38585c.9815-.15434 3.4258.59807 2.2903-1.25402zm-9.43065.48232c.44266 1.54341-1.42422 1.36977-2.32879 1.79421v.75241l-.57739.21222c-.04011-.73257-.04011-1.46679 0-2.19936.19246.11576 2.63673-1.2926 2.90618-.55948zm-.48116.67524c.21171-1.0418-1.55894.09646-1.92462.09646v.65595s1.96311-.44373 1.94387-.75241z"/><path d="m21.5725 21.5499c.5004-1.119 2.4827-.3473.8468.3086 0 .4245.8083.9454.4234 1.5434-.0213.0091-.0442.0137-.0674.0137-.0231 0-.046-.0046-.0673-.0137-.9431-1.5627-4.927-1.1189-5.1388.3087 0 .8296-.8083.5788-1.1355.3666-.6543.4437-1.3087-.5595-.6928-.9646-.5582-.4245.1539-1.1769.6928-.9068s.231.656.5967.3473c.3656-.3087.2309 0 .2502-.1544-.0886-.2091-.1198-.4381-.0903-.6634.0294-.2252.1185-.4385.2579-.6176s.3241-.3176.5349-.401c.2108-.0835.44-.1089.6639-.0736-.0962.3087-.6928.8875-.4234 1.3698.8853-.2701.6736-2.4695 2.3096-1.7749-.2887.3665-.9239.7524-.8661 1.3697.6159.2123 1.0393-2.3151 2.2133-.9453-.4427.1543-1.2895.9839-.3657.926.0193.0193.0385-.0193.0578-.0385z"/><path d="m19.9367 25.389c.4042-.8875 2.4443-1.0033.7891.4437.3464.1157.6159.8296.154.9067-.5242-.389-1.1706-.5759-1.8209-.5263s-1.2611.3324-1.7204.7964c.5581.4824 0 1.447-.6736.6946-.1925.2315-.5389.598-.8661.2894-.3272-.3087 0-.6367.1347-.8296-.1-.0431-.1816-.1202-.2304-.2178-.0488-.0975-.0617-.2092-.0364-.3153s.0872-.1998.1748-.2647c.0875-.0648.1951-.0966.3037-.0897.2502 0 .4234.5016.5774.1351-.4812-.5402 0-1.7364.7121-1.3698-.3079.2508-.3464 1.2154.1925.8296-.0902-.2813-.0799-.5852.0289-.8598.1089-.2745.3095-.5025.5677-.645 1.5782-.6174-.6736 1.4083.4812 1.0418 0-.791 1.4434-1.5627 1.8283-.8103-.3849.0193-1.3279.8681-.5966.791z"/><path d="m13.2774 6.01926c-.943-1.58199-2.0401.65595-3.0601.32798 0-.69454.7891-.94534 1.2317-1.23473-.3849-.48231-1.1547-.27009-1.57815 0-.65437.67524-.48115 1.60129-1.57819 1.46624 0-.65595.71211-.96463.96231-1.35048-1.17402-.46303-1.92462.73312-1.92462 1.69775-1.59743.75241-.82758-.65595 0-1.21544-1.80914-.57878-1.42422 1.60129-2.02085 2.14148-.38492-.59807-1.44346-.13505-1.11628.42444-.69286.46302-.15397 1.46624.57739.84887.0538.05542.11814.09948.18921.12955.07107.03008.14744.04558.22458.04558.07715 0 .15351-.0155.22458-.04558.07108-.03007.13541-.07413.18922-.12955.51964-1.77492 3.61828-1.92926 5.4852-2.10289.7506-.11576 1.4627.61736 1.9246.67524.1924-.65595-.4619-1.17685-1.0393-1.3119.2117-.38585.9623-.2508 1.3087-.36656z"/><path clip-rule="evenodd" d="m26.7306 16.2058c.1154-4.6303.2694-13.9293.2694-13.9293-7.7112-3.047377-16.2888-3.047377-24 0 .34643.84887-.48115 13.6977 1.0008 17.9035 5.40818 15.8778 21.344 10.9775 22.7298-3.9742zm-7.5253 2.3922h-.1155c.4157-.7065.6288-1.5142.6159-2.3344h6.5629c-.3079 6.3859-5.0617 12.9261-11.1627 13.2733v-8.6816h.4041c.0092.0787.0412.153.0921.2137s.1184.1051.1942.1277.1565.0224.2322-.0006.143-.0677.1936-.1286c.0759.0774.1784.1227.2866.1267.1081.0039.2137-.0338.2949-.1054.0813-.0716.1322-.1717.1422-.2797.0099-.108-.0217-.2157-.0885-.3011 2.2133-1.1961 5.6391-2.2186 7.6984-.135.5389-1.2734-1.2317-1.3119.5004-1.9293-.5004-1.1961-1.6744.2894-2.348 0 0-.3666.6159-.7138 1.0008-.791-.3464-1.0032-1.9246-.3087-2.0401.6174-.9431.2701-.2694-.7139.231-.9068-.5197-.8103-1.9247.2122-1.9247 1.119-.0577-.0193-.7313.0964-.7698.1157zm-11.29752 7.3312h6.81312v3.6077c-1.3179-.117-2.5992-.4964-3.7691-1.1159-1.16982-.6195-2.20469-1.4666-3.04402-2.4918zm4.02242-6.2508c.7917.6605 1.765 1.0642 2.7907 1.1576v1.5627h-9.27663c-.48286-.9113-.87606-1.8676-1.17402-2.8553h7.50605zm.5197-15.81991h2.271v5.78778h-3.8492c2.0786-.90675-.6351-1.36977-1.05855 0-1.44346.30868-.15397-.86816.42345-.94534-.71214-.65594-1.92465 0-1.92465 1.00322 0 .23151-.46191.17363-.63513.2508-.19246-.46302.50041-.94533.73136-1.21543-.84683-.48232-1.77065.65595-1.61668 1.50478-.88533.6753-.53889-.73308 0-1.04176-1.61668-.59807-.92382 1.63986-1.65517 1.77496-.03918-.057-.08917-.1058-.14713-.1434-.05795-.0376-.12274-.0635-.19065-.076s-.13762-.0115-.20515.0029c-.06753.0145-.13156.0421-.18843.0814-.11485.0793-.19356.2011-.21883.3386-.02526.1375.00499.2794.08411.3945-.48116.1158-.51965.9261 0 .9647.51965-.2701.73135.2315 1.23175 0 .40417-1.6206 3.17563-2.1222 4.8308-1.7942v1.2154c-.48116.3665-.71211 1.0611-1.42422.8103 0-.5402 1.27022-1.1383.71211-1.3698-.94306 0-1.5397.8296-1.55894 1.6785-1.0008.5016-.5004-.984 0-1.2155-.71211-.5788-1.75141.7524-1.34724 1.5627 0 .1544-.30793.1544-.42341.2315-.55814-.4437.80834-1.6398-.23096-1.389-1.03929.2508-.90457 1.0032-.53889 1.7942 0 0-.13472.1543-.17321.1929-.0385.0386-.42342-.6367-.76985-.3473s-.11548.5595 0 .8103c-.0661.0274-.1261.0677-.1765.1186-.0504.0508-.09019.1113-.11706.1777s-.04028.1376-.03945.2093c.00084.0717.0159.1425.04431.2083.21171.3279.63513.1736.90458 0 .26944-.1737.51964.3472.78909.0964.13472-1.6013 2.65597-2.0257 4.40734-2.0257v2.508h-6.67839c-.05774-2.7009-.13472-7.04177-.19246-10.05142 2.85531-1.14397 5.86544-1.8528 8.93025-2.10289zm13.8957 9.12541h-6.6399v2.9518h6.5822c.0192-.8489.0385-1.8521.0577-2.9132zm-11.2205-6.07718h11.336v2.81672h-11.336zm11.413-4.24437c-7.4195-2.938167-15.676-2.938167-23.09544 0v2.93248c7.38424-2.91352 15.59564-2.91352 22.97994 0 .0962-1.73634.1155-2.8746.1155-2.93248zm-11.5477 17.82635c5.3889.0965 4.2919-6.8682 4.3304-10.3601h-8.6223c0 3.4919-1.05856 10.4566 4.3304 10.3601z" fill-rule="evenodd"/><path d="m16.6456 20.5466c-.2895.0975-.5853.1749-.8853.2315.1154.3473.3271.0965.4811 0 .231.2894.6544.0965.4042-.2315z"/><path d="m13.5853 10.7266c.1155.3279-.1347 1.4083-.4234.598 0 0 0-.9646-.1539-.598-.231 1.3504.9815 1.3504.7313 0zm.8084 0c.3272-.193-.3657-.1544-.4427-.1544s0 .2122.1347.1544c0 1.1961.2502 1.1961.1733 0zm.7313 0c.3272-.193-.3849-.1544-.4619-.1544s0 .2122.154.1544c0 1.1961.231 1.1961.154 0zm.8661.3086c-.3079 0-.4811.193 0 .1544-.2502 1.1189-.9815-.791 0-.4052-.6928-.90672-1.0585 1.2733-.1155.8682.154-.0772.3465-.463.1155-.5595zm2.6367-.3086c.3465-.1737-.5388-.2316-.5196 0 .0192.2315.154 0 .2117 0 0 1.1961.2502 1.1961.1732 0zm-.9238.5594c.6929-.2508-.1154-1.0225-.4811-.6173 0 0-.1155 1.3505.1732.9453v-.2508h.154c.2117.463.5966.463.1539-.0193zm-.3079-.135v-.3666c.5389-.1157.5196.5402 0 .4245zm-.6544-.5016c-.2694-.463-.6928 1.8135-.2694.926h.3849c.4234.7524-.0385-.7717-.1155-.8681zm-.2694.7717.1732-.6174.1732.6174zm-4.3882-.2315c-.2117 0-.7506-.2701-.2694-.4052.3272.2122.5196 0 0-.1543-1.2703.2315 1.1163 1.0997-.231.8874-.6158.2123 1.0778.4438.4812-.3279zm.7122-.3859c.4234-.328-1.1356-.1157-.308 0 0 1.1962.2502 1.1769.154 0z"/><path d="m18.647 15.762c-.6351 0 0-.4437 0-.6366 0 .1929-.3849.2894-.4426 0-.0578-.2894.4811-.1158.3849-.3859-.8468.2122 0-.3858-.2502-.6945-.0962 0-.0962.3665-.2887.328-.1925-.0386.3464-.656.3464-.8682-.19.085-.3612.2074-.5033.3598s-.2524.3318-.3243.5276c-.1732-.135 0-.5594-.2502-.1929 1.0778 2.4309.4235 1.0611-1.3472 1.2733-.7891.193-1.0393-1.0996-.2309-1.0804.2694.2508.3079.1351.2117-.1736-.0963-.3087.1539-.2508.3272 0 .0384-.3858-.4812-.7138-.3272-.7138.1539 0 .3272.1543.3656 0 .0385-.1544-1.0585-.8296-.2309-.9454.1925 0-.4427-.1929-.5774 0-.1347.193-.7506-.1736-.3079-.4244-.4042 0-.6929.463-1.0971.5981-.4041.135-.5966 0-.4619.2315s.308 0 .154.1543c-.154.1544-.6351.2123-.8276.4245s.1155.1736.2502.1736-.1155.1351 0 .1929c.1155.0579.4042-.4051.6544-.135-.2071.4251-.4873.8104-.8276 1.1382-.7314-.791-1.1163.2701-1.3665.9261-.2502.6559.2117.5788.3272.1736.1155-.4051.6159-1.6784.9238-.3472.8661.2122 0 .2893-.3849.3279-.2887.328 0 1.9293.5196 1.8135 0-.1929.1155-.4437-.1539-.3665-.1761-.3545-.2745-.7426-.2887-1.1383.4426 0 .943.3087 1.3472 0 .4234.4823 1.097.2894 1.5974.4244.2887 1.3698.2118 1.1383-.9815 1.8136-.4812.4051.3464.6945.2117.135.4983-.1686.9568-.4378 1.3472-.791 0-.5788.1732-.4244.5004-.1736 1.1356.2894-1.6744 1.9292-.3464 1.6784 0-.463.1732-.2701.5196-.5209 0-.4244.5967-.598.6159-.9453-.7506-.6945.2887-1.2154.2502-1.9293.2695-.4244.8084.1737.9623-.2315zm-3.5798-1.6591c-.5004.7331 0-1.0804-.5773-1.2155.5966-.2894.6543.8103.5773 1.2155z"/></g></svg>