<svg fill="none" height="30" viewBox="0 0 30 30" width="30" xmlns="http://www.w3.org/2000/svg"><g fill="#fff"><path d="m26.7092 2.9802v.19293c-.7121-.2751-1.4401-.50704-2.1801-.69456v.44375c.7331.19293 1.4663.42445 2.1801.67527v.46304c-.7138-.23152-1.447-.48234-2.1801-.69456-.0092.14777-.0092.29597 0 .44375.7331.23152 1.4856.44375 2.1994.71385.0096.14133.0096.28314 0 .42446-.8875-.3087-1.775-.5981-2.6432-.84891 0-.40517 0-1.92935 0-2.18016.5595.13505 1.9294.5788 2.6432.84891zm-3.2606-1.1962-.4051-.07717v.8875l-1.6979-.32799c0-.27011 0-.65598 0-.92609l-.4244-.05788v2.16087h.4437c0-.27011 0-.5981 0-.86821l1.6786.32799v.82962l.3858.13506c0-.67528 0-1.42772 0-2.12228zm-4.2638-.77174c-1.5628-.501627-1.2541.82962-1.2734 1.81359.4438.69456 1.9293.27011 2.6046.55951v-.40516c-1.3312-.25082-2.566.23152-2.1994-1.4856.1157-.38587 1.9293.15435 2.1994.11576.0097-.14132.0097-.28314 0-.42446zm-5.0356 1.65924c.0265.13375.0265.27141 0 .40516h-.5017c0-1.00326-1.4277-.54021-1.9293-.52092v.67527l-.2508.11576v-2.21875c.7331 0 3.7043-.69456 2.3924 1.13832.0956.12361.1736.25999.2315.40516zm-.6174-1.13831c0-.38587-1.5435 0-1.7171 0v.65597c.3858-.15434 1.9872.15435 1.7171-.65597zm-2.7011.01929c0 .40516.2701 1.75571-.3473 1.92935-.61737.17364-2.2959.82962-2.39237 0s-.27011-1.73641.32799-1.81359c.5981-.07717 2.27658-.73315 2.41168-.11576zm-.4823.38587c0-.50163-1.21552 0-1.56281 0-.34728 0-.23152.96467-.30869 1.25408-.07717.2894 1.40842-.11577 1.6785 0 .2701.11576.1351-1.04185.193-1.25408zm6.7141-.17364c-.4823-.17364-1.9294.2894-1.9294-.2894 0-.578807 1.5242-.11576 2.1223-.21223v-.385871c-.7331.057881-2.2187-.270108-2.566.154351 0 .42445-.1736 1.27337.5595 1.08043.4245 0 2.1416-.19293 1.447.52092-.6426-.03497-1.2867-.03497-1.9293 0v.38587c.9839-.15434 3.4342.5981 2.2959-1.25407zm-9.45381.48234c.44375 1.54347-1.42771 1.36983-2.33451 1.79429v.75244l-.5788.21223c-.04021-.7326-.04021-1.46685 0-2.19945.19293.11576 2.6432-1.29267 2.91331-.55951zm-.48233.67527c.21222-1.04185-1.56277.09646-1.92935.09646v.65598c0 .0193 1.96793-.44375 1.94864-.75244z"/><path d="m22.3682 21.5598c.5016-1.119 2.4889-.3473.8489.3087 0 .4245.8103.9454.4245 1.5435-.0214.009-.0444.0136-.0676.0136s-.0461-.0046-.0675-.0136c-.9454-1.5628-4.9391-1.119-5.1513.3087 0 .8296-.8104.5788-1.1384.3665-.6559.4438-1.3119-.5595-.6945-.9646-.5595-.4245.1543-1.1769.6945-.9068.5403.2701.2316.656.5981.3473.3666-.3087.2316 0 .2509-.1544-.0889-.2091-.1201-.4382-.0906-.6634.0296-.2253.1189-.4386.2586-.6177.1398-.1791.3249-.3176.5362-.401.2114-.0835.4411-.1089.6656-.0736-.0965.3087-.6946.8875-.4245 1.3698.8875-.2701.6753-2.4695 2.3152-1.775-.2894.3666-.926.7525-.8682 1.3699.6174.2122 1.0419-2.3152 2.2188-.9454-.4438.1543-1.2927.984-.3666.9261.0193.0193.0386-.0193.0579-.0386z"/><path d="m20.7282 25.3992c.4052-.8875 2.4503-1.0033.7911.4438.3473.1157.6174.8296.1543.9067-.5254-.389-1.1734-.5759-1.8253-.5263s-1.2642.3323-1.7247.7965c.5595.4823 0 1.447-.6752.6945-.193.2315-.5403.5981-.8682.2894-.328-.3087 0-.6367.135-.8296-.1002-.0431-.182-.1202-.231-.2178-.0489-.0975-.0618-.2092-.0364-.3153s.0874-.1999.1751-.2647c.0878-.0648.1956-.0966.3045-.0897.2509 0 .4245.5016.5788.1351-.4823-.5403 0-1.7365.7139-1.3699-.3087.2508-.3473 1.2155.1929.8296-.0903-.2812-.0801-.5852.029-.8597.1092-.2746.3103-.5026.5691-.6452 1.5821-.6173-.6752 1.4085.4824 1.0419 0-.791 1.447-1.5628 1.8328-.8103-.3858.0193-1.3312.8682-.5981.791z"/><path d="m14.0527 6.02856c-.9454-1.58206-2.0451.65598-3.0677.32799 0-.69456.7911-.94538 1.2348-1.23478-.3858-.48233-1.1576-.27011-1.582 0-.65601.67527-.4824 1.60136-1.5821 1.4663 0-.65597.71386-.96467.9647-1.35054-1.17693-.46304-1.92937.73315-1.92937 1.69783-1.60136.75244-.82962-.65598 0-1.21549-1.81359-.5788-1.42772 1.60136-2.02581 2.14157-.38587-.59809-1.44701-.13505-1.11903.42446-.69456.46304-.15434 1.4663.57881.84891.05393.05543.11843.09948.18967.12956.07125.03008.1478.04558.22514.04558.07733 0 .15389-.0155.22513-.04558.07125-.03008.13574-.07413.18968-.12956.52092-1.775 3.62717-1.92934 5.49868-2.10299.7524-.11576 1.4663.6174 1.9293.67528.1929-.65598-.463-1.17691-1.0418-1.31196.2122-.38587.9646-.25082 1.3119-.36658z"/><path clip-rule="evenodd" d="m27.5388 16.2155c.1158-4.6304.2702-13.92987.2702-13.92987-7.7302-3.047507-16.3289-3.047507-24.059 0 .34728.84891-.48234 13.69837 1.00326 17.90437 5.42144 15.8785 21.39644 10.9779 22.78554-3.9745zm-7.5437 2.3924h-.1158c.4167-.7065.6304-1.5143.6174-2.3345h6.5791c-.3087 6.3861-5.0742 12.9266-11.1902 13.2739v-8.6821h.4052c.0091.0788.0412.1531.0922.2138s.1187.1051.1947.1277c.076.0225.157.0223.2328-.0006.0759-.023.1434-.0677.1941-.1286.076.0773.1788.1227.2872.1266.1084.004.2143-.0337.2957-.1053.0815-.0716.1325-.1717.1425-.2797s-.0217-.2158-.0887-.3011c2.2187-1.1962 5.653-2.2188 7.7174-.1351.5402-1.2734-1.2348-1.312.5016-1.9293-.5016-1.1962-1.6785.2894-2.3538 0 0-.3666.6174-.7139 1.0033-.7911-.3473-1.0032-1.9294-.3087-2.0451.6174-.9454.2701-.2701-.7138.2315-.9068-.5209-.8103-1.9294.2122-1.9294 1.119-.0578-.0193-.7331.0965-.7717.1158zm-11.32527 7.3315h6.82987v3.6079c-1.3211-.1171-2.6056-.4965-3.7783-1.116-1.1728-.6195-2.21017-1.4666-3.05157-2.4919zm4.03237-6.2511c.7936.6605 1.7692 1.0642 2.7975 1.1576v1.5628h-9.29943c-.48404-.9113-.8782-1.8677-1.1769-2.8554h7.52443zm.5209-15.8206h2.2766v5.78803h-3.8587c2.0837-.90679-.6367-1.36983-1.0611 0-1.44702.3087-.1544-.8682.4244-.94537-.7138-.65598-1.9293 0-1.9293 1.00326 0 .23152-.46305.17364-.63669.25081-.19293-.46304.50163-.94538.73315-1.21549-.84891-.48233-1.775.65598-1.62065 1.50486-.8875.6753-.54021-.73312 0-1.04182-1.62065-.59809-.92608 1.63992-1.65924 1.77502-.03927-.057-.08938-.1057-.14748-.1434-.0581-.0376-.12304-.0634-.19112-.076-.06808-.0125-.13796-.0115-.20566.0029-.0677.0145-.13188.0422-.18889.0814-.057.0393-.10572.0894-.14336.1475s-.06346.1231-.076.1911c-.01255.0681-.01155.138.00291.2057.01447.0677.04213.1319.0814.1889-.48234.1157-.52092.9261 0 .9647.52092-.2702.73315.2315 1.23478 0 .40516-1.6207 3.18342-2.1223 4.84265-1.7943v1.2154c-.4823.3666-.7138 1.0612-1.42771.8104 0-.5402 1.27341-1.1383.71391-1.3699-.94543 0-1.54353.8297-1.56282 1.6786-1.00326.5016-.50163-.984 0-1.2155-.71386-.5788-1.7557.7524-1.35054 1.5628 0 .1543-.3087.1543-.42446.2315-.55951-.4438.81033-1.64-.23152-1.3892-1.04185.2509-.90679 1.0033-.54022 1.7943 0 0-.13505.1544-.17364.193-.03858.0386-.42445-.6367-.77174-.3473-.34728.2894-.11576.5595 0 .8103-.06626.0274-.1264.0677-.17692.1186-.05053.0508-.09042.1113-.11736.1777-.02693.0664-.04038.1376-.03954.2093s.01594.1425.04442.2083c.21223.328.63669.1736.90679 0 .27011-.1737.52093.3473.79104.0964.13505-1.6013 2.66249-2.0258 4.41821-2.0258v2.5082h-6.69484c-.05788-2.7011-.13506-7.04214-.19294-10.05192 2.86233-1.14402 5.87988-1.85288 8.95218-2.10298zm13.9299 9.1258h-6.6563v2.9519h6.5984c.0193-.8489.0386-1.8522.0579-2.9133zm-11.2481-6.07744h11.3638v2.81685h-11.3638zm11.441-4.24456c-7.4377-2.938296-15.7144-2.938296-23.15215 0v2.93261c7.40245-2.91365 15.63395-2.91365 23.03635 0 .0965-1.73641.1158-2.87473.1158-2.93261zm-11.5761 17.8272c5.4022.0964 4.3025-6.8685 4.3411-10.3606h-8.6435c0 3.4921-1.0612 10.457 4.341 10.3606z" fill-rule="evenodd"/><path d="m17.4291 20.5565c-.2902.0975-.5867.1749-.8875.2316.1157.3472.328.0964.4823 0 .2315.2894.656.0964.4052-.2316z"/><path d="m14.3614 10.7362c.1158.328-.135 1.4084-.4245.5981 0 0 0-.9647-.1543-.5981-.2315 1.3505.984 1.3505.7332 0zm.8103 0c.328-.193-.3665-.1544-.4437-.1544s0 .2122.135.1544c0 1.1962.2509 1.1962.1737 0zm.7332 0c.328-.193-.3859-.1544-.4631-.1544-.0771 0 0 .2122.1544.1544 0 1.1962.2315 1.1962.1543 0zm.8682.3087c-.3087 0-.4823.1929 0 .1543-.2508 1.119-.984-.791 0-.4052-.6946-.90674-1.0612 1.2734-.1158.8683.1544-.0772.3473-.4631.1158-.5596zm2.6432-.3087c.3473-.1737-.5402-.2316-.5209 0 .0193.2315.1543 0 .2122 0 0 1.1962.2508 1.1962.1736 0zm-.9261.5595c.6946-.2508-.1158-1.0226-.4823-.6174 0 0-.1158 1.3505.1736.9454v-.2508h.1544c.2122.463.5981.463.1543-.0193zm-.3087-.5017c.5402-.1157.5209.5403 0 .4245zm-.656-.135c-.2701-.463-.6945 1.8136-.2701.9261h.3859c.4245.7524-.0386-.7718-.1158-.8682zm-.2701.7717.1737-.6174.1736.6174zm-4.3989-.2315c-.2122 0-.7524-.2701-.2701-.4052.328.2123.5209 0 0-.1543-1.2734.2315 1.119 1.0997-.2315.8875-.6174.2122 1.0804.4438.4823-.328zm.7139-.3859c.4244-.3279-1.1383-.1157-.3087 0 0 1.1962.2508 1.1769.1543 0z"/><path d="m19.4356 15.7718c-.6367 0 0-.4438 0-.6367 0 .1929-.3859.2894-.4438 0-.0578-.2894.4824-.1158.3859-.3859-.8489.2122 0-.3859-.2508-.6946-.0965 0-.0965.3666-.2894.328s.3473-.6559.3473-.8682c-.1906.0851-.3621.2074-.5046.3599-.1425.1524-.253.3318-.325.5276-.1737-.135 0-.5595-.2509-.1929 1.0805 2.431.4245 1.0611-1.3505 1.2734-.791.1929-1.0419-1.0998-.2315-1.0805.2701.2508.3087.1351.2122-.1736s.1543-.2508.328 0c.0386-.3859-.4823-.7139-.328-.7139s.328.1544.3666 0c.0386-.1543-1.0612-.8296-.2315-.9454.1929 0-.4438-.1929-.5788 0-.1351.193-.7525-.1736-.3087-.4244-.4052 0-.6946.463-1.0998.5981-.4051.135-.5981 0-.463.2315.135.2315.3087 0 .1543.1544-.1543.1543-.6367.2122-.8296.4244s.1158.1737.2508.1737c.1351 0-.1157.135 0 .1929.1158.0579.4052-.4052.656-.1351-.2076.4252-.4884.8105-.8296 1.1384-.7332-.7911-1.119.2701-1.3698.926-.2509.656.2122.5788.3279.1737.1158-.4052.6174-1.6786.9261-.3473.8682.2122 0 .2894-.3858.328-.2894.328 0 1.9293.5209 1.8136 0-.193.1157-.4438-.1544-.3666-.1765-.3545-.2751-.7426-.2894-1.1383.4438 0 .9454.3087 1.3506 0 .4244.4823 1.0997.2894 1.6013.4244.2894 1.3699.2123 1.1383-.9839 1.8136-.4824.4052.3472.6946.2122.1351.4995-.1687.9591-.4379 1.3505-.7911 0-.5788.1737-.4244.5017-.1736 1.1383.2894-1.6786 1.9293-.3473 1.6785 0-.463.1736-.2701.5209-.5209 0-.4244.5981-.5981.6174-.9454-.7524-.6945.2894-1.2155.2508-1.9293.2701-.4245.8103.1736.9647-.2315zm-3.5886-1.6593c-.5016.7332 0-1.0804-.5788-1.2155.5981-.2894.656.8104.5788 1.2155z"/></g></svg>