<svg fill="none" height="30" viewBox="0 0 30 30" width="30" xmlns="http://www.w3.org/2000/svg"><g fill="#fff"><path d="m25.3107 1.4224c-1.6825-.1705-6.1243-.4224-10.311-.4224-4.1868 0-8.62861.2519-10.31108.4224-1.91955.19296-2.81362 1.17739-2.81362 3.09572 0 3.64513.13348 9.31738.38029 12.65098.219 2.9701.39281 5.3164 4.0574 7.5639 2.62312 1.6082 5.23091 2.9848 8.62651 4.7558l.0598.0309.059-.0309c3.4039-1.7752 6.0159-3.1554 8.6279-4.7558 3.6667-2.2489 3.8391-4.5938 4.0581-7.5632.2475-3.3498.381-9.01848.381-12.65168 0-1.91763-.8955-2.90206-2.8143-3.09572zm1.2966 15.6653c-.2107 2.8438-.349 4.7228-3.5116 6.6615-2.4827 1.5233-4.6727 2.6853-7.9827 4.4163l-.112.0596-.1119-.0596c-3.205-1.6763-5.49305-2.8888-7.98338-4.4163-3.16471-1.9394-3.30376-3.8191-3.51372-6.6643-.24402-3.3161-.37542-8.94902-.37542-12.56607 0-1.32474.45051-1.81801 1.78745-1.95272 1.66369-.1677 6.05617-.41679 10.19767-.41679 4.1416 0 8.532.24909 10.1964.41679 1.3369.13542 1.7874.62798 1.7874 1.95272 0 3.61495-.1328 9.24647-.3782 12.56887z"/><path d="m14.8231 9.51886-.3942 1.34014c-1.4315-2.95116-3.1369-4.49902-5.20318-4.49902-2.23379 0-3.32739 1.50717-3.65068 1.9843.57635-1.45525 2.08918-2.73086 4.10745-2.73086 2.76361 0 4.32441 2.20181 5.14061 3.90544z"/><path d="m20.3196 5.61342c2.0183 0 3.5318 1.27561 4.1074 2.73086-.3232-.47713-1.4168-1.9843-3.6513-1.9843-2.0656 0-3.771 1.54786-5.2025 4.49902l-.3949-1.34014c.8162-1.70363 2.3791-3.90544 5.1413-3.90544z"/><path d="m22.0876 8.31621c-1.8076 0-3.5735 1.45314-4.6296 4.81129l.6834.4778-.3274 1.6503-1.2765.534-.2329 1.6222.6222-.769.6682-.2814-.2079 1.0476-1.1513.4814-.404 2.8059.2823.8953-1.1131.4442-1.113-.4442.2815-.8953-.4032-2.8059-1.152-.4814-.2072-1.0476.6674.2814.623.769-.2336-1.6222-1.2765-.534-.3274-1.6503.6834-.4778c-1.0554-3.35815-2.82128-4.81129-4.62959-4.81129-2.23448 0-3.15914 2.13799-3.03956 3.90549h.53672c.44912 2.4915 1.70541 4.6028 2.65093 4.6028.28852 0 .44078-.2203.44078-.5837 0-.8813-.59512-1.8019-.59512-3.4824 0-.7753.24889-1.2595.82524-1.2595.39211 0 .71331.4182.90589.8715-.3504 1.2588-.29617 2.3085.69521 2.7554.4916.221 1.0846.4842 1.0846.4842s.6306 2.6943.6765 2.8873c.0424.1768.148.4203.228.5669.1175.2035.9434 1.6335.9434 1.6335s.2816 1.4265.3414 1.7289c.1634.8195.7411.8202 1.3925.8195.6508.0007 1.2299 0 1.3919-.8195.0598-.3031.3414-1.7289.3414-1.7289s.8266-1.43.9434-1.6335c.08-.1466.1863-.3901.228-.5669.0452-.193.6765-2.8873.6765-2.8873s.593-.2632 1.0839-.4842c.9928-.4469 1.0456-1.4966.6952-2.7554.1926-.4533.5131-.8715.9052-.8715.5771 0 .8259.4842.8259 1.2595 0 1.6805-.5951 2.6018-.5951 3.4824 0 .3634.1523.5837.4401.5837.9455 0 2.2018-2.1113 2.6509-4.6028h.5368c.1202-1.7675-.8051-3.90549-3.0396-3.90549m-11.3629 6.32339c-.7043-.3038-.77522-1.1416-.5395-2.2608l.7703 1.223.2857 1.263s-.2781-.1228-.5165-.2252zm8.5528 0c-.2392.1031-.5159.2245-.5159.2245l.285-1.263.7704-1.223c.2349 1.1199.1647 1.9584-.5395 2.2615z"/><path d="m4.46545 12.5416c.01668 4.9158 1.43496 7.2804 3.54987 7.2804.98028 0 1.68038-.6237 1.68038-1.6341 0-.8652-.37056-1.5493-.52142-1.8265.0584.2828.10845.6042.10845.9662 0 .8483-.56592 1.1199-1.02894 1.1199-1.40647 0-2.81501-2.7604-3.21269-5.9059-.17589 0-.58052 0-.57565 0z"/><path d="m24.9589 12.5416c-.397 3.1462-1.8048 5.9059-3.212 5.9059-.463 0-1.0296-.2716-1.0296-1.1199 0-.362.0507-.6834.1084-.9662-.1501.2772-.5207.9613-.5207 1.8265 0 1.0104.7008 1.6341 1.6804 1.6341 2.1142 0 3.5332-2.3646 3.5485-7.2804 0 0-.3984 0-.575 0z"/></g></svg>