<svg fill="none" height="30" viewBox="0 0 30 30" width="30" xmlns="http://www.w3.org/2000/svg"><path d="m15.335 19.0697c.3655-.3787.6699-.8373 1.1199-1.1199 2.0067.115 4.0179.1864 6.0218.3451-1.2073.7937-2.5005 1.4578-3.8156 2.0549-1.0194.4266-2.0971.8694-3.2242.7748-.3568-.0424-.8461-.2272-.8519-.651-.019-.565.415-.9991.75-1.4039zm7.7446-.7063c.7005-.5272 1.4155-1.0399 2.1321-1.5481-.2214 2.1248-1.1316 4.1883-2.5864 5.7597-1.8379 2.065-4.5773 3.2753-7.3355 3.3189-1.9922.0015-4.0078-.5213-5.67814-1.6252-1.69512-1.0951-3.05826-2.7072-3.83591-4.5699.71506.0844 1.42133.2287 2.13639.3058 1.42715 2.2864 3.92326 3.9306 6.64666 4.0572 2.9199.2433 5.8835-1.2276 7.4926-3.6683.4486-.6204.702-1.3472 1.0282-2.0301zm-18.02617-2.1394c.56065-.3072 1.14758-.5636 1.73011-.8257.01743.5024.03635 1.0049.06263 1.5073-.6219.0145-1.24666-.0203-1.86268-.1078.01897-.1922.01017-.3888.06994-.5738zm9.08157-1.0441c3.9873-.1938 7.9732.1136 11.9475.4005-.8693.7893-1.7723 1.5728-2.7844 2.1728-2.1175-.0554-4.2364-.2258-6.3539-.3364.3757-.5141.8679-.9233 1.267-1.417-2.0404-.1166-4.085.0481-6.1238.115-.8476.0393-1.9544.1995-2.52518-.5883 1.51448-.2286 3.04798-.2563 4.57278-.3466zm-1.682-3.8156c5.681-1.64993 11.8135-1.79412 17.547-.3189v.2941c-.9335 1.136-1.8481 2.2981-2.9228 3.3059-.2986.3248-.7646.1733-1.149.185-2.151-.1529-4.3078-.1325-6.4603-.2069.3889-.5883.8244-1.1475 1.1768-1.7621-1.8874-.265-3.8112-.2009-5.7015.0161-3.3088.4048-6.54174 1.3748-9.55773 2.7917-.73546.3684-1.50589.6858-2.16849 1.1854 1.06019.3859 2.20781.2753 3.30579.4209.3146.1645.53743.4558.78638.702.57241.6218 1.22044 1.1708 1.76656 1.8174-1.31793-.0816-2.61844-.3262-3.91455-.5664-1.76216-.3584-3.53158-.785-5.16116-1.5642v-.233c.490697-.4952 1.06311-.8972 1.62815-1.3005 3.27521-2.2428 7.0106-3.7239 10.82485-4.7665zm1.9106-5.7393h1.4242c2.8981.24323 5.7394 1.70096 7.4447 4.08497-.7063.00721-1.4126.01749-2.1174-.01023-.3467.01166-.5753-.28684-.836-.46743-1.8131-1.48258-4.2815-2.06363-6.5781-1.66895-2.3506.36844-4.46944 1.85532-5.7001 3.87964-.2489.3961-.40766.8417-.66541 1.232-.66122.4136-1.41555.6597-2.12626.9787.67277-3.4107 3.28984-6.31317 6.55197-7.46217.8417-.29564 1.7272-.42234 2.6024-.56648" fill="#fff"/></svg>