<svg fill="none" height="30" viewBox="0 0 30 30" width="30" xmlns="http://www.w3.org/2000/svg"><g fill="#fff"><path d="m14.0308.00492781c-.3903.72924219-5.65146 10.57127219-7.91773 14.79997219-.07855.1462-.07251.2519.00423.3951 2.22035 4.1434 6.7203 12.5488 6.7668 12.6273.0465-.0779 4.5464-8.4839 6.7668-12.6267.0767-.1432.0833-.2489.0042-.3951-1.2706-2.363-2.5327-4.7307-3.8033-7.09368-.0816-.15105-.087-.26403-.0024-.41628.3492-.62955.6839-1.26696 1.038-1.92793.0501.08519 3.4172 6.37049 5.0684 9.44989.0695.1293.0755.226.0042.3595-2.613 4.8764-5.2219 9.7551-7.8277 14.6356-.0695.1305-.1402.1897-.2984.1873-.6453-.0108-1.2912-.0078-1.9364-.0018-.1197.0012-.1831-.0368-.2393-.1432-2.6191-4.9047-5.24063-9.8082-7.86518-14.7099-.05437-.1021-.05921-.1782-.00302-.284 2.62516-4.90285 5.24608-9.80636 7.8712-14.708048.0333-.0616265.1112-.140774.1692-.1413782.7202-.01027102 1.4404-.00664599 2.2004-.00664599z"/><path d="m17.0155 3.00767c-1.2012 2.23848-4.512 8.42283-6.3167 11.79113-.0768.1438-.0822.2495-.0036.3951 1.2705 2.3636 2.5327 4.7307 3.8032 7.0937.0816.1516.0858.264.0013.4163-.3493.6295-.684 1.2669-1.0386 1.9285-.0472-.0798-3.4136-6.3656-5.06847-9.4512-.06948-.1293-.07492-.2259-.00362-.3594 2.61249-4.87576 5.22129-9.75449 7.82709-14.635037.0701-.1311065.1414-.18910731.2985-.1866906.6453.0108752 1.2911.00785424 1.9364.00181246.1202-.00120836.1824.03806304.2392.14379414 2.6197 4.904711 5.2413 9.808221 7.8658 14.709921.055.1021.0586.1788.0024.284-2.6245 4.9016-5.2454 9.8052-7.8706 14.7068-.0332.0617-.1112.1402-.1692.1408-.7201.0097-1.4403.0061-2.1949.0061.0495-.0967 5.3131-9.9478 7.9129-14.8.0785-.1462.0725-.2519-.0048-.3951-2.2204-4.1435-6.7203-12.54877-6.7668-12.62671-.0085.0145-.1734.32081-.4495.83618z"/></g></svg>