<svg fill="none" height="30" viewBox="0 0 30 30" width="30" xmlns="http://www.w3.org/2000/svg"><g clip-rule="evenodd" fill="#fff" fill-rule="evenodd"><path d="m22.5188 21.9937c.1075-.0047.2131-.0309.3104-.0771s.1843-.1115.256-.1919c.0716-.0804.1264-.1743.1612-.2762.0347-.102.0487-.2098.0411-.3173.0037-.1298-.0207-.2589-.0716-.3784s-.127-.2266-.2232-.3139-.2102-.1527-.3341-.1918c-.1238-.0391-.2547-.0509-.3836-.0346h-3.3v2.7187l-1.1625-2.7187h-2.0437l-1.0875 2.4187-.9938-2.4562h-2.0062l-.9375 2.2875c-.1125-.6563-.75004-.9188-2.19379-.9188-.58125 0-.80625-.1312-.80625-.375 0-.2437.2625-.3562.61875-.3562s.65625 0 .65625.4687h1.61254c0-.9937-1.08754-1.1812-2.26879-1.1812s-2.15625.225-2.15625 1.2562c0 1.0313.80625 1.0875 1.875 1.0875.76875 0 .91875.1875.91875.4125s0 .3563-.69375.3563-.675-.2625-.675-.4875h-1.575c0 .9937 1.10625 1.2562 2.325 1.2562s1.66874-.225 1.87504-.4312l-.1313.3375h1.4063l.2625-.5813h1.875l.2625.5813h1.7437l.2625-.5813h1.875l.225.5813h4.4813c.2635 0 .5163-.1047.7026-.2911.1864-.1863.2911-.4391.2911-.7026-.0021-.1257-.03-.2496-.082-.364-.0519-.1144-.1267-.217-.2199-.3014-.0931-.0843-.2026-.1487-.3216-.189-.119-.0404-.245-.0559-.3702-.0457zm-10.35.4875.5437-1.3874.5625 1.3874zm4.0875 0 .5437-1.3874.5813 1.3874zm4.05-1.3874h1.1812c.0648.0086.1246.0395.1691.0874s.0709.1098.0747.175c.0025.0345-.0018.0692-.0127.102-.0108.0329-.0281.0632-.0508.0893-.0226.0262-.0502.0476-.0811.063-.031.0155-.0647.0246-.0992.027h-1.1812zm1.2375 1.875h-1.2375v-.5251h1.2375c.0366-.0058.0741-.0032.1096.0076s.068.0296.0951.0549c.0272.0254.0482.0565.0614.0912.0133.0347.0184.0719.0151.1088-.0047.0664-.0345.1284-.0832.1737-.0487.0452-.1128.0703-.1793.0701z"/><path d="m9.50626 10.8c.58124 0 1.23754-.375 1.63124-.375.3654-.0233.7282.0757 1.0313.2813-.1162-.2322-.2921-.4292-.5095-.5709-.2175-.14166-.4688-.22291-.728-.2354-.4875 0-.99379.2625-1.68754.2625-.54055-.0321-1.04926-.26633-1.425-.65625.1172.36115.34129.67825.64262.90925.30132.231.66568.3651 1.04488.3845z"/><path d="m11.4188 9.50625c.2167.28711.5295.48675.8812.56255.2548.0788.5001.1857.7313.3187-.1782.2914-.4253.5345-.7196.7078s-.6267.2715-.9679.286c-.2166.0009-.4312-.0417-.6309-.1255s-.3805-.2069-.5316-.3621c0 1.0313.2625 1.7063 1.4062 1.7251-.4131.7684-.5707 1.6484-.45 2.5124.2007-.5032.5913-.9073 1.0875-1.125-.3091.4552-.4845.9878-.5062 1.5375.0229.4338.1467.8563.3616 1.2339.2148.3775.5147.6998.8759.9411.0478-.722.2663-1.4225.6375-2.0437.1221 1.259.0141 2.5297-.3188 3.75 1.0823-.1776 2.0624-.7444 2.7563-1.5938.2835-.7401.3926-1.5358.3187-2.325.337.423.603.898.7875 1.4063.3844-.2064.7069-.5115.9343-.8839.2273-.3724.3514-.7986.3595-1.2349-.0119-.3434-.0686-.6838-.1688-1.0125.2904.2299.5379.5092.7313.8251l.1312-.3563c.2326-.515.3322-1.0801.2896-1.6436s-.226-1.1072-.5333-1.5814c.3173.1037.6247.2355.9187.3938.1057-.5662.074-1.1495-.0924-1.70084-.1663-.55138-.4626-1.05479-.8638-1.46796.2346-.33243.4297-.69111.5812-1.06875h-.225-.4125c-.307-.00993-.6128.04105-.9.15-.0848-.13076-.1856-.25043-.3-.35625l1.5375-3.75c-.6375 0-1.3125.3-1.3125.84375.0184.19981.0968.38937.225.54375-.0565-.06526-.1254-.11873-.2026-.15734s-.1613-.0616-.2474-.06766c-.0916-.01588-.1855-.01155-.2752.0127-.0897.02424-.1731.06781-.2442.12765s-.1283.13451-.1675.21876c-.0392.08426-.0595.17608-.0595.26901 0 .09294.0203.18476.0595.26902.0392.08425.0964.15892.1675.21876s.1545.10341.2442.12765c.0897.02425.1836.02858.2752.0127h.0938c-.2699.25416-.6233.40088-.9938.4125-.2363-.00818-.4664-.0783-.6671-.20334-.2008-.12504-.3651-.30062-.4766-.50916.122.08236.2652.12791.4125.13125.0818.00513.1639-.00659.2411-.03444s.1478-.07123.2076-.12747c.0597-.05623.1073-.12412.1398-.19948.0324-.07535.0491-.15656.049-.23861-.0024-.16851-.0696-.32964-.1875-.45-.057-.06197-.1267-.11083-.2044-.14321-.0777-.03237-.1615-.04748-.2456-.04429h-.2813c.0591-.05123.1064-.1146.1388-.18579.0323-.07119.049-.14851.0487-.22671 0-.16908-.0672-.33123-.1867-.45078-.1196-.11956-.2817-.18672-.4508-.18672s-.3312.06716-.4508.18672c-.1195.11955-.1867.2817-.1867.45078-.0191.08012-.0191.16362 0 .24375.0395.08089.0973.1515.1688.20625-.106-.06783-.2306-.10063-.3563-.09375-.1691 0-.3312.06716-.4508.18672-.1195.11955-.1867.2817-.1867.45078-.0002.08205.0165.16326.049.23861.0325.07536.08.14325.1398.19948.0597.05624.1304.09962.2076.12747.0771.02785.1592.03957.2411.03444.0683.00692.1373-.00125.2021-.02393s.1238-.05932.1729-.10732c-.0912.2097-.2441.38664-.4384.50723s-.4207.17912-.6491.16777c-.1829.0126-.3663-.01438-.5378-.07909-.1715-.06472-.327-.16565-.4559-.29591h.1125c.1092.00549.218-.01722.3159-.06595.098-.04873.1817-.12183.2432-.21227.0615-.09045.0987-.1952.108-.30418s-.0095-.21852-.0548-.3181c-.0453-.09957-.1154-.18582-.2036-.25046s-.1916-.10549-.3002-.11863c-.1086-.01313-.2187.0019-.3198.04364s-.1898.10879-.2575.1947c.1119-.16027.1768-.34858.1875-.54375 0-.54375-.675-.84375-1.3312-.84375l1.5937 3.75c.0613-.01771.1263-.01771.1875 0-.3187 0-.6.45-.675.84375-.402-.28141-.8782-.43794-1.3687-.45-.6938 0-1.59379.58125-1.68754 2.4375.46481-.28078.99464-.43586 1.53754-.45.1149-.0174.2324-.00782.343.02798.1107.03579.2115.09682.2945.17827z"/><path d="m15 0c-2.9667 0-5.86681.879734-8.33354 2.52796-2.46674 1.64822-4.38933 3.9909-5.52465 6.73179-1.13531078 2.74085-1.432361 5.75685-.853582 8.66665.578778 2.9097 2.007392 5.5824 4.105182 7.6802 2.09778 2.0978 4.77053 3.5264 7.68029 4.1052 2.9097.5788 5.9257.2817 8.6666-.8536s5.0835-3.0579 6.7318-5.5246c1.6482-2.4668 2.5279-5.3669 2.5279-8.3336 0-3.9782-1.5803-7.79356-4.3934-10.6066-2.813-2.81305-6.6283-4.3934-10.6066-4.3934zm0 28.3875c-2.6523 0-5.245-.7867-7.45005-2.2607-2.20505-1.4739-3.92335-3.5688-4.93748-6.0195-1.01414-2.4508-1.27853-5.1473-.75973-7.7484.51881-2.60105 1.79749-4.98978 3.67427-6.86393 1.87677-1.87415 4.26729-3.14949 6.86909-3.66466 2.6018-.51516 5.2979-.24699 7.7473.77057 2.4493 1.01756 4.5418 2.73879 6.0126 4.9459 1.4709 2.20712 2.254 4.80092 2.2503 7.45322 0 1.7597-.3469 3.502-1.0209 5.1275s-1.6617 3.1021-2.9069 4.3455c-1.2451 1.2434-2.7231 2.2291-4.3496 2.9008-1.6264.6717-3.3692 1.0162-5.1289 1.0137z"/></g></svg>