<svg fill="none" height="30" viewBox="0 0 30 30" width="30" xmlns="http://www.w3.org/2000/svg"><path d="m9.92671 1.95673c5.63919-.20579 11.28399-.00146 16.91329.3729.5927.05327 1.1931.04889 1.7766.17806.3157.07881.6568.20359.8415.5006.1684.32328.1719.70055.2156 1.05667.1339 1.74919.1734 3.50569.2995 5.25488-.2438.03065-.4876-.00802-.7315-.01605-4.3418-.23279-8.6871-.42617-13.0359-.43201-2.2523.00657-4.5074-.01605-6.7576.09706-.54545.08319-1.16279.27219-1.4778.77571 1.70261.31305 3.4017.65095 5.1036.96985 5.6406 1.0931 11.2854 2.1622 16.926 3.2539-.0049 1.1078-.0028 2.2155-.0007 3.3233-3.172-.5437-6.3383-1.1304-9.5081-1.6916-6.8196-1.2172-13.63708-2.4512-20.4587823-3.6567.0133897-1.2296.0641292-2.45854.0887943-3.68888.042988-.97421.016209-1.96155.229035-2.91825.143058-.67501.408034-1.35367.902043-1.83603.85271-.87424 2.08598-1.12016 3.23397-1.24349 1.80902-.17368 3.62579-.2306 5.44045-.29992zm-9.92671 11.60437c9.77026 1.8667 19.537 3.7648 29.3058 5.6424.2136.054.4419.0584.647.1394l.0246.0584c-.0535 1.6594-.0845 3.3203-.1423 4.9797-.0374 1.0239-.1417 2.0951-.6505 2.9971-.5454.9326-1.5616 1.4485-2.5673 1.6434-1.482.2882-2.9957.3072-4.4968.3926-6.4588.3035-12.93093.1357-19.37913-.324-.51515-.0373-1.03947-.0467-1.53982-.1949-.259337-.0846-.527131-.2211-.673713-.4692-.157153-.3255-.167019-.6969-.205779-1.0516-.138125-1.936-.211416-3.8756-.3093725-5.8138 3.3262845.2189 6.6582045.3415 9.9908145.4181 3.2178.054 6.4355.0533 9.6533.0861.6941.0299 1.4447-.1073 1.9711-.6122.0768-.0913.2016-.1759.1889-.3124-1.4503-.2255-2.8922-.5057-4.3397-.7523-5.8238-1.0312-11.65046-2.0528-17.47357618-3.0898-.00704721-1.2456.00140923-2.4913-.00352382-3.737z" fill="#fff"/></svg>