<svg fill="none" height="30" viewBox="0 0 30 30" width="30" xmlns="http://www.w3.org/2000/svg"><g clip-rule="evenodd" fill="#fff" fill-rule="evenodd"><path d="m25.907 22.3009c1.4441-2.1573 2.216-4.6945 2.218-7.2906.0027-3.4801-1.3768-6.81878-3.8351-9.28198-2.4584-2.46319-5.7944-3.84922-9.2745-3.85331-2.5961-.00305-5.13475.76386-7.29495 2.20374s-3.84487 3.48805-4.84094 5.88546c-.99607 2.39739-1.25879 5.03639-.75494 7.58309s1.75165 4.8869 3.58557 6.7244c1.83391 1.8375 4.17157 3.0899 6.71736 3.5987 2.5457.5089 5.1852.2513 7.5845-.7401 2.3994-.9913 4.4508-2.672 5.895-4.8294zm-.2524-.1816c1.406-2.1043 2.1565-4.5782 2.1565-7.1089.0007-1.6806-.3298-3.3448-.9726-4.8975-.6428-1.55279-1.5853-2.96364-2.7737-4.15197-1.1883-1.18833-2.5992-2.13083-4.1519-2.77363-1.5528-.64281-3.217-.97331-4.8975-.97264-2.5308 0-5.0047.75046-7.10893 2.15647-2.10425 1.40601-3.7443 3.40443-4.71278 5.74257-.96848 2.3381-1.22188 4.9109-.72815 7.393.49372 2.4821 1.7124 4.7621 3.50191 6.5516s4.06945 3.0082 6.55165 3.5019c2.4821.4937 5.0549.2404 7.393-.7281s4.3365-2.6086 5.7425-4.7128z"/><path d="m24.906 21.6191c1.3071-1.9562 2.0048-4.256 2.0048-6.6087 0-3.1548-1.2533-6.18045-3.4841-8.41126-2.2308-2.2308-5.2564-3.48406-8.4113-3.48406-2.3526 0-4.6525.69765-6.60867 2.00473-1.95617 1.30707-3.48083 3.16487-4.38116 5.33849-.90033 2.1736-1.13589 4.5653-.67691 6.8728.45898 2.3074 1.5919 4.427 3.2555 6.0906 1.66359 1.6636 3.78314 2.7965 6.09064 3.2555 2.3074.459 4.6992.2234 6.8728-.6769 2.1736-.9004 4.0314-2.425 5.3384-4.3812zm-.877-.5857c1.1911-1.7827 1.8269-3.8786 1.8269-6.0227 0-2.8751-1.1421-5.63244-3.1751-7.66545s-4.7904-3.17514-7.6655-3.17514c-2.144 0-4.24.63579-6.02269 1.82697-1.78273 1.19118-3.1722 2.88425-3.9927 4.86512-.8205 1.9809-1.03517 4.1605-.61689 6.2634.41829 2.1029 1.45076 4.0345 2.96684 5.5506 1.51609 1.5161 3.44774 2.5485 5.55054 2.9668 2.1029.4183 4.2826.2036 6.2634-.6169 1.9809-.8205 3.674-2.2099 4.8652-3.9927z"/><path d="m20.3147 18.7512c1.1039.1789 2.1289.6842 2.943 1.451.0286.0282.0513.0618.0668.0989.0156.0371.0235.0769.0235.1171 0 .0403-.0079.0801-.0235.1172-.0155.0371-.0382.0707-.0668.0989-.8144.7654-1.8395 1.269-2.943 1.4458-.0373.0059-.0755.0037-.1118-.0065-.0364-.0101-.0702-.0281-.099-.0525s-.052-.0548-.068-.089-.0245-.0715-.0247-.1093v-.4424c0-.0277-.0056-.0552-.0167-.0806-.011-.0254-.0272-.0482-.0475-.0671-.0203-.0188-.0442-.0333-.0704-.0424s-.0539-.0127-.0815-.0106h-8.9833c-.0745-.0072-.1495.0071-.2161.0412l-1.12673.6585c-.06639.0412-.14313.0626-.22124.0618h-1.1885c-.03631.0032-.07276-.0043-.10479-.0217s-.05822-.0439-.07529-.0761c-.51775-.8626-1.11181-1.6771-1.77504-2.4336-.05835-.054-.09833-.1249-.11432-.2028-.016-.0779-.0072-.1588.02514-.2315.03235-.0726.08662-.1333.15521-.1735s.14806-.058.22724-.0508h2.73202c.06826.0019.13518.0195.19551.0515l1.73389.8129c.0734.0463.1587.0702.2455.0688.0868-.0013.1713-.0279.2433-.0764s.1283-.1169.1621-.1969c.0338-.0799.0436-.168.0282-.2534-.5659-3.9514-4.00281-4.8569-5.92705-5.1965-.05075-.0068-.09959-.0239-.14361-.05-.04401-.0262-.0823-.061-.11256-.1023s-.05187-.0883-.06355-.1381c-.01168-.0499-.01319-.1016-.00442-.1521.16796-1.1018.53587-2.1637 1.0856-3.1333.04725-.0742.11815-.1303.20125-.1593.08309-.0289.17352-.029.25666-.0002 1.06183.2749 2.08761.6738 3.05618 1.1885.5865.3087.9878.3808 1.2451.1647-1.0621-.9599-2.23287-1.79215-3.48836-2.47995-.13377-.06688-.22124-.19036-.08747-.34986.69428-.83143 1.53474-1.5289 2.47993-2.05801.0748-.03728.1583-.05361.2416-.04727.0834.00634.1634.03512.2317.08328 1.1441.63709 2.2052 1.413 3.1591 2.31012.1544.18091.3472.32511.5644.42213.2171.09701.4532.14438.691.13868-.7775-1.25428-1.7581-2.37055-2.9018-3.30311-.1801-.18522-.2316-.41161.1029-.51451.9049-.26988 1.8443-.4068 2.7886-.40645.1157 0 .22.00643.3241.01286.1042.00643.2084.01286.3242.01286.1926.01319.3746.09326.5145.22638 2.2855 2.07366 2.7553 3.44475 3.2287 4.82645l.0281.0819c.3882 1.1896.5624 2.4386.5145 3.689-.0407 1.6425-.3144 3.2708-.8129 4.8364-.0618.2263-.0052.6122.3035.6122h.2624c.0609-.0089.1163-.0402.1553-.0878.039-.0475.0589-.108.0557-.1694v-.4014c.0003-.0379.0088-.0753.0248-.1098.0159-.0344.039-.065.0677-.0898.0287-.0249.0624-.0433.0988-.0541.0363-.0108.0746-.0138.1122-.0087zm-2.5378-.7342c.1328-.2004.2031-.4356.2021-.676-.0014-.3211-.1299-.6286-.3575-.8552-.2275-.2267-.5356-.3539-.8567-.3539-.2404 0-.4754.0714-.6752.205-.1997.1337-.3554.3236-.4471.5458-.0918.2222-.1155.4666-.0682.7022.0472.2357.1634.4521.3337.6217s.3872.2848.623.3311c.2359.0463.4802.0215.702-.0712s.4111-.2491.5439-.4495z"/></g></svg>