<svg fill="none" height="30" viewBox="0 0 30 30" width="30" xmlns="http://www.w3.org/2000/svg"><g fill="#fff"><path d="m14.8162 30c-2.0805-1.6432-4.1609-3.2857-6.24136-4.9276-2.35821-1.8524-3.59234-4.2073-3.57465-7.1958.03144-5.1567.03144-10.31335 0-15.47003 0-.65854.17293-.99552.84502-1.12453.7357-.14331 1.46316-.324564 2.17937-.54301.62885-.192557.78607 0 .78607.61426-.02752 2.48206-.01179 4.96604-.01179 7.45002v8.30689c.01179 3.3486 2.58424 5.8095 6.06254 5.8172 3.4784.0077 6.0803-2.4551 6.0921-5.7767 0-5.1875.0216-10.37693-.0158-15.56634 0-.864583.2555-.997447 1.0671-.818369 2.7768.612329 2.7827.587299 2.7827 3.308129 0 4.42881-.0354 8.85758.0118 13.27488.0354 3.362-1.2577 6.0078-4.0168 8.0681-1.9652 1.4654-3.9618 2.9038-5.7501 4.581z"/><path d="m16.7791 8.80146v8.02384c.0193.3533-.0722.704-.2623 1.0048-.19.3009-.4695.5375-.8009.6782-.3051.1596-.6502.2313-.9952.2067-.345-.0245-.6758-.1443-.9542-.3454-.5601-.3716-.7743-.9011-.7743-1.5578.0078-5.3492.0078-10.69843 0-16.047665 0-.577671.1847-.7933314.7861-.76059669.7507.04332389 1.5033.04332389 2.254 0 .6249-.03658581.7704.20988669.7645.77022769-.0295 2.676544-.0158 5.351154-.0177 8.027694z"/></g></svg>