<svg fill="none" height="30" viewBox="0 0 31 30" width="31" xmlns="http://www.w3.org/2000/svg"><g fill="#fff"><path clip-rule="evenodd" d="m21.2841 4.15372c3.0883 2.00123 7.5375 8.24448 8.7325 11.69148-1.195 3.4564-5.6442 9.684-8.7325 11.6897z" fill-rule="evenodd"/><path d="m19.9657 10.3838c-1.6163-1.15562-3.6768-1.79648-5.2905-1.79648-4.3805 0-7.60102 3.18128-7.60102 7.25788 0 4.0573 3.22052 7.258 7.60102 7.258 1.6137 0 3.6742-.6603 5.2905-1.816v7.0551c-1.6094 1.0066-3.5713 1.5719-5.867 1.5719-7.78646 0-14.0820984-6.2826-14.0820984-14.069 0-7.77957 6.2956384-14.08641 14.0820984-14.08641 2.2957 0 4.2576.58777 5.867 1.58935z"/></g></svg>