<svg fill="none" height="30" viewBox="0 0 30 30" width="30" xmlns="http://www.w3.org/2000/svg" xmlns:xlink="http://www.w3.org/1999/xlink"><clipPath id="a"><path d="m0 13h30v4.18831h-30z"/></clipPath><g clip-path="url(#a)" fill="#fff"><path d="m6.54904 17.1882c-.86711-.0066-1.47885-.2112-1.98094-.6874-.88183-.8371-.84477-2.0941.07716-2.8892.959-.8264 2.55107-.8132 3.49585.029 1.03921.9265.85949 2.4561-.37365 3.177-.43203.2528-.89858.3782-1.21842.3706zm1.17019-1.9764c.00355-.5955-.13707-1.0539-.47417-1.4407-.49193-.5651-1.25395-.592-1.78853-.0671-.69196.6798-.73258 2.0125-.08326 2.7334.58281.6467 1.43062.6127 1.95607-.0823.27465-.363.39141-.7798.38989-1.1433z"/><path d="m.0503021 17.0527c-.0238607-.0742-.0360449-.0975-.0380756-.1219-.0314758-.4026-.0314758-.4046.3736485-.4122.430508-.0086.862035-.0025 1.292035-.0234.22185-.0106.51224-.003.57925-.2594.06498-.2472-.16499-.4112-.36248-.5229-.27008-.1528-.55945-.2721-.83969-.4077-.181748-.0878-.372633-.1619-.540674-.2705-.4929513-.3199-.636115-.8296-.404616-1.3682.166517-.3874.509705-.5163.878784-.5412.630536-.0426 1.264106-.0498 1.896676-.0518.29902-.001.397.1914.28632.5407-.27516-.0224-.55793-.0594-.84121-.0655-.32694-.0071-.65998-.0218-.97981.0299-.34725.0564-.44625.4102-.17718.6407.2051.1752.47112.2828.71633.4072.32186.164.66353.2929.9727.4767.41477.2467.6021.6838.5158 1.089-.09341.4366-.45792.8275-.91991.8493-.80568.0381-1.613895.0112-2.4078979.0112z"/><path d="m21.6793 17.0232c-.3427 0-.6717.0147-.9971-.0106-.0782-.0061-.1762-.1346-.2117-.2275-.0645-.1685-.1569-.2264-.3376-.2193-.3792.0147-.7605-.0061-1.1397.0122-.0909.0046-.2305.0868-.2564.164-.0955.2863-.2818.363-.5574.3274-.1239-.0157-.2519-.0025-.4077-.0025.0239-.0767.0376-.1376.0614-.194.4889-1.1554.9778-2.3104 1.4692-3.4648.1234-.2904.2935-.4006.5407-.3249.1.0304.2234.1101.262.1995.5224 1.2047 1.0321 2.4155 1.5443 3.6248.0122.0294.0168.0619.03.1157zm-2.0516-2.3363c-.2071.4508-.3873.8432-.5726 1.2468h1.1448c-.1909-.4157-.3686-.8031-.5722-1.2468z"/><path d="m25.5706 13.6106c-.4564-.0314-.9011-.069-1.3464-.0888-.1579-.0071-.3218.0112-.4752.0497-.3599.0904-.4574.4189-.1741.66.1995.1701.4584.2721.6965.394.359.1838.7321.3411 1.0809.5417.3269.1878.497.6335.4087 1.0123-.0985.4223-.3351.7554-.7773.8381-.8463.1589-1.6987.0574-2.5627.0117v-.5178c.3 0 .6006.0066.9011-.0015.3371-.0092.6777-.0051 1.0093-.0554.3756-.0568.4589-.3041.1741-.5523-.2361-.2061-.5331-.3463-.8133-.496-.2589-.1386-.5488-.2249-.7955-.3808-.5052-.3198-.6372-.8585-.3783-1.3956.1671-.3462.4844-.4767.8265-.4995.6473-.0432 1.2982-.0538 1.947-.0559.2807-.001.3589.164.2787.5361z"/><path d="m9.22347 13.1573c.31628-.0244.64982-.0503 1.01233-.0787v.4229c0 .7346-.0026 1.4697.0015 2.2043.0025.5422.3234.9194.8458 1.0057.5335.0883 1.0067-.1635 1.1717-.6564.068-.2036.0944-.429.0975-.6448.0096-.6924 0-1.3849-.0016-2.0774 0-.0482.0087-.0964.0148-.1568h.6122c.0122.0147.0315.0279.0315.0411.0122.7935.0386 1.587.0289 2.38-.0086.6858-.3888 1.1326-1.0148 1.3697-.5666.2147-1.1529.2472-1.7408.0964-.65441-.1675-1.04837-.665-1.05649-1.3418-.01016-.8427-.00254-1.6854-.00254-2.5642z"/><path d="m30 13.0867v.5615h-1.3549v3.4024h-1.1088v-3.3887h-1.3565v-.5752z"/><path d="m13.7321 13.8025v-.6711h3.5345v.6711z"/><path d="m17.2711 14.7427v.6671h-3.5349v-.6671z"/><path d="m13.7189 16.9598c0-.1574-.001-.292 0-.426.001-.0665.0066-.1335.0112-.2228h3.5375v.6493z"/></g></svg>