<svg fill="none" height="30" viewBox="0 0 30 30" width="30" xmlns="http://www.w3.org/2000/svg"><path clip-rule="evenodd" d="m29.9131 12.1479c-.861-3.17479-4.9705-4.77714-4.9705-4.77714-1.097-.40058-.6573.23023-.6573.23023s4.7288 2.17559 4.7288 5.20651c0 3.7526-5.1535 4.8761-5.1535 4.8761 4.6873-1.4919 4.6999-4.6735 4.6999-4.6735-.0817-3.18287-4.2752-5.41026-4.2752-5.41026-1.6173-.91629-2.4956-1.14651-2.4956-1.14651-2.11-.70678-1.4251.11511-1.4251.11511s6.3657 2.00639 6.3657 6.43236c0 4.5204-8.8739 5.972-8.8739 5.972 8.3455-1.5482 8.3478-5.9351 8.3478-5.9351 0-3.95063-5.8396-6.46926-5.8396-6.46926-.8771-.47771-2.3643-.86333-2.3643-.86333-1.3779-.29238-.5963.30965-.5963.30965 5.5921 3.268 5.5921 6.88014 5.5921 6.88014 0 4.014-3.6801 5.0166-3.6801 5.0166-1.0694.4167-3.138.7482-3.138.7482-.3349.1001-.5697.3304-.5697.5997 0 .1094.0264.2176.107.3028.2014.2152.8818.7217.8818.7217.2428.2291.3856.5134.3856.8196 0 .754-.8668 1.3664-1.9431 1.3802h-.0794c-1.0763-.0138-1.9431-.6262-1.9431-1.3802 0-.3062.1427-.5905.3868-.8196 0 0 .6791-.5065.8817-.7217.0732-.0834.1112-.192.1059-.3028 0-.2693-.2348-.4996-.5686-.5986 0 0-2.0697-.3338-3.1391-.7482 0 0-3.68009-1.0037-3.68009-5.0188 0 0 0-3.61104 5.59209-6.87904 0 0 .7816-.60203-.5963-.3085 0 0-1.4872.38447-2.36436.86333 0 0-5.83842 2.51748-5.83842 6.46921 0 0 0 4.3858 8.34668 5.934 0 0-8.87504-1.4504-8.87504-5.972 0-4.42597 6.36678-6.43236 6.36678-6.43236s.68496-.82189-1.42507-.11511c0 0-.87714.23022-2.49445 1.14766 0 0-4.19465 2.22624-4.27637 5.40791 0 0 .01266 3.1828 4.70113 4.6735 0 0-5.153521-1.1223-5.153521-4.8749 0-3.02976 4.728761-5.20651 4.728761-5.20651s.43742-.63081-.65844-.23023c0 0-4.109458 1.60235-4.9704881 4.77714 0 0-.2601509 1.1971.1208661 2.0708.462746 1.0705 1.669112 2.8433 4.740272 3.8355 0 0 1.39744.5756 6.99067 1.6921l.3292.076s.2406.1048.0691.2947l-.7712.663s-1.1304.8691.4834 1.6001c0 0 .9831.3361 1.6772 1.0786 0 0 .4455.4236 1.2017.4454v.0024h.0507l.0057.0011h.0726v-.0011c.7655-.0173 1.2167-.449 1.2167-.449.6953-.7413 1.6772-1.0763 1.6772-1.0763 1.6138-.7321.4834-1.6012.4834-1.6012l-.7701-.663c-.1726-.1899.0691-.2947.0691-.2947l.3281-.0748c5.5932-1.1189 6.9907-1.6921 6.9907-1.6921 3.0711-.9934 4.2775-2.7662 4.7414-3.8367.3798-.8737.1197-2.0708.1197-2.0708" fill="#fff" fill-rule="evenodd"/></svg>