<svg fill="none" height="30" viewBox="0 0 31 30" width="31" xmlns="http://www.w3.org/2000/svg"><path d="m15.4445 6.05615c3.7543 0 7.7792.76446 10.9826 2.79537 2.0803 1.32988 4.017 3.34498 4.017 5.97118 0 3.0667-2.6216 5.2966-5.133 6.6018-2.9882 1.5457-6.5195 2.1578-9.8674 2.1578-3.7535 0-7.77045-.7557-10.97469-2.7945-2.08033-1.3299-4.024918-3.345-4.024918-5.9651 0-3.0807 2.614518-5.30272 5.132958-6.60881 2.99709-1.54476 6.52045-2.15774 9.86745-2.15774zm-.0317.93179c-3.4907 0-7.25296.65261-10.28179 2.47567-1.90491 1.13879-3.78603 2.93099-3.78603 5.31159 0 2.7962 2.55017 4.7532 4.82973 5.8769 2.82167 1.3766 6.12109 1.9121 9.23809 1.9121 3.4978 0 7.2609-.6544 10.2897-2.4775 1.897-1.1467 3.786-2.9301 3.786-5.3107 0-2.8024-2.5431-4.7619-4.8297-5.87604-2.8225-1.37919-6.122-1.91202-9.246-1.91202zm-13.17486 5.85236 5.74648-.9794 1.7295-3.75094 1.72248 3.75094 5.7456.9794-5.7456.9881-1.72248 3.7589-1.7295-3.7589zm12.63276 2.8578 2.5343-.4447.7572-1.6963.7572 1.6963 2.5352.4447-2.5352.4378-.7572 1.6971-.7572-1.6971zm5.2449-4.5224 2.5343-.4377.7572-1.70329.7572 1.70329 2.5343.4377-2.5343.4456-.7572 1.6972-.7581-1.6972zm-2.7106 8.0277 2.5264-.4377.7572-1.7042.7651 1.7042 2.5343.4377-2.5343.4456-.7651 1.6971-.7572-1.6971zm-7.78628.6129 2.53428-.4377.7652-1.7059.7563 1.7059 2.5352.4377-2.5352.4457-.7563 1.6971-.7652-1.6971zm12.74468-4.1877 2.5264-.4465.7572-1.6963.7651 1.6963 2.5343.4465-2.5343.4377-.766 1.6945-.7572-1.6954z" fill="#fff"/></svg>