<svg fill="none" height="30" viewBox="0 0 30 30" width="30" xmlns="http://www.w3.org/2000/svg" xmlns:xlink="http://www.w3.org/1999/xlink"><clipPath id="a"><path d="m0 13h30v4.41919h-30z"/></clipPath><g clip-path="url(#a)" fill="#fff"><path d="m8.99388 13c.20626 1.099.17701 1.136-.81273 1.136-1.53155 0-3.06311 0-4.59466 0-.26783 0-.53566 0-.80349 0-.00462.0554-.00924.1123-.01385.1677 1.80708.3818 3.61262.7743 5.42278 1.1376.65572.1308.96665.4371.92201 1.1221-.04002.5957-.31555.8543-.90662.8527-2.60287-.0031-5.20729-.0031-7.81016-.0061-.098512 0-.195484-.0308-.3370956-.0539v-1.039h6.4602356l.02771-.194c-1.1529-.2524-2.30426-.5079-3.45716-.7557-.77117-.1663-1.53925-.3525-2.319652-.468-.8481269-.1246-.7850176-.6988-.7588503-1.2822.0261672-.6064.4617753-.6172.9220113-.6172 2.678301.0031 5.356591 0 8.059521 0z"/><path d="m29.9954 17.3484c-.7183.079-1.079-.1816-1.0821-.782-.0031-.6095 0-1.219 0-1.9902-1.0728.6603-2.0195 1.1868-2.8984 1.804-.5572.391-.9774.3448-1.5115-.0185-.8682-.5926-1.784-1.119-2.8292-1.764v1.9056c0 .6547-.3827.9354-1.1483.842 0-1.2653-.0323-2.5475.0154-3.8266.02-.5279.4803-.6495 1.0267-.314 1.0575.648 2.1196 1.2899 3.1524 1.9733.3987.2633.6942.2725 1.096.0077 1.0128-.668 2.0487-1.3052 3.0969-1.9179.2324-.1354.5973-.2293.822-.1447.157.0601.2432.4557.2493.7035.0247 1.1621.0108 2.3242.0108 3.5218z"/><path d="m18.4864 15.8184v-2.7753h1.0914c0 1.2945.0277 2.5536-.0139 3.8127-.0169.5203-.4264.6696-.942.3617-1.0652-.6357-2.1242-1.2791-3.1539-1.9656-.4387-.2924-.7681-.3278-1.2222-.0246-1.0082.6742-2.0503 1.3007-3.0862 1.9302-.6757.411-1.0621.2171-1.0759-.5603-.0216-1.1621-.0062-2.3242-.0062-3.4648 1.0683-.2525 1.1314-.2063 1.136.7511.0031.5849 0 1.1699 0 1.9226 1.0667-.6588 1.9887-1.176 2.8507-1.7779.5741-.4017 1.0205-.3709 1.5808.0154.8481.5865 1.7501 1.099 2.8414 1.7748z"/></g></svg>