<svg fill="none" height="30" viewBox="0 0 30 30" width="30" xmlns="http://www.w3.org/2000/svg"><path d="m15.0001 6.75213c-8.28449 0-15.0001 3.52517-15.0001 7.87407 0 4.3485 6.71561 7.8738 15.0001 7.8738 8.2845 0 14.9999-3.5253 14.9999-7.8738 0-4.3489-6.7154-7.87407-14.9999-7.87407zm-13.71188 7.17837c0-3.4566 5.93796-6.2662 13.33068-6.35166l-9.75552 10.63586c-2.22032-1.1297-3.57516-2.6331-3.57516-4.2842zm14.79878-4.0161 4.9015 7.5891-12.36411-2.2135zm-1.1225 10.3722c-3.8081 0-7.25097-.724-9.73021-1.8914l18.94391.2323c-2.4309 1.0303-5.6643 1.6591-9.2137 1.6591zm10.0535-2.0485-9.642-10.65843c7.3626.10094 13.2649 2.90503 13.2649 6.35083 0 1.6619-1.3741 3.175-3.6229 4.3076z" fill="#fff"/></svg>