<svg fill="none" height="30" viewBox="0 0 30 30" width="30" xmlns="http://www.w3.org/2000/svg"><g fill="#fff"><path d="m19.8581 0c.0088.0156336.0222.0285477.0386.0372209s.035.0127442.0537.0117344c.0374 0 .0748.0030219.1119 0 .7004-.04593351 1.3957.0577207 2.0943.0773637.2853.007857.5847-.000001.8627.055905.2387.049257.4794.006344.7056.058019.2483.056812.5017.009368.7372.064367s.4694.005439.6905.056208c.3368.077059.6835.057117 1.0225.153819.2835.08129.4973.216069.7075.392852.1565.131381.2561.312851.2796.509501.032.25112.109.49771.0844.7579-.0161.22131-.0172.44338-.0032.66483.1454 3.42567.0479 6.85224.046 10.27818 0 .9465.0163 1.8999-.0639 2.8434-.0537.6346.0204 1.2692-.0617 1.8923-.0716.544.0138 1.0879-.0639 1.6213-.0671.4578.0134.9171-.0639 1.3641-.0674.3928.0019.7857-.0665 1.1674-.0639.352 0 .7059-.0639 1.048-.0581.3118.0067.6291-.0671.9256-.0709.285-.0185.5705-.0802.8431-.0543.2418-.0041.4835-.0613.7129-.0697.2801-.0039.5648-.0668.8328-.0572.2418.0025.4875-.0639.7117-.0659.2191-.0131.4439-.1016.66-.0524.1275-.032.2807-.0726.4231-.0926.339-.2109.663-.5081.8884-.1974.1511-.4422.2233-.6819.2986-.37.116-.7563.1481-1.1382.2082-.3588.0568-.7212.0783-1.0788.1281-.2649.0372-.5352.0024-.7873.0605-.3237.0728-.6512 0-.9631.0604-.4298.0831-.8628 0-1.2836.0583-.7791.1073-1.5613-.0021-2.3372.0605-1.5018.1187-3.0085.0649-4.5103.0365-.8158-.0154-1.6367.0182-2.4481-.0562-.4355-.0396-.87231.0094-1.29794-.0565-.34-.0526-.6784-.0127-1.01168-.0565-.45471-.0604-.91358-.0734-1.36637-.1284-.36236-.0442-.7292-.0774-1.08997-.1566-.18437-.0402-.39208-.0453-.57517-.0933-.25252-.0648-.4973-.154-.73048-.2663-.32242-.1577-.46654-.4357-.58381-.7316-.13549-.3406-.15082-.7032-.2077-1.0598-.08149-.5089-.0981-1.0193-.14827-1.5285-.02397-.2442-.00575-.4953-.06167-.7298-.06391-.2719-.00703-.5457-.06679-.8053-.06998-.3064 0-.6162-.06391-.9117-.07509-.3515.00543-.7075-.06391-1.0474-.08148-.3929.00608-.7858-.0639-1.1677-.08564-.4569.01118-.9169-.06391-1.3638-.0866-.5077.01406-1.0169-.06391-1.5152-.09938-.6425.01214-1.2868-.06583-1.9223-.10321-.8386.00256-1.6772-.05911-2.5124-.13165-1.7736-.03483-3.5484-.05497-5.32226-.02013-1.77388-.02652-3.54595.01055-5.31862.00959-.46265.00607-.93166.05944-1.39281.03738-.32455.08436-.6615.31954-.936798.08883-.103954.20994-.159256.31954-.211535.34735-.168625.73112-.211536 1.11585-.271975.32849-.051071.66753.022061.98356-.100629.01023-.003463.0212-.004499.03195-.003021.38345.040494.75796-.051375 1.13598-.076759.31954-.021456.64804-.002115.95863-.060439.24541-.046538.48571-.016318.72409-.049257.53683-.0737358 1.07654-.0540917 1.61557-.0589268.0214.0023042.043-.0012589.0623-.0102625.0192-.0090036.0354-.023068.0464-.0405077zm6.2269 10.267c0-.262-.0048-.52397.0023-.78567.0032-.12329-.0396-.16741-.1735-.1659-.3177.00363-.6184.10214-.929.13266-.3566.03476-.7106.08129-1.066.12088-.2495.02841-.4975.10728-.755.07434-.0267-.00143-.0533.00323-.0777.0136-.2045.07283-.4243.06769-.6352.09851-.3196.04684-.6474.055-.9663.1239-.2723.06044-.372.17078-.3742.43158 0 .1006.0236.2115-.0115.3-.116.2938-.0023.6044-.1074.9036-.0575.1635-.0374.3536-.0569.5306-.0319.2865-.0728.5763-.0754.8646-.0025.3164-.1115.6231-.0738.9408.0011.0102-.0006.0206-.0048.0302-.1227.3004-.053.6213-.1054.9322-.0556.33-.1243.6715-.0834 1.0142.0008.0152-.0016.0304-.0071.0447-.0936.2886-.0853.5923-.1089.8864-.0259.3236-.1147.6439-.0809.9718.0012.0103-.0005.0207-.0048.0302-.1294.2702-.0559.566-.1166.851-.085.3974-.0959.8159-.138 1.2251-.0352.3509-.0819.6984-.1279 1.0477-.0393.2944-.0805.589-.1486.8764-.0517.2197-.1626.4318-.4253.5022-.2729.0732-.5467.1381-.8362.1375-1.6243-.0036-3.2488.0094-4.8727-.0063-.859-.0082-1.7195.0695-2.5772-.052-.2901-.0411-.4853-.1686-.6451-.3989-.1179-.1701-.1144-.3602-.1633-.5382-.0838-.3015-.1344-.6104-.1511-.9217-.0141-.2901-.1164-.5742-.0748-.8658.0032-.0203.0011-.041-.0061-.0604-.12334-.2747-.0677-.5742-.1067-.8579-.04572-.3325-.124-.6721-.0831-1.0148.00147-.0102.00015-.0206-.00384-.0302-.13165-.2623-.01725-.5534-.1144-.8268-.06103-.1726-.04281-.3757-.0556-.5612-.02077-.3022-.08563-.6044-.08148-.909.00416-.3046-.10737-.5926-.0703-.8948.00133-.0103-.00032-.0208-.00479-.0302-.12782-.2892-.05273-.6005-.1029-.9012-.05656-.3393-.12622-.6908-.08404-1.0431.0017-.0102.00071-.0206-.00287-.0303-.12526-.2991-.05784-.6201-.10737-.9301-.05272-.3306-.10385-.67-.09395-1.0133.00384-.123-.04122-.2614-.05943-.3928-.00657-.0528-.03039-.1023-.06814-.1416-.03776-.03933-.08755-.06653-.14244-.07781-.10736-.02327-.21633-.07162-.31954-.07011-.43554.00634-.85191-.14052-1.28649-.13237-.02668.00096-.05332-.00273-.0786-.01087-.24126-.0825-.49913-.06316-.74774-.09912-.23742-.03476-.47931-.06951-.71961-.09066-.15977-.01511-.32434-.0272-.48571-.05107-.31443-.04684-.62343-.12692-.94553-.13085-.13261-.00181-.18182.0411-.17575.1653.01566.31428.03036.62826.05497.94226.06678.86-.02493 1.7246.06966 2.5883.07349.6724-.02205 1.3511.05943 2.0304.0834.6951-.02652 1.4007.06998 2.103.07765.5645-.00319 1.138.05688 1.7116.07126.6808 0 1.3726.07765 2.0579.03994.3521-.00288.7054.05081 1.0632.06998.4672-.00448.9473.07509 1.4218.0572.3388-.00863.6851.05656 1.0326.06518.3475 0 .7165.07158 1.0755.05113.252.01981.5137.05208.7736.03611.294.08404.5932.08308.893 0 .1556.05529.304.08373.4533.02684.1408.07604.2943.20163.411.22368.2091.52405.1786.79311.2321.19779.0389.4154.0395.60521.0858.2649.064.533.0118.79694.0924.20803.0638.44513.017.6736.0605.29143.0541.59595.0136.8976.0641.3515.0589.71226.0148 1.07363.0556.5704.0646 1.153.051 1.7285.0628 1.7514.0363 3.5041.0212 5.2561.0088.6244-.0043 1.2482.0393 1.8751-.0457.5314-.0719 1.0769.0275 1.6163-.0658.3352-.0581.6822.0145 1.0276-.0569.2844-.0583.5861-.0253.882-.058.3952-.0438.7921-.0816 1.1883-.1236.3241-.0341.6474-.0652.9631-.1372.1851-.0423.3835-.0622.5075-.2484.1201-.1798.1521-.3813.1885-.5741.0665-.3497.0735-.7084.1339-1.0613.0415-.2442.0067-.4935.0578-.7446.0662-.3249-.0028-.6628.0662-.9988s.0022-.6935.0639-1.0459c.0741-.4315-.0083-.8764.0639-1.3176.0767-.462-.0093-.9368.0639-1.4088.0812-.5324-.0131-1.0767.0662-1.6194.0827-.5633-.009-1.1375.0639-1.7111.0834-.6648-.0157-1.3396.0664-2.0126.0834-.6805-.0115-1.3692.0617-2.0585.0866-.8159-.0387-1.6449.0741-2.4662.0262-.2236 0-.4533 0-.68zm-10.7568 11.1607c.7784-.0387 1.7396.0465 2.7008-.052.4908-.0502.7561-.3379.8209-.7111.047-.272.0144-.5533.0639-.8331.0639-.3775-.0054-.764.0611-1.1514.0779-.456-.0045-.9247.0658-1.3919.0815-.5439.0173-1.097.0598-1.6494.083-1.08-.0125-2.1658.068-3.251.0607-.8219.007-1.6508.0154-2.47795.0022-.22876.0728-.45692.2818-.59261.3515-.22815.7669-.28829 1.1794-.33724.2659-.03204.5343-.01481.805-.05259.3412-.04744.6943-.02508 1.0417-.07162.2761-.03686.555 0 .8378-.05077.3279-.06043.6733-.04744 1.0085-.06195.5228-.02296 1.043-.11604 1.569-.07736.1163.00846.177-.0553.1783-.1662 0-.03022.0016-.06044 0-.09066-.0397-1.47169.0741-2.94488-.0585-4.41596-.032-.37019-.0118-.74521-.0035-1.11812.0052-.37363-.039-.74641-.1317-1.10965-.0189-.06811-.0541-.13119-.1029-.18442-.0487-.05323-.1097-.09517-.1783-.12261-.0837-.03536-.2339.01329-.3451.04411-.2898.08069-.5911.10457-.8842.16924-.278.06044-.5668.10999-.8532.15109-.1437.02116-.2943.02659-.4345.06497-.309.08462-.6305.10245-.9414.17195-.1655.03717-.3378.03506-.4979.07525-.3051.07645-.6196.09761-.9247.16681-.1649.03747-.3397.03294-.4969.07494-.2831.07616-.5752.09549-.8609.15654-.1198.02568-.2406.07101-.3687.07162-.1486 0-.293-.04201-.4349-.05137-.4688-.03022-.9411-.05137-1.4089-.05833-1.785-.02598-3.5709-.03475-5.3552.04866-.032 0-.0687-.00605-.0959.00665-.2991.14716-.5972.01208-.8838-.02841-.3231-.04563-.6503-.09338-.96954-.16621-.16488-.03777-.33232-.04593-.49656-.07766-.17416-.03355-.34767-.06981-.52214-.10003-.16553-.02841-.3368-.03535-.49689-.07978-.19844-.0553-.40359-.06376-.60394-.097-.16488-.0272-.32945-.06437-.49689-.08582-.29558-.03778-.58413-.1369-.88002-.15805-.32146-.02297-.6196-.1372-.9401-.16681-.14977-.0158-.29784-.0437-.44257-.08341-.15977-.04321-.3777-.09066-.50936.0961-.09256.12882-.14916.27768-.16456.43274-.03195.33241-.02429.66725-.05528 1.00238-.07158.77331-.01214 1.55146-.06391 2.33052-.06774.99724-.01661 2.00324-.01629 3.00532 0 .04533 0 .09065.00319.13598-.00051.01263.00177.02522.00671.03696s.01241.02238.02195.03123.02092.01572.03343.02016.02586.00636.0392.00563c.25788.01028.51383.00394.77266.05501.24989.04956.51127.00513.77234.0553.30101.05771.61864.00302.92955.0689.22368.04744.45855.01329.69277.05318.32945.05621.67265.03717 1.01009.06044.39943.03022.79694.11725 1.2018.08069.02178-.00051.04346.00288.06391.00997.25979.07313.53105.08794.79155.17588.2748.09277.5496.32546.5662.61406.0319.56481.0134 1.12991.0543 1.69681.0847 1.1665-.0498 2.3387.0722 3.5082.0713.682-.0425 1.3716.0639 2.0582.0697.4488-.0025.9066.0547 1.3644.0639.5183.0128 1.0492.0802 1.5714.0319.2463-.0083.4932.053.7452.0276.1249.0852.2421.1683.3425.0831.1005.1895.1815.311.2368.264.1264.5803.1016.8689.1119.7819.0332 1.5658.0148 2.5301.0148z"/><path d="m16.1575 24.9181v.6893c0 .2315-.0051.4633.0019.6951.0038.126-.0521.1719-.1789.1686-.1598-.0042-.3196-.0027-.4794 0-.1096.0018-.1626-.0323-.162-.1484.0045-.6745.0045-1.3494 0-2.0247 0-.1208.0483-.1629.1694-.1574.1061.0048.2154.0154.3195-.0021.2991-.0508.4931.1148.6995.2719.2505.1925.4953.3929.7695.5579.1447.0876.2655.2115.4064.3088.141.0973.2895.1832.4033.3116.0148.0178.0348.0312.0575.0384.0227.0073.0471.0083.0703.0027.0511-.0203.0256-.0807.0259-.123.0019-.3928.0058-.7857 0-1.1786-.0025-.1444.0534-.2006.2055-.1906.1377.0087.2767.0039.4154.0021.1 0 .1467.042.1463.1363v2.0549c0 .0837-.0319.136-.1278.136-.1757 0-.3515.003-.5269-.0024-.0862-.0051-.1676-.0392-.2294-.0961-.2186-.1947-.4608-.3627-.7002-.5292-.354-.2478-.671-.5421-1.0545-.7555-.0747-.0417-.1278-.1178-.1917-.178z"/><path d="m12.7502 24.1419c.3886-.1254.5464.1381.6966.385.2557.421.5752.8008.8564 1.2061.1195.1725.2323.3544.3752.5137.0214.0225.0355.0504.0405.0803.005.03.0007.0606-.0124.0883-.023.0556-.0866.0526-.1387.0532-.2023.0015-.4046 0-.6071 0-.0351.0026-.0701-.005-.1003-.022-.0302-.0169-.0541-.0423-.0685-.0726-.0754-.171-.2188-.298-.3147-.4554-.0153-.0238-.0373-.0432-.0635-.0559-.0263-.0128-.0557-.0184-.0851-.0163-.41 0-.82 0-1.2296 0-.1527 0-.1754.1354-.233.2136-.0639.0855-.1406.1683-.1827.2738-.0165.0407-.0457.0755-.0839.0999-.0381.0243-.0833.0369-.1293.0361-.2074-.0018-.4154.0024-.6228-.0021-.1169-.0024-.1661-.0408-.0997-.1623.1119-.204.2707-.3765.4014-.5678.232-.3388.4774-.6697.7151-1.0048.1074-.1511.2071-.3067.317-.456.0658-.0892.1518-.1511.2815-.1366.0958.0056.1918.0062.2876.0018zm.3311 1.236c-.1042-.1541-.187-.2814-.2752-.405-.0546-.0767-.1076-.1118-.1693.0049-.0566.1011-.1223.1974-.1962.288-.0566.0722-.0518.1103.0486.1115.1898.0021.3799.0006.5921.0006z"/><path d="m20.1025 25.298c0-.3324.0035-.6648-.0023-.9972-.0019-.1164.0403-.1659.1652-.1614.1432.0054.2876.0048.4308 0 .1192-.0036.1598.0493.1569.1556-.0039.2264.0061.4533-.0032.6794-.0058.1375.0585.1266.1447.0764.1835-.1058.3634-.217.5433-.3264.2415-.1459.4927-.2801.7224-.4415.3416-.2399.7248-.1103 1.0903-.1381.0107-.0018.0217-.0014.0322.0011s.0203.0071.0288.0135c.0085.0063.0155.0143.0205.0235.0049.0091.0078.0191.0083.0293.0045.0454-.0188.0668-.0613.0907-.4445.2623-.8861.5291-1.3293.7935-.0601.0357-.0895.0424-.0106.1097.2116.1814.4375.3476.6554.5207.2179.1732.4132.3648.6452.5192.0581.0387.1329.0906.0933.1713-.0352.0723-.1208.0469-.187.0496-.0958.0036-.1917-.0109-.2875.0033-.0895.0143-.1812.0076-.2673-.0196-.086-.0271-.1637-.0738-.2261-.136-.1675-.1608-.3713-.278-.5349-.4388-.14-.1375-.326-.2179-.4643-.3566-.0809-.081-.1502.0127-.2103.0408-.1019.0481-.1825.1372-.2841.1859-.1112.0531-.1278.1296-.123.2317.0048.1022-.0035.2116.0026.317.007.1209-.04.1783-.1732.1738-.1435-.0048-.2876-.003-.4308 0-.107.0018-.1502-.0405-.1489-.145.007-.3409.0042-.683.0042-1.0254z"/><path d="m8.9055 24.1418h1.6936c.2297 0 .261.0489.1444.2366-.0668.1079-.1578.1774-.3087.1722-.2876-.0093-.57514-.003-.86273-.0024-.22752 0-.25404.0257-.25564.2466v1.4647c0 .2007-.01023.2092-.22815.2116-.12782 0-.25564 0-.38346 0-.21153 0-.2208-.01-.22112-.217 0-.5034-.00543-1.0069.00288-1.511.00255-.1511-.04378-.2045-.20771-.1982-.30293.0112-.60713 0-.91006.0042-.11631 0-.21058-.0184-.24509-.1408-.00866-.018-.02031-.0345-.03451-.0489-.03898-.0532-.139-.0862-.08308-.1726.04729-.0731.13517-.0438.20579-.0438.56527-.0024 1.12958-.0015 1.69358-.0012z"/></g></svg>