<svg width="30" height="30" viewBox="0 0 30 30" fill="none" xmlns="http://www.w3.org/2000/svg">
<path d="M15.0017 29.6941L19.1987 6.23074C23.1991 6.23074 24.4609 6.6668 24.6431 8.44668C24.6431 8.44668 27.3267 7.45202 28.6803 5.43189C23.3984 2.99898 18.0914 2.88926 18.0914 2.88926L14.9947 6.63858L15.0017 6.63811L11.905 2.88867C11.905 2.88867 6.59786 2.99851 1.31677 5.43142C2.66911 7.45155 5.35378 8.44621 5.35378 8.44621C5.53703 6.66621 6.79732 6.23015 10.7709 6.22733L15.0017 29.6941Z" fill="white"/>
<path d="M15 1.80633C19.2696 1.77388 24.1566 2.46289 29.1594 4.63037C29.8281 3.43403 30 2.9053 30 2.9053C24.5312 0.754521 19.4097 0.0184632 14.9994 0C10.5894 0.0184632 5.46813 0.754638 0 2.9053C0 2.9053 0.243943 3.55657 0.839958 4.63037C5.84185 2.46289 10.7297 1.77388 14.9994 1.80633H15Z" fill="white"/>
</svg>
