<svg fill="none" height="30" viewBox="0 0 30 30" width="30" xmlns="http://www.w3.org/2000/svg"><path clip-rule="evenodd" d="m15 5.625c-8.28369 0-15 4.27923-15 9.5572 0 5.2779 6.71631 9.5572 15 9.5572 8.2837 0 15-4.2793 15-9.5572 0-5.27797-6.7163-9.5572-15-9.5572zm-11.11381 5.7749c.41215 1.7263 3.4143 3.1599 7.47851 3.7058l-.0012.2437c0 4.0953 1.1779 7.5311 2.7668 8.4653-6.59207-.3154-11.79118-3.9519-11.79118-8.3912 0-1.4575.56149-2.8289 1.54707-4.0236zm8.96941 3.8611c1.4276.1082 2.8612.1082 4.2888 0-.0992 3.038-1.0214 5.4178-2.1444 5.4178s-2.0452-2.3798-2.1444-5.4178zm5.7797-.1553c4.155-.5579 7.2014-2.044 7.5024-3.8228 1.0477 1.2221 1.6462 2.6353 1.6462 4.1406 0 4.4692-5.2696 8.1236-11.9249 8.3972 1.5936-.9259 2.7775-4.3677 2.7775-8.4701zm-2.3355-7.89899c4.1538.21146 7.3387 1.42163 7.3387 2.88149 0 1.1923-2.1241 2.2173-5.1657 2.6688-.3309-2.5517-1.1385-4.60054-2.1742-5.55029zm.7526 5.71279c-1.366.1121-2.7388.1121-4.1048 0 .276-2.4084 1.0907-4.15377 2.0524-4.15377s1.7764 1.74537 2.0524 4.15377zm-5.5252-.1625c-3.04161-.4515-5.1657-1.4765-5.1657-2.6688 0-.49219.36198-.95571 1.00231-1.36428.78293-.39098 1.59836-.71315 2.43708-.96289 1.11821-.28433 2.44901-.48025 3.89931-.55432-1.0345.94975-1.8421 2.99859-2.1742 5.55029z" fill="#fff" fill-rule="evenodd"/></svg>