<svg fill="none" height="30" viewBox="0 0 30 30" width="30" xmlns="http://www.w3.org/2000/svg"><g clip-rule="evenodd" fill="#fff" fill-rule="evenodd"><path d="m.0440113 9.59447s.0805267-.27379.3636107-.18831l14.548178 4.38994 14.6435-4.40852s.2738-.08734.3667.19822c-.4862.16353-15.0152 5.1618-15.0152 5.1618z"/><path d="m18.5863 12.701c-.7365-1.5053-2.3055-2.5286-4.0945-2.5286-.8026-.003-1.5915.2086-2.2849.6129-.6935.4042-1.2662.9865-1.6591 1.6865l.285.4069c.3398-.6794.8621-1.2508 1.5084-1.6501.6462-.3994 1.3909-.6109 2.1506-.6108 1.7208 0 3.2124 1.0456 3.817 2.5496z"/><path d="m18.0939 14.9248c-.0617.9499-.4962 1.8369-1.2089 2.468-.7127.631-1.6458.9549-2.5962.9012-.9504-.0538-1.8411-.4808-2.478-1.1882-.637-.7074-.9687-1.6378-.9229-2.5886l-.4336-.5253c-.1016.577-.0783 1.169.0682 1.7363.1466.5672.413 1.0965.7814 1.5521.3684.4555.8301.8269 1.3541 1.0889.524.2621 1.0981.4088 1.6836.4302.5855.0215 1.1687-.0828 1.7105-.3058.5418-.2231 1.0294-.5596 1.4302-.987.4007-.4274.7051-.9357.8928-1.4907s.2542-1.1438.1951-1.7267z"/><path d="m11.7322 15.8545s-.101-.2961.228-.4336c.3289-.1375.4906-.1982.4906-.1982l2.5-.4751z"/><path d="m18.5845 14.3152-.0106.0155c.0537.5795-.0169 1.1638-.2069 1.7139s-.4951 1.0534-.8949 1.4762c-.3999.4229-.8853.7556-1.4239.9761-.5387.2204-1.1181.3235-1.6997.3023s-1.152-.1661-1.6732-.4251c-.5211-.2591-.9811-.6262-1.3491-1.0771-.368-.4508-.6357-.9749-.7852-1.5374-.1495-.5624-.1774-1.1503-.0817-1.7244l-.47205.1437c-.07483.6231-.01977 1.2549.16175 1.8556.1815.6007.4855 1.1572.8928 1.6346s.9091.8651 1.4738 1.1389c.5646.2738 1.1799.4275 1.8069.4517.6271.0241 1.2524-.082 1.8364-.3115.584-.2296 1.1141-.5777 1.5569-1.0223.4428-.4447.7887-.9762 1.0158-1.5612s.3306-1.2107.3038-1.8376z"/><path d="m29.9759 9.58271-15.0251 5.16489-14.9148414-5.15374s-.03530807.08486-.03592751.13937.00619441.18583.19140691.26326c.185212.07801 9.799532 4.18551 9.799532 4.18551l.46953-.143.4349.5184 1.5609.6672 2.4815-.4727-3.2099 1.1032s.0396.1828.3047.202c.2658.0186 2.9529.2379 2.9529.2379l3.1034-1.3232.4856-.646.4572.2335s10.58-4.4773 10.8154-4.57272c.2354-.09601.1288-.40387.1288-.40387z"/><path d="m11.4436 12.7313c.3283-.5078.7786-.9252 1.3098-1.2141s1.1263-.4401 1.731-.4398c.6516-.0003 1.2913.1754 1.8514.5083.5602.333 1.0201.8109 1.3313 1.3835l.6417.1994c-.2979-.732-.8005-1.3626-1.4477-1.8162s-1.4115-.7109-2.2012-.7412-1.5714.1678-2.2514.5706c-.68.4027-1.2295.993-1.5825 1.7z"/></g></svg>