<svg width="31" height="31" viewBox="0 0 31 31" fill="none" xmlns="http://www.w3.org/2000/svg">
<path d="M15.1899 29.537C7.71994 29.537 1.59994 23.387 1.59994 15.917C1.59994 14.237 1.89994 12.647 2.46994 11.147L10.4199 27.137C10.5099 27.347 10.6599 27.527 10.8999 27.527C11.1399 27.527 11.2899 27.347 11.3799 27.137L15.0399 18.947C15.0699 18.857 15.1299 18.767 15.2199 18.767C15.3099 18.767 15.3399 18.857 15.3999 18.947L19.0599 27.137C19.1499 27.347 19.2999 27.527 19.5399 27.527C19.7799 27.527 19.9299 27.347 20.0199 27.137L27.9699 11.147C28.5399 12.647 28.8399 14.237 28.8399 15.917C28.7799 23.387 22.6599 29.537 15.1899 29.537ZM15.1899 12.827C15.0999 12.827 15.0699 12.737 15.0099 12.647L10.7499 3.04699C12.1299 2.53699 13.6299 2.26699 15.1899 2.26699C16.7499 2.26699 18.2499 2.53699 19.6299 3.04699L15.3699 12.647C15.3099 12.767 15.2799 12.827 15.1899 12.827ZM10.8399 22.697C10.7499 22.697 10.7199 22.607 10.6599 22.517L3.75994 8.59699C4.98994 6.70699 6.63994 5.11699 8.64994 4.00699L13.6299 15.077C13.6899 15.257 13.8399 15.317 13.9899 15.317H16.3899C16.5699 15.317 16.6899 15.287 16.7799 15.077L21.7599 4.00699C23.7399 5.11699 25.4199 6.70699 26.6499 8.59699L19.6899 22.517C19.6599 22.607 19.5999 22.697 19.5099 22.697C19.4199 22.697 19.3899 22.607 19.3299 22.517L16.7199 16.577C16.6299 16.367 16.5099 16.337 16.3299 16.337H13.9299C13.7499 16.337 13.6299 16.367 13.5399 16.577L11.0199 22.517C10.9899 22.607 10.9299 22.697 10.8399 22.697ZM15.1899 30.917C23.4999 30.917 30.1899 24.227 30.1899 15.917C30.1899 7.60699 23.4999 0.916992 15.1899 0.916992C6.87994 0.916992 0.189941 7.60699 0.189941 15.917C0.189941 24.227 6.87994 30.917 15.1899 30.917Z" fill="white"/>
</svg>
