<svg fill="none" height="30" viewBox="0 0 30 30" width="30" xmlns="http://www.w3.org/2000/svg"><g fill="#fff"><path d="m13.536 16.14h3.636v-1.212h-.396c0 .468-.336.804-.864.804h-.552v-1.812h.6v-.408h-2.424v.408h.612v1.812h-.612z"/><path d="m18.924 16.14h1.416l1.212-2.22h.6v-.408h-1.812v.408h.528l-.888 1.62-.876-1.62h.636v-.408h-2.64v.408h.6z"/><path d="m6.288 13.512h-2.628v.408h.6l1.224 2.22h1.416l1.2-2.22h.6v-.408h-1.812v.408h.528l-.876 1.62-.888-1.62h.636z"/><path d="m9.06 14.832c0 .768.624 1.392 1.872 1.392s1.86-.612 1.86-1.392c0-.768-.648-1.368-1.872-1.368-1.212-.012-1.86.6-1.86 1.368zm2.508 0c-.012.48-.204.972-.66.96-.444-.012-.636-.504-.636-.984.012-.504.252-.948.672-.936.42 0 .636.456.624.96z"/><path d="m22.5 14.832c0 .768.624 1.392 1.872 1.392s1.86-.612 1.86-1.392c0-.768-.648-1.368-1.872-1.368-1.212-.012-1.86.6-1.86 1.368zm1.884-.96c.42.012.636.456.624.96-.012.48-.204.972-.66.96-.444-.012-.636-.504-.636-.984.012-.504.252-.948.672-.936z"/><path d="m27.348 6.48-1.524 1.524c1.308 2.016 2.064 4.416 2.064 6.996 0 7.116-5.772 12.888-12.888 12.888s-12.888-5.772-12.888-12.888 5.772-12.888 12.888-12.888c2.592 0 4.992.768 7.008 2.076l1.524-1.524c-2.412-1.68-5.364-2.664-8.532-2.664-8.28 0-15 6.72-15 15s6.72 15 15 15 15-6.72 15-15c0-3.168-.984-6.108-2.652-8.52z"/><path d="m22.548.588v.42c.912.492 1.764 1.08 2.556 1.728l-2.136 2.136c.804.636 1.536 1.356 2.172 2.16l2.136-2.136c.66.792 1.236 1.656 1.728 2.544h.408v-6.852z"/></g></svg>