<svg fill="none" height="30" viewBox="0 0 30 30" width="30" xmlns="http://www.w3.org/2000/svg"><path clip-rule="evenodd" d="m17.715 26.3213.0825.0637c4.0594-1.1569 6.9394-3.6581 8.2875-7.7025 1.3313-3.9937.5663-7.6931-2.0062-11.11873l-6.3638 18.75933m-4.7681.1632-6.50626-19.46253c-2.745 2.7975-4.0875 7.49623-2.46937 11.95683 1.71562 4.7307 5.92125 7.1063 8.97563 7.5057m2.3325-3.7125.0637-.0075c.0244-.0657.0507-.1313.0713-.1969 1.7981-5.8031 3.5925-11.6081 5.3962-17.41125.0713-.23063.0244-.33563-.1856-.44438-3.4425-1.79437-6.945-1.92375-10.5056-.37875-.38813.16688-.38438.17438-.26251.57l4.89371 16.14378c.1725.5756.3525 1.1512.5288 1.725m14.6944-7.7663c-.0032 1.9691-.3942 3.9183-1.1507 5.7363-.7565 1.8179-1.8637 3.4691-3.2583 4.8592s-3.0494 2.4919-4.8698 3.2425c-1.8205.7506-3.7709 1.1352-5.74 1.132-8.26686-.0206-14.9681058-6.7462-14.95498075-15.0094.00344418-1.969.39469675-3.9182 1.15142075-5.73606.75672-1.81788 1.86409-3.46892 3.25888-4.85883 1.3948-1.38992 3.0497-2.49151 4.87022-3.24186 1.82056-.750352 3.77106-1.1347772 5.74006-1.13132698 3.9714.01141988 7.7761 1.59770698 10.5794 4.41083698s4.3763 6.62334 4.3738 10.59474" fill="#fff" fill-rule="evenodd"/></svg>