<svg width="30" height="30" viewBox="0 0 30 30" fill="none" xmlns="http://www.w3.org/2000/svg">
<path fill-rule="evenodd" clip-rule="evenodd" d="M24 5.29544V2.05451C24 2.00455 23.9363 1.98103 23.9019 2.01824L17.6894 8.71219C17.2442 9.19186 16.9895 9.80867 16.9706 10.4529L16.5888 23.3558C16.5871 23.4125 16.6645 23.4336 16.6938 23.3846L17.4689 22.0845C17.5601 21.9317 17.6195 21.7631 17.6442 21.5882L18.7521 13.7284C18.9132 12.5853 19.4456 11.5212 20.2722 10.6897L22.8211 8.12636C23.5775 7.3659 24 6.35133 24 5.29544Z" fill="white"/>
<path fill-rule="evenodd" clip-rule="evenodd" d="M6 5.29544V2.05451C6 2.00455 6.06366 1.98103 6.09812 2.01824L12.3106 8.71219C12.7556 9.19186 13.0104 9.80867 13.0294 10.4529L13.4112 23.3558C13.4128 23.4125 13.3354 23.4336 13.3062 23.3846L12.531 22.0845C12.4399 21.9317 12.3803 21.7631 12.3558 21.5882L11.2479 13.7284C11.0868 12.5853 10.5544 11.5212 9.72767 10.6897L7.1789 8.12636C6.42251 7.3659 6 6.35133 6 5.29544Z" fill="white"/>
<path fill-rule="evenodd" clip-rule="evenodd" d="M15.8005 9.28616L15.0757 8.67871C15.0335 8.6434 14.9707 8.6434 14.9285 8.67871L14.2038 9.28616C14.0762 9.39328 14.005 9.54989 14.0098 9.71322L14.4956 26.1403C14.4969 26.1852 14.5098 26.2294 14.5332 26.2685L14.9533 26.9728C14.975 27.0091 15.029 27.0091 15.0508 26.9728L15.4712 26.2683C15.4945 26.2292 15.5074 26.185 15.5088 26.1398L15.9945 9.71322C15.9994 9.54989 15.9281 9.39328 15.8005 9.28616Z" fill="white"/>
</svg>
