<svg width="30" height="30" viewBox="0 0 30 30" fill="none" xmlns="http://www.w3.org/2000/svg">
<path d="M27 27H3V3H27V27ZM17.0009 25.0002V24.6586C17.0009 22.6783 16.9981 20.6952 17.0065 18.7148C17.0065 18.5038 16.951 18.3538 16.7983 18.201C14.914 16.3262 13.0324 14.4459 11.1591 12.56C11.0703 12.4711 11.0065 12.3156 11.0065 12.1906C10.9981 9.88531 11.0009 7.58003 11.0009 5.27474C11.0009 5.18586 11.0009 5.09976 11.0009 4.99977H4.98705C4.98705 5.10809 4.98705 5.20252 4.98705 5.29973C4.98705 8.29105 4.98705 11.2796 4.98705 14.2709C4.98705 17.765 4.98705 21.2618 4.98705 24.7558C4.98705 24.9169 4.98705 25.0169 5.20629 25.0169C9.06383 25.0086 12.9186 25.0113 16.7761 25.0113C16.8427 25.0113 16.9093 25.0058 17.0009 25.0002ZM13.0213 4.99421C13.0157 5.04421 13.0074 5.07476 13.0074 5.10253C13.0074 7.22729 13.0074 9.35204 13.0102 11.474C13.0102 11.5518 13.0629 11.6434 13.1212 11.7018C15.0167 13.596 16.9121 15.4902 18.8159 17.3789C18.9519 17.5122 19.0019 17.6455 19.0019 17.8344C18.9963 20.1397 19.0019 22.445 18.9935 24.7503C18.9935 24.9558 19.0463 25.0169 19.2572 25.0141C21.1027 25.0058 22.9482 25.0086 24.7937 25.0086C24.8603 25.0086 24.9241 25.0002 24.9907 24.9975V4.99421H13.0213Z" fill="white"/>
</svg>
