<svg fill="none" height="30" viewBox="0 0 30 30" width="30" xmlns="http://www.w3.org/2000/svg"><g fill="#fff"><path d="m3.67779 7.4269v-.01707c.327-2.60069.88912-3.49812 3.74375-3.49812h15.15766c2.8538 0 3.4145.89743 3.743 3.49812l.0015.0182v-.00113c.1243 1.08783.2232 2.17478.2966 3.2608.9453.1437 1.8683.304 2.7688.481-.0732-1.21406-.1827-2.43778-.3218-3.65961l-.1457-1.12188c-.4483-2.90097-.9898-3.88955-4.1691-3.88955h-19.50651c-3.17859 0-3.72004.98858-4.16687 3.88955l-.147937 1.12894c-.138307 1.21962-.245558 2.43963-.318041 3.65255.898738-.1759 1.823388-.3373 2.767278-.481.07248-1.08445.1716-2.1714.29737-3.2608z"/><path d="m.918345 22.0999.160505 1.2259c.44683 2.9006.98827 3.8899 4.16688 3.8899h19.50647c3.1793 0 3.7208-.9893 4.1691-3.8899l.1598-1.21c.435-3.785.538-7.6009.3077-11.4039-.901-.177-1.8239-.3381-2.7688-.4832.2783 4.0458.176 8.1089-.3055 12.1355v.0059c-.3306 2.5492-.9047 3.4294-3.7356 3.4294h-15.15763c-2.83758 0-3.4094-.8846-3.73633-3.4497-.48302-4.0217-.58507-8.0802-.30481-12.1211-.94389.1447-1.86854.3062-2.767275.4832-.232376 3.7976-.130151 7.6083.30549 11.388z"/><path d="m26.7349 7.15683-.0015-.02032c-.3373-2.69404-.9202-3.62036-3.8806-3.62036h-15.70575c-2.95961 0-3.54105.92632-3.88062 3.62036l-.00296.01888h.00228c-.62098 5.13731-.61826 10.33111.0081 15.46781.34026 2.6581.93056 3.5752 3.8732 3.5752h15.70585c2.9352 0 3.5343-.9145 3.8724-3.5556l.0007-.0051c.6277-5.1415.6307-10.3401.0089-15.48231zm-.5223 15.41757c-.3196 2.4817-.7471 3.1079-3.3598 3.1079h-15.70575c-2.61564 0-3.04248-.6284-3.3613-3.1239-.61951-5.0954-.623-10.2471-.01037-15.34341l.00446-.03557c.31958-2.51439.75453-3.14824 3.36721-3.14824h15.70585c2.6148 0 3.0468.63536 3.3656 3.149-.0004.01183.0013.02364.0053.03481.6142 5.10151.6105 10.25871-.0112 15.35941z"/><path d="m29.5604 7.4435-.1472-1.12044c-.4549-2.94169-1.0622-4.32306-4.6572-4.32306h-19.51026c-3.59801 0-4.20383 1.38137-4.658772 4.31047 0 .01259-.147935 1.14115-.147935 1.14115-.580657 4.88548-.585356 9.82228-.013998 14.70888 0 .0033.161949 1.2288.161949 1.2288.454936 2.9432 1.060756 4.325 4.658766 4.325h19.51025c3.595 0 4.2023-1.3818 4.6572-4.3139 0-.0111.1584-1.2196.1584-1.2196.5749-4.8958.5712-9.8424-.0112-14.7373zm-.4793 14.6723-.1598 1.21c-.4483 2.9006-.9897 3.8901-4.1653 3.8901l-19.51027-.0002c-3.17861 0-3.72005-.9893-4.16688-3.8899l-.160505-1.2259c-.56878-4.8449-.564296-9.7398.012838-14.58375l.147937-1.12894c.44683-2.90097.98828-3.88955 4.16687-3.88955l19.51001-.00007c3.1755 0 3.7173.98865 4.1656 3.88962l.1457 1.12188c.5788 4.85151.5832 9.75411.0138 14.60671z"/><path d="m29.3358 11.1121-.0036-.001-.0031-.0401c-.0724-1.19137-.1774-2.3881-.3106-3.55699l-.1494-1.11923c-.4291-2.79322-.898-3.84815-4.1173-3.84815h-19.50652c-3.21776 0-3.68678 1.05493-4.11724 3.84625l-.14946 1.12856c-.13021 1.16669-.235954 2.36039-.308444 3.54956l-.005908.0401-.006666.001c-.22813 3.6291-.124379 7.2714.309959 10.8815l.160519 1.2234c.43046 2.7939.89948 3.8488 4.11724 3.8488h19.50652c3.2193 0 3.6882-1.0549 4.1173-3.8477l.1598-1.207c.4381-3.6157.5408-7.2643.3069-10.899zm-2.9744 11.1633c-.0177.9779-.348 1.9244-.9424 2.7007-.5437.5413-1.3922.7727-2.8406.7727h-15.15757c-1.45057 0-2.30273-.2314-2.84425-.7764-.5942-.7816-.92428-1.7323-.94237-2.7144-.47849-3.8382-.58304-7.7139-.31216-11.5724l.0022-.0411.00886-.0007c.06954-1.05414.16642-2.10118.28034-3.11759v.00266l.01189-.10889.0044-.01706c.33139-2.6562.92684-3.5396 3.79109-3.5396h15.15767c2.8635 0 3.4589.8834 3.7933 3.5396l.0015.01706.0147.10623-.0059-.00257c.1184 1.01746.2116 2.06602.2841 3.12016l.0089.0007.0015.0411c.2702 3.8644.1647 7.7459-.3152 11.5898z"/><path d="m29.4361 11.1179-.0023-.0381-.0089-.0041c-.0695-1.17927-.1753-2.36409-.307-3.52374l-.1494-1.11999c-.2256-1.46879-.4734-2.44183-1.0711-3.06127-.5888-.61133-1.5297-.87157-3.1453-.87157h-19.50649c-1.61108 0-2.55201.26024-3.14156.87157-.59772.61944-.84624 1.59248-1.07264 3.05938l-.150142 1.12969c-.130884 1.15593-.233757 2.33962-.307687 3.51593l-.009619.0041v.0381c-.234072 3.648-.132318 7.3097.303975 10.9389l.163473 1.2259c.2264 1.4695.47493 2.4404 1.07264 3.0617.58955.6109 1.5306.8713 3.14168.8713h19.50647c1.6156 0 2.5564-.2604 3.1452-.8713.5977-.6213.8455-1.5922 1.0711-3.0606l.1605-1.2096c.4385-3.6349.5412-7.3025.3071-10.9563zm-.4069 10.9429-.1598 1.209c-.4291 2.7924-.898 3.8461-4.1173 3.8461h-19.50649c-3.21776 0-3.68679-1.0537-4.11725-3.8461l-.160512-1.2253c-.434332-3.6103-.538083-7.2529-.309959-10.8821l.006665-.0012.005909-.0403c.07249-1.18891.178234-2.38298.308444-3.54854l.149453-1.12818c.43049-2.7917.89949-3.84549 4.11725-3.84549h19.50649c3.2193 0 3.6882 1.05379 4.1173 3.84701l.1494 1.11999c.1332 1.16669.2382 2.36372.3107 3.55521l.003.0403.0036.0012c.2339 3.6345.1312 7.2829-.3069 10.8984z"/><path d="m27.0987 10.5429h-.0066c-.0732-1.09524-.1731-2.18262-.2959-3.23785l.0052.00478-.0162-.10957v-.01926c-.3455-2.75326-.9602-3.67071-3.9324-3.67071h-15.7058c-2.96855 0-3.5862.91745-3.93092 3.67146l-.0022.01851-.01704.11253.00447-.00182c-.11984 1.05409-.22043 2.13897-.29292 3.23193h-.00667l-.00295.0422c-.28305 3.9998-.17378 8.0178.32625 11.9963.15528 1.2622.3876 2.2249.97123 2.8147.5622.5672 1.44466.8072 2.95075.8072h15.7058c1.5038 0 2.3833-.24 2.947-.8024.5874-.5858.8145-1.5443.9742-2.798.4994-3.9857.6092-8.0107.3277-12.0178zm-.4231 12.0404v.0026c-.0132.0829-.0222.1636-.034.2432-.3025 2.1246-.8314 3.0235-2.7887 3.2264-.0814.0085-.1628.0148-.2493.0204-.2316.0174-.4801.0241-.7508.0241h-15.7058c-2.88568 0-3.48265-.8824-3.82435-3.5323-.49157-3.9587-.60009-7.9556-.32404-11.9352h.00446l.00591-.0415c.07401-1.14334.17899-2.27781.30701-3.37891l.00439-.03928c.33731-2.66803.94094-3.55848 3.82662-3.55848h15.7058c2.8879 0 3.4892.89121 3.8303 3.56515v.03261c.1272 1.1011.23 2.23557.3084 3.37891l.0023.0415h.0073c.0681 1.0349.111 2.0601.1354 3.0716.0658 2.9671-.0882 5.9349-.4609 8.8792z"/><path d="m24.1182 8.46652c-.0873-.97712-.6111-1.54621-2.4005-1.54621h-14.60721c-.88693 0-1.10811.37808-1.15401.72241l-.16716 1.34884c.37435.11738 1.33377.41319 2.45142.75639.43351-.03405.87292-.06809 1.31233-.09736 1.77683-.12072 3.59673-.18242 5.45993-.1851 2.9251-.00156 5.8482.15739 8.756.47613.1628.01964.324.03928.4897.05918z"/><path d="m24.057 11.8636c.0023-.0032.0054-.0056.009-.0072h.003z"/><path d="m5.94052 7.64282c.01069-.08327.03361-.1645.06802-.24106l-.41646-.24917c-.06648.13449-.10951.27935-.12725.42835l-.22482 1.75649.53334-.34433z"/><path d="m24.7785 10.607c0 .001-.0215-.233-.0489-.5496-.0576-.64488-.1464-1.63277-.1464-1.63277-.0188-.23966-.0716-.47541-.1569-.70013l-.4593.144c.0751.19136.1203.3932.1338.59837l.1391 1.53433.0607.6568c.0079.0519.0084.1046.0015.1567h.4808c.0051-.0692.0036-.1388-.0044-.2077z"/><path d="m23.1062 22.7895-14.81144.0026c-.33365.0032-.66691-.0239-.9957-.0808l-.12127.4607c.36783.0723.74212.1067 1.11697.1025l14.81144-.0044c.1114.0014.2228-.0038.3336-.0155l-.1035-.4773c-.0764.0084-.1532.0124-.2301.0122z"/><path d="m24.6887 20.7758.0289-.2228-.5149.2488-.1405 1.2633.449.2299c.0074-.0466.0185-.097.0266-.1529.0016-.0082.1509-1.3663.1509-1.3663z"/><path d="m23.7916 11.4609c-.0081.0041-7.6184 5.3921-7.6184 5.3921-.1144.0782-.2171.1724-.3047.2799l.5096.1688c.023-.0178.0466-.0363.074-.0563 0 0 7.5555-5.3494 7.6125-5.3891-.0035.0015-.0066.004-.0089.0071l.0119-.0071h-.003c.116-.0758.2254-.1614.327-.2558l-.3425-.3388c-.0801.0735-.1662.1402-.2575.1992z"/><path d="m5.89186 21.2456-.1746-1.9531-.4919-.0696c.03992.4455.18641 2.0668.18641 2.0668.01746.1953.05794.3878.12059.5736l.43343-.2156c-.03721-.1314-.06196-.266-.07393-.4021z"/><path d="m24.0491 11.2617.3425.3388c.1154-.0973.2101-.2174.2773-.3526s.1061-.2824.114-.4332h-.4808c-.0096.0877-.0371.1722-.0805.2491-.0433.0769-.1024.1443-.1725.1979z"/><path d="m24.0444 11.2646.3418.3425c.2339-.2025.378-.4896.4009-.7983l-.4808-.0033c-.0258.1808-.1195.3449-.2619.4591z"/><path d="m5.77238 8.99159-.52819.34138.33731.10366.39798-.38134c-.08136-.02411-.15309-.04557-.2071-.0637z"/><path d="m8.2238 9.74798c-.94904-.29133-1.78567-.54869-2.24432-.69269-.08136-.02411-.15309-.04557-.2071-.0637l-.52819.34138.33882.10366h-.00151l.04734.01555 2.91302.90082c.41427-.0433-.73672-.56794-.31806-.60502z"/><path d="m5.69273 19.0552c-.01636-.1158-.00098-.2339.04449-.3416.04547-.1078.11931-.2011.21366-.2701l-.39798-.2851c-.12807.1198-.22544.2687-.28389.4342-.05845.1654-.07625.3425-.0519.5163l.00825.114.4919.0696z"/><path d="m5.69273 19.0552c-.01636-.1158-.00098-.2339.04449-.3416.04547-.1078.11931-.2011.21366-.2701l-.39798-.2851c-.12807.1198-.22544.2687-.28389.4342-.05845.1654-.07625.3425-.0519.5163l.00825.114.4919.0696z"/><path d="m5.96579 21.6477-.43343.2156c.1234.351.34387.6601.6349.8915.29104.2315.64108.3762 1.01053.4172l.12127-.4607c-.30419-.0194-.59477-.1318-.83315-.322s-.41334-.449-.50012-.7416z"/><path d="m5.96579 21.6477-.43343.2156c.1234.351.34387.6601.6349.8915.29104.2315.64108.3762 1.01053.4172l.12127-.4607c-.30419-.0194-.59477-.1318-.83315-.322s-.41334-.449-.50012-.7416z"/><path d="m24.0595 22.0795c-.0005.0937-.0197.1864-.0566.2726-.0369.0861-.0906.164-.1581.229-.0674.0651-.1471.1159-.2345.1496-.0874.0336-.1805.0496-.274.0466l.1035.4773c.2604-.016.5077-.1197.7022-.2938.1945-.1742.3244-.4085.3692-.6658l-.449-.2299z"/><path d="m24.0595 22.0795c-.0005.0937-.0197.1864-.0566.2726-.0369.0861-.0906.164-.1581.229-.0674.0651-.1471.1159-.2345.1496-.0874.0336-.1805.0496-.274.0466l.1035.4773c.2604-.016.5077-.1197.7022-.2938.1945-.1742.3244-.4085.3692-.6658l-.449-.2299z"/><path d="m24.2124 20.7219-.0097.0799.5149-.2488.019-.1746-.3053-.0933-.4287.3731z"/><path d="m24.432 20.2843-.0754-.0222-7.6997-2.3808c-.1028-.0315-.2017-.0743-.2952-.1274l-.5089.1955c.1792.1896.4077.3256.6598.3924l7.4904 2.3153.2101.064.5235-.3427z"/><path d="m15.7108 17.6482c.0189.1115.068.2156.142.3012l.5089-.1955c-.1243-.0744-.1731-.1446-.176-.1809-.0103-.0536.0474-.1565.1924-.2713l-.5096-.1688c-.0618.0695-.1073.1514-.1346.2403-.0274.089-.0352.1827-.0231.275z"/><path d="m15.7108 17.6482c.0189.1115.068.2156.142.3012l.5089-.1955c-.1243-.0744-.1731-.1446-.176-.1809-.0103-.0536.0534-.1595.1984-.2742l-.5119-.1715c-.0624.0704-.1091.1532-.137.2431-.0279.0898-.0359.1844-.0244.2778z"/><path d="m6.64643 6.9627-.1465-.46134c-.19079.03261-.37169.10818-.52904.22101-.15736.11282-.28655.25989-.37881.43022l.41646.24917c.06187-.12031.15205-.22333.26346-.29996.11141-.07664.24006-.12443.37443-.1391z"/><path d="m23.967 7.8685.4593-.144c-.1467-.34155-.3862-.63579-.6904-.84917-.3041-.21339-.6616-.3378-1.0324-.35932l-.0088.48394c.2699.0185.53.1087.7535.26131s.4031.36243.5188.60724z"/><path d="m22.7035 6.51601-.0088.48394.0045-.29157z"/><path d="m22.7035 6.51601c-.3316-.05378-.6674-.07916-1.0033-.07614h-14.6073c-.19967-.00169-.39891.01893-.59401.06149-.19079.03262-.37169.10819-.52905.22101s-.28706.25995-.37932.43028l.41646.24918c.06187-.12032.15257-.2234.26397-.30003.11141-.07663.24006-.12442.37443-.1391.14737-.02915.29731-.0433.44752-.04223h14.6073c.3332-.00443.6663.02209.9945.07948.2699.0185.53.1087.7535.26131s.4021.36225.5178.60706l.4593-.14399c-.1467-.34156-.3852-.63562-.6894-.849-.3041-.21339-.6616-.3378-1.0324-.35932z"/><path d="m13.479 11.3726s-2.962-.9163-5.2552-1.62462c-.41866.03708.13704.54832.13704.54832l4.97976 1.5369c.0355.0096.0666.0171.0999.0293l.506-.2855c-.1457-.0894-.303-.1583-.4675-.2044z"/><path d="m5.9232 17.8588.01553-.0085c-.13943.0888-.26912.192-.38692.308l.39798.2851c.07926-.0702.16357-.1346.25224-.1925.00522-.0022 7.61697-5.3902 7.61697-5.3902.0281-.0203.0554-.0418.0799-.0603l-.4668-.2555c-.9306.6583-7.5089 5.3139-7.5089 5.3139z"/><path d="m14.3048 12.051c-.0214-.1005-.0647-.195-.1267-.2769s-.1408-.1492-.2316-.1971l-.506.2855c.2885.09.3805.2158.3895.2647.0044.0444-.0452.1677-.2893.3403 0 0-.0405.0282-.1086.0774l.4668.2555c.3846-.3007.4333-.571.4059-.7494z"/><path d="m14.3059 12.0507c-.0232-.1017-.0679-.1972-.131-.2802-.0632-.083-.1434-.1514-.2352-.2008l-.506.2888c.2886.0922.3884.2196.3973.2684.0044.0444-.0451.1677-.2892.3403 0 0-.0422.0307-.1154.0815l.4734.2536c.3795-.3003.4334-.5732.4061-.7516z"/><path d="m15.709 17.6483c-.034-.1926.0256-.4866.4642-.7953 0 0 7.6103-5.388 7.6184-5.3921.4801-.3177.5327-.5463.509-.8029l-.047-.5226c-.0156-.18882-.0806-.91867-.1635-1.76946-.0142-.28331-.1153-.55533-.2897-.77892s-.4134-.38786-.6845-.47036l-.0044-.00258.014.01813c.2429.10493.4525.27438.6061.49002.1536.21563.2453.46923.2653.73332l.142 1.63243c-.1287-.0166-.2574-.03147-.3876-.04625-2.9076-.3187-5.8304-.47764-8.7553-.47613-1.8612 0-3.6819.0617-5.46213.1851-.33882.02373-.67536.04959-1.01199.07628l-2.70292-.76533-.04658.02994 2.46247.75647h-.00886c2.29021.70834 5.25301 1.62454 5.25301 1.62454.6198.184.7913.4719.8231.6781.0326.1914-.0275.4875-.4831.81 0 0-7.61175 5.388-7.61697 5.3902-.48153.3195-.53664.5436-.5093.8043l.19913 2.1904c.09173.9527.61124 1.5465 2.4029 1.5465l14.81144-.0026c.6258 0 .8852-.1994.9533-.71l.1536-1.3584-7.7005-2.3793c-.4719-.1495-.757-.3958-.8036-.6935z"/><path d="m15.7445 17.5842c-.0281-.1939.0311-.4898.4601-.8031 0 0 7.4749-5.4087 7.486-5.4138.469-.318.5223-.5469.4979-.8049l-.0555-.59689c-2.9995-.35873-6.0179-.53432-9.0387-.5258-3.0366 0-6.22325.22476-6.64789.26214 2.17039.64875 5.15139 1.57655 5.15139 1.57655.6066.1866.7709.4706.8019.6794.0303.1926-.031.488-.4793.8116 0 0-7.52744 5.4217-7.53334 5.4258-.47714.3213-.53857.5498-.51039.8138l.16566 2.2211c.08067.9675.58219 1.5699 2.35082 1.5699l14.63175-.0026c.6154 0 .8721-.2036.935-.7231l.1516-1.3766-7.5784-2.413c-.4646-.1495-.7442-.3957-.7886-.7005z"/></g></svg>