<svg fill="none" height="558" viewBox="0 0 651 558" width="651" xmlns="http://www.w3.org/2000/svg"><g fill="#000"><path d="m405.821 134.02v54.16c-1.09 0-2.1 0-3.12 0-48.29.02-96.58.04-144.87.08-2.15 0-4.34-.03-6.46.32-9.26 1.51-14.27 7.5-14.41 17.14-.09 6.39-.08 12.79-.06 19.19.02 9.19.08 18.39.13 27.58 0 .63.06 1.26.11 2.23 6.05.05 12.01.02 17.97.02h17.99 162.14 17.88c.55 1.91.74 56.92.27 60.97-.05.07-.08.14-.14.19s-.14.09-.21.1c-.39.05-.79.13-1.18.13-93.54 0-187.09-.01-280.63-.03-.23 0-.45-.12-.82-.22-.05-.59-.15-1.21-.15-1.83.04-38.85.08-77.7.12-116.55 0-8.38 1.09-16.59 4.25-24.41 5.4-13.35 14.79-22.99 27.64-29.3 8.6-4.23 17.77-6.66 27.21-8.15 9.51-1.5 19.11-1.51 28.7-1.51 48.13-.01 96.26-.06 144.39-.1h3.23z"/><path d="m237.241 62.92v61.94c-.57.08-.94.17-1.31.17-31.79-.19-53.78-22.1-61.1-41.01-2.92-7.55-4.46-15.36-4.51-23.4-.12-19.27-.05-38.53-.04-57.79999 0-.47.07-.95.1-1.4 1.9-.530004 281-.580004 283.27-.04v60.78999c-.11.1-.16.16-.22.21s-.12.12-.19.14c-.15.04-.31.07-.47.08-.16.02-.32.02-.48.02-71.48.03-142.96.05-214.44.08-.07 0-.14.05-.6.22z"/><path d="m187.111 514.51c.07-7.41 1.02-13.45 3.51-19.19 4.35-10.02 11.48-17.21 21.75-21.07 15.32-5.77 30.57-5.88 45.69.84 12.42 5.52 19.8 15.01 22.37 28.27 1.54 7.94 1.79 15.92-.57 23.73-3.89 12.9-11.92 22.16-24.87 26.5-13.39 4.49-26.93 5-40.45.38-5.43-1.86-10.27-4.77-14.59-8.54-6.88-5.99-10.62-13.67-11.94-22.59-.47-3.16-.68-6.35-.89-8.34zm46.43-26.59c-3.66.43-7.27.58-10.77 1.32-7.96 1.68-13.51 6.32-15.94 14.24-.84 2.73-1.54 5.56-1.89 8.39-1.53 12.42 6.52 23.84 17.69 26.36 7.6 1.72 15.22 1.9 22.8.11 7.88-1.87 13.74-6.28 16.57-14.12 2.05-5.7 2.46-11.57 1.03-17.45-2.28-9.39-8.05-15.49-17.65-17.44-3.89-.79-7.91-.96-11.84-1.4z"/><path d="m575.821 472.1h74.55v16.02h-56.91v17.23c7.64.16 15.28.05 22.92.07 7.66.02 15.33 0 23.16 0v13.98c-5.11.32-10.19.1-15.27.14-5.12.04-10.23 0-15.35 0h-15.49v18.96h56.95v16.23h-74.36c-.48-1.73-.7-77.51-.21-82.65z"/><path d="m397.581 472.22v2.9c.16 14.78.3 29.56.5 44.34.03 1.91.18 3.85.58 5.71 1.41 6.55 5.27 11.04 11.74 12.99 6.16 1.86 12.45 2.16 18.66.34 2.33-.68 4.6-1.87 6.6-3.27 4.68-3.27 7.1-7.83 7.14-13.64.09-15.5.25-31 .37-46.5 0-.94 0-1.88 0-2.96h17.86c.04.85.1 1.63.1 2.41.06 11.11.18 22.21.15 33.32-.01 5.67-.27 11.34-.44 17.01-.02.72-.07 1.45-.24 2.14-3.29 13.86-10.57 24.22-25.06 28.02-10.15 2.65-20.36 3.01-30.5-.12-5.96-1.84-11.32-4.8-15.8-9.19-6.34-6.21-9.22-13.92-9.32-22.66-.15-14.46-.12-28.92-.16-43.38 0-2.39 0-4.78 0-7.46z"/><path d="m161.151 472.18h17.14c.11.63.29 1.24.31 1.85.47 15.71-1.73 30.94-8.74 45.18-9.76 19.84-25.7 31.49-47.46 35.26-9.21 1.6-18.45 1.54-27.7.41-.23-.03-.44-.13-.81-.23v-82.49h17.53c.33 2.64.1 5.33.15 8.01.04 2.72 0 5.43 0 8.15v41 8.24c3.39.39 6.53-.08 9.64-.63 12.3-2.19 21.81-8.67 28.81-18.93 5.41-7.93 8.57-16.73 10.07-26.16.88-5.54 1.13-11.12 1.05-16.72-.01-.87 0-1.75 0-2.91z"/><path d="m311.201 472.13v2.91c0 16.47-.01 32.93.02 49.4 0 1.75.13 3.52.46 5.23.77 3.98 3.32 6.28 7.26 6.97 1.64.29 3.34.41 5.01.41 15.35.04 30.7.03 46.05.04h2.98v17.75c-.73.06-1.42.16-2.11.16-16.87 0-33.74 0-50.61.01-4.05 0-7.98-.59-11.66-2.32-9.88-4.64-15.39-12.44-15.56-23.36-.28-17.26-.12-34.53-.14-51.8 0-1.75 0-3.5 0-5.41h18.31z"/><path d="m63.021 521.23c-1.03 0-1.89 0-2.75 0-10.95 0-21.91 0-32.86 0-1.12 0-2.25-.02-3.35.1-3.47.36-5.71 2.24-6.23 5.63-.57 3.71-.25 7.46-.16 11.41h57.64c.53 1.9.67 12.23.28 15.92-1.65.5-71.27.69-75.090002.18-.06-.39-.19-.84-.19-1.28.01-10.71.08-21.42.04-32.13-.02-5.23 2.530002-8.75 6.900002-11.2 2.7-1.51 5.64-2.3 8.71-2.37 15.03-.36 30.05-.66 45.08-.97.62-.01 1.24.08 2 .14v14.59z"/><path d="m527.421 554.93h-17.46c-.02-.98-.07-1.9-.07-2.83 0-16.61.01-33.23-.03-49.84 0-2.14-.13-4.32-.51-6.43-.76-4.2-3.11-6.44-7.33-7.12-1.96-.31-3.97-.45-5.96-.46-6.71-.06-13.42-.02-20.13-.02h-2.5v-16.77c.42-.06.87-.19 1.31-.17 8.46.36 16.92.66 25.37 1.14 2.86.16 5.72.61 8.53 1.19 9.82 2.03 16.7 9.15 18.47 19.03.28 1.56.49 3.17.5 4.75.05 18.29.06 36.58.06 54.87 0 .85-.16 1.7-.26 2.66z"/><path d="m.170998 472.19h75.410002v15.88h-57.98v16.25c-1.6-.17-2.94-.19-4.22-.47-7.26-1.56-12.38-6.63-13.100002-14.03-.56-5.75-.11-11.61-.11-17.63z"/><path d="m530.111 488.04v-15.55c1.98-.53 32.13-.55 34.23-.03v15.58z"/></g></svg>