<svg fill="none" height="12" width="91" xmlns="http://www.w3.org/2000/svg" xmlns:xlink="http://www.w3.org/1999/xlink"><clipPath id="a"><path d="m0 0h91v12h-91z"/></clipPath><g clip-path="url(#a)" fill="#30363a"><path d="m86.597.418-.038-.077h-2.67l4.211 11.163v.078h2.709zm-7.185-.038-3.273 11.202h2.483l2.558-8.285h3.047l-1.091-2.957zm-77.075 5.328-.038-.039v-2.139l1.28-1.4h7.786l3.761 3.85v-3.771l-1.88-1.829-11.625-.04-1.73 1.868v2.45l2.445 2.645v-1.595z"/><path d="m12.719 8.431h-.038v.078l-1.354 1.244h-7.786l-3.651-4.123v4.085l1.882 1.867h11.473l1.918-1.906v-2.684l-2.444-2.412zm28.438-2.723-.038-.039v-2.139l1.279-1.4h7.749l3.761 3.85v-3.771l-1.843-1.829-11.623-.04-1.768 1.868v2.45l2.483 2.645z"/><path d="m51.538 8.431h-.037v.078l-1.354 1.244h-7.787l-3.686-4.123v4.085l1.88 1.867h11.511l1.88-1.906v-2.684l-2.406-2.412v3.851zm-22.832-8.091-1.468 7.78.602 3.423 1.016.039 1.467-8.285h1.843v8.362h2.445v-9.412l-1.691-1.907h-4.213zm-8.013.04-1.655 1.944v9.296h2.483v-8.284h1.843l1.354 8.323h2.483l-2.031-11.279zm47.81-.04 2.52 2.023v6.107l-1.805 1.283h-8.426v-7.545h8.84l-2.295-1.868h-9.103v11.24h13.467l1.805-1.866v-7.506l-2.294-1.868z"/></g></svg>