<svg width="94" height="44" viewBox="0 0 94 44" fill="none" xmlns="http://www.w3.org/2000/svg">
<g clip-path="url(#clip0_1525_104284)">
<path d="M52.3767 21.3751C55.721 20.8499 58.1906 20.2722 62.9241 19.1168C63.0784 19.0643 63.0784 19.0117 62.9241 19.0117C60.8661 18.9067 59.0653 18.7491 57.8305 18.6441C57.5218 18.6441 57.5218 18.5391 57.6247 18.329C57.9848 17.9088 58.2935 17.8038 59.2196 17.8038C60.1458 17.8038 62.1009 17.8038 64.1589 17.8563C68.2749 17.9088 72.3395 16.8059 77.4331 15.1253C77.4846 15.1253 77.4846 15.0727 77.4331 15.0727C70.3329 15.2303 61.7407 15.3353 60.3516 15.3353C60.1457 15.3353 60.1458 15.1778 60.3001 15.0202C60.6088 14.6526 60.969 14.4425 62.1523 14.3375C63.7987 14.2324 77.7933 13.4971 80.0571 13.4446C82.784 13.3396 84.4304 12.9194 86.6427 11.1863C87.4145 10.556 88.1863 9.87328 88.9066 9.138C89.0095 9.03296 89.0095 8.92792 88.8037 8.92792C84.5333 9.29556 62.9241 11.3964 61.8951 11.5014C60.0429 11.7115 59.2196 12.2367 58.4993 13.3921C56.2355 17.016 55.2065 18.8017 52.2224 21.2176C52.1709 21.3226 52.1709 21.4277 52.3767 21.3751ZM46.2541 22.2155C46.2027 22.2155 46.0998 22.2154 46.0483 22.1629C41.9323 19.642 37.6619 15.7555 36.7872 11.1863C36.4785 9.45312 37.1474 9.138 38.1764 8.77036C40.0801 8.0876 44.4534 6.72208 46.2541 6.72208C48.0549 6.72208 52.4282 8.0876 54.2804 8.77036C55.3094 9.138 55.9783 9.45312 55.6696 11.1863C54.7949 15.703 50.576 19.5895 46.4085 22.1629C46.4085 22.2154 46.3056 22.2155 46.2541 22.2155ZM40.1315 21.3751C40.3373 21.4277 40.3373 21.3226 40.2344 21.2176C37.2503 18.8017 36.2213 17.016 33.9575 13.3921C33.2886 12.2892 32.4139 11.764 30.5617 11.5014C29.5327 11.3964 7.92353 9.29556 3.65314 8.92792C3.39589 8.92792 3.39589 8.98044 3.55024 9.138C4.27055 9.87328 5.0423 10.556 5.86551 11.1863C8.07788 12.9194 9.77575 13.3396 12.4512 13.4446C14.7664 13.5497 28.7095 14.2324 30.3559 14.3375C31.5393 14.4425 31.8994 14.6001 32.2081 15.0202C32.3625 15.1778 32.3625 15.3353 32.1567 15.3353C30.7675 15.3353 22.1753 15.2303 15.0751 15.0727C15.0237 15.0727 14.9722 15.1253 15.0751 15.1253C20.1687 16.8584 24.1819 17.9088 28.2979 17.8563C30.3559 17.8563 32.414 17.8038 33.2886 17.8038C34.1633 17.8038 34.5234 17.9088 34.8836 18.329C34.9865 18.4865 34.9865 18.5916 34.6778 18.6441C33.443 18.7491 31.6936 18.8542 29.5842 19.0117C29.3784 19.0643 29.3784 19.0643 29.5842 19.1168C34.2662 20.2722 36.7872 20.8499 40.1315 21.3751ZM46.2541 23.581C46.357 23.581 46.4085 23.581 46.5114 23.5285C51.605 20.955 53.9717 18.5916 56.9558 13.6547C58.0877 11.764 58.7051 10.8186 61.432 10.3985C65.651 9.76824 84.842 8.40272 88.6493 7.87752C90.2443 7.66744 90.7073 7.40484 91.4791 6.56452C91.582 6.45948 91.582 6.35444 91.3762 6.35444C90.9131 6.40696 71.7736 7.24728 60.2487 7.66744C57.4189 7.825 56.5957 7.77248 54.229 6.98468C50.7303 5.88176 47.5918 5.14648 46.2541 5.14648C44.9164 5.14648 41.7779 5.88176 38.2793 6.98468C35.9126 7.77248 35.0894 7.825 32.2596 7.66744C20.7861 7.24728 1.64657 6.40696 1.13207 6.35444C0.874815 6.35444 0.874815 6.45948 1.02917 6.56452C1.80092 7.40484 2.21253 7.61492 3.85894 7.87752C7.66628 8.40272 26.8058 9.76824 31.0762 10.3985C33.8031 10.8186 34.4205 11.764 35.5524 13.6547C38.5366 18.5916 40.9033 20.955 45.9969 23.5285C46.0998 23.5285 46.1512 23.581 46.2541 23.581Z" fill="black"/>
<path d="M52.9949 11.6591C52.6862 11.5015 52.3775 11.3965 52.3775 11.1339C52.3775 10.9763 52.4804 10.8713 52.7376 10.8713C52.9949 10.8713 53.2521 10.9238 53.458 11.0814L53.5094 10.7137C53.2522 10.6087 53.0463 10.6087 52.7891 10.6087C52.1717 10.6087 51.8115 10.8713 51.8115 11.2914C51.8115 11.7116 52.0688 11.8692 52.4289 12.0267C52.7891 12.1843 52.9949 12.2893 52.9949 12.4994C52.9949 12.7095 52.8405 12.8145 52.5833 12.8145C52.326 12.8145 52.0688 12.762 51.863 12.6044L51.8115 13.0246C52.0688 13.0771 52.326 13.1296 52.5833 13.1296C53.0978 13.1296 53.5094 12.867 53.5094 12.4469C53.5094 12.0267 53.3036 11.8166 52.9949 11.6591ZM43.1679 10.9238L43.065 10.6087H41.3671L41.3156 10.7663L41.4185 10.8188C41.47 10.8713 41.5214 10.9238 41.5214 10.9763V13.0771H43.1679V12.762H42.0359V11.9217H43.0135V11.6066H42.0359V10.8713L43.1679 10.9238ZM49.5477 11.6591C49.239 11.5015 48.9303 11.3965 48.9303 11.1339C48.9303 10.9763 49.0332 10.8713 49.2905 10.8713C49.5477 10.8713 49.805 10.9238 50.0108 11.0814L50.0622 10.7137C49.805 10.6087 49.5992 10.6087 49.3419 10.6087C48.7245 10.6087 48.4158 10.8713 48.4158 11.2914C48.4158 11.7116 48.6731 11.8692 49.0332 12.0267C49.3934 12.1843 49.6506 12.2893 49.6506 12.4994C49.6506 12.7095 49.4963 12.8145 49.239 12.8145C48.9818 12.8145 48.7245 12.762 48.5187 12.6044L48.4673 13.0246C48.7245 13.0771 48.9818 13.1296 49.239 13.1296C49.7535 13.1296 50.1651 12.867 50.1651 12.4469C50.1651 12.0267 49.9079 11.8166 49.5477 11.6591ZM50.5767 10.7663L50.6796 10.8188C50.7311 10.8188 50.7825 10.9238 50.7825 10.9763V13.0771H51.297V10.6087H50.6282L50.5767 10.7663ZM48.0557 10.9238L47.9528 10.6087H46.2549L46.2034 10.7663L46.3063 10.8188C46.3578 10.8713 46.4092 10.9238 46.4092 10.9763V13.0771H48.0557V12.762H46.9237V11.9217H47.9013V11.6066H46.9237V10.8713L48.0557 10.9238ZM45.3802 12.2368L44.094 10.5562H43.5795L43.528 10.7137L43.6309 10.7663C43.6824 10.7663 43.7338 10.8713 43.7338 10.9238V13.0246H44.094V11.449L45.3288 13.0246H45.7404V10.5562H45.3802V12.2368ZM40.1323 11.8692L40.3381 11.9742C40.3895 11.9742 40.441 12.0267 40.441 12.1318V12.657C40.3381 12.7095 40.1837 12.762 40.0808 12.762C39.6178 12.7095 39.2576 12.3418 39.3091 11.8166C39.2576 11.344 39.5663 10.9238 40.0294 10.8713C40.0808 10.8713 40.0808 10.8713 40.1323 10.8713C40.3895 10.8713 40.6468 10.9763 40.8526 11.1339L40.9555 10.7137C40.6982 10.6087 40.441 10.5037 40.1323 10.5037C39.4634 10.3986 38.846 10.9238 38.7946 11.6066C38.7946 11.6591 38.7946 11.7641 38.7946 11.8166C38.7431 12.4994 39.2576 13.0771 39.875 13.0771C39.9265 13.0771 39.9779 13.0771 40.0294 13.0771C40.3381 13.0771 40.6982 13.0246 40.9555 12.8145V11.7116H40.1837L40.1323 11.8692Z" fill="black"/>
<path d="M27.5259 32.615C27.4745 30.8818 28.7607 29.4113 30.4586 29.3588C30.51 29.3588 30.5615 29.3588 30.6644 29.3588C31.7963 29.3062 32.8253 29.884 33.3913 30.8818L32.7739 31.3545C32.0535 30.2516 30.6129 29.9365 29.481 30.6718C28.4006 31.407 28.0919 32.8776 28.8122 34.033C29.2238 34.7158 29.9955 35.136 30.7673 35.136C31.4876 35.136 32.1564 34.8734 32.671 34.4007V33.0877H31.3847V32.2999H33.4427V34.7158C32.7224 35.4511 31.7448 35.8712 30.7158 35.8712C28.9665 35.9238 27.5774 34.5057 27.5259 32.72C27.5259 32.72 27.5259 32.6675 27.5259 32.615Z" fill="black"/>
<path d="M35.2441 29.4648H38.4855V30.2001H36.0673V32.1959H38.2797V32.9312H36.0673V34.9794H38.4855V35.7672H35.2441V29.4648Z" fill="black"/>
<path d="M41.1601 31.2505V35.7672H40.3369V29.4648H40.5427L44.8131 33.9816V29.4648H45.6363V35.9248H45.4305L41.1601 31.2505Z" fill="black"/>
<path d="M47.7461 29.4648H50.9875V30.2001H48.5693V32.1959H50.7817V32.9312H48.5693V34.9794H50.9875V35.7672H47.7461V29.4648Z" fill="black"/>
<path d="M52.2734 34.2418L52.9423 33.8741C53.1481 34.6094 53.817 35.0821 54.5373 35.0821C55.1547 35.1871 55.6692 34.7144 55.7721 34.1367C55.7721 34.0842 55.7721 34.0317 55.7721 34.0317C55.7721 33.5065 55.4634 33.1914 54.7431 32.9813L54.1257 32.8237C53.251 32.6137 52.6336 32.0359 52.6336 31.1431C52.6336 30.1452 53.4568 29.3574 54.4344 29.3574C54.4858 29.3574 54.5373 29.3574 54.5887 29.3574C55.4119 29.3574 56.1837 29.8301 56.5438 30.5654L55.9264 30.9855C55.6692 30.4603 55.1547 30.1452 54.5887 30.1452C53.9199 30.1452 53.5083 30.5129 53.5083 31.0906C53.5083 31.5107 53.817 31.8259 54.3315 31.9834L54.9489 32.141C56.0293 32.4036 56.6467 32.9813 56.6467 33.9792C56.6467 35.0821 55.7721 35.9224 54.5373 35.9224C53.5083 35.9224 52.6336 35.2396 52.2734 34.2418Z" fill="black"/>
<path d="M58.2939 29.4648H59.1172V35.8198H58.2939V29.4648Z" fill="black"/>
<path d="M60.6602 34.2418L61.329 33.8741C61.5348 34.6094 62.2037 35.0821 62.924 35.0821C63.5414 35.1871 64.0559 34.7144 64.1588 34.1367C64.1588 34.0842 64.1588 34.0317 64.1588 34.0317C64.1588 33.5065 63.8501 33.1914 63.1298 32.9813L62.5124 32.8237C61.6377 32.6137 61.0203 32.0359 61.0203 31.1431C61.0203 30.1452 61.8435 29.3574 62.8211 29.3574C62.8725 29.3574 62.924 29.3574 62.9754 29.3574C63.7986 29.3574 64.5704 29.8301 64.9305 30.5654L64.2617 30.9855C64.0044 30.4603 63.4899 30.1452 62.924 30.1452C62.2551 30.1452 61.8435 30.5129 61.8435 31.0906C61.8435 31.5107 62.1522 31.8259 62.6667 31.9834L63.2841 32.141C64.3646 32.4036 64.982 32.9813 64.982 33.9792C64.982 35.0821 64.1073 35.9224 62.8725 35.9224C61.8435 35.9224 60.9689 35.2396 60.6602 34.2418Z" fill="black"/>
</g>
<defs>
<clipPath id="clip0_1525_104284">
<rect width="94" height="44" fill="white"/>
</clipPath>
</defs>
</svg>
