<svg width="87" height="46" viewBox="0 0 87 46" fill="none" xmlns="http://www.w3.org/2000/svg">
<g clip-path="url(#clip0_1572_205689)">
<path d="M50.3198 23.3928L46.5273 30.708H46.4484L46.2566 23.3928H43.0844L42.9606 23.656L43.2327 23.819C43.4952 24.0007 43.5687 24.1851 43.6027 24.6928L44.0326 33.5699H47.5666L53.2703 23.3928H50.3198ZM39.0308 28.6611C38.6757 29.6618 38.3969 30.3058 37.9847 30.7307C37.661 31.0647 37.2338 31.3039 36.2503 31.3039C35.4791 31.3039 35.0492 30.9939 35.0492 30.4074C35.0438 30.0292 35.1485 29.4547 35.5607 28.3364C35.9171 27.337 36.1959 26.693 36.6095 26.2681C36.9291 25.9341 37.3576 25.6936 38.3425 25.6936C39.1138 25.6936 39.5422 26.0036 39.5409 26.5874C39.549 26.9709 39.4443 27.5454 39.0308 28.6611ZM38.8662 23.2672H38.537C36.585 23.2672 35.4695 23.7843 34.5541 24.7396C33.4155 25.9221 32.3463 29.1194 32.3667 30.8109C32.3885 32.5358 33.5243 33.7316 35.9116 33.7316H36.2612C38.2187 33.7316 39.3341 33.2145 40.2496 32.2592C41.3868 31.0741 42.4342 27.8781 42.4138 26.1879C42.3907 24.4644 41.2548 23.2672 38.8662 23.2672ZM29.2816 27.0871C29.1034 27.5214 28.9075 27.6256 28.6504 27.7285C28.4776 27.7953 28.1117 27.8193 27.7594 27.8193H26.395L27.1378 25.7163H28.7864C29.2802 25.7163 29.4815 25.9688 29.4883 26.2561C29.4911 26.4391 29.4054 26.7745 29.2816 27.0871ZM29.0367 23.3928H24.5627L24.473 23.656L24.6539 23.8311C24.8443 24.0154 24.8375 24.2346 24.6702 24.7049L21.5443 33.5699H24.4009L25.6224 30.0506L26.5896 30.052L27.6642 33.5699H30.5344L29.185 29.9691C29.9685 29.8449 30.3617 29.6244 30.7548 29.281C31.2934 28.7974 31.6662 28.1186 31.975 27.1192C32.4266 25.6695 32.1531 24.8412 31.8634 24.4163C31.4648 23.8311 30.6255 23.3928 29.0367 23.3928ZM59.0066 29.4881L59.7983 27.3597H56.1568L56.7213 25.735H60.6662L61.5327 23.3861H54.0851L53.9817 23.6854L54.1599 23.8578C54.3517 24.0408 54.3435 24.2586 54.1776 24.7316L51.0761 33.5659H58.0354L58.876 31.201H54.8142L55.4127 29.4881H59.0066ZM67.3629 27.0871C67.1847 27.5214 66.9861 27.6256 66.7331 27.7285C66.5562 27.7953 66.1957 27.8193 65.8434 27.8193H64.4804L65.2163 25.7163H66.8677C67.3588 25.7163 67.5628 25.9688 67.5669 26.2561C67.5724 26.4391 67.4839 26.7745 67.3629 27.0871ZM67.1139 23.3928H62.6413L62.5542 23.656L62.7338 23.8311C62.9256 24.0154 62.9161 24.2346 62.7515 24.7049L59.6228 33.5699H62.4835L63.7037 30.052H64.6695L65.7455 33.5699H68.613L67.2663 29.9691C68.0485 29.8449 68.4416 29.6244 68.8333 29.281C69.3734 28.7974 69.7475 28.1186 70.0562 27.1192C70.5079 25.6695 70.2344 24.8412 69.9461 24.4163C69.5475 23.8311 68.7068 23.3928 67.1139 23.3928ZM72.9795 37.0505C65.132 41.0334 54.6646 43.2273 43.5007 43.2273C32.3382 43.2273 21.8721 41.0334 14.0232 37.0505C6.47498 33.2185 2.31521 28.2282 2.31521 23.0013C2.31521 17.7705 6.47498 12.7801 14.0232 8.95086C21.8721 4.96927 32.3382 2.77271 43.5007 2.77271C54.6646 2.77271 65.132 4.96927 72.9795 8.95086C80.5291 12.7801 84.6848 17.7705 84.6848 23.0013C84.6848 28.2282 80.5291 33.2185 72.9795 37.0505ZM74.0419 6.93067C65.8693 2.7834 55.0237 0.5 43.5007 0.5C31.9777 0.5 21.1307 2.7834 12.9608 6.93067C8.12092 9.38777 0 14.7429 0 23.0013C0 31.2558 8.12092 36.6122 12.9608 39.0693C21.1294 43.2166 31.975 45.5 43.5007 45.5C55.0251 45.5 65.8706 43.2166 74.0419 39.0693C78.8818 36.6122 87 31.2571 87 23.0013C87 14.7415 78.8818 9.38777 74.0419 6.93067ZM71.8804 34.9621C63.4371 39.2457 52.9343 40.8744 43.5007 40.8744C34.0657 40.8744 23.5656 39.2457 15.1196 34.9621C10.6511 32.6921 4.71068 28.5101 4.71068 23.0013C4.71068 17.4872 10.6497 13.3092 15.1196 11.0405C23.5656 6.75698 34.0657 5.12827 43.5007 5.12827C52.9343 5.12827 63.4371 6.7543 71.8804 11.0405C76.353 13.3092 82.2907 17.4872 82.2907 23.0013C82.2907 28.5128 76.3517 32.6921 71.8804 34.9621ZM72.3184 10.2055C63.7459 5.8511 53.0717 4.18497 43.5007 4.18497C33.9283 4.18497 23.2569 5.85244 14.6802 10.2055C9.86482 12.6479 3.75304 17.057 3.75304 23.0013C3.75304 28.9403 9.86482 33.3521 14.6802 35.7972C23.2569 40.1476 33.931 41.815 43.5007 41.815C53.0717 41.815 63.7459 40.1502 72.3184 35.7972C77.1366 33.3521 83.2483 28.9403 83.2483 23.0013C83.2483 17.057 77.1379 12.6479 72.3184 10.2055ZM21.8775 24.7049L14.0599 27.2301L13.105 29.8034H19.999L20.8968 27.3784H16.1181L21.5429 25.5747L21.8775 24.7049ZM52.9846 13.4295H54.1177C54.889 13.4295 55.3148 13.6833 55.3243 14.2699C55.3311 14.648 55.2277 15.1664 54.8278 16.2821C54.4741 17.2801 54.1912 17.8587 53.7899 18.2822C53.4675 18.6162 53.039 18.7645 52.0555 18.7645H51.1088L52.9846 13.4295ZM50.5007 12.3272L47.4074 21.1923H51.9712C53.9273 21.1923 55.0441 20.766 55.95 19.8121C57.0872 18.6309 58.1265 15.5579 58.0925 13.8664C58.0585 12.1401 56.924 11.0165 54.5367 11.0165H50.3905L50.3035 11.2784L50.483 11.4507C50.6735 11.6364 50.6667 11.8556 50.5007 12.3272ZM67.722 14.6654H60.828L59.9303 17.0877H64.7076L59.2814 18.8968L58.9468 19.764L66.7643 17.2387L67.722 14.6654ZM36.9101 21.1869H39.5082L41.7745 14.6039L43.0994 21.1869H45.7003L49.2452 11.0125L46.5273 11.0165L44.6338 16.5466L43.5524 11.0165H39.8891L39.7993 11.2784L39.9789 11.4507C40.1721 11.6364 40.1625 11.8556 39.9979 12.3272L36.9101 21.1869ZM18.2823 21.1923L25.3517 21.1896L26.206 18.7645H22.0965L24.8117 11.0165H21.2668L21.1783 11.2784L21.3552 11.4507C21.5483 11.6364 21.5402 11.8556 21.3742 12.3272L18.2823 21.1923ZM33.323 13.829H33.4155L33.4645 16.902H31.5573L33.323 13.829ZM26.0849 21.1869H29.0925L30.3957 18.9382H33.5094L33.5406 21.1869H36.2694L35.6804 11.0165H31.5954L31.5043 11.2784L31.6362 11.408C31.8512 11.6151 31.7627 11.913 30.967 13.1529L26.0849 21.1869Z" fill="black"/>
</g>
<defs>
<clipPath id="clip0_1572_205689">
<rect width="87" height="45" fill="white" transform="translate(0 0.5)"/>
</clipPath>
</defs>
</svg>
