<svg width="24" height="24" viewBox="0 0 24 24" fill="none" xmlns="http://www.w3.org/2000/svg">
<path d="M12 24C18.6275 24 24 18.6275 24 12C24 5.3725 18.6275 0 12 0C5.3725 0 0 5.3725 0 12C0.0075 18.6245 5.3755 23.9925 12 24ZM12 1.3335C17.891 1.3335 22.6665 6.1085 22.6665 12C22.6665 17.891 17.8915 22.6665 12 22.6665C6.109 22.6665 1.3335 17.8915 1.3335 12C1.34 6.1115 6.1115 1.34 12 1.3335Z" fill="white"/>
<path d="M8.32405 7.17816C8.57005 7.04816 8.85505 7.00966 9.12705 7.10016C9.2744 7.14367 9.41073 7.21821 9.5269 7.31876C9.64306 7.41932 9.73637 7.54356 9.80055 7.68316L10.1115 8.37016C10.6238 8.21388 11.1565 8.13517 11.692 8.13666C13.195 8.13666 14.542 8.74566 15.449 9.69166C15.644 9.60066 15.954 9.48416 16.2915 9.39366C16.369 9.03066 16.4985 8.60366 16.68 8.08516C16.745 7.89066 16.965 7.80016 17.1595 7.86516C17.3665 7.92966 17.4575 8.15016 17.3925 8.34416C17.2625 8.71966 17.1595 9.03066 17.0945 9.28966C17.25 9.28966 17.4055 9.30266 17.548 9.34166C18.17 9.51016 18.39 10.0672 18.2735 10.5337C18.17 11.0002 17.794 11.2982 17.3665 11.2982C17.315 11.2982 17.263 11.2982 17.198 11.2852C16.913 11.2332 16.563 11.1167 16.356 10.7667C16.2655 10.6117 16.2265 10.4302 16.2135 10.1967C16.1247 10.2191 16.038 10.2496 15.9545 10.2877C16.408 10.9612 16.6795 11.7642 16.6795 12.6067C16.6795 13.3837 16.4595 14.1482 16.032 14.8217L16.252 15.2107C16.628 15.8712 16.408 16.7132 15.747 17.0892L15.2935 17.3482C14.633 17.7237 13.791 17.5032 13.415 16.8432L13.402 16.8172C12.5619 17.0885 11.6691 17.155 10.798 17.0112L10.7725 17.0502C10.604 17.3872 10.332 17.6332 9.98205 17.7502C9.82705 17.8017 9.68405 17.8277 9.52855 17.8277C9.32194 17.8236 9.11864 17.775 8.93255 17.6852L8.45355 17.4517C8.11655 17.2832 7.87055 17.0117 7.75355 16.6617C7.63789 16.3165 7.6612 15.9399 7.81855 15.6117L7.88355 15.4827C7.65085 15.2294 7.44663 14.9514 7.27455 14.6537H7.10605C6.7627 14.6526 6.43372 14.5157 6.19098 14.2729C5.94824 14.03 5.81147 13.701 5.81055 13.3577V12.4767C5.81055 11.8032 6.32855 11.2332 6.98955 11.1817C7.17055 10.7017 7.44255 10.2617 7.77955 9.85966C7.27455 9.30266 7.09305 8.77166 7.20955 8.27966C7.37805 7.56666 8.13005 7.24266 8.32405 7.17816ZM12.08 10.4257H10.8165V12.4577H10.684C10.642 12.4576 10.6004 12.4658 10.5616 12.4818C10.5228 12.4979 10.4875 12.5214 10.4578 12.5511C10.4281 12.5807 10.4045 12.616 10.3884 12.6548C10.3723 12.6936 10.364 12.7352 10.364 12.7772L10.368 12.8242C10.3794 12.8998 10.4176 12.9689 10.4756 13.0188C10.5336 13.0687 10.6075 13.0962 10.684 13.0962H10.8165V13.5467H10.6715C10.6312 13.5466 10.5913 13.5545 10.554 13.5699C10.5167 13.5853 10.4828 13.6079 10.4543 13.6364C10.4258 13.6649 10.4032 13.6988 10.3878 13.7361C10.3724 13.7734 10.3645 13.8133 10.3645 13.8537L10.3685 13.9032C10.392 14.0487 10.5185 14.1602 10.671 14.1602H10.816L10.8165 14.7067C10.8165 14.7998 10.8536 14.8892 10.9194 14.955C10.9853 15.0209 11.0746 15.0579 11.1678 15.0579C11.261 15.0579 11.3503 15.0209 11.4162 14.955C11.482 14.8892 11.519 14.7998 11.519 14.7067V14.1602H12.238L12.288 14.1562C12.3636 14.1431 12.4315 14.1022 12.4785 14.0416C12.5254 13.981 12.548 13.905 12.5417 13.8285C12.5354 13.7521 12.5008 13.6808 12.4446 13.6287C12.3884 13.5765 12.3147 13.5472 12.238 13.5467H11.519V13.0967H12.066L12.1465 13.0952C12.3241 13.0906 12.5005 13.0641 12.6715 13.0162C12.862 12.9622 13.0285 12.8787 13.17 12.7667C13.3135 12.6537 13.4265 12.5117 13.5095 12.3417C13.5925 12.1707 13.6335 11.9717 13.6335 11.7452C13.6335 11.5197 13.595 11.3227 13.516 11.1562C13.4412 10.9945 13.3291 10.8528 13.189 10.7427C13.0426 10.6305 12.8751 10.5489 12.6965 10.5027C12.5219 10.4563 12.3423 10.4309 12.1615 10.4272L12.08 10.4257ZM12.0785 11.0647L12.1365 11.0657C12.3825 11.0732 12.574 11.1287 12.7125 11.2307C12.8535 11.3342 12.9245 11.5022 12.9245 11.7457C12.9245 11.9892 12.8525 12.1642 12.7095 12.2782C12.5605 12.3967 12.351 12.4577 12.0785 12.4577H11.519V11.0642L12.0785 11.0647ZM16.9525 10.0417C16.939 10.2227 16.965 10.3392 17.004 10.4042C17.03 10.4557 17.0945 10.5077 17.3405 10.5592C17.483 10.5852 17.5355 10.4172 17.548 10.3782C17.574 10.2877 17.574 10.1192 17.3535 10.0672C17.2218 10.0383 17.0869 10.0301 16.9525 10.0417Z" fill="white"/>
<path d="M14.1558 8.20318C13.9743 8.20318 13.8058 8.07318 13.7798 7.87918C13.6893 7.24418 13.1318 6.76518 12.4713 6.76518C12.2134 6.76379 11.9607 6.83783 11.7443 6.97819C11.5279 7.11855 11.3572 7.3191 11.2533 7.55518C11.1758 7.74968 10.9553 7.82718 10.7613 7.74968C10.5668 7.67218 10.4893 7.45167 10.5668 7.25717C10.7287 6.88695 10.9951 6.57205 11.3334 6.35115C11.6718 6.13024 12.0672 6.01295 12.4713 6.01368C13.4948 6.01368 14.3758 6.77818 14.5183 7.77568C14.5443 7.98268 14.4018 8.16418 14.1943 8.20318H14.1558Z" fill="white"/>
</svg>
