<svg width="24" height="24" viewBox="0 0 24 24" fill="none" xmlns="http://www.w3.org/2000/svg">
<path fill-rule="evenodd" clip-rule="evenodd" d="M12 22.8444C17.9892 22.8444 22.8444 17.9892 22.8444 12C22.8444 6.01078 17.9892 1.15556 12 1.15556C6.01078 1.15556 1.15556 6.01078 1.15556 12C1.15556 17.9892 6.01078 22.8444 12 22.8444ZM12 24C18.6274 24 24 18.6274 24 12C24 5.37259 18.6274 0 12 0C5.37259 0 0 5.37259 0 12C0 18.6274 5.37259 24 12 24Z" fill="white"/>
<path fill-rule="evenodd" clip-rule="evenodd" d="M12 22.8444C17.9892 22.8444 22.8444 17.9892 22.8444 12C22.8444 6.01078 17.9892 1.15556 12 1.15556C6.01078 1.15556 1.15556 6.01078 1.15556 12C1.15556 17.9892 6.01078 22.8444 12 22.8444ZM12 24C18.6274 24 24 18.6274 24 12C24 5.37259 18.6274 0 12 0C5.37259 0 0 5.37259 0 12C0 18.6274 5.37259 24 12 24Z" fill="white"/>
<path d="M16.9851 6.22222H9.14387C8.91596 6.22222 8.73114 6.407 8.73114 6.63492V7.87302H7.90576C7.67783 7.87302 7.49306 8.0578 7.49306 8.28573V17.3651C7.49306 17.593 7.67783 17.7778 7.90576 17.7778H15.3344C15.5623 17.7778 15.7471 17.593 15.7471 17.3651V16.9524H16.9851C17.213 16.9524 17.3978 16.7676 17.3978 16.5396V6.63491C17.3978 6.407 17.213 6.22222 16.9851 6.22222ZM14.9217 16.9524H8.31847V8.69841H12.8581V10.3492C12.8581 10.5772 13.0429 10.762 13.2708 10.762H14.9217V16.9524ZM13.6835 9.93653V9.28196L14.3381 9.93653H13.6835ZM16.5724 16.1269H15.7471V10.3492C15.7465 10.2396 15.7029 10.1348 15.6257 10.0571L13.5622 7.99352C13.4846 7.91682 13.38 7.87358 13.2708 7.87302H9.55658V7.04761H16.5724V16.1269Z" fill="white"/>
<path d="M13.682 11.5868H9.55507C9.32716 11.5868 9.14236 11.7716 9.14236 11.9995C9.14236 12.2275 9.32716 12.4122 9.55507 12.4122H13.6821C13.91 12.4122 14.0948 12.2274 14.0948 11.9995C14.0948 11.7716 13.91 11.5868 13.682 11.5868Z" fill="white"/>
<path d="M13.682 13.2396H9.55507C9.32716 13.2396 9.14236 13.4243 9.14236 13.6523C9.14236 13.8802 9.32716 14.065 9.55507 14.065H13.6821C13.91 14.065 14.0948 13.8802 14.0948 13.6523C14.0948 13.4243 13.91 13.2396 13.682 13.2396Z" fill="white"/>
<path d="M13.682 14.8889H9.55507C9.32716 14.8889 9.14236 15.0737 9.14236 15.3016C9.14236 15.5295 9.32716 15.7143 9.55507 15.7143H13.6821C13.91 15.7143 14.0948 15.5295 14.0948 15.3016C14.0947 15.0737 13.91 14.8889 13.682 14.8889Z" fill="white"/>
</svg>
