<svg width="24" height="24" viewBox="0 0 24 24" fill="none" xmlns="http://www.w3.org/2000/svg">
<path fill-rule="evenodd" clip-rule="evenodd" d="M12 22.8444C17.9892 22.8444 22.8444 17.9892 22.8444 12C22.8444 6.01078 17.9892 1.15556 12 1.15556C6.01078 1.15556 1.15556 6.01078 1.15556 12C1.15556 17.9892 6.01078 22.8444 12 22.8444ZM12 24C18.6274 24 24 18.6274 24 12C24 5.37259 18.6274 0 12 0C5.37259 0 0 5.37259 0 12C0 18.6274 5.37259 24 12 24Z" fill="white"/>
<path d="M18.5273 10.5839L15.1939 7.25053C15.0078 7.06459 14.7064 7.06465 14.5204 7.25064C14.4312 7.33993 14.381 7.46097 14.381 7.58722V9.01582H11.0476C10.7846 9.01582 10.5714 9.22898 10.5714 9.492C10.5714 9.75502 10.7846 9.96826 11.0476 9.96826H14.8572C15.1202 9.96826 15.3334 9.75502 15.3334 9.492V8.73674L17.5172 10.9206L15.3334 13.1044V12.3492C15.3334 12.0861 15.1202 11.873 14.8572 11.873H9.61902V10.4444C9.61894 10.1813 9.40569 9.96826 9.14276 9.96826C9.01645 9.96835 8.89538 10.0185 8.80614 10.1077L5.47277 13.4411C5.28686 13.6271 5.28686 13.9285 5.47277 14.1144L8.80616 17.4478C8.89547 17.5372 9.01654 17.5874 9.14285 17.5874C9.20542 17.5876 9.26747 17.5753 9.32516 17.5512C9.50311 17.4774 9.61902 17.3037 9.61902 17.1112V15.6826H12.9524C13.2154 15.6826 13.4286 15.4693 13.4286 15.2064C13.4286 14.9434 13.2154 14.7301 12.9524 14.7301H9.14285C8.87982 14.7301 8.66663 14.9434 8.66663 15.2064V15.9616L6.48278 13.7778L8.66663 11.594V12.3492C8.66663 12.6122 8.87982 12.8254 9.14285 12.8254H14.381V14.254C14.3811 14.517 14.5943 14.7301 14.8572 14.73C14.9835 14.73 15.1045 14.6799 15.1939 14.5907L18.5273 11.2572C18.7132 11.0713 18.7132 10.7699 18.5273 10.5839Z" fill="white"/>
</svg>
