<svg width="24" height="24" viewBox="0 0 24 24" fill="none" xmlns="http://www.w3.org/2000/svg">
<path fill-rule="evenodd" clip-rule="evenodd" d="M12 22.8444C17.9892 22.8444 22.8444 17.9892 22.8444 12C22.8444 6.01078 17.9892 1.15556 12 1.15556C6.01078 1.15556 1.15556 6.01078 1.15556 12C1.15556 17.9892 6.01078 22.8444 12 22.8444ZM12 24C18.6274 24 24 18.6274 24 12C24 5.37259 18.6274 0 12 0C5.37259 0 0 5.37259 0 12C0 18.6274 5.37259 24 12 24Z" fill="white"/>
<path d="M17.3926 8.60112H13.8142C13.8682 8.55618 13.9208 8.50873 13.9722 8.45879C14.6713 7.77897 14.8465 6.92498 14.3804 6.47176C14.2921 6.3891 14.1876 6.32448 14.0732 6.28171C13.9588 6.23892 13.8366 6.21885 13.714 6.22268C13.1876 6.26046 12.6957 6.49222 12.3389 6.87067C12.2128 6.9925 12.0993 7.12611 12 7.26957C11.9007 7.12611 11.7872 6.9925 11.6611 6.87067C11.3043 6.49222 10.8124 6.26046 10.286 6.22268C10.1633 6.2191 10.0411 6.23947 9.92658 6.28257C9.81218 6.32567 9.70773 6.39064 9.61956 6.47363C9.15351 6.92685 9.32871 7.78459 10.0278 8.46067C10.0792 8.5106 10.1318 8.55804 10.1858 8.60299H6.6074C6.50525 8.60299 6.40728 8.64245 6.33504 8.7127C6.2628 8.78294 6.22222 8.87821 6.22222 8.97751V11.5976C6.22222 11.6969 6.2628 11.7922 6.33504 11.8624C6.40728 11.9327 6.50525 11.9722 6.6074 11.9722H6.8V17.4032C6.8 17.5026 6.84058 17.5979 6.91282 17.6681C6.98506 17.7383 7.08303 17.7778 7.18518 17.7778H16.8148C16.917 17.7778 17.0149 17.7383 17.0872 17.6681C17.1594 17.5979 17.2 17.5026 17.2 17.4032V11.9722H17.3926C17.4948 11.9722 17.5927 11.9327 17.665 11.8624C17.7372 11.7922 17.7778 11.6969 17.7778 11.5976V8.97564C17.7778 8.87634 17.7372 8.78106 17.665 8.71082C17.5927 8.64058 17.4948 8.60112 17.3926 8.60112ZM17.0074 11.223H13.7333V9.35022H17.0074V11.223ZM12.9629 9.35022V11.223H11.0371V9.35022H12.9629ZM12.884 7.40067C13.0974 7.16373 13.3927 7.01114 13.714 6.97179C13.7577 6.96849 13.8012 6.97971 13.8373 7.00363C13.9163 7.08042 13.872 7.49992 13.4291 7.93067C12.986 8.3614 12.5604 8.4101 12.466 8.3277C12.3717 8.24529 12.4411 7.82954 12.884 7.40067ZM10.1627 7.00176C10.1988 6.97785 10.2423 6.96661 10.286 6.96992C10.6073 7.00927 10.9026 7.16186 11.116 7.39879C11.5589 7.82953 11.6033 8.24904 11.5243 8.33518C11.4453 8.42133 11.0004 8.35579 10.5709 7.93815C10.1415 7.52052 10.0837 7.08042 10.1627 7.00176ZM6.9926 9.35022H10.2667V11.223H6.9926V9.35022ZM7.57037 17.0286V11.9722H10.2667V17.0286H7.57037ZM11.0371 17.0286V11.9722H12.9629V17.0286H11.0371ZM16.4296 17.0286H13.7333V11.9722H16.4296V17.0286Z" fill="white"/>
</svg>
