<svg width="24" height="24" viewBox="0 0 24 24" fill="none" xmlns="http://www.w3.org/2000/svg">
<path fill-rule="evenodd" clip-rule="evenodd" d="M12.0167 18.8936C6.7672 17.6861 3.8802 9.81262 7.5022 6.45362C8.8147 7.29312 10.7567 7.66062 12.0167 6.50562C13.2767 7.66062 15.1657 7.29312 16.5307 6.45312C20.1002 9.81312 17.2132 17.6866 12.0167 18.8936Z" fill="white"/>
<path d="M12 24C18.6275 24 24 18.6275 24 12C24 5.3725 18.6275 0 12 0C5.3725 0 0 5.3725 0 12C0.0075 18.6245 5.3755 23.9925 12 24ZM12 1.3335C17.891 1.3335 22.6665 6.1085 22.6665 12C22.6665 17.891 17.8915 22.6665 12 22.6665C6.109 22.6665 1.3335 17.8915 1.3335 12C1.34 6.1115 6.1115 1.34 12 1.3335Z" fill="white"/>
</svg>
