<svg width="24" height="24" viewBox="0 0 24 24" fill="none" xmlns="http://www.w3.org/2000/svg">
<path d="M16.8048 15.6876C15.7117 15.6876 14.7868 14.8468 14.5346 13.8379H19.0751C18.8228 14.8468 17.8979 15.6876 16.8048 15.6876ZM16.8048 9.71769L18.066 12.9129H15.5436L16.8048 9.71769ZM12.1802 8.96098C11.9279 8.96098 11.7597 8.79279 11.7597 8.54054C11.7597 8.28828 11.9279 8.12012 12.1802 8.12012C12.4324 8.12012 12.6006 8.28828 12.6006 8.54054C12.6847 8.70871 12.4324 8.96098 12.1802 8.96098ZM6.37838 12.8288L7.63964 9.6336L8.90089 12.8288H6.37838ZM7.63964 15.6876C6.54655 15.6876 5.62162 14.8468 5.36937 13.8379H9.90987C9.74178 14.8468 8.81682 15.6876 7.63964 15.6876ZM19.5796 12.8288H19.0751L17.4775 8.87688C17.7297 8.87688 17.8979 8.62462 17.8979 8.45645C17.8979 8.2042 17.7297 7.95196 17.4775 7.95196H13.5255C13.2732 7.53153 12.7688 7.11111 12.1802 7.11111C11.5916 7.11111 11.0871 7.53153 10.9189 8.03604H7.05105C6.7988 8.03604 6.63063 8.2042 6.63063 8.54054C6.63063 8.79279 6.7988 8.96098 7.05105 8.96098L5.45345 12.9129H4.86486C4.61261 12.9129 4.44444 13.0811 4.44444 13.4174C4.44444 15.2673 5.87388 16.6967 7.63964 16.6967C9.40542 16.6967 10.8348 15.1832 10.8348 13.4174C10.8348 13.1652 10.6667 12.9129 10.4144 12.9129H9.90987L8.31231 8.96098H10.9189C11.0871 9.46542 11.5916 9.88587 12.1802 9.88587C12.7688 9.88587 13.2732 9.46542 13.4414 8.96098H16.0481L14.5346 12.8288H14.03C13.7778 12.8288 13.6096 12.997 13.6096 13.3333C13.6096 15.1832 15.039 16.6126 16.8048 16.6126C18.5706 16.6126 20 15.0991 20 13.3333C20 13.0811 19.8318 12.8288 19.5796 12.8288Z" fill="white"/>
<path fill-rule="evenodd" clip-rule="evenodd" d="M12 22.8444C17.9892 22.8444 22.8444 17.9892 22.8444 12C22.8444 6.01078 17.9892 1.15556 12 1.15556C6.01078 1.15556 1.15556 6.01078 1.15556 12C1.15556 17.9892 6.01078 22.8444 12 22.8444ZM12 24C18.6274 24 24 18.6274 24 12C24 5.37259 18.6274 0 12 0C5.37259 0 0 5.37259 0 12C0 18.6274 5.37259 24 12 24Z" fill="white"/>
</svg>
