<svg width="24" height="24" viewBox="0 0 24 24" fill="none" xmlns="http://www.w3.org/2000/svg">
<path fill-rule="evenodd" clip-rule="evenodd" d="M12 22.8444C17.9892 22.8444 22.8444 17.9892 22.8444 12C22.8444 6.01078 17.9892 1.15556 12 1.15556C6.01078 1.15556 1.15556 6.01078 1.15556 12C1.15556 17.9892 6.01078 22.8444 12 22.8444ZM12 24C18.6274 24 24 18.6274 24 12C24 5.37259 18.6274 0 12 0C5.37259 0 0 5.37259 0 12C0 18.6274 5.37259 24 12 24Z" fill="white"/>
<path d="M10.7111 7.72778C10.3003 7.31664 9.80391 7.11111 9.22222 7.11111C8.64051 7.11111 8.14236 7.31664 7.72778 7.72778C7.31664 8.14236 7.11111 8.64051 7.11111 9.22222C7.11111 9.80391 7.31664 10.3003 7.72778 10.7111C8.14236 11.126 8.64051 11.3333 9.22222 11.3333C9.80391 11.3333 10.3003 11.126 10.7111 10.7111C11.126 10.3003 11.3333 9.80391 11.3333 9.22222C11.3333 8.64051 11.126 8.14236 10.7111 7.72778ZM9.22222 8C9.55902 8.00004 9.84604 8.11856 10.0834 8.35556C10.324 8.59652 10.4444 8.8854 10.4444 9.22222C10.4444 9.55902 10.324 9.84604 10.0834 10.0834C9.84604 10.324 9.55902 10.4444 9.22222 10.4444C8.8854 10.4444 8.59652 10.324 8.35556 10.0834C8.11856 9.84604 8.00004 9.55902 8 9.22222C8.00004 8.8854 8.11856 8.59652 8.35556 8.35556C8.59652 8.11856 8.8854 8.00004 9.22222 8ZM16.8889 14.7778C16.8889 14.1961 16.6815 13.698 16.2667 13.2834C15.8558 12.8722 15.3595 12.6667 14.7778 12.6667C14.1961 12.6667 13.698 12.8722 13.2834 13.2834C12.8722 13.698 12.6667 14.1961 12.6667 14.7778C12.6667 15.3595 12.8722 15.8558 13.2834 16.2667C13.698 16.6815 14.1961 16.8889 14.7778 16.8889C15.3595 16.8889 15.8558 16.6815 16.2667 16.2667C16.6815 15.8558 16.8889 15.3595 16.8889 14.7778ZM15.6389 13.9111C15.8796 14.1521 16 14.441 16 14.7778C16 15.1146 15.8796 15.4016 15.6389 15.6389C15.4016 15.8796 15.1146 16 14.7778 16C14.441 16 14.1521 15.8796 13.9111 15.6389C13.6741 15.4016 13.5556 15.1146 13.5556 14.7778C13.5556 14.441 13.6741 14.1521 13.9111 13.9111C14.1521 13.6741 14.441 13.5556 14.7778 13.5556C15.1146 13.5556 15.4016 13.6741 15.6389 13.9111ZM16.4444 7.11111C16.3219 7.11124 16.2163 7.15383 16.1277 7.23889L7.23889 16.1277C7.15383 16.2163 7.11124 16.3219 7.11111 16.4444C7.11124 16.567 7.15383 16.6708 7.23889 16.7556C7.3274 16.8444 7.43296 16.8888 7.55556 16.8889C7.67815 16.8888 7.78186 16.8444 7.86667 16.7556L16.7556 7.86667C16.8444 7.78186 16.8888 7.67815 16.8889 7.55556C16.8888 7.43296 16.8444 7.3274 16.7556 7.23889C16.6708 7.15383 16.567 7.11124 16.4444 7.11111Z" fill="white"/>
</svg>
