<svg width="24" height="24" viewBox="0 0 24 24" fill="none" xmlns="http://www.w3.org/2000/svg">
<path fill-rule="evenodd" clip-rule="evenodd" d="M12 22.8444C17.9892 22.8444 22.8444 17.9892 22.8444 12C22.8444 6.01078 17.9892 1.15556 12 1.15556C6.01078 1.15556 1.15556 6.01078 1.15556 12C1.15556 17.9892 6.01078 22.8444 12 22.8444ZM12 24C18.6274 24 24 18.6274 24 12C24 5.37259 18.6274 0 12 0C5.37259 0 0 5.37259 0 12C0 18.6274 5.37259 24 12 24Z" fill="white"/>
<path d="M18.3692 10.4487L17.1448 10.1482C17.0869 9.9896 17.0203 9.83076 16.9452 9.67307L17.583 8.61018C17.6752 8.45648 17.651 8.25974 17.5243 8.133L15.8669 6.47571C15.7403 6.34896 15.5435 6.32474 15.3898 6.41695L14.3269 7.05468C14.1692 6.97969 14.0104 6.91302 13.8517 6.85518L13.5512 5.63084C13.5084 5.45617 13.3517 5.33333 13.1719 5.33333H10.8281C10.6483 5.33333 10.4916 5.45617 10.4488 5.63084L10.1483 6.85518C9.9896 6.91302 9.83084 6.97969 9.67307 7.05468L8.61023 6.41695C8.45656 6.32474 8.2598 6.34896 8.13305 6.47571L6.47575 8.133C6.34901 8.25974 6.32479 8.45648 6.417 8.61018L7.05471 9.67307C6.97972 9.83076 6.91308 9.9896 6.85524 10.1482L5.63084 10.4487C5.45617 10.4916 5.33333 10.6483 5.33333 10.8281V13.1719C5.33333 13.3517 5.45617 13.5084 5.63084 13.5513L6.85524 13.8518C6.91308 14.0104 6.97972 14.1692 7.05471 14.3269L6.417 15.3898C6.32479 15.5436 6.34901 15.7403 6.47575 15.867L8.13305 17.5243C8.2598 17.651 8.45653 17.6753 8.61023 17.583L9.67307 16.9453C9.83084 17.0204 9.9896 17.087 10.1483 17.1448L10.4488 18.3692C10.4927 18.5476 10.6536 18.6667 10.8281 18.6667H13.1719C13.3506 18.6667 13.5083 18.5435 13.5512 18.3692L13.8517 17.1448C14.0104 17.087 14.1692 17.0204 14.3269 16.9453L15.3898 17.583C15.5435 17.6753 15.7402 17.6511 15.8669 17.5243L17.5243 15.867C17.651 15.7403 17.6752 15.5436 17.583 15.3898L16.9452 14.3269C17.0203 14.1692 17.0869 14.0104 17.1448 13.8518L18.3692 13.5513C18.5438 13.5084 18.6667 13.3517 18.6667 13.1719V10.8281C18.6667 10.6483 18.5438 10.4916 18.3692 10.4487ZM10.6115 12.3251L11.7833 13.1063C11.9146 13.1938 12.0855 13.1938 12.2167 13.1063L13.3885 12.3251C13.4972 12.2526 13.5625 12.1307 13.5625 12V9.75556C14.2891 10.2596 14.7344 11.0888 14.7344 12C14.7344 13.5077 13.5077 14.7344 12 14.7344C10.4923 14.7344 9.26569 13.5077 9.26569 12C9.26569 11.0889 9.71093 10.2596 10.4375 9.75556V12C10.4375 12.1306 10.5028 12.2526 10.6115 12.3251ZM12 15.5156C12.2684 15.5156 12.5299 15.4852 12.7812 15.428V17.8854H11.2188V15.428C11.4701 15.4852 11.7316 15.5156 12 15.5156ZM17.8854 12.8655L16.7508 13.144C16.6184 13.1765 16.5124 13.2758 16.4715 13.406C16.3922 13.6572 16.2854 13.9119 16.154 14.1632C16.0909 14.2837 16.0952 14.4284 16.1652 14.5452L16.7563 15.5302L15.5302 16.7562L14.5452 16.1652C14.4285 16.0951 14.2837 16.0909 14.1632 16.154C13.964 16.2581 13.7627 16.3466 13.5626 16.4183V15.1486C14.7191 14.5724 15.5156 13.3775 15.5156 12C15.5156 11.2873 15.3026 10.6004 14.8996 10.0137C14.5063 9.44133 13.9597 9.00124 13.3188 8.74104C13.1985 8.69216 13.0616 8.70636 12.9538 8.77896C12.846 8.85154 12.7813 8.97298 12.7813 9.10302V11.7909L12.0001 12.3117L11.2188 11.7909V9.10302C11.2188 8.97298 11.1541 8.85156 11.0463 8.77896C10.9386 8.70636 10.8016 8.69216 10.6812 8.74104C10.0404 9.00124 9.49378 9.44133 9.10053 10.0137C8.69745 10.6004 8.48437 11.2873 8.48437 12C8.48437 13.3775 9.28089 14.5724 10.4375 15.1487V16.4184C10.2374 16.3466 10.036 16.2581 9.8368 16.154C9.71627 16.0909 9.57147 16.0951 9.45476 16.1652L8.4698 16.7562L7.24383 15.5302L7.83482 14.5452C7.90482 14.4285 7.90908 14.2837 7.84602 14.1632C7.71461 13.912 7.60784 13.6572 7.52862 13.406C7.4876 13.2758 7.38166 13.1765 7.24922 13.1441L6.11459 12.8655V11.1345L7.24916 10.856C7.38164 10.8235 7.48756 10.7242 7.52857 10.594C7.60779 10.3428 7.71459 10.0881 7.84596 9.83689C7.90904 9.71627 7.90479 9.57156 7.83476 9.45484L7.24378 8.46982L8.46974 7.24386L9.45476 7.83487C9.57147 7.90492 9.71627 7.90909 9.8368 7.84605C10.088 7.71463 10.3428 7.60787 10.594 7.52865C10.7241 7.48763 10.8234 7.38169 10.8559 7.24922L11.1345 6.11459H12.8655L13.144 7.24916C13.1765 7.38167 13.2758 7.48757 13.406 7.5286C13.6572 7.60781 13.912 7.71459 14.1632 7.84599C14.2837 7.90904 14.4285 7.90484 14.5452 7.83482L15.5302 7.2438L16.7562 8.46977L16.1652 9.45476C16.0952 9.57147 16.0909 9.71627 16.154 9.8368C16.2854 10.088 16.3922 10.3428 16.4714 10.594C16.5124 10.7242 16.6184 10.8235 16.7508 10.8559L17.8854 11.1345V12.8655Z" fill="white"/>
</svg>
