<svg width="24" height="24" viewBox="0 0 24 24" fill="none" xmlns="http://www.w3.org/2000/svg">
<path fill-rule="evenodd" clip-rule="evenodd" d="M12 22.8444C17.9892 22.8444 22.8444 17.9892 22.8444 12C22.8444 6.01078 17.9892 1.15556 12 1.15556C6.01078 1.15556 1.15556 6.01078 1.15556 12C1.15556 17.9892 6.01078 22.8444 12 22.8444ZM12 24C18.6274 24 24 18.6274 24 12C24 5.37259 18.6274 0 12 0C5.37259 0 0 5.37259 0 12C0 18.6274 5.37259 24 12 24Z" fill="white"/>
<path fill-rule="evenodd" clip-rule="evenodd" d="M12 22.8444C17.9892 22.8444 22.8444 17.9892 22.8444 12C22.8444 6.01078 17.9892 1.15556 12 1.15556C6.01078 1.15556 1.15556 6.01078 1.15556 12C1.15556 17.9892 6.01078 22.8444 12 22.8444ZM12 24C18.6274 24 24 18.6274 24 12C24 5.37259 18.6274 0 12 0C5.37259 0 0 5.37259 0 12C0 18.6274 5.37259 24 12 24Z" fill="white"/>
<path d="M8.33454 9.83348C8.57915 9.40784 8.43241 8.86449 8.00678 8.61988C7.58114 8.37526 7.0378 8.522 6.79318 8.94764C6.54856 9.37327 6.69531 9.91662 7.12094 10.1612C7.54657 10.4059 8.08992 10.2591 8.33454 9.83348Z" fill="white"/>
<path d="M9.8527 8.30653C10.2778 8.06107 10.4235 7.51743 10.1781 7.09228C9.9326 6.66713 9.38896 6.52147 8.96381 6.76693C8.53866 7.01239 8.393 7.55602 8.63846 7.98117C8.88392 8.40632 9.42755 8.55199 9.8527 8.30653Z" fill="white"/>
<path d="M11.1003 9.03776V11.6655C11.1003 12.3911 11.6885 12.9794 12.4141 12.9794H14.6665V11.8532H12.4141C12.3105 11.8532 12.2264 11.7692 12.2264 11.6655V9.03776H11.1003Z" fill="white"/>
<path d="M12.0404 6.22179H11.4773V7.34797H12.0404C14.6319 7.34797 16.7328 9.44883 16.7328 12.0404C16.7328 14.6319 14.6319 16.7328 12.0404 16.7328C9.44883 16.7328 7.34797 14.6319 7.34797 12.0404V11.4773H6.22179V12.0404C6.22179 15.2539 8.82686 17.859 12.0404 17.859C15.2539 17.859 17.859 15.2539 17.859 12.0404C17.859 8.82686 15.2539 6.22179 12.0404 6.22179Z" fill="white"/>
</svg>
