<svg width="126" height="25" viewBox="0 0 126 25" fill="none" xmlns="http://www.w3.org/2000/svg">
<path d="M14.8517 20.55C14.8517 19.57 14.8417 18.59 14.8617 17.61C14.8617 17.47 15.0317 17.21 15.1217 17.21C16.6117 17.21 18.1217 17.16 19.6017 17.28C20.6717 17.36 21.4817 18.36 21.5217 19.44C21.5517 20.19 21.5417 20.93 21.5217 21.68C21.4917 22.92 20.5817 23.92 19.3417 23.97C17.9617 24.03 16.5817 23.99 15.2017 24C14.9017 24 14.8517 23.85 14.8517 23.6C14.8517 22.59 14.8517 21.57 14.8517 20.56V20.55ZM16.3617 22.81C17.2617 22.81 18.0817 22.81 18.9117 22.81C19.4417 22.81 19.8517 22.54 19.8917 22.07C19.9717 21.09 19.9617 20.09 19.8917 19.11C19.8617 18.7 19.5017 18.41 19.0417 18.4C18.2417 18.38 17.4417 18.38 16.6417 18.4C16.5417 18.4 16.3517 18.58 16.3517 18.68C16.3317 20.02 16.3417 21.37 16.3417 22.8L16.3617 22.81Z" fill="black"/>
<path d="M106.082 22.14C106.082 22.75 106.242 22.92 106.812 22.93C107.872 22.93 108.932 22.93 110.032 22.93V23.94C109.882 23.95 109.722 23.98 109.562 23.98C108.562 23.98 107.562 23.98 106.572 23.98C105.592 23.98 104.912 23.5 104.762 22.55C104.652 21.86 104.672 21.12 104.792 20.43C104.942 19.6 105.612 19.15 106.452 19.14C107.172 19.14 107.882 19.13 108.602 19.14C109.542 19.15 110.202 19.75 110.322 20.67C110.322 20.72 110.332 20.77 110.332 20.82C110.352 21.99 110.382 22.18 109.112 22.14C108.112 22.11 107.122 22.14 106.082 22.14ZM108.932 21.03C109.002 20.35 108.902 20.23 108.292 20.23C107.782 20.23 107.262 20.23 106.752 20.23C106.122 20.23 106.012 20.36 106.092 21.03H108.932Z" fill="black"/>
<path d="M41.8017 23.94C40.4517 23.94 39.1217 23.99 37.8017 23.91C37.4517 23.89 37.0117 23.51 36.8217 23.17C36.2317 22.16 36.2817 21.07 36.7517 20.02C37.0117 19.43 37.5317 19.14 38.2017 19.14C38.9517 19.14 39.7017 19.13 40.4417 19.14C41.3817 19.16 42.0817 19.84 42.1017 20.77C42.1317 21.96 42.2317 22.17 40.8317 22.13C39.8417 22.1 38.8417 22.13 37.8517 22.13C37.8317 22.73 38.0017 22.91 38.5717 22.92C39.6317 22.92 40.6917 22.92 41.8017 22.92V23.94ZM37.8417 21.03H40.7017C40.7917 20.33 40.7117 20.24 40.0517 20.23C39.5517 20.23 39.0517 20.23 38.5517 20.23C37.9217 20.23 37.8117 20.36 37.8417 21.03Z" fill="black"/>
<path d="M75.6117 17.18C76.2017 17.18 76.7317 17.18 77.2617 17.18C78.3317 17.18 79.3917 17.19 80.4617 17.18C80.8317 17.18 81.0017 17.25 80.9817 17.67C80.9517 18.39 80.9817 18.39 80.2417 18.38C79.3617 18.38 78.4817 18.38 77.5917 18.38C77.4517 18.38 77.3017 18.4 77.1317 18.41V20H80.7617V21.18C80.3617 21.18 79.9717 21.18 79.5817 21.18C78.9317 21.18 78.2817 21.21 77.6317 21.18C77.2017 21.16 77.0917 21.32 77.1117 21.72C77.1417 22.45 77.1117 23.18 77.1117 23.99C76.6617 23.99 76.2517 24.01 75.8517 23.97C75.7517 23.97 75.6017 23.76 75.6017 23.65C75.5917 21.52 75.5917 19.4 75.5917 17.18H75.6117Z" fill="black"/>
<path d="M45.6017 17.2C46.5217 17.22 47.3617 16.93 48.0117 17.82C48.5017 18.5 49.1517 19.07 49.7117 19.71C49.9717 20.01 50.1717 20.02 50.4317 19.71C51.0617 19 51.7317 18.33 52.3417 17.61C52.6217 17.29 52.9117 17.14 53.3317 17.17C53.7017 17.2 54.0817 17.17 54.6217 17.17C53.9717 17.89 53.4317 18.49 52.8917 19.09C52.3817 19.66 51.8817 20.25 51.3317 20.77C50.9117 21.17 50.7617 21.61 50.8017 22.18C50.8417 22.74 50.8017 23.31 50.8017 23.92H49.3017C49.3017 23.22 49.3317 22.5 49.2917 21.8C49.2717 21.52 49.1517 21.19 48.9717 20.98C47.9517 19.82 46.8917 18.69 45.8517 17.55C45.7817 17.47 45.7217 17.37 45.5917 17.2H45.6017Z" fill="black"/>
<path d="M57.5717 24.06C57.0917 24.02 56.6117 24 56.1317 23.95C55.3517 23.86 54.7917 23.43 54.7017 22.65C54.6117 21.91 54.6217 21.13 54.7217 20.39C54.8217 19.63 55.4017 19.21 56.1517 19.16C57.0117 19.1 57.8817 19.08 58.7417 19.13C59.8017 19.2 60.2817 19.63 60.4417 20.67C60.5317 21.24 60.5417 21.84 60.4517 22.4C60.2817 23.48 59.7117 23.94 58.5717 24C58.2417 24.02 57.9117 24 57.5717 24C57.5717 24.01 57.5717 24.03 57.5717 24.04V24.06ZM57.5317 22.94V22.92C57.8317 22.92 58.1317 22.94 58.4317 22.92C58.8217 22.89 59.0917 22.67 59.1117 22.26C59.1317 21.78 59.1617 21.29 59.0917 20.82C59.0617 20.61 58.8217 20.28 58.6517 20.26C57.9317 20.19 57.2017 20.21 56.4717 20.24C56.3317 20.24 56.1217 20.42 56.0717 20.56C55.8417 21.24 55.7617 21.95 56.1117 22.59C56.4017 23.12 57.0017 22.9 57.4817 22.94C57.5017 22.94 57.5117 22.94 57.5317 22.94Z" fill="black"/>
<path d="M85.8217 19.16H87.1917C87.1217 20.4 87.3417 21.64 87.0017 22.87C86.7817 23.67 86.1217 23.94 85.4017 24C84.7417 24.06 84.0717 24.05 83.4117 23.96C82.4217 23.83 81.9317 23.37 81.8417 22.38C81.7517 21.33 81.8217 20.26 81.8217 19.18H83.0817C83.0817 19.35 83.1017 19.52 83.1117 19.7C83.1317 20.53 83.1417 21.36 83.1717 22.19C83.1817 22.57 83.3817 22.85 83.7617 22.89C84.2317 22.94 84.7217 22.95 85.1917 22.89C85.6117 22.84 85.7917 22.51 85.7917 22.1C85.7917 21.32 85.8017 20.54 85.8117 19.76C85.8117 19.58 85.8117 19.4 85.8117 19.18L85.8217 19.16Z" fill="black"/>
<path d="M65.3917 19.16H66.7317C66.7317 19.9 66.7317 20.64 66.7317 21.38C66.7317 21.6 66.7317 21.81 66.7117 22.03C66.6517 23.3 66.1717 23.87 64.9217 23.99C64.2317 24.06 63.5217 24.01 62.8417 23.92C62.0117 23.81 61.4917 23.31 61.4317 22.48C61.3617 21.4 61.4117 20.3 61.4117 19.17H62.6917C62.6917 19.64 62.6917 20.1 62.6917 20.56C62.6917 21.01 62.6917 21.46 62.7017 21.9C62.7017 22.08 62.7217 22.28 62.8017 22.43C63.1917 23.17 63.8917 22.91 64.4917 22.92C64.9417 22.92 65.3117 22.71 65.3317 22.19C65.3617 21.54 65.3717 20.9 65.3817 20.25C65.3817 19.9 65.3817 19.56 65.3817 19.15L65.3917 19.16Z" fill="black"/>
<path d="M93.4017 19.17H94.6917C94.6917 19.61 94.6917 20.05 94.6917 20.49C94.7017 21.07 94.7317 21.65 94.7617 22.23C94.7617 22.34 94.7917 22.47 94.8617 22.56C95.3617 23.18 96.0417 22.96 96.6717 22.92C97.1917 22.89 97.3817 22.48 97.3917 22C97.4017 21.2 97.3917 20.41 97.3917 19.61C97.3917 19.48 97.4017 19.35 97.4117 19.19H98.8217C98.7517 20.38 98.7517 21.55 98.6117 22.71C98.4917 23.64 97.7317 23.96 96.9017 24.01C96.2417 24.05 95.5717 24.04 94.9117 23.95C93.9917 23.82 93.4717 23.3 93.4117 22.37C93.3417 21.33 93.3917 20.28 93.3917 19.18L93.4017 19.17Z" fill="black"/>
<path d="M92.4817 19.13C92.5684 19.8633 92.285 20.23 91.6317 20.23C91.2017 20.23 90.7717 20.23 90.2817 20.23C90.2817 20.97 90.2617 21.68 90.2817 22.39C90.3017 22.76 90.5717 22.93 90.9317 22.93C91.3917 22.93 91.8517 22.93 92.3417 22.93V24.01C91.5717 23.97 90.8117 24.01 90.0717 23.88C89.3717 23.75 88.9117 23.03 88.9017 22.27C88.8917 21.64 88.9017 21.01 88.8817 20.38C88.8817 20.35 88.8617 20.32 88.8317 20.26C88.5717 20.24 88.3017 20.22 88.0017 20.2V19.17C88.2917 19.15 88.5617 19.13 88.8917 19.11V17.89H90.2317V19.13H92.4817Z" fill="black"/>
<path d="M29.5717 19.11C30.0517 19.11 30.4317 19.07 30.8017 19.13C30.9517 19.15 31.1217 19.35 31.1917 19.51C31.5917 20.37 31.9617 21.24 32.3417 22.1C32.4117 22.26 32.5017 22.42 32.6217 22.67C32.7217 22.49 32.8017 22.38 32.8517 22.26C33.2317 21.41 33.6217 20.57 33.9617 19.71C34.1417 19.26 34.3817 19.03 34.8817 19.1C35.1117 19.13 35.3417 19.1 35.6617 19.1C35.4417 19.61 35.2617 20.05 35.0717 20.48C34.6517 21.42 34.2617 22.37 33.8117 23.29C33.3817 24.18 31.9917 24.29 31.5517 23.44C30.8417 22.06 30.2517 20.62 29.5717 19.11Z" fill="black"/>
<path d="M26.6217 19.17V20.23C25.9617 20.23 25.3217 20.23 24.6717 20.23C23.8217 20.23 23.7117 20.34 23.7117 21.17C23.7117 21.98 23.7017 22.8 23.7117 23.61C23.7117 23.9 23.6117 23.98 23.3417 23.99C22.3417 24.03 22.3417 24.04 22.3417 23.04C22.3417 22.33 22.3417 21.61 22.3417 20.9C22.3517 19.85 22.8317 19.26 23.8717 19.18C24.7617 19.11 25.6617 19.17 26.6117 19.17H26.6217Z" fill="black"/>
<path d="M71.7717 19.14C71.8784 19.8667 71.6084 20.23 70.9617 20.23C70.5617 20.23 70.1617 20.23 69.7617 20.23C69.0617 20.23 68.9117 20.39 68.9017 21.08C68.9017 21.99 68.9017 22.91 68.8917 23.82C68.8917 23.85 68.8717 23.88 68.8217 23.98C68.5117 23.98 68.1617 24 67.8217 23.97C67.7217 23.96 67.5617 23.77 67.5617 23.66C67.5417 22.65 67.5217 21.63 67.5617 20.62C67.5917 19.76 68.1017 19.3 69.0517 19.17C69.2817 19.14 69.5217 19.14 69.7517 19.14C70.4117 19.14 71.0817 19.14 71.7717 19.14Z" fill="black"/>
<path d="M99.5817 23.96V22.52C99.5817 21.97 99.5817 21.42 99.5817 20.88C99.5817 19.82 100.012 19.32 101.052 19.18C101.312 19.14 101.582 19.15 101.852 19.15C102.502 19.15 103.142 19.15 103.762 19.15C103.812 19.22 103.842 19.24 103.842 19.27C103.902 19.91 103.618 20.23 102.992 20.23C102.562 20.23 102.132 20.23 101.692 20.23C101.092 20.24 100.922 20.4 100.912 21.01C100.892 21.89 100.912 22.77 100.912 23.65C100.912 23.73 100.902 23.81 100.892 23.96H99.5817Z" fill="black"/>
<path d="M28.7617 19.16C28.7817 19.26 28.8117 19.35 28.8217 19.44C28.8217 20.83 28.8217 22.23 28.8217 23.62C28.8217 23.91 28.7117 23.98 28.4417 23.99C27.4517 24.03 27.4517 24.04 27.4517 23.08C27.4517 21.79 27.4517 20.5 27.4517 19.16H28.7617Z" fill="black"/>
<path d="M5.89172 21.1C7.64172 21.1 9.38172 21.1 11.1317 21.1C11.2617 21.1 11.4117 21.08 11.5317 21.12C11.6117 21.15 11.6817 21.27 11.7017 21.36C11.7017 21.41 11.6017 21.51 11.5217 21.53C11.4117 21.56 11.2917 21.54 11.1717 21.54C7.63172 21.54 4.08172 21.54 0.541719 21.54C0.441719 21.54 0.331719 21.56 0.241719 21.54C0.151719 21.51 0.0917187 21.42 0.0117188 21.35C0.0917187 21.27 0.151719 21.15 0.251719 21.12C0.371719 21.08 0.511719 21.11 0.651719 21.11C2.40172 21.11 4.14172 21.11 5.89172 21.11V21.1Z" fill="black"/>
<path d="M125.102 21.52H113.532C113.422 21.26 113.452 21.1 113.772 21.1C113.842 21.1 113.902 21.1 113.972 21.1C117.552 21.1 121.122 21.1 124.702 21.1C124.962 21.1 125.282 21.06 125.102 21.52Z" fill="black"/>
<path d="M27.5117 18.45C27.3217 17.17 27.5117 16.99 28.7917 17.26V18.45H27.5117Z" fill="black"/>
<path d="M24.8217 7.18V9.44H25.4717C29.8517 9.44 34.2317 9.44 38.6117 9.43C39.0817 9.43 39.2617 9.54 39.2217 10.03C39.1817 10.62 39.2117 11.22 39.2117 11.84C39.0017 11.85 38.8317 11.87 38.6717 11.87C33.3417 11.87 28.0117 11.87 22.6817 11.87C21.7417 11.87 21.2317 11.37 21.2217 10.44C21.2217 7.45 21.2217 4.46 21.2217 1.46C21.2217 0.59 21.7417 0.02 22.5917 0.02C28.0417 0.02 33.4817 0.02 38.9317 0.02C38.9917 0.02 39.0617 0.04 39.2017 0.06C39.2017 0.8 39.2117 1.54 39.1817 2.28C39.1817 2.35 38.9517 2.48 38.8217 2.48C38.2517 2.5 37.6917 2.48 37.1217 2.48C33.2217 2.48 29.3317 2.48 25.4317 2.48C25.2317 2.48 25.0417 2.48 24.8117 2.48V4.71H25.4217C29.4317 4.71 33.4517 4.71 37.4617 4.71C38.4317 4.71 38.2917 4.61 38.3017 5.57C38.3017 5.85 38.3017 6.14 38.3017 6.42C38.3017 7.27 38.4017 7.18 37.5717 7.18C33.5417 7.18 29.5117 7.18 25.4817 7.18H24.8217Z" fill="black"/>
<path d="M118.642 7.16C120.852 8.67 123.052 10.19 125.262 11.7C125.252 11.74 125.242 11.78 125.222 11.81C125.102 11.83 124.982 11.86 124.862 11.86C123.442 11.86 122.032 11.87 120.612 11.86C120.402 11.86 120.152 11.78 119.982 11.66C116.942 9.6 113.912 7.52 110.872 5.45C110.722 5.35 110.572 5.26 110.352 5.12V11.84H106.802C106.802 11.67 106.782 11.51 106.782 11.35C106.782 7.76 106.782 4.17 106.772 0.58C106.772 0.16 106.862 0.01 107.322 0.01C112.722 0.03 118.112 0.01 123.512 0.02C124.492 0.02 125.022 0.54 125.022 1.53C125.022 2.88 125.022 4.22 125.022 5.57C125.022 6.55 124.482 7.07 123.502 7.08C122.052 7.08 120.602 7.08 119.152 7.08C118.992 7.08 118.832 7.08 118.672 7.08C118.672 7.11 118.652 7.14 118.642 7.17V7.16ZM121.432 2.51H110.382V4.57H121.432V2.51Z" fill="black"/>
<path d="M73.1817 11.87C70.5517 11.87 67.9217 11.87 65.2917 11.87C64.4117 11.87 63.8917 11.37 63.8917 10.49C63.8917 7.47 63.8917 4.44 63.8917 1.42C63.8917 0.57 64.4317 0.02 65.3017 0.02C70.5817 0.02 75.8517 0.02 81.1317 0.02C81.9517 0.02 82.5017 0.54 82.5117 1.35C82.5317 4.42 82.5317 7.5 82.5117 10.57C82.5117 11.39 81.9517 11.87 81.1317 11.87C78.4817 11.87 75.8417 11.87 73.1917 11.87H73.1817ZM78.9517 2.51H67.5017V9.41C67.6017 9.43 67.6517 9.44 67.6917 9.44C71.3217 9.44 74.9417 9.44 78.5717 9.44C78.8917 9.44 78.9617 9.31 78.9617 9.02C78.9517 7.89 78.9617 6.76 78.9617 5.63C78.9617 4.6 78.9617 3.58 78.9617 2.5L78.9517 2.51Z" fill="black"/>
<path d="M89.1817 9.4H100.082V0.01C100.522 0.01 100.932 0.01 101.342 0.01C101.972 0.01 102.612 0.01 103.242 0.01C103.532 0.01 103.662 0.08 103.662 0.4C103.662 3.79 103.662 7.18 103.652 10.57C103.652 11.36 103.072 11.87 102.252 11.87C97.2017 11.87 92.1617 11.87 87.1117 11.87C86.1417 11.87 85.6517 11.38 85.6417 10.39C85.6417 8.3 85.6417 6.2 85.6417 4.11C85.6417 2.9 85.6417 1.68 85.6417 0.47C85.6417 0.13 85.7417 0 86.1017 0.01C87.1117 0.03 88.1217 0.01 89.1917 0.01V9.4H89.1817Z" fill="black"/>
<path d="M3.53172 7.29V9.39H14.5217V0.01C15.1517 0.01 15.7217 0.01 16.3017 0.01C16.7717 0.01 17.2317 0.02 17.7017 0.01C18.0017 0 18.1217 0.1 18.1217 0.41C18.1217 3.78 18.1217 7.16 18.1117 10.53C18.1117 11.36 17.5317 11.87 16.7017 11.87C11.6117 11.87 6.51172 11.87 1.42172 11.87C0.571719 11.87 0.0517187 11.38 0.0317187 10.52C0.0117188 9.57 0.0117188 8.63 0.0317187 7.68C0.0317187 7.55 0.221719 7.31 0.331719 7.31C1.38172 7.28 2.42172 7.29 3.54172 7.29H3.53172Z" fill="black"/>
<path d="M60.7017 2.47H53.3317V11.82H49.7617V2.48C49.5117 2.48 49.3417 2.48 49.1617 2.48C47.0517 2.48 44.9317 2.48 42.8217 2.48C42.4617 2.48 42.3117 2.39 42.3317 2.01C42.3617 1.5 42.3617 0.98 42.3317 0.47C42.3117 0.08 42.4617 0 42.8217 0C45.1317 0.01 47.4517 0 49.7617 0C53.1917 0 56.6217 0 60.0517 0H60.7017V2.47Z" fill="black"/>
</svg>
