<svg fill="none" height="46" viewBox="0 0 36 46" width="36" xmlns="http://www.w3.org/2000/svg"><g fill="#000"><path d="m35.2978 1.8012c-.2716-.56435-.8595-.966495-2.1763-1.094911-6.082-.59477-8.9287-.706289-15.2616-.706289h-.0034c-6.3364 0-9.09714.101381-15.27191.706289-1.32022.128416-1.908126.530561-2.179733 1.098291-.199408.41905-.226913.92933-.254417 1.48355-.333493 6.81617-.1306464 25.36217.790755 35.79767.106575 1.2064.165025 2.4872.343805 3.5484.27161 1.6052.95234 2.0614 2.24849 2.325 2.26225.4629 6.70761.8313 14.31261.8313 7.6051 0 12.0608-.365 14.3265-.828 1.2961-.2636 1.9769-.7164 2.2485-2.325.1787-1.0611.2338-2.3419.3438-3.5483.9214-10.4355 1.1242-28.9815.7907-35.79769-.0275-.5576-.055-1.06788-.2578-1.49031zm-33.55554 2.24053c.04126-.83809-.08939-1.43286.59823-1.89245l10.02881 1.77755c.3438-.19262 5.3324-.196 5.4872-.196.1547 0 5.1433.00338 5.4871.196l9.9463-1.79107c.6911.45622.5742 1.06788.6155 1.90597.1031 2.10873.1512 5.38334.1444 9.18847l-.0035.0642-7.9591.5475c-1.9769.1825-2.2072.6793-2.2141 1.5748 0 0-.0928 6.1369-.1479 8.293-.0756 3.0651-.3438 7.634-.3472 7.786-.0241.7334-.526 1.2707-1.2377 1.3281 0 0-2.5373.0913-4.277.0744-.0137 0-.024 0-.0378 0-.0137 0-.024 0-.0378 0-1.7397.0135-4.277-.0744-4.277-.0744-.7116-.0608-1.217-.5947-1.2377-1.3281-.0034-.152-.2716-4.7209-.3472-7.786-.055-2.1561-.1478-8.293-.1478-8.293-.0035-.8955-.2373-1.3923-2.21414-1.5748l-7.966-.6218c-.00687-3.80179.04126-7.07302.1444-9.17837zm16.11764 30.20477 3.9675-.0405c3.0943.0169 2.7883-.2433 3.2009-2.9198.1031-.6691 1.5368-15.731 1.5368-15.731.0481-.348.2441-.4967.5226-.5305l6.7351-.8685c.1238-.0169.2338.0811.2304.2061 0 0-.5501 24.9263-1.2618 27.9576-.1547.6522-.3266.8043-.9042.9394 0 0-3.3934.7874-14.0582.7976-10.67178-.0136-14.06516-.8009-14.06516-.8009-.57759-.1352-.74949-.2839-.90421-.9395-.71168-3.0279-1.26177-27.9542-1.26177-27.9542-.00344-.1216.10658-.2196.23035-.2061l6.73518.8685c.27848.0372.47445.1825.52258.5305 0 0 1.43363 15.0619 1.53683 15.731.4125 2.6731.1065 2.9367 3.2008 2.9198l3.9675.0405z"/><path d="m14.8752 37.0572c-.0138-.0202-.0378-.0338-.0619-.0338h-1.083c-.0275 0-.0481.0136-.0653.0338l-2.252 3.2882c-.0172.0236 0 .0574.031.0574h1.052c.0241 0 .0482-.0135.0619-.0338l.581-.8448c.0276-.0406.0757-.0642.1238-.0642h2.0147c.0516 0 .0963.0236.1238.0642l.581.8448c.0138.0203.0378.0338.0619.0338h1.0521c.0309 0 .0481-.0338.0309-.0574zm-.0207 1.8722h-1.1655c-.0584 0-.0962-.0642-.0618-.1149l.581-.8516c.0309-.0439.0928-.0439.1238 0l.5844.8516c.031.0507-.0034.1149-.0619.1149z"/><path d="m11.3687 37.0234h-5.4081c-.03094 0-.04813.0338-.03094.0575l.27848.4089c.02751.0405.07564.0642.12377.0642h1.73623c.04125 0 .07563.0338.07563.0743v2.734c0 .0236.01719.0405.04126.0405h.94547c.02407 0 .04126-.0169.04126-.0405v-2.734c0-.0405.03438-.0743.07563-.0743h1.73961c.0516 0 .0963-.0237.1238-.0642l.2785-.4089c.0275-.0237.0103-.0575-.0206-.0575z"/><path d="m23.4769 37.0234h-.9454c-.0241 0-.0413.0203-.0413.0406v2.3656c0 .0304-.0344.0473-.0619.0304l-3.1252-2.4028c-.0275-.0202-.0619-.0338-.0997-.0338h-.9317c-.0241 0-.0413.0203-.0413.0406v3.2983c0 .0236.0172.0405.0413.0405h.9455c.024 0 .0412-.0169.0412-.0405v-2.3656c0-.0304.0344-.0473.0619-.0304l3.1252 2.4027c.0275.0203.0619.0338.0997.0338h.9317c.0241 0 .0413-.0169.0413-.0405v-3.2983c0-.0203-.0172-.0406-.0413-.0406z"/><path d="m29.9994 40.3628-2.2622-1.835c-.0206-.0169-.0206-.0507.0034-.0676l2.2554-1.3923c.0206-.0101.0103-.0406-.0137-.0406h-1.1552c-.0413 0-.0791.0102-.1135.0338l-2.4582 1.5174c-.0275.0169-.0653-.0034-.0653-.0338v-1.4734c0-.0237-.0172-.0406-.0413-.0406h-.9455c-.024 0-.0412.0169-.0412.0406v3.2982c0 .0237.0206.0406.0412.0406h.9455c.0241 0 .0413-.0169.0413-.0406v-.9056c0-.0271.0137-.0507.0378-.0642l.8011-.4934c.0275-.0169.0653-.0135.0893.0067l1.7913 1.4532c.0378.0304.0859.0473.1375.0473h.9352c.0275-.0102.0378-.0372.0171-.0507z"/></g></svg>