<svg width="235" height="235" viewBox="0 0 235 235" fill="none" xmlns="http://www.w3.org/2000/svg">
<path d="M117.5 86.397C136.586 86.397 152.059 101.869 152.059 120.956V214.264C152.059 218.082 148.964 221.176 145.147 221.176H89.8531C86.0357 221.176 82.9412 218.082 82.9412 214.264V120.956C82.9412 101.87 98.4136 86.397 117.5 86.397ZM235 176.25V214.265C235 218.082 231.906 221.177 228.088 221.177H179.706C175.888 221.177 172.794 218.082 172.794 214.265V176.25C172.794 159.073 186.719 145.147 203.897 145.147C221.075 145.147 235 159.073 235 176.25ZM31.1031 110.588C48.281 110.588 62.2062 124.513 62.2062 141.691V214.265C62.2062 218.082 59.1117 221.177 55.2943 221.177H6.91185C3.09447 221.176 0 218.082 0 214.265V141.691C0 124.514 13.9251 110.588 31.1031 110.588ZM117.5 76.0294C100.322 76.0294 86.3969 62.1043 86.3969 44.9264C86.3969 27.7484 100.322 13.8237 117.5 13.8237C134.678 13.8237 148.603 27.7489 148.603 44.9268C148.603 62.1048 134.678 76.0294 117.5 76.0294ZM203.897 134.779C188.628 134.779 176.25 122.402 176.25 107.133C176.25 91.8635 188.628 79.4856 203.897 79.4856C219.166 79.4856 231.544 91.8635 231.544 107.133C231.544 122.402 219.166 134.779 203.897 134.779ZM31.1031 100.221C13.9251 100.221 0 86.2955 0 69.1176C0 51.9396 13.9251 38.0145 31.1031 38.0145C48.281 38.0145 62.2062 51.9396 62.2062 69.1176C62.2062 86.2955 48.2806 100.221 31.1031 100.221Z" fill="white" fill-opacity="0.15"/>
</svg>
