<svg fill="none" height="101" viewBox="0 0 209 101" width="209" xmlns="http://www.w3.org/2000/svg" xmlns:xlink="http://www.w3.org/1999/xlink"><linearGradient id="a"><stop offset="0" stop-color="#5c676e"/><stop offset=".5" stop-color="#fff"/><stop offset="1" stop-color="#8cadc2"/></linearGradient><linearGradient id="b" gradientUnits="userSpaceOnUse" x1="141.199" x2="127.779" xlink:href="#a" y1="4.41016" y2="18.3102"/><linearGradient id="c" gradientUnits="userSpaceOnUse" x1="185.578" x2="200.578" y1="21.8009" y2="44.0509"><stop offset=".49" stop-color="#aebec8"/><stop offset=".74" stop-color="#8b98a1"/><stop offset="1" stop-color="#a9b8c2"/></linearGradient><linearGradient id="d" gradientUnits="userSpaceOnUse" x1="187.018" x2="202.398" xlink:href="#a" y1="7.86945" y2="40.8694"/><linearGradient id="e" gradientUnits="userSpaceOnUse" x1="70.4492" x2="137.109" xlink:href="#a" y1="3.48016" y2="3.48016"/><linearGradient id="f" gradientUnits="userSpaceOnUse" x1="117.76" x2="121.53" y1="10.3102" y2="-3.74984"><stop offset=".5" stop-color="#fff"/><stop offset="1" stop-color="#8cadc2"/></linearGradient><linearGradient id="g" gradientUnits="userSpaceOnUse" x1="20.6694" x2="57.0394" xlink:href="#a" y1="70.1698" y2="28.3298"/><linearGradient id="h" gradientUnits="userSpaceOnUse" x1="8.10938" x2="21.2794" y1="20.2991" y2="45.0691"><stop offset="0" stop-color="#1e2124"/><stop offset=".39" stop-color="#a9b8c2"/><stop offset=".67" stop-color="#8b98a1"/><stop offset="1" stop-color="#aebec8"/></linearGradient><linearGradient id="i" gradientUnits="userSpaceOnUse" x1="12.8994" x2="29.8994" y1="32.7093" y2="17.4093"><stop offset="0" stop-color="#8cadc2"/><stop offset=".5" stop-color="#fff"/><stop offset="1" stop-color="#9caeba"/></linearGradient><linearGradient id="j" gradientUnits="userSpaceOnUse" x1="104.701" x2="104.701" y1="62.3598" y2="4.49976"><stop offset="0" stop-color="#c78f0f"/><stop offset="1" stop-color="#fbdba8"/></linearGradient><linearGradient id="k" gradientUnits="userSpaceOnUse" x1="99.732" x2="188.932" y1="9.16985" y2="58.6198"><stop offset="0" stop-color="#fbdba8"/><stop offset="1" stop-color="#c78f0f"/></linearGradient><linearGradient id="l" gradientUnits="userSpaceOnUse" x1="43.3514" x2="53.9714" y1="26.9791" y2="6.13906"><stop offset="0" stop-color="#8cadc2"/><stop offset=".5" stop-color="#fff"/><stop offset="1" stop-color="#5c676e"/></linearGradient><linearGradient id="m" gradientUnits="userSpaceOnUse" x1="162.589" x2="174.319" xlink:href="#a" y1="2.6393" y2="28.9693"/><linearGradient id="n" gradientUnits="userSpaceOnUse" x1="165.78" x2="152.88" xlink:href="#a" y1="62.8903" y2="35.2103"/><mask id="o" height="21" maskUnits="userSpaceOnUse" width="28" x="180" y="14"><path d="m186.77 20.9902-5.32 10.75-1.43 2.87 9.73-.2c5.84-.1 8.7-2.76 11.37-7.37l6.55-12.8-20.89 6.76z" fill="#fff"/></mask><mask id="p" height="56" maskUnits="userSpaceOnUse" width="166" x="21" y="6"><path d="m77.3099 6.56055h53.1401.21v.2 14.33995l55.81-.11h.3l-.1.31-12.08 24.37-.1.11h-.11l-43.72-.21v15.26.2h-.21-26.72-26.4201-.2101v-.2-15.05l-55.7-.72h-.31l.1-.31 11.98-23.55v-.1h.21 43.72v-14.33995-.2z" fill="#fff"/></mask><mask id="q" height="56" maskUnits="userSpaceOnUse" width="84" x="103" y="6"><path d="m103.621 6.56055h26.83.21v.2 14.33995l55.81-.11h.3l-.1.31-12.08 24.37-.1.11h-.11l-43.72-.21v15.26.2h-.21-26.72z" fill="#fff"/></mask><g fill="#000" opacity=".7"><path d="m71.37 71.7795v-14.33h-69.12l17.41-36.87h51.81v-13.30997h64.62l-.21 12.38997v.92h70.14l-18.63 36.87h-51.51v14.33z" opacity=".02"/><path d="m71.37 71.7795v-14.33h-69.12l17.41-36.87h51.81v-13.30997h64.62l-.21 12.28997v1.02h70.14l-18.63 36.87h-51.51v14.33z" opacity=".04"/><path d="m71.37 71.7795v-14.33h-69.12l17.41-36.87h51.81v-13.30997h64.62l-.21 12.18997v1.12h70.14l-18.63 35.84h-51.51v15.36z" opacity=".06"/><path d="m71.37 71.78v-14.33h-69.12l17.41-36.87h51.81v-14.33h64.62l-.21 13.11v1.22h70.14l-18.63 35.84h-51.51v15.36z" opacity=".08"/><path d="m71.37 70.76v-14.34h-69.12l17.41-35.84h51.81v-14.33h64.62l-.21 13v1.33h70.14l-18.63 35.84h-51.51v14.34z" opacity=".1"/><path d="m71.37 70.76v-14.34h-69.12l17.41-35.84h51.81v-14.33h64.62l-.21 12.9v1.43h70.14l-18.63 35.84h-51.51v14.34z" opacity=".12"/><path d="m71.37 70.76v-14.34h-69.12l17.41-35.84h51.81v-14.33h64.62l-.21 12.8v1.53h70.14l-18.63 35.84h-51.51v14.34z" opacity=".14"/><path d="m71.37 70.76v-14.34h-69.12l17.41-35.84h51.81v-14.33h64.62l-.21 12.7v.61h70.14l-18.63 36.86h-51.51v14.34z" opacity=".16"/><path d="m71.37 70.76v-14.34h-69.12l17.41-35.84h51.81v-14.33h64.62l-.21 12.59v.72h70.14l-18.63 36.86h-51.51v14.34z" opacity=".18"/><path d="m71.37 70.76v-14.34h-69.12l17.41-35.84h51.81v-14.33h64.62l-.21 12.49v.82h70.14l-18.63 36.86h-51.51v14.34z" opacity=".2"/><path d="m71.37 70.76v-14.34h-69.12l17.41-36.86h51.81v-13.31h64.62l-.21 12.39v.92h70.14l-18.63 36.86h-51.51v14.34z" opacity=".22"/><path d="m71.37 70.76v-14.34h-69.12l17.41-36.86h51.81v-13.31h64.62l-.21 12.29v1.02h70.14l-18.63 36.86h-51.51v14.34z" opacity=".24"/><path d="m71.37 70.76v-14.34h-69.12l17.41-36.86h51.81v-13.31h64.62l-.21 12.18v1.13h70.14l-18.63 35.84h-51.51v15.36z" opacity=".26"/><path d="m71.37 70.7607v-14.34h-69.12l17.41-36.86h51.81v-14.34h64.62l-.21 13.11v1.23h70.14l-18.63 35.84h-51.51v15.36z" opacity=".28"/><path d="m71.37 69.7407v-14.34h-69.12l17.41-35.84h51.81v-14.34h64.62l-.21 13.01v1.33h70.14l-18.63 35.84h-51.51v14.34z" opacity=".3"/><path d="m71.37 69.7407v-14.34h-69.12l17.41-35.84h51.81v-14.34h64.62l-.21 12.91v1.43h70.14l-18.63 35.84h-51.51v14.34z" opacity=".32"/><path d="m71.37 69.7407v-14.34h-69.12l17.41-35.84h51.81v-14.34h64.62l-.21 12.8v1.54h70.14l-18.63 35.84h-51.51v14.34z" opacity=".34"/><path d="m71.37 69.7407v-14.34h-69.12l17.41-35.84h51.81v-14.34h64.62l-.21 12.7v.62h70.14l-18.63 36.86h-51.51v14.34z" opacity=".36"/><path d="m71.37 69.7407v-14.34h-69.12l17.41-35.84h51.81v-14.34h64.62l-.21 12.6v.72h70.14l-18.63 36.86h-51.51v14.34z" opacity=".38"/><path d="m71.37 69.7407v-14.34h-69.12l17.41-35.84h51.81v-14.34h64.62l-.21 12.5v.82h70.14l-18.63 36.86h-51.51v14.34z" opacity=".4"/><path d="m71.37 69.7407v-14.34h-69.12l17.41-36.86h51.81v-13.32h64.62l-.21 12.4v.92h70.14l-18.63 36.86h-51.51v14.34z" opacity=".42"/><path d="m71.37 69.7407v-14.34h-69.12l17.41-36.86h51.81v-13.32h64.62l-.21 12.29v1.03h70.14l-18.63 36.86h-51.51v14.34z" opacity=".44"/><path d="m71.37 69.7407v-14.34h-69.12l17.41-36.86h51.81v-13.32h64.62l-.21 12.19v1.13h70.14l-18.63 35.84h-51.51v15.36z" opacity=".46"/><path d="m71.37 69.7412v-14.34h-69.12l17.41-36.86h51.81v-14.34003h64.62l-.21 13.11003v1.23h70.14l-18.63 35.84h-51.51v15.36z" opacity=".48"/><path d="m71.37 68.7112v-14.33h-69.12l17.41-35.84h51.81v-14.34003h64.62l-.21 13.01003v1.33h70.14l-18.63 35.84h-51.51v14.33z" opacity=".5"/><path d="m71.37 68.7112v-14.33h-69.12l17.41-35.84h51.81v-14.34003h64.62l-.21 12.90003v1.44h70.14l-18.63 35.84h-51.51v14.33z" opacity=".52"/><path d="m71.37 68.7112v-14.33h-69.12l17.41-35.84h51.81v-14.34003h64.62l-.21 12.80003v1.54h70.14l-18.63 35.84h-51.51v14.33z" opacity=".54"/><path d="m71.37 68.7112v-14.33h-69.12l17.41-35.84h51.81v-14.34003h64.62l-.21 12.70003v.61h70.14l-18.63 36.87h-51.51v14.33z" opacity=".56"/><path d="m71.37 68.7112v-14.33h-69.12l17.41-35.84h51.81v-14.34003h64.62l-.21 12.60003v.71h70.14l-18.63 36.87h-51.51v14.33z" opacity=".58"/><path d="m71.37 68.7112v-14.33h-69.12l17.41-35.84h51.81v-14.34003h64.62l-.21 12.49003v.82h70.14l-18.63 36.87h-51.51v14.33z" opacity=".6"/><path d="m71.37 68.7112v-14.33h-69.12l17.41-36.87h51.81v-13.31003h64.62l-.21 12.39003v.92h70.14l-18.63 36.87h-51.51v14.33z" opacity=".62"/><path d="m71.37 68.7112v-14.33h-69.12l17.41-36.87h51.81v-13.31003h64.62l-.21 12.29003v1.02h70.14l-18.63 36.87h-51.51v14.33z" opacity=".64"/><path d="m71.37 68.7112v-14.33h-69.12l17.41-36.87h51.81v-13.31003h64.62l-.21 12.19003v1.12h70.14l-18.63 35.84h-51.51v15.36z" opacity=".66"/><path d="m71.37 68.7097v-14.33h-69.12l17.41-36.87h51.81v-14.33001h64.62l-.21 13.10001v1.23h70.14l-18.63 35.84h-51.51v15.36z" opacity=".68"/><path d="m71.37 67.6897v-14.34h-69.12l17.41-35.84h51.81v-14.33001h64.62l-.21 13.00001v1.33h70.14l-18.63 35.84h-51.51v14.34z" opacity=".7"/><path d="m71.37 67.6897v-14.34h-69.12l17.41-35.84h51.81v-14.33001h64.62l-.21 12.90001v1.43h70.14l-18.63 35.84h-51.51v14.34z" opacity=".72"/><path d="m71.37 67.6897v-14.34h-69.12l17.41-35.84h51.81v-14.33001h64.62l-.21 12.80001v1.53h70.14l-18.63 35.84h-51.51v14.34z" opacity=".74"/><path d="m71.37 67.6897v-14.34h-69.12l17.41-35.84h51.81v-14.33001h64.62l-.21 12.69001v.62h70.14l-18.63 36.86h-51.51v14.34z" opacity=".76"/><path d="m71.37 67.6897v-14.34h-69.12l17.41-35.84h51.81v-14.33001h64.62l-.21 12.59001v.72h70.14l-18.63 36.86h-51.51v14.34z" opacity=".78"/><path d="m71.37 67.6897v-14.34h-69.12l17.41-35.84h51.81v-14.33001h64.62l-.21 12.49001v.82h70.14l-18.63 36.86h-51.51v14.34z" opacity=".8"/><path d="m71.37 67.6897v-14.34h-69.12l17.41-36.86h51.81v-13.31001h64.62l-.21 12.39001v.92h70.14l-18.63 36.86h-51.51v14.34z" opacity=".82"/><path d="m71.37 67.6897v-14.34h-69.12l17.41-36.86h51.81v-13.31001h64.62l-.21 12.28001v1.03h70.14l-18.63 36.86h-51.51v14.34z" opacity=".84"/><path d="m71.37 67.6897v-14.34h-69.12l17.41-36.86h51.81v-13.31001h64.62l-.21 12.18001v1.13h70.14l-18.63 35.84h-51.51v15.36z" opacity=".86"/><path d="m71.37 67.6904v-14.34h-69.12l17.41-36.86h51.81v-14.34001h64.62l-.21 13.11001v1.23h70.14l-18.63 35.84h-51.51v15.36z" opacity=".88"/><path d="m71.37 66.6604v-14.33h-69.12l17.41-35.84h51.81v-14.34001h64.62l-.21 13.01001v1.33h70.14l-18.63 35.84h-51.51v14.33z" opacity=".9"/><path d="m71.37 66.6604v-14.33h-69.12l17.41-35.84h51.81v-14.34001h64.62l-.21 12.91001v1.43h70.14l-18.63 35.84h-51.51v14.33z" opacity=".92"/><path d="m71.37 66.6604v-14.33h-69.12l17.41-35.84h51.81v-14.34001h64.62l-.21 12.80001v1.54h70.14l-18.63 35.84h-51.51v14.33z" opacity=".94"/><path d="m71.37 66.6604v-14.33h-69.12l17.41-35.84h51.81v-14.34001h64.62l-.21 12.70001v.61h70.14l-18.63 36.87h-51.51v14.33z" opacity=".96"/><path d="m71.37 66.6604v-14.33h-69.12l17.41-35.84h51.81v-14.34001h64.62l-.21 12.60001v.71h70.14l-18.63 36.87h-51.51v14.33z" opacity=".98"/><path d="m71.37 66.6604v-14.33h-69.12l17.41-35.84h51.81v-14.34001h64.62l-.21 12.50001v.81h70.14l-18.63 36.87h-51.51v14.33z"/></g><g fill="#4f5050"><path d="m9.15604 85.0327h12.22816v-3.1323h-14.75164c-3.05543 0-4.71613 1.0906-4.71613 5.0409 0 0-.06487 2.2479-.06487 4.4292s.06487 4.4291.06487 4.4291c0 3.8838 1.6607 4.9744 4.71613 4.9744h15.14734v-3.1988h-12.62386c-.86278 0-1.06388-.2061-1.06388-1.0906v-10.3479c0-.818.2011-1.0907 1.06388-1.0907"/><path d="m40.0476 81.9004v7.4218h-9.8993v-7.4218h-6.1757v18.9336h6.1757v-8.446h9.8993v8.446h6.1758v-18.9336z"/><path d="m89.6026 81.9004-5.9811 15.4554c-.1297.2726-.2659.2726-.6617.2726-.3957 0-.5319 0-.6616-.2726l-5.9812-15.4554h-22.3221c-3.0554 0-4.7161 1.0906-4.7161 5.0409 0 0-.0649 2.2479-.0649 4.4292s.0649 4.4956.0649 4.4956c0 3.8838 1.6607 4.9749 4.7161 4.9749h15.6794v-3.1993h-13.1559c-.8628 0-1.0639-.2061-1.0639-1.0906v-4.0833h13.0196v-3.1323h-13.0196v-3.1323c0-.8845.2011-1.0907 1.0639-1.0907h14.0186c1.9267 4.7683 5.3778 12.9415 5.6438 13.6199.3957.951 1.1936 2.1086 2.7895 2.1086h5.78c1.5958 0 2.1926-1.0911 2.5883-2.1086.3958-.951 6.9088-16.8187 6.9088-16.8187h-4.6513"/><path d="m141.947 86.9413c0-3.9503-1.661-5.0409-4.716-5.0409h-12.955c-3.055 0-4.716 1.0906-4.716 5.0409 0 0-.065 2.2479-.065 4.4292s.065 4.4956.065 4.4956c0 3.8838 1.661 4.9749 4.716 4.9749h12.955c3.055 0 4.716-1.1576 4.716-4.9749 0 0 .065-2.3143.065-4.4956s-.065-4.4292-.065-4.4292zm-15.147-1.9086h7.972c.863 0 1.064.2062 1.064 1.0907v10.421c0 .8845-.201 1.0907-1.064 1.0907h-7.907c-.863 0-1.064-.2062-1.064-1.0907v-10.421c-.065-.8845.129-1.0907.999-1.0907z"/><path d="m151.314 97.6351v-15.7347h-6.247v18.9336h19.137v-3.1989z"/><path d="m169.582 81.9004c-3.055 0-4.716 1.0906-4.716 5.0409 0 0-.065 2.2479-.065 4.4292v4.4291c0 3.8838 1.661 4.9744 4.716 4.9744h15.68v-3.1988h-13.156c-.863 0-1.064-.2061-1.064-1.0906v-4.0833h13.02v-3.1323h-13.02v-3.0658c0-.8845.201-1.0907 1.064-1.0907h20.525v15.7285h6.176v-15.7285h7.11v-3.1323l-36.27-.0665"/><path d="m109.998 92.7271c-.201-.133-.065-.2061.065-.2061h2.789c2.057 0 3.984-.6784 4.12-3.538.129-.7515.065-2.6535.065-2.6535 0-3.1323-1.596-4.2895-3.919-4.2895h-18.2024v18.86h6.1104v-15.7276h9.102c.532 0 .733.133.733.4788 0 .4056.065 1.2236.065 1.9086 0 .818 0 1.4298-.065 1.7025-.065.3392-.331.4788-.733.4788h-7.305v2.8597l9.037 8.2402h8.504s-10.23-8.0341-10.359-8.1072"/></g><path d="m137.109.410156h-66.6596v14.130044h-51.51l-18.330025 38.2h70.040025v14.34h66.2496v-14.54h51.1l19.66-38.4h-70.66v-.2l.1-13.520044zm-59.7996 6.140004h53.3496v14.54004l55.81-.1h.31l-.2.31-12.08 24.37-.1.1h-.1l-43.72-.1v15.36h-53.5596v-15.26l-55.71-.72h-.31l.2-.31 11.98-23.55.1-.1h43.83v-14.53004h.2z" fill="#f2f4f6"/><path d="m137.109.410156h-4.1l-4.4 6.150004h1.84.21v.2 14.34004h3.17l10.04-6.97h-6.86z" fill="url(#b)"/><path d="m174.488 45.7809 13.51 6.75 19.66-38.4-20.89 6.86-5.32 10.76z" fill="url(#c)"/><g mask="url(#o)"><path d="m211.648 12.1895h-33.89v24.37h33.89z" fill="url(#d)"/></g><path d="m70.4492.410156 6.65 6.150004h40.4498 13.11l6.45-6.150004z" fill="url(#e)"/><path d="m103.73.410156v6.150004h13.82 13.11l6.45-6.150004z" fill="url(#f)"/><path d="m70.6494 52.7398 6.45-6.96-56.32-.52-20.170025 7.48z" fill="url(#g)"/><path d="m18.9394 14.5391-18.330025 38.2 20.170025-7.48 12.5-24.16z" fill="url(#h)"/><path d="m18.9394 14.5393-7.58 15.77c.51 1.54 1.33 2.56 3.58 2.56 2.76.1 5.73.1 8.5.2 1.54 0 2.76-.2 3.99-.72l5.73-11.37-14.23-6.45z" fill="url(#i)"/><path d="m70.24 0h67.28v.2l-.1 13.52h70.96l-.2.31-19.87 38.81-.1.1h-50.89v14.54h-67.08v-14.34h-70.24l.0999985-.31 18.5300015-38.59.1-.1h51.3v-14.14h.2zm.2.41v14.13h-51.51l-18.330002 38.2h70.050002v14.34h66.25v-14.54h51.1l19.66-38.4h-70.66v-.2l.1-13.52h-66.65z" fill="#98a0a9"/><g mask="url(#p)"><path d="m190.871 4.50977h-172.3398v57.86003h172.3398z" fill="url(#j)"/></g><g mask="url(#q)"><path d="m187.082 5.83984h-85.5v56.11996h85.5z" fill="url(#k)"/></g><path d="m77.3108 6.56055h53.3502v14.53995l55.81-.1h.31l-.2.31-12.08 24.37-.1.1h-.1l-43.72-.1v15.36h-53.5602v-15.26l-55.91-.41h-.31l.2-.31 12.19-23.76.1-.1h43.83v-14.53995h.2v-.1zm52.9402.41h-52.7402v14.53995h-44.03l-11.98 23.35 55.81.41h.2v15.26h52.7402v-15.36h.2l43.83.1 11.88-23.96-55.71.1h-.2z" fill="#98a0a9"/><path d="m18.9414 14.5391 14.23 6.56h43.93l-6.65-6.56z" fill="url(#l)"/><path d="m137.209 14.1293h-.2v-.1l-6.15 7.07 55.91-.11 20.89-6.86z" fill="url(#m)"/><path d="m188 52.5303-13.51-6.75h-1.23l-42.6-.21 6.24 6.96z" fill="url(#n)"/></svg>