<svg width="14717" height="1990" viewBox="0 0 14717 1990" fill="none" xmlns="http://www.w3.org/2000/svg">
<path d="M6142.1 338.1V1261.3C6142.1 1346.2 6190.9 1380.5 6273.2 1380.5H6927.8C7010 1380.5 7058.9 1346.2 7058.9 1261.3V338.1H7443V1321.9C7443 1530.7 7264 1688.9 7058.8 1688.9H6142C5937.7 1688.9 5757.7 1529.8 5757.7 1321.9V338.1H6142.1Z" fill="black"/>
<path d="M3935.9 1272.2H4318.3C4324.6 1349.1 4369.8 1380.6 4445.8 1380.6H5148.4C5213.5 1380.6 5249.6 1324.7 5249.6 1264C5249.6 1182.7 5190 1140.1 5113.1 1140.1H4347.2C4094.9 1140.1 3923.1 1017.1 3923.1 751.3C3923.1 613 3977.4 466.5 4100.4 392.3C4177.2 345.2 4271.2 338 4359.9 338H5262.2C5457.6 338 5614.8 476.3 5613 675.2V746.6H5218C5214.4 685.1 5178.2 645.4 5113.2 645.4H4446.8C4379 645.4 4322 679.7 4322 754.8C4322 829 4379.9 857 4445.9 857H5262.4C5526.4 857 5663 1033.4 5663 1290.2C5663 1536.1 5549 1688.8 5294 1688.8H4318.4C4095.9 1688.8 3938.6 1599.4 3936.8 1362.5L3935.9 1272.2Z" fill="black"/>
<path d="M13030.9 338.1H13416.1V1261.3C13416.1 1346.2 13465 1380.5 13547.2 1380.5H14201.7C14283.9 1380.5 14332.8 1346.2 14332.8 1261.3V338.1H14717V1321.9C14717 1529.7 14537.1 1688.9 14332.8 1688.9H13415.9C13210.7 1688.9 13030.7 1530.7 13030.7 1321.9L13030.9 338.1Z" fill="black"/>
<path d="M9789.4 1422.2L9638.4 1688.8H9211.7L9945 338.1H10446.8L11180.2 1688.8H10753.3L10602.3 1422.2H9789.4ZM10195.4 679.9L9953.1 1130.2H10438.7L10195.4 679.9Z" fill="black"/>
<path d="M7589.7 338.1H8774.2C9028.2 338.1 9216.3 426.7 9216.3 711.5C9216.3 834.5 9167.6 942.1 9059.1 1002.7C9178.3 1066 9246.2 1183.4 9246.2 1319C9246.2 1509.8 9124 1688.8 8918.9 1688.8H7589.7V338.1ZM7983 1380.5H8713.6C8784.9 1380.5 8851 1341.7 8851 1263.9C8851 1187 8784.1 1147.3 8713.6 1147.3H7983V1380.5ZM7983 868H8713.6C8779.5 868 8821.2 821.9 8821.2 757.7C8821.2 693.5 8780.5 645.7 8713.6 645.7H7983V868Z" fill="black"/>
<path d="M11253.3 338.1H12540.8C12797.7 338.1 12921.6 547.9 12921.6 782.1C12921.6 933.9 12866.5 1075.9 12727.2 1148.4C12862.9 1214.3 12925.2 1318.3 12925.2 1470.3V1689H12540.8V1470.4C12540.8 1342 12469.5 1295.9 12345.5 1295.9H11649.5V1689H11253.4L11253.3 338.1ZM11649.4 988.2H12370C12463 988.2 12525.5 905 12525.5 817.3C12525.5 705.2 12442.3 645.5 12334.7 645.5H11649.4V988.2Z" fill="black"/>
<path d="M1701.7 0C2127.6 0 2584.2 86.8 2947.6 317.4C3183.6 468.4 3403.3 697.2 3403.3 995.4C3403.3 1343.6 3105.9 1596.8 2821 1745C2482 1920.5 2081.4 1990 1701.6 1990C1275.8 1990 820.1 1904.2 456.6 1672.7C220.6 1521.7 0 1292.9 0 995.4C0 645.6 296.6 393.3 582.3 245C922.3 69.6 1322 0 1701.7 0ZM1698.1 105.8C1302.1 105.8 875.3 179.9 531.7 386.9C315.6 516.2 102.2 719.7 102.2 990C102.2 1307.5 391.5 1529.7 650.1 1657.3C970.2 1813.6 1344.5 1874.4 1698.1 1874.4C2094.9 1874.4 2521.8 1800.1 2865.4 1593.1C3080.6 1462.9 3294.9 1260.4 3294.9 990.1C3294.9 671.9 3006.4 449.4 2747 322.9C2426.8 166.3 2052.5 105.8 1698.1 105.8ZM203.5 770.3L855.4 659.1L1051.6 233.2L1247 659.1L1898.8 770.3L1247 882.5L1051.6 1309.3L855.4 882.5L203.5 770.3ZM1636.6 1094.8L1924.1 1044.3L2010 851.7L2095.9 1044.3L2383.5 1094.8L2095.9 1144.5L2010 1337.2L1924.1 1144.5L1636.6 1094.8ZM2231.6 581.3L2519.1 531.6L2605 338.2L2690.9 531.6L2978.4 581.3L2690.9 631.9L2605 824.6L2519 631.9L2231.6 581.3ZM1924.1 1492.8L2210.7 1443.1L2296.6 1249.6L2383.4 1443.1L2670.9 1492.8L2383.4 1543.4L2296.6 1736.1L2210.7 1543.4L1924.1 1492.8ZM1040.8 1562.4L1328.3 1512.7L1415.1 1319L1500.9 1512.7L1788.5 1562.4L1500.9 1613L1415.1 1805.7L1328.3 1613L1040.8 1562.4ZM2486.6 1086.9L2773.2 1036.2L2859.1 843.6L2945.9 1036.2L3233.4 1086.9L2945.9 1136.6L2859 1329L2773.1 1136.5L2486.6 1086.9Z" fill="black"/>
</svg>
