<svg fill="none" height="50" viewBox="0 0 198 50" width="198" xmlns="http://www.w3.org/2000/svg" xmlns:xlink="http://www.w3.org/1999/xlink"><radialGradient id="a" cx="25.9002" cy="7.59414" gradientUnits="userSpaceOnUse" r="31.825"><stop offset="0" stop-color="#bad7e8"/><stop offset=".52" stop-color="#0d4a91"/><stop offset="1" stop-color="#223266"/></radialGradient><linearGradient id="b"><stop offset="0" stop-color="#fff"/><stop offset="1" stop-color="#dbdcdf"/></linearGradient><linearGradient id="c" gradientUnits="userSpaceOnUse" x1="37.9811" x2="37.9811" xlink:href="#b" y1=".96037" y2="46.6839"/><linearGradient id="d" gradientUnits="userSpaceOnUse" x1="37.3001" x2="37.3001" xlink:href="#b" y1="5.40414" y2="45.3041"/><linearGradient id="e" gradientUnits="userSpaceOnUse" x1="36.4201" x2="36.4201" xlink:href="#b" y1="11.1841" y2="39.3841"/><clipPath id="f"><path d="m0 0h198v50h-198z"/></clipPath><mask id="g" height="50" maskUnits="userSpaceOnUse" width="198" x="0" y="0"><path d="m197.06.93457h-197.06v48.13003h197.06z" fill="#fff"/></mask><g clip-path="url(#f)"><g mask="url(#g)"><path d="m37.4102 48.7441c20.5726 0 37.25-10.6332 37.25-23.75 0-13.1167-16.6774-23.74996-37.25-23.74996-20.5727 0-37.250044 10.63326-37.250044 23.74996 0 13.1168 16.677344 23.75 37.250044 23.75z" fill="url(#a)"/><path d="m37.41 49.0646c-10.06 0-19.33-2.5-26.41-7.03-7.07-4.54-11-10.63-11-17.04s3.93-12.5 11-17.03003c7.07-4.53 16.5-7.03 26.41-7.03s19.33 2.5 26.4 7.03c7.07 4.53003 11 10.62003 11 17.03003s-3.93 12.5-11 17.03-16.5 7.03-26.4 7.03zm0-47.50003c-20.28 0-36.94 10.62003-36.94 23.44003s16.5 23.44 36.93 23.44 36.94-10.63 36.94-23.44c-.16-12.98-16.66-23.44003-36.93-23.44003z" fill="url(#c)"/><path d="m115.06 21.9944h-19.9699v-5.92l22.6599-.16 2.81-6.93002h-30.4999c-1.57 0-3 1.57002-3 3.15002v30.85h8.03l-.03-14h17.4999l2.5-7zm73.03-11.11-7.71 19.52-5.32-21.41002h-7l-5.46 21.25002-8.54-21.25002h-8.3l14.8 34.00002h7.07l3.78-17.63 4.15 17.63h7l14.5-34.00002h-6.5c-1.1.16-2 .78999-2.47 1.89002zm-60.43 0-13.6 32.11h8l3.5-8h16l3.1 8h8.65l-14.48-34.00002h-8.65c-.94.16-2.05.93999-2.52 1.89002zm.9 18.11 4.92-12.44 5.35 12.44z" fill="#013f8a"/><path d="m37.0601 3.99414c-18.81 0-34.00004 9.47996-34.00004 20.99996s15.20004 21 34.00004 21 34-9.47 34-21c-.16-11.68-15.35-20.99996-34-20.99996zm0 39.62996c-17.08 0-30.87004-8.37-30.87004-18.63s13.79004-18.62996 30.87004-18.62996 30.71 8.36996 30.71 18.62996-13.79 18.63-30.71 18.63z" fill="#000"/><path clip-rule="evenodd" d="m37.0601 3.99414c-18.81 0-34.00004 9.47996-34.00004 20.99996s15.20004 21 34.00004 21 34-9.47 34-21c-.16-11.68-15.35-20.99996-34-20.99996zm0 39.62996c-17.08 0-30.87004-8.37-30.87004-18.63s13.79004-18.62996 30.87004-18.62996 30.71 8.36996 30.71 18.62996-13.79 18.63-30.71 18.63z" fill="url(#d)" fill-rule="evenodd"/><path d="m30.7801 30.6241-4.22 1.88h-11.57l1.72 3.59s.47.94 1.72.94h8.12l4.22-1.88v-4.53zm10.16 7.19c-1.41-.31-1.25-1.56-1.25-1.56v-26.25996h-3.59l-5.16 2.33996v2.66c2.34-1.25 2.34.78 2.34.78l.16 20.62c0 1.41-1.25 1.41-1.25 1.41h-1.56v2.19h11.88v-2.03l-1.56-.16zm-10.16-13.75h-19.38l1.56 4.06c.62.94 1.25.78 1.25.78h16.57zm-18.91-1.72h19.06v-4.84h-21.87004l1.56004 4.06c.62.94 1.25.78 1.25.78zm34.84-4.69v-.78h-4.53v5.62l18.59-.16c1.72-.16 1.72-.78 1.72-.78l1.56-3.75-17.34-.16zm-.47 13.12h-4.22v4.37h4.06l2.66 2.03h5.94c1.25-.16 1.41-.94 1.41-.94l1.72-3.44h-8.91l-2.66-2.03zm-4.06-2.03h16.09c.94 0 1.41-.78 1.41-.78l1.72-3.75h-19.38z" fill="#000"/><path clip-rule="evenodd" d="m30.7801 30.6241-4.22 1.88h-11.57l1.72 3.59s.47.94 1.72.94h8.12l4.22-1.88v-4.53zm10.16 7.19c-1.41-.31-1.25-1.56-1.25-1.56v-26.25996h-3.59l-5.16 2.33996v2.66c2.34-1.25 2.34.78 2.34.78l.16 20.62c0 1.41-1.25 1.41-1.25 1.41h-1.56v2.19h11.88v-2.03l-1.56-.16zm-10.16-13.75h-19.38l1.56 4.06c.62.94 1.25.78 1.25.78h16.57zm-18.91-1.72h19.06v-4.84h-21.87004l1.56004 4.06c.62.94 1.25.78 1.25.78zm34.84-4.69v-.78h-4.53v5.62l18.59-.16c1.72-.16 1.72-.78 1.72-.78l1.56-3.75-17.34-.16zm-.47 13.12h-4.22v4.37h4.06l2.66 2.03h5.94c1.25-.16 1.41-.94 1.41-.94l1.72-3.44h-8.91l-2.66-2.03zm-4.06-2.03h16.09c.94 0 1.41-.78 1.41-.78l1.72-3.75h-19.38z" fill="url(#e)" fill-rule="evenodd"/></g></g></svg>