<svg width="381" height="156" viewBox="0 0 381 156" fill="none" xmlns="http://www.w3.org/2000/svg">
<g opacity="0.5" clip-path="url(#clip0_1135_72940)">
<path d="M359.079 123.372L336.082 123.776L275.159 131.196H105.975L41.8253 119.594L31.0664 105.16L48.2807 78.8547C48.2807 78.8547 227.955 64.1506 234.813 64.1506C241.672 64.1506 332.45 70.4909 332.45 70.4909L362.71 86.544L359.079 123.372Z" fill="#6C767A" stroke="#416388" stroke-width="0.744" stroke-linejoin="round"/>
<path d="M325.86 6.41327H339.981C339.981 6.41327 344.823 5.87367 348.32 9.92067C348.32 9.92067 366.475 39.194 367.82 55.6517C367.82 55.6517 371.855 60.3732 373.199 63.0712C374.544 65.7692 375.217 73.4585 374.813 82.9015C374.41 92.3445 374.813 95.8519 373.603 98.415C372.527 100.978 359.751 113.794 359.751 113.794L339.578 113.524C339.578 113.524 334.467 86.5438 304.208 86.1391C274.083 85.7344 270.721 110.286 269.914 119.729L269.779 128.093L112.43 128.498C112.43 128.498 116.599 86.1391 77.0604 86.5438C37.5214 86.9485 42.9009 122.967 42.9009 122.967H23.9383C23.9383 122.967 22.8624 124.855 15.6001 123.776C8.33788 122.697 -0.538228 107.723 0.67215 94.9076C0.67215 94.9076 0.806636 87.623 3.36188 86.6787C3.36188 86.6787 4.43777 86.1391 7.1275 86.274C7.1275 86.274 10.2207 67.2531 24.2073 64.4202L107.858 50.7953L112.968 51.3349L164.342 21.5221L158.156 22.1966C158.156 22.1966 176.042 10.865 187.743 10.5952L201.998 11.2697L259.693 9.38107C259.693 9.38107 262.383 9.38107 264.131 8.70657C264.131 8.70657 271.662 6.41327 278.252 6.27837C285.245 6.14347 325.86 6.41327 325.86 6.41327Z" fill="#EAF5F9" stroke="#416388" stroke-width="1.3165" stroke-linejoin="round"/>
<path d="M17.3477 117.436H37.6551C37.7896 111.231 39.2689 101.518 46.1277 93.5589C52.9866 85.4649 63.611 81.283 77.4631 81.1481H78.1355C90.6427 81.1481 100.595 85.0602 107.588 92.8844C116.33 102.597 118.078 115.682 118.347 123.102L264.937 122.832V119.595V119.46C267.761 87.6233 287.665 81.0132 303.938 81.0132C304.207 81.0132 304.476 81.0132 304.611 81.0132C328.684 81.283 340.115 97.2012 344.015 108.398" stroke="#416388" stroke-width="0.744" stroke-linejoin="round"/>
<path d="M305.957 6.27848C305.957 6.27848 305.284 1.28718 294.794 0.882481C284.304 0.477781 241.672 1.28718 241.672 1.28718C241.672 1.28718 202.806 2.63618 198.905 3.71538C195.005 4.79458 188.281 8.97648 187.743 9.78588C187.205 10.5953 186.802 11.9443 187.609 12.2141C188.416 12.4839 196.081 13.4282 196.485 12.6188C196.888 11.6745 197.157 8.97648 198.905 7.76238C200.654 6.54828 225.399 5.19928 225.399 5.19928L285.38 3.31068C285.38 3.31068 287.801 2.63618 288.608 6.41338C289.415 10.1906 302.729 10.0557 302.729 10.0557L305.957 6.27848Z" fill="#FAFAFA" stroke="#416388" stroke-width="0.744" stroke-linejoin="round"/>
<path d="M370.106 58.0802L303.669 61.9923L220.019 63.0715L119.961 65.2299C119.961 65.2299 20.3064 69.142 14.5234 70.491" stroke="#416388" stroke-width="0.744" stroke-linejoin="round"/>
<path d="M343.075 14.5073L305.015 15.5865C302.998 15.5865 301.519 17.61 302.057 19.4986L311.74 55.5169C312.143 57.0008 313.488 57.9451 314.967 57.8102L356.927 55.6518C359.079 55.5169 360.424 53.3585 359.751 51.335L346.303 16.3959C345.63 15.1818 344.42 14.3724 343.075 14.5073Z" fill="#99A5A9" stroke="#416388" stroke-width="0.744" stroke-linejoin="round"/>
<path d="M287.129 18.6893H234.007C231.99 18.6893 230.376 20.1732 230.107 22.0618L226.879 55.517C226.61 57.8103 228.493 59.6989 230.779 59.6989L293.45 58.4848C295.871 58.4848 297.619 56.3264 297.216 53.8982L291.029 21.792C290.626 19.9034 289.012 18.6893 287.129 18.6893Z" fill="#99A5A9" stroke="#416388" stroke-width="0.744" stroke-linejoin="round"/>
<path d="M301.25 62.127L293.584 20.7127C293.584 20.7127 293.315 15.3167 285.65 15.4516L198.771 16.1261C198.771 16.1261 181.154 18.4194 174.429 22.4664C167.839 26.5134 147.667 41.4873 143.228 45.1296C138.79 48.7719 127.763 61.7223 126.418 62.9364L125.073 64.9599C125.073 64.9599 122.921 90.1861 123.728 101.383C124.535 112.58 127.225 118.245 132.201 119.19C137.177 120.134 264.804 117.706 264.804 117.706" stroke="#416388" stroke-width="0.744" stroke-linejoin="round"/>
<path d="M282.42 18.6893V58.7546H279.865V18.6893H282.42Z" fill="#FAFAFA" stroke="#416388" stroke-width="0.744" stroke-linejoin="round"/>
<path d="M226.879 15.7214L220.02 63.2062C220.02 63.2062 217.464 80.2036 217.196 85.4647C216.927 90.7258 218.002 123.102 218.002 123.102" stroke="#416388" stroke-width="0.744" stroke-linejoin="round"/>
<path d="M222.845 21.792C223.113 20.3081 222.038 18.9591 220.558 19.094C213.43 19.3638 195.14 20.1732 190.837 20.9826C185.457 22.0618 178.599 23.2759 172.547 27.3229C166.495 31.3699 144.17 48.9069 141.211 51.6049C139.732 52.9539 137.446 55.3821 135.563 57.5405C134.352 58.8895 135.294 61.0479 137.177 61.0479L211.144 59.8338C213.834 59.8338 216.12 57.8103 216.658 55.1123L222.845 21.792Z" fill="#99A5A9" stroke="#416388" stroke-width="0.744" stroke-linejoin="round"/>
<path d="M146.455 54.3027L150.759 59.294C148.069 60.3732 145.514 61.5873 142.824 62.6665C142.69 62.6665 141.076 62.5316 140.269 61.0477C139.597 59.8336 139.866 58.6195 139.866 58.4846L146.455 54.3027Z" fill="#FAFAFA" stroke="#416388" stroke-width="0.744" stroke-linejoin="round"/>
<path d="M145.111 58.4847C145.111 58.08 145.111 50.5256 145.111 50.5256C145.111 50.5256 144.842 49.0417 147.532 48.7719C150.221 48.637 152.239 48.5021 152.239 48.5021C152.239 48.5021 154.525 48.637 155.332 51.2001C156.139 53.7632 156.677 55.7867 156.811 57.8102C156.946 59.6988 157.618 61.9921 155.466 62.3968C153.18 62.8015 148.204 62.9364 148.204 62.9364C148.204 62.9364 145.38 63.3411 145.111 58.4847Z" fill="#FAFAFA" stroke="#416388" stroke-width="0.744" stroke-linejoin="round"/>
<path d="M163.669 19.094C163.669 19.094 160.979 19.3638 147.127 27.188C133.275 35.0122 105.167 52.819 105.167 52.819C105.167 52.819 102.209 54.4378 113.237 54.3029C124.265 54.168 124.399 54.168 124.399 54.168C124.399 54.168 127.896 54.168 129.106 51.6049C129.106 51.6049 161.786 27.7276 165.821 24.7598C169.855 21.792 171.2 20.0383 168.242 19.4987C166.09 19.094 163.669 19.094 163.669 19.094Z" fill="#99A5A9" stroke="#416388" stroke-width="0.744" stroke-linejoin="round"/>
<path d="M336.619 105.16H379.386C379.386 105.16 382.345 108.533 378.579 113.929C374.813 119.325 369.568 122.292 364.727 122.697C360.02 123.102 342.94 125.665 342.94 125.665L336.619 105.16Z" fill="#FAFAFA" stroke="#416388" stroke-width="0.744" stroke-linejoin="round"/>
<path d="M14.3906 83.1714C14.3906 83.1714 46.5329 83.711 50.8364 83.5761C55.14 83.4412 57.2918 85.1949 57.2918 85.1949" stroke="#416388" stroke-width="0.744" stroke-linejoin="round"/>
<path d="M49.76 89.9165L1.88281 89.7816" stroke="#416388" stroke-width="0.744" stroke-linejoin="round"/>
<path d="M373.334 63.2063L367.551 62.9365C367.551 62.9365 365.264 62.5318 365.264 64.5553C365.264 66.5788 365.264 79.3943 365.264 79.3943C365.264 79.3943 365.13 81.0131 366.071 81.6876L367.82 83.5762C367.82 83.5762 368.223 84.3856 369.299 84.3856C370.375 84.3856 374.813 84.3856 374.813 84.3856C374.813 84.3856 375.889 65.7694 373.334 63.2063Z" fill="#99A5A9" stroke="#416388" stroke-width="0.744" stroke-linejoin="round"/>
<path d="M374.949 68.6023H365.266" stroke="#416388" stroke-width="0.744" stroke-linejoin="round"/>
<path d="M301.922 62.1272C301.922 62.1272 304.746 63.8809 304.477 80.8783" stroke="#416388" stroke-width="0.744" stroke-linejoin="round"/>
<path d="M284.706 84.7903L124.398 86.544" stroke="#416388" stroke-width="0.744" stroke-linejoin="round"/>
<path d="M285.783 72.9189H297.214C298.424 72.9189 299.366 71.9746 299.366 70.7605V68.1974V67.2531C299.366 66.039 298.424 65.0947 297.214 65.0947H285.783C284.572 65.0947 283.631 66.039 283.631 67.2531V67.7927V70.7605C283.631 71.9746 284.572 72.9189 285.783 72.9189Z" fill="#FAFAFA" stroke="#416388" stroke-width="0.744" stroke-linejoin="round"/>
<path d="M299.366 68.1976H283.631" stroke="#416388" stroke-width="0.744" stroke-linejoin="round"/>
<path d="M199.982 75.8867H211.413C212.624 75.8867 213.565 74.9424 213.565 73.7283V71.1652V70.2209C213.565 69.0068 212.624 68.0625 211.413 68.0625H199.982C198.771 68.0625 197.83 69.0068 197.83 70.2209V70.7605V73.7283C197.83 74.8075 198.771 75.8867 199.982 75.8867Z" fill="#FAFAFA" stroke="#416388" stroke-width="0.744" stroke-linejoin="round"/>
<path d="M213.565 71.0304H197.83" stroke="#416388" stroke-width="0.744" stroke-linejoin="round"/>
<path d="M19.2319 70.0862L36.0427 69.007L33.084 83.4412H13.3145C13.3145 83.4412 15.1973 72.2446 19.2319 70.0862Z" fill="white" stroke="#416388" stroke-width="0.744" stroke-linejoin="round"/>
<path d="M24.4768 64.4202C24.4768 64.4202 17.618 70.7605 16.1387 75.0773C14.6593 79.3941 14.9283 82.9015 14.3903 83.1713C13.8524 83.4411 10.3557 87.3532 8.47293 86.9485C6.72461 86.5438 6.72461 86.8136 6.72461 85.5995C6.72461 84.3854 9.01088 66.039 24.4768 64.4202Z" fill="#99A5A9" stroke="#416388" stroke-width="0.744" stroke-linejoin="round"/>
<path d="M6.45474 89.7816V101.923H0.940797C0.940797 101.923 -0.135094 91.5353 1.74772 89.5118L6.45474 89.7816Z" fill="#99A5A9" stroke="#416388" stroke-width="0.744" stroke-linejoin="round"/>
<path d="M6.45508 101.923L41.0181 101.788" stroke="#416388" stroke-width="0.744" stroke-linejoin="round"/>
<path d="M24.7461 123.102C24.7461 123.102 10.356 114.064 7.80078 105.025L39.6741 105.295" stroke="#416388" stroke-width="0.744" stroke-linejoin="round"/>
<path d="M305.014 154.264C322.469 154.264 336.619 140.433 336.619 123.372C336.619 106.31 322.469 92.4796 305.014 92.4796C287.56 92.4796 273.41 106.31 273.41 123.372C273.41 140.433 287.56 154.264 305.014 154.264Z" fill="#99A5A9" stroke="#416388" stroke-width="1.3165" stroke-linejoin="round"/>
<path d="M305.015 146.844C318.236 146.844 328.953 136.335 328.953 123.372C328.953 110.408 318.236 99.899 305.015 99.899C291.794 99.899 281.076 110.408 281.076 123.372C281.076 136.335 291.794 146.844 305.015 146.844Z" fill="white" stroke="#416388" stroke-width="0.744" stroke-miterlimit="10"/>
<path d="M302.459 123.237C302.459 124.586 303.535 125.665 305.014 125.665C306.359 125.665 307.569 124.586 307.569 123.237C307.569 121.888 306.494 120.809 305.014 120.809C303.669 120.809 302.459 121.888 302.459 123.237Z" stroke="#416388" stroke-width="0.744" stroke-miterlimit="10"/>
<path d="M305.014 144.686C304.207 144.686 303.4 144.686 302.325 144.551C301.921 144.551 301.652 144.416 301.383 144.416C300.98 144.281 300.576 144.146 300.442 143.742L299.097 142.123C298.559 141.448 298.559 140.504 299.097 139.964L303.669 134.164C304.342 133.219 305.687 133.219 306.359 134.164L310.932 139.964C311.47 140.639 311.47 141.448 310.932 142.123L309.587 143.742C309.318 144.011 309.049 144.281 308.645 144.416C308.376 144.551 307.973 144.551 307.704 144.551C306.763 144.686 305.821 144.686 305.014 144.686Z" fill="#D2DBDD" stroke="#416388" stroke-width="0.744" stroke-miterlimit="10"/>
<path d="M284.842 129.982C284.573 129.307 284.304 128.363 284.17 127.419C284.17 127.014 284.035 126.744 284.035 126.474C284.035 126.07 284.17 125.665 284.304 125.395L285.515 123.642C285.918 122.967 286.859 122.697 287.532 122.967L294.391 125.53C295.466 125.935 295.87 127.149 295.198 128.093L291.163 134.299C290.759 134.973 289.818 135.243 289.146 134.973L287.128 134.164C286.725 134.029 286.456 133.759 286.187 133.354C286.052 133.085 285.918 132.815 285.649 132.41C285.38 131.466 285.111 130.656 284.842 129.982Z" fill="#D2DBDD" stroke="#416388" stroke-width="0.744" stroke-miterlimit="10"/>
<path d="M292.238 106.374C292.776 105.835 293.583 105.43 294.524 104.89C294.793 104.755 295.196 104.621 295.465 104.486C295.869 104.351 296.272 104.351 296.676 104.351L298.693 104.89C299.5 105.16 300.038 105.835 300.038 106.644L299.769 114.064C299.769 115.143 298.693 115.952 297.617 115.682L290.489 113.794C289.682 113.524 289.145 112.849 289.145 112.04V109.882C289.145 109.477 289.279 109.072 289.548 108.802C289.817 108.533 289.951 108.263 290.22 107.993C290.893 107.453 291.565 106.779 292.238 106.374Z" fill="#D2DBDD" stroke="#416388" stroke-width="0.744" stroke-miterlimit="10"/>
<path d="M317.79 106.509C318.463 106.914 319.135 107.588 319.808 108.263C320.077 108.533 320.211 108.803 320.48 109.072C320.749 109.342 320.884 109.747 320.884 110.152V112.31C320.884 113.119 320.346 113.794 319.539 114.064L312.411 115.952C311.335 116.222 310.259 115.413 310.259 114.333L309.99 106.914C309.99 106.105 310.528 105.43 311.335 105.16L313.352 104.621C313.756 104.486 314.159 104.621 314.563 104.756C314.832 104.89 315.101 105.025 315.504 105.16C316.446 105.43 317.118 105.97 317.79 106.509Z" fill="#D2DBDD" stroke="#416388" stroke-width="0.744" stroke-miterlimit="10"/>
<path d="M325.323 129.982C325.054 130.656 324.785 131.6 324.381 132.545C324.247 132.815 324.112 133.219 323.843 133.489C323.574 133.894 323.305 134.164 322.902 134.298L320.885 135.108C320.078 135.378 319.271 135.108 318.867 134.433L314.833 128.228C314.16 127.284 314.564 126.07 315.64 125.665L322.498 123.102C323.305 122.832 324.112 123.102 324.516 123.776L325.726 125.53C325.995 125.8 325.995 126.204 325.995 126.609C325.995 126.879 325.995 127.284 325.861 127.554C325.726 128.363 325.592 129.172 325.323 129.982Z" fill="#D2DBDD" stroke="#416388" stroke-width="0.744" stroke-miterlimit="10"/>
<path d="M76.5223 154.264C93.9769 154.264 108.127 140.433 108.127 123.372C108.127 106.31 93.9769 92.4796 76.5223 92.4796C59.0677 92.4796 44.918 106.31 44.918 123.372C44.918 140.433 59.0677 154.264 76.5223 154.264Z" fill="#99A5A9" stroke="#416388" stroke-width="1.3165" stroke-linejoin="round"/>
<path d="M76.5226 146.844C89.7435 146.844 100.461 136.335 100.461 123.372C100.461 110.408 89.7435 99.899 76.5226 99.899C63.3017 99.899 52.584 110.408 52.584 123.372C52.584 136.335 63.3017 146.844 76.5226 146.844Z" fill="white" stroke="#416388" stroke-width="0.744" stroke-miterlimit="10"/>
<path d="M73.9668 123.237C73.9668 124.586 75.0427 125.665 76.522 125.665C77.8669 125.665 79.0773 124.586 79.0773 123.237C79.0773 121.888 78.0014 120.809 76.522 120.809C75.1772 120.809 73.9668 121.888 73.9668 123.237Z" stroke="#416388" stroke-width="0.744" stroke-miterlimit="10"/>
<path d="M76.522 144.686C75.7151 144.686 74.9082 144.686 73.8323 144.551C73.4288 144.551 73.1599 144.416 72.8909 144.416C72.4874 144.281 72.084 144.146 71.9495 143.742L70.6046 142.123C70.0667 141.448 70.0667 140.504 70.6046 139.964L75.1772 134.164C75.8496 133.219 77.1945 133.219 77.8669 134.164L82.4394 139.964C82.9774 140.639 82.9774 141.448 82.4394 142.123L81.0946 143.742C80.8256 144.011 80.5566 144.281 80.1532 144.416C79.8842 144.551 79.4807 144.551 79.2118 144.551C78.1359 144.686 77.329 144.686 76.522 144.686Z" fill="#D2DBDD" stroke="#416388" stroke-width="0.744" stroke-miterlimit="10"/>
<path d="M56.3499 129.982C56.0809 129.307 55.8119 128.363 55.6775 127.419C55.6775 127.014 55.543 126.744 55.543 126.474C55.543 126.07 55.6775 125.665 55.8119 125.395L57.0223 123.642C57.4258 122.967 58.3672 122.697 59.0396 122.967L65.8984 125.53C66.9743 125.935 67.3778 127.149 66.7053 128.093L62.6707 134.299C62.2673 134.973 61.3259 135.243 60.6535 134.973L58.6362 134.164C58.2327 134.029 57.9637 133.759 57.6948 133.354C57.5603 133.085 57.4258 132.815 57.1568 132.41C56.8878 131.466 56.6189 130.656 56.3499 129.982Z" fill="#D2DBDD" stroke="#416388" stroke-width="0.744" stroke-miterlimit="10"/>
<path d="M63.7453 106.374C64.2832 105.835 65.0901 105.43 66.0315 104.89C66.3005 104.755 66.7039 104.621 66.9729 104.486C67.3764 104.351 67.7798 104.351 68.1833 104.351L70.2006 104.89C71.0075 105.16 71.5455 105.835 71.5455 106.644L71.2765 114.064C71.2765 115.143 70.2006 115.952 69.1247 115.682L61.8624 113.929C61.0555 113.659 60.5176 112.984 60.5176 112.175V110.017C60.5176 109.612 60.6521 109.207 60.921 108.937C61.19 108.668 61.3245 108.398 61.5935 108.128C62.4004 107.453 63.0728 106.779 63.7453 106.374Z" fill="#D2DBDD" stroke="#416388" stroke-width="0.744" stroke-miterlimit="10"/>
<path d="M89.2983 106.509C89.9707 106.914 90.6431 107.588 91.3156 108.263C91.5845 108.533 91.719 108.802 91.988 109.072C92.257 109.342 92.3914 109.747 92.3914 110.151V112.31C92.3914 113.119 91.8535 113.794 91.0466 114.064L83.9188 115.952C82.8429 116.222 81.767 115.413 81.767 114.333L81.498 106.779C81.498 105.97 82.036 105.295 82.8429 105.025L84.8602 104.486C85.2637 104.351 85.6671 104.486 86.0706 104.621C86.3396 104.755 86.6085 104.89 87.012 105.025C87.9534 105.43 88.6258 105.97 89.2983 106.509Z" fill="#D2DBDD" stroke="#416388" stroke-width="0.744" stroke-miterlimit="10"/>
<path d="M96.8304 129.982C96.5614 130.656 96.2925 131.6 95.889 132.545C95.7545 132.815 95.62 133.219 95.3511 133.489C95.0821 133.894 94.8131 134.164 94.4096 134.298L92.3923 135.108C91.5854 135.378 90.7785 135.108 90.3751 134.433L86.3405 128.228C85.668 127.284 86.0715 126.07 87.1474 125.665L94.0062 123.102C94.8131 122.832 95.62 123.102 96.0235 123.776L97.2339 125.53C97.5028 125.8 97.5028 126.204 97.5028 126.609C97.5028 126.879 97.5028 127.284 97.3683 127.554C97.2339 128.363 96.9649 129.172 96.8304 129.982Z" fill="#D2DBDD" stroke="#416388" stroke-width="0.744" stroke-miterlimit="10"/>
</g>
<defs>
<clipPath id="clip0_1135_72940">
<rect width="381" height="155" fill="white" transform="translate(0 0.208008)"/>
</clipPath>
</defs>
</svg>
