<svg width="182" height="153" viewBox="0 0 182 153" fill="none" xmlns="http://www.w3.org/2000/svg">
<g opacity="0.5" clip-path="url(#clip0_1135_73032)">
<path d="M33.2812 132.031C33.2812 132.031 41.5938 127.054 49.102 127.054C56.6101 127.054 131.558 127.054 131.558 127.054C131.558 127.054 135.982 126.516 144.429 131.359C153.009 136.201 159.847 137.008 159.847 137.008L155.021 117.638L115.737 112.661L36.6331 114.679L33.2812 132.031Z" fill="#6C767A" stroke="#416388" stroke-width="0.744" stroke-linejoin="round"/>
<path d="M20.0078 52.3994C19.8737 52.3994 8.20924 52.3994 8.20924 52.3994C8.20924 52.3994 6.3322 56.3003 8.20924 61.2773H24.1641L20.0078 52.3994Z" fill="#FAFAFA" stroke="#416388" stroke-width="0.744" stroke-linejoin="round"/>
<path d="M158.373 52.3994C158.507 52.3994 173.523 52.3994 173.523 52.3994C173.523 52.3994 175.936 56.3003 173.523 61.2773H153.01L158.373 52.3994Z" fill="#FAFAFA" stroke="#416388" stroke-width="0.744" stroke-linejoin="round"/>
<path d="M16.7901 52.3993V47.9604C16.7901 47.9604 16.3879 46.3462 13.9745 46.4807H6.86861C6.86861 46.4807 1.37157 46.8843 0.701201 53.4754V58.3179C0.701201 58.3179 0.298978 61.1427 2.57824 61.2772H16.656V52.3993H16.7901Z" fill="#FAFAFA" stroke="#416388" stroke-width="0.744" stroke-linejoin="round"/>
<path d="M2.71151 59.1248C2.57743 59.1248 2.44336 59.1248 2.44336 58.9903C2.44336 58.8558 2.44336 58.7213 2.44336 58.7213V58.4523V53.6098C2.84558 49.1709 6.46558 48.7673 6.8678 48.6328H13.9737C14.1078 48.6328 14.1078 48.6328 14.2419 48.6328C14.51 48.6328 14.7782 48.6328 14.9122 48.7673V59.1248H2.71151Z" fill="#FAFAFA" stroke="#416388" stroke-width="0.744" stroke-linejoin="round"/>
<path d="M165.478 52.3993V47.9604C165.478 47.9604 165.746 46.3462 168.159 46.4807H174.863C174.863 46.4807 180.092 46.8843 180.628 53.4754V58.3179C180.628 58.3179 181.03 61.1427 178.751 61.2772H165.344V52.3993H165.478Z" fill="#FAFAFA" stroke="#416388" stroke-width="0.744" stroke-linejoin="round"/>
<path d="M167.088 59.1248V48.7673C167.222 48.7673 167.49 48.6328 167.758 48.6328C167.892 48.6328 167.892 48.6328 168.026 48.6328H168.16H174.864C175.4 48.6328 178.618 49.1709 179.155 53.6098V58.4523V58.7213C179.155 58.7213 179.155 58.8558 179.155 58.9903C179.155 58.9903 179.02 58.9903 178.886 59.1248H167.088Z" fill="#FAFAFA" stroke="#416388" stroke-width="0.744" stroke-linejoin="round"/>
<path d="M17.4609 81.4542V82.6648V144.944C17.4609 148.442 19.7402 151.267 22.6898 151.267H35.0246C37.8402 151.267 40.2535 148.442 40.2535 144.944V118.849L17.4609 81.4542Z" fill="#99A5A9" stroke="#416388" stroke-width="1.3165" stroke-linejoin="round"/>
<path d="M164.675 81.4542V82.6648V144.944C164.675 148.442 162.395 151.267 159.446 151.267H146.977C144.161 151.267 141.748 148.442 141.748 144.944V118.849L164.675 81.4542Z" fill="#99A5A9" stroke="#416388" stroke-width="1.3165" stroke-linejoin="round"/>
<path d="M90.5316 120.329C90.5316 120.329 156.094 121.136 161.055 120.329C166.015 119.522 169.635 107.55 171.11 103.918C172.451 100.286 172.719 80.2437 171.915 76.6119C171.11 72.8455 168.026 71.5004 168.026 71.5004C168.026 71.5004 168.026 66.5234 167.356 63.9676C166.82 61.4119 164.406 56.5694 164.406 56.5694C164.406 56.5694 161.457 51.8614 161.055 47.6915C160.652 43.6561 155.289 31.0119 155.289 31.0119C146.843 12.7181 140.675 7.60655 138.262 6.39593C135.983 5.18531 131.961 5.45434 131.961 5.45434L130.486 3.57115L120.832 3.30212L118.821 5.45434H90.5316H90.3975H61.8398L59.8286 3.30212L50.1753 3.57115L48.7005 5.45434C48.7005 5.45434 44.8123 5.18531 42.399 6.39593C40.1198 7.60655 33.8183 12.7181 25.5057 31.1464C25.5057 31.1464 20.1427 43.6561 19.7405 47.826C19.3383 51.8614 16.3886 56.7039 16.3886 56.7039C16.3886 56.7039 13.9753 61.4119 13.439 64.1021C13.0368 66.5234 12.9027 71.5004 12.9027 71.5004C12.9027 71.5004 9.81902 72.98 9.01457 76.6119C8.21013 80.2437 8.3442 100.421 9.81902 104.053C11.1598 107.684 14.9138 119.522 19.8746 120.463C24.8353 121.27 90.3975 120.463 90.3975 120.463" fill="#EAF5F9"/>
<path d="M90.5316 120.329C90.5316 120.329 156.094 121.136 161.055 120.329C166.015 119.522 169.635 107.55 171.11 103.918C172.451 100.286 172.719 80.2437 171.915 76.6119C171.11 72.8455 168.026 71.5004 168.026 71.5004C168.026 71.5004 168.026 66.5234 167.356 63.9676C166.82 61.4119 164.406 56.5694 164.406 56.5694C164.406 56.5694 161.457 51.8614 161.055 47.6915C160.652 43.6561 155.289 31.0119 155.289 31.0119C146.843 12.7181 140.675 7.60655 138.262 6.39593C135.983 5.18531 131.961 5.45434 131.961 5.45434L130.486 3.57115L120.832 3.30212L118.821 5.45434H90.5316H90.3975H61.8398L59.8286 3.30212L50.1753 3.57115L48.7005 5.45434C48.7005 5.45434 44.8123 5.18531 42.399 6.39593C40.1198 7.60655 33.8183 12.7181 25.5057 31.1464C25.5057 31.1464 20.1427 43.6561 19.7405 47.826C19.3383 51.8614 16.3886 56.7039 16.3886 56.7039C16.3886 56.7039 13.9753 61.4119 13.439 64.1021C13.0368 66.5234 12.9027 71.5004 12.9027 71.5004C12.9027 71.5004 9.81902 72.98 9.01457 76.6119C8.21013 80.2437 8.3442 100.421 9.81902 104.053C11.1598 107.684 14.9138 119.522 19.8746 120.463C24.8353 121.27 90.3975 120.463 90.3975 120.463" stroke="#416388" stroke-width="1.3165" stroke-linejoin="round"/>
<path d="M47.7609 15.2736H132.898L141.479 48.7674H38.5098L47.7609 15.2736Z" fill="#99A5A9" stroke="#416388" stroke-width="0.744" stroke-linejoin="round"/>
<path d="M110.508 79.9746H70.1518C68.0066 79.9746 66.2637 78.2259 66.2637 76.0737V67.5994H114.396V76.0737C114.396 78.2259 112.653 79.9746 110.508 79.9746Z" fill="#FAFAFA" stroke="#416388" stroke-width="0.744" stroke-linejoin="round"/>
<path d="M49.2368 0.746216H52.7227L39.9857 48.902L35.6953 48.7675L49.2368 0.746216Z" fill="#FAFAFA" stroke="#416388" stroke-width="0.744" stroke-linejoin="round"/>
<path d="M131.289 0.746216H127.938L140.675 48.902L144.831 48.7675L131.289 0.746216Z" fill="#FAFAFA" stroke="#416388" stroke-width="0.744" stroke-linejoin="round"/>
<path d="M36.3652 47.2879L143.759 47.0189C143.759 47.0189 146.172 48.095 146.44 49.8437C146.44 49.8437 151.267 54.1481 86.9111 52.3995C86.9111 52.3995 36.7674 52.3995 34.0859 50.1127C34.0859 50.1127 34.4882 47.557 36.3652 47.2879Z" fill="#FAFAFA" stroke="#416388" stroke-width="0.744" stroke-linejoin="round"/>
<path d="M49.6387 12.449H131.022" stroke="#416388" stroke-width="0.744" stroke-linejoin="round"/>
<path d="M35.695 12.449C35.695 12.449 37.7061 13.5251 37.572 15.2738C37.4379 17.1569 24.1646 49.3056 24.1646 49.3056C24.1646 49.3056 20.4105 51.7269 18.9357 50.9198C17.4609 50.1127 28.589 17.0224 35.695 12.449Z" fill="#99A5A9" stroke="#416388" stroke-width="0.744" stroke-linejoin="round"/>
<path d="M144.696 12.449C144.696 12.449 142.685 13.5251 142.819 15.2738C142.953 17.1569 156.226 49.3056 156.226 49.3056C156.226 49.3056 159.98 51.7269 161.455 50.9198C162.93 49.9782 151.936 17.0224 144.696 12.449Z" fill="#99A5A9" stroke="#416388" stroke-width="0.744" stroke-linejoin="round"/>
<path d="M13.8398 63.0258H167.489" stroke="#416388" stroke-width="0.744" stroke-linejoin="round"/>
<path d="M20.1412 63.0258L19.873 77.4187C19.873 77.4187 20.1412 79.0328 21.4819 79.5709L32.3419 79.8399L32.7442 63.0258H20.1412Z" fill="#99A5A9" stroke="#416388" stroke-width="0.744" stroke-linejoin="round"/>
<path d="M160.919 63.0258L161.188 77.4187C161.188 77.4187 160.919 79.0328 159.579 79.5709L148.719 79.8399L148.316 63.0258H160.919Z" fill="#99A5A9" stroke="#416388" stroke-width="0.744" stroke-linejoin="round"/>
<path d="M64.6554 63.0258L61.8398 68.0027L118.687 67.5992L116.006 63.0258H64.6554Z" fill="#FAFAFA" stroke="#416388" stroke-width="0.744" stroke-linejoin="round"/>
<path d="M34.4876 50.3817L32.7446 63.026L32.0742 87.1038C32.0742 87.1038 33.1468 91.2737 35.5601 95.3091C37.9735 99.3445 39.4483 101.631 39.4483 101.631" stroke="#416388" stroke-width="0.744" stroke-linejoin="round"/>
<path d="M146.306 50.3817L148.049 63.026L148.72 87.1038C148.72 87.1038 147.647 91.2737 145.234 95.3091C142.821 99.4791 141.346 101.631 141.346 101.631" stroke="#416388" stroke-width="0.744" stroke-linejoin="round"/>
<path d="M8.47656 86.5655C8.47656 86.5655 11.9625 83.6062 15.4484 83.6062C18.9343 83.6062 31.8055 83.6062 31.8055 83.6062" stroke="#416388" stroke-width="0.744" stroke-linejoin="round"/>
<path d="M172.45 86.5655C172.45 86.5655 168.964 83.6062 165.478 83.6062C161.992 83.6062 149.121 83.6062 149.121 83.6062" stroke="#416388" stroke-width="0.744" stroke-linejoin="round"/>
<path d="M10.2207 106.07C10.2207 106.07 23.2259 101.766 42.3985 101.766C61.5711 101.766 142.418 101.093 142.418 101.093C142.418 101.093 165.076 102.169 170.305 106.07" stroke="#416388" stroke-width="0.744" stroke-linejoin="round"/>
<path d="M131.423 120.732H49.1016C49.1016 113.469 55.0008 107.55 62.2408 107.55H118.284C125.524 107.55 131.423 113.469 131.423 120.732Z" stroke="#416388" stroke-width="0.744" stroke-linejoin="round"/>
<path d="M32.0742 87.1038H148.719" stroke="#416388" stroke-width="0.744" stroke-linejoin="round"/>
<path d="M8.47656 82.1267C8.47656 82.1267 9.68323 78.3603 20.141 78.6294" stroke="#416388" stroke-width="0.744" stroke-linejoin="round"/>
<path d="M172.45 82.1267C172.45 82.1267 171.243 78.3603 160.785 78.6294" stroke="#416388" stroke-width="0.744" stroke-linejoin="round"/>
</g>
<defs>
<clipPath id="clip0_1135_73032">
<rect width="181" height="152" fill="white" transform="translate(0.166016 0.208008)"/>
</clipPath>
</defs>
</svg>
