<svg width="176" height="154" viewBox="0 0 176 154" fill="none" xmlns="http://www.w3.org/2000/svg">
<g opacity="0.5" clip-path="url(#clip0_1135_72991)">
<path d="M18.857 55.4392V50.9829C18.857 50.9829 18.4558 49.3625 15.6473 49.4975H7.48926C7.48926 49.4975 1.20354 49.9026 0.534851 56.5196V61.381C0.534851 61.381 -0.000103801 64.2168 2.80841 64.3519H18.857V55.4392Z" fill="#99A5A9" stroke="#416388" stroke-width="0.744" stroke-linejoin="round"/>
<path d="M22.6022 55.4393C22.4685 55.4393 9.22837 55.4393 9.22837 55.4393C9.22837 55.4393 7.08856 59.3555 9.22837 64.3519H27.4168L22.6022 55.4393Z" fill="#FAFAFA" stroke="#416388" stroke-width="0.744" stroke-linejoin="round"/>
<path d="M159.148 55.4392V50.9829C159.148 50.9829 159.55 49.3625 161.957 49.4975H169.179C169.179 49.4975 174.796 49.9026 175.465 56.5196V61.381C175.465 61.381 175.999 64.2168 173.458 64.3519H159.148V55.4392Z" fill="#99A5A9" stroke="#416388" stroke-width="0.744" stroke-linejoin="round"/>
<path d="M155.805 55.4393C155.939 55.4393 167.841 55.4393 167.841 55.4393C167.841 55.4393 169.848 59.3555 167.841 64.3519H151.525L155.805 55.4393Z" fill="#FAFAFA" stroke="#416388" stroke-width="0.744" stroke-linejoin="round"/>
<path d="M146.978 118.098H31.6953V130.522H146.978V118.098Z" fill="#6C767A" stroke="#416388" stroke-width="0.744" stroke-linejoin="round"/>
<path d="M123.841 121.474H54.832V133.762H123.841V121.474Z" fill="#6C767A" stroke="#416388" stroke-width="0.744" stroke-linejoin="round"/>
<path d="M15.916 82.1771V83.3925V145.916C15.916 149.427 18.1896 152.263 21.1318 152.263H33.5695C36.378 152.263 38.7853 149.427 38.7853 145.916V123.634L15.916 82.1771Z" fill="#99A5A9" stroke="#416388" stroke-width="1.3165" stroke-linejoin="round"/>
<path d="M162.895 82.1771V83.3925V145.916C162.895 149.427 160.621 152.263 157.679 152.263H145.241C142.433 152.263 140.025 149.427 140.025 145.916V123.634L162.895 82.1771Z" fill="#99A5A9" stroke="#416388" stroke-width="1.3165" stroke-linejoin="round"/>
<path d="M89.4722 126.065C102.98 125.93 116.487 125.93 129.861 125.795C130.53 125.795 131.199 125.93 131.867 126.2L133.74 126.875C134.676 127.281 135.612 127.416 136.682 127.416H155.539C157.411 127.416 159.016 125.795 159.284 123.634C159.819 119.988 160.22 116.207 160.621 112.426C162.226 97.7068 163.028 83.6627 163.296 70.5639L159.685 59.7607C157.411 54.6292 155.138 49.3626 152.998 44.2311C151.393 37.8843 149.922 32.4827 148.718 27.6212C148.718 27.6212 148.183 25.3256 146.044 18.8437C145.642 17.7633 145.107 16.0078 143.904 13.8472C143.369 13.037 142.834 11.9566 142.031 11.0114C140.427 9.25584 138.287 6.01489 136.013 5.87985C129.728 5.47473 123.308 5.20465 116.889 4.93457C107.661 4.52945 98.5665 4.39441 89.606 4.39441C80.7792 4.52945 71.685 4.66449 62.3233 4.93457C55.7701 5.20465 49.4844 5.47473 43.1987 5.87985C40.9251 6.01489 38.7853 9.25584 37.1804 11.0114C36.378 11.9566 35.7093 13.037 35.3081 13.8472C34.1045 16.0078 33.4358 17.7633 33.1683 18.8437C31.0285 25.3256 30.4935 27.6212 30.4935 27.6212C29.2899 32.3476 27.8188 37.7492 26.2139 44.2311C23.9403 49.3626 21.6668 54.6292 19.527 59.7607L15.916 70.5639C16.1835 83.6627 16.9859 97.7068 18.5908 112.426C18.992 116.207 19.527 119.988 19.9282 123.634C20.1957 125.795 21.8005 127.416 23.6729 127.416H42.53C43.4662 127.416 44.5361 127.281 45.4722 126.875L47.3446 126.2C48.0133 125.93 48.682 125.795 49.3507 125.795C62.457 125.93 75.8309 126.065 89.4722 126.065Z" fill="#EAF5F9" stroke="#416388" stroke-width="1.3165" stroke-linejoin="round"/>
<path d="M89.605 53.1436C100.973 53.2786 112.608 53.6838 124.377 54.2239C130.529 54.494 136.547 54.8991 142.565 55.3042C145.508 55.5743 147.781 51.9282 146.979 48.2822C145.909 43.1507 144.705 37.7491 143.1 32.2125C141.763 27.6211 140.426 23.4349 139.088 19.5187C138.42 17.3581 136.948 16.0077 135.344 16.0077C129.994 15.7376 124.645 15.4675 119.161 15.3325C109.131 15.0624 99.2342 14.3872 89.605 14.3872C79.9758 14.3872 70.0792 15.0624 60.0488 15.3325C54.5655 15.4675 49.216 15.7376 43.8664 16.0077C42.2615 16.1427 40.7904 17.4931 40.1217 19.5187C38.7843 23.4349 37.447 27.6211 36.1096 32.2125C34.5047 37.8841 33.3011 43.2857 32.2312 48.2822C31.4287 51.9282 33.7023 55.4393 36.6445 55.3042C42.6628 54.8991 48.681 54.494 54.833 54.2239C66.602 53.6838 78.2372 53.2786 89.605 53.1436Z" fill="#FAFAFA" stroke="#416388" stroke-width="0.744" stroke-linejoin="round"/>
<path d="M161.691 102.838C160.888 106.079 159.818 109.59 158.481 113.236C157.812 115.127 157.01 117.017 156.341 118.773C155.271 121.204 153.265 122.689 150.992 122.689L89.6056 123.634L28.0858 122.689C25.8123 122.689 23.6724 121.204 22.7363 118.773C21.9338 117.017 21.2651 115.262 20.5964 113.236C19.2591 109.455 18.1892 105.944 17.3867 102.838" stroke="#416388" stroke-width="0.744" stroke-linejoin="round"/>
<path d="M50.8201 0.748291C50.8201 0.748291 47.3429 2.23373 46.4068 4.93452C45.4706 7.63532 45.2031 16.0078 45.2031 16.0078L48.4129 15.7377C48.4129 15.7377 49.2153 13.0369 49.349 12.2267C49.4828 11.2814 49.884 7.50028 50.8201 6.555C51.6226 5.60972 52.96 5.2046 53.0937 4.93452C53.0937 4.79948 54.4311 1.01837 50.8201 0.748291Z" fill="#FAFAFA" stroke="#416388" stroke-width="0.744" stroke-linejoin="round"/>
<path d="M45.2031 13.4421H48.9478" stroke="#416388" stroke-width="0.744" stroke-linejoin="round"/>
<path d="M128.121 0.748291C128.121 0.748291 131.598 2.23373 132.535 4.93452C133.471 7.63532 133.738 16.0078 133.738 16.0078L130.528 15.7377C130.528 15.7377 129.726 13.0369 129.592 12.2267C129.459 11.4164 128.924 7.63532 128.121 6.69004C127.319 5.74476 125.981 5.33964 125.848 5.06956C125.714 4.79948 124.51 1.01837 128.121 0.748291Z" fill="#FAFAFA" stroke="#416388" stroke-width="0.744" stroke-linejoin="round"/>
<path d="M133.738 13.4421H129.859" stroke="#416388" stroke-width="0.744" stroke-linejoin="round"/>
<path d="M82.1153 16.953L84.6564 19.9239C84.9238 20.194 85.3251 20.464 85.7263 20.464H93.2156C93.6169 20.464 94.0181 20.329 94.2855 19.9239L96.8266 17.088V16.953C100.438 17.088 104.985 17.2231 108.863 17.3581C112.34 17.4932 115.817 17.6282 119.295 17.7632C124.644 17.8983 129.994 18.1684 135.343 18.4384C136.012 18.4384 136.814 19.2487 137.216 20.464C138.687 24.5152 139.89 28.7015 141.094 33.0227C142.565 38.1542 143.769 43.5558 144.972 48.9574C145.24 50.0377 144.972 51.2531 144.438 52.0633C144.17 52.4685 143.635 53.0086 142.966 53.0086H142.833C136.814 52.6035 130.662 52.1984 124.644 51.9283C113.143 51.3881 101.374 50.983 89.8722 50.848C78.2369 50.983 66.6017 51.3881 54.9664 51.9283C48.9482 52.1984 42.7962 52.6035 36.778 53.0086H36.6442C35.8418 53.0086 35.3068 52.4685 35.1731 52.0633C34.6381 51.2531 34.3707 50.0377 34.6381 48.9574C35.708 43.5558 37.0454 38.1542 38.5166 33.0227C39.7202 28.8365 41.0576 24.6503 42.395 20.464C42.7962 19.2487 43.5986 18.4384 44.2673 18.4384C49.6169 18.1684 54.9664 17.8983 60.3159 17.7632C63.7931 17.6282 67.2704 17.4932 70.7476 17.3581C74.091 17.2231 78.5044 17.088 82.1153 16.953Z" fill="#99A5A9" stroke="#416388" stroke-width="0.744" stroke-linejoin="round"/>
<path d="M17.252 103.649C17.252 103.649 84.3887 108.645 161.556 103.649" stroke="#416388" stroke-width="0.744" stroke-linejoin="round"/>
<path d="M15.916 89.1993C15.916 89.1993 84.1227 94.1958 162.627 89.1993" stroke="#416388" stroke-width="0.744" stroke-linejoin="round"/>
<path d="M50.4188 125.66C50.4188 125.66 49.8838 105.539 60.1817 104.729H119.428C119.428 104.729 125.312 105.674 127.051 111.481C128.79 117.288 128.923 125.795 128.923 125.795C128.923 125.795 79.3063 129.576 50.4188 125.66Z" fill="#99A5A9" stroke="#416388" stroke-width="0.744" stroke-linejoin="round"/>
<path d="M117.155 121.744H61.6535C60.4498 121.744 59.5137 120.799 59.5137 119.583V114.722V112.831C59.5137 111.616 60.4498 110.671 61.6535 110.671H117.155C118.359 110.671 119.295 111.616 119.295 112.831V119.448C119.295 120.799 118.225 121.744 117.155 121.744Z" fill="#FAFAFA" stroke="#416388" stroke-width="0.744" stroke-linejoin="round"/>
<path d="M119.295 114.857H59.5137" stroke="#416388" stroke-width="0.744" stroke-linejoin="round"/>
<path d="M119.295 118.503H59.5137" stroke="#416388" stroke-width="0.744" stroke-linejoin="round"/>
<path d="M114.08 104.999H61.7878C61.3866 104.999 61.1191 104.729 61.1191 104.459V96.6265V95.1411C61.1191 94.871 61.3866 94.601 61.7878 94.601H114.08C114.481 94.601 114.748 94.871 114.748 95.1411V104.459C114.748 104.864 114.481 104.999 114.08 104.999Z" fill="#FAFAFA" stroke="#416388" stroke-width="0.744" stroke-linejoin="round"/>
<path d="M22.1992 74.75C22.1992 74.75 23.2691 69.0783 26.8801 68.6732C30.491 68.2681 50.953 68.2681 50.953 68.2681L54.8314 70.4287H63.257V83.9327L61.7858 87.3087L55.6339 87.0386L54.4302 83.2575L24.7403 82.8524C24.874 82.8524 22.333 76.6405 22.1992 74.75Z" fill="#FAFAFA" stroke="#416388" stroke-width="0.744" stroke-linejoin="round"/>
<path d="M30.4915 82.9874L26.8806 68.8083C26.8806 68.8083 18.1876 62.8665 21.531 55.4393" fill="#FAFAFA"/>
<path d="M30.4915 82.9874L26.8806 68.8083C26.8806 68.8083 18.1876 62.8665 21.531 55.4393" stroke="#416388" stroke-width="0.744" stroke-linejoin="round"/>
<path d="M54.8319 70.4286L54.5645 83.2574" stroke="#416388" stroke-width="0.744" stroke-linejoin="round"/>
<path d="M156.607 74.75C156.607 74.75 155.538 69.0783 151.927 68.6732C148.316 68.2681 127.854 68.2681 127.854 68.2681L123.842 70.4287H115.416V83.9327L116.887 87.3087L123.039 87.0386L124.243 83.2575L153.933 82.8524C153.933 82.8524 156.474 76.6405 156.607 74.75Z" fill="#FAFAFA" stroke="#416388" stroke-width="0.744" stroke-linejoin="round"/>
<path d="M148.316 82.9874L151.927 68.8083C151.927 68.8083 160.62 62.8665 157.277 55.4393" fill="#FAFAFA"/>
<path d="M148.316 82.9874L151.927 68.8083C151.927 68.8083 160.62 62.8665 157.277 55.4393" stroke="#416388" stroke-width="0.744" stroke-linejoin="round"/>
<path d="M123.842 70.4286L124.243 83.2574" stroke="#416388" stroke-width="0.744" stroke-linejoin="round"/>
<path d="M114.881 84.3377H63.6589C63.2577 84.3377 62.9902 84.0676 62.9902 83.6625V72.9943V71.1038C62.9902 70.6987 63.2577 70.4286 63.6589 70.4286H114.881C115.282 70.4286 115.55 70.6987 115.55 71.1038V83.7975C115.416 84.0676 115.148 84.3377 114.881 84.3377Z" fill="#99A5A9" stroke="#416388" stroke-width="0.744" stroke-linejoin="round"/>
<path d="M115.416 73.2646H62.9902" stroke="#416388" stroke-width="0.744" stroke-linejoin="round"/>
<path d="M115.416 75.9655H62.9902" stroke="#416388" stroke-width="0.744" stroke-linejoin="round"/>
<path d="M115.416 78.6663H62.9902" stroke="#416388" stroke-width="0.744" stroke-linejoin="round"/>
<path d="M115.416 81.3671H62.9902" stroke="#416388" stroke-width="0.744" stroke-linejoin="round"/>
<path d="M50.9546 68.2681L47.0762 54.7642" stroke="#416388" stroke-width="0.744" stroke-linejoin="round"/>
<path d="M127.854 68.2681L129.86 54.7642" stroke="#416388" stroke-width="0.744" stroke-linejoin="round"/>
</g>
<defs>
<clipPath id="clip0_1135_72991">
<rect width="176" height="153" fill="white" transform="translate(0 0.208008)"/>
</clipPath>
</defs>
</svg>
