<svg width="10" height="12" viewBox="0 0 10 12" fill="none" xmlns="http://www.w3.org/2000/svg">
<path d="M3.81904 5.64813C3.61806 5.44714 3.31657 5.44714 3.11559 5.64813C2.9146 5.84912 2.9146 6.1506 3.11559 6.35159L4.623 7.859C4.72349 7.9595 4.82399 8.00974 4.97473 8.00974C5.12547 8.00974 5.22596 7.9595 5.32646 7.859L8.84376 3.83923C8.9945 3.63824 8.9945 3.28651 8.74326 3.13577C8.54227 2.98503 8.24079 2.98503 8.09005 3.18602L4.97473 6.75356L3.81904 5.64813Z" fill="#FDFDFD"/>
<path d="M9.49753 5.49734C9.19605 5.49734 8.99506 5.69833 8.99506 5.99981C8.99506 8.21068 7.18616 10.0196 4.97529 10.0196C2.76441 10.0196 0.955517 8.21068 0.955517 5.99981C0.955517 4.94462 1.35749 3.93968 2.1112 3.18597C2.86491 2.38202 3.9201 1.98004 4.97529 1.98004C5.27677 1.98004 5.6285 2.03029 5.92998 2.08053C6.18122 2.18103 6.4827 2.03029 6.5832 1.7288C6.68369 1.42732 6.4827 1.22633 6.23147 1.12584H6.18122C5.77924 1.02534 5.37726 0.975098 4.97529 0.975098C2.2117 0.975098 -0.0494255 3.23622 0.000821585 6.05006C0.000821585 7.35648 0.55354 8.66291 1.45799 9.56736C2.41268 10.5221 3.66886 11.0245 4.97529 11.0245C7.73888 11.0245 10 8.7634 10 5.99981C10 5.69833 9.79901 5.49734 9.49753 5.49734Z" fill="#FDFDFD"/>
</svg>
