<svg width="23" height="23" viewBox="0 0 23 23" fill="none" xmlns="http://www.w3.org/2000/svg">
<g clip-path="url(#clip0_580_85832)">
<path d="M22.8681 8.39815C22.8128 8.33048 22.7432 8.2759 22.6643 8.23832C22.5854 8.20075 22.4991 8.18112 22.4117 8.18085H20.1733C19.6209 6.72387 18.9012 5.29635 18.0832 4.75749C15.2535 2.89594 7.74779 2.89594 4.91806 4.75749C4.09947 5.29694 3.38276 6.72623 2.82742 8.18085H0.58896C0.501502 8.18079 0.415136 8.20027 0.336172 8.23787C0.257208 8.27547 0.187641 8.33023 0.132552 8.39815C0.0771281 8.46586 0.0375695 8.54512 0.0167803 8.63011C-0.00400889 8.7151 -0.00550085 8.80367 0.0124139 8.88931L0.343972 10.4959C0.371461 10.6285 0.443805 10.7475 0.54882 10.833C0.653835 10.9185 0.785104 10.9652 0.920518 10.9652H1.58363C0.943486 11.7037 0.633128 12.6336 0.629006 13.5641C0.624884 14.7137 1.06127 15.7525 1.85925 16.4875C1.86808 16.4951 1.87691 16.5004 1.88516 16.5081V18.756C1.88516 19.243 2.28091 19.6393 2.76853 19.6393H4.83326C5.32088 19.6393 5.71663 19.243 5.71663 18.756V17.8526H17.2835V18.756C17.2835 19.243 17.6792 19.6393 18.1668 19.6393H20.2316C20.718 19.6393 21.1149 19.243 21.1149 18.756V16.5522C21.9618 15.7766 22.3664 14.7095 22.3717 13.6442C22.3752 12.6819 22.0507 11.7179 21.3729 10.964H22.0802C22.2158 10.9644 22.3473 10.9178 22.4525 10.8321C22.5576 10.7465 22.6298 10.627 22.6567 10.4941L22.9889 8.88813C23.006 8.80261 23.004 8.71436 22.9832 8.62968C22.9623 8.54499 22.923 8.46594 22.8681 8.39815ZM5.888 6.23272C8.14354 4.74807 14.8566 4.74807 17.1109 6.23272C17.5491 6.52011 18.1127 7.68204 18.6291 9.10485H4.37096C4.88626 7.68263 5.44985 6.52129 5.888 6.23272ZM3.24614 13.7855C3.24621 13.3247 3.42936 12.8828 3.75527 12.557C4.08119 12.2312 4.52318 12.0482 4.98402 12.0482C5.44486 12.0483 5.88679 12.2315 6.21259 12.5574C6.5384 12.8833 6.72139 13.3253 6.72131 13.7861C6.72127 14.0143 6.67629 14.2402 6.58893 14.451C6.50158 14.6618 6.37355 14.8534 6.21218 15.0147C6.0508 15.176 5.85923 15.304 5.6484 15.3913C5.43757 15.4785 5.21161 15.5235 4.98343 15.5234C4.75525 15.5234 4.52931 15.4784 4.31851 15.391C4.10771 15.3037 3.91618 15.1757 3.75486 15.0143C3.42905 14.6884 3.24606 14.2464 3.24614 13.7855ZM18.039 15.5234C17.5781 15.5234 17.1359 15.3403 16.81 15.0143C16.484 14.6883 16.3009 14.2462 16.3009 13.7852C16.3009 13.3242 16.484 12.8821 16.81 12.5562C17.1359 12.2302 17.5781 12.0471 18.039 12.0471C18.5 12.0471 18.9422 12.2302 19.2681 12.5562C19.5941 12.8821 19.7772 13.3242 19.7772 13.7852C19.7772 14.2462 19.5941 14.6883 19.2681 15.0143C18.9422 15.3403 18.5 15.5234 18.039 15.5234Z" fill="#FDFDFD"/>
</g>
<defs>
<clipPath id="clip0_580_85832">
<rect width="23" height="23" fill="white"/>
</clipPath>
</defs>
</svg>
