<svg width="17" height="16" viewBox="0 0 17 16" fill="none" xmlns="http://www.w3.org/2000/svg">
<g clip-path="url(#clip0_175_25786)">
<path d="M6.63966 9.7765C5.50781 9.31372 4.56616 8.49463 3.94481 7.41847C3.74296 7.0692 3.57946 6.69913 3.45716 6.31472C1.86184 7.04087 0.75 8.65 0.75 10.5141C0.75 13.0566 2.81847 15.1251 5.36109 15.1251C6.36303 15.1251 7.29125 14.8037 8.04847 14.2587C7.14356 13.2711 6.59047 11.956 6.59047 10.5141C6.59047 10.264 6.60741 10.0178 6.63966 9.77647V9.7765ZM8.75 6.12403C9.68812 5.39819 10.8639 4.96559 12.1389 4.96559C12.5502 4.96559 12.9511 5.011 13.337 5.09631C13.4297 4.16894 13.2438 3.20556 12.7433 2.33875C12.1274 1.27209 11.1332 0.509156 9.94347 0.190313C9.54628 0.083875 9.14306 0.03125 8.74253 0.03125C7.94347 0.03125 7.15503 0.240719 6.44447 0.651C5.37781 1.26684 4.61487 2.26122 4.29616 3.45094C4.15003 3.99584 4.10559 4.552 4.15906 5.09719C4.55375 5.00967 4.95682 4.96553 5.36109 4.96556C6.63609 4.96556 7.81187 5.39822 8.75 6.12403ZM4.75672 6.94984C5.24547 7.79641 5.97291 8.45141 6.84703 8.84509C7.09363 8.06494 7.50828 7.35888 8.04847 6.76941C7.29128 6.2245 6.36303 5.90297 5.36109 5.90297C5.01234 5.90297 4.67272 5.94212 4.34594 6.01587C4.44822 6.34131 4.58597 6.65452 4.75672 6.94984ZM16.75 10.5142C16.75 8.64844 15.6363 7.03809 14.0387 6.31287C13.6361 7.59106 12.7736 8.72816 11.5243 9.44944C11.3086 9.57397 11.0868 9.68297 10.8605 9.77662C10.8931 10.0211 10.9095 10.2675 10.9095 10.5142C10.9095 11.956 10.3566 13.2711 9.45153 14.2588C10.2087 14.8037 11.137 15.1251 12.1389 15.1251C14.6815 15.1251 16.75 13.0567 16.75 10.5142V10.5142ZM9.95006 10.0636C9.55906 10.1509 9.15966 10.195 8.75903 10.1952C8.35622 10.1952 7.95141 10.1503 7.55016 10.0609C7.53553 10.2101 7.52797 10.3612 7.52797 10.5142C7.52797 11.7179 7.99181 12.8153 8.75 13.6373C9.50819 12.8153 9.97203 11.7179 9.97203 10.5142C9.97203 10.3621 9.96447 10.2118 9.95006 10.0636ZM13.15 6.015C12.8181 5.94049 12.479 5.90295 12.1389 5.90306C11.137 5.90306 10.2087 6.2245 9.45153 6.76941C9.99156 7.35878 10.4062 8.06481 10.6528 8.84484C10.7903 8.78219 10.9247 8.71298 11.0555 8.63744C12.0989 8.03516 12.8176 7.08362 13.15 6.015H13.15ZM7.73622 9.14219C8.41284 9.29541 9.10278 9.29431 9.76441 9.14428C9.55859 8.48413 9.20788 7.88734 8.75 7.39084C8.29259 7.88684 7.94213 8.48291 7.73622 9.14222V9.14219Z" fill="white"/>
</g>
<defs>
<clipPath id="clip0_175_25786">
<rect width="16" height="16" fill="white" transform="translate(0.75)"/>
</clipPath>
</defs>
</svg>
