<svg width="16" height="14" viewBox="0 0 16 14" fill="none" xmlns="http://www.w3.org/2000/svg">
<g id="Group">
<path id="Vector" d="M15.5294 12.6471C15.7893 12.6471 16 12.8577 16 13.1177C16 13.3776 15.7893 13.5882 15.5294 13.5882H0.470594C0.210687 13.5882 0 13.3775 0 13.1177C0 12.8577 0.210687 12.6471 0.470594 12.6471H15.5294ZM2.35294 4.17646H6.58822C6.84812 4.17646 7.05881 4.38715 7.05881 4.64706V11.7059H1.88234V4.64706C1.88234 4.38715 2.09303 4.17646 2.35294 4.17646ZM9.41175 0.411743H13.647C13.9069 0.411743 14.1176 0.622431 14.1176 0.882337V11.7059H8.94119V0.882337C8.94119 0.622462 9.15187 0.411743 9.41175 0.411743Z" fill="white"/>
</g>
</svg>
