<svg width="21" height="21" viewBox="0 0 21 21" fill="none" xmlns="http://www.w3.org/2000/svg">
<g clip-path="url(#clip0_338_84067)">
<path d="M10.5 0C4.71007 0 0 4.71007 0 10.5C0 16.2899 4.71007 21 10.5 21C16.2899 21 21 16.2899 21 10.5C21 4.71007 16.2899 0 10.5 0ZM15.4937 15.931C15.323 16.1017 15.099 16.1876 14.8751 16.1876C14.6511 16.1876 14.4269 16.1017 14.2565 15.931L9.8814 11.5562C9.71686 11.3926 9.62505 11.1702 9.62505 10.9376V5.25C9.62505 4.76614 10.0169 4.37505 10.5 4.37505C10.9831 4.37505 11.3749 4.76614 11.3749 5.25V10.5753L15.4937 14.6938C15.8357 15.0361 15.8357 15.589 15.4937 15.931Z" fill="#FDFDFD"/>
</g>
<defs>
<clipPath id="clip0_338_84067">
<rect width="21" height="21" fill="white"/>
</clipPath>
</defs>
</svg>
