<svg width="21" height="21" viewBox="0 0 21 21" fill="none" xmlns="http://www.w3.org/2000/svg">
<path d="M19.5741 16.0281L16.6398 13.0869C16.0554 12.5034 15.0875 12.5212 14.4827 13.1276L13.0044 14.6089C12.911 14.5573 12.8143 14.5034 12.7127 14.4462C11.7792 13.9278 10.5015 13.2172 9.15698 11.8687C7.80849 10.5173 7.09888 9.23477 6.58004 8.29853C6.52529 8.19934 6.47283 8.10371 6.42103 8.01289L7.41318 7.01997L7.90096 6.53048C8.5067 5.92321 8.5234 4.95343 7.94032 4.36831L5.00606 1.42676C4.42298 0.842459 3.45468 0.860185 2.84895 1.46746L2.02197 2.30107L2.04457 2.32355C1.76728 2.67818 1.53556 3.08718 1.36312 3.52825C1.20417 3.94809 1.10521 4.34873 1.05995 4.75019C0.672505 7.9695 2.14031 10.9117 6.12376 14.9042C11.6301 20.4227 16.0675 20.0058 16.2589 19.9854C16.6758 19.9355 17.0754 19.8356 17.4815 19.6776C17.9177 19.5068 18.3255 19.2749 18.6791 18.9975L18.6972 19.0136L19.535 18.1914C20.1395 17.5842 20.1569 16.6141 19.5741 16.0281Z" fill="#FDFDFD"/>
</svg>
