<svg width="21" height="21" viewBox="0 0 21 21" fill="none" xmlns="http://www.w3.org/2000/svg">
<path d="M10.875 0C6.5327 0 3 3.41177 3 7.60537C3 12.8098 10.0474 20.4501 10.3474 20.7728C10.6292 21.076 11.1213 21.0755 11.4026 20.7728C11.7026 20.4501 18.75 12.8098 18.75 7.60537C18.7499 3.41177 15.2173 0 10.875 0ZM10.875 11.4318C8.69028 11.4318 6.91293 9.7153 6.91293 7.60537C6.91293 5.49544 8.69032 3.77894 10.875 3.77894C13.0597 3.77894 14.837 5.49548 14.837 7.60541C14.837 9.71534 13.0597 11.4318 10.875 11.4318Z" fill="#FDFDFD"/>
</svg>
