<svg width="25" height="41" viewBox="0 0 25 41" fill="none" xmlns="http://www.w3.org/2000/svg">
<path fill-rule="evenodd" clip-rule="evenodd" d="M10.1837 3.46368C10.1837 2.04281 11.3236 0.875 12.7495 0.875H21.223C22.6488 0.875 23.7888 2.04281 23.7888 3.46368V12.6217C23.7893 12.6335 23.7896 12.6454 23.7896 12.6573C23.7896 12.6692 23.7893 12.6811 23.7888 12.6929V35.2053C24.0979 35.2385 24.3868 35.3777 24.6064 35.6001C24.8595 35.8564 25 36.202 25 36.5605V39.625C25 40.0392 24.6642 40.375 24.25 40.375H9.72394C9.30973 40.375 8.97394 40.0392 8.97394 39.625V36.5605C8.97394 36.202 9.11446 35.8564 9.36756 35.6001C9.587 35.3779 9.87567 35.2387 10.1845 35.2053V19.5364H9.11862C8.75612 19.5364 8.41041 19.3905 8.157 19.1339C7.9039 18.8776 7.76338 18.5319 7.76338 18.1735V17.8785C7.21966 18.1569 6.84217 18.7292 6.84217 19.3992V29.2057C6.84217 30.6265 5.70217 31.7944 4.27637 31.7944C2.85047 31.7944 1.71056 30.6265 1.71056 29.2057V9.71422C1.40906 9.6689 1.12891 9.5269 0.912751 9.30801C0.647406 9.03931 0.5 8.67686 0.5 8.30087V4.07669C0.5 3.66247 0.835786 3.32669 1.25 3.32669C1.66421 3.32669 2 3.66247 2 4.07669V5.16535H2.92105V4.07669C2.92105 3.66247 3.25683 3.32669 3.67105 3.32669C4.08526 3.32669 4.42105 3.66247 4.42105 4.07669V8.30087C4.42105 8.67686 4.27364 9.03931 4.0083 9.30801C3.79216 9.52688 3.51203 9.66887 3.21056 9.7142V29.2057C3.21056 29.8158 3.69656 30.2944 4.27637 30.2944C4.85612 30.2944 5.34217 29.8158 5.34217 29.2057V19.3992C5.34217 17.8983 6.3689 16.6282 7.76338 16.2874V15.7218C7.76338 15.3634 7.9039 15.0178 8.157 14.7615C8.41041 14.5049 8.75612 14.359 9.11862 14.359H10.1845V6.52791C10.1845 6.11369 10.5203 5.77791 10.9345 5.77791C11.3487 5.77791 11.6845 6.11369 11.6845 6.52791V11.9073H22.2888V3.46368C22.2888 2.8535 21.8028 2.375 21.223 2.375H12.7495C12.1697 2.375 11.6837 2.8535 11.6837 3.46368V4.07657C11.6837 4.49079 11.3479 4.82657 10.9337 4.82657C10.5195 4.82657 10.1837 4.49079 10.1837 4.07657V3.46368ZM22.2888 13.4073H11.6845V35.1976H22.2888V13.4073ZM10.1845 15.859H9.26338V18.0364H10.1845V15.859ZM2.46766 8.2299H2.92105V6.66535H2V8.2299H2.45346C2.45583 8.22988 2.45819 8.22987 2.46056 8.22987C2.46293 8.22987 2.4653 8.22988 2.46766 8.2299ZM12.6048 4.07666C12.6048 3.66244 12.9406 3.32666 13.3548 3.32666H20.6178C21.032 3.32666 21.3678 3.66244 21.3678 4.07666V10.2057C21.3678 10.6199 21.032 10.9557 20.6178 10.9557H13.3548C12.9406 10.9557 12.6048 10.6199 12.6048 10.2057V4.07666ZM14.1048 4.82666V9.45566H19.8678V4.82666H14.1048ZM13.8176 16.8949C13.8453 16.5021 14.172 16.1977 14.5657 16.1977H19.4078C19.6444 16.1977 19.8671 16.3093 20.0087 16.4989C20.1503 16.6885 20.1941 16.9338 20.1269 17.1607L19.0374 20.8382C18.9198 21.2354 18.5024 21.4619 18.1053 21.3443C17.7081 21.2266 17.4815 20.8093 17.5992 20.4121L18.4034 17.6977H15.2647L14.7653 24.7782H16.3815C16.5933 24.7782 16.7951 24.8677 16.9373 25.0246C17.0795 25.1815 17.1487 25.3912 17.1279 25.6019L16.8725 28.1887L19.3339 23.8267H17.592C17.1778 23.8267 16.842 23.4909 16.842 23.0767C16.842 22.6625 17.1778 22.3267 17.592 22.3267H20.6183C20.885 22.3267 21.1315 22.4682 21.266 22.6985C21.4004 22.9287 21.4025 23.213 21.2715 23.4453L16.4295 32.0259C16.2552 32.3347 15.8884 32.4793 15.5503 32.3725C15.2122 32.2656 14.9951 31.9365 15.0299 31.5836L15.5538 26.2782H13.9605C13.7524 26.2782 13.5537 26.1918 13.4118 26.0396C13.27 25.8873 13.1977 25.683 13.2124 25.4755L13.8176 16.8949ZM10.4739 36.6976V38.875H23.5V36.6976H10.4739Z" fill="#BED0E8"/>
</svg>
