<svg width="23" height="23" viewBox="0 0 23 23" fill="none" xmlns="http://www.w3.org/2000/svg">
<path d="M14.8192 19.4802C14.8192 20.318 15.4223 21 16.1636 21H17.2216C17.9628 21 18.5661 20.3182 18.5661 19.4802V14.9007C18.5661 14.063 17.963 13.3814 17.2216 13.3814H16.1636C15.4225 13.3814 14.8192 14.0627 14.8192 14.9007V16.6639H11.8794V13.9601C12.5616 13.7321 13.0608 13.0189 13.0608 12.1754C13.0608 11.3319 12.5616 10.6188 11.8794 10.3913V7.76425H14.7751L14.4181 9.54887C14.2553 10.3662 14.711 11.181 15.4339 11.3646L16.4655 11.6282C16.5638 11.653 16.6638 11.6659 16.7636 11.6659C17.3957 11.6659 17.9347 11.1786 18.0735 10.481L18.967 6.0132C19.1298 5.19671 18.6741 4.3824 17.9514 4.19786L16.9192 3.93433C16.8217 3.90997 16.7219 3.89703 16.6226 3.89703C15.9997 3.89703 15.4485 4.39535 15.3119 5.08151L14.986 6.71099H8.263L8.58174 5.11618C8.74412 4.30012 8.28883 3.48538 7.56609 3.3004L6.53413 3.0373C6.43662 3.01251 6.33678 3 6.23753 3C5.60472 3 5.06572 3.48735 4.92645 4.18448L4.03298 8.65228C3.87021 9.46877 4.32588 10.2835 5.04882 10.4681L6.08078 10.7307C6.17868 10.7559 6.2789 10.7685 6.37854 10.7685C7.01058 10.7685 7.54919 10.2811 7.68807 9.58397L8.05226 7.76425H10.9467V10.3915C10.2646 10.619 9.76501 11.3322 9.76501 12.1757C9.76501 13.0191 10.2646 13.7323 10.9467 13.9603V16.6641H8.18142V14.901C8.18142 14.0632 7.57833 13.3816 6.83655 13.3816H5.77856C5.03697 13.3816 4.43368 14.063 4.43368 14.901V19.4802C4.43368 20.318 5.03678 21 5.77856 21H6.83655C7.57813 21 8.18142 20.3182 8.18142 19.4802V17.7176H14.8192V19.4802ZM10.6977 12.1757C10.6977 11.73 11.0186 11.3677 11.4133 11.3677C11.808 11.3677 12.1284 11.7298 12.1284 12.1757C12.1284 12.6215 11.808 12.984 11.4133 12.984C11.0186 12.984 10.6977 12.6213 10.6977 12.1757Z" fill="white"/>
</svg>
