<svg width="24" height="24" viewBox="0 0 64 64" xmlns="http://www.w3.org/2000/svg"><path d="M60.25 22.625H56.5V15H41.375v-3.75h3.75V0h-26.25v11.25h3.75V15H7.5v11.375H3.75v-3.75H0V41.5h3.75v-3.75H7.5V49h7.625v1.875a1.877 1.877 0 0 1-1.875 1.875c-5.17 0-9.375 4.206-9.375 9.375V64H35.75c7.237 0 13.125-5.888 13.125-13.125V49H56.5v-7.5h3.75v3.75H64V18.875h-3.75v3.75zM22.625 3.75h18.75V7.5h-18.75V3.75zm3.75 7.5h11.25V15h-11.25v-3.75zM3.75 34v-3.875H7.5V34H3.75zm4.196 26.25a5.635 5.635 0 0 1 5.304-3.75 5.631 5.631 0 0 0 5.625-5.625V49h3.75v1.875c0 5.17-4.206 9.375-9.375 9.375H7.946zm22.166-.187a13.08 13.08 0 0 0 3.763-9.188V49h3.75v1.875c0 4.532-3.232 8.322-7.513 9.188zm.013-9.188c0 4.532-3.232 8.322-7.513 9.188a13.08 13.08 0 0 0 3.763-9.188V49h3.75v1.875zm15 0c0 4.532-3.232 8.322-7.513 9.188a13.08 13.08 0 0 0 3.763-9.188V49h3.75v1.875zm7.625-5.625h-41.5v-26.5h41.5v26.5zm3.75-7.5V26.375h3.75V37.75H56.5z"/><path d="M18.875 37.75h3.75v3.75h-3.75zm11.25 0h3.75v3.75h-3.75zm11.25 0h3.75v3.75h-3.75zm-26.25-15.125h33.75v3.75h-33.75z"/></svg>