<svg width="24" height="24" viewBox="0 0 64 64" xmlns="http://www.w3.org/2000/svg"><path d="M30 7.5H11.25v15.125H30V7.5zm-3.75 11.375H15V11.25h11.25v7.625zm-15 15H15v3.75h-3.75zm7.5 0h3.75v3.75h-3.75zm7.5 0H30v3.75h-3.75z"/><path d="M52.5 47.125v-35.75H41.25v3.75h7.5v3.75h-7.5v11.25h7.5v17A1.877 1.877 0 0 1 46.875 49 1.877 1.877 0 0 1 45 47.125V39.5a5.631 5.631 0 0 0-5.625-5.625H37.5V0H3.75v52.75H0V64h41.25V52.75H37.5V37.625h1.875c1.034 0 1.875.841 1.875 1.875v7.625a5.631 5.631 0 0 0 5.625 5.625 5.631 5.631 0 0 0 5.625-5.625zm-7.5-24.5h3.75v3.75H45v-3.75zM33.75 3.75v22.625H7.5V3.75h26.25zm3.75 56.5H3.75V56.5H37.5v3.75zm-30-7.5V30.125h26.25V52.75H7.5z"/></svg>