<svg width="23" height="23" viewBox="0 0 23 23" fill="none" xmlns="http://www.w3.org/2000/svg">
<path d="M5 5.22758C5 4.54913 5.45917 4 6.02433 4C6.59046 4 7.04931 4.54952 7.04931 5.22758V10.7722H10.975V5.22758C10.975 4.54913 11.4342 4 12 4C12.5658 4 13.0243 4.54952 13.0243 5.22758V10.7722H16.9507V5.22758C16.9507 4.54913 17.4092 4 17.975 4C18.5408 4 19 4.54952 19 5.22758V12.7285C19 13.0047 18.7761 13.2285 18.5 13.2285H16.9507H13.0247V18.7717C13.0247 19.4501 12.5661 20 12.0003 20C11.4345 20 10.9753 19.4497 10.9753 18.7717V13.2285H7.04931V18.7717C7.04931 19.4501 6.59014 20 6.02433 20C5.45885 20 5 19.4497 5 18.7717V5.22758Z" fill="white"/>
</svg>
