<svg width="24" height="24" viewBox="0 0 24 24" fill="none" xmlns="http://www.w3.org/2000/svg">
<g clip-path="url(#clip0_1405_5)">
<path fill-rule="evenodd" clip-rule="evenodd" d="M16.8495 7.28235C16.462 6.54541 15.7404 6.10547 14.9192 6.10547H9.07696C8.25644 6.10547 7.5351 6.54496 7.14736 7.2811C6.93732 7.67984 6.10889 9.25521 5.92694 9.60121L5.89613 9.65978C5.10368 10.0157 4.6152 10.7681 4.61453 11.6468L4.61328 15.7861C4.61328 16.5136 5.20514 17.1055 5.93267 17.1055H7.65988C8.3874 17.1055 8.97927 16.5136 8.97927 15.7861V15.2371H15.0162V15.7861C15.0162 16.5136 15.6081 17.1055 16.3356 17.1055H18.0628C18.7903 17.1055 19.3822 16.5136 19.3822 15.7861L19.3813 12.959C19.3822 12.5668 19.3835 11.615 19.3835 11.615C19.3841 10.7298 18.8766 9.96236 18.0768 9.61582C17.8685 9.22027 16.8495 7.28235 16.8495 7.28235ZM5.5274 15.7861V14.8293C5.89534 15.0939 6.33449 15.2371 6.79527 15.2371H8.06511V15.7861C8.06511 16.0095 7.88332 16.1913 7.65985 16.1913H5.93267C5.70919 16.1913 5.5274 16.0096 5.5274 15.7861ZM17.2006 15.2371C17.6729 15.2371 18.1104 15.0856 18.468 14.8294V15.7861C18.468 16.0095 18.2862 16.1913 18.0628 16.1913H16.3355C16.1121 16.1913 15.9303 16.0096 15.9303 15.7861V15.2371H17.2006ZM6.32687 10.4696C7.59217 9.9652 9.71295 9.66405 11.9999 9.66405C12.8846 9.66405 15.985 9.8495 17.6181 10.4174C17.8385 10.494 18.0236 10.6193 18.1644 10.7797H17.4317C16.8098 10.7797 16.2438 11.0216 15.8379 11.4608C15.4691 11.8599 15.2548 12.4054 15.25 12.9574C15.2489 13.0793 15.2966 13.1966 15.3824 13.2832C15.4682 13.3698 15.5851 13.4185 15.707 13.4185H18.415C18.2584 13.9409 17.7733 14.323 17.2007 14.323H14.4394V14.3219H9.55855V14.323H6.79527C6.4578 14.323 6.13969 14.1907 5.89961 13.9504C5.74844 13.7991 5.64021 13.6169 5.58073 13.4185H8.29093C8.41285 13.4185 8.52973 13.3698 8.61554 13.2832C8.70135 13.1966 8.74903 13.0793 8.74797 12.9574C8.74312 12.4054 8.52882 11.8599 8.16003 11.4608C7.75425 11.0216 7.18825 10.7797 6.56631 10.7797H5.86679C5.99126 10.6479 6.14648 10.5415 6.32687 10.4696ZM5.52865 11.6938H6.56634C7.17734 11.6938 7.58093 12.061 7.74748 12.5044H5.52807L5.52865 11.6938ZM17.4317 11.6938H18.4693L18.4687 12.5044H16.2505C16.4171 12.061 16.8207 11.6938 17.4317 11.6938ZM9.07696 7.0196H14.9192C15.4018 7.0196 15.8104 7.27044 16.0405 7.70785L16.8588 9.26409C14.949 8.84713 12.4943 8.74995 11.9999 8.74995C10.1889 8.74995 8.46346 8.93586 7.13822 9.26183C7.4453 8.67795 7.82372 7.9585 7.95615 7.70712C8.1863 7.27019 8.59482 7.0196 9.07696 7.0196Z" fill="white"/>
<path fill-rule="evenodd" clip-rule="evenodd" d="M24 12C24 5.37324 18.6268 0 12 0C5.37324 0 0 5.37324 0 12C0 18.6268 5.37324 24 12 24C18.6268 24 24 18.6268 24 12ZM1.1 12C1.1 5.98076 5.98076 1.1 12 1.1C18.0192 1.1 22.9 5.98076 22.9 12C22.9 18.0192 18.0192 22.9 12 22.9C5.98076 22.9 1.1 18.0192 1.1 12Z" fill="white"/>
</g>
<defs>
<clipPath id="clip0_1405_5">
<rect width="24" height="24" fill="white"/>
</clipPath>
</defs>
</svg>
