<svg width="17" height="16" viewBox="0 0 17 16" fill="none" xmlns="http://www.w3.org/2000/svg">
<path fill-rule="evenodd" clip-rule="evenodd" d="M9.16035 4.10455H6.54466C5.10355 4.10455 3.82256 4.95706 3.28214 6.28538L2.76174 7.57406H0.880293C0.680139 7.57406 0.5 7.73266 0.5 7.95075C0.5 7.97057 0.5 8.01022 0.520016 8.03005L0.700154 8.78343C0.740185 8.94203 0.900309 9.06099 1.06043 9.06099H1.72094C1.2806 9.43768 1.0204 9.97297 1.0204 10.5479V12.0348C1.0204 12.5107 1.20054 12.9667 1.52079 13.3433V15.0087C1.52079 15.5638 1.96113 16 2.52156 16H3.52233C4.08276 16 4.5231 15.5638 4.5231 15.0087V14.0174H12.5293V15.0087C12.5293 15.5638 12.9696 16 13.53 16H14.5308C15.0912 16 15.5316 15.5638 15.5316 15.0087V13.3235C15.8518 12.9667 16.032 12.5107 16.032 12.015V10.5281C16.032 9.95315 15.7718 9.41785 15.3314 9.04116H15.9519C16.1321 9.04116 16.2722 8.92221 16.3122 8.7636L16.4923 8.01022C16.5324 7.81197 16.4123 7.61371 16.2121 7.55423C16.2121 7.57406 16.1921 7.57406 16.1521 7.57406H14.2706L14.0951 7.12208C13.7448 7.22469 13.374 7.27977 12.9901 7.27977C12.6329 7.27977 12.287 7.23209 11.9585 7.1428L12.5293 8.56534H4.5231L5.14358 7.01894C5.36375 6.44399 5.92418 6.08712 6.54466 6.08712H10.1764C9.65913 5.55053 9.29678 4.86621 9.16035 4.10455ZM2.52156 11.1625C2.56159 11.678 3.00193 12.0745 3.52233 12.0348C3.59518 12.0348 3.67245 12.0363 3.75199 12.0378C4.32808 12.0487 5.02349 12.0618 5.02349 11.5392C5.02349 10.9444 4.12279 10.0523 3.52233 10.0523H3.40224C2.88184 10.0919 2.48153 10.5281 2.52156 11.0436V11.1625ZM13.3004 12.0378C13.3799 12.0363 13.4572 12.0348 13.53 12.0348H13.6501C14.1705 11.9952 14.5708 11.559 14.5308 11.0436V10.9246C14.4908 10.4091 14.0504 10.0126 13.53 10.0523C12.9296 10.0523 12.0289 10.9444 12.0289 11.5392C12.0289 12.0618 12.7243 12.0487 13.3004 12.0378Z" fill="white"/>
<path fill-rule="evenodd" clip-rule="evenodd" d="M16.4498 3.40755C16.4498 5.28949 14.9096 6.8151 13.0096 6.8151C11.1097 6.8151 9.56949 5.28949 9.56949 3.40755C9.56949 1.52561 11.1097 0 13.0096 0C14.9096 0 16.4498 1.52561 16.4498 3.40755ZM12.7206 3.80608L14.3362 2.20582C14.408 2.13533 14.505 2.0958 14.6061 2.09602C14.7072 2.09624 14.8041 2.13611 14.8755 2.20692C14.947 2.27772 14.9873 2.37368 14.9875 2.47381C14.9877 2.57394 14.9479 2.67008 14.8767 2.74119L12.9909 4.60928C12.9554 4.64445 12.9133 4.67235 12.8669 4.69138C12.8205 4.71041 12.7708 4.72021 12.7206 4.72021C12.6704 4.72021 12.6207 4.71041 12.5743 4.69138C12.5279 4.67235 12.4858 4.64445 12.4503 4.60928L11.1426 3.31388C11.1068 3.27878 11.0784 3.23703 11.059 3.19103C11.0396 3.14503 11.0295 3.09568 11.0294 3.04582C11.0293 2.99596 11.0391 2.94657 11.0583 2.90048C11.0776 2.8544 11.1058 2.81252 11.1414 2.77727C11.177 2.74201 11.2192 2.71406 11.2658 2.69503C11.3123 2.676 11.3621 2.66626 11.4125 2.66637C11.4628 2.66648 11.5126 2.67644 11.5591 2.69567C11.6055 2.7149 11.6477 2.74303 11.6831 2.77844L12.7206 3.80608Z" fill="white"/>
</svg>
