<svg width="20" height="18" viewBox="0 0 20 18" fill="none" xmlns="http://www.w3.org/2000/svg">
<path d="M15.3075 5.26207C14.8778 4.69097 14.2709 4.28255 13.5842 4.10243C12.8974 3.92231 12.1708 3.98094 11.521 4.2689C10.9394 4.52282 10.4207 4.95092 10 5.51904C9.57931 4.94953 9.0606 4.52143 8.47899 4.2689C7.82918 3.98094 7.10256 3.92231 6.41584 4.10243C5.72913 4.28255 5.1222 4.69097 4.69254 5.26207C4.23945 5.86269 4 6.61333 4 7.43259C4 8.61161 4.69501 9.90508 6.06554 11.2786C7.18233 12.3973 8.50206 13.3135 9.18911 13.76C9.43119 13.9167 9.71259 14 10 14C10.2874 14 10.5688 13.9167 10.8109 13.76C11.4974 13.3135 12.8177 12.3973 13.9345 11.2786C15.305 9.90564 16 8.61161 16 7.43259C16 6.61333 15.7605 5.86269 15.3075 5.26207Z" fill="#BED0E8"/>
</svg>
