<svg width="24" height="24" viewBox="0 0 64 64" xmlns="http://www.w3.org/2000/svg">
    <path d="M32 64c17.62 0 32-14.381 32-32C64 14.38 49.619 0 32 0 14.38 0 0 14.381 0 32c0 17.62 14.381 32 32 32zM13.643 53.454C18.248 48.29 24.983 45.25 32 45.25c7.018 0 13.752 3.04 18.357 8.204A28.127 28.127 0 0 1 32 60.25a28.127 28.127 0 0 1-18.357-6.796zm-2.308-23.329a20.658 20.658 0 0 1 4.734-11.404l2.548 2.548 2.652-2.652-2.548-2.548a20.658 20.658 0 0 1 11.404-4.734V15h3.75v-3.665a20.658 20.658 0 0 1 11.404 4.734l-2.548 2.548 2.652 2.652 2.548-2.548a20.661 20.661 0 0 1 4.734 11.404H49v3.749h3.664c-.409 4.517-2.28 8.805-5.305 12.136A28.438 28.438 0 0 0 32 41.5a28.436 28.436 0 0 0-15.359 4.51c-3.025-3.331-4.896-7.618-5.305-12.135H15v-3.75h-3.665zM32 3.75c15.577 0 28.25 12.673 28.25 28.25 0 7.227-2.729 13.828-7.21 18.83a28.07 28.07 0 0 0-2.658-2.577C54.291 43.812 56.5 38 56.5 32 56.5 18.545 45.456 7.5 32 7.5 18.545 7.5 7.5 18.544 7.5 32c0 6 2.209 11.812 6.118 16.253a28.07 28.07 0 0 0-2.659 2.576C6.48 45.828 3.75 39.227 3.75 32 3.75 16.423 16.423 3.75 32 3.75z"/>
    <path d="M26.375 49h11.25v3.75h-11.25zm.82-14.075a5.587 5.587 0 0 0 4.805 2.7A5.631 5.631 0 0 0 37.625 32a5.587 5.587 0 0 0-2.7-4.805l-.097-.06-14.105-6.411 6.413 14.104.059.097zm5.858-4.477a1.877 1.877 0 1 1-2.605 2.605l-2.171-4.777 4.776 2.172z"/>
</svg>