<svg width="15" height="19" viewBox="0 0 15 19" fill="none" xmlns="http://www.w3.org/2000/svg">
<path fill-rule="evenodd" clip-rule="evenodd" d="M5.75094 0.0549457C6.57097 -0.173844 7.41475 0.332854 7.63475 1.18468L8.46353 4.39549C8.68354 5.24731 8.19602 6.12369 7.376 6.35248C7.31474 6.36929 7.25349 6.38221 7.19224 6.39126L5.72844 6.70149C5.72844 6.70149 4.85091 6.83462 4.87341 7.74332C4.89966 8.89373 6.75223 12.2261 7.69851 12.8258C8.44603 13.2989 8.9948 12.5763 8.9948 12.5763L9.98608 11.4156C10.0248 11.3652 10.0661 11.3174 10.1098 11.2708C10.7111 10.6478 11.6849 10.6478 12.2862 11.2708L14.55 13.6221C15.15 14.2451 15.15 15.2572 14.55 15.8802C14.55 15.8802 13.1974 17.3447 11.5186 18.4085C9.50107 19.6882 7.57475 18.5404 6.96473 18.2224C5.52969 17.4714 3.55587 15.0801 2.25083 12.7767L2.18957 12.6668C0.920782 10.3414 -0.0855012 7.36976 0.00575178 5.70619C0.0445031 4.99784 0.0507533 2.69185 2.12582 1.51687C3.85338 0.538377 5.75094 0.0549457 5.75094 0.0549457Z" fill="#FDFDFD"/>
</svg>
