<svg width="35" height="35" viewBox="0 0 35 35" fill="none" xmlns="http://www.w3.org/2000/svg">
<g id="Frame">
<g id="Group">
<path id="Union" fill-rule="evenodd" clip-rule="evenodd" d="M21.5678 7.85998H21.5676V15.8145C21.5676 15.9593 21.6237 16.0981 21.7235 16.2005C21.8234 16.3029 21.9589 16.3604 22.1001 16.3604L22.1004 16.3604C21.9592 16.3604 21.8237 16.3029 21.7238 16.2005C21.6239 16.0981 21.5678 15.9593 21.5678 15.8145V7.85998ZM22.861 7.85998V15.8145C22.861 16.0213 22.7808 16.2197 22.6381 16.3659C22.4954 16.5122 22.3019 16.5943 22.1001 16.5943C21.8984 16.5943 21.7048 16.5122 21.5621 16.3659C21.4195 16.2197 21.3393 16.0213 21.3393 15.8145V7.86H9.01385V16.1264H19.9705C20.1723 16.1264 20.3658 16.2086 20.5085 16.3548C20.6512 16.5011 20.7314 16.6994 20.7314 16.9063C20.7314 17.1131 20.6512 17.3114 20.5085 17.4577C20.3658 17.6039 20.1723 17.6861 19.9705 17.6861H9.01385V25.9525H15.7099C15.9117 25.9525 16.1052 26.0347 16.2479 26.1809C16.3905 26.3272 16.4707 26.5256 16.4707 26.7324C16.4707 26.9392 16.3905 27.1376 16.2479 27.2838C16.109 27.4262 15.922 27.5078 15.726 27.5121C15.7204 27.5122 15.7148 27.5123 15.7092 27.5123H8.25302C8.25143 27.5123 8.24984 27.5122 8.24826 27.5122H7.18857C6.98678 27.5122 6.79326 27.4301 6.65058 27.2838C6.50789 27.1376 6.42773 26.9392 6.42773 26.7324C6.42773 26.5256 6.50789 26.3272 6.65058 26.1809C6.79326 26.0347 6.98678 25.9525 7.18857 25.9525H7.49219V17.6861H7.18857C6.98678 17.6861 6.79326 17.6039 6.65058 17.4577C6.50789 17.3114 6.42773 17.1131 6.42773 16.9063C6.42773 16.6994 6.50789 16.5011 6.65058 16.3548C6.79326 16.2086 6.98678 16.1264 7.18857 16.1264H7.49219V7.85998H7.18857C6.98678 7.85998 6.79326 7.77782 6.65058 7.63157C6.50789 7.48532 6.42773 7.28696 6.42773 7.08013C6.42773 6.8733 6.50789 6.67494 6.65058 6.52869C6.79326 6.38244 6.98678 6.30028 7.18857 6.30028H9.62322V5.98834C9.62322 4.95622 10.4423 4.1167 11.4492 4.1167H12.5144C13.5213 4.1167 14.3404 4.95622 14.3404 5.98834V6.30028H23.166C23.3678 6.30028 23.5613 6.38244 23.704 6.52869C23.8467 6.67494 23.9268 6.8733 23.9268 7.08013C23.9268 7.28696 23.8467 7.48532 23.704 7.63157C23.5613 7.77782 23.3678 7.85998 23.166 7.85998H22.861ZM7.70969 6.53423L7.70968 6.53424H7.18883C7.04758 6.53424 6.91212 6.59175 6.81224 6.69413C6.71236 6.79651 6.65625 6.93536 6.65625 7.08014C6.65625 7.22492 6.71236 7.36377 6.81224 7.46614C6.90819 7.56449 7.03697 7.62143 7.17217 7.62577C7.03687 7.6215 6.90798 7.56454 6.81197 7.46614C6.71209 7.36376 6.65598 7.22491 6.65598 7.08013C6.65598 6.93535 6.71209 6.7965 6.81197 6.69412C6.91185 6.59175 7.04732 6.53423 7.18857 6.53423H7.70969ZM22.6435 6.53424H23.1663C23.1662 6.53424 23.1661 6.53423 23.166 6.53423L22.6435 6.53424ZM12.8187 6.30028V5.98834C12.8187 5.90561 12.7866 5.82627 12.7296 5.76777C12.6725 5.70927 12.5951 5.6764 12.5144 5.6764H11.4492C11.3685 5.6764 11.2911 5.70927 11.234 5.76777C11.1769 5.82627 11.1449 5.90561 11.1449 5.98834V6.30028H12.8187ZM7.72044 16.1264V7.85998H7.7207V16.1264H7.72044ZM7.49219 16.3604H7.18857C7.04732 16.3604 6.91185 16.4179 6.81197 16.5203C6.71209 16.6226 6.65598 16.7615 6.65598 16.9063C6.65598 17.051 6.71209 17.1899 6.81197 17.2923C6.90798 17.3907 7.03687 17.4476 7.17217 17.4519C7.03697 17.4476 6.90819 17.3906 6.81224 17.2923C6.71236 17.1899 6.65625 17.051 6.65625 16.9063C6.65625 16.7615 6.71236 16.6226 6.81224 16.5203C6.91212 16.4179 7.04758 16.3604 7.18883 16.3604H7.49219V16.3604ZM19.9872 16.3606C19.9816 16.3605 19.9761 16.3604 19.9705 16.3604H9.01385V16.3604H19.9708C19.9763 16.3604 19.9817 16.3605 19.9872 16.3606ZM7.7207 16.3604V16.3604H7.72044V16.3604H7.7207ZM7.72044 17.6861V25.9525H7.7207V17.6861H7.72044ZM7.49219 26.1865L7.18857 26.1865C7.04732 26.1865 6.91185 26.244 6.81197 26.3464C6.71209 26.4488 6.65598 26.5876 6.65598 26.7324C6.65598 26.8772 6.71209 27.016 6.81197 27.1184C6.90798 27.2168 7.03687 27.2738 7.17217 27.278C7.03697 27.2737 6.90819 27.2167 6.81224 27.1184C6.71236 27.016 6.65625 26.8772 6.65625 26.7324C6.65625 26.5876 6.71236 26.4488 6.81224 26.3464C6.91212 26.244 7.04758 26.1865 7.18883 26.1865H7.49219ZM23.0397 30.5518C21.8148 30.5173 20.6472 30.0035 19.7785 29.1131C18.8799 28.192 18.3745 26.9432 18.373 25.6406C18.373 22.7364 22.589 17.8419 22.7679 17.6356C22.8192 17.5802 22.8809 17.5362 22.9492 17.5061C23.0176 17.476 23.0913 17.4604 23.1657 17.4604C23.1657 17.4604 23.1656 17.4604 23.1655 17.4604C23.091 17.4604 23.0174 17.476 22.949 17.5061C22.8806 17.5362 22.8189 17.5802 22.7676 17.6356C22.5887 17.8419 18.3728 22.7364 18.3728 25.6406C18.3742 26.9432 18.8796 28.192 19.7782 29.1131C20.647 30.0036 21.8147 30.5174 23.0397 30.5518ZM23.1661 18.8356C23.1662 18.8356 23.1662 18.8355 23.1663 18.8355C24.486 20.4502 26.8943 23.7824 26.8943 25.6406C26.8943 27.7478 25.222 29.4619 23.1663 29.4619C23.1662 29.4619 23.1661 29.4619 23.166 29.4619C23.166 29.4619 23.166 29.4619 23.166 29.4619C25.2218 29.4619 26.8941 27.7478 26.8941 25.6406C26.8941 23.85 24.6579 20.6908 23.3143 19.0184C23.2636 18.9553 23.2141 18.8943 23.1661 18.8356ZM23.1658 30.7876H23.166C25.9347 30.7876 28.1875 28.4785 28.1875 25.6406C28.1875 24.8635 27.9075 23.9759 27.5044 23.0943C27.0992 22.2083 26.5593 21.3063 26.0172 20.4943C24.9328 18.8701 23.8266 17.5864 23.7335 17.4796L23.7312 17.477L23.7289 17.4745C23.6563 17.3961 23.5689 17.3337 23.472 17.2911C23.3752 17.2485 23.2709 17.2265 23.1655 17.2265C23.0601 17.2265 22.9558 17.2485 22.8589 17.2911C22.7621 17.3337 22.6747 17.3961 22.6021 17.4745L22.5995 17.4773L22.597 17.4801C22.5049 17.5864 21.399 18.87 20.3147 20.4943C19.7727 21.3063 19.2328 22.2083 18.8276 23.0943C18.4245 23.9759 18.1445 24.8635 18.1445 25.6406V25.6409C18.146 27.0054 18.6755 28.3136 19.6168 29.2785C20.5582 30.2434 21.8345 30.7861 23.1658 30.7876ZM19.6662 25.6406C19.6662 25.2219 19.8034 24.699 20.0452 24.1113C20.2854 23.5275 20.6212 22.8975 21.001 22.2701C21.6952 21.1232 22.5275 19.9992 23.166 19.202C23.8045 19.9992 24.6368 21.1232 25.331 22.2701C25.7108 22.8975 26.0466 23.5275 26.2868 24.1113C26.5286 24.699 26.6658 25.2219 26.6658 25.6406C26.6658 27.6185 25.0957 29.2279 23.166 29.2279C21.2363 29.2279 19.6662 27.6185 19.6662 25.6406Z" fill="#BED0E8"/>
</g>
</g>
</svg>
