<svg width="31" height="31" viewBox="0 0 31 31" fill="none" xmlns="http://www.w3.org/2000/svg">
<path fill-rule="evenodd" clip-rule="evenodd" d="M4.375 14.2083C4.375 8.77753 8.77753 4.375 14.2083 4.375C19.6391 4.375 24.0417 8.77753 24.0417 14.2083C24.0417 16.8847 22.9724 19.3114 21.2378 21.0845C21.2077 21.1037 21.1791 21.1265 21.1528 21.1528C21.1265 21.1791 21.1037 21.2077 21.0845 21.2378C19.3114 22.9724 16.8847 24.0417 14.2083 24.0417C8.77753 24.0417 4.375 19.6391 4.375 14.2083ZM21.507 22.2141C19.5815 23.9705 17.02 25.0417 14.2083 25.0417C8.22525 25.0417 3.375 20.1914 3.375 14.2083C3.375 8.22525 8.22525 3.375 14.2083 3.375C20.1914 3.375 25.0417 8.22525 25.0417 14.2083C25.0417 17.02 23.9705 19.5815 22.2141 21.507L27.4787 26.7715C27.6739 26.9668 27.6739 27.2834 27.4787 27.4787C27.2834 27.6739 26.9668 27.6739 26.7715 27.4787L21.507 22.2141Z" fill="white"/>
</svg>
