<svg width="36" height="35" viewBox="0 0 36 35" fill="none" xmlns="http://www.w3.org/2000/svg">
<g id="Frame">
<g id="Group 5499">
<path id="Vector (Stroke)" fill-rule="evenodd" clip-rule="evenodd" d="M23.6739 9.84616L19.9556 16.3005C19.3455 16.1444 18.7176 16.0654 18.0866 16.0659C17.4556 16.0655 16.8277 16.1444 16.2176 16.3005L12.4994 9.84617C14.2233 9.1429 16.109 8.75468 18.0866 8.75468C20.0642 8.75468 21.95 9.14286 23.6739 9.84616ZM24.8294 8.98167C22.778 8.03102 20.4935 7.5 18.0866 7.5C15.6797 7.5 13.3953 8.03109 11.3439 8.98166C11.1843 9.05563 11.063 9.19347 11.0099 9.36147C10.9567 9.52947 10.9765 9.71213 11.0645 9.86476L15.379 17.3541C15.5272 17.6114 15.8353 17.7292 16.1169 17.6363C16.7523 17.4266 17.4171 17.3201 18.0861 17.3206H18.0872C18.7562 17.32 19.4209 17.4266 20.0563 17.6363C20.338 17.7293 20.646 17.6114 20.7943 17.3541L25.1088 9.86476C25.1967 9.71213 25.2165 9.52948 25.1634 9.36148C25.1102 9.19348 24.989 9.05564 24.8294 8.98167ZM26.8708 10.3494C26.6991 10.3873 26.5511 10.4958 26.4632 10.6484L25.7146 11.9479C25.5418 12.248 25.6443 12.6316 25.9437 12.8049C26.2431 12.9781 26.626 12.8753 26.7988 12.5752L27.1967 11.8845C28.6664 13.0292 29.9447 14.4717 30.9335 16.1881C31.9223 17.9046 32.5298 19.7353 32.784 21.5833H25.3475C25.1808 20.9876 24.938 20.4032 24.6156 19.8438C24.3005 19.2959 23.9183 18.7904 23.4784 18.3389L23.9815 17.4655C24.1544 17.1655 24.0518 16.7818 23.7524 16.6086C23.453 16.4353 23.0702 16.5381 22.8973 16.8382L22.1486 18.1378C22.0004 18.3952 22.0526 18.7214 22.2737 18.9194C22.7726 19.3661 23.1971 19.8898 23.5312 20.4707L23.5314 20.4711C23.8759 21.069 24.1108 21.6989 24.2434 22.3383C24.3038 22.6293 24.5597 22.8379 24.8563 22.8379H33.4854C33.6612 22.8379 33.8289 22.7638 33.9475 22.6337C34.0661 22.5036 34.1247 22.3294 34.1088 22.1539C33.9046 19.898 33.2211 17.6498 32.0177 15.5608L32.0177 15.5608C30.8143 13.4718 29.2132 11.7546 27.366 10.4494C27.2223 10.3478 27.0426 10.3115 26.8708 10.3494ZM9.30243 10.3494C9.13069 10.3115 8.95097 10.3478 8.80724 10.4494C6.96 11.7546 5.35896 13.4718 4.1555 15.5608C2.9521 17.6498 2.26886 19.898 2.06448 22.1539C2.04858 22.3294 2.10708 22.5035 2.22568 22.6337C2.34427 22.7638 2.51202 22.8379 2.68788 22.8379H11.3169C11.6134 22.8379 11.8692 22.6295 11.9297 22.3386C12.0662 21.6823 12.3065 21.052 12.6415 20.4717L12.6418 20.4712C12.9862 19.8733 13.4131 19.3544 13.8993 18.9196C14.1206 18.7217 14.1729 18.3953 14.0246 18.1379L9.71004 10.6484C9.62211 10.4958 9.47418 10.3873 9.30243 10.3494ZM8.97652 11.8845L12.6948 18.3389C12.2636 18.7813 11.8801 19.284 11.5579 19.8434C11.2418 20.3909 10.996 20.9755 10.8258 21.5833H3.38929C3.64359 19.7353 4.25095 17.9045 5.23971 16.1881C6.22854 14.4717 7.50682 13.0291 8.97652 11.8845Z" fill="#BED0E8" stroke="#BED0E8" stroke-width="0.6" stroke-miterlimit="22.9256" stroke-linecap="round" stroke-linejoin="round"/>
<path id="Vector (Stroke)_2" fill-rule="evenodd" clip-rule="evenodd" d="M18.0872 21.0828C19.4358 21.0828 20.5291 22.176 20.5291 23.5246C20.5291 24.8732 19.4358 25.9665 18.0872 25.9665C16.7386 25.9665 15.6454 24.8732 15.6454 23.5246C15.6454 22.176 16.7386 21.0828 18.0872 21.0828ZM21.75 23.5246C21.75 21.5017 20.1101 19.8618 18.0872 19.8618C16.0643 19.8618 14.4244 21.5017 14.4244 23.5246C14.4244 25.5475 16.0643 27.1874 18.0872 27.1874C20.1101 27.1874 21.75 25.5475 21.75 23.5246Z" fill="#BED0E8" stroke="#BED0E8" stroke-width="0.6" stroke-miterlimit="22.9256" stroke-linecap="round" stroke-linejoin="round"/>
<path id="Vector (Stroke)_3" fill-rule="evenodd" clip-rule="evenodd" d="M28.5337 17.4385C28.3618 17.1289 27.981 17.0228 27.6832 17.2016L20.6873 21.401C20.3895 21.5797 20.2875 21.9756 20.4594 22.2852C20.6313 22.5948 21.0121 22.7008 21.3099 22.5221L28.3058 18.3227C28.6036 18.1439 28.7056 17.7481 28.5337 17.4385Z" fill="#BED0E8" stroke="#BED0E8" stroke-width="0.6" stroke-miterlimit="22.9256" stroke-linecap="round" stroke-linejoin="round"/>
<path id="Vector (Stroke)_4" fill-rule="evenodd" clip-rule="evenodd" d="M25.4121 14.7112C25.4121 14.3951 25.156 14.1389 24.84 14.1389H24.8396C24.5236 14.1389 24.2675 14.3951 24.2675 14.7112C24.2675 15.0273 24.5236 15.2835 24.8396 15.2835H24.84C25.156 15.2835 25.4121 15.0273 25.4121 14.7112Z" fill="#BED0E8" stroke="#BED0E8" stroke-width="0.6" stroke-miterlimit="2.6131" stroke-linecap="round" stroke-linejoin="round"/>
</g>
</g>
</svg>
