<svg width="17" height="16" viewBox="0 0 17 16" fill="none" xmlns="http://www.w3.org/2000/svg">
<g clip-path="url(#clip0_175_25791)">
<path d="M1.91667 6H6.91667C7.56 6 8.08333 5.47667 8.08333 4.83333V1.16667C8.08333 0.523333 7.56 0 6.91667 0H1.91667C1.27333 0 0.75 0.523333 0.75 1.16667V4.83333C0.75 5.47667 1.27333 6 1.91667 6ZM1.25 10H7.58333C7.71594 10 7.84312 9.94732 7.93689 9.85355C8.03065 9.75979 8.08333 9.63261 8.08333 9.5C8.08333 9.36739 8.03065 9.24022 7.93689 9.14645C7.84312 9.05268 7.71594 9 7.58333 9H1.25C1.11739 9 0.990215 9.05268 0.896447 9.14645C0.802678 9.24022 0.75 9.36739 0.75 9.5C0.75 9.63261 0.802678 9.75979 0.896447 9.85355C0.990215 9.94732 1.11739 10 1.25 10ZM1.25 8H7.58333C7.71594 8 7.84312 7.94732 7.93689 7.85355C8.03065 7.75979 8.08333 7.63261 8.08333 7.5C8.08333 7.36739 8.03065 7.24022 7.93689 7.14645C7.84312 7.05268 7.71594 7 7.58333 7H1.25C1.11739 7 0.990215 7.05268 0.896447 7.14645C0.802678 7.24022 0.75 7.36739 0.75 7.5C0.75 7.63261 0.802678 7.75979 0.896447 7.85355C0.990215 7.94732 1.11739 8 1.25 8ZM1.25 12H7.58333C7.71594 12 7.84312 11.9473 7.93689 11.8536C8.03065 11.7598 8.08333 11.6326 8.08333 11.5C8.08333 11.3674 8.03065 11.2402 7.93689 11.1464C7.84312 11.0527 7.71594 11 7.58333 11H1.25C1.11739 11 0.990215 11.0527 0.896447 11.1464C0.802678 11.2402 0.75 11.3674 0.75 11.5C0.75 11.6326 0.802678 11.7598 0.896447 11.8536C0.990215 11.9473 1.11739 12 1.25 12ZM1.25 14H7.58333C7.71594 14 7.84312 13.9473 7.93689 13.8536C8.03065 13.7598 8.08333 13.6326 8.08333 13.5C8.08333 13.3674 8.03065 13.2402 7.93689 13.1464C7.84312 13.0527 7.71594 13 7.58333 13H1.25C1.11739 13 0.990215 13.0527 0.896447 13.1464C0.802678 13.2402 0.75 13.3674 0.75 13.5C0.75 13.6326 0.802678 13.7598 0.896447 13.8536C0.990215 13.9473 1.11739 14 1.25 14ZM1.25 16H7.58333C7.71594 16 7.84312 15.9473 7.93689 15.8536C8.03065 15.7598 8.08333 15.6326 8.08333 15.5C8.08333 15.3674 8.03065 15.2402 7.93689 15.1464C7.84312 15.0527 7.71594 15 7.58333 15H1.25C1.11739 15 0.990215 15.0527 0.896447 15.1464C0.802678 15.2402 0.75 15.3674 0.75 15.5C0.75 15.6326 0.802678 15.7598 0.896447 15.8536C0.990215 15.9473 1.11739 16 1.25 16ZM15.5833 0H10.5833C9.94 0 9.41667 0.523333 9.41667 1.16667V14.8333C9.41667 15.4767 9.94 16 10.5833 16H15.5833C16.2267 16 16.75 15.4767 16.75 14.8333V1.16667C16.75 0.523333 16.2267 0 15.5833 0Z" fill="white"/>
</g>
<defs>
<clipPath id="clip0_175_25791">
<rect width="16" height="16" fill="white" transform="translate(0.75)"/>
</clipPath>
</defs>
</svg>
