<svg width="24" height="24" viewBox="0 0 64 64" xmlns="http://www.w3.org/2000/svg"><path d="M28.483 13.187c-11.78 0-21.626 9.67-21.626 21.626 0 11.955 9.67 21.625 21.626 21.625 11.956 0 21.626-9.67 21.626-21.625 0-11.956-9.67-21.626-21.626-21.626zm0 39.735c-10.022 0-18.11-8.088-18.11-18.11 0-9.67 7.737-17.757 17.407-18.109a2.427 2.427 0 0 0-.704.527l-3.34 4.923c-.528.704-.352 1.934.527 2.462.352.176.704.352 1.055.352.528 0 1.055-.176 1.407-.704l1.934-2.813 1.934 2.813c.351.528.879.704 1.406.704.352 0 .704-.176 1.055-.352.704-.528 1.055-1.582.528-2.462l-3.34-4.923c-.177-.175-.352-.527-.704-.527 9.67.527 17.23 8.44 17.23 18.11-.175 10.021-8.263 18.11-18.285 18.11z"/><path d="M28.483 0c-.88 0-1.758.88-1.758 1.758V6.33C11.78 7.209 0 19.692 0 34.813 0 50.46 12.835 63.296 28.483 63.296c7.209 0 13.89-2.638 18.813-7.21l3.165 3.166c.351.351.879.527 1.23.527.528 0 .88-.176 1.231-.527 6.857-6.506 10.374-15.121 10.374-24.44C63.296 15.649 47.647 0 28.483 0zm18.11 52.043l-.704.703c-4.571 4.22-10.549 7.033-17.23 7.033-13.89 0-25.143-11.252-25.143-24.966S14.77 9.846 28.483 9.846c13.714 0 24.967 11.253 24.967 24.967 0 6.68-2.638 12.834-6.857 17.23zm3.34 1.582c4.396-5.098 7.209-11.604 7.209-18.812 0-15.121-11.78-27.604-26.725-28.483V3.516C46.768 4.571 59.779 18.11 59.779 34.813c0 7.736-2.813 15.12-7.912 20.922l-1.934-2.11z"/><path d="M30.241 29.362v-2.637c0-.88-.703-1.758-1.758-1.758-.88 0-1.758.879-1.758 1.758v2.637c-2.286.703-3.868 2.813-3.868 5.45 0 .528 0 1.055.176 1.583l-5.803 4.044c-.879.527-1.054 1.582-.527 2.461.352.528.88.704 1.407.704.351 0 .703 0 1.054-.352l5.803-4.044a5.664 5.664 0 0 0 3.516 1.23c3.165 0 5.626-2.637 5.626-5.625.176-2.462-1.582-4.748-3.868-5.45zm-1.758 7.56c-1.23 0-2.11-1.055-2.11-2.11 0-.175 0-.527.176-.703 0-.176.176-.351.352-.527.351-.528 1.055-.88 1.758-.88.703 0 1.406.352 1.758.88.352.351.352.879.352 1.23 0 1.231-1.055 2.11-2.286 2.11z"/></svg>