<svg width="35" height="35" viewBox="0 0 35 35" fill="none" xmlns="http://www.w3.org/2000/svg">
<g id="Frame">
<g id="Group">
<g id="Group_2">
<path id="Union" fill-rule="evenodd" clip-rule="evenodd" d="M1.1983 6.25C0.963368 6.25 0.738063 6.34333 0.571944 6.50944C0.405825 6.67556 0.3125 6.90087 0.3125 7.1358C0.3125 7.37072 0.405825 7.59603 0.571944 7.76215C0.738063 7.92827 0.963368 8.02159 1.1983 8.02159H3.49148C3.72641 8.02159 3.95172 7.92827 4.11784 7.76215C4.28395 7.59603 4.37728 7.37072 4.37728 7.1358C4.37728 6.90087 4.28395 6.67556 4.11784 6.50944C3.95172 6.34333 3.72641 6.25 3.49148 6.25H1.1983ZM7.58349 6.25C7.34856 6.25 7.12326 6.34333 6.95714 6.50944C6.79102 6.67556 6.69769 6.90087 6.69769 7.1358C6.69769 7.37072 6.79102 7.59603 6.95714 7.76215C7.12326 7.92827 7.34856 8.02159 7.58349 8.02159H14.3197C14.5547 8.02159 14.78 7.92827 14.9461 7.76215C15.1122 7.59603 15.2055 7.37072 15.2055 7.1358C15.2055 6.90087 15.1122 6.67556 14.9461 6.50944C14.78 6.34332 14.5547 6.25 14.3197 6.25H7.58349ZM18.4757 12.0347C20.6705 12.0347 21.9931 12.3762 23.0373 12.9063C23.7661 13.2761 24.3827 13.7455 25.0971 14.334C24.9976 14.2962 24.8912 14.2763 24.7827 14.2763C24.5478 14.2763 24.3225 14.3696 24.1564 14.5356L24.1564 14.5357L24.1114 14.5807L24.1114 14.5807C23.9807 14.7114 23.8255 14.815 23.6548 14.8857C23.484 14.9564 23.301 14.9928 23.1161 14.9928H14.0334C13.7984 14.9928 13.5731 15.0861 13.407 15.2522C13.2409 15.4184 13.1476 15.6437 13.1476 15.8786C13.1476 16.1135 13.2409 16.3388 13.407 16.5049C13.5731 16.6711 13.7984 16.7644 14.0334 16.7644H23.1164C23.9594 16.7643 24.7679 16.4294 25.364 15.8333L25.409 15.7883L25.409 15.7882C25.5751 15.6221 25.6684 15.3968 25.6684 15.162C25.6684 14.9983 25.6231 14.8393 25.5394 14.7018C25.5631 14.7215 25.5868 14.7414 25.6107 14.7614C25.8059 14.9245 26.0099 15.0948 26.2256 15.2725L26.4311 15.4417L26.6959 15.4696C31.7908 16.0058 32.8532 17.6874 33.0689 18.4273V20.6083C33.0689 20.6774 33.0415 20.7438 32.9926 20.7927C32.9437 20.8416 32.8773 20.869 32.8082 20.869H31.5822C31.184 19.2243 29.7025 18.0026 27.9351 18.0026C26.1678 18.0026 24.6863 19.2243 24.2881 20.869H14.3833C13.9851 19.2243 12.5036 18.0026 10.7362 18.0026C8.96888 18.0026 7.48739 19.2243 7.08921 20.869H4.5733C4.33837 20.869 4.11306 20.9624 3.94694 21.1285C3.78082 21.2946 3.6875 21.5199 3.6875 21.7548C3.6875 21.9898 3.78082 22.2151 3.94694 22.3812C4.11306 22.5473 4.33837 22.6406 4.5733 22.6406H7.08921C7.48739 24.2854 8.96888 25.5071 10.7362 25.5071C12.5036 25.5071 13.9851 24.2854 14.3833 22.6406H24.2881C24.6863 24.2854 26.1678 25.5071 27.9351 25.5071C29.7025 25.5071 31.184 24.2854 31.5822 22.6406H32.8082C33.3472 22.6406 33.8641 22.4265 34.2453 22.0454C34.6264 21.6642 34.8405 21.1473 34.8405 20.6083V18.2143L34.8179 18.1158C34.4106 16.3513 32.5359 14.3613 27.1491 13.7372C27.0463 13.6518 26.9447 13.5667 26.8436 13.4819L26.7765 13.4257L26.763 13.4145C25.8261 12.6297 24.9322 11.881 23.8393 11.3262C22.4828 10.6381 20.8673 10.2631 18.4757 10.2631H5.28992C5.05499 10.2631 4.82968 10.3564 4.66356 10.5225C4.49745 10.6886 4.40412 10.9139 4.40412 11.1489C4.40412 11.3838 4.49745 11.6091 4.66356 11.7752C4.82968 11.9413 5.05499 12.0347 5.28992 12.0347H18.4757ZM25.9544 21.7548C25.9544 21.2295 26.1631 20.7257 26.5346 20.3543C26.906 19.9828 27.4098 19.7742 27.9351 19.7742C28.4604 19.7742 28.9642 19.9828 29.3357 20.3543C29.7071 20.7257 29.9158 21.2295 29.9158 21.7548C29.9158 22.2802 29.7071 22.7839 29.3357 23.1554C28.9642 23.5268 28.4604 23.7355 27.9351 23.7355C27.4098 23.7355 26.906 23.5268 26.5346 23.1554C26.1631 22.7839 25.9544 22.2802 25.9544 21.7548ZM9.33568 20.3543C9.70713 19.9828 10.2109 19.7742 10.7362 19.7742C11.2615 19.7742 11.7653 19.9828 12.1368 20.3543C12.5082 20.7257 12.7169 21.2295 12.7169 21.7548C12.7169 22.2802 12.5082 22.7839 12.1368 23.1554C11.7653 23.5268 11.2615 23.7355 10.7362 23.7355C10.2109 23.7355 9.70713 23.5268 9.33568 23.1554C8.96423 22.7839 8.75555 22.2802 8.75555 21.7548C8.75555 21.2295 8.96423 20.7257 9.33568 20.3543ZM1.94108 13.389C1.77497 13.5551 1.68164 13.7804 1.68164 14.0154C1.68164 14.2503 1.77497 14.4756 1.94108 14.6417C2.1072 14.8078 2.33251 14.9012 2.56744 14.9012H9.01702C9.25195 14.9012 9.47726 14.8078 9.64338 14.6417C9.8095 14.4756 9.90282 14.2503 9.90282 14.0154C9.90282 13.7804 9.8095 13.5551 9.64338 13.389C9.47726 13.2229 9.25195 13.1296 9.01702 13.1296H2.56744C2.33251 13.1296 2.1072 13.2229 1.94108 13.389ZM11.8948 27.2915C11.7287 27.4576 11.6354 27.6829 11.6354 27.9178C11.6354 28.1527 11.7287 28.378 11.8948 28.5442C12.061 28.7103 12.2863 28.8036 12.5212 28.8036H14.9577C15.1926 28.8036 15.4179 28.7103 15.5841 28.5442C15.7502 28.378 15.8435 28.1527 15.8435 27.9178C15.8435 27.6829 15.7502 27.4576 15.5841 27.2915C15.4179 27.1253 15.1926 27.032 14.9577 27.032H12.5212C12.2863 27.032 12.061 27.1253 11.8948 27.2915ZM18.5667 27.2915C18.4006 27.4576 18.3072 27.6829 18.3072 27.9178C18.3072 28.1527 18.4006 28.378 18.5667 28.5442C18.7328 28.7103 18.9581 28.8036 19.193 28.8036H25.6426C25.8776 28.8036 26.1029 28.7103 26.269 28.5442C26.4351 28.378 26.5284 28.1527 26.5284 27.9178C26.5284 27.6829 26.4351 27.4576 26.269 27.2915C26.1029 27.1253 25.8776 27.032 25.6426 27.032H19.193C18.9581 27.032 18.7328 27.1253 18.5667 27.2915Z" fill="#BED0E8"/>
</g>
</g>
</g>
</svg>
